<svg class="color-immutable" width="24" height="24" viewBox="0 0 24 24" fill="none" xmlns="http://www.w3.org/2000/svg"><path d="M0 22.5V1.5C0 0.675 0.675 0 1.5 0H22.5C23.325 0 24 0.675 24 1.5V22.5C24 23.325 23.325 24 22.5 24H1.5C0.675 24 0 23.325 0 22.5Z" fill="#2D327D"/><path d="M15.224 1.49799V24H10.658V9.26999H9.03201H7.40501H5.82601H5.27901V6.01699C6.40501 5.97499 7.31701 5.85799 8.01601 5.66499C8.71401 5.47199 9.35501 5.15699 9.93901 4.71899C10.783 4.08299 11.351 3.00899 11.643 1.49799H15.224Z" fill="white"/></svg>