<svg class="color-immutable" width="30" height="30" viewBox="0 0 30 30" fill="none" xmlns="http://www.w3.org/2000/svg"><g clip-path="url(#a)"><path d="M30 0H0v30h30V0Z" fill="#2D327D"/><path d="M25.5 3c.825 0 1.5.675 1.5 1.5v21c0 .825-.675 1.5-1.5 1.5h-21c-.825 0-1.5-.675-1.5-1.5v-21C3 3.675 3.675 3 4.5 3h21Zm0-.375h-21A1.877 1.877 0 0 0 2.625 4.5v21c0 1.034.841 1.875 1.875 1.875h21a1.877 1.877 0 0 0 1.875-1.875v-21A1.877 1.877 0 0 0 25.5 2.625Z" fill="#fff"/><path d="M15.893 7.629a1.597 1.597 0 1 0 3.194 0 1.597 1.597 0 0 0-3.194 0ZM8.729 21.083l2.16-5.08a.952.952 0 0 1 .877-.58h3.689l.198-1.588h-3.055a.582.582 0 0 1 0-1.164h3.2l.242-1.945a1.323 1.323 0 0 1 2.626.327l-.634 5.088c-.008.06-.033.215-.033.235a.952.952 0 0 1-.952.952h-4.651l-1.914 4.5a.953.953 0 0 1-1.753-.745Z" fill="#fff"/><path d="M11.632 20.436a4.516 4.516 0 1 0 7.071-5.497l.18-1.552a5.825 5.825 0 1 1-7.87 8.445l.619-1.396Z" fill="#fff"/></g><defs><clipPath id="a"><path fill="#fff" d="M0 0h30v30H0z"/></clipPath></defs></svg>