<svg class="color-immutable" width="24" height="24" viewBox="0 0 24 24" fill="none" xmlns="http://www.w3.org/2000/svg"><g clip-path="url(#a)"><path d="M0 22.5v-21C0 .675.675 0 1.5 0h21c.825 0 1.5.675 1.5 1.5v21c0 .825-.675 1.5-1.5 1.5h-21C.675 24 0 23.325 0 22.5Z" fill="#2D327D"/><path d="M12.892 4.629a1.598 1.598 0 1 0 3.196 0 1.598 1.598 0 0 0-3.196 0ZM5.729 18.083l2.161-5.081a.952.952 0 0 1 .876-.58h3.689l.198-1.588H9.598a.582.582 0 1 1 0-1.164h3.199l.242-1.945a1.322 1.322 0 1 1 2.625.327l-.634 5.088c-.008.061-.033.215-.033.235a.953.953 0 0 1-.953.953H9.396l-1.914 4.501a.954.954 0 0 1-1.249.504.953.953 0 0 1-.504-1.25Z" fill="#fff"/><path d="M8.632 17.435a4.516 4.516 0 1 0 7.071-5.497l.18-1.552a5.825 5.825 0 1 1-7.869 8.445l.618-1.396Z" fill="#fff"/></g><defs><clipPath id="a"><path fill="#fff" d="M0 0h24v24H0z"/></clipPath></defs></svg>