<svg class="color-immutable" width="24" height="24" viewBox="0 0 24 24" fill="none" xmlns="http://www.w3.org/2000/svg"><g clip-path="url(#a)"><path d="M0 22.5v-21C0 .675.675 0 1.5 0h21c.825 0 1.5.675 1.5 1.5v21c0 .825-.675 1.5-1.5 1.5h-21C.675 24 0 23.325 0 22.5Z" fill="#2D327D"/><path d="M21 20.7H3v.3h18v-.3Z" fill="#fff"/><path fill-rule="evenodd" clip-rule="evenodd" d="M20.625 15.75h-3.809l-.771-2.475h3.568a.49.49 0 0 0 .488-.487.49.49 0 0 0-.488-.488h-3.871l-1.566-5.025h-1.35l2.467 9.525h.001c.113.39.473.675.9.675h4.432a.376.376 0 0 0 .375-.375v-.975a.378.378 0 0 0-.376-.375ZM15 5.925c.158-.166.15-.245.15-.397V3.375A.376.376 0 0 0 14.775 3H13.2a.376.376 0 0 0-.375.375v3.45h1.35l.825-.9ZM5.468 16.8c.113.39.473.675.9.675H10.8a.376.376 0 0 0 .375-.375v-.975a.376.376 0 0 0-.375-.375H6.991l-.771-2.475h3.568a.488.488 0 0 0 0-.975H5.916L4.35 7.275H3L5.468 16.8ZM5.175 5.925c.158-.166.15-.245.15-.397V3.375A.376.376 0 0 0 4.95 3H3.375A.376.376 0 0 0 3 3.375v3.45h1.35l.825-.9Z" fill="#fff"/></g><defs><clipPath id="a"><path fill="#fff" d="M0 0h24v24H0z"/></clipPath></defs></svg>