<svg class="color-immutable" width="24" height="24" viewBox="0 0 24 24" fill="none" xmlns="http://www.w3.org/2000/svg"><path d="M0 22.5V1.5C0 0.675 0.675 0 1.5 0H22.5C23.325 0 24 0.675 24 1.5V22.5C24 23.325 23.325 24 22.5 24H1.5C0.675 24 0 23.325 0 22.5Z" fill="#2D327D"/><path d="M4.125 9L5.438 11.055L10.126 10.875L9 3H10.845L13.48 10.875H19.875C20.496 10.875 21 11.379 21 12C21 12.621 20.496 13.125 19.875 13.125H13.48L10.845 21H9L10.125 13.125L5.437 12.945L4.125 15H3L3.75 12L3 9H4.125Z" fill="white"/></svg>