<svg class="color-immutable" width="30" height="30" viewBox="0 0 30 30" fill="none" xmlns="http://www.w3.org/2000/svg"><path d="M30 0H0V30H30V0Z" fill="#2D327D"/><path d="M25.5 3C26.325 3 27 3.675 27 4.5V25.5C27 26.325 26.325 27 25.5 27H4.5C3.675 27 3 26.325 3 25.5V4.5C3 3.675 3.675 3 4.5 3H25.5ZM25.5 2.625H4.5C3.46613 2.625 2.625 3.46613 2.625 4.5V25.5C2.625 26.5339 3.46613 27.375 4.5 27.375H25.5C26.5339 27.375 27.375 26.5339 27.375 25.5V4.5C27.375 3.46613 26.5339 2.625 25.5 2.625Z" fill="white"/><path d="M22.875 11.9999L21.5624 14.0552L16.8749 13.875L17.9999 6H16.1549L13.5202 13.875H7.12493C6.50408 13.875 6 14.379 6 15C6 15.621 6.50408 16.125 7.12493 16.125H13.5201L16.1548 24H17.9999L16.8749 16.125L21.5623 15.9447L22.875 18H24L23.2499 15L24 11.9999H22.875Z" fill="white"/></svg>