<svg class="color-immutable" width="24" height="24" viewBox="0 0 24 24" fill="none" xmlns="http://www.w3.org/2000/svg"><g clip-path="url(#a)"><path d="M0 22.5v-21C0 .675.675 0 1.5 0h21c.825 0 1.5.675 1.5 1.5v21c0 .825-.675 1.5-1.5 1.5h-21C.675 24 0 23.325 0 22.5Z" fill="#2D327D"/><path d="m4.125 9 1.313 2.055 4.688-.18L9 3h1.845l2.635 7.875h6.395a1.125 1.125 0 0 1 0 2.25H13.48L10.845 21H9l1.125-7.875-4.688-.18L4.125 15H3l.75-3L3 9h1.125Z" fill="#fff"/></g><defs><clipPath id="a"><path fill="#fff" d="M0 0h24v24H0z"/></clipPath></defs></svg>