<svg class="color-immutable" width="30" height="30" viewBox="0 0 30 30" fill="none" xmlns="http://www.w3.org/2000/svg"><path d="M30 0H0V30H30V0Z" fill="#2D327D"/><path d="M25.5 3C26.325 3 27 3.675 27 4.5V25.5C27 26.325 26.325 27 25.5 27H4.5C3.675 27 3 26.325 3 25.5V4.5C3 3.675 3.675 3 4.5 3H25.5ZM25.5 2.625H4.5C3.46613 2.625 2.625 3.46613 2.625 4.5V25.5C2.625 26.5339 3.46613 27.375 4.5 27.375H25.5C26.5339 27.375 27.375 26.5339 27.375 25.5V4.5C27.375 3.46613 26.5339 2.625 25.5 2.625Z" fill="white"/><path d="M7.125 11.9999L8.43758 14.0552L13.1251 13.875L12.0001 6H13.8452L16.4798 13.875H22.875C23.4959 13.875 24 14.379 24 15C24 15.621 23.4959 16.125 22.875 16.125H16.4799L13.8452 24H12.0002L13.1252 16.125L8.43758 15.9447L7.125 18H6L6.75007 15L6 11.9999H7.125Z" fill="white"/></svg>