<svg class="color-immutable" width="30" height="30" viewBox="0 0 30 30" fill="none" xmlns="http://www.w3.org/2000/svg"><g clip-path="url(#a)"><path d="M30 0H0v30h30V0Z" fill="#2D327D"/><path d="M25.5 3c.825 0 1.5.675 1.5 1.5v21c0 .825-.675 1.5-1.5 1.5h-21c-.825 0-1.5-.675-1.5-1.5v-21C3 3.675 3.675 3 4.5 3h21Zm0-.375h-21A1.877 1.877 0 0 0 2.625 4.5v21c0 1.034.841 1.875 1.875 1.875h21a1.877 1.877 0 0 0 1.875-1.875v-21A1.877 1.877 0 0 0 25.5 2.625Z" fill="#fff"/><path d="M21.15 19.184a1.164 1.164 0 0 0-.64-1.025l-.03-.014c-.635-.316-1.715-1.072-1.715-2.559 0-1.798-.128-2.75-.458-3.394-.365-.714-.991-1.04-2.023-1.052.015-.267.024-.846-.338-1.264-.156-.181-.448-.397-.946-.397-.498 0-.79.216-.946.397-.362.418-.353.997-.338 1.264-1.031.012-1.658.338-2.023 1.052-.33.644-.458 1.596-.458 3.394 0 1.487-1.08 2.243-1.715 2.559l-.029.014c-.376.19-.635.577-.64 1.025v.872h12.3l-.001-.872Zm-6.63-8.905c.107-.123.264-.184.48-.184.216 0 .373.06.48.184.205.237.19.674.187.86h-1.334c-.003-.186-.018-.623.187-.86ZM13.769 20.364a1.281 1.281 0 1 0 2.463 0h-2.463ZM20.658 15.247a.374.374 0 0 1-.346-.519 4.1 4.1 0 0 0 .313-1.579c0-1.101-.43-2.137-1.208-2.916a.375.375 0 0 1 .53-.53 4.843 4.843 0 0 1 1.428 3.446c0 .647-.125 1.274-.37 1.867a.375.375 0 0 1-.347.231ZM22.738 16.108a.375.375 0 0 1-.346-.519c.32-.773.483-1.594.483-2.44a6.333 6.333 0 0 0-1.867-4.507.375.375 0 1 1 .53-.53 7.078 7.078 0 0 1 2.087 5.037c0 .945-.182 1.863-.54 2.728a.375.375 0 0 1-.347.231ZM9.342 15.247a.375.375 0 0 1-.347-.231 4.847 4.847 0 0 1-.37-1.867c0-1.302.507-2.526 1.428-3.447a.375.375 0 0 1 .53.53 4.098 4.098 0 0 0-1.208 2.917 4.1 4.1 0 0 0 .313 1.58.375.375 0 0 1-.346.518ZM7.262 16.108a.375.375 0 0 1-.346-.231 7.085 7.085 0 0 1-.541-2.728c0-1.903.741-3.692 2.087-5.038a.375.375 0 0 1 .53.53 6.333 6.333 0 0 0-1.867 4.508c0 .846.163 1.667.484 2.44a.375.375 0 0 1-.347.52Z" fill="#fff"/></g><defs><clipPath id="a"><path fill="#fff" d="M0 0h30v30H0z"/></clipPath></defs></svg>