<svg class="color-immutable" width="30" height="30" viewBox="0 0 30 30" fill="none" xmlns="http://www.w3.org/2000/svg"><path d="M30 0H0v30h30V0Z" fill="#2D327D"/><path d="M25.5 3c.825 0 1.5.675 1.5 1.5v21c0 .825-.675 1.5-1.5 1.5h-21c-.825 0-1.5-.675-1.5-1.5v-21C3 3.675 3.675 3 4.5 3h21Zm0-.375h-21A1.877 1.877 0 0 0 2.625 4.5v21c0 1.034.841 1.875 1.875 1.875h21a1.877 1.877 0 0 0 1.875-1.875v-21A1.877 1.877 0 0 0 25.5 2.625Z" fill="#fff"/><path fill-rule="evenodd" clip-rule="evenodd" d="m7.08 12.117-.045-.076-.988-1.7a.292.292 0 0 1 0-.316c.173-.295.344-.592.517-.889l.013-.025-.534-.315.002-.006h1.71c.018 0 .032.001.043.02l.863 1.48.013.026-.542-.313-.02.032c-.322.56-.645 1.118-.968 1.677a.49.49 0 0 0-.06.385l.001.019a.1.1 0 0 0-.006 0ZM12.072 7.072l.54-.312c-.008.017-.011.025-.016.032l-.84 1.464c-.008.015-.017.023-.036.023l-1.712.006-.025-.002.535-.313-.019-.035-.955-1.667a.491.491 0 0 0-.314-.253c-.004-.001-.007-.004-.018-.01h.04L11.185 6c.058 0 .118 0 .175.009.083.012.14.065.18.136l.522.912.01.015ZM10.88 12.948v.617c-.003 0-.006 0-.008.002l-.015-.021-.84-1.46c-.01-.015-.013-.026-.003-.043l.857-1.494.01-.012v.622h1.968a.506.506 0 0 0 .372-.145l.02-.014-.021.037-.97 1.688c-.03.05-.059.1-.095.144-.049.06-.119.082-.194.082-.173 0-.346-.002-.518-.003H10.88Z" fill="#fff"/><path fill-rule="evenodd" clip-rule="evenodd" d="M9.59 11.153v1.782h-.035c-.415 0-.83.01-1.245-.003-.374-.011-.658-.186-.818-.535a.827.827 0 0 1-.078-.47.417.417 0 0 1 .046-.142c.115-.204.234-.405.35-.607.011-.02.023-.025.045-.025H9.59ZM11.2 9.316l1.537-.89.019.031c.208.357.424.71.622 1.073a.876.876 0 0 1 .044.805.942.942 0 0 1-.39.442.46.46 0 0 1-.243.067c-.227-.002-.455 0-.682 0-.018 0-.03-.003-.04-.02l-.86-1.49-.008-.018ZM7.258 7.77l.16-.284c.159-.278.312-.558.476-.833a.859.859 0 0 1 .63-.426.92.92 0 0 1 .614.115.464.464 0 0 1 .175.173c.113.198.229.395.343.593.01.017.012.03.002.048-.283.493-.565.988-.847 1.482l-.014.023-1.54-.891Z" fill="#fff"/><path d="M17.6 10.878a.749.749 0 0 0-.193.219l-4.924 8.529 6.495 3.75 4.923-8.528a.748.748 0 0 0 .094-.277L17.6 10.878ZM23.687 12.813a.375.375 0 0 0-.18-.251l-1.15-.664.281-.487a.375.375 0 0 0-.137-.512l-.974-.563a.375.375 0 0 0-.513.137l-.28.487-1.154-.666a.375.375 0 0 0-.31-.03l-.786.27 5.365 3.097-.162-.818Zm-2.63-1.665a.563.563 0 0 1 .975.562l-.736-.425-.238-.137ZM12.824 21.443c.03.086.089.158.167.203l3.98 2.297c.077.045.17.06.258.044l.993-.192-5.726-3.306.328.954Z" fill="#fff"/></svg>