<svg class="color-immutable" width="24" height="24" viewBox="0 0 24 24" fill="none" xmlns="http://www.w3.org/2000/svg"><g clip-path="url(#a)"><path d="M0 22.5v-21C0 .675.675 0 1.5 0h21c.825 0 1.5.675 1.5 1.5v21c0 .825-.675 1.5-1.5 1.5h-21C.675 24 0 23.325 0 22.5Z" fill="#2D327D"/><path d="M3.231 21.185h17.625a.185.185 0 0 0 0-.37H3.231a.185.185 0 0 0 0 .37ZM3.021 13.874A3.57 3.57 0 0 1 5.48 12.1l5.759-1.015 3.336-7.707L16.039 3l.297 7.187 2.666-.47.561-2.027 1.155-.15.393 3.29-4.646 2.658-11.115 1.96a4.252 4.252 0 0 1-1.629-.031l.001.001a1.058 1.058 0 0 1-.701-1.544ZM6.139 16.68a.501.501 0 1 0 0-1.002.501.501 0 0 0 0 1.002ZM12.519 15.555a.543.543 0 1 0 0-1.086.543.543 0 0 0 0 1.086ZM14.083 15.279a.543.543 0 1 0 0-1.086.543.543 0 0 0 0 1.086Z" fill="#fff"/></g><defs><clipPath id="a"><path fill="#fff" d="M0 0h24v24H0z"/></clipPath></defs></svg>