<svg class="color-immutable" width="60" height="24" viewBox="0 0 60 24" fill="none" xmlns="http://www.w3.org/2000/svg"><g clip-path="url(#a)"><path d="M0 22.5v-21C0 .675.675 0 1.5 0h57c.825 0 1.5.675 1.5 1.5v21c0 .825-.675 1.5-1.5 1.5h-57C.675 24 0 23.325 0 22.5Z" fill="#2D327D"/><path d="M19.828.54c12.664 0 24.095 5.367 32.149 13.94l-.504-11.6L55.5 6.907V21H41.407l-4.027-4.026 11.577.503.021.001C41.693 9.672 31.323 4.781 19.828 4.781A39.67 39.67 0 0 0 5.492 7.448L3.968 3.49A43.906 43.906 0 0 1 19.828.54Z" fill="#fff"/></g><defs><clipPath id="a"><path fill="#fff" d="M0 0h60v24H0z"/></clipPath></defs></svg>