<svg class="color-immutable" width="60" height="24" viewBox="0 0 60 24" fill="none" xmlns="http://www.w3.org/2000/svg"><g clip-path="url(#a)"><path d="M0 22.5v-21C0 .675.675 0 1.5 0h57c.825 0 1.5.675 1.5 1.5v21c0 .825-.675 1.5-1.5 1.5h-57C.675 24 0 23.325 0 22.5Z" fill="#2D327D"/><path d="M40.172.54C27.508.54 16.077 5.907 8.023 14.48l.504-11.6L4.5 6.907V21h14.094l4.027-4.026-11.577.503-.021.001c7.285-7.806 17.655-12.697 29.15-12.697 5.051 0 9.885.946 14.336 2.667l1.524-3.958A43.91 43.91 0 0 0 40.172.54Z" fill="#fff"/></g><defs><clipPath id="a"><path fill="#fff" d="M0 0h60v24H0z"/></clipPath></defs></svg>