<svg class="color-immutable" width="24" height="24" viewBox="0 0 24 24" fill="none" xmlns="http://www.w3.org/2000/svg"><g clip-path="url(#a)"><path d="M0 22.5v-21C0 .675.675 0 1.5 0h21c.825 0 1.5.675 1.5 1.5v21c0 .825-.675 1.5-1.5 1.5h-21C.675 24 0 23.325 0 22.5Z" fill="#2D327D"/><path d="M20.869 18.582 12.771 4.556c-.165-.275-.433-.471-.769-.472-.325-.001-.608.206-.77.473L3.134 18.584c-.155.28-.191.611-.024.902.162.282.482.423.795.43H20.1c.32-.006.625-.14.793-.43.164-.281.126-.63-.024-.904Z" fill="#fff"/><path d="M20.869 18.582 12.771 4.556c-.165-.275-.433-.471-.769-.472-.325-.001-.608.206-.77.473L3.134 18.584c-.155.28-.191.611-.024.902.162.282.482.423.795.43H20.1c.32-.006.625-.14.793-.43.164-.281.126-.63-.024-.904Zm-15.747-.218L12 6.451l6.878 11.913H5.122Z" fill="#EB0000"/><path d="M15.099 13.959c-.008 0 .007-.001 0 0h-1.895a.17.17 0 0 0-.151.091l-.751.893-.997-.58.777-.193a.172.172 0 0 0 .144-.17l.001-1.498c0-.007 0 .007 0 0a.353.353 0 0 0-.353-.355.358.358 0 0 0-.358.348v1.083l-1.033.257.001.004a.888.888 0 0 0-.763.879c0 .112.025.221.047.32 0 0 .296 1.317.316 1.399.02.082.03.108.103.162 0 0 1.12.786 1.223.855.102.069.156.099.253.099a.355.355 0 0 0 .355-.355c0-.142-.088-.247-.201-.326l-1.076-.752-.116-.522c.004-.001 1.181.688 1.181.688h2.154v1.138a.451.451 0 0 0 .888 0V15.76a.372.372 0 0 0-.369-.364H13.08l.461-.549h1.599a.443.443 0 0 0 .423-.442c.001-.245-.219-.446-.464-.446Zm-5.911-1.033a.752.752 0 1 0 0 1.505.752.752 0 0 0 0-1.505Z" fill="#000"/></g><defs><clipPath id="a"><path fill="#fff" d="M0 0h24v24H0z"/></clipPath></defs></svg>