<svg class="color-immutable" width="30" height="30" viewBox="0 0 30 30" fill="none" xmlns="http://www.w3.org/2000/svg"><path d="M30 0H0v30h30V0Z" fill="#2D327D"/><path d="M25.5 3c.825 0 1.5.675 1.5 1.5v21c0 .825-.675 1.5-1.5 1.5h-21c-.825 0-1.5-.675-1.5-1.5v-21C3 3.675 3.675 3 4.5 3h21Zm0-.375h-21A1.877 1.877 0 0 0 2.625 4.5v21c0 1.034.841 1.875 1.875 1.875h21a1.877 1.877 0 0 0 1.875-1.875v-21A1.877 1.877 0 0 0 25.5 2.625Z" fill="#fff"/><path d="M23.87 21.582 15.77 7.556c-.165-.274-.433-.47-.77-.472-.324 0-.607.206-.77.474L6.135 21.584c-.155.28-.19.61-.024.902.162.282.482.423.795.43H23.1c.32-.006.625-.14.794-.43.163-.282.125-.63-.025-.904Z" fill="#fff"/><path d="M23.87 21.582 15.77 7.556c-.165-.274-.433-.47-.77-.472-.324 0-.607.206-.77.474L6.135 21.584c-.155.28-.19.61-.024.902.162.282.482.423.795.43H23.1c.32-.006.625-.14.794-.43.163-.282.125-.63-.025-.904Zm-15.748-.218L15 9.45l6.878 11.913H8.122Z" fill="#EB0000"/><path d="M18.099 16.959c-.008 0 .007 0 0 0h-1.896a.172.172 0 0 0-.151.09l-.75.893-.998-.58.777-.193a.172.172 0 0 0 .144-.17l.001-1.498c0 .007 0-.007 0 0a.353.353 0 0 0-.353-.355.358.358 0 0 0-.358.348v1.083l-1.033.257.001.003a.889.889 0 0 0-.763.88c0 .111.025.22.047.32 0 0 .296 1.316.316 1.399.02.082.03.108.103.162 0 0 1.12.786 1.223.855.102.069.155.098.253.098.195 0 .355-.159.355-.355 0-.142-.088-.247-.201-.326l-1.076-.752-.116-.522c.004-.001 1.18.688 1.18.688h2.155v1.138a.452.452 0 0 0 .888 0V18.76a.373.373 0 0 0-.369-.364H16.08l.462-.549h1.599a.443.443 0 0 0 .423-.442c0-.245-.22-.446-.465-.446Zm-5.911-1.033a.752.752 0 1 0 0 1.504.752.752 0 0 0 0-1.504Z" fill="#000"/></svg>