<svg class="color-immutable" width="30" height="30" viewBox="0 0 30 30" fill="none" xmlns="http://www.w3.org/2000/svg"><g clip-path="url(#a)"><path d="M30 0H0v30h30V0Z" fill="#2D327D"/><path d="M25.5 3c.825 0 1.5.675 1.5 1.5v21c0 .825-.675 1.5-1.5 1.5h-21c-.825 0-1.5-.675-1.5-1.5v-21C3 3.675 3.675 3 4.5 3h21Zm0-.375h-21A1.877 1.877 0 0 0 2.625 4.5v21c0 1.034.841 1.875 1.875 1.875h21a1.877 1.877 0 0 0 1.875-1.875v-21A1.877 1.877 0 0 0 25.5 2.625Z" fill="#fff"/><path d="m5.244 22.233 8.908-15.429c.182-.302.477-.518.846-.519.358 0 .67.227.847.52l8.908 15.43c.17.308.21.671.026.992-.178.31-.53.465-.874.473H6.09c-.353-.007-.687-.154-.873-.473-.18-.31-.138-.693.027-.994Z" fill="#fff"/><path d="M14.998 7.739 23.52 22.5H6.476l8.522-14.761Zm.003-1.454h-.003c-.37.001-.664.217-.846.52L5.244 22.232c-.165.301-.207.684-.027.994.186.32.52.466.873.473h17.815c.344-.008.696-.163.874-.473.184-.32.145-.684-.026-.993L15.845 6.806c-.177-.294-.487-.52-.844-.52Z" fill="#EB0000"/><path d="M11.594 17.483v1.102a.116.116 0 1 1-.232 0v-.94h-.101v2.514a.167.167 0 0 1-.333 0v-1.462h-.106v1.462a.167.167 0 0 1-.333 0v-2.514h-.101v.94a.116.116 0 0 1-.232 0v-1.102c0-.18.146-.325.325-.325h.788c.18 0 .325.146.325.325ZM10.557 16.75a.325.325 0 1 1 .65 0 .325.325 0 0 1-.65 0Z" fill="#000"/><path d="M12 20.625h2.25v1.5h-.375V21H12v-.375Z" fill="#EB0000"/><path d="M8.625 21H12v-.375H8.625V21Z" fill="#000"/><path d="M14.25 15v.16l-.16-.16h.16ZM13.75 15l.5.5v.16l-.66-.66h.16ZM13.25 15l1 1v.16L13.09 15h.16ZM12.25 15l2 2v.16L12.09 15h.16ZM12 15.25l2.25 2.25v.16L12 15.41v-.16ZM12 15.75 14.25 18v.16L12 15.91v-.16ZM12 16.25l2.25 2.25v.16L12 16.41v-.16ZM12 16.75 14.25 19v.16L12 16.91v-.16ZM12 17.25l2.25 2.25v.16L12 17.41v-.16ZM12 17.75 14.25 20v.16L12 17.91v-.16ZM12 18.25l2 2h-.16L12 18.41v-.16ZM12 18.75l1.5 1.5h-.16L12 18.91v-.16ZM12 19.25l1 1h-.16l-.84-.84v-.16ZM12 19.75l.5.5h-.16l-.34-.34v-.16ZM12.75 15l1.5 1.5v.16L12.59 15h.16Z" fill="#EB0000"/><path d="M15.375 22.125h.375v-.6h-.375v.6ZM18 22.125h.375v-.6H18v.6ZM14.625 15.9v4.575c0 .082.03.21.067.284l.24.482a.267.267 0 0 0 .218.134h3.45c.082 0 .18-.06.217-.134l.24-.482a.755.755 0 0 0 .068-.284V15.9a.417.417 0 0 0-.106-.256l-.538-.538a.417.417 0 0 0-.256-.106h-2.7a.417.417 0 0 0-.256.106l-.538.538a.417.417 0 0 0-.106.256Zm2.625-.15h-.75v-.3h.75v.3ZM18 19.2h.75v.3H18v-.3Zm-3 0h.75v.3H15v-.3Zm0-3.075h3.75V18H15v-1.875ZM15.881 13.875h1.988a.131.131 0 0 1 0 .262h-.863v.713h-.262v-.713h-.863a.131.131 0 1 1 0-.262Z" fill="#000"/></g><defs><clipPath id="a"><path fill="#fff" d="M0 0h30v30H0z"/></clipPath></defs></svg>