<svg class="color-immutable" width="30" height="30" viewBox="0 0 30 30" fill="none" xmlns="http://www.w3.org/2000/svg"><g clip-path="url(#a)"><path d="M30 0H0v30h30V0Z" fill="#2D327D"/><path d="M25.5 3c.825 0 1.5.675 1.5 1.5v21c0 .825-.675 1.5-1.5 1.5h-21c-.825 0-1.5-.675-1.5-1.5v-21C3 3.675 3.675 3 4.5 3h21Zm0-.375h-21A1.877 1.877 0 0 0 2.625 4.5v21c0 1.034.841 1.875 1.875 1.875h21a1.877 1.877 0 0 0 1.875-1.875v-21A1.877 1.877 0 0 0 25.5 2.625Z" fill="#fff"/><path d="M24.756 22.233 15.848 6.804c-.182-.302-.477-.518-.846-.519-.358 0-.669.227-.847.52l-8.908 15.43c-.17.308-.21.671-.026.992.178.31.53.465.874.473h17.816c.352-.007.687-.154.872-.473.18-.31.138-.693-.027-.994Z" fill="#fff"/><path d="M15.002 7.739 23.524 22.5H6.48l8.522-14.761Zm-.003-1.454c-.356 0-.666.227-.844.52l-8.908 15.43c-.17.308-.21.671-.026.992.178.31.53.465.874.473h17.816c.352-.007.687-.154.872-.473.18-.31.138-.693-.027-.994L15.848 6.804c-.182-.302-.477-.518-.846-.519h-.003Z" fill="#EB0000"/><path d="M18.407 17.483v1.102a.116.116 0 1 0 .23 0v-.94h.102v2.514a.167.167 0 0 0 .333 0v-1.462h.106v1.462a.167.167 0 0 0 .333 0v-2.514h.101v.94a.116.116 0 1 0 .232 0v-1.102a.325.325 0 0 0-.325-.325h-.788a.325.325 0 0 0-.325.325ZM19.443 16.75a.325.325 0 1 0-.65 0 .325.325 0 0 0 .65 0Z" fill="#000"/><path d="M18 20.625h-2.25v1.5h.375V21H18v-.375Z" fill="#EB0000"/><path d="M21.375 20.625H18V21h3.375v-.375Z" fill="#000"/><path d="M15.75 15v.16l.16-.16h-.16ZM16.25 15l-.5.5v.16l.66-.66h-.16ZM16.75 15l-1 1v.16L16.91 15h-.16ZM17.75 15l-2 2v.16L17.91 15h-.16ZM18 15.25l-2.25 2.25v.16L18 15.41v-.16ZM18 15.75 15.75 18v.16L18 15.91v-.16ZM18 16.25l-2.25 2.25v.16L18 16.41v-.16ZM18 16.75 15.75 19v.16L18 16.91v-.16ZM18 17.25l-2.25 2.25v.16L18 17.41v-.16ZM18 17.75 15.75 20v.16L18 17.91v-.16ZM18 18.25l-2 2h.16L18 18.41v-.16ZM18 18.75l-1.5 1.5h.16L18 18.91v-.16ZM18 19.25l-1 1h.16l.84-.84v-.16ZM18 19.75l-.5.5h.16l.34-.34v-.16ZM17.25 15l-1.5 1.5v.16L17.41 15h-.16Z" fill="#EB0000"/><path d="M14.625 21.525h-.375v.6h.375v-.6ZM12 21.525h-.375v.6H12v-.6ZM15.269 15.644l-.538-.538a.417.417 0 0 0-.256-.106h-2.7a.417.417 0 0 0-.256.106l-.538.538a.417.417 0 0 0-.106.256v4.575c0 .082.03.21.067.284l.24.482a.267.267 0 0 0 .218.134h3.45c.082 0 .18-.06.217-.134l.24-.482a.755.755 0 0 0 .068-.284V15.9a.417.417 0 0 0-.106-.256Zm-2.519-.194h.75v.3h-.75v-.3ZM12 19.5h-.75v-.3H12v.3Zm3 0h-.75v-.3H15v.3Zm0-1.5h-3.75v-1.875H15V18ZM14.119 13.875H12.13a.131.131 0 0 0 0 .262h.863v.713h.262v-.713h.863a.131.131 0 0 0 0-.262Z" fill="#000"/></g><defs><clipPath id="a"><path fill="#fff" d="M0 0h30v30H0z"/></clipPath></defs></svg>