<svg class="color-immutable" width="24" height="24" viewBox="0 0 24 24" fill="none" xmlns="http://www.w3.org/2000/svg"><g clip-path="url(#a)"><path d="M0 22.5v-21C0 .675.675 0 1.5 0h21c.825 0 1.5.675 1.5 1.5v21c0 .825-.675 1.5-1.5 1.5h-21C.675 24 0 23.325 0 22.5Z" fill="#2D327D"/><path d="m10.015 11.795-1.811.633a.374.374 0 0 1-.435-.145l-.406-.603a.3.3 0 0 1 .249-.468h2.304a.3.3 0 0 1 .099.583ZM16.351 11.812h-2.626v-.6h2.626a.3.3 0 0 1 0 .6ZM16.35 12.787h-.375a.3.3 0 0 1 0-.6h.375a.3.3 0 0 1 0 .6ZM6.675 13.649a3.676 3.676 0 0 0 0 7.351 3.674 3.674 0 0 0 3.659-3.338h.782a.975.975 0 1 0 1.649-1.014l1.966-2.923.403.648a3.676 3.676 0 1 0 .511-.317l-.72-1.156h-5.85l-.72 1.156a3.673 3.673 0 0 0-1.68-.407Zm7.575 3.676c0-.956.445-1.858 1.203-2.44l1.617 2.598a.3.3 0 0 0 .554-.158.314.314 0 0 0-.044-.159l-1.617-2.599a3.078 3.078 0 0 1 4.438 2.757 3.075 3.075 0 0 1-6.151.001Zm-2.518-1.013L9.84 13.5h4.32l-1.891 2.812a.967.967 0 0 0-.537 0Zm-1.391.75a3.68 3.68 0 0 0-1.476-2.69l.404-.648 1.965 2.923a.96.96 0 0 0-.19.415h-.703Zm-1.794-2.177a3.078 3.078 0 0 1 1.192 2.177H7.192l1.355-2.177ZM6.675 20.4a3.076 3.076 0 1 1 1.363-5.832l-1.343 2.158-.019-.001a.6.6 0 1 0 .496.938h2.561A3.078 3.078 0 0 1 6.675 20.4ZM6.375 3a3.375 3.375 0 1 0 0 6.75 3.375 3.375 0 0 0 0-6.75Zm1.49 2.993a.7.7 0 0 1-.692-.8c-.306.183-.518.624-.519 1.087v1.704h.433a.14.14 0 1 1 0 .282H4.932a.14.14 0 1 1 0-.282h.445v-3.06h-.445a.14.14 0 1 1 0-.281h1.722v.708c.199-.29.592-.756 1.211-.756a.7.7 0 0 1 0 1.398Z" fill="#fff"/></g><defs><clipPath id="a"><path fill="#fff" d="M0 0h24v24H0z"/></clipPath></defs></svg>