<svg class="color-immutable" width="30" height="30" viewBox="0 0 30 30" fill="none" xmlns="http://www.w3.org/2000/svg"><path d="M30 0H0v30h30V0Z" fill="#2D327D"/><path d="M25.5 3c.825 0 1.5.675 1.5 1.5v21c0 .825-.675 1.5-1.5 1.5h-21c-.825 0-1.5-.675-1.5-1.5v-21C3 3.675 3.675 3 4.5 3h21Zm0-.375h-21A1.877 1.877 0 0 0 2.625 4.5v21c0 1.034.841 1.875 1.875 1.875h21a1.877 1.877 0 0 0 1.875-1.875v-21A1.877 1.877 0 0 0 25.5 2.625Z" fill="#fff"/><path d="M13.5 23.25c0 .414.336.75.75.75h9a.75.75 0 0 0 .75-.75v-.375H13.5v.375ZM21.75 15h-5.625a.375.375 0 0 0-.375.375v6c0 .414.336.75.75.75H21a.75.75 0 0 0 .75-.75V19.5a2.25 2.25 0 0 0 0-4.5Zm.005 3.75h-.005v-3h.005a1.5 1.5 0 0 1 0 3ZM12.375 10.5h-6a.375.375 0 0 0-.375.375V15a3.004 3.004 0 0 0 2.813 2.998v4.877H6.375A.375.375 0 0 0 6 23.25v.375c0 .207.168.375.375.375h6a.375.375 0 0 0 .375-.375v-.375a.375.375 0 0 0-.375-.375H9.937v-4.877A3.004 3.004 0 0 0 12.75 15v-4.125a.375.375 0 0 0-.375-.375Z" fill="#fff"/></svg>