<svg class="color-immutable" width="24" height="24" viewBox="0 0 24 24" fill="none" xmlns="http://www.w3.org/2000/svg"><g clip-path="url(#a)"><path d="M0 22.5v-21C0 .675.675 0 1.5 0h21c.825 0 1.5.675 1.5 1.5v21c0 .825-.675 1.5-1.5 1.5h-21C.675 24 0 23.325 0 22.5Z" fill="#237F52"/><path d="M17.979 12.183c-.181-.258-.395-.409-.395-.409l-.736-.438-1.188-.689a.54.54 0 0 0-.143-.02.327.327 0 0 0-.293.163c-.031.051-.049.145-.051.155-.056.253.104.552.324.689l.959.573.298.183-2.134 3.707c.506.316.548.305.559.311.201.106.399.217.62.217l2.006.007L21 18.53v-3.418l-1.734-1.022c0 .001-1.186-1.762-1.287-1.907Z" fill="#fff"/><path d="M20.642 18.567v.629a.251.251 0 0 1-.251.251H3.608a.251.251 0 0 1-.251-.251V6.608c0-.136.115-.251.251-.251h16.784c.138 0 .251.112.251.251v8.045l.357.21V6.608A.61.61 0 0 0 20.392 6H3.608A.61.61 0 0 0 3 6.608v12.588a.61.61 0 0 0 .608.608h16.784a.61.61 0 0 0 .608-.608v-.416l-.109-.065-.249-.148Z" fill="#fff"/><path d="M19.266 14.091s-1.186-1.763-1.288-1.908a1.84 1.84 0 0 0-.395-.409l-.736-.438-1.188-.689a.54.54 0 0 0-.143-.02.327.327 0 0 0-.293.163c-.031.051-.049.145-.051.155-.056.253.104.552.324.689l.959.573.298.183-2.134 3.707c.506.316.548.305.559.311.201.106.399.217.62.217l2.006.007 2.839 1.686.357.212v-3.418l-.358-.211-1.376-.81ZM16.833 11.079l.305.175.704-1.229 1.417.816.856-1.484-2.641-1.512-2.266.67 1.435.83-.698 1.219-.002.004.89.511ZM13.787 16.346l.337.194-.337-.194Z" fill="#fff"/><path d="m15.829 12.079-.189-.113a.621.621 0 0 1-.482.715.625.625 0 0 1 .041.685.626.626 0 0 1-.503.307c.003.006.007.011.009.018a.628.628 0 0 1-.031.566.625.625 0 0 1-.505.306c.008.014.017.028.023.043a.625.625 0 0 1-.886.788l-.105-.063-.29.506.876.507.337.194 2.329-4.084-.624-.375ZM8.297 8.319H6.038v-.358h2.174l1.311-.663 1.44.382-.092.347-1.308-.348-1.266.64ZM14.55 9.183l-.797-.864h-.725v-.358h.882l.903.979-.263.243ZM7.963 9.328l-.134-.333 1.566-.631.746.299.756-.35.151.326-.897.414-.756-.303-1.432.578ZM11.188 13.401l-.633-1.726.937-1.208.171-1.328.356.045-.185 1.426-.874 1.128.564 1.539-.336.124Z" fill="#fff"/><path d="m14.341 13.592-.107-.063-.012-.007-.188-.113-.546-.327a.407.407 0 0 0-.586.514.403.403 0 0 0 .16.183l.554.332.188.113.026.016.101.06a.41.41 0 0 0 .558-.146.407.407 0 0 0 .02-.371.395.395 0 0 0-.168-.191ZM14.064 13.173l-.187-.113-.554-.332a.406.406 0 0 1-.134-.561.41.41 0 0 1 .561-.135l.546.327.187.112.264.159.118.071a.41.41 0 0 1-.206.761.407.407 0 0 1-.206-.056l-.112-.067-.277-.166ZM14.822 12.428l-.06-.036-.187-.112-.554-.332a.409.409 0 0 1 .427-.695l.546.327.187.113.052.031c.009.005.017.012.026.018a.404.404 0 0 1 .121.54.407.407 0 0 1-.353.202.412.412 0 0 1-.17-.041c-.012-.006-.024-.009-.035-.015ZM13.974 15.065a.407.407 0 0 1-.559.146l-.109-.065-.019-.011-.188-.112-.142-.085a.406.406 0 1 1 .427-.694l.134.08.188.113.005.003.114.068a.409.409 0 0 1 .149.557Z" fill="#fff"/><path d="M12.589 8.14a.617.617 0 1 0-1.234 0 .617.617 0 0 0 1.234 0Z" fill="#EB0000"/></g><defs><clipPath id="a"><path fill="#fff" d="M0 0h24v24H0z"/></clipPath></defs></svg>