<svg class="color-immutable" width="24" height="24" viewBox="0 0 24 24" fill="none" xmlns="http://www.w3.org/2000/svg"><g clip-path="url(#a)"><path d="M0 22.5v-21C0 .675.675 0 1.5 0h21c.825 0 1.5.675 1.5 1.5v21c0 .825-.675 1.5-1.5 1.5h-21C.675 24 0 23.325 0 22.5Z" fill="#2D327D"/><path d="M6.375 8.25H3V7.5h15.074c.611 0 1.145.41 1.304 1l1.576 5.869c.031.114.046.232.046.35v3.806a.6.6 0 0 1-.6.6h-6.976a.6.6 0 0 1-.6-.6v-.011l.001-.064A3.452 3.452 0 0 0 9.375 15a3.452 3.452 0 0 0-3.449 3.514v.011a.6.6 0 0 1-.6.6H3V13.5h3.375a.375.375 0 0 0 .375-.375v-4.5a.375.375 0 0 0-.375-.375Zm11.063 6.375c0 .207.168.375.375.375h2.045a.375.375 0 0 0 .362-.472L18.634 8.62a.6.6 0 0 0-.58-.444h-.016a.6.6 0 0 0-.6.6v5.849Zm-1.95-.15a.6.6 0 0 0 1.2 0v-5.7a.6.6 0 0 0-1.2 0v5.7Zm-1.95 0a.6.6 0 0 0 1.2 0v-5.7a.6.6 0 0 0-1.2 0v5.7ZM7.5 13.125c0 .207.168.375.375.375h4.537a.375.375 0 0 0 .375-.375v-4.5a.375.375 0 0 0-.375-.375H7.875a.375.375 0 0 0-.375.375v4.5Z" fill="#fff"/><path d="M9.351 15.847a2.626 2.626 0 0 1 0 5.25 2.626 2.626 0 0 1 0-5.25Zm0 4.069a1.5 1.5 0 1 0-.001-3.001 1.5 1.5 0 0 0 .001 3.001Z" fill="#fff"/></g><defs><clipPath id="a"><path fill="#fff" d="M0 0h24v24H0z"/></clipPath></defs></svg>