<svg class="color-immutable" width="24" height="24" viewBox="0 0 24 24" fill="none" xmlns="http://www.w3.org/2000/svg"><g clip-path="url(#a)"><path d="M0 22.499v-21c0-.825.675-1.5 1.5-1.5h21c.825 0 1.5.675 1.5 1.5v21c0 .825-.675 1.5-1.5 1.5h-21c-.825 0-1.5-.675-1.5-1.5Z" fill="#2D327D"/><path d="M20.458 11.624h-2.124a.512.512 0 0 0-.512.512v5.073c0 .283.229.512.512.512h2.124a.512.512 0 0 0 .512-.512v-5.073a.512.512 0 0 0-.512-.512Zm-1.067 5.804a.222.222 0 0 1-.214-.232.226.226 0 0 1 .223-.225.223.223 0 0 1 .215.232.224.224 0 0 1-.224.225Zm1.164-.849h-2.318v-4.381h2.318v4.381ZM16.056 18.249V11.944a.32.32 0 0 0-.32-.32H4.848a.32.32 0 0 0-.32.32V18.249l-1.31 2.275s.024.476.224.476h13.7c.2.001.224-.476.224-.476l-1.31-2.275Zm-11.12-6.217h10.712v6.127H4.936v-6.127Zm7.338 8.49H8.311c-.064 0-.102-.05-.084-.111l.162-.57a.162.162 0 0 1 .147-.111h3.51c.064 0 .13.05.147.111l.162.57c.02.061-.018.111-.081.111Zm3.887-1.073H4.424c-.063 0-.09-.045-.06-.101l.372-.678a.214.214 0 0 1 .171-.101h10.771c.063 0 .14.046.171.101l.372.678c.03.056.003.101-.06.101ZM3 3h1.012c.217 0 .379.027.486.082.1.051.176.126.228.223a.548.548 0 0 1-.014.535.538.538 0 0 1-.228.189.694.694 0 0 1 .194.09c.146.107.218.262.218.466 0 .121-.027.23-.081.326a.601.601 0 0 1-.231.233c-.119.07-.279.105-.481.105H3V3Zm.491.386v.524h.449a.539.539 0 0 0 .231-.037c.091-.044.137-.12.137-.228 0-.091-.029-.157-.086-.198-.058-.041-.152-.061-.282-.061h-.449Zm0 .859v.617h.497c.143 0 .243-.02.3-.06.076-.054.114-.137.114-.248 0-.132-.051-.223-.154-.271a.77.77 0 0 0-.285-.038h-.472ZM6.705 3.569v1.68h-.424v-.245a.612.612 0 0 1-.539.29c-.201 0-.353-.067-.455-.201a.498.498 0 0 1-.084-.185 1.222 1.222 0 0 1-.025-.277V3.569h.446v.924c0 .096.003.165.008.205.006.04.017.074.035.102.047.075.128.112.241.112a.32.32 0 0 0 .306-.186c.031-.06.046-.17.046-.328v-.829h.445ZM8.416 4.059h-.419a.27.27 0 0 0-.047-.13c-.047-.06-.132-.09-.257-.09a.326.326 0 0 0-.183.043.14.14 0 0 0-.065.122.13.13 0 0 0 .072.122c.048.026.157.056.327.091.216.043.372.098.467.164.113.077.169.194.169.35 0 .179-.07.318-.209.417-.137.098-.319.146-.546.146-.281 0-.487-.069-.618-.208a.597.597 0 0 1-.148-.385h.428a.338.338 0 0 0 .058.172c.057.07.152.105.285.105a.385.385 0 0 0 .22-.056.176.176 0 0 0 .081-.152c0-.057-.023-.1-.07-.128a1.211 1.211 0 0 0-.296-.095 4.8 4.8 0 0 1-.309-.079.94.94 0 0 1-.163-.068.381.381 0 0 1-.146-.152.442.442 0 0 1-.053-.215c0-.174.072-.307.217-.398.118-.075.282-.113.492-.113.278 0 .477.071.598.212a.558.558 0 0 1 .115.325ZM9.195 3v.401h-.446V3h.446Zm0 .572v1.677h-.446V3.572h.446ZM9.975 3.573v.235a.633.633 0 0 1 .546-.287c.137 0 .254.035.349.105a.432.432 0 0 1 .159.21c.03.085.045.204.045.358v1.055h-.444v-.962a.722.722 0 0 0-.028-.237.211.211 0 0 0-.089-.105.321.321 0 0 0-.165-.042.356.356 0 0 0-.185.049.306.306 0 0 0-.123.134.738.738 0 0 0-.045.297v.864h-.444V3.573h.424ZM12.934 4.725a.752.752 0 0 1-.128.266c-.148.202-.36.303-.637.303-.25 0-.451-.079-.601-.237a.775.775 0 0 1-.169-.278 1.058 1.058 0 0 1-.063-.363c0-.244.07-.449.211-.615a.76.76 0 0 1 .609-.278.754.754 0 0 1 .735.516c.046.131.069.295.069.493h-1.17c.004.082.017.15.038.205.06.147.175.22.345.22a.343.343 0 0 0 .203-.055.396.396 0 0 0 .129-.176h.429v-.001Zm-.429-.493a.544.544 0 0 0-.055-.201.334.334 0 0 0-.295-.171.328.328 0 0 0-.246.1.442.442 0 0 0-.115.272h.711ZM14.605 4.059h-.418a.268.268 0 0 0-.048-.131c-.046-.059-.132-.089-.257-.089a.326.326 0 0 0-.183.043.139.139 0 0 0-.065.122.13.13 0 0 0 .071.122c.048.026.157.056.327.091.216.044.372.099.468.165.113.077.169.194.169.351 0 .179-.07.318-.209.417-.137.097-.319.146-.546.146-.281 0-.487-.069-.618-.208a.605.605 0 0 1-.148-.386h.428a.338.338 0 0 0 .058.172c.057.07.152.105.285.105a.385.385 0 0 0 .22-.056.176.176 0 0 0 .082-.152c0-.057-.023-.1-.07-.128a1.211 1.211 0 0 0-.296-.095 4.8 4.8 0 0 1-.309-.079.94.94 0 0 1-.163-.068.373.373 0 0 1-.146-.151.444.444 0 0 1-.052-.215c0-.174.072-.307.217-.398.118-.075.282-.112.492-.112.278 0 .477.071.598.212a.54.54 0 0 1 .113.322ZM16.328 4.059h-.418a.268.268 0 0 0-.048-.131c-.046-.059-.132-.089-.257-.089a.326.326 0 0 0-.183.043.139.139 0 0 0-.065.122.13.13 0 0 0 .071.122c.048.026.157.056.327.091.216.044.372.099.468.165.113.077.169.194.169.351 0 .179-.07.318-.209.417-.137.097-.319.146-.546.146-.281 0-.487-.069-.618-.208a.605.605 0 0 1-.148-.386h.428a.338.338 0 0 0 .058.172c.057.07.152.105.285.105a.385.385 0 0 0 .22-.056.176.176 0 0 0 .082-.152c0-.057-.023-.1-.07-.128a1.211 1.211 0 0 0-.296-.095 4.8 4.8 0 0 1-.309-.079.94.94 0 0 1-.163-.068.373.373 0 0 1-.146-.151.444.444 0 0 1-.052-.215c0-.174.072-.307.217-.398.118-.075.282-.112.492-.112.278 0 .477.071.598.212a.554.554 0 0 1 .113.322Z" fill="#fff"/></g><defs><clipPath id="a"><path fill="#fff" d="M0 0h24v24H0z"/></clipPath></defs></svg>