<svg class="color-immutable" width="24" height="24" viewBox="0 0 24 24" fill="none" xmlns="http://www.w3.org/2000/svg"><g clip-path="url(#a)"><path d="M0 22.5v-21C0 .675.675 0 1.5 0h21c.825 0 1.5.675 1.5 1.5v21c0 .825-.675 1.5-1.5 1.5h-21C.675 24 0 23.325 0 22.5Z" fill="#2D327D"/><path d="m8.776 5.438 6.464-1.132A.694.694 0 1 0 15 2.939L8.537 4.071a.695.695 0 0 0 .239 1.367ZM2.999 7.516l18-3.153v-.685l-18 3.153v.685ZM20.25 11.25h-3.712L13.76 6.01l-1.049.183 2.68 5.057H8.646l2.488-4.781-1.302.228-2.37 4.553H3.75A.75.75 0 0 0 3 12v8.25c0 .414.336.75.75.75h16.5a.75.75 0 0 0 .75-.75V12a.75.75 0 0 0-.75-.75Zm-11.5 4.875a.375.375 0 0 1-.375.375h-4.25a.375.375 0 0 1-.375-.375v-3.75c0-.207.168-.375.375-.375h4.25c.207 0 .375.168.375.375v3.75Zm5.75 0a.375.375 0 0 1-.375.375h-4.25a.375.375 0 0 1-.375-.375v-3.75c0-.207.168-.375.375-.375h4.25c.207 0 .375.168.375.375v3.75Zm5.75 0a.375.375 0 0 1-.375.375h-4.25a.375.375 0 0 1-.375-.375v-3.75c0-.207.168-.375.375-.375h4.25c.207 0 .375.168.375.375v3.75Z" fill="#fff"/></g><defs><clipPath id="a"><path fill="#fff" d="M0 0h24v24H0z"/></clipPath></defs></svg>