<svg class="color-immutable" width="30" height="30" viewBox="0 0 30 30" fill="none" xmlns="http://www.w3.org/2000/svg"><g clip-path="url(#a)"><path d="M30 0H0v30h30V0Z" fill="#2D327D"/><path d="M25.5 3c.825 0 1.5.675 1.5 1.5v21c0 .825-.675 1.5-1.5 1.5h-21c-.825 0-1.5-.675-1.5-1.5v-21C3 3.675 3.675 3 4.5 3h21Zm0-.375h-21A1.877 1.877 0 0 0 2.625 4.5v21c0 1.034.841 1.875 1.875 1.875h21a1.877 1.877 0 0 0 1.875-1.875v-21A1.877 1.877 0 0 0 25.5 2.625Z" fill="#fff"/><path d="m11.776 8.438 6.464-1.132A.694.694 0 0 0 18 5.939l-6.463 1.133a.694.694 0 0 0 .24 1.366ZM6 10.516l18-3.153v-.685L6 9.83v.685ZM23.25 14.25h-3.712L16.76 9.01l-1.049.183 2.68 5.057h-6.745l2.488-4.78-1.302.228-2.37 4.552H6.75A.75.75 0 0 0 6 15v8.25c0 .414.336.75.75.75h16.5a.75.75 0 0 0 .75-.75V15a.75.75 0 0 0-.75-.75Zm-11.5 4.875a.375.375 0 0 1-.375.375h-4.25a.375.375 0 0 1-.375-.375v-3.75c0-.207.168-.375.375-.375h4.25c.207 0 .375.168.375.375v3.75Zm5.75 0a.375.375 0 0 1-.375.375h-4.25a.375.375 0 0 1-.375-.375v-3.75c0-.207.168-.375.375-.375h4.25c.207 0 .375.168.375.375v3.75Zm5.75 0a.375.375 0 0 1-.375.375h-4.25a.375.375 0 0 1-.375-.375v-3.75c0-.207.168-.375.375-.375h4.25c.207 0 .375.168.375.375v3.75Z" fill="#fff"/></g><defs><clipPath id="a"><path fill="#fff" d="M0 0h30v30H0z"/></clipPath></defs></svg>