<svg class="color-immutable" width="30" height="30" viewBox="0 0 30 30" fill="none" xmlns="http://www.w3.org/2000/svg"><g clip-path="url(#a)"><path d="M0 0h30v30H0V0Z" fill="#2D327D"/><path d="M25.5 3c.825 0 1.5.675 1.5 1.5v21c0 .825-.675 1.5-1.5 1.5h-21c-.825 0-1.5-.675-1.5-1.5v-21C3 3.675 3.675 3 4.5 3h21Zm0-.375h-21A1.877 1.877 0 0 0 2.625 4.5v21c0 1.034.841 1.875 1.875 1.875h21a1.877 1.877 0 0 0 1.875-1.875v-21A1.877 1.877 0 0 0 25.5 2.625Z" fill="#fff"/><path d="M22.65 18.072a1.448 1.448 0 0 0-.833-1.293c-.79-.393-2.133-1.332-2.133-3.182 0-2.237-.16-3.42-.57-4.222-.455-.889-1.234-1.294-2.517-1.31.02-.331.03-1.051-.42-1.571C15.982 6.268 15.62 6 15 6s-.982.268-1.177.494c-.45.52-.439 1.24-.42 1.572-1.283.015-2.062.42-2.517 1.309-.41.801-.57 1.985-.57 4.222 0 1.85-1.342 2.79-2.133 3.182a1.448 1.448 0 0 0-.832 1.293l-.001 1.085h15.3v-1.085ZM14.402 6.995c.133-.153.328-.228.597-.228.269 0 .464.075.597.228.255.295.237.839.233 1.07h-1.66c-.004-.231-.022-.775.233-1.07ZM13.468 19.54a1.593 1.593 0 1 0 3.064 0h-3.064Z" fill="#fff"/></g><defs><clipPath id="a"><path fill="#fff" d="M0 0h30v30H0z"/></clipPath></defs></svg>