<svg class="color-immutable" width="24" height="24" viewBox="0 0 24 24" fill="none" xmlns="http://www.w3.org/2000/svg"><g clip-path="url(#a)"><path d="M0 22.5v-21C0 .675.675 0 1.5 0h21c.825 0 1.5.675 1.5 1.5v21c0 .825-.675 1.5-1.5 1.5h-21C.675 24 0 23.325 0 22.5Z" fill="#2D327D"/><path d="M19.65 15.072a1.446 1.446 0 0 0-.797-1.275l-.036-.017c-.791-.393-2.133-1.333-2.133-3.182 0-2.237-.16-3.42-.57-4.222-.455-.889-1.234-1.294-2.517-1.309.019-.332.03-1.052-.42-1.572C12.982 3.268 12.62 3 12 3s-.982.268-1.177.494c-.45.52-.439 1.24-.42 1.572-1.283.015-2.062.42-2.517 1.309-.41.801-.57 1.985-.57 4.222 0 1.85-1.342 2.789-2.133 3.182a1.448 1.448 0 0 0-.833 1.292v1.085h15.3v-1.084ZM11.403 3.995c.133-.153.328-.228.597-.228.269 0 .464.075.597.229.255.294.237.838.233 1.069h-1.66c-.004-.231-.022-.775.233-1.07ZM10.468 16.539a1.594 1.594 0 1 0 3.064 0h-3.064Z" fill="#fff"/></g><defs><clipPath id="a"><path fill="#fff" d="M0 0h24v24H0z"/></clipPath></defs></svg>