<svg class="color-immutable" width="24" height="24" viewBox="0 0 24 24" fill="none" xmlns="http://www.w3.org/2000/svg"><g clip-path="url(#a)"><path d="M0 22.5v-21C0 .675.675 0 1.5 0h21c.825 0 1.5.675 1.5 1.5v21c0 .825-.675 1.5-1.5 1.5h-21C.675 24 0 23.325 0 22.5Z" fill="#2D327D"/><path d="M5.25 18.534A1.407 1.407 0 0 0 3 17.409v2.25a1.407 1.407 0 0 0 2.25-1.125ZM20.671 10.136l-2.251-2.25a1.125 1.125 0 0 0-.796-.33H11.14c-.298 0-.584.119-.795.33L7.732 10.5l-4.388.364a.374.374 0 0 0-.344.373v2.338c0 .207.168.375.375.375h.412v-.431a2.25 2.25 0 0 1 4.5 0v.431h7.462v-.431a2.25 2.25 0 0 1 4.5 0v.431h.375a.375.375 0 0 0 .375-.375v-2.643a1.12 1.12 0 0 0-.328-.796Zm-6.758.046a.375.375 0 0 1-.375.374h-4.26a.225.225 0 0 1-.159-.384l1.793-1.794c.07-.07.166-.11.265-.11h2.36c.207 0 .375.168.375.375v1.539h.001Zm5.574.374h-4.485a.375.375 0 0 1-.375-.375V8.644c0-.207.168-.375.375-.375h2.585c.099 0 .195.04.265.11l1.793 1.794a.225.225 0 0 1-.158.383ZM3 15.6h18v1.163H3V15.6ZM3 20.288h18V21H3v-.712ZM8.811 18.528a1.407 1.407 0 1 0-2.813.001 1.407 1.407 0 0 0 2.813-.001ZM16.081 18.528a1.407 1.407 0 1 0-2.813.001 1.407 1.407 0 0 0 2.813-.001ZM19.688 18.528a1.407 1.407 0 1 0-2.813.001 1.407 1.407 0 0 0 2.813-.001Z" fill="#fff"/><path d="M19.706 13.511a1.707 1.707 0 1 0-3.414.002 1.707 1.707 0 0 0 3.414-.002Zm-2.643 0a.938.938 0 1 1 1.876 0 .938.938 0 0 1-1.876 0ZM7.758 13.511a1.707 1.707 0 1 0-3.414.002 1.707 1.707 0 0 0 3.414-.002Zm-2.643 0a.938.938 0 1 1 1.876 0 .938.938 0 0 1-1.876 0Z" fill="#fff"/></g><defs><clipPath id="a"><path fill="#fff" d="M0 0h24v24H0z"/></clipPath></defs></svg>