<svg class="color-immutable" width="30" height="30" viewBox="0 0 30 30" fill="none" xmlns="http://www.w3.org/2000/svg"><g clip-path="url(#a)"><path d="M30 0H0v30h30V0Z" fill="#2D327D"/><path d="M25.5 3c.825 0 1.5.675 1.5 1.5v21c0 .825-.675 1.5-1.5 1.5h-21c-.825 0-1.5-.675-1.5-1.5v-21C3 3.675 3.675 3 4.5 3h21Zm0-.375h-21A1.877 1.877 0 0 0 2.625 4.5v21c0 1.034.841 1.875 1.875 1.875h21a1.877 1.877 0 0 0 1.875-1.875v-21A1.877 1.877 0 0 0 25.5 2.625Z" fill="#fff"/><path d="M18.64 17.016c.13 0 .235-.105.235-.234v-1.653a.702.702 0 0 0-.206-.497l-1.407-1.406a.703.703 0 0 0-.497-.207h-4.052a.703.703 0 0 0-.497.207l-1.634 1.633-2.742.228a.234.234 0 0 0-.215.233v1.462c0 .129.105.234.234.234h.258v-.27a1.407 1.407 0 0 1 2.812 0v.27h4.665v-.27a1.407 1.407 0 0 1 2.812 0v.27h.235ZM14.447 13.7l-.002.96c0 .13-.105.235-.234.235h-2.73a.112.112 0 0 1-.08-.192l1.17-1.17a.235.235 0 0 1 .165-.068h1.477c.129 0 .234.105.234.234Zm3.55 1.194h-2.87a.234.234 0 0 1-.235-.234v-.96c0-.13.105-.235.234-.235h1.616c.062 0 .121.025.165.069l1.17 1.169a.112.112 0 0 1-.08.191Z" fill="#fff"/><path d="M8.275 22.288c.431-.096.867-.169 1.306-.22a8.34 8.34 0 0 1 3.566.3 5.607 5.607 0 0 0 1.81.245 5.6 5.6 0 0 0 1.79-.355 8.375 8.375 0 0 1 3.542-.513c1.268.068 2.519.326 3.711.765l-.002-6.01h-2.392a.375.375 0 0 1-.375-.375v-.021l.083-1.426a.375.375 0 0 1 .374-.353h2.31V12.75h-2.175a.375.375 0 0 1-.375-.397l.08-1.387a.375.375 0 0 1 .374-.353h2.096V9.75h-3.787a.3.3 0 0 0-.3.3v.035c0 .214.163.392.375.411l.46.041-1.204 6.843a.75.75 0 0 1-.739.62H7.373l-1.244-3.075-.561.212 2.707 7.15Z" fill="#fff"/><path d="M24 23.07a12.225 12.225 0 0 0-3.744-.801 7.846 7.846 0 0 0-3.323.48 6.119 6.119 0 0 1-2.137.392 6.127 6.127 0 0 1-1.803-.272 7.838 7.838 0 0 0-3.346-.28c-1.26.145-2.49.485-3.647 1.007v.954a11.371 11.371 0 0 1 3.753-1.105 6.988 6.988 0 0 1 2.986.248 6.993 6.993 0 0 0 2.26.307 6.979 6.979 0 0 0 2.237-.443 6.986 6.986 0 0 1 2.966-.427c1.307.07 2.592.364 3.798.87v-.93Z" fill="#fff"/><path fill-rule="evenodd" clip-rule="evenodd" d="M9.524 17.192a.488.488 0 1 1 0-.976.488.488 0 0 1 0 .976Zm0-1.554a1.067 1.067 0 1 0 .001 2.134 1.067 1.067 0 0 0 0-2.134ZM17 17.192a.488.488 0 1 1 0-.975.488.488 0 0 1 0 .975Zm0-1.554a1.067 1.067 0 1 0 .001 2.134 1.067 1.067 0 0 0 0-2.134Z" fill="#fff"/></g><defs><clipPath id="a"><path fill="#fff" d="M0 0h30v30H0z"/></clipPath></defs></svg>