<svg class="color-immutable" width="24" height="24" viewBox="0 0 24 24" fill="none" xmlns="http://www.w3.org/2000/svg"><g clip-path="url(#a)"><path d="M0 22.5v-21C0 .675.675 0 1.5 0h21c.825 0 1.5.675 1.5 1.5v21c0 .825-.675 1.5-1.5 1.5h-21C.675 24 0 23.325 0 22.5Z" fill="#2D327D"/><path d="M4.293 13.511a1.707 1.707 0 1 1 3.414.002 1.707 1.707 0 0 1-3.414-.002Zm2.644 0a.938.938 0 1 0-1.876 0 .938.938 0 0 0 1.876 0ZM18.749 18.534a1.407 1.407 0 0 1 2.25-1.125v2.25a1.407 1.407 0 0 1-2.25-1.125Z" fill="#fff"/><path d="m3.329 10.136 2.251-2.25c.211-.211.497-.33.796-.33h6.484c.298 0 .584.119.795.33l2.614 2.614 4.388.364a.374.374 0 0 1 .343.373v2.338a.375.375 0 0 1-.375.375h-.412v-.431a2.25 2.25 0 0 0-4.5 0v.431H8.25v-.431a2.25 2.25 0 0 0-4.5 0v.431h-.375A.375.375 0 0 1 3 13.575v-2.643c0-.299.118-.585.329-.796Zm6.758.046a.375.375 0 0 0 .375.374h4.259a.225.225 0 0 0 .159-.384l-1.793-1.794a.376.376 0 0 0-.265-.11h-2.36a.375.375 0 0 0-.375.375v1.539Zm-5.574.374h4.485a.375.375 0 0 0 .375-.375V8.644a.375.375 0 0 0-.375-.375H6.413a.376.376 0 0 0-.265.11l-1.793 1.794a.225.225 0 0 0 .158.383ZM3 15.6h18v1.163H3V15.6ZM3 20.25h18v.712H3v-.712ZM15.188 18.528a1.407 1.407 0 1 1 2.813.001 1.407 1.407 0 0 1-2.813-.001ZM7.918 18.528a1.407 1.407 0 1 1 2.813.001 1.407 1.407 0 0 1-2.813-.001ZM4.311 18.528a1.407 1.407 0 1 1 2.813.001 1.407 1.407 0 0 1-2.813-.001Z" fill="#fff"/><path d="M16.241 13.511a1.707 1.707 0 1 1 3.414.002 1.707 1.707 0 0 1-3.414-.002Zm2.644 0a.938.938 0 1 0-1.876 0 .938.938 0 0 0 1.876 0Z" fill="#fff"/></g><defs><clipPath id="a"><path fill="#fff" d="M0 0h24v24H0z"/></clipPath></defs></svg>