<svg class="color-immutable" width="30" height="30" viewBox="0 0 30 30" fill="none" xmlns="http://www.w3.org/2000/svg"><g clip-path="url(#a)"><path d="M30 0H0v30h30V0Z" fill="#2D327D"/><path d="M25.5 3c.825 0 1.5.675 1.5 1.5v21c0 .825-.675 1.5-1.5 1.5h-21c-.825 0-1.5-.675-1.5-1.5v-21C3 3.675 3.675 3 4.5 3h21Zm0-.375h-21A1.877 1.877 0 0 0 2.625 4.5v21c0 1.034.841 1.875 1.875 1.875h21a1.877 1.877 0 0 0 1.875-1.875v-21A1.877 1.877 0 0 0 25.5 2.625Z" fill="#fff"/><path d="M7.293 16.51a1.707 1.707 0 1 1 3.414.002 1.707 1.707 0 0 1-3.414-.001Zm2.644 0a.938.938 0 1 0-1.876 0 .938.938 0 0 0 1.876 0ZM21.749 21.534a1.407 1.407 0 0 1 2.25-1.125v2.25a1.406 1.406 0 0 1-2.25-1.125Z" fill="#fff"/><path d="m6.33 13.136 2.25-2.25c.211-.211.497-.33.796-.33h6.483c.299 0 .585.119.796.33l2.613 2.614 4.388.364a.375.375 0 0 1 .344.373v2.338a.375.375 0 0 1-.375.375h-.413v-.431a2.25 2.25 0 0 0-4.5 0v.43H11.25v-.43a2.25 2.25 0 0 0-4.5 0v.43h-.375A.375.375 0 0 1 6 16.576v-2.643c0-.299.118-.585.33-.796Zm6.757.046c0 .207.168.374.375.374h4.26a.225.225 0 0 0 .158-.384l-1.793-1.793a.375.375 0 0 0-.265-.11h-2.36a.375.375 0 0 0-.375.375v1.538Zm-5.574.374h4.485a.375.375 0 0 0 .375-.375v-1.537a.375.375 0 0 0-.375-.375H9.413c-.1 0-.195.04-.265.11l-1.794 1.793a.225.225 0 0 0 .16.384ZM6 18.6h18v1.163H6V18.6ZM6 23.25h18v.712H6v-.712ZM18.188 21.528a1.407 1.407 0 1 1 2.814.002 1.407 1.407 0 0 1-2.814-.002ZM10.918 21.528a1.407 1.407 0 1 1 2.813 0 1.407 1.407 0 0 1-2.813 0ZM7.311 21.528a1.407 1.407 0 1 1 2.813 0 1.407 1.407 0 0 1-2.813 0Z" fill="#fff"/><path d="M19.241 16.51a1.707 1.707 0 1 1 3.414.002 1.707 1.707 0 0 1-3.414-.001Zm2.644 0a.938.938 0 1 0-1.876 0 .938.938 0 0 0 1.876 0Z" fill="#fff"/></g><defs><clipPath id="a"><path fill="#fff" d="M0 0h30v30H0z"/></clipPath></defs></svg>