<svg class="color-immutable" width="24" height="24" viewBox="0 0 24 24" fill="none" xmlns="http://www.w3.org/2000/svg"><g clip-path="url(#a)"><path d="M0 22.5v-21C0 .675.675 0 1.5 0h21c.825 0 1.5.675 1.5 1.5v21c0 .825-.675 1.5-1.5 1.5h-21C.675 24 0 23.325 0 22.5Z" fill="#2D327D"/><path d="m13.054 11.843.001-.001-.001.001ZM3 7.5h5.448c.917 0 1.639.057 2.165.171a4.03 4.03 0 0 1 1.427.605c1.176.788 1.764 1.976 1.764 3.564 0 1.41-.486 2.518-1.459 3.324a3.777 3.777 0 0 1-1.413.743c-.53.151-1.182.226-1.958.226H5.946V21H3V7.5Zm2.946 2.493v3.823h2.632c.782 0 1.345-.139 1.69-.416.425-.345.637-.853.637-1.524 0-.677-.246-1.182-.739-1.514-.358-.246-.939-.369-1.746-.369H5.946Z" fill="#fff"/></g><defs><clipPath id="a"><path fill="#fff" d="M0 0h24v24H0z"/></clipPath></defs></svg>