<svg class="color-immutable" width="30" height="30" viewBox="0 0 30 30" fill="none" xmlns="http://www.w3.org/2000/svg"><g clip-path="url(#a)"><path d="M30 0H0v30h30V0Z" fill="#2D327D"/><path d="M25.5 3c.825 0 1.5.675 1.5 1.5v21c0 .825-.675 1.5-1.5 1.5h-21c-.825 0-1.5-.675-1.5-1.5v-21C3 3.675 3.675 3 4.5 3h21Zm0-.375h-21A1.877 1.877 0 0 0 2.625 4.5v21c0 1.034.841 1.875 1.875 1.875h21a1.877 1.877 0 0 0 1.875-1.875v-21A1.877 1.877 0 0 0 25.5 2.625Z" fill="#fff"/><path d="M23.625 6.375v1.5h-3.75v.375H24V6H6v2.25h4.125v-.375h-3.75v-1.5h17.25ZM16.035 10.687c-.22 0-.732 0-.732.378 0 .37.513.37.732.37.237 0 .75 0 .75-.37 0-.378-.513-.378-.75-.378ZM16.035 12.647c-.22 0-.732 0-.732.377 0 .37.513.37.732.37.237 0 .75 0 .75-.37 0-.377-.513-.377-.75-.377ZM13.214 16.536H11.25v.375h1.964v-.375Z" fill="#fff"/><path d="M18.75 16.91V7.126h-.375v9.41h-3.078v.376h3.453ZM13.214 17.286H12v.375h1.214v-.375Z" fill="#fff"/><path d="M19.5 7.125h-.375v10.16h-3.828v.376H19.5V7.125Z" fill="#fff"/><path d="M14.068 15.303a.769.769 0 0 1 .31-.05c.502 0 .911.406.919.908H18V7.125h-7.5v9.036h2.768a1.31 1.31 0 0 1 .8-.858Zm3.026-.626h-1.362v.573h-.32c.005-.322-.097-.618-.418-.667v-.368h2.1v.462Zm-1.06-4.452c.838 0 1.102.384 1.102.84 0 .449-.264.833-1.101.833-.819 0-1.083-.384-1.083-.833 0-.456.264-.84 1.083-.84Zm0 1.96c.838 0 1.102.384 1.102.84 0 .448-.264.832-1.101.832-.819 0-1.083-.384-1.083-.833 0-.455.264-.84 1.083-.84Z" fill="#fff"/><path d="M6.173 21.384 8.79 24H15v-7.826a.623.623 0 0 0-.623-.623h-.045a.473.473 0 0 0-.16.031c-.397.145-.66.523-.66.945V18.718a.485.485 0 0 1-.483.485h-1.261a.74.74 0 0 1-.525-.22L7.19 14.931a.69.69 0 1 0-.974.973l4.31 4.31-.236.237-3.852-3.852-.264.262a.601.601 0 0 0 0 .842l3.447 3.445-.238.236-2.945-2.944-.264.261a.601.601 0 0 0 0 .843l2.525 2.524-.236.237-2.025-2.024-.264.261a.602.602 0 0 0 0 .842Z" fill="#fff"/></g><defs><clipPath id="a"><path fill="#fff" d="M0 0h30v30H0z"/></clipPath></defs></svg>