<svg class="color-immutable" width="30" height="30" viewBox="0 0 30 30" fill="none" xmlns="http://www.w3.org/2000/svg"><g clip-path="url(#a)"><path d="M30 0H0v30h30V0Z" fill="#2D327D"/><path d="M25.5 3c.825 0 1.5.675 1.5 1.5v21c0 .825-.675 1.5-1.5 1.5h-21c-.825 0-1.5-.675-1.5-1.5v-21C3 3.675 3.675 3 4.5 3h21Zm0-.375h-21A1.877 1.877 0 0 0 2.625 4.5v21c0 1.034.841 1.875 1.875 1.875h21a1.877 1.877 0 0 0 1.875-1.875v-21A1.877 1.877 0 0 0 25.5 2.625Z" fill="#fff"/><path d="m23.561 13.09-13.157 4.789a.968.968 0 0 1-.746-.033L8.3 17.214l.64 1.756c.112.31.458.471.768.358l13.673-4.977a.601.601 0 0 0 .359-.769l-.18-.493Z" fill="#fff"/><path d="m5.949 15.112.174.478c.052.145.16.27.31.34l3.383 1.576c.14.065.304.077.46.02l13.298-4.84a.602.602 0 0 0 .36-.769l-1.078-2.959L5.95 15.112ZM17.928 19.125h.655l-.852-2.343-2.115.77.918 2.522c.22-.555.761-.949 1.394-.949Z" fill="#fff"/><path d="M17.928 19.5a1.125 1.125 0 1 0 0 2.25H24V19.5h-6.072Zm0 1.872a.75.75 0 1 1 0-1.5.75.75 0 0 1 0 1.5ZM8.088 6l-.747 2.249h-.559L6.046 6h.513l.506 1.684L7.58 6h.51ZM8.723 6v.401h-.446V6h.446Zm0 .572V8.25h-.446V6.572h.446ZM10.665 6v2.249h-.426v-.22c-.099.177-.262.266-.491.266a.66.66 0 0 1-.543-.25c-.131-.164-.197-.379-.197-.645 0-.252.058-.455.174-.611a.638.638 0 0 1 .541-.27c.223 0 .388.085.497.256V6h.445Zm-.826.884a.334.334 0 0 0-.276.13c-.07.09-.106.217-.106.381 0 .16.035.287.105.382.066.09.161.135.284.135a.338.338 0 0 0 .286-.134c.068-.09.102-.215.102-.377 0-.169-.036-.298-.108-.387a.352.352 0 0 0-.287-.13ZM12.52 7.726a.751.751 0 0 1-.128.266c-.148.202-.36.303-.637.303-.25 0-.45-.08-.601-.237a.773.773 0 0 1-.17-.278 1.055 1.055 0 0 1-.063-.363c0-.244.07-.45.211-.616a.76.76 0 0 1 .61-.278.753.753 0 0 1 .734.516c.047.13.07.295.07.493h-1.17a.65.65 0 0 0 .038.205c.06.146.175.22.344.22.083 0 .151-.019.203-.055a.391.391 0 0 0 .13-.176h.429Zm-.43-.494a.54.54 0 0 0-.055-.202.338.338 0 0 0-.295-.17c-.1 0-.182.033-.246.1a.447.447 0 0 0-.116.272h.712ZM13.617 6.523c.245 0 .444.081.599.243.153.16.23.373.23.64 0 .276-.082.496-.245.66a.807.807 0 0 1-.597.229c-.262 0-.47-.085-.625-.255-.147-.162-.221-.373-.221-.631 0-.254.072-.461.215-.62.159-.177.374-.266.644-.266Zm-.023.348a.331.331 0 0 0-.281.143.655.655 0 0 0-.106.395c0 .173.035.306.104.398a.35.35 0 0 0 .294.14.333.333 0 0 0 .276-.127c.076-.095.115-.232.115-.411 0-.168-.034-.299-.102-.392a.349.349 0 0 0-.3-.146Z" fill="#fff"/></g><defs><clipPath id="a"><path fill="#fff" d="M0 0h30v30H0z"/></clipPath></defs></svg>