<svg class="color-immutable" width="30" height="30" viewBox="0 0 30 30" fill="none" xmlns="http://www.w3.org/2000/svg"><g clip-path="url(#a)"><path d="M30 30H0V0h30v30Z" fill="#2D327D"/><path d="M25.5 3c.825 0 1.5.675 1.5 1.5v21c0 .825-.675 1.5-1.5 1.5h-21c-.825 0-1.5-.675-1.5-1.5v-21C3 3.675 3.675 3 4.5 3h21Zm0-.375h-21A1.877 1.877 0 0 0 2.625 4.5v21c0 1.034.841 1.875 1.875 1.875h21a1.877 1.877 0 0 0 1.875-1.875v-21A1.877 1.877 0 0 0 25.5 2.625Z" fill="#fff"/><path d="m6.819 20.063 2.237 1.678 2.234-1.524-5.22-5.966 1.31-.75 8.183 3.804 4.826-3.29a3.56 3.56 0 0 1 2.995-.446 1.054 1.054 0 0 1 .574 1.593 4.24 4.24 0 0 1-1.144 1.157L13.5 22.668l-5.175 1.339-2.435-3.246.93-.698ZM8.213 7.381a1.01 1.01 0 0 1-.233.597c-.183.216-.441.324-.776.324-.355 0-.632-.125-.83-.376-.17-.215-.254-.482-.254-.803 0-.336.1-.617.301-.842.201-.223.469-.335.802-.335.31 0 .56.103.75.308.136.144.21.311.225.5h-.484a.49.49 0 0 0-.171-.295.515.515 0 0 0-.33-.104.52.52 0 0 0-.48.27.986.986 0 0 0-.118.501c0 .203.042.372.125.508.106.173.262.26.47.26a.479.479 0 0 0 .352-.131.629.629 0 0 0 .162-.382h.49ZM8.953 6v.8a.522.522 0 0 1 .21-.207.615.615 0 0 1 .3-.075c.225 0 .386.08.484.239.056.092.084.234.084.424V8.25h-.444V7.26c0-.123-.017-.208-.051-.255-.05-.07-.129-.105-.235-.105a.311.311 0 0 0-.302.185.41.41 0 0 0-.037.124c-.006.046-.009.118-.009.217v.822h-.446V6h.446ZM11.89 7.726a.751.751 0 0 1-.127.266c-.147.202-.36.303-.636.303-.25 0-.451-.08-.602-.237a.773.773 0 0 1-.17-.278 1.055 1.055 0 0 1-.062-.363c0-.244.07-.45.21-.616a.76.76 0 0 1 .61-.278c.2 0 .372.062.513.186.102.09.176.2.222.33.046.13.07.295.07.493h-1.171c.004.082.017.15.038.205.06.146.175.22.345.22.083 0 .15-.019.203-.055a.39.39 0 0 0 .129-.176h.429Zm-.428-.494a.54.54 0 0 0-.056-.202.338.338 0 0 0-.295-.17c-.1 0-.181.033-.246.1a.446.446 0 0 0-.115.272h.712ZM13.741 7.604a.817.817 0 0 1-.168.419c-.145.181-.35.272-.616.272-.273 0-.485-.093-.637-.28a.908.908 0 0 1-.192-.59c0-.288.085-.516.257-.684a.797.797 0 0 1 .58-.218c.218 0 .395.057.532.17a.663.663 0 0 1 .233.465h-.438a.35.35 0 0 0-.11-.207.314.314 0 0 0-.213-.074.335.335 0 0 0-.288.14c-.068.094-.103.226-.103.395a.7.7 0 0 0 .082.361.327.327 0 0 0 .3.168c.197 0 .312-.112.346-.337h.435ZM15.572 6.57l-.614.619.684 1.06h-.541l-.45-.743-.182.174v.569h-.446V6h.446v1.167l.572-.598h.53ZM16.553 7.21v.4h-.855v-.4h.855ZM17.396 6v.401h-.446V6h.446Zm0 .572V8.25h-.446V6.572h.446ZM18.176 6.574v.235a.632.632 0 0 1 .546-.288c.137 0 .253.035.349.105a.438.438 0 0 1 .159.21c.03.085.045.204.045.358v1.055h-.444v-.962a.74.74 0 0 0-.028-.236.211.211 0 0 0-.09-.105.356.356 0 0 0-.35.008.305.305 0 0 0-.121.133.74.74 0 0 0-.045.297v.865h-.446V6.574h.425Z" fill="#fff"/></g><defs><clipPath id="a"><path fill="#fff" d="M0 0h30v30H0z"/></clipPath></defs></svg>