<svg class="color-immutable" width="24" height="24" viewBox="0 0 24 24" fill="none" xmlns="http://www.w3.org/2000/svg"><path d="M0 22.5V1.5C0 0.675 0.675 0 1.5 0H22.5C23.325 0 24 0.675 24 1.5V22.5C24 23.325 23.325 24 22.5 24H1.5C0.675 24 0 23.325 0 22.5Z" fill="#2D327D"/><path d="M20.25 17.063L18.013 18.741L15.779 17.217L21 11.25L19.688 10.5L11.506 14.305L6.67999 11.016C6.09599 10.627 5.40899 10.419 4.70799 10.419C4.36199 10.419 4.01699 10.469 3.68499 10.569C3.23999 10.703 2.93399 11.113 2.93399 11.578C2.93399 11.785 2.99499 11.988 3.10999 12.162V12.161C3.41299 12.617 3.80099 13.011 4.25399 13.319L13.569 19.668L18.744 21.007L21.179 17.761L20.25 17.063Z" fill="white"/><path d="M5.213 4.38101C5.197 4.61401 5.119 4.81301 4.98 4.97801C4.797 5.19401 4.539 5.30301 4.204 5.30301C3.848 5.30301 3.571 5.17701 3.373 4.92601C3.205 4.71101 3.12 4.44401 3.12 4.12301C3.12 3.78701 3.22 3.50601 3.421 3.28201C3.622 3.05801 3.89 2.94601 4.223 2.94601C4.534 2.94601 4.784 3.04901 4.974 3.25401C5.109 3.39901 5.184 3.56501 5.199 3.75401H4.713C4.687 3.62701 4.63 3.52801 4.543 3.45901C4.456 3.39001 4.345 3.35501 4.212 3.35501C3.999 3.35501 3.839 3.44501 3.734 3.62401C3.655 3.76101 3.615 3.92801 3.615 4.12601C3.615 4.32901 3.657 4.49801 3.74 4.63401C3.846 4.80701 4.002 4.89401 4.209 4.89401C4.357 4.89401 4.47399 4.85001 4.562 4.76301C4.65 4.67501 4.704 4.54801 4.724 4.38101H5.213Z" fill="white"/><path d="M5.95299 3V3.8C6.00199 3.712 6.07199 3.643 6.16299 3.593C6.25399 3.543 6.35399 3.518 6.46399 3.518C6.68899 3.518 6.84999 3.597 6.94699 3.756C7.00299 3.848 7.03199 3.99 7.03199 4.181V5.248H6.58699V4.261C6.58699 4.138 6.56999 4.053 6.53599 4.006C6.48599 3.936 6.40699 3.901 6.30099 3.901C6.16099 3.901 6.05999 3.963 5.99999 4.086C5.98099 4.124 5.96899 4.165 5.96199 4.21C5.95599 4.256 5.95299 4.328 5.95299 4.427V5.248H5.50699V3H5.95299Z" fill="white"/><path d="M8.891 4.72602C8.867 4.82002 8.825 4.90902 8.763 4.99202C8.615 5.19402 8.403 5.29502 8.126 5.29502C7.876 5.29502 7.675 5.21602 7.525 5.05802C7.451 4.98102 7.395 4.88802 7.356 4.78002C7.314 4.66402 7.293 4.54302 7.293 4.41702C7.293 4.17302 7.363 3.96802 7.504 3.80202C7.661 3.61602 7.864 3.52402 8.113 3.52402C8.314 3.52402 8.485 3.58602 8.627 3.71002C8.729 3.79902 8.802 3.90902 8.848 4.04002C8.894 4.17002 8.917 4.33402 8.917 4.53202H7.747C7.751 4.61402 7.764 4.68202 7.785 4.73702C7.845 4.88402 7.96 4.95702 8.13 4.95702C8.213 4.95702 8.281 4.93902 8.333 4.90202C8.385 4.86602 8.428 4.80702 8.462 4.72602H8.891ZM8.462 4.23202C8.454 4.15102 8.435 4.08402 8.406 4.03102C8.378 3.97802 8.337 3.93702 8.284 3.90602C8.231 3.87502 8.174 3.86002 8.111 3.86002C8.012 3.86002 7.93 3.89302 7.865 3.96002C7.8 4.02602 7.762 4.11702 7.75 4.23202H8.462Z" fill="white"/><path d="M10.741 4.60402C10.719 4.77102 10.664 4.91102 10.573 5.02202C10.427 5.20302 10.222 5.29402 9.95599 5.29402C9.68299 5.29402 9.47099 5.20102 9.31899 5.01402C9.19199 4.85602 9.12799 4.66002 9.12799 4.42602C9.12799 4.13702 9.21399 3.90902 9.38499 3.74202C9.53499 3.59602 9.72799 3.52402 9.96499 3.52402C10.183 3.52402 10.361 3.58102 10.497 3.69402C10.633 3.80702 10.711 3.96202 10.731 4.15902H10.293C10.276 4.06902 10.239 4.00002 10.183 3.95102C10.127 3.90202 10.055 3.87702 9.96899 3.87702C9.84499 3.87702 9.74899 3.92402 9.68099 4.01802C9.61199 4.11102 9.57799 4.24302 9.57799 4.41202C9.57799 4.56202 9.60499 4.68202 9.65999 4.77302C9.72699 4.88502 9.82699 4.94102 9.95999 4.94102C10.157 4.94102 10.272 4.82902 10.306 4.60402H10.741Z" fill="white"/><path d="M12.572 3.569L11.958 4.189L12.642 5.249H12.101L11.652 4.506L11.469 4.68V5.249H11.023V3H11.469V4.167L12.041 3.569H12.572Z" fill="white"/><path d="M13.553 4.21002V4.61002H12.698V4.21002H13.553Z" fill="white"/><path d="M14.396 3V3.401H13.95V3H14.396ZM14.396 3.572V5.249H13.95V3.572H14.396Z" fill="white"/><path d="M15.175 3.574V3.809C15.227 3.737 15.276 3.684 15.321 3.651C15.432 3.565 15.565 3.522 15.721 3.522C15.858 3.522 15.975 3.557 16.07 3.627C16.146 3.682 16.199 3.752 16.229 3.837C16.259 3.922 16.274 4.041 16.274 4.195V5.25H15.829V4.287C15.829 4.179 15.82 4.1 15.801 4.05C15.784 4.006 15.754 3.971 15.712 3.945C15.664 3.917 15.609 3.903 15.547 3.903C15.479 3.903 15.418 3.919 15.362 3.952C15.307 3.985 15.266 4.029 15.239 4.086C15.209 4.15 15.194 4.249 15.194 4.383V5.247H14.748V3.574H15.175Z" fill="white"/></svg>