<svg class="color-immutable" width="24" height="24" viewBox="0 0 24 24" fill="none" xmlns="http://www.w3.org/2000/svg"><path d="M0 22.5V1.5C0 0.675 0.675 0 1.5 0H22.5C23.325 0 24 0.675 24 1.5V22.5C24 23.325 23.325 24 22.5 24H1.5C0.675 24 0 23.325 0 22.5Z" fill="#2D327D"/><path d="M3.81901 17.063L6.05601 18.741L8.29001 17.217L3.06901 11.25L4.38101 10.5L12.563 14.305L17.389 11.016C17.973 10.627 18.66 10.419 19.361 10.419C19.707 10.419 20.052 10.469 20.384 10.569C20.829 10.703 21.135 11.113 21.135 11.578C21.135 11.785 21.074 11.988 20.959 12.162V12.161C20.656 12.617 20.268 13.011 19.815 13.319L10.5 19.668L5.32501 21.007L2.89001 17.761L3.81901 17.063Z" fill="white"/><path d="M5.21303 4.38101C5.19703 4.61401 5.11903 4.81301 4.98003 4.97801C4.79703 5.19401 4.53903 5.30301 4.20403 5.30301C3.84803 5.30301 3.57103 5.17701 3.37303 4.92601C3.20503 4.71101 3.12003 4.44401 3.12003 4.12301C3.12003 3.78701 3.22003 3.50601 3.42103 3.28201C3.62203 3.05801 3.89003 2.94601 4.22303 2.94601C4.53403 2.94601 4.78403 3.04901 4.97403 3.25401C5.10903 3.39901 5.18403 3.56501 5.19903 3.75401H4.71303C4.68703 3.62701 4.63003 3.52801 4.54303 3.45901C4.45603 3.39001 4.34503 3.35501 4.21203 3.35501C3.99903 3.35501 3.83903 3.44501 3.73403 3.62401C3.65503 3.76101 3.61503 3.92801 3.61503 4.12601C3.61503 4.32901 3.65703 4.49801 3.74003 4.63401C3.84603 4.80701 4.00203 4.89401 4.20903 4.89401C4.35703 4.89401 4.47403 4.85001 4.56203 4.76301C4.65003 4.67501 4.70403 4.54801 4.72403 4.38101H5.21303Z" fill="white"/><path d="M5.95302 3V3.8C6.00202 3.712 6.07202 3.643 6.16302 3.593C6.25402 3.543 6.35402 3.518 6.46402 3.518C6.68902 3.518 6.85002 3.597 6.94702 3.756C7.00302 3.848 7.03202 3.99 7.03202 4.181V5.248H6.58702V4.261C6.58702 4.138 6.57002 4.053 6.53602 4.006C6.48602 3.936 6.40702 3.901 6.30102 3.901C6.16102 3.901 6.06002 3.963 6.00002 4.086C5.98102 4.124 5.96902 4.165 5.96202 4.21C5.95602 4.256 5.95302 4.328 5.95302 4.427V5.248H5.50702V3H5.95302Z" fill="white"/><path d="M8.89103 4.72602C8.86703 4.82002 8.82503 4.90902 8.76303 4.99202C8.61503 5.19402 8.40303 5.29502 8.12603 5.29502C7.87603 5.29502 7.67503 5.21602 7.52503 5.05802C7.45103 4.98102 7.39503 4.88802 7.35603 4.78002C7.31403 4.66402 7.29303 4.54302 7.29303 4.41702C7.29303 4.17302 7.36303 3.96802 7.50403 3.80202C7.66103 3.61602 7.86403 3.52402 8.11303 3.52402C8.31403 3.52402 8.48503 3.58602 8.62703 3.71002C8.72903 3.79902 8.80203 3.90902 8.84803 4.04002C8.89403 4.17002 8.91703 4.33402 8.91703 4.53202H7.74703C7.75103 4.61402 7.76403 4.68202 7.78503 4.73702C7.84503 4.88402 7.96003 4.95702 8.13003 4.95702C8.21303 4.95702 8.28103 4.93902 8.33303 4.90202C8.38503 4.86602 8.42803 4.80702 8.46203 4.72602H8.89103ZM8.46203 4.23202C8.45403 4.15102 8.43503 4.08402 8.40603 4.03102C8.37803 3.97802 8.33703 3.93702 8.28403 3.90602C8.23103 3.87502 8.17403 3.86002 8.11103 3.86002C8.01203 3.86002 7.93003 3.89302 7.86503 3.96002C7.80003 4.02602 7.76203 4.11702 7.75003 4.23202H8.46203Z" fill="white"/><path d="M10.741 4.60402C10.719 4.77102 10.664 4.91102 10.573 5.02202C10.427 5.20302 10.222 5.29402 9.95602 5.29402C9.68302 5.29402 9.47102 5.20102 9.31902 5.01402C9.19202 4.85602 9.12802 4.66002 9.12802 4.42602C9.12802 4.13702 9.21402 3.90902 9.38502 3.74202C9.53502 3.59602 9.72802 3.52402 9.96502 3.52402C10.183 3.52402 10.361 3.58102 10.497 3.69402C10.633 3.80702 10.711 3.96202 10.731 4.15902H10.293C10.276 4.06902 10.239 4.00002 10.183 3.95102C10.127 3.90202 10.055 3.87702 9.96902 3.87702C9.84502 3.87702 9.74902 3.92402 9.68102 4.01802C9.61202 4.11102 9.57802 4.24302 9.57802 4.41202C9.57802 4.56202 9.60502 4.68202 9.66002 4.77302C9.72702 4.88502 9.82702 4.94102 9.96002 4.94102C10.157 4.94102 10.272 4.82902 10.306 4.60402H10.741Z" fill="white"/><path d="M12.572 3.569L11.958 4.189L12.642 5.249H12.101L11.652 4.506L11.469 4.68V5.249H11.023V3H11.469V4.167L12.041 3.569H12.572Z" fill="white"/><path d="M13.553 4.21002V4.61002H12.698V4.21002H13.553Z" fill="white"/><path d="M14.396 3V3.401H13.95V3H14.396ZM14.396 3.572V5.249H13.95V3.572H14.396Z" fill="white"/><path d="M15.175 3.574V3.809C15.227 3.737 15.276 3.684 15.321 3.651C15.432 3.565 15.565 3.522 15.721 3.522C15.858 3.522 15.975 3.557 16.07 3.627C16.146 3.682 16.199 3.752 16.229 3.837C16.259 3.922 16.274 4.041 16.274 4.195V5.25H15.829V4.287C15.829 4.179 15.82 4.1 15.801 4.05C15.784 4.006 15.754 3.971 15.712 3.945C15.664 3.917 15.609 3.903 15.547 3.903C15.479 3.903 15.418 3.919 15.362 3.952C15.307 3.985 15.266 4.029 15.239 4.086C15.209 4.15 15.194 4.249 15.194 4.383V5.247H14.748V3.574H15.175Z" fill="white"/></svg>