<svg class="color-immutable" width="24" height="24" viewBox="0 0 24 24" fill="none" xmlns="http://www.w3.org/2000/svg"><g clip-path="url(#a)"><path d="M0 22.5v-21C0 .675.675 0 1.5 0h21c.825 0 1.5.675 1.5 1.5v21c0 .825-.675 1.5-1.5 1.5h-21C.675 24 0 23.325 0 22.5Z" fill="#2D327D"/><path d="m15.815 12 1.296 1.814a.75.75 0 1 1-1.221.872L13.971 12H12l1.396 8.373a.75.75 0 0 0 .74.627h4.729a.75.75 0 0 0 .74-.627L21 12h-5.185Z" fill="#fff"/><path d="M16.5 14.625a.375.375 0 0 1-.305-.157l-3.75-5.25a.376.376 0 0 1 .61-.436l3.75 5.25a.376.376 0 0 1-.305.593ZM15.547 11.625h5.07a.944.944 0 0 0-1.305-.749.875.875 0 0 0-.951-.711 1.166 1.166 0 0 0-2.276.181.99.99 0 0 0-1.063.545l.525.734ZM19.535 9.249a.729.729 0 1 0 0-1.458.729.729 0 0 0 0 1.458ZM17.349 6.702a.729.729 0 1 0 0-1.458.729.729 0 0 0 0 1.458ZM18.925 4.458a.729.729 0 1 0 0-1.458.729.729 0 0 0 0 1.458ZM4.656 20.039a.188.188 0 0 1 .372.046L4.914 21h1.649v-.938a.188.188 0 1 1 .376 0V21h1.649l-.114-.914a.187.187 0 1 1 .372-.046l.118.96H10.5l-.469-1.875H3.469L3 21h1.536l.12-.961ZM9.938 18.75l-.045-.182A.751.751 0 0 0 9.164 18H4.336a.75.75 0 0 0-.728.568l-.046.182h6.376ZM7.174 17.625h-.75V3.375a.375.375 0 0 1 .75 0v14.25Z" fill="#fff"/></g><defs><clipPath id="a"><path fill="#fff" d="M0 0h24v24H0z"/></clipPath></defs></svg>