<svg class="color-immutable" width="24" height="24" viewBox="0 0 24 24" fill="none" xmlns="http://www.w3.org/2000/svg"><g clip-path="url(#a)"><path d="M0 22.5v-21C0 .675.675 0 1.5 0h21c.825 0 1.5.675 1.5 1.5v21c0 .825-.675 1.5-1.5 1.5h-21C.675 24 0 23.325 0 22.5Z" fill="#2D327D"/><path d="M21.001 3v.376L3 4.951v-.376L21.001 3ZM12.693 17.819l3.773-.331a2.021 2.021 0 0 1-3.773.331ZM8.432 7.198l3.937-2.753 4.356 2.028-2.073 1.687 4.707-.411a.977.977 0 0 1 1.057.885l.64 7.322c.002.011.002.021.002.032a.376.376 0 0 1-.343.374L3 17.914v-4.293l4.117-.359a.376.376 0 0 0 .342-.374l-.001-.032-.262-2.99a.374.374 0 0 0-.406-.34L3 9.858V9.18l7.767-.68-2.335-1.302Zm9.001 1.773.261 2.989a.375.375 0 0 0 .373.343l.033-.002 1.606-.14h.001a.376.376 0 0 0 .342-.374l-.001-.032-.262-2.989a.375.375 0 0 0-.407-.341l-1.605.141a.375.375 0 0 0-.343.373c0 .011 0 .022.002.032Zm-1.822.272.374 4.259a.56.56 0 0 0 1.122-.049c0-.017 0-.033-.002-.05l-.372-4.258a.562.562 0 0 0-1.123.05l.001.048Zm-1.793.157.373 4.259a.562.562 0 0 0 1.122-.049l-.002-.049-.373-4.258a.56.56 0 0 0-1.122.049.77.77 0 0 1 .002.048Zm1.645-2.77-3.027-1.408-2.734 1.912 2.263 1.261 1.488-.13 2.01-1.635ZM8.21 9.402a.374.374 0 0 0-.342.373l.001.033.262 2.988a.374.374 0 0 0 .373.343c.011 0 .022 0 .033-.002l4.521-.395a.375.375 0 0 0 .342-.373l-.001-.032-.262-2.989a.374.374 0 0 0-.405-.341l-4.522.395ZM8.209 18.21l3.774-.33a2.023 2.023 0 0 1-3.774.33ZM21.001 19.425 3 21.001v-.641l18.001-1.575v.64Z" fill="#fff"/></g><defs><clipPath id="a"><path fill="#fff" d="M0 0h24v24H0z"/></clipPath></defs></svg>