<svg class="color-immutable" width="30" height="30" viewBox="0 0 30 30" fill="none" xmlns="http://www.w3.org/2000/svg"><g clip-path="url(#a)"><path d="M0 0h30v30H0V0Z" fill="#2D327D"/><path d="M25.5 3c.825 0 1.5.675 1.5 1.5v21c0 .825-.675 1.5-1.5 1.5h-21c-.825 0-1.5-.675-1.5-1.5v-21C3 3.675 3.675 3 4.5 3h21Zm0-.375h-21A1.877 1.877 0 0 0 2.625 4.5v21c0 1.034.841 1.875 1.875 1.875h21a1.877 1.877 0 0 0 1.875-1.875v-21A1.877 1.877 0 0 0 25.5 2.625Z" fill="#fff"/><path d="M24 6v.376L6 7.95v-.376L24 6ZM15.693 20.819l3.772-.33a2.023 2.023 0 0 1-3.772.33ZM11.432 10.198l3.937-2.753 4.356 2.028-2.073 1.687 4.707-.41a.977.977 0 0 1 1.056.886l.64 7.321c.002.011.002.021.002.032a.376.376 0 0 1-.342.375L6 20.914v-4.292l4.117-.36a.376.376 0 0 0 .342-.374v-.032l-.263-2.99a.374.374 0 0 0-.373-.342c-.011 0-.022 0-.033.002L6 12.858v-.678l7.767-.68-2.335-1.302Zm9.001 1.773.261 2.989c.017.194.18.342.374.342.01 0 .021 0 .032-.002l1.607-.14a.376.376 0 0 0 .342-.374v-.032l-.263-2.99a.375.375 0 0 0-.407-.34l-1.605.141a.375.375 0 0 0-.34.406Zm-1.822.272.374 4.259a.562.562 0 0 0 1.122-.048c0-.017 0-.034-.002-.05l-.372-4.258a.563.563 0 0 0-1.122.097Zm-1.793.157.374 4.259a.561.561 0 0 0 1.122-.05c0-.016 0-.032-.002-.048l-.373-4.258a.562.562 0 0 0-1.12.097Zm1.645-2.77-3.027-1.408-2.734 1.912 2.263 1.261 1.488-.13 2.01-1.635Zm-7.253 2.772a.374.374 0 0 0-.341.406l.262 2.988a.374.374 0 0 0 .373.343c.012 0 .023 0 .033-.002l4.52-.395a.375.375 0 0 0 .343-.374l-.001-.032-.262-2.989a.374.374 0 0 0-.406-.34l-4.521.395ZM11.21 21.21l3.773-.33a2.023 2.023 0 0 1-3.774.33ZM24 22.425 6 24.001v-.641l18-1.575v.64Z" fill="#fff"/></g><defs><clipPath id="a"><path fill="#fff" d="M0 0h30v30H0z"/></clipPath></defs></svg>