<svg class="color-immutable" width="24" height="24" viewBox="0 0 24 24" fill="none" xmlns="http://www.w3.org/2000/svg"><g clip-path="url(#a)"><path d="M0 22.5v-21C0 .675.675 0 1.5 0h21c.825 0 1.5.675 1.5 1.5v21c0 .825-.675 1.5-1.5 1.5h-21C.675 24 0 23.325 0 22.5Z" fill="#2D327D"/><path d="M19.811 15.311c-.583-.583-1.464-.657-1.957-.164l-1.518 1.518-3.586-2.629V7.5a1.5 1.5 0 0 0-1.5-1.5H7.875a.562.562 0 0 0-.46.24L5.617 8.804l-.145-.106a.374.374 0 1 0-.444.604l.158.116-.006.009a.563.563 0 0 0 .913.657l.793.582.416-.625-.778-.572 1.644-2.344h1.53l-2.695 4.043a1.49 1.49 0 0 0-.172.349l-.003.009-2.829 8.487a.75.75 0 1 0 1.421.474l2.496-7.488L9 16.61v3.64a.75.75 0 0 0 1.5 0v-3.738l-.001-.05v-.003l-.002-.033-.001-.013-.003-.022-.004-.024-.002-.011-.007-.034v-.002a.7.7 0 0 0-.014-.049l-1.013-3.375.046-.065 2.127-3.19v3.568l-1.295-.95-.416.625 1.711 1.255v.485a.562.562 0 0 0 1.047.283l3.105 2.277a2.604 2.604 0 0 1-.363.232l-.829.415a1.884 1.884 0 0 0-.56.468L12 21h9v-4.5l-1.189-1.189ZM13.5 6.75a1.5 1.5 0 1 0-.001-3.001A1.5 1.5 0 0 0 13.5 6.75Z" fill="#fff"/></g><defs><clipPath id="a"><path fill="#fff" d="M0 0h24v24H0z"/></clipPath></defs></svg>