<svg class="color-immutable" width="24" height="24" viewBox="0 0 24 24" fill="none" xmlns="http://www.w3.org/2000/svg"><g clip-path="url(#a)"><path d="M0 22.5v-21C0 .675.675 0 1.5 0h21c.825 0 1.5.675 1.5 1.5v21c0 .825-.675 1.5-1.5 1.5h-21C.675 24 0 23.325 0 22.5Z" fill="#2D327D"/><path d="M19.8 14.1v3H4.2v-3H3V21h1.2v-2.4h15.6V21H21v-6.9h-1.2Z" fill="#fff"/><path d="M9.3 16.5H5.1a.3.3 0 0 1-.3-.3v-1.8a.3.3 0 0 1 .3-.3h3.3a1.2 1.2 0 0 1 1.2 1.2v.9a.3.3 0 0 1-.3.3Z" fill="#fff"/></g><defs><clipPath id="a"><path fill="#fff" d="M0 0h24v24H0z"/></clipPath></defs></svg>