<svg class="color-immutable" width="30" height="30" viewBox="0 0 30 30" fill="none" xmlns="http://www.w3.org/2000/svg"><g clip-path="url(#a)"><path d="M30 0H0v30h30V0Z" fill="#2D327D"/><path d="M6 6v9h1.585c.092-.408.258-.788.484-1.125h-.944v-6.75h15.75v6.75H13.68c.226.337.392.717.484 1.125H24V6H6Z" fill="#fff"/><path d="M14.975 7.875a2.625 2.625 0 1 0 0 5.25 2.625 2.625 0 0 0 0-5.25Zm-.855 3.231c-.122.144-.294.216-.517.216a.665.665 0 0 1-.553-.25.837.837 0 0 1-.17-.536.81.81 0 0 1 .201-.561.683.683 0 0 1 .535-.224.65.65 0 0 1 .5.206c.09.096.14.207.15.333h-.323a.326.326 0 0 0-.114-.197.344.344 0 0 0-.22-.069.346.346 0 0 0-.32.18.657.657 0 0 0-.079.334c0 .135.028.248.083.338.07.116.175.174.313.174a.32.32 0 0 0 .236-.088.419.419 0 0 0 .108-.254h.326a.673.673 0 0 1-.156.398Zm1.64.18h-.328v-.653h-.613v.654h-.327v-1.5h.327v.57h.613v-.57h.327v1.5Zm1.25-.874v.257h-.634v.617h-.327V9.787h1.055v.277h-.728v.348h.634ZM10.893 13.125a2.625 2.625 0 1 0 0 5.25 2.625 2.625 0 0 0 0-5.25Zm.638 1.925a1.86 1.86 0 0 0-.354-.203.809.809 0 0 0-.3-.058c-.276 0-.473.198-.589.593h1.116l-.117.332h-1.058a2.318 2.318 0 0 0 0 .185h.978l-.125.332h-.786c.122.365.317.548.585.548a.885.885 0 0 0 .262-.04c.086-.027.214-.08.382-.161v.578c-.313.093-.54.14-.679.14-.25 0-.482-.081-.695-.243-.24-.179-.4-.453-.484-.822h-.388l.121-.332h.213a3.184 3.184 0 0 1-.004-.125v-.06h-.33l.121-.332h.255a1.69 1.69 0 0 1 .29-.64c.232-.31.557-.465.977-.465.208 0 .389.038.543.114.06.03.148.083.263.158l-.197.5ZM15 18.75A2.625 2.625 0 1 0 15 24a2.625 2.625 0 0 0 0-5.25Zm.918 4.11a1.049 1.049 0 0 1-.38.069c-.08 0-.148-.006-.205-.017a3.995 3.995 0 0 1-.305-.08 1.464 1.464 0 0 0-.382-.065.62.62 0 0 0-.213.035 1.157 1.157 0 0 0-.236.129l-.258-.384c.136-.097.235-.182.295-.256a.651.651 0 0 0 .164-.41.723.723 0 0 0-.041-.232h-.435V21.3h.287a2.398 2.398 0 0 0-.061-.14 1.624 1.624 0 0 1-.092-.247.875.875 0 0 1-.025-.218c0-.209.076-.385.23-.529.19-.176.454-.264.793-.264.332 0 .59.082.772.248.183.165.277.4.282.705h-.588c-.003-.14-.036-.245-.099-.316-.082-.093-.2-.139-.354-.139a.421.421 0 0 0-.281.093.297.297 0 0 0-.111.237c0 .08.023.177.07.29.048.117.084.21.108.28h.544v.349h-.43a.92.92 0 0 1 .018.18c0 .1-.027.193-.08.28a1.356 1.356 0 0 1-.271.295.932.932 0 0 1 .377-.089c.08 0 .177.015.291.045.123.033.213.05.27.05a.513.513 0 0 0 .389-.175l.252.433a.795.795 0 0 1-.295.192ZM21.77 18.753a1.667 1.667 0 0 0-.265-.096v.806c.289-.036.433-.17.433-.402a.331.331 0 0 0-.168-.308ZM20.865 17.691c0 .097.029.172.086.225.058.052.16.096.306.132v-.714c-.261.024-.392.143-.392.357Z" fill="#fff"/><path d="M21.375 15.75a2.625 2.625 0 1 0 0 5.25 2.625 2.625 0 0 0 0-5.25Zm.91 3.85a.92.92 0 0 1-.328.231c-.12.049-.27.078-.452.087v.417h-.248v-.419c-.289-.016-.514-.09-.677-.22-.227-.181-.342-.437-.344-.768h.582c-.003.325.144.504.44.535v-.867c-.274-.077-.463-.145-.567-.206a.777.777 0 0 1-.291-.271.738.738 0 0 1-.092-.38c0-.166.043-.313.129-.443a.841.841 0 0 1 .367-.3 1.35 1.35 0 0 1 .453-.094v-.37h.248v.37c.292.015.515.096.672.243.157.147.238.351.243.614h-.556c-.005-.249-.125-.389-.359-.419v.765c.02.006.073.02.162.041.294.077.502.17.624.281.15.138.225.326.225.564a.856.856 0 0 1-.232.61Z" fill="#fff"/><path d="M25.5 3c.825 0 1.5.675 1.5 1.5v21c0 .825-.675 1.5-1.5 1.5h-21c-.825 0-1.5-.675-1.5-1.5v-21C3 3.675 3.675 3 4.5 3h21Zm0-.375h-21A1.877 1.877 0 0 0 2.625 4.5v21c0 1.034.841 1.875 1.875 1.875h21a1.877 1.877 0 0 0 1.875-1.875v-21A1.877 1.877 0 0 0 25.5 2.625Z" fill="#fff"/></g><defs><clipPath id="a"><path fill="#fff" d="M0 0h30v30H0z"/></clipPath></defs></svg>