<svg class="color-immutable" width="30" height="30" viewBox="0 0 30 30" fill="none" xmlns="http://www.w3.org/2000/svg"><path d="M30 0H0v30h30V0Z" fill="#2D327D"/><path d="M25.5 3c.825 0 1.5.675 1.5 1.5v21c0 .825-.675 1.5-1.5 1.5h-21c-.825 0-1.5-.675-1.5-1.5v-21C3 3.675 3.675 3 4.5 3h21Zm0-.375h-21A1.877 1.877 0 0 0 2.625 4.5v21c0 1.034.841 1.875 1.875 1.875h21a1.877 1.877 0 0 0 1.875-1.875v-21A1.877 1.877 0 0 0 25.5 2.625Z" fill="#fff"/><path d="M21.75 10.5h-4.012v-.9c0-.745-.606-1.35-1.35-1.35h-2.776a1.35 1.35 0 0 0-1.35 1.35v.9H8.25A2.251 2.251 0 0 0 6 12.75v9A2.251 2.251 0 0 0 8.25 24h13.5A2.25 2.25 0 0 0 24 21.75v-9a2.25 2.25 0 0 0-2.25-2.25Zm-5.062 0h-3.376V9.3h3.376v1.2Z" fill="#fff"/><path d="M12.772 11.925c-2.92 0-5.287 2.292-5.287 5.21 0 2.92 2.368 5.365 5.287 5.365s5.287-2.445 5.287-5.364c0-2.92-2.368-5.211-5.287-5.211Zm0 9.17a3.79 3.79 0 0 1-3.788-3.788 3.79 3.79 0 0 1 3.788-3.788 3.79 3.79 0 0 1 3.787 3.788 3.79 3.79 0 0 1-3.787 3.788Z" fill="#EB0000"/><path d="M10.725 17.85h4.125a.563.563 0 1 0 0-1.125h-4.125a.562.562 0 0 0 0 1.125ZM10.163 15.307h.423c.079 0 .146.009.202.027a.4.4 0 0 1 .149.086.51.51 0 0 1 .156.397c0 .18-.05.318-.148.415a.375.375 0 0 1-.147.093.66.66 0 0 1-.207.028h-.428v-1.046Zm.229.193v.66h.175a.413.413 0 0 0 .13-.017.198.198 0 0 0 .083-.054c.055-.06.083-.148.083-.264 0-.107-.026-.188-.077-.243-.051-.055-.127-.082-.227-.082h-.167ZM11.604 15.55c.114 0 .207.038.279.113a.413.413 0 0 1 .106.298c0 .128-.038.23-.114.306a.375.375 0 0 1-.277.107.374.374 0 0 1-.29-.119.418.418 0 0 1-.103-.293c0-.118.033-.214.1-.288a.382.382 0 0 1 .3-.124Zm-.01.162a.154.154 0 0 0-.131.066.305.305 0 0 0-.05.184c0 .08.017.142.05.185a.163.163 0 0 0 .136.066c.053 0 .096-.02.128-.06a.296.296 0 0 0 .053-.19.306.306 0 0 0-.047-.183.162.162 0 0 0-.14-.068ZM12.853 15.572v.688c0 .06-.004.11-.011.146a.308.308 0 0 1-.04.1c-.06.095-.168.143-.323.143-.216 0-.335-.082-.355-.246h.208c.015.066.065.098.151.098.066 0 .112-.018.138-.055.02-.03.031-.078.031-.143v-.097a.26.26 0 0 1-.23.123.29.29 0 0 1-.235-.103.421.421 0 0 1-.088-.282c0-.118.03-.213.088-.284a.3.3 0 0 1 .243-.111c.052 0 .095.01.13.03.035.019.067.051.096.097v-.104h.197Zm-.377.147a.146.146 0 0 0-.132.073.277.277 0 0 0-.037.149c0 .076.018.134.053.173a.15.15 0 0 0 .12.053.152.152 0 0 0 .14-.078.293.293 0 0 0 .035-.151.243.243 0 0 0-.055-.17.16.16 0 0 0-.124-.05ZM13.726 16.353h-.212a.282.282 0 0 1-.013-.078.336.336 0 0 1-.252.1.285.285 0 0 1-.187-.057.22.22 0 0 1-.077-.18c0-.097.044-.165.132-.202a.867.867 0 0 1 .197-.043.633.633 0 0 0 .155-.031c.02-.01.03-.031.03-.062 0-.068-.045-.103-.136-.103-.048 0-.083.01-.105.026-.022.018-.037.047-.044.09h-.196a.253.253 0 0 1 .098-.197.416.416 0 0 1 .252-.066c.12 0 .21.025.268.074a.17.17 0 0 1 .053.073.427.427 0 0 1 .013.125 22.113 22.113 0 0 1-.004.319c0 .057.002.098.005.125.004.026.011.055.023.087Zm-.228-.377a.402.402 0 0 1-.146.039.353.353 0 0 0-.107.03c-.031.016-.047.044-.047.084 0 .033.01.058.03.076.021.018.05.027.087.027.06 0 .11-.021.148-.064a.124.124 0 0 0 .027-.046.218.218 0 0 0 .008-.063v-.083ZM14.058 15.574v.11a.293.293 0 0 1 .254-.134c.064 0 .118.016.162.048.035.026.06.058.074.098.014.04.021.095.021.166v.49h-.207v-.446a.344.344 0 0 0-.012-.11.098.098 0 0 0-.042-.05.165.165 0 0 0-.162.004.14.14 0 0 0-.057.063.345.345 0 0 0-.021.138v.402h-.208v-.78h.198ZM15.435 16.353h-.212a.285.285 0 0 1-.013-.078.336.336 0 0 1-.251.1.285.285 0 0 1-.188-.057.22.22 0 0 1-.077-.18c0-.097.044-.165.132-.202a.864.864 0 0 1 .198-.043.631.631 0 0 0 .154-.031c.02-.01.03-.031.03-.062 0-.068-.045-.103-.136-.103-.048 0-.083.01-.105.026-.022.018-.037.047-.044.09h-.196a.254.254 0 0 1 .098-.197.416.416 0 0 1 .252-.066c.121 0 .21.025.268.074a.172.172 0 0 1 .053.073.428.428 0 0 1 .013.125 22.113 22.113 0 0 1-.003.319c0 .057.001.098.005.125.003.026.01.055.022.087Zm-.228-.377a.402.402 0 0 1-.146.039.353.353 0 0 0-.107.03c-.031.016-.047.044-.047.084 0 .033.01.058.031.076.02.018.049.027.086.027.06 0 .11-.021.148-.064a.122.122 0 0 0 .027-.046.217.217 0 0 0 .008-.063v-.083Z" fill="#000"/></svg>