<svg class="color-immutable" width="30" height="30" viewBox="0 0 30 30" fill="none" xmlns="http://www.w3.org/2000/svg"><path d="M30 0H0v30h30V0Z" fill="#2D327D"/><path d="M25.5 3c.825 0 1.5.675 1.5 1.5v21c0 .825-.675 1.5-1.5 1.5h-21c-.825 0-1.5-.675-1.5-1.5v-21C3 3.675 3.675 3 4.5 3h21Zm0-.375h-21A1.877 1.877 0 0 0 2.625 4.5v21c0 1.034.841 1.875 1.875 1.875h21a1.877 1.877 0 0 0 1.875-1.875v-21A1.877 1.877 0 0 0 25.5 2.625Z" fill="#fff"/><path d="M21.75 10.5h-4.012v-.9c0-.745-.606-1.35-1.35-1.35h-2.776a1.35 1.35 0 0 0-1.35 1.35v.9H8.25A2.251 2.251 0 0 0 6 12.75v9A2.251 2.251 0 0 0 8.25 24h13.5A2.25 2.25 0 0 0 24 21.75v-9a2.25 2.25 0 0 0-2.25-2.25Zm-5.062 0h-3.376V9.3h3.376v1.2Z" fill="#fff"/><path d="M12.772 11.925c-2.92 0-5.287 2.292-5.287 5.21 0 2.92 2.368 5.365 5.287 5.365s5.287-2.445 5.287-5.364c0-2.92-2.368-5.211-5.287-5.211Zm0 9.17a3.79 3.79 0 0 1-3.788-3.788 3.79 3.79 0 0 1 3.788-3.788 3.79 3.79 0 0 1 3.787 3.788 3.79 3.79 0 0 1-3.787 3.788Z" fill="#EB0000"/><path d="M10.725 17.85h4.125a.563.563 0 1 0 0-1.125h-4.125a.562.562 0 0 0 0 1.125ZM12.413 15.306v.174l-.568.68h.586v.193h-.885v-.184l.563-.67h-.524v-.193h.828ZM12.919 15.55c.114 0 .206.037.278.112a.413.413 0 0 1 .107.298c0 .129-.038.231-.114.307a.376.376 0 0 1-.277.107.373.373 0 0 1-.291-.119.419.419 0 0 1-.103-.293c0-.118.033-.215.1-.289a.382.382 0 0 1 .3-.124Zm-.01.161a.154.154 0 0 0-.132.067.305.305 0 0 0-.05.184c0 .08.017.142.05.185a.163.163 0 0 0 .136.065c.054 0 .097-.02.128-.06a.296.296 0 0 0 .054-.19.307.307 0 0 0-.047-.183.162.162 0 0 0-.14-.068ZM13.652 15.306v1.047h-.208v-1.047h.208ZM14.03 15.306v1.047h-.207v-1.047h.207Z" fill="#000"/></svg>