<svg class="color-immutable" width="24" height="24" viewBox="0 0 24 24" fill="none" xmlns="http://www.w3.org/2000/svg"><g clip-path="url(#a)"><path d="M0 22.5v-21C0 .675.675 0 1.5 0h21c.825 0 1.5.675 1.5 1.5v21c0 .825-.675 1.5-1.5 1.5h-21C.675 24 0 23.325 0 22.5Z" fill="#2D327D"/><path d="m14 11.734 1.811.633a.374.374 0 0 0 .435-.145l.407-.603a.3.3 0 0 0-.249-.468H14.1a.301.301 0 0 0-.301.301.298.298 0 0 0 .201.282ZM7.665 12.726h.375a.3.3 0 0 0 0-.601h-.375a.3.3 0 0 0 0 .601Z" fill="#fff"/><path d="M20.39 19.313a3.676 3.676 0 0 0-4.731-5.319l-.72-1.156h-1.025L3.708 2.631l-1.06 1.061 7.459 7.459H7.665a.3.3 0 0 0 0 .601h2.625v-.417l1.504 1.504H9.09l-.72 1.156a3.673 3.673 0 0 0-5.355 3.269 3.676 3.676 0 0 0 3.675 3.675 3.676 3.676 0 0 0 2.189-6.628l.403-.648 1.966 2.923a.975.975 0 1 0 1.649 1.015h.782a3.675 3.675 0 0 0 5.635 2.76l.673.673 1.06-1.061-.657-.66Zm-10.624-2.05a3.077 3.077 0 0 1-6.151 0 3.076 3.076 0 0 1 4.438-2.757l-1.617 2.599a.302.302 0 0 0 .256.459c.104 0 .2-.054.254-.142l1.617-2.598a3.075 3.075 0 0 1 1.203 2.439Zm4.981-3.6.012.019-.015-.015.003-.004Zm-2.463 2.587a.978.978 0 0 0-.537 0l-1.891-2.812h2.538l1.065 1.065-1.175 1.747Zm1.391.751h-.702a.983.983 0 0 0-.19-.415l1.109-1.65.352.352a3.657 3.657 0 0 0-.569 1.713Zm1.004-1.277 1.277 1.277h-1.68c.039-.456.18-.89.403-1.277Zm2.662 4.614a3.076 3.076 0 0 1-3.057-2.738h2.273l2.324 2.324a3.06 3.06 0 0 1-1.54.414Zm2.615-1.459-3.326-3.326-.651-1.046a3.075 3.075 0 0 1 3.977 4.372Z" fill="#fff"/><path d="m3.708 2.631-1.06 1.061L19.99 21.034l1.06-1.061L3.708 2.631Z" fill="#EB0000"/></g><defs><clipPath id="a"><path fill="#fff" d="M0 0h24v24H0z"/></clipPath></defs></svg>