<svg class="color-immutable" width="30" height="30" viewBox="0 0 30 30" fill="none" xmlns="http://www.w3.org/2000/svg"><path d="M30 0H0v30h30V0Z" fill="#2D327D"/><path d="M25.5 3c.825 0 1.5.675 1.5 1.5v21c0 .825-.675 1.5-1.5 1.5h-21c-.825 0-1.5-.675-1.5-1.5v-21C3 3.675 3.675 3 4.5 3h21Zm0-.375h-21A1.877 1.877 0 0 0 2.625 4.5v21c0 1.034.841 1.875 1.875 1.875h21a1.877 1.877 0 0 0 1.875-1.875v-21A1.877 1.877 0 0 0 25.5 2.625Z" fill="#fff"/><path d="m13.015 14.795-1.81.634a.374.374 0 0 1-.435-.145l-.407-.604a.302.302 0 0 1 .249-.468h2.304a.3.3 0 0 1 .1.583ZM19.35 14.813h-2.625v-.6h2.626a.3.3 0 0 1 0 .6ZM19.35 15.787h-.375a.3.3 0 0 1 0-.6h.375a.3.3 0 0 1 0 .6Z" fill="#fff"/><path d="m24.05 22.973-.645-.645a3.676 3.676 0 0 0-4.76-5.272l-.72-1.156h-.948L6.708 5.631l-1.06 1.06 9.208 9.209h-2.78l-.72 1.156a3.675 3.675 0 1 0 1.978 3.606h.783a.976.976 0 1 0 1.65-1.015l1.14-1.696.35.35a3.675 3.675 0 0 0 5.09 5.091l.643.642 1.06-1.06Zm-5.087-5.406a3.078 3.078 0 0 1 4.438 2.758c0 .573-.158 1.109-.43 1.568l-3.483-3.482-.525-.844ZM9.675 23.4a3.075 3.075 0 1 1 1.363-5.833l-1.343 2.158h-.02a.6.6 0 1 0 .496.937h2.562A3.077 3.077 0 0 1 9.675 23.4Zm.517-3.338 1.355-2.177a3.072 3.072 0 0 1 1.192 2.177h-2.547Zm3.851 0h-.702a3.68 3.68 0 0 0-1.476-2.69l.404-.648 1.965 2.923a.966.966 0 0 0-.19.415Zm1.226-.75a.971.971 0 0 0-.537 0L12.84 16.5h2.616l1.019 1.019-1.207 1.793Zm5.056 4.088a3.076 3.076 0 0 1-2.632-4.663l4.22 4.22a3.059 3.059 0 0 1-1.588.443Z" fill="#fff"/><path d="m6.708 5.631-1.06 1.06L22.99 24.035l1.06-1.06L6.708 5.63Z" fill="#EB0000"/></svg>