<svg class="color-immutable" width="24" height="24" viewBox="0 0 24 24" fill="none" xmlns="http://www.w3.org/2000/svg"><g clip-path="url(#a)"><path d="M0 22.5v-21C0 .675.675 0 1.5 0h21c.825 0 1.5.675 1.5 1.5v21c0 .825-.675 1.5-1.5 1.5h-21C.675 24 0 23.325 0 22.5Z" fill="#237F52"/><path d="M20.999 5.064h-2.064V3h-2.15v2.064h-2.063v2.15h2.063v2.063h2.15V7.214h2.064v-2.15ZM12.979 8.633c-2.422-.223-3.251 1.897-3.251 1.897S8.9 8.41 6.477 8.634c-2.422.223-3.909 2.331-3.363 4.924.175.831.915 2.298 2.108 3.681C6.698 18.952 8.758 20.56 9.728 21c.97-.441 3.03-2.048 4.506-3.761 1.192-1.383 1.933-2.85 2.108-3.681.546-2.594-.94-4.701-3.363-4.925Zm-4.648 9.73 1.27-3.116H7.726l3.58-3.993L9.824 14.4h1.906l-3.399 3.963Z" fill="#fff"/></g><defs><clipPath id="a"><path fill="#fff" d="M0 0h24v24H0z"/></clipPath></defs></svg>