<svg class="color-immutable" width="30" height="30" viewBox="0 0 30 30" fill="none" xmlns="http://www.w3.org/2000/svg"><path d="M30 0H0v30h30V0Z" fill="#2D327D"/><path d="M25.5 3c.825 0 1.5.675 1.5 1.5v21c0 .825-.675 1.5-1.5 1.5h-21c-.825 0-1.5-.675-1.5-1.5v-21C3 3.675 3.675 3 4.5 3h21Zm0-.375h-21A1.877 1.877 0 0 0 2.625 4.5v21c0 1.034.841 1.875 1.875 1.875h21a1.877 1.877 0 0 0 1.875-1.875v-21A1.877 1.877 0 0 0 25.5 2.625Z" fill="#fff"/><path d="M6.188 24.185h17.625a.185.185 0 1 0 0-.37H6.188a.185.185 0 1 0 0 .37ZM5.88 11.808a3.564 3.564 0 0 1 3.016-.306l5.496 2 6.999-5.711 1.458.404-3.593 7.077 2.544.926 1.756-2.179 1.075.448-1.561 3.73h-5.352L7.112 14.335a4.245 4.245 0 0 1-1.395-.841 1.056 1.056 0 0 1 .164-1.688Z" fill="#fff"/></svg>