<svg class="color-immutable" width="30" height="30" viewBox="0 0 30 30" fill="none" xmlns="http://www.w3.org/2000/svg"><path d="M30 0H0v30h30V0Z" fill="#2D327D"/><path d="M25.5 3c.825 0 1.5.675 1.5 1.5v21c0 .825-.675 1.5-1.5 1.5h-21c-.825 0-1.5-.675-1.5-1.5v-21C3 3.675 3.675 3 4.5 3h21Zm0-.375h-21A1.877 1.877 0 0 0 2.625 4.5v21c0 1.034.841 1.875 1.875 1.875h21a1.877 1.877 0 0 0 1.875-1.875v-21A1.877 1.877 0 0 0 25.5 2.625Z" fill="#fff"/><path d="M23.813 24.185H6.188a.185.185 0 1 1 0-.37h17.625a.185.185 0 1 1 0 .37ZM24.12 11.808a3.564 3.564 0 0 0-3.016-.306l-5.496 2L8.61 7.791l-1.458.404 3.593 7.077-2.544.926-1.756-2.179-1.075.448 1.561 3.73h5.352l10.606-3.861a4.245 4.245 0 0 0 1.395-.841 1.056 1.056 0 0 0-.164-1.688Z" fill="#fff"/></svg>