<svg class="color-immutable" width="30" height="30" viewBox="0 0 30 30" fill="none" xmlns="http://www.w3.org/2000/svg"><path d="M30 0H0V30H30V0Z" fill="#2D327D"/><path d="M25.5 3C26.325 3 27 3.675 27 4.5V25.5C27 26.325 26.325 27 25.5 27H4.5C3.675 27 3 26.325 3 25.5V4.5C3 3.675 3.675 3 4.5 3H25.5ZM25.5 2.625H4.5C3.46613 2.625 2.625 3.46613 2.625 4.5V25.5C2.625 26.5339 3.46613 27.375 4.5 27.375H25.5C26.5339 27.375 27.375 26.5339 27.375 25.5V4.5C27.375 3.46613 26.5339 2.625 25.5 2.625Z" fill="white"/><path d="M9.04082 17.8969C8.36612 16.8934 7.34192 16.2119 6.15617 15.9768L5.99927 16.7775L9.79554 20.8341C9.88997 19.799 9.62874 18.7712 9.04082 17.8969Z" fill="white"/><path d="M18.767 19.0016C19.9979 18.1739 21.4733 17.8664 22.9297 18.1314L23.4143 15.6577L10.5278 18.3462C10.9239 19.339 11.0293 20.4253 10.8222 21.4993L16.378 22.5877C16.6715 21.1137 17.5193 19.8406 18.767 19.0016Z" fill="white"/><path d="M9.96288 17.2768C9.97308 17.2919 9.98283 17.3073 9.9928 17.3225L16.441 15.9773L7.09338 11.1919L6.36963 14.8863C7.84668 15.1784 9.1225 16.027 9.96288 17.2768Z" fill="white"/><path d="M23.6463 14.4742L24.0021 12.6577L7.44207 9.41348L7.31592 10.0573L18.1737 15.6159L23.6463 14.4742Z" fill="white"/><path d="M17.5964 22.3075L22.5593 20.0217L22.716 19.2219C20.4614 18.82 18.2794 20.1683 17.5964 22.3075Z" fill="white"/></svg>