<svg class="color-immutable" width="30" height="30" viewBox="0 0 30 30" fill="none" xmlns="http://www.w3.org/2000/svg"><g clip-path="url(#a)"><path d="M30 0H0v30h30V0Z" fill="#2D327D"/><path d="M25.5 3c.825 0 1.5.675 1.5 1.5v21c0 .825-.675 1.5-1.5 1.5h-21c-.825 0-1.5-.675-1.5-1.5v-21C3 3.675 3.675 3 4.5 3h21Zm0-.375h-21A1.877 1.877 0 0 0 2.625 4.5v21c0 1.034.841 1.875 1.875 1.875h21a1.877 1.877 0 0 0 1.875-1.875v-21A1.877 1.877 0 0 0 25.5 2.625Z" fill="#fff"/><path d="M9.04 17.897a4.51 4.51 0 0 0-2.884-1.92l-.157.8 3.797 4.057a4.505 4.505 0 0 0-.755-2.937ZM18.767 19.002a5.612 5.612 0 0 1 4.163-.87l.484-2.474-12.886 2.688a5.61 5.61 0 0 1 .294 3.153l5.556 1.089a5.615 5.615 0 0 1 2.389-3.586ZM9.963 17.277l.03.046 6.448-1.346-9.348-4.785-.723 3.694a5.614 5.614 0 0 1 3.593 2.39ZM23.646 14.474l.356-1.816-16.56-3.245-.126.644 10.858 5.559 5.472-1.142Z" fill="#fff"/><path d="m17.596 22.308 4.963-2.286.157-.8a4.547 4.547 0 0 0-5.12 3.085Z" fill="#fff"/></g><defs><clipPath id="a"><path fill="#fff" d="M0 0h30v30H0z"/></clipPath></defs></svg>