<svg class="color-immutable" width="24" height="24" viewBox="0 0 24 24" fill="none" xmlns="http://www.w3.org/2000/svg"><g clip-path="url(#a)"><path d="M0 22.5v-21C0 .675.675 0 1.5 0h21c.825 0 1.5.675 1.5 1.5v21c0 .825-.675 1.5-1.5 1.5h-21C.675 24 0 23.325 0 22.5Z" fill="#2D327D"/><path d="M6.041 14.897a4.509 4.509 0 0 0-2.885-1.92l-.157.801 3.796 4.057a4.501 4.501 0 0 0-.754-2.938ZM15.767 16.002a5.611 5.611 0 0 1 4.163-.87l.485-2.474-12.887 2.688c.396.993.501 2.079.294 3.153l5.556 1.088a5.616 5.616 0 0 1 2.389-3.585ZM6.963 14.277l.03.046 6.448-1.345-9.347-4.786-.724 3.694a5.613 5.613 0 0 1 3.593 2.391ZM20.646 11.474l.356-1.816-16.56-3.245-.126.644 10.858 5.559 5.472-1.142Z" fill="#fff"/><path d="m14.596 19.307 4.963-2.286.157-.8a4.548 4.548 0 0 0-5.12 3.086Z" fill="#fff"/></g><defs><clipPath id="a"><path fill="#fff" d="M0 0h24v24H0z"/></clipPath></defs></svg>