<svg class="color-immutable" width="30" height="30" viewBox="0 0 30 30" fill="none" xmlns="http://www.w3.org/2000/svg"><path d="M30 0H0v30h30V0Z" fill="#2D327D"/><path d="M25.5 3c.825 0 1.5.675 1.5 1.5v21c0 .825-.675 1.5-1.5 1.5h-21c-.825 0-1.5-.675-1.5-1.5v-21C3 3.675 3.675 3 4.5 3h21Zm0-.375h-21A1.877 1.877 0 0 0 2.625 4.5v21c0 1.034.841 1.875 1.875 1.875h21a1.877 1.877 0 0 0 1.875-1.875v-21A1.877 1.877 0 0 0 25.5 2.625Z" fill="#fff"/><path d="m6.064 19.432 2.128-2.098a.318.318 0 0 1 .45.003l.23.233-1.548 1.528.233.236 1.987-1.962a.317.317 0 0 1 .449.003l.23.234-2.212 2.185.233.235 2.643-2.61a.318.318 0 0 1 .45.004l.23.234-2.87 2.832.234.236 3.311-3.27a.479.479 0 1 1 .673.682L9.363 21.65a.778.778 0 0 0 .525 1.33l1.74.003.19.008a.554.554 0 0 1 .52.592l-.001.09a.33.33 0 0 1-.345.342H6.066" fill="#fff"/><path d="m24.168 23.057-4.391-4.391h3.536a.76.76 0 0 0 .75-.768v-11.1a.76.76 0 0 0-.75-.767H7.142l-.315-.315-1.06 1.06.3.3v10.822c0 .34.218.625.517.726l.602-.593h-.369c-.064 0-.117-.06-.117-.133v-3.826h4.519l.375-.375H6.7V7.711l5.562 5.56-.954.956a.483.483 0 0 0 .005.682l1.544 1.542c.19.19.495.19.683.003l.95-.953 2.53 2.53h-3.794a.688.688 0 0 1-.163.256l-.384.379h4.977l5.452 5.452 1.06-1.06Zm-8.617-8.617.68-.682c.79-.791.656-2.011 1.11-2.466.453-.455 1.346-1.555 1.346-1.555l.008.007a.12.12 0 0 0 .163-.007l.176-.176a.12.12 0 0 0 0-.17l-.684-.682a.12.12 0 0 0-.17 0l-.175.175a.12.12 0 0 0-.005.164l.005.006s-1.088.907-1.541 1.362c-.454.455-1.674.323-2.464 1.114l-.678.68-5.545-5.544h15.536c.065 0 .117.06.117.132v6.899h-6.89l-.376.375h7.266v3.826c0 .073-.052.133-.117.133h-4.171l-3.591-3.591Z" fill="#fff"/><path d="m6.827 5.716-1.06 1.06 17.34 17.342 1.061-1.06L6.827 5.715Z" fill="#EB0000"/></svg>