<svg class="color-immutable" width="24" height="24" viewBox="0 0 24 24" fill="none" xmlns="http://www.w3.org/2000/svg"><g clip-path="url(#a)"><path d="M0 22.5v-21C0 .675.675 0 1.5 0h21c.825 0 1.5.675 1.5 1.5v21c0 .825-.675 1.5-1.5 1.5h-21C.675 24 0 23.325 0 22.5Z" fill="#2D327D"/><path d="M3.089 7.484v13.5h6v-13.5h-6Zm5.25 7.5a.15.15 0 0 1-.15.15h-4.2a.151.151 0 0 1-.15-.15v-6.6c0-.082.068-.15.15-.15h4.2a.15.15 0 0 1 .15.15v6.6ZM4.192 4.425l1.431-1.441h-.895l-1.789 1.8 1.789 1.801h.895L4.192 5.144h11.047v-.719H4.192ZM15.239 8.234h-5.7v12h5.7v-12Z" fill="#fff"/></g><defs><clipPath id="a"><path fill="#fff" d="M0 0h24v24H0z"/></clipPath></defs></svg>