<svg class="color-immutable" width="24" height="24" viewBox="0 0 24 24" fill="none" xmlns="http://www.w3.org/2000/svg"><path d="M0 22.5V1.5C0 0.675 0.675 0 1.5 0H22.5C23.325 0 24 0.675 24 1.5V22.5C24 23.325 23.325 24 22.5 24H1.5C0.675 24 0 23.325 0 22.5Z" fill="#2D327D"/><path d="M3.08905 7.48401V20.984H9.08905V7.48401H3.08905ZM8.33905 14.984C8.33905 15.067 8.27205 15.134 8.18905 15.134H3.98905C3.90705 15.134 3.83905 15.066 3.83905 14.984V8.38401C3.83905 8.30201 3.90705 8.23401 3.98905 8.23401H8.18905C8.27205 8.23401 8.33905 8.30201 8.33905 8.38401V14.984Z" fill="white"/><path d="M4.19203 4.42501L5.62303 2.98401H4.72803L2.93903 4.78401L4.72803 6.58501H5.62303L4.19203 5.14401H15.239V4.42501H4.19203Z" fill="white"/><path d="M15.239 8.23401H9.539V20.234H15.239V8.23401Z" fill="white"/></svg>