<svg class="color-immutable" width="30" height="30" viewBox="0 0 30 30" fill="none" xmlns="http://www.w3.org/2000/svg"><path d="M30 0H0V30H30V0Z" fill="#2D327D"/><path d="M25.5 3C26.325 3 27 3.675 27 4.5V25.5C27 26.325 26.325 27 25.5 27H4.5C3.675 27 3 26.325 3 25.5V4.5C3 3.675 3.675 3 4.5 3H25.5ZM25.5 2.625H4.5C3.46613 2.625 2.625 3.46613 2.625 4.5V25.5C2.625 26.5339 3.46613 27.375 4.5 27.375H25.5C26.5339 27.375 27.375 26.5339 27.375 25.5V4.5C27.375 3.46613 26.5339 2.625 25.5 2.625Z" fill="white"/><path d="M19.2289 19.6838H11.0691V5.88376H19.2289V19.6838Z" fill="white"/><path d="M6.14905 6.03381V19.5339H10.649V6.03381H6.14905ZM9.7489 15.7839C9.7489 16.114 9.47882 16.3837 9.1489 16.3837H7.6489C7.31875 16.3837 7.0489 16.114 7.0489 15.7839V7.98381C7.0489 7.65381 7.31875 7.38389 7.6489 7.38389H9.1489C9.47882 7.38389 9.7489 7.65389 9.7489 7.98381V15.7839Z" fill="white"/><path d="M12.773 20.2462C12.773 21.2404 11.9671 22.0462 10.973 22.0462H7.15368L8.50315 20.8095H7.60353L6.02905 22.3837L7.60353 23.9582H8.50315L7.15368 22.7213L10.973 22.7216C12.34 22.7216 13.4481 21.6135 13.4481 20.2463H12.773V20.2462Z" fill="white"/><path d="M19.6486 6.03381V19.5339H24.1486V6.03381H19.6486ZM20.5489 7.98381C20.5489 7.65381 20.8189 7.38389 21.1486 7.38389H22.649C22.979 7.38389 23.2489 7.65389 23.2489 7.98381V15.7839C23.2489 16.114 22.979 16.3837 22.649 16.3837H21.1486C20.8188 16.3837 20.5489 16.114 20.5489 15.7839V7.98381Z" fill="white"/><path d="M17.5248 20.2462C17.5248 21.2404 18.3303 22.0462 19.3248 22.0462H23.1441L21.7946 20.8095H22.6941L24.2687 22.3837L22.6941 23.9581H21.7946L23.1441 22.7212L19.3248 22.7215C17.9577 22.7215 16.8496 21.6134 16.8496 20.2462H17.5248Z" fill="white"/></svg>