<svg class="color-immutable" width="30" height="30" viewBox="0 0 30 30" fill="none" xmlns="http://www.w3.org/2000/svg"><path d="M30 0H0V30H30V0Z" fill="#2D327D"/><path d="M25.5 3C26.325 3 27 3.675 27 4.5V25.5C27 26.325 26.325 27 25.5 27H4.5C3.675 27 3 26.325 3 25.5V4.5C3 3.675 3.675 3 4.5 3H25.5ZM25.5 2.625H4.5C3.46613 2.625 2.625 3.46613 2.625 4.5V25.5C2.625 26.5339 3.46613 27.375 4.5 27.375H25.5C26.5339 27.375 27.375 26.5339 27.375 25.5V4.5C27.375 3.46613 26.5339 2.625 25.5 2.625Z" fill="white"/><path d="M6.08887 10.4843V23.9843H12.0888V10.4843H6.08887ZM11.3388 17.9843C11.3388 18.0668 11.2716 18.1346 11.1889 18.1346H6.98887C6.90659 18.1346 6.83857 18.0668 6.83857 17.9843V11.3843C6.83857 11.3021 6.90659 11.2343 6.98887 11.2343H11.1889C11.2716 11.2343 11.3388 11.3021 11.3388 11.3843V17.9843Z" fill="white"/><path d="M7.19179 7.42446L8.62279 5.98431H7.72759L5.93884 7.78424L7.72759 9.58461H8.62279L7.19179 8.14416H18.239V7.42446H7.19179Z" fill="white"/><path d="M18.239 11.2343H12.5388V23.2344H18.239V11.2343Z" fill="white"/></svg>