<svg class="color-immutable" width="24" height="24" viewBox="0 0 24 24" fill="none" xmlns="http://www.w3.org/2000/svg"><path d="M0 22.5V1.5C0 0.675 0.675 0 1.5 0H22.5C23.325 0 24 0.675 24 1.5V22.5C24 23.325 23.325 24 22.5 24H1.5C0.675 24 0 23.325 0 22.5Z" fill="#2D327D"/><path d="M16.229 16.684H8.06897V2.884H16.229V16.684Z" fill="white"/><path d="M3.14899 3.034V16.534H7.64899V3.034H3.14899ZM6.74899 12.784C6.74899 13.114 6.47899 13.384 6.14899 13.384H4.64899C4.31899 13.384 4.04899 13.114 4.04899 12.784V4.984C4.04899 4.654 4.31899 4.384 4.64899 4.384H6.14899C6.47899 4.384 6.74899 4.654 6.74899 4.984V12.784Z" fill="white"/><path d="M9.77299 17.246C9.77299 18.24 8.96699 19.046 7.97299 19.046H4.15399L5.50299 17.809H4.60299L3.02899 19.383L4.60299 20.957H5.50299L4.15399 19.72H7.97299C9.33999 19.72 10.448 18.612 10.448 17.245H9.77299V17.246Z" fill="white"/><path d="M16.649 3.034V16.534H21.149V3.034H16.649ZM17.549 4.984C17.549 4.654 17.819 4.384 18.149 4.384H19.649C19.979 4.384 20.249 4.654 20.249 4.984V12.784C20.249 13.114 19.979 13.384 19.649 13.384H18.149C17.819 13.384 17.549 13.114 17.549 12.784V4.984Z" fill="white"/><path d="M14.525 17.246C14.525 18.24 15.331 19.046 16.325 19.046H20.144L18.795 17.809H19.694L21.269 19.383L19.694 20.957H18.795L20.144 19.72H16.325C14.958 19.72 13.85 18.612 13.85 17.245H14.525V17.246Z" fill="white"/></svg>