<svg class="color-immutable" width="30" height="30" viewBox="0 0 30 30" fill="none" xmlns="http://www.w3.org/2000/svg"><path d="M30 0H0v30h30V0Z" fill="#2D327D"/><path d="M25.5 3c.825 0 1.5.675 1.5 1.5v21c0 .825-.675 1.5-1.5 1.5h-21c-.825 0-1.5-.675-1.5-1.5v-21C3 3.675 3.675 3 4.5 3h21Zm0-.375h-21A1.877 1.877 0 0 0 2.625 4.5v21c0 1.034.841 1.875 1.875 1.875h21a1.877 1.877 0 0 0 1.875-1.875v-21A1.877 1.877 0 0 0 25.5 2.625Z" fill="#fff"/><path d="m12.011 9.465 1.645-1.643-1.883-1.883a.378.378 0 0 0-.264-.11c-.1 0-.195.04-.267.11l-1.114 1.114a.381.381 0 0 0-.11.265c0 .1.041.195.11.265l1.883 1.882Z" fill="#fff"/><path d="m15.75 10.5-1.855-1.857-1.061 1.062.795.796h-3.503c-1.036 0-1.876.839-1.876 1.873V13.5h1.5v-1.126c0-.206.168-.374.376-.374H19.5v-1.5h-3.75ZM11.738 15H6.264a.264.264 0 0 0-.264.264V22.5A1.5 1.5 0 0 0 7.5 24h3a1.5 1.5 0 0 0 1.5-1.5v-7.236a.262.262 0 0 0-.263-.264Zm-.412 3.6A2.71 2.71 0 0 1 9 18.6a2.702 2.702 0 0 0-2.324 0v-.75a2.702 2.702 0 0 1 2.324 0 2.695 2.695 0 0 0 2.326 0v.75Zm0-1.424a2.71 2.71 0 0 1-2.326 0 2.705 2.705 0 0 0-2.324 0v-.752a2.697 2.697 0 0 1 2.324 0c.364.173.76.264 1.164.264.401 0 .799-.091 1.162-.264v.752Z" fill="#fff"/></svg>