<svg class="color-immutable" width="24" height="24" viewBox="0 0 24 24" fill="none" xmlns="http://www.w3.org/2000/svg"><g clip-path="url(#a)"><path d="M0 22.5v-21C0 .675.675 0 1.5 0h21c.825 0 1.5.675 1.5 1.5v21c0 .825-.675 1.5-1.5 1.5h-21C.675 24 0 23.325 0 22.5Z" fill="#2D327D"/><path d="m5.58 13.736-2.25 2.25c-.211.211-.33.497-.33.796v2.644c0 .206.168.374.375.374h.375v-.431a2.25 2.25 0 0 1 4.5 0v.431h7.463v-.431a2.25 2.25 0 0 1 4.5 0v.431h.412a.375.375 0 0 0 .375-.375v-2.338a.375.375 0 0 0-.344-.374l-4.387-.364-2.614-2.614a1.124 1.124 0 0 0-.795-.329H6.375c-.298 0-.584.119-.795.33Zm4.505.758c0-.207.168-.375.375-.375h2.362c.1 0 .195.04.265.11l1.793 1.794a.225.225 0 0 1-.159.384h-4.259a.374.374 0 0 1-.375-.374l-.002-1.539Zm-5.572 1.912a.225.225 0 0 1-.159-.384l1.793-1.794c.07-.07.166-.11.265-.11h2.585c.207 0 .375.168.375.375v1.537a.375.375 0 0 1-.375.375H4.513v.001Z" fill="#fff"/><path fill-rule="evenodd" clip-rule="evenodd" d="M5.984 20.336a.937.937 0 1 1 0-1.874.937.937 0 0 1 0 1.874Zm.021-2.658a1.707 1.707 0 1 0 .002 3.414 1.707 1.707 0 0 0-.002-3.414ZM17.961 20.336a.938.938 0 1 1 0-1.876.938.938 0 0 1 0 1.876Zm0-2.644a1.707 1.707 0 1 0 .002 3.414 1.707 1.707 0 0 0-.002-3.414Z" fill="#fff"/><path d="M10.65 8.25H7.875c-.827 0-1.5-.673-1.5-1.5s.673-1.5 1.5-1.5h.751a.75.75 0 0 0 0-1.5H3V3h5.626c.827 0 1.5.673 1.5 1.5S9.453 6 8.626 6h-.751a.75.75 0 0 0 0 1.5h2.775v.75ZM12.75 9.375H12a1.125 1.125 0 0 1-1.125-1.125V7.5c0-.621.504-1.125 1.125-1.125h.75c.207 0 .375.168.375.375V9a.375.375 0 0 1-.375.375ZM14.625 6.938H13.35v.375h1.275a.188.188 0 1 0 0-.375ZM14.625 8.438H13.35v.375h1.275a.188.188 0 1 0 0-.375Z" fill="#fff"/></g><defs><clipPath id="a"><path fill="#fff" d="M0 0h24v24H0z"/></clipPath></defs></svg>