<svg class="color-immutable" width="24" height="24" viewBox="0 0 24 24" fill="none" xmlns="http://www.w3.org/2000/svg"><g clip-path="url(#a)"><path d="M0 22.5v-21C0 .675.675 0 1.5 0h21c.825 0 1.5.675 1.5 1.5v21c0 .825-.675 1.5-1.5 1.5h-21C.675 24 0 23.325 0 22.5Z" fill="#237F52"/><path d="M6.45 7.35a1.35 1.35 0 1 1-2.701-.001 1.35 1.35 0 0 1 2.701.001ZM12.57 15l-1.517-1.517-2.607 2.607v3.809a.693.693 0 0 1-1.385 0v-4.193c0-.185.072-.36.202-.491l2.075-2.075-2.277-2.279V12.8a.52.52 0 0 1-.52.52H4.083a.519.519 0 1 1 0-1.039h1.973V9.857c0-.955.775-1.732 1.733-1.732h2.42c.184 0 .361.074.49.204l2.043 2.043a.485.485 0 1 1-.687.686L10.128 9.13H8.757L14.628 15H12.57Z" fill="#fff"/><path d="m7.5 14.447 1.125-1.124v-.367L7.5 11.831v2.616Z" fill="#fff"/><path d="M7.5 3v4.77c.094-.013.191-.02.289-.02h.836V4.125h11.25v11.25H9.691l-.871.87v.255H21V3H7.5Z" fill="#fff"/></g><defs><clipPath id="a"><path fill="#fff" d="M0 0h24v24H0z"/></clipPath></defs></svg>