<svg class="color-immutable" width="24" height="24" viewBox="0 0 24 24" fill="none" xmlns="http://www.w3.org/2000/svg"><g clip-path="url(#a)"><path d="M0 22.5v-21C0 .675.675 0 1.5 0h21c.825 0 1.5.675 1.5 1.5v21c0 .825-.675 1.5-1.5 1.5h-21C.675 24 0 23.325 0 22.5Z" fill="#237F52"/><path d="M4.065 3v16.757L5.313 21h3.79l-.55-.586c-.256-.276-.132-.604.279-.733.412-.13.954-.011 1.21.263l.99 1.056h6.024l-1.24-1.243v-4.365l3.083.001a1.037 1.037 0 0 0 0-2.072h-3.083V3H4.065Zm3.142 2.963a1.35 1.35 0 1 1-2.701-.001 1.35 1.35 0 0 1 2.7.001Zm-2.888 5.45c0-.288.232-.519.52-.519h1.973V8.47c0-.955.775-1.732 1.733-1.732h2.42c.184 0 .36.074.49.204l2.043 2.043a.485.485 0 1 1-.687.686l-1.927-1.928h-1.37l5.922 5.923H18.9a.692.692 0 1 1 0 1.385h-3.85a.685.685 0 0 1-.488-.202l-2.751-2.751-2.608 2.606v3.809a.693.693 0 0 1-1.385 0V14.32c0-.185.072-.36.202-.491l2.075-2.075-2.277-2.28v1.939a.52.52 0 0 1-.52.52H4.84a.52.52 0 0 1-.521-.52Z" fill="#fff"/></g><defs><clipPath id="a"><path fill="#fff" d="M0 0h24v24H0z"/></clipPath></defs></svg>