<svg class="color-immutable" width="30" height="30" viewBox="0 0 30 30" fill="none" xmlns="http://www.w3.org/2000/svg"><g clip-path="url(#a)"><path d="M30 0H0v30h30V0Z" fill="#237F52"/><path d="M25.5 3c.825 0 1.5.675 1.5 1.5v21c0 .825-.675 1.5-1.5 1.5h-21c-.825 0-1.5-.675-1.5-1.5v-21C3 3.675 3.675 3 4.5 3h21Zm0-.375h-21A1.877 1.877 0 0 0 2.625 4.5v21c0 1.034.841 1.875 1.875 1.875h21a1.877 1.877 0 0 0 1.875-1.875v-21A1.877 1.877 0 0 0 25.5 2.625Z" fill="#fff"/><path d="M11.185 6v10.322H8.1a1.035 1.035 0 1 0 0 2.07h3.084v4.365L9.945 24h6.023l.99-1.055c.257-.275.8-.394 1.21-.264.411.13.535.457.279.733l-.55.586h3.79l1.248-1.243V6h-11.75Zm9.958 1.613a1.35 1.35 0 1 1 .001 2.7 1.35 1.35 0 0 1-.001-2.7Zm1.018 7.32h-2.459a.52.52 0 0 1-.52-.52v-1.94l-2.277 2.28 2.075 2.075c.131.131.203.306.203.49v4.194a.693.693 0 1 1-1.385 0v-3.81l-2.608-2.606-2.751 2.751a.687.687 0 0 1-.49.202H8.102a.692.692 0 1 1 0-1.385h3.463l5.922-5.923h-1.371l-1.927 1.928a.487.487 0 0 1-.829-.342.48.48 0 0 1 .143-.343l2.043-2.043a.692.692 0 0 1 .49-.203h2.42c.958 0 1.733.776 1.733 1.732v2.424h1.973a.519.519 0 1 1 0 1.039Z" fill="#fff"/></g><defs><clipPath id="a"><path fill="#fff" d="M0 0h30v30H0z"/></clipPath></defs></svg>