<svg class="color-immutable" width="24" height="24" viewBox="0 0 24 24" fill="none" xmlns="http://www.w3.org/2000/svg"><g clip-path="url(#a)"><path d="M0 22.5v-21C0 .675.675 0 1.5 0h21c.825 0 1.5.675 1.5 1.5v21c0 .825-.675 1.5-1.5 1.5h-21C.675 24 0 23.325 0 22.5Z" fill="#237F52"/><path d="m5.877 16.307 1.933-1.933v1.208l-2.417 2.417-2.417-2.417v-1.208l1.934 1.933v-4.592h.967v4.592ZM19.83 3v2.886h.002c0 .408-.33.738-.738.738H9.723a.738.738 0 0 1-.738-.738h.002l.003-2.884L7.827 3v8.817a1.902 1.902 0 0 0 1.756 1.894v-1.17a.74.74 0 0 1-.593-.724V8.524a.74.74 0 0 1 .738-.737H19.1c.405 0 .736.331.736.737v3.293a.738.738 0 0 1-.606.725v1.169A1.9 1.9 0 0 0 21 11.816V3h-1.17Z" fill="#fff"/><path d="M18.17 11.222a.782.782 0 0 0-.782.782v2.044h-.313v-2.99a.782.782 0 1 0-1.564 0v2.379h-.314v-3.003a.782.782 0 1 0-1.565 0v2.359h-.313V10.77a.782.782 0 1 0-1.564 0v3.929h-.314l-.001.001v-2.01c0-.497-.312-.939-.781-1.104a.586.586 0 0 0-.78.552v3.775l-.002.002c0 .391.08.794.211 1.108l1.377 3.326 6.49-.001.801-1.942a3.07 3.07 0 0 0 .198-1.106v-5.295a.785.785 0 0 0-.784-.783Z" fill="#fff"/></g><defs><clipPath id="a"><path fill="#fff" d="M0 0h24v24H0z"/></clipPath></defs></svg>