<svg class="color-immutable" width="30" height="30" viewBox="0 0 30 30" fill="none" xmlns="http://www.w3.org/2000/svg"><g clip-path="url(#a)"><path d="M30 0H0v30h30V0Z" fill="#237F52"/><path d="M25.5 3c.825 0 1.5.675 1.5 1.5v21c0 .825-.675 1.5-1.5 1.5h-21c-.825 0-1.5-.675-1.5-1.5v-21C3 3.675 3.675 3 4.5 3h21Zm0-.375h-21A1.877 1.877 0 0 0 2.625 4.5v21c0 1.034.841 1.875 1.875 1.875h21a1.877 1.877 0 0 0 1.875-1.875v-21A1.877 1.877 0 0 0 25.5 2.625Z" fill="#fff"/><path d="M17.924 8.25a1.012 1.012 0 1 1 .002 2.025 1.012 1.012 0 0 1-.002-2.025ZM10.78 15l4.402-4.404h-1.029l-1.445 1.446a.365.365 0 0 1-.62-.257.36.36 0 0 1 .106-.257l1.532-1.532a.52.52 0 0 1 .367-.152h1.816a1.3 1.3 0 0 1 1.3 1.298v1.819h1.479a.39.39 0 1 1 0 .779h-1.844a.39.39 0 0 1-.39-.39v-1.454l-1.708 1.709 1.557 1.556a.52.52 0 0 1 .151.368v3.145a.52.52 0 1 1-1.038 0v-2.857l-1.956-1.954L12.322 15H10.78Z" fill="#fff"/><path d="m16.125 14.586-.844-.844v-.275l.844-.844v1.963Z" fill="#fff"/><path d="M16.125 6v3.578a1.584 1.584 0 0 0-.216-.016h-.628V6.844H6.844v8.437h7.637l.653.653v.191H6V6h10.125ZM23.587 6.002a.387.387 0 0 0-.337.39v.92h-4.5a.003.003 0 0 1-.003-.003v-.914c0-.197-.143-.375-.339-.393a.376.376 0 0 0-.41.373v1.597c.283.016.543.122.75.292V7.69c0-.001 0-.003.002-.003h4.5v2.625h-4.5a.003.003 0 0 1-.003-.003v-.048c-.206.17-.466.276-.75.292v2.126h.691l.06.003V10.69c0-.001 0-.002.002-.002h4.5v2.624h-3.892l.001.038a.667.667 0 0 1-.092.338h3.983v2.624h-4.5a.003.003 0 0 1-.003-.003v-2.29a.64.64 0 0 1-.059.002h-.69v9.584c0 .197.142.375.338.393a.376.376 0 0 0 .411-.373v-.934c0-.002.001-.003.003-.003h4.5v.92c0 .195.142.37.337.39a.376.376 0 0 0 .413-.373V6.375a.376.376 0 0 0-.413-.373Zm-.337 16.31h-4.5a.003.003 0 0 1-.003-.003V19.69c0-.001.001-.003.003-.003h4.5v2.625Zm0-3h-4.5a.003.003 0 0 1-.003-.003V16.69c0-.001.001-.003.003-.003h4.5v2.625Z" fill="#fff"/></g><defs><clipPath id="a"><path fill="#fff" d="M0 0h30v30H0z"/></clipPath></defs></svg>