<svg class="color-immutable" width="24" height="24" viewBox="0 0 24 24" fill="none" xmlns="http://www.w3.org/2000/svg"><g clip-path="url(#a)"><path d="M0 22.5v-21C0 .675.675 0 1.5 0h21c.825 0 1.5.675 1.5 1.5v21c0 .825-.675 1.5-1.5 1.5h-21C.675 24 0 23.325 0 22.5Z" fill="#2D327D"/><path d="m3.261 16.182-.003.001a3.459 3.459 0 0 0-.257 1.282c-.003.395 0 3.535 0 3.535h7.821c.084-.188.316-.61.565-1.144a1.78 1.78 0 0 1-.674.148l-.055.001c-.3 0-.61-.069-.896-.199l-3.509-1.595c-.504-.229-.892-.627-1.064-1.093a1.362 1.362 0 0 1 .025-1.054l1.587-3.412.872-1.876a1.36 1.36 0 0 0-.377-1.427.68.68 0 0 0-1.085.238l-2.95 6.595ZM12.516 20.967a.805.805 0 1 1 .019-1.611h1.478a.805.805 0 1 1 .019 1.61l-1.516.001ZM13.434 19.002a.805.805 0 1 1 .02-1.611h1.477a.805.805 0 1 1 .019 1.61l-1.516.001ZM14.342 17.048a.805.805 0 1 1 .019-1.611h1.478a.805.805 0 1 1 .019 1.61h-1.516v.001ZM15.245 15.153a.805.805 0 1 1 .019-1.611h1.478a.807.807 0 0 1 .019 1.611h-1.516Z" fill="#fff"/><path d="M16.51 7.822a1.699 1.699 0 0 0-.823-.757l-3.51-1.595a1.83 1.83 0 0 0-.752-.168l-.045.001c-.494.014-.892.243-1.065.614L5.528 16.21a1.008 1.008 0 0 0-.014.788c.14.379.462.706.882.897l3.509 1.595c.241.109.501.167.752.167l.045-.001c.495-.014.893-.243 1.065-.613L16.555 8.75c.132-.282.116-.611-.045-.928ZM9.198 17.75a.505.505 0 0 1-.673.229.499.499 0 0 1-.24-.665.504.504 0 0 1 .672-.229c.253.12.36.417.241.665Zm2.374-.408-4.618-2.077 4.022-8.721 4.618 2.076-4.022 8.722ZM4.961 3.666h-.468a.34.34 0 0 0-.122-.251.474.474 0 0 0-.304-.087.464.464 0 0 0-.27.068.222.222 0 0 0-.096.192c0 .074.031.127.092.16.06.033.21.079.452.138.256.064.433.128.531.192a.564.564 0 0 1 .272.497.647.647 0 0 1-.274.551c-.16.118-.378.177-.653.177-.306 0-.543-.07-.712-.209-.169-.14-.257-.339-.263-.596h.49c.006.125.038.218.096.278.09.096.226.145.408.145a.52.52 0 0 0 .292-.072.26.26 0 0 0 .122-.226c0-.095-.058-.165-.172-.209a5.394 5.394 0 0 0-.443-.134 2.623 2.623 0 0 1-.34-.114.74.74 0 0 1-.198-.12.54.54 0 0 1-.172-.425c0-.216.09-.388.27-.514.152-.107.35-.161.594-.161.214 0 .394.043.538.128.21.122.318.319.33.592ZM6.367 2.946c.299 0 .551.098.754.295.224.217.335.512.335.883 0 .32-.085.585-.254.795-.207.255-.49.383-.849.383-.367 0-.655-.131-.864-.392-.166-.207-.248-.468-.248-.783 0-.373.107-.664.321-.872.211-.206.479-.309.805-.309Zm-.025.409a.536.536 0 0 0-.437.206c-.113.139-.169.325-.169.56 0 .243.055.432.166.568a.534.534 0 0 0 .198.151c.08.036.165.054.255.054a.524.524 0 0 0 .425-.188c.12-.144.18-.339.18-.586 0-.234-.055-.42-.165-.558a.543.543 0 0 0-.453-.207ZM9.458 3.666H8.99a.34.34 0 0 0-.122-.251.472.472 0 0 0-.304-.087.464.464 0 0 0-.27.068.223.223 0 0 0-.096.192c0 .074.031.127.092.16.06.032.211.078.453.138.255.064.432.128.53.192a.564.564 0 0 1 .272.497.647.647 0 0 1-.274.551c-.16.118-.378.177-.653.177-.306 0-.543-.07-.712-.209-.169-.14-.257-.339-.263-.596h.49c.006.125.038.218.096.278.09.096.226.145.408.145a.52.52 0 0 0 .292-.072.26.26 0 0 0 .121-.226c0-.095-.056-.165-.17-.209a5.53 5.53 0 0 0-.443-.134 2.594 2.594 0 0 1-.342-.114.543.543 0 0 1-.369-.545c0-.216.09-.388.27-.514.152-.107.351-.161.595-.161.214 0 .394.043.538.128.208.122.318.319.33.592Z" fill="#fff"/></g><defs><clipPath id="a"><path fill="#fff" d="M0 0h24v24H0z"/></clipPath></defs></svg>