<svg class="color-immutable" width="24" height="24" viewBox="0 0 24 24" fill="none" xmlns="http://www.w3.org/2000/svg"><g clip-path="url(#a)"><path d="M0 22.5v-21C0 .675.675 0 1.5 0h21c.825 0 1.5.675 1.5 1.5v21c0 .825-.675 1.5-1.5 1.5h-21C.675 24 0 23.325 0 22.5Z" fill="#237F52"/><path d="m6.183 5.701-.007-2.614 5.277.005.061 1.523.956 1.066-6.287.02ZM8.819 9.63c-2.586 0-2.636-3.353-2.636-3.387v-.071l5.354-.02-.002.073c-.001.034-.132 3.405-2.716 3.405ZM12.087 20.984H5.651V10.16h5.253a.1.1 0 0 1 .019-.002h8.92a1.148 1.148 0 0 1 0 2.295h-7.756v8.531ZM5.118 20.984H2.995v-8.139c0-2.212 2.018-2.637 2.039-2.641l.085-.017-.001 10.797ZM14.498 7.972l-.386-.237.085-.124a2.492 2.492 0 0 0-.017-2.848l-.086-.123.383-.241.078.111a2.93 2.93 0 0 1 .02 3.349l-.077.113Z" fill="#fff"/><path d="m15.404 8.453-.369-.262.093-.118a3.033 3.033 0 0 0 .011-3.775l-.093-.119.37-.26.084.107a3.467 3.467 0 0 1-.013 4.32l-.083.107Z" fill="#fff"/><path d="M16.361 8.915 16 8.642l.097-.115a3.57 3.57 0 0 0 .859-2.326 3.62 3.62 0 0 0-.883-2.354l-.098-.114.358-.276.088.103a4.06 4.06 0 0 1 .991 2.642c0 .96-.333 1.862-.963 2.61l-.088.103Z" fill="#fff"/></g><defs><clipPath id="a"><path fill="#fff" d="M0 0h24v24H0z"/></clipPath></defs></svg>