<svg class="color-immutable" width="24" height="24" viewBox="0 0 24 24" fill="none" xmlns="http://www.w3.org/2000/svg"><path d="M0 22.5V1.5C0 0.675 0.675 0 1.5 0H22.5C23.325 0 24 0.675 24 1.5V22.5C24 23.325 23.325 24 22.5 24H1.5C0.675 24 0 23.325 0 22.5Z" fill="#237F52"/><path d="M6.18303 5.701L6.17603 3.087L11.453 3.092L11.514 4.615L12.47 5.681L6.18303 5.701Z" fill="white"/><path d="M8.81898 9.63C6.23298 9.63 6.18298 6.277 6.18298 6.243V6.172L11.537 6.152L11.535 6.225C11.534 6.259 11.403 9.63 8.81898 9.63Z" fill="white"/><path d="M12.087 20.984H5.651V10.16H10.904C10.909 10.159 10.916 10.158 10.923 10.158H19.843C20.475 10.158 20.989 10.673 20.989 11.306C20.989 11.939 20.475 12.453 19.843 12.453H12.087V20.984Z" fill="white"/><path d="M5.118 20.984H2.995V12.845C2.995 10.633 5.013 10.208 5.034 10.204L5.119 10.187L5.118 20.984Z" fill="white"/><path d="M14.498 7.972L14.112 7.735L14.197 7.611C14.485 7.19 14.637 6.702 14.637 6.199C14.637 5.686 14.479 5.189 14.18 4.763L14.094 4.64L14.477 4.399L14.555 4.51C14.906 5.011 15.092 5.595 15.092 6.199C15.092 6.791 14.913 7.365 14.575 7.859L14.498 7.972Z" fill="white"/><path d="M15.404 8.453L15.035 8.191L15.128 8.073C15.563 7.522 15.793 6.867 15.793 6.178C15.793 5.495 15.567 4.845 15.139 4.298L15.046 4.179L15.416 3.919L15.5 4.026C15.989 4.652 16.247 5.396 16.247 6.178C16.247 6.967 15.984 7.717 15.487 8.346L15.404 8.453Z" fill="white"/><path d="M16.361 8.915L16 8.642L16.097 8.527C16.659 7.86 16.956 7.056 16.956 6.201C16.956 5.345 16.642 4.509 16.073 3.847L15.975 3.733L16.333 3.457L16.421 3.56C17.06 4.303 17.412 5.241 17.412 6.202C17.412 7.162 17.079 8.064 16.449 8.812L16.361 8.915Z" fill="white"/></svg>