<svg class="color-immutable" width="30" height="30" viewBox="0 0 30 30" fill="none" xmlns="http://www.w3.org/2000/svg"><g clip-path="url(#a)"><path d="M30 0H0v30h30V0Z" fill="#237F52"/><path d="M25.5 3c.825 0 1.5.675 1.5 1.5v21c0 .825-.675 1.5-1.5 1.5h-21c-.825 0-1.5-.675-1.5-1.5v-21C3 3.675 3.675 3 4.5 3h21Zm0-.375h-21A1.877 1.877 0 0 0 2.625 4.5v21c0 1.034.841 1.875 1.875 1.875h21a1.877 1.877 0 0 0 1.875-1.875v-21A1.877 1.877 0 0 0 25.5 2.625Z" fill="#fff"/><path d="M21.9 9a1.35 1.35 0 1 1 0 2.7 1.35 1.35 0 0 1 0-2.7Zm-9.528 9 5.87-5.871h-1.37l-1.927 1.928a.487.487 0 0 1-.829-.343c0-.13.051-.253.142-.343l2.044-2.042a.692.692 0 0 1 .49-.204h2.42c.957 0 1.732.777 1.732 1.732v2.424h1.973a.519.519 0 1 1 0 1.04H20.46a.52.52 0 0 1-.52-.52v-1.94l-2.277 2.279 2.075 2.075c.13.131.202.306.202.491V22.9a.693.693 0 1 1-1.385 0v-3.81l-2.608-2.606L14.43 18h-2.058Z" fill="#fff"/><path d="m19.5 17.448-1.125-1.125v-.367l1.125-1.125v2.617Z" fill="#fff"/><path d="M19.5 6v4.77a2.112 2.112 0 0 0-.288-.02h-.837V7.125H7.125v11.25h10.183l.871.87v.255H6V6h13.5Z" fill="#fff"/></g><defs><clipPath id="a"><path fill="#fff" d="M0 0h30v30H0z"/></clipPath></defs></svg>