<svg class="color-immutable" width="24" height="24" viewBox="0 0 24 24" fill="none" xmlns="http://www.w3.org/2000/svg"><path d="M0 22.5V1.5C0 0.675 0.675 0 1.5 0H22.5C23.325 0 24 0.675 24 1.5V22.5C24 23.325 23.325 24 22.5 24H1.5C0.675 24 0 23.325 0 22.5Z" fill="#237F52"/><path d="M15.375 3C15.169 3 15 3.169 15 3.375V4.313H9V3.375C9 3.169 8.831 3 8.625 3C8.419 3 8.25 3.169 8.25 3.375V20.625C8.25 20.831 8.419 21 8.625 21C8.831 21 9 20.831 9 20.625V19.687H15V20.625C15 20.831 15.169 21 15.375 21C15.581 21 15.75 20.831 15.75 20.625V3.375C15.75 3.169 15.581 3 15.375 3ZM15 19.312H9V16.687H15V19.312ZM15 16.312H9V13.687H15V16.312ZM15 13.312H9V10.687H15V13.312ZM15 10.312H9V7.688H15V10.312ZM15 7.312H9V4.688H15V7.312Z" fill="white"/></svg>