<svg class="color-immutable" width="30" height="30" viewBox="0 0 30 30" fill="none" xmlns="http://www.w3.org/2000/svg"><path d="M30 0H0v30h30V0Z" fill="#2D327D"/><path d="M25.5 3c.825 0 1.5.675 1.5 1.5v21c0 .825-.675 1.5-1.5 1.5h-21c-.825 0-1.5-.675-1.5-1.5v-21C3 3.675 3.675 3 4.5 3h21Zm0-.375h-21A1.877 1.877 0 0 0 2.625 4.5v21c0 1.034.841 1.875 1.875 1.875h21a1.877 1.877 0 0 0 1.875-1.875v-21A1.877 1.877 0 0 0 25.5 2.625Z" fill="#fff"/><path d="M16.093 7.978a.975.975 0 1 0-.001-1.95.975.975 0 0 0 0 1.95ZM12.332 10.405a.975.975 0 1 0 0-1.95.975.975 0 0 0 0 1.95ZM8.571 10.943a.975.975 0 1 0 0 1.95.975.975 0 0 0 0-1.95ZM14.15 11.382a.582.582 0 0 0 1.087.414l.699-1.833.35.134-.314.823 1.278-.841v-.636a1.14 1.14 0 0 0-2.205-.406l-.894 2.345ZM10.4 13.852a.581.581 0 0 0 1.086.414l.7-1.833.35.134-.314.823 1.278-.841v-.636a1.14 1.14 0 0 0-2.205-.406l-.894 2.345ZM9.75 15.019v-.636a1.14 1.14 0 0 0-2.205-.406l-.894 2.345a.582.582 0 0 0 1.086.414l.699-1.833.35.133-.314.824 1.278-.841ZM21.375 15.75a2.626 2.626 0 0 0 0-5.25H18.38c-.22 0-.436.064-.62.185L6 18.432V24l12.525-8.25h2.85Z" fill="#fff"/></svg>