<svg class="color-immutable" width="30" height="30" viewBox="0 0 30 30" fill="none" xmlns="http://www.w3.org/2000/svg"><path d="M30 0H0v30h30V0Z" fill="#2D327D"/><path d="M25.5 3c.825 0 1.5.675 1.5 1.5v21c0 .825-.675 1.5-1.5 1.5h-21c-.825 0-1.5-.675-1.5-1.5v-21C3 3.675 3.675 3 4.5 3h21Zm0-.375h-21A1.877 1.877 0 0 0 2.625 4.5v21c0 1.034.841 1.875 1.875 1.875h21a1.877 1.877 0 0 0 1.875-1.875v-21A1.877 1.877 0 0 0 25.5 2.625Z" fill="#fff"/><path d="M13.907 7.978a.975.975 0 1 1 .001-1.95.975.975 0 0 1 0 1.95ZM17.668 10.405a.975.975 0 1 1 0-1.95.975.975 0 0 1 0 1.95ZM21.429 10.943a.975.975 0 1 1-.001 1.95.975.975 0 0 1 0-1.95ZM15.85 11.382a.582.582 0 0 1-1.087.414l-.7-1.833-.35.134.315.823-1.278-.841v-.636a1.14 1.14 0 0 1 2.205-.406l.894 2.345ZM19.6 13.852a.58.58 0 0 1-.544.788.581.581 0 0 1-.543-.374l-.699-1.833-.35.134.314.823-1.278-.841v-.636a1.14 1.14 0 0 1 2.205-.406l.894 2.345ZM20.25 15.019v-.636a1.14 1.14 0 0 1 2.205-.406l.894 2.345a.582.582 0 0 1-1.086.414l-.699-1.833-.35.133.314.824-1.278-.841ZM8.625 15.75a2.626 2.626 0 0 1 0-5.25h2.995c.22 0 .436.064.62.185L24 18.432V24l-12.525-8.25h-2.85Z" fill="#fff"/></svg>