<svg class="color-immutable" width="24" height="24" viewBox="0 0 24 24" fill="none" xmlns="http://www.w3.org/2000/svg"><path d="M0 22.5V1.5C0 0.675 0.675 0 1.5 0H22.5C23.325 0 24 0.675 24 1.5V22.5C24 23.325 23.325 24 22.5 24H1.5C0.675 24 0 23.325 0 22.5Z" fill="#2D327D"/><path d="M15.375 14.787V12.297C15.375 11.655 14.854 11.134 14.213 11.134C14.038 11.134 13.865 11.174 13.707 11.25L11.564 12.286L12.697 13.03L14.149 12.328L14.296 12.632L13.026 13.246L15.375 14.787Z" fill="white"/><path d="M11.25 12.08V9.59C11.25 8.948 10.729 8.428 10.087 8.428C9.91203 8.428 9.73903 8.468 9.58103 8.544L7.43903 9.579L8.57203 10.323L10.024 9.621L10.171 9.925L8.90103 10.539L11.25 12.08Z" fill="white"/><path d="M18.375 21C19.824 21 21 19.824 21 18.375C21 16.926 19.824 15.75 18.375 15.75H15.811C15.592 15.75 15.377 15.686 15.194 15.566L3 7.563V13.125L15 21H18.375Z" fill="white"/><path d="M7.12503 9.373V6.883C7.12503 6.241 6.60403 5.721 5.96203 5.721C5.78703 5.721 5.61403 5.761 5.45603 5.837L3.31403 6.872L4.44703 7.616L5.89903 6.914L6.04603 7.218L4.77603 7.832L7.12503 9.373Z" fill="white"/><path d="M6.942 4.488C6.942 3.95 6.505 3.513 5.967 3.513C5.429 3.513 4.992 3.95 4.992 4.488C4.992 5.026 5.429 5.463 5.967 5.463C6.505 5.463 6.942 5.027 6.942 4.488Z" fill="white"/><path d="M11.066 7.158C11.066 6.62 10.629 6.183 10.091 6.183C9.55303 6.183 9.11603 6.62 9.11603 7.158C9.11603 7.696 9.55303 8.133 10.091 8.133C10.63 8.133 11.066 7.696 11.066 7.158Z" fill="white"/><path d="M15.191 9.828C15.191 9.29 14.754 8.853 14.216 8.853C13.678 8.853 13.241 9.29 13.241 9.828C13.241 10.366 13.678 10.803 14.216 10.803C14.754 10.803 15.191 10.366 15.191 9.828Z" fill="white"/></svg>