<svg class="color-immutable" width="30" height="30" viewBox="0 0 30 30" fill="none" xmlns="http://www.w3.org/2000/svg"><path d="M30 0H0V30H30V0Z" fill="#237F52"/><path d="M25.5 3C26.325 3 27 3.675 27 4.5V25.5C27 26.325 26.325 27 25.5 27H4.5C3.675 27 3 26.325 3 25.5V4.5C3 3.675 3.675 3 4.5 3H25.5ZM25.5 2.625H4.5C3.46613 2.625 2.625 3.46613 2.625 4.5V25.5C2.625 26.5339 3.46613 27.375 4.5 27.375H25.5C26.5339 27.375 27.375 26.5339 27.375 25.5V4.5C27.375 3.46613 26.5339 2.625 25.5 2.625Z" fill="white"/><path d="M18.375 6C18.1688 6 18 6.16875 18 6.375V7.3125H12V6.375C12 6.16875 11.8313 6 11.625 6C11.4188 6 11.25 6.16875 11.25 6.375V23.625C11.25 23.8313 11.4188 24 11.625 24C11.8313 24 12 23.8313 12 23.625V22.6875H18V23.625C18 23.8313 18.1688 24 18.375 24C18.5813 24 18.75 23.8313 18.75 23.625V6.375C18.75 6.16875 18.5813 6 18.375 6ZM18 22.3125H12V19.6875H18V22.3125ZM18 19.3125H12V16.6875H18V19.3125ZM18 16.3125H12V13.6875H18V16.3125ZM18 13.3125H12V10.6875H18V13.3125ZM18 10.3125H12V7.6875H18V10.3125Z" fill="white"/></svg>