<svg class="color-immutable" width="24" height="24" viewBox="0 0 24 24" fill="none" xmlns="http://www.w3.org/2000/svg"><g clip-path="url(#a)"><path d="M0 22.5v-21C0 .675.675 0 1.5 0h21c.825 0 1.5.675 1.5 1.5v21c0 .825-.675 1.5-1.5 1.5h-21C.675 24 0 23.325 0 22.5Z" fill="#2D327D"/><path d="M3.411 21h17.177c.27 0 .453-.278.344-.525a9.79 9.79 0 0 0-4.793-4.916.379.379 0 0 0-.342.015 7.825 7.825 0 0 1-3.798.971 7.825 7.825 0 0 1-3.798-.971.373.373 0 0 0-.342-.015 9.79 9.79 0 0 0-4.793 4.916.376.376 0 0 0 .345.525Z" fill="#fff"/><path d="M21 6a3 3 0 0 0-5.393-1.809A7.323 7.323 0 0 0 12 3.256a7.323 7.323 0 0 0-3.607.935 3 3 0 1 0-3.263 4.68 6.001 6.001 0 0 0-.051.774c0 3.529 3.098 6.389 6.921 6.389 3.822 0 6.921-2.86 6.921-6.389 0-.262-.017-.52-.051-.773A3.003 3.003 0 0 0 21 6ZM9.063 10.974a.797.797 0 1 1 0-1.594.797.797 0 0 1 0 1.594Zm3.685 3.051a1.56 1.56 0 0 1-.748-.178 1.56 1.56 0 0 1-.748.178c-.637 0-1.132-.466-1.132-.866a.166.166 0 1 1 .332 0c0 .21.343.534.8.534.218 0 .429-.049.582-.134v-.962c-.434-.056-.764-.327-.764-.653 0-.367.416-.664.93-.664s.93.297.93.664c0 .326-.33.597-.764.653v.962c.153.085.364.134.582.134.456 0 .8-.324.8-.534a.166.166 0 1 1 .332 0c0 .401-.495.866-1.132.866Zm2.189-3.051a.797.797 0 1 1 0-1.594.797.797 0 0 1 0 1.594Z" fill="#fff"/></g><defs><clipPath id="a"><path fill="#fff" d="M0 0h24v24H0z"/></clipPath></defs></svg>