<svg class="color-immutable" width="30" height="30" viewBox="0 0 30 30" fill="none" xmlns="http://www.w3.org/2000/svg"><g clip-path="url(#a)"><path d="M0 0h30v30H0V0Z" fill="#2D327D"/><path d="M25.5 3c.825 0 1.5.675 1.5 1.5v21c0 .825-.675 1.5-1.5 1.5h-21c-.825 0-1.5-.675-1.5-1.5v-21C3 3.675 3.675 3 4.5 3h21Zm0-.375h-21A1.877 1.877 0 0 0 2.625 4.5v21c0 1.034.841 1.875 1.875 1.875h21a1.877 1.877 0 0 0 1.875-1.875v-21A1.877 1.877 0 0 0 25.5 2.625Z" fill="#fff"/><path d="M6.375 20.145a.37.37 0 0 0 .09-.012l17.25-4.312a.375.375 0 0 0 .285-.364v-8.61a.825.825 0 0 0-1.03-.8l-16.349 4.17a.825.825 0 0 0-.621.8v8.753c0 .207.168.375.375.375Zm13.313-12.12c0-.207.167-.375.374-.375h2.813c.207 0 .375.168.375.375v4.5a.375.375 0 0 1-.375.375h-2.813a.375.375 0 0 1-.374-.375v-4.5Zm-4.313 1.102c0-.207.168-.376.375-.376h2.813c.207 0 .375.169.375.376v4.5a.375.375 0 0 1-.375.374H15.75a.375.375 0 0 1-.375-.374v-4.5Zm-4.313 1.098c0-.207.168-.375.376-.375h2.812c.207 0 .375.168.375.375v4.5a.375.375 0 0 1-.375.375h-2.813a.375.375 0 0 1-.375-.375v-4.5Zm-4.312 1.1c0-.207.168-.375.375-.375h2.812c.207 0 .376.168.376.375v4.5a.375.375 0 0 1-.376.375H7.125a.375.375 0 0 1-.375-.375v-4.5ZM24 18.727l-18 4.5V24l18-4.5v-.773ZM10.178 20.398a1.088 1.088 0 1 0 2.177 0 1.088 1.088 0 0 0-2.177 0ZM7.473 21.131a1.088 1.088 0 1 0 2.176 0 1.088 1.088 0 0 0-2.176 0ZM17.618 18.538a1.088 1.088 0 1 0 2.176 0 1.088 1.088 0 0 0-2.176 0ZM20.38 17.861a1.088 1.088 0 1 0 2.176 0 1.088 1.088 0 0 0-2.176 0Z" fill="#fff"/></g><defs><clipPath id="a"><path fill="#fff" d="M0 0h30v30H0z"/></clipPath></defs></svg>