<svg class="color-immutable" width="24" height="24" viewBox="0 0 24 24" fill="none" xmlns="http://www.w3.org/2000/svg"><g clip-path="url(#a)"><path d="M0 22.5v-21C0 .675.675 0 1.5 0h21c.825 0 1.5.675 1.5 1.5v21c0 .825-.675 1.5-1.5 1.5h-21C.675 24 0 23.325 0 22.5Z" fill="#2D327D"/><path d="M20.625 17.145A.375.375 0 0 0 21 16.77V8.017a.825.825 0 0 0-.621-.799l-16.35-4.17A.825.825 0 0 0 3 3.847v8.611c0 .172.117.322.284.364l17.25 4.312c.03.007.06.011.091.011ZM7.312 5.025v4.5a.375.375 0 0 1-.375.375H4.125a.375.375 0 0 1-.375-.375v-4.5c0-.207.168-.375.375-.375h2.812c.207 0 .375.168.375.375Zm4.313 1.102v4.5a.375.375 0 0 1-.375.375H8.437a.375.375 0 0 1-.375-.375v-4.5c0-.207.168-.375.375-.375h2.812a.375.375 0 0 1 .376.375Zm4.312 1.098v4.5a.375.375 0 0 1-.375.375H12.75a.375.375 0 0 1-.375-.375v-4.5c0-.207.168-.375.375-.375h2.813c.207 0 .374.168.374.375Zm4.313 1.1v4.5a.375.375 0 0 1-.375.375h-2.812a.375.375 0 0 1-.375-.375v-4.5c0-.207.168-.375.375-.375h2.812c.207 0 .375.168.375.375ZM3 15.727l18 4.5V21L3 16.5v-.773ZM16.821 17.399a1.088 1.088 0 1 1-2.177-.001 1.088 1.088 0 0 1 2.177.001ZM19.527 18.131a1.088 1.088 0 1 1-2.177-.001 1.088 1.088 0 0 1 2.177.001ZM9.382 15.538a1.088 1.088 0 1 1-2.177-.001 1.088 1.088 0 0 1 2.177.001ZM6.62 14.861a1.088 1.088 0 1 1-2.177-.001 1.088 1.088 0 0 1 2.177.001Z" fill="#fff"/></g><defs><clipPath id="a"><path fill="#fff" d="M0 0h24v24H0z"/></clipPath></defs></svg>