<svg class="color-immutable" width="24" height="24" viewBox="0 0 24 24" fill="none" xmlns="http://www.w3.org/2000/svg"><g clip-path="url(#a)"><path d="M0 22.5v-21C0 .675.675 0 1.5 0h21c.825 0 1.5.675 1.5 1.5v21c0 .825-.675 1.5-1.5 1.5h-21C.675 24 0 23.325 0 22.5Z" fill="#2D327D"/><path d="M7.787 4.488a1.5 1.5 0 1 0-3.001.001 1.5 1.5 0 0 0 3.001-.001ZM3 7.875v5.091a.535.535 0 0 0 1.068 0V8.625h.469v11.606a.77.77 0 0 0 1.538 0v-6.75h.487v6.75a.77.77 0 0 0 1.538 0V8.625h.469v4.341a.534.534 0 0 0 1.069 0V7.875a1.5 1.5 0 0 0-1.5-1.5H4.5a1.5 1.5 0 0 0-1.5 1.5Z" fill="#fff"/></g><defs><clipPath id="a"><path fill="#fff" d="M0 0h24v24H0z"/></clipPath></defs></svg>