<svg class="color-immutable" width="30" height="30" viewBox="0 0 30 30" fill="none" xmlns="http://www.w3.org/2000/svg"><path d="M30 0H0v30h30V0Z" fill="#2D327D"/><path d="M25.5 3c.825 0 1.5.675 1.5 1.5v21c0 .825-.675 1.5-1.5 1.5h-21c-.825 0-1.5-.675-1.5-1.5v-21C3 3.675 3.675 3 4.5 3h21Zm0-.375h-21A1.877 1.877 0 0 0 2.625 4.5v21c0 1.034.841 1.875 1.875 1.875h21a1.877 1.877 0 0 0 1.875-1.875v-21A1.877 1.877 0 0 0 25.5 2.625Z" fill="#fff"/><path d="M10.787 7.488a1.5 1.5 0 1 0-3.001.002 1.5 1.5 0 0 0 3-.002ZM6 10.875v5.09a.534.534 0 0 0 1.068 0v-4.34h.47V23.23a.77.77 0 0 0 1.537 0v-6.75h.487v6.75a.77.77 0 0 0 1.538 0V11.625h.468v4.34a.534.534 0 0 0 1.07 0v-5.09a1.5 1.5 0 0 0-1.5-1.5H7.5a1.5 1.5 0 0 0-1.5 1.5Z" fill="#fff"/></svg>