<svg class="color-immutable" width="24" height="24" viewBox="0 0 24 24" fill="none" xmlns="http://www.w3.org/2000/svg"><g clip-path="url(#a)"><path d="M0 22.5v-21C0 .675.675 0 1.5 0h21c.825 0 1.5.675 1.5 1.5v21c0 .825-.675 1.5-1.5 1.5h-21C.675 24 0 23.325 0 22.5Z" fill="#2D327D"/><path d="M12.481 12.598h-1.278l-2.834 4.909a.75.75 0 0 0 .275 1.024l4.098 2.366a.75.75 0 0 0 1.025-.275l2.329-4.034-3.071-.23-.544-3.76Z" fill="#fff"/><path d="m20.883 4.012-1.688-.974a.28.28 0 0 0-.398.28l.001.006a.283.283 0 0 1-.189.297l-.043.012a.282.282 0 0 0-.171.131 2.779 2.779 0 0 0-.098.227.283.283 0 0 0 .101.314c-.179.259-1.364 1.976-1.956 3.002-.641 1.111-3.046 1.496-4.162 3.429l-.433.751h1.599l.552 3.83 2.715.203.963-1.668c1.116-1.934.247-4.208.889-5.319l-.002-.001c.592-1.025 1.487-2.909 1.622-3.195a.282.282 0 0 0 .325-.068c.013-.014.125-.16.148-.199a.279.279 0 0 0 .028-.214l-.011-.044a.281.281 0 0 1 .162-.312l.005-.002a.274.274 0 0 0 .126-.115.285.285 0 0 0-.085-.371Z" fill="#fff"/><path fill-rule="evenodd" clip-rule="evenodd" d="m4.079 9.117-.044-.076-.988-1.699a.293.293 0 0 1-.001-.317c.174-.295.345-.592.518-.888l.014-.026-.534-.315.001-.006h1.709c.019 0 .032.002.044.021a715.412 715.412 0 0 0 .876 1.505l-.542-.313a.295.295 0 0 0-.019.032l-.97 1.677a.492.492 0 0 0-.06.385c.002.006.001.012.002.019l-.006.001ZM9.072 4.072l.539-.311c-.007.016-.01.024-.015.031l-.84 1.464c-.008.015-.017.023-.036.023l-1.711.006-.025-.001c.182-.108.357-.21.535-.314l-.02-.035-.955-1.667a.489.489 0 0 0-.314-.253c-.004-.001-.007-.004-.018-.01h.04L8.185 3c.059 0 .118 0 .176.009.082.012.138.065.179.136l.522.912a.128.128 0 0 1 .01.015ZM7.88 9.948v.616l-.008.002-.014-.021-.841-1.46c-.009-.014-.013-.025-.003-.042l.857-1.494.009-.012v.622H9.849a.51.51 0 0 0 .372-.145L10.24 8a.856.856 0 0 0-.02.038l-.971 1.687c-.029.05-.058.1-.094.145-.049.06-.119.081-.194.081l-.518-.002h-.521l-.042-.001Z" fill="#fff"/><path fill-rule="evenodd" clip-rule="evenodd" d="M6.59 8.153v1.782h-.036c-.415 0-.83.01-1.244-.003-.374-.011-.658-.186-.818-.535a.82.82 0 0 1-.078-.47.409.409 0 0 1 .046-.142c.115-.204.234-.405.35-.607.011-.019.023-.025.045-.025H6.59ZM8.199 6.316l1.537-.89.02.031c.208.357.424.71.622 1.073a.877.877 0 0 1 .045.805.948.948 0 0 1-.39.442.464.464 0 0 1-.244.067 51.68 51.68 0 0 0-.682 0c-.018 0-.03-.003-.041-.021-.285-.497-.572-.993-.858-1.489l-.009-.018ZM4.258 4.77l.161-.283c.158-.279.311-.559.475-.834a.857.857 0 0 1 .629-.426.925.925 0 0 1 .615.115.461.461 0 0 1 .175.173l.344.593c.01.017.012.03.001.048-.283.493-.565.988-.847 1.482l-.014.023-1.539-.891Z" fill="#fff"/></g><defs><clipPath id="a"><path fill="#fff" d="M0 0h24v24H0z"/></clipPath></defs></svg>