<svg class="color-immutable" width="24" height="24" viewBox="0 0 24 24" fill="none" xmlns="http://www.w3.org/2000/svg"><path d="M0 22.5V1.5C0 0.675 0.675 0 1.5 0H22.5C23.325 0 24 0.675 24 1.5V22.5C24 23.325 23.325 24 22.5 24H1.5C0.675 24 0 23.325 0 22.5Z" fill="#2D327D"/><path d="M5.287 5.619L3 6V6.684L5.287 6.303V5.619Z" fill="white"/><path d="M6.71301 5.381V6.065L21 3.685V3L6.71301 5.381Z" fill="white"/><path d="M8.249 11.251H6.338V4.726H5.662V11.251H3.75C3.336 11.251 3 11.587 3 12.001V16.352C3 16.45 3.01 16.549 3.029 16.645L3.78 20.397C3.849 20.749 4.157 21 4.515 21H7.485C7.843 21 8.15 20.749 8.221 20.398L8.971 16.646C8.991 16.549 9 16.451 9 16.353V12.002C9 11.587 8.664 11.251 8.249 11.251ZM8.249 16.126C8.249 16.333 8.082 16.5 7.875 16.5H4.125C3.919 16.5 3.751 16.333 3.751 16.126V12.376C3.751 12.169 3.919 12.001 4.125 12.001H7.875C8.082 12.001 8.249 12.169 8.249 12.376V16.126Z" fill="white"/></svg>