<svg class="color-immutable" width="30" height="30" viewBox="0 0 30 30" fill="none" xmlns="http://www.w3.org/2000/svg"><g clip-path="url(#a)"><path d="M0 0h30v30H0V0Z" fill="#2D327D"/><path d="M25.5 3c.825 0 1.5.675 1.5 1.5v21c0 .825-.675 1.5-1.5 1.5h-21c-.825 0-1.5-.675-1.5-1.5v-21C3 3.675 3.675 3 4.5 3h21Zm0-.375h-21A1.877 1.877 0 0 0 2.625 4.5v21c0 1.034.841 1.875 1.875 1.875h21a1.877 1.877 0 0 0 1.875-1.875v-21A1.877 1.877 0 0 0 25.5 2.625Z" fill="#fff"/><path d="M8.287 8.619 6 9v.684l2.287-.38v-.685ZM9.713 8.381v.684L24 6.685V6L9.713 8.38Z" fill="#fff"/><path d="M11.25 14.251H9.337V7.726h-.676v6.525H6.75a.75.75 0 0 0-.75.75v4.351c0 .099.01.197.029.294l.75 3.752c.07.35.378.602.736.602h2.97a.75.75 0 0 0 .736-.602l.75-3.752c.02-.097.029-.195.029-.294v-4.35a.75.75 0 0 0-.75-.75Zm0 4.875a.374.374 0 0 1-.375.374h-3.75a.374.374 0 0 1-.374-.374v-3.75c0-.207.168-.375.374-.375h3.75c.207 0 .374.168.374.375v3.75Z" fill="#fff"/></g><defs><clipPath id="a"><path fill="#fff" d="M0 0h30v30H0z"/></clipPath></defs></svg>