<svg class="color-immutable" width="24" height="24" viewBox="0 0 24 24" fill="none" xmlns="http://www.w3.org/2000/svg"><g clip-path="url(#a)"><path d="M0 22.5v-21C0 .675.675 0 1.5 0h21c.825 0 1.5.675 1.5 1.5v21c0 .825-.675 1.5-1.5 1.5h-21C.675 24 0 23.325 0 22.5Z" fill="#2D327D"/><path d="M18.713 5.619 21 6v.684l-2.287-.381v-.684ZM17.288 5.381v.685L3 3.685V3l14.288 2.381Z" fill="#fff"/><path d="M15.751 11.251a.751.751 0 0 0-.751.75v4.351c0 .098.009.197.03.293l.75 3.752c.07.352.377.603.735.603h2.97a.749.749 0 0 0 .736-.602l.751-3.752c.018-.097.028-.195.028-.293v-4.351a.75.75 0 0 0-.75-.75h-1.913V4.726h-.675v6.525h-1.911Zm0 4.875v-3.75c0-.207.167-.375.374-.375h3.75c.206 0 .374.168.374.375v3.75a.374.374 0 0 1-.374.374h-3.75a.373.373 0 0 1-.374-.374Z" fill="#fff"/></g><defs><clipPath id="a"><path fill="#fff" d="M0 0h24v24H0z"/></clipPath></defs></svg>