<svg class="color-immutable" width="30" height="30" viewBox="0 0 30 30" fill="none" xmlns="http://www.w3.org/2000/svg"><g clip-path="url(#a)"><path d="M30 0H0v30h30V0Z" fill="#2D327D"/><path d="M25.5 3c.825 0 1.5.675 1.5 1.5v21c0 .825-.675 1.5-1.5 1.5h-21c-.825 0-1.5-.675-1.5-1.5v-21C3 3.675 3.675 3 4.5 3h21Zm0-.375h-21A1.877 1.877 0 0 0 2.625 4.5v21c0 1.034.841 1.875 1.875 1.875h21a1.877 1.877 0 0 0 1.875-1.875v-21A1.877 1.877 0 0 0 25.5 2.625Z" fill="#fff"/><path d="M21.713 8.619 24 9v.684l-2.287-.38v-.685ZM20.288 8.381v.685L6 6.686V6l14.288 2.381Z" fill="#fff"/><path d="M18.75 14.251a.75.75 0 0 0-.75.75v4.351c0 .099.01.197.03.294l.75 3.752a.75.75 0 0 0 .735.602h2.97a.749.749 0 0 0 .736-.602l.75-3.752c.019-.097.029-.195.029-.294v-4.35a.75.75 0 0 0-.75-.75h-1.913V7.725h-.675v6.525h-1.911Zm0 4.875v-3.75c0-.207.168-.375.375-.375h3.75c.206 0 .375.168.375.375v3.75a.374.374 0 0 1-.375.374h-3.75a.374.374 0 0 1-.374-.374Z" fill="#fff"/></g><defs><clipPath id="a"><path fill="#fff" d="M0 0h30v30H0z"/></clipPath></defs></svg>