<svg class="color-immutable" width="24" height="24" viewBox="0 0 24 24" fill="none" xmlns="http://www.w3.org/2000/svg"><path d="M0 22.5V1.5C0 0.675 0.675 0 1.5 0H22.5C23.325 0 24 0.675 24 1.5V22.5C24 23.325 23.325 24 22.5 24H1.5C0.675 24 0 23.325 0 22.5Z" fill="#2D327D"/><path d="M7.21302 9.27599V7.21199H9.27702V5.06299H7.21302V2.99899H5.06302V5.06299H2.99902V7.21199H5.06302V9.27599H7.21302Z" fill="white"/><path d="M6.70557 16.1183L5.16479 17.6591L8.50584 21.0002L10.0466 19.4594L6.70557 16.1183Z" fill="white"/><path d="M18.832 14.021L17.39 15.463V15.464C17.392 15.482 17.394 15.501 17.396 15.52C17.399 15.551 17.401 15.583 17.401 15.615C17.401 16.278 16.864 16.815 16.201 16.815H12.751V16.44H16.201C16.657 16.44 17.026 16.071 17.026 15.615C17.026 15.16 16.655 14.792 16.201 14.79H13.899C13.435 14.79 13.14 14.655 12.863 14.515C12.847 14.507 12.831 14.499 12.815 14.491L12.756 14.461C12.726 14.445 12.695 14.431 12.665 14.416C12.131 14.147 11.539 14.096 10.942 14.096C9.909 14.096 9.145 14.408 8.423 15.14L7.336 16.222L9.937 18.823L10.441 18.317L16.205 18.312C16.64 18.312 17.032 18.148 17.331 17.878L17.972 17.247L20.876 14.343L20.973 14.246C21.219 13.922 19.771 13.082 18.832 14.021Z" fill="white"/><path d="M13.42 7.497C13.434 7.499 13.448 7.5 13.462 7.5C13.609 7.5 13.737 7.392 13.759 7.243C13.782 7.079 13.669 6.927 13.505 6.903C13.341 6.88 13.189 6.993 13.165 7.157C13.142 7.321 13.255 7.473 13.42 7.497Z" fill="white"/><path d="M13.701 5.54698C13.715 5.54898 13.73 5.54998 13.745 5.54998C13.891 5.54998 14.02 5.44198 14.041 5.29298C14.064 5.12898 13.951 4.97698 13.787 4.95298C13.623 4.92998 13.471 5.04298 13.447 5.20698C13.423 5.37098 13.537 5.52298 13.701 5.54698Z" fill="white"/><path d="M13.138 9.44701C13.152 9.44901 13.167 9.45001 13.181 9.45001C13.328 9.45001 13.456 9.34201 13.478 9.19301C13.501 9.02901 13.388 8.87701 13.224 8.85301C13.06 8.83001 12.908 8.94301 12.884 9.10701C12.861 9.27101 12.974 9.42301 13.138 9.44701Z" fill="white"/><path d="M16.085 6.90299C15.921 6.92499 15.805 7.07499 15.828 7.23999C15.848 7.39099 15.976 7.49999 16.124 7.49999C16.138 7.49999 16.151 7.49899 16.165 7.49699C16.329 7.47499 16.445 7.32399 16.422 7.15999C16.4 6.99599 16.249 6.87999 16.085 6.90299Z" fill="white"/><path d="M15.823 4.95298C15.659 4.97498 15.543 5.12498 15.566 5.28998C15.586 5.44098 15.714 5.54998 15.863 5.54998C15.876 5.54998 15.889 5.54898 15.903 5.54698C16.067 5.52498 16.183 5.37398 16.16 5.20998C16.138 5.04598 15.987 4.92998 15.823 4.95298Z" fill="white"/><path d="M16.348 8.85301C16.184 8.87501 16.068 9.02501 16.091 9.19001C16.111 9.34101 16.239 9.45001 16.387 9.45001C16.401 9.45001 16.414 9.44901 16.428 9.44701C16.592 9.42501 16.708 9.27401 16.685 9.11001C16.663 8.94601 16.512 8.83001 16.348 8.85301Z" fill="white"/><path d="M14.775 10.463C14.9407 10.463 15.075 10.3287 15.075 10.163C15.075 9.99732 14.9407 9.86301 14.775 9.86301C14.6094 9.86301 14.475 9.99732 14.475 10.163C14.475 10.3287 14.6094 10.463 14.775 10.463Z" fill="white"/><path d="M14.775 6.63998C14.9407 6.63998 15.075 6.50566 15.075 6.33998C15.075 6.17429 14.9407 6.03998 14.775 6.03998C14.6094 6.03998 14.475 6.17429 14.475 6.33998C14.475 6.50566 14.6094 6.63998 14.775 6.63998Z" fill="white"/><path d="M14.775 8.552C14.9407 8.552 15.075 8.41768 15.075 8.252C15.075 8.08631 14.9407 7.952 14.775 7.952C14.6094 7.952 14.475 8.08631 14.475 8.252C14.475 8.41768 14.6094 8.552 14.775 8.552Z" fill="white"/><path d="M15.6 3.6C15.7657 3.6 15.9 3.46569 15.9 3.3C15.9 3.13431 15.7657 3 15.6 3C15.4344 3 15.3 3.13431 15.3 3.3C15.3 3.46569 15.4344 3.6 15.6 3.6Z" fill="white"/><path d="M14.025 3.6C14.1907 3.6 14.325 3.46569 14.325 3.3C14.325 3.13431 14.1907 3 14.025 3C13.8594 3 13.725 3.13431 13.725 3.3C13.725 3.46569 13.8594 3.6 14.025 3.6Z" fill="white"/><path d="M14.775 4.725C14.9407 4.725 15.075 4.59069 15.075 4.425C15.075 4.25931 14.9407 4.125 14.775 4.125C14.6094 4.125 14.475 4.25931 14.475 4.425C14.475 4.59069 14.6094 4.725 14.775 4.725Z" fill="white"/><path d="M12.9 11.4C13.0657 11.4 13.2 11.2657 13.2 11.1C13.2 10.9343 13.0657 10.8 12.9 10.8C12.7344 10.8 12.6 10.9343 12.6 11.1C12.6 11.2657 12.7344 11.4 12.9 11.4Z" fill="white"/><path d="M14.775 12.375C14.9407 12.375 15.075 12.2407 15.075 12.075C15.075 11.9093 14.9407 11.775 14.775 11.775C14.6094 11.775 14.475 11.9093 14.475 12.075C14.475 12.2407 14.6094 12.375 14.775 12.375Z" fill="white"/><path d="M16.65 11.4C16.8157 11.4 16.95 11.2657 16.95 11.1C16.95 10.9343 16.8157 10.8 16.65 10.8C16.4844 10.8 16.35 10.9343 16.35 11.1C16.35 11.2657 16.4844 11.4 16.65 11.4Z" fill="white"/></svg>