<svg class="color-immutable" width="24" height="24" viewBox="0 0 24 24" fill="none" xmlns="http://www.w3.org/2000/svg"><g clip-path="url(#a)"><path d="M0 22.5v-21C0 .675.675 0 1.5 0h21c.825 0 1.5.675 1.5 1.5v21c0 .825-.675 1.5-1.5 1.5h-21C.675 24 0 23.325 0 22.5Z" fill="#2D327D"/><path d="M7.213 9.276V7.212h2.064V5.063H7.213V2.999h-2.15v2.064H2.999v2.149h2.064v2.064h2.15ZM6.706 16.118 5.165 17.66 8.505 21l1.542-1.54-3.341-3.342ZM18.832 14.021l-1.442 1.442v.001l.006.056a1.2 1.2 0 0 1-1.195 1.295h-3.45v-.375h3.45a.825.825 0 1 0 0-1.65h-2.302c-.464 0-.759-.135-1.036-.275l-.048-.024-.059-.03c-.03-.016-.061-.03-.091-.045-.534-.269-1.126-.32-1.723-.32-1.033 0-1.797.312-2.519 1.044l-1.087 1.082 2.601 2.601.504-.506 5.764-.005a1.67 1.67 0 0 0 1.126-.434l.641-.631 2.904-2.904.097-.097c.246-.324-1.202-1.164-2.141-.225ZM13.42 7.497a.3.3 0 0 0 .339-.254.3.3 0 0 0-.594-.086.3.3 0 0 0 .255.34ZM13.701 5.547a.3.3 0 1 0 .086-.594.3.3 0 0 0-.086.594ZM13.138 9.447a.3.3 0 0 0 .34-.254.3.3 0 0 0-.594-.086.3.3 0 0 0 .254.34ZM16.085 6.903a.298.298 0 0 0-.257.337.299.299 0 0 0 .337.257.299.299 0 1 0-.08-.594ZM15.823 4.953a.298.298 0 0 0-.257.337.299.299 0 0 0 .337.257.299.299 0 1 0-.08-.594ZM16.348 8.853a.298.298 0 0 0-.257.337.299.299 0 0 0 .337.257.299.299 0 1 0-.08-.594ZM14.775 10.463a.3.3 0 1 0 0-.6.3.3 0 0 0 0 .6ZM14.775 6.64a.3.3 0 1 0 0-.6.3.3 0 0 0 0 .6ZM14.775 8.552a.3.3 0 1 0 0-.6.3.3 0 0 0 0 .6ZM15.6 3.6a.3.3 0 1 0 0-.6.3.3 0 0 0 0 .6ZM14.025 3.6a.3.3 0 1 0 0-.6.3.3 0 0 0 0 .6ZM14.775 4.725a.3.3 0 1 0 0-.6.3.3 0 0 0 0 .6ZM12.9 11.4a.3.3 0 1 0 0-.6.3.3 0 0 0 0 .6ZM14.775 12.375a.3.3 0 1 0 0-.6.3.3 0 0 0 0 .6ZM16.65 11.4a.3.3 0 1 0 0-.6.3.3 0 0 0 0 .6Z" fill="#fff"/></g><defs><clipPath id="a"><path fill="#fff" d="M0 0h24v24H0z"/></clipPath></defs></svg>