<svg class="color-immutable" width="30" height="30" viewBox="0 0 30 30" fill="none" xmlns="http://www.w3.org/2000/svg"><path d="M30.0021 0H0.0020752V30H30.0021V0Z" fill="#2D327D"/><path d="M25.5021 3C26.3271 3 27.0021 3.675 27.0021 4.5V25.5C27.0021 26.325 26.3271 27 25.5021 27H4.50208C3.67708 27 3.00208 26.325 3.00208 25.5V4.5C3.00208 3.675 3.67708 3 4.50208 3H25.5021ZM25.5021 2.625H4.50208C3.4682 2.625 2.62708 3.46613 2.62708 4.5V25.5C2.62708 26.5339 3.4682 27.375 4.50208 27.375H25.5021C26.536 27.375 27.3771 26.5339 27.3771 25.5V4.5C27.3771 3.46613 26.536 2.625 25.5021 2.625Z" fill="white"/><path d="M10.213 12.276V10.2125H12.2765V8.06251H10.213V5.99896H8.06294V8.06251H5.99939V10.2125H8.06294V12.276H10.213Z" fill="white"/><path d="M9.7052 19.1179L8.16418 20.6589L11.5052 23.9999L13.0462 22.4589L9.7052 19.1179Z" fill="white"/><path d="M21.8316 17.0214L20.3894 18.4637C20.3894 18.464 20.3894 18.4645 20.3894 18.4649C20.3918 18.4833 20.3936 18.5018 20.3951 18.5206C20.3979 18.5518 20.3999 18.5832 20.3999 18.6152C20.3999 19.2779 19.8627 19.8152 19.1999 19.8152H15.7499V19.4402H19.1999C19.6556 19.4402 20.0249 19.0708 20.0249 18.6152C20.0249 18.1606 19.6541 17.7919 19.1999 17.7902H16.8977C16.4339 17.7902 16.1385 17.6555 15.8615 17.5151C15.8455 17.507 15.8295 17.4989 15.8136 17.4907L15.7543 17.4605C15.7244 17.4444 15.6936 17.4304 15.6634 17.4152C15.129 17.1459 14.5376 17.0952 13.9402 17.0952C12.9072 17.0952 12.1429 17.4071 11.4209 18.1397L10.3341 19.2216L12.9353 21.8228L13.4395 21.3165L19.2035 21.3114C19.6385 21.3114 20.03 21.147 20.3296 20.8771L20.9705 20.2465L23.8747 17.3423L23.972 17.2451C24.219 16.9221 22.7708 16.0823 21.8316 17.0214Z" fill="white"/><path d="M16.4198 10.497C16.434 10.4992 16.4483 10.5 16.4625 10.5C16.6095 10.5 16.7378 10.392 16.7595 10.2427C16.7828 10.0785 16.6695 9.92699 16.5053 9.90299C16.341 9.87974 16.1895 9.99299 16.1655 10.1572C16.1423 10.3215 16.2555 10.473 16.4198 10.497Z" fill="white"/><path d="M16.701 8.54701C16.7153 8.54926 16.7303 8.55001 16.7445 8.55001C16.8908 8.55001 17.019 8.44201 17.0408 8.29276C17.064 8.12851 16.9508 7.97701 16.7865 7.95301C16.623 7.92976 16.4708 8.04301 16.4468 8.20726C16.4235 8.37151 16.5368 8.52301 16.701 8.54701Z" fill="white"/><path d="M16.1385 12.447C16.1528 12.4493 16.167 12.45 16.1813 12.45C16.3283 12.45 16.4565 12.342 16.4783 12.1928C16.5015 12.0293 16.3883 11.877 16.224 11.853C16.0598 11.8298 15.9083 11.943 15.8843 12.1073C15.861 12.2708 15.9743 12.423 16.1385 12.447Z" fill="white"/><path d="M19.0852 9.90301C18.921 9.92476 18.8055 10.0755 18.828 10.2398C18.8482 10.3905 18.9765 10.5 19.1242 10.5C19.1377 10.5 19.1512 10.4993 19.1647 10.497C19.329 10.4753 19.4445 10.3245 19.422 10.1603C19.4002 9.99601 19.2495 9.88051 19.0852 9.90301Z" fill="white"/><path d="M18.8227 7.953C18.6584 7.97475 18.5429 8.1255 18.5654 8.28975C18.5857 8.4405 18.7139 8.55 18.8624 8.55C18.8752 8.55 18.8887 8.54925 18.9022 8.547C19.0664 8.52525 19.1819 8.3745 19.1594 8.21025C19.1377 8.046 18.9869 7.9305 18.8227 7.953Z" fill="white"/><path d="M19.3477 11.853C19.1834 11.8747 19.0679 12.0255 19.0904 12.1897C19.1107 12.3405 19.2389 12.45 19.3867 12.45C19.4002 12.45 19.4137 12.4492 19.4272 12.447C19.5914 12.4252 19.7069 12.2745 19.6844 12.1102C19.6627 11.946 19.5119 11.8305 19.3477 11.853Z" fill="white"/><path d="M17.775 13.4633C17.9407 13.4633 18.075 13.3289 18.075 13.1633C18.075 12.9976 17.9407 12.8633 17.775 12.8633C17.6093 12.8633 17.475 12.9976 17.475 13.1633C17.475 13.3289 17.6093 13.4633 17.775 13.4633Z" fill="white"/><path d="M17.775 9.63976C17.9407 9.63976 18.075 9.50545 18.075 9.33976C18.075 9.17408 17.9407 9.03976 17.775 9.03976C17.6093 9.03976 17.475 9.17408 17.475 9.33976C17.475 9.50545 17.6093 9.63976 17.775 9.63976Z" fill="white"/><path d="M17.775 11.5515C17.9407 11.5515 18.075 11.4172 18.075 11.2515C18.075 11.0858 17.9407 10.9515 17.775 10.9515C17.6093 10.9515 17.475 11.0858 17.475 11.2515C17.475 11.4172 17.6093 11.5515 17.775 11.5515Z" fill="white"/><path d="M18.5999 6.6C18.7656 6.6 18.8999 6.46569 18.8999 6.3C18.8999 6.13431 18.7656 6 18.5999 6C18.4342 6 18.2999 6.13431 18.2999 6.3C18.2999 6.46569 18.4342 6.6 18.5999 6.6Z" fill="white"/><path d="M17.025 6.6C17.1907 6.6 17.325 6.46569 17.325 6.3C17.325 6.13431 17.1907 6 17.025 6C16.8593 6 16.725 6.13431 16.725 6.3C16.725 6.46569 16.8593 6.6 17.025 6.6Z" fill="white"/><path d="M17.775 7.725C17.9407 7.725 18.075 7.59069 18.075 7.425C18.075 7.25931 17.9407 7.125 17.775 7.125C17.6093 7.125 17.475 7.25931 17.475 7.425C17.475 7.59069 17.6093 7.725 17.775 7.725Z" fill="white"/><path d="M15.9 14.4C16.0657 14.4 16.2 14.2657 16.2 14.1C16.2 13.9343 16.0657 13.8 15.9 13.8C15.7343 13.8 15.6 13.9343 15.6 14.1C15.6 14.2657 15.7343 14.4 15.9 14.4Z" fill="white"/><path d="M17.775 15.375C17.9407 15.375 18.075 15.2407 18.075 15.075C18.075 14.9093 17.9407 14.775 17.775 14.775C17.6093 14.775 17.475 14.9093 17.475 15.075C17.475 15.2407 17.6093 15.375 17.775 15.375Z" fill="white"/><path d="M19.65 14.4C19.8157 14.4 19.95 14.2657 19.95 14.1C19.95 13.9343 19.8157 13.8 19.65 13.8C19.4843 13.8 19.35 13.9343 19.35 14.1C19.35 14.2657 19.4843 14.4 19.65 14.4Z" fill="white"/></svg>