<svg class="color-immutable" width="24" height="24" viewBox="0 0 24 24" fill="none" xmlns="http://www.w3.org/2000/svg"><g clip-path="url(#a)"><path d="M0 22.5v-21C0 .675.675 0 1.5 0h21c.825 0 1.5.675 1.5 1.5v21c0 .825-.675 1.5-1.5 1.5h-21C.675 24 0 23.325 0 22.5Z" fill="#2D327D"/><path fill-rule="evenodd" clip-rule="evenodd" d="M12 3a9 9 0 0 0-9 9 9 9 0 0 0 9 9 9 9 0 0 0 9-9 9 9 0 0 0-9-9Zm0 1.387a1.894 1.894 0 1 1 0 3.788 1.894 1.894 0 0 1 0-3.788Zm2.887 14.363H9.113a.375.375 0 0 1 0-.75h1.2V9.825h-1.2a.375.375 0 0 1 0-.75h4.613V18h1.162a.375.375 0 1 1-.001.75Z" fill="#fff"/></g><defs><clipPath id="a"><path fill="#fff" d="M0 0h24v24H0z"/></clipPath></defs></svg>