<svg class="color-immutable" width="30" height="30" viewBox="0 0 30 30" fill="none" xmlns="http://www.w3.org/2000/svg"><g clip-path="url(#a)"><path d="M30 0H0v30h30V0Z" fill="#2D327D"/><path d="M25.5 3c.825 0 1.5.675 1.5 1.5v21c0 .825-.675 1.5-1.5 1.5h-21c-.825 0-1.5-.675-1.5-1.5v-21C3 3.675 3.675 3 4.5 3h21Zm0-.375h-21A1.877 1.877 0 0 0 2.625 4.5v21c0 1.034.841 1.875 1.875 1.875h21a1.877 1.877 0 0 0 1.875-1.875v-21A1.877 1.877 0 0 0 25.5 2.625Z" fill="#fff"/><path d="M23.25 11.25H24v-.75h-5.662a.375.375 0 0 0 0 .75h.525l-.375 2.25h-4.612v2.25h1.312L14.813 18H5.776l2.25 4.267 1.606-.339a8.17 8.17 0 0 1 .868-.066c.29.007.58.029.867.066l2.52.532c.367.076.74.114 1.113.115.373 0 .746-.039 1.11-.115l2.52-.532c.29-.037.58-.06.87-.066.29.007.58.029.868.066l2.52.532c.366.076.739.114 1.112.115V18h-.75a.375.375 0 0 1-.375-.375v-1.5c0-.207.168-.375.375-.375H24V13.5h-.75a.376.376 0 0 1-.375-.375v-1.5c0-.207.168-.375.375-.375Zm-4.725 6.375a.376.376 0 0 1-.374.375H15.94a.376.376 0 0 1-.37-.436l.25-1.5a.375.375 0 0 1 .37-.314h1.96c.207 0 .375.168.375.374v1.5Zm3.676 0a.376.376 0 0 1-.375.375h-2.25a.376.376 0 0 1-.376-.375v-1.5c0-.207.169-.375.376-.375h2.25c.207 0 .375.168.375.374v1.5Zm0-4.5a.376.376 0 0 1-.375.376h-2.211a.376.376 0 0 1-.37-.438l.25-1.5a.376.376 0 0 1 .37-.313h1.96c.208 0 .376.168.376.375v1.5ZM20.25 22.632a7.3 7.3 0 0 0-.75-.056c-.252.006-.503.024-.75.056l-2.493.525a6.158 6.158 0 0 1-2.516 0l-2.491-.525c-.25-.032-.5-.05-.751-.056-.25.006-.5.024-.75.056l-2.492.525c-.414.088-.834.13-1.257.131V24c.47 0 .94-.048 1.403-.144l2.463-.52c.21-.025.421-.041.633-.048.212.007.423.023.633.048l2.463.52a6.915 6.915 0 0 0 2.808 0l2.463-.52c.21-.025.421-.041.633-.048.212.007.423.023.634.048l2.462.52A6.93 6.93 0 0 0 24 24v-.712c-.423 0-.844-.043-1.259-.13l-2.491-.526Z" fill="#fff"/></g><defs><clipPath id="a"><path fill="#fff" d="M0 0h30v30H0z"/></clipPath></defs></svg>