<svg class="color-immutable" width="24" height="24" viewBox="0 0 24 24" fill="none" xmlns="http://www.w3.org/2000/svg"><g clip-path="url(#a)"><path d="M0 22.5v-21C0 .675.675 0 1.5 0h21c.825 0 1.5.675 1.5 1.5v21c0 .825-.675 1.5-1.5 1.5h-21C.675 24 0 23.325 0 22.5Z" fill="#2D327D"/><path d="M20.25 8.25H21V7.5h-5.662a.375.375 0 0 0 0 .75h.525l-.375 2.251h-4.612v2.25h1.313L11.813 15H2.776l2.25 4.267 1.606-.339c.287-.037.577-.059.868-.066.291.006.581.029.868.066l2.52.532c.366.076.739.114 1.112.115a5.528 5.528 0 0 0 1.111-.115l2.52-.532c.289-.037.579-.059.869-.066.29.006.58.029.869.066l2.519.532c.367.076.739.114 1.113.115V15h-.75a.375.375 0 0 1-.375-.375v-1.5c0-.206.168-.374.375-.374H21v-2.25h-.75a.376.376 0 0 1-.375-.376v-1.5c0-.207.168-.375.375-.375Zm-4.725 6.375a.376.376 0 0 1-.374.375H12.94a.376.376 0 0 1-.369-.436l.25-1.5a.376.376 0 0 1 .37-.313h1.961c.206 0 .374.168.374.374v1.5h-.001Zm3.676 0a.376.376 0 0 1-.375.375h-2.25a.376.376 0 0 1-.375-.375v-1.5c0-.206.168-.374.375-.374h2.25c.207 0 .375.168.375.374v1.5Zm0-4.5a.376.376 0 0 1-.375.376h-2.211a.376.376 0 0 1-.369-.438l.25-1.499a.377.377 0 0 1 .371-.313h1.96c.207 0 .375.168.375.375v1.499h-.001ZM17.25 19.632c-.25-.032-.5-.05-.751-.056a7.215 7.215 0 0 0-.75.056l-2.492.525c-.414.087-.835.13-1.258.131a6.19 6.19 0 0 1-1.258-.131l-2.491-.525c-.25-.032-.5-.05-.751-.056a7.235 7.235 0 0 0-.75.056l-2.493.525c-.413.088-.833.13-1.256.131V21a6.896 6.896 0 0 0 1.403-.145l2.464-.52c.21-.025.421-.041.633-.047.212.007.423.022.634.047l2.463.52a6.898 6.898 0 0 0 2.808 0l2.464-.52a7.01 7.01 0 0 1 .633-.047c.212.007.423.022.634.047l2.463.52c.459.097.929.144 1.401.145v-.712a6.2 6.2 0 0 1-1.259-.131l-2.491-.525Z" fill="#fff"/></g><defs><clipPath id="a"><path fill="#fff" d="M0 0h24v24H0z"/></clipPath></defs></svg>