<svg class="color-immutable" width="30" height="30" viewBox="0 0 30 30" fill="none" xmlns="http://www.w3.org/2000/svg"><g clip-path="url(#a)"><path d="M30 0H0v30h30V0Z" fill="#2D327D"/><path d="M19.306 13.595A.88.88 0 0 1 18.287 15l2.601 2.602h2.875c.082 0 .16.01.237.028V6h-6v6.29l1.306 1.305Zm.569-6.095c0-.207.168-.375.375-.375h2.25c.207 0 .375.168.375.375v8.625a.375.375 0 0 1-.375.375h-2.25a.375.375 0 0 1-.375-.375V7.5ZM23.341 24h.66v-.659l-.66.659ZM24 22.939v-3.24a1.055 1.055 0 0 1-.237.027h-2.976L24 22.94ZM18 19.06V24h4.94L18 19.06Z" fill="#fff"/><path d="m14.936 13.875 2.25 2.25 3.15 3.15.025.001h3.402a.611.611 0 1 0 0-1.224h-3.061l-5.235-5.236h1.213l1.702 1.705a.43.43 0 0 0 .733-.303.425.425 0 0 0-.126-.303l-1.806-1.806a.612.612 0 0 0-.433-.18h-2.14c-.445 0-.845.192-1.125.495l1.45 1.45ZM15.641 16.701l-1.495 1.495a.613.613 0 0 0-.179.435v3.706a.612.612 0 1 0 1.225 0V18.97l1.36-1.359-.91-.91ZM13.967 15.028l-.366-.366-.522-.523v1.464h-.629v.918h1.058a.46.46 0 0 0 .46-.46v-1.033ZM13.111 12.05a1.193 1.193 0 0 0-.662-1.98v1.32l.662.66ZM8.186 7.125H9.75c.207 0 .375.168.375.375v1.564L12 10.94V6H7.061l1.125 1.125ZM10.125 11.185v4.94a.375.375 0 0 1-.375.375H7.5a.375.375 0 0 1-.375-.375v-7.94L6 7.06V24h6V13.06l-1.875-1.875ZM6.658 6H6v.658L6.658 6Z" fill="#fff"/><path d="m17.186 16.125-2.25-2.25-8.077-8.077L5.8 6.86l7.802 7.803 1.463 1.463L23.14 24.2l1.061-1.06-7.015-7.016Z" fill="#EB0000"/><path d="M25.5 3c.825 0 1.5.675 1.5 1.5v21c0 .825-.675 1.5-1.5 1.5h-21c-.825 0-1.5-.675-1.5-1.5v-21C3 3.675 3.675 3 4.5 3h21Zm0-.375h-21A1.877 1.877 0 0 0 2.625 4.5v21c0 1.034.841 1.875 1.875 1.875h21a1.877 1.877 0 0 0 1.875-1.875v-21A1.877 1.877 0 0 0 25.5 2.625Z" fill="#fff"/></g><defs><clipPath id="a"><path fill="#fff" d="M0 0h30v30H0z"/></clipPath></defs></svg>