<svg class="color-immutable" width="30" height="30" viewBox="0 0 30 30" fill="none" xmlns="http://www.w3.org/2000/svg"><g clip-path="url(#a)"><path d="M30 0H0v30h30V0Z" fill="#2D327D"/><path d="M17.55 12.417v-2.346a1.193 1.193 0 0 0 0 2.346ZM10.39 19.415c-.2.2-.466.311-.751.311H6.237c-.082 0-.16-.01-.237-.027V24h6v-6.195l-1.61 1.61ZM6.658 6H6v.658L6.658 6ZM8.186 7.125H9.75c.207 0 .375.168.375.375v1.564L12 10.94V6H7.061l1.125 1.125ZM10.435 14.218c0-.236.092-.457.258-.621l.922-.922-1.49-1.49v4.94a.375.375 0 0 1-.375.375H7.5a.375.375 0 0 1-.375-.375v-7.94L6 7.06v10.57c.076-.018.155-.028.237-.028h2.875l2.6-2.601a.878.878 0 0 1-1.277-.783ZM13.877 12.816h.656l-.328.328.73.73.785.786.312-.312v.624l1.153 1.153.365.364v-.886h-.63V13.46c0-.845-.684-1.53-1.53-1.53h-2.14a.608.608 0 0 0-.219.04l.846.846Z" fill="#fff"/><path d="m14.02 16.362.64-.641-1.059-1.06-.456-.456-3.847 3.847H6.237a.612.612 0 1 0 0 1.224h3.402a.608.608 0 0 0 .432-.178l2.432-2.432 2.305 2.304v3.367a.613.613 0 0 0 1.225 0v-3.706a.612.612 0 0 0-.18-.435l-1.833-1.834ZM11.314 14.646a.43.43 0 0 0 .304-.125l.92-.922-.605-.606-.922.922a.429.429 0 0 0 .303.731ZM18 19.06V24h4.94L18 19.06ZM23.341 24h.66v-.659l-.66.659ZM24 22.94V6h-6v10.94l6 6ZM19.875 7.5c0-.207.168-.375.375-.375h2.25c.207 0 .375.168.375.375v8.625a.375.375 0 0 1-.375.375h-2.25a.375.375 0 0 1-.375-.375V7.5Z" fill="#fff"/><path d="M25.5 3c.825 0 1.5.675 1.5 1.5v21c0 .825-.675 1.5-1.5 1.5h-21c-.825 0-1.5-.675-1.5-1.5v-21C3 3.675 3.675 3 4.5 3h21Zm0-.375h-21A1.877 1.877 0 0 0 2.625 4.5v21c0 1.034.841 1.875 1.875 1.875h21a1.877 1.877 0 0 0 1.875-1.875v-21A1.877 1.877 0 0 0 25.5 2.625Z" fill="#fff"/><path d="m17.186 16.125-2.25-2.25-8.077-8.077L5.8 6.86l7.802 7.803 1.463 1.463L23.14 24.2l1.061-1.06-7.015-7.016Z" fill="#EB0000"/></g><defs><clipPath id="a"><path fill="#fff" d="M0 0h30v30H0z"/></clipPath></defs></svg>