<svg class="color-immutable" width="24" height="24" viewBox="0 0 24 24" fill="none" xmlns="http://www.w3.org/2000/svg"><g clip-path="url(#a)"><path d="M0 22.5v-21C0 .675.675 0 1.5 0h21c.825 0 1.5.675 1.5 1.5v21c0 .825-.675 1.5-1.5 1.5h-21C.675 24 0 23.325 0 22.5Z" fill="#2D327D"/><path d="M12.232 5.625V3.396l.923 1.008v-.677L12 2.572l-1.155 1.155v.677l.924-1.008v2.229h.463ZM11.769 18.375v2.228l-.924-1.008v.678L12 21.428l1.155-1.155v-.678l-.923 1.008v-2.228h-.463ZM17.925 6.075H6.075v11.85h11.85V6.075Zm-.75 11.1H6.825V6.825h10.35v10.35ZM18.75 3H21v18h-2.25V3ZM3 3h2.25v18H3V3Z" fill="#fff"/><path d="M10.334 9.015a.781.781 0 1 0 0-1.563.781.781 0 0 0 0 1.563ZM8.875 13.006a.293.293 0 0 0 .293-.293v-2.246h.195v6.017a.39.39 0 0 0 .782 0v-3.478h.293v3.478a.39.39 0 0 0 .782 0v-6.017h.195v2.246a.293.293 0 0 0 .586 0v-2.637a.781.781 0 0 0-.781-.781H9.363a.781.781 0 0 0-.781.781v2.637c0 .162.131.293.293.293Z" fill="#fff"/></g><defs><clipPath id="a"><path fill="#fff" d="M0 0h24v24H0z"/></clipPath></defs></svg>