<svg class="color-immutable" width="24" height="24" viewBox="0 0 24 24" fill="none" xmlns="http://www.w3.org/2000/svg"><g clip-path="url(#a)"><path d="M0 22.5v-21C0 .675.675 0 1.5 0h21c.825 0 1.5.675 1.5 1.5v21c0 .825-.675 1.5-1.5 1.5h-21C.675 24 0 23.325 0 22.5Z" fill="#2D327D"/><path d="M5.636 18.739a.374.374 0 0 1-.265-.64l1.591-1.591a.375.375 0 0 1 .53.53l-1.591 1.591a.374.374 0 0 1-.265.11ZM18.364 18.739a.374.374 0 0 1-.265-.11l-1.591-1.591a.375.375 0 0 1 .53-.53l1.591 1.591a.375.375 0 0 1-.265.64ZM5.25 12.375H3a.375.375 0 0 1 0-.75h2.25a.375.375 0 0 1 0 .75ZM21 12.375h-2.25a.375.375 0 0 1 0-.75H21a.375.375 0 0 1 0 .75ZM12 21.375a.375.375 0 0 1-.375-.375v-2.25a.375.375 0 0 1 .75 0V21a.375.375 0 0 1-.375.375ZM14.474 7.181V6.75H9.526v.431c0 .61-.253 1.189-.687 1.618a4.486 4.486 0 0 0-1.334 3.409 4.513 4.513 0 0 0 4.28 4.287 4.5 4.5 0 0 0 3.369-7.704 2.258 2.258 0 0 1-.68-1.61ZM14.475 6V3.75a.75.75 0 0 0-.75-.75h-3.45a.75.75 0 0 0-.75.75V6h4.95Z" fill="#fff"/></g><defs><clipPath id="a"><path fill="#fff" d="M0 0h24v24H0z"/></clipPath></defs></svg>