<svg class="color-immutable" width="30" height="30" viewBox="0 0 30 30" fill="none" xmlns="http://www.w3.org/2000/svg"><g clip-path="url(#a)"><path d="M30.002 0h-30v30h30V0Z" fill="#2D327D"/><path d="M25.502 3c.825 0 1.5.675 1.5 1.5v21c0 .825-.675 1.5-1.5 1.5h-21c-.825 0-1.5-.675-1.5-1.5v-21c0-.825.675-1.5 1.5-1.5h21Zm0-.375h-21A1.877 1.877 0 0 0 2.627 4.5v21c0 1.034.841 1.875 1.875 1.875h21a1.877 1.877 0 0 0 1.875-1.875v-21a1.877 1.877 0 0 0-1.875-1.875Z" fill="#fff"/><path d="M18.075 14.175a2.325 2.325 0 1 0 0 4.65 2.325 2.325 0 0 0 0-4.65Zm0 3.525a1.2 1.2 0 1 1 0-2.4 1.2 1.2 0 0 1 0 2.4ZM14.626 15.6H6.001v1.5h8.625v-1.5Z" fill="#fff"/><path d="m23.954 10.825-.676-2.475a1.35 1.35 0 0 0-1.304-1h-6.223l-.003 6.917A3.225 3.225 0 0 1 21.3 16.49V16.725c0 .207.168.375.375.375h1.95a.375.375 0 0 0 .375-.375v-5.55c0-.118-.015-.236-.046-.35Zm-1.904-2.8c.271 0 .506.182.577.445l.536 2.007a.375.375 0 0 1-.362.473H18a.375.375 0 0 1-.375-.375V8.4c0-.207.168-.375.375-.375h4.049ZM6 19.2h18v1.125H6V19.2ZM6 23.325h18V24H6v-.675ZM22.502 21.787a1.087 1.087 0 1 0-2.174.001 1.087 1.087 0 0 0 2.174-.001ZM19.578 21.787a1.088 1.088 0 1 0-2.175.002 1.088 1.088 0 0 0 2.175-.002ZM12.602 21.787a1.087 1.087 0 1 0-2.174.001 1.087 1.087 0 0 0 2.174-.001ZM9.678 21.787a1.088 1.088 0 1 0-2.175.002 1.088 1.088 0 0 0 2.175-.002ZM6 14.846l8.625.004V6.375A.375.375 0 0 0 14.25 6H6v2.025h5.7a.375.375 0 0 1 0 .75H6v.75h5.7a.375.375 0 0 1 0 .75H6v4.57Z" fill="#fff"/></g><defs><clipPath id="a"><path fill="#fff" d="M0 0h30v30H0z"/></clipPath></defs></svg>