<svg class="color-immutable" width="30" height="30" viewBox="0 0 30 30" fill="none" xmlns="http://www.w3.org/2000/svg"><g clip-path="url(#a)"><path d="M0 0h30v30H0V0Z" fill="#2D327D"/><path d="M25.5 3c.825 0 1.5.675 1.5 1.5v21c0 .825-.675 1.5-1.5 1.5h-21c-.825 0-1.5-.675-1.5-1.5v-21C3 3.675 3.675 3 4.5 3h21Zm0-.375h-21A1.877 1.877 0 0 0 2.625 4.5v21c0 1.034.841 1.875 1.875 1.875h21a1.877 1.877 0 0 0 1.875-1.875v-21A1.877 1.877 0 0 0 25.5 2.625Z" fill="#fff"/><path d="M8.137 14.1a.3.3 0 0 0-.3.3c.001.426.312.788.732.852l2.422.372a.218.218 0 0 1-.032.433H6.54a.538.538 0 1 0 0 1.077h2.855a.355.355 0 1 1 0 .711H6.54a.54.54 0 0 0 0 1.077h2.855a.356.356 0 0 1 0 .711H6.54a.54.54 0 0 0 0 1.078h2.855a.356.356 0 0 1 0 .712H6.54a.539.539 0 1 0 0 1.077H18v-2.323c0-.31-.252-.56-.563-.56h-.75a.562.562 0 1 1 0-1.124h.75c.31 0 .563-.254.563-.563v-2.324l-9.817-1.502a.229.229 0 0 0-.046-.004Z" fill="#fff"/><path d="m23.827 16.81-1.044-1.045a.567.567 0 0 0-.399-.164h-.454v-4.275h.755c.724 0 1.315-.587 1.315-1.312 0-.725-.59-1.314-1.315-1.314h-.56a.375.375 0 1 0 0 .75h.56a.562.562 0 1 1 0 1.127h-3.192V8.703l-12.09 1.874H6v.749h1.403l12.09 1.876v-1.876h2.061v4.275H21.1a.572.572 0 0 0-.398.164l-1.045 1.046a.571.571 0 0 0-.164.397v6.23c0 .309.253.562.562.562h3.374a.563.563 0 0 0 .563-.563v-6.23a.56.56 0 0 0-.165-.396v-.001Zm-1.652 5.69h-.932v-.918h.932v.918Zm.877-2.554c-.111.158-.33.35-.655.578a.59.59 0 0 0-.212.256c-.041.1-.064.24-.068.42h-.798c.006-.215.013-.359.022-.433.009-.074.029-.154.06-.24a.83.83 0 0 1 .152-.257c.062-.07.189-.182.38-.336.142-.113.238-.211.289-.295a.572.572 0 0 0 .076-.301.452.452 0 0 0-.142-.348.526.526 0 0 0-.372-.131c-.402 0-.612.245-.632.736h-.87c.019-.38.11-.683.274-.909.271-.374.684-.56 1.24-.56.438 0 .785.117 1.043.353.253.23.38.521.38.874 0 .237-.056.435-.167.593Z" fill="#fff"/></g><defs><clipPath id="a"><path fill="#fff" d="M0 0h30v30H0z"/></clipPath></defs></svg>