<svg class="color-immutable" width="30" height="30" viewBox="0 0 30 30" fill="none" xmlns="http://www.w3.org/2000/svg"><path d="M30 0H0v30h30V0Z" fill="#2D327D"/><path d="M25.5 3c.825 0 1.5.675 1.5 1.5v21c0 .825-.675 1.5-1.5 1.5h-21c-.825 0-1.5-.675-1.5-1.5v-21C3 3.675 3.675 3 4.5 3h21Zm0-.375h-21A1.877 1.877 0 0 0 2.625 4.5v21c0 1.034.841 1.875 1.875 1.875h21a1.877 1.877 0 0 0 1.875-1.875v-21A1.877 1.877 0 0 0 25.5 2.625Z" fill="#fff"/><path d="M11.085 20.955a3.031 3.031 0 0 0-1.386-.32c-1.305 0-2.362.753-2.362 1.682 0 .93 1.057 1.683 2.362 1.683 1.304 0 2.361-.753 2.361-1.683v-9.212l-.975-.975v8.825ZM18.989 9.651v8.26l.975.976V6l-8.879 3.423v.585l1.906 1.906 5.998-2.263ZM15.24 20.217c0 .93 1.057 1.683 2.362 1.683.995 0 1.846-.44 2.194-1.06l-2.304-2.304c-1.254.041-2.252.778-2.252 1.681Z" fill="#fff"/><path d="m6.708 5.631-1.06 1.06L22.99 24.035l1.06-1.06L6.708 5.63Z" fill="#EB0000"/></svg>