<svg class="color-immutable" width="30" height="30" viewBox="0 0 30 30" fill="none" xmlns="http://www.w3.org/2000/svg"><g clip-path="url(#a)"><path d="M30 30H0V0h30v30Z" fill="#2D327D"/><path d="M25.5 3c.825 0 1.5.675 1.5 1.5v21c0 .825-.675 1.5-1.5 1.5h-21c-.825 0-1.5-.675-1.5-1.5v-21C3 3.675 3.675 3 4.5 3h21Zm0-.375h-21A1.877 1.877 0 0 0 2.625 4.5v21c0 1.034.841 1.875 1.875 1.875h21a1.877 1.877 0 0 0 1.875-1.875v-21A1.877 1.877 0 0 0 25.5 2.625Z" fill="#fff"/><path d="M21.75 10.5h-3.975v-.938c0-.724-.587-1.312-1.312-1.312h-2.926c-.724 0-1.312.588-1.312 1.312v.938H8.25A2.251 2.251 0 0 0 6 12.75v9.001A2.25 2.25 0 0 0 8.25 24h13.5A2.25 2.25 0 0 0 24 21.751v-9a2.25 2.25 0 0 0-2.25-2.251Zm-5.024 0h-3.45V9.3h3.45v1.2Z" fill="#fff"/></g><defs><clipPath id="a"><path fill="#fff" d="M0 0h30v30H0z"/></clipPath></defs></svg>