<svg class="color-immutable" width="30" height="30" viewBox="0 0 30 30" fill="none" xmlns="http://www.w3.org/2000/svg"><path d="M30 0H0v30h30V0Z" fill="#2D327D"/><path d="M25.5 3c.825 0 1.5.675 1.5 1.5v21c0 .825-.675 1.5-1.5 1.5h-21c-.825 0-1.5-.675-1.5-1.5v-21C3 3.675 3.675 3 4.5 3h21Zm0-.375h-21A1.877 1.877 0 0 0 2.625 4.5v21c0 1.034.841 1.875 1.875 1.875h21a1.877 1.877 0 0 0 1.875-1.875v-21A1.877 1.877 0 0 0 25.5 2.625Z" fill="#fff"/><path d="M10.687 19.688h9.75c.829 0 1.5-.673 1.5-1.5V13.5a1.5 1.5 0 0 0-1.5-1.5h-2.812v-.751a.75.75 0 0 0-.75-.748H14.25a.75.75 0 0 0-.75.748V12h-2.813a1.5 1.5 0 0 0-1.5 1.5v4.689c0 .826.673 1.5 1.5 1.5Zm3.563-8.44h2.625V12H14.25v-.751Z" fill="#fff"/><path d="M21.938 21v-.75H8.624v-9.375a.374.374 0 0 0-.374-.374H6.375a.375.375 0 1 0 0 .748h1.5V21h14.063ZM20.768 21.552a1.219 1.219 0 1 0 0 2.437 1.219 1.219 0 0 0 0-2.437ZM9.124 21.552a1.22 1.22 0 1 0 0 2.438 1.22 1.22 0 0 0 0-2.438Z" fill="#fff"/></svg>