<svg class="color-immutable" width="30" height="30" viewBox="0 0 30 30" fill="none" xmlns="http://www.w3.org/2000/svg"><g clip-path="url(#a)"><path d="M30 30H0V0h30v30Z" fill="#2D327D"/><path d="M25.5 3c.825 0 1.5.675 1.5 1.5v21c0 .825-.675 1.5-1.5 1.5h-21c-.825 0-1.5-.675-1.5-1.5v-21C3 3.675 3.675 3 4.5 3h21Zm0-.375h-21A1.877 1.877 0 0 0 2.625 4.5v21c0 1.034.841 1.875 1.875 1.875h21a1.877 1.877 0 0 0 1.875-1.875v-21A1.877 1.877 0 0 0 25.5 2.625Z" fill="#fff"/><path d="M8.531 12.657a.32.32 0 0 0 .545-.226.32.32 0 0 0-.093-.225l-.337-.336.134-.136.917.918a.338.338 0 1 0 .477-.478l-.916-.917.136-.135 1.529 1.53a.337.337 0 0 0 .477-.478l-1.53-1.53.136-.135 2.136 2.137a.357.357 0 0 0 .608-.253.357.357 0 0 0-.105-.251L9.63 9.126a.337.337 0 0 1 .238-.577h1.194a.45.45 0 0 0 .446-.513.186.186 0 0 0-.186-.161H6V10.5h.374l2.157 2.157ZM17.25 21.45V16.2c0-.621-.504-1.125-1.125-1.125H13.5V14.4a.9.9 0 0 0-.9-.9h-1.95a.9.9 0 0 0-.9.9v.675H7.125C6.503 15.075 6 15.579 6 16.2v5.25c0 .62.503 1.125 1.125 1.125h9c.62 0 1.125-.504 1.125-1.125Zm-6.825-7.275h2.4v.9h-2.4v-.9Zm4.013 5.137a.3.3 0 0 1-.301.301h-2.024a.3.3 0 0 1-.3-.3v-2.598c0-.08.031-.155.087-.212h.001l.622-.622a.188.188 0 0 1 .133-.056h.282v.375h.374v-.375h.283c.049 0 .097.02.132.056l.623.622a.298.298 0 0 1 .088.212v2.597ZM12.75 23.325H24V24H12.75v-.675Z" fill="#fff"/></g><defs><clipPath id="a"><path fill="#fff" d="M0 0h30v30H0z"/></clipPath></defs></svg>