<svg class="color-immutable" width="30" height="30" viewBox="0 0 30 30" fill="none" xmlns="http://www.w3.org/2000/svg"><path d="M30 0H0v30h30V0Z" fill="#2D327D"/><path d="M25.5 3c.825 0 1.5.675 1.5 1.5v21c0 .825-.675 1.5-1.5 1.5h-21c-.825 0-1.5-.675-1.5-1.5v-21C3 3.675 3.675 3 4.5 3h21Zm0-.375h-21A1.877 1.877 0 0 0 2.625 4.5v21c0 1.034.841 1.875 1.875 1.875h21a1.877 1.877 0 0 0 1.875-1.875v-21A1.877 1.877 0 0 0 25.5 2.625Z" fill="#fff"/><path d="M24.096 12.624a2.25 2.25 0 0 0-2.25-2.25h-3.975v-.938c0-.724-.588-1.312-1.313-1.312h-2.925c-.724 0-1.312.588-1.312 1.312v.938h-.87L6.708 5.63l-1.06 1.06 3.682 3.683h-.984a2.251 2.251 0 0 0-2.25 2.25v9.001a2.25 2.25 0 0 0 2.25 2.249h13.5c.292 0 .57-.056.826-.157l.318.317 1.06-1.06-.245-.245c.185-.327.29-.703.29-1.104v-9ZM13.37 9.174h3.45v1.2h-3.45v-1.2Z" fill="#fff"/><path d="m6.708 5.631-1.06 1.06L22.99 24.035l1.06-1.06L6.708 5.63Z" fill="#EB0000"/></svg>