<svg class="color-immutable" width="24" height="24" viewBox="0 0 24 24" fill="none" xmlns="http://www.w3.org/2000/svg"><g clip-path="url(#a)"><path d="M0 22.5v-21C0 .675.675 0 1.5 0h21c.825 0 1.5.675 1.5 1.5v21c0 .825-.675 1.5-1.5 1.5h-21C.675 24 0 23.325 0 22.5Z" fill="#2D327D"/><path d="M3.73 19.575h4.502l.729-10.921.001-.068c0-.557-.453-1.011-1.012-1.011H4.014C3.453 7.575 3 8.029 3 8.586l.001.068.729 10.921ZM3.796 8.7c0-.207.167-.376.375-.376h3.62c.208 0 .377.169.377.376 0 .008 0 .017-.002.025l-.223 3.35H4.021l-.225-3.35V8.7Z" fill="#fff"/><path d="m7.719 9.196-.262-.149-.371.65.259.151.374-.652ZM6.952 8.844l-.29-.077-.19.726.291.076.189-.725ZM5.831 8.7h.301v.75h-.301V8.7ZM5.787 11.7h.39l-.808-2.766a.191.191 0 0 0-.182-.133.187.187 0 0 0-.18.239l.78 2.66ZM4.872 9.702l-.373-.651-.261.149.373.651.261-.149ZM19.876 12.075H17.25v-.751a.825.825 0 0 0-.825-.825h-2.1a.825.825 0 0 0-.825.825v.751h-2.625c-.622 0-1.125.503-1.125 1.124v5.251c0 .621.503 1.125 1.125 1.125h9.001c.62 0 1.124-.504 1.124-1.125v-5.251c0-.621-.504-1.124-1.124-1.124Zm-4.688 4.274a.3.3 0 0 1-.3.301h-2.026a.3.3 0 0 1-.3-.301v-2.597a.3.3 0 0 1 .088-.212l.66-.66a.191.191 0 0 1 .133-.054h.244v.373h.376v-.373h.244a.19.19 0 0 1 .132.054l.66.66a.3.3 0 0 1 .088.212v2.597h.001Zm1.386-4.274h-2.4v-.901h2.4v.901ZM3 20.325h17.989V21H3v-.675Z" fill="#fff"/></g><defs><clipPath id="a"><path fill="#fff" d="M0 0h24v24H0z"/></clipPath></defs></svg>