<svg class="color-immutable" width="30" height="30" viewBox="0 0 30 30" fill="none" xmlns="http://www.w3.org/2000/svg"><path d="M30 0H0v30h30V0Z" fill="#2D327D"/><path d="M25.5 3c.825 0 1.5.675 1.5 1.5v21c0 .825-.675 1.5-1.5 1.5h-21c-.825 0-1.5-.675-1.5-1.5v-21C3 3.675 3.675 3 4.5 3h21Zm0-.375h-21A1.877 1.877 0 0 0 2.625 4.5v21c0 1.034.841 1.875 1.875 1.875h21a1.877 1.877 0 0 0 1.875-1.875v-21A1.877 1.877 0 0 0 25.5 2.625Z" fill="#fff"/><path d="M9.124 21.552a1.22 1.22 0 1 0 0 2.438 1.22 1.22 0 0 0 0-2.438ZM24.05 22.973l-2.112-2.113v-.61h-.61l-.593-.592a1.502 1.502 0 0 0 1.203-1.47V13.5a1.5 1.5 0 0 0-1.5-1.5h-2.813v-.751a.75.75 0 0 0-.75-.748H14.25a.75.75 0 0 0-.75.748V12h-.423L6.708 5.631l-1.06 1.06 5.308 5.31h-.269a1.5 1.5 0 0 0-1.5 1.499v4.689c0 .826.673 1.5 1.5 1.5h7.957l.563.562H8.623v-9.376a.374.374 0 0 0-.374-.374H6.375a.375.375 0 1 0 0 .748h1.5V21h12.08l.576.575a1.219 1.219 0 1 0 1.432 1.432l1.027 1.027 1.06-1.06Zm-9.8-11.724h2.625V12H14.25v-.751Z" fill="#fff"/><path d="m6.708 5.631-1.06 1.06L22.99 24.035l1.06-1.06L6.708 5.63Z" fill="#EB0000"/></svg>