<svg class="color-immutable" width="30" height="30" viewBox="0 0 30 30" fill="none" xmlns="http://www.w3.org/2000/svg"><g clip-path="url(#a)"><path d="M30 0H0v30h30V0Z" fill="#2D327D"/><path d="M25.5 3c.825 0 1.5.675 1.5 1.5v21c0 .825-.675 1.5-1.5 1.5h-21c-.825 0-1.5-.675-1.5-1.5v-21C3 3.675 3.675 3 4.5 3h21Zm0-.375h-21A1.877 1.877 0 0 0 2.625 4.5v21c0 1.034.841 1.875 1.875 1.875h21a1.877 1.877 0 0 0 1.875-1.875v-21A1.877 1.877 0 0 0 25.5 2.625Z" fill="#fff"/><path d="M14.8 15.254h.419c.05 0 .09-.04.09-.09v-.93a.3.3 0 0 0-.3-.3.3.3 0 0 0-.3.3v.93c0 .05.04.09.09.09ZM15.234 15.494v7.591c0 .05.04.09.09.09h1.034a.347.347 0 0 0 .334-.303s.157-1.408.157-3.582-.157-3.583-.157-3.583a.347.347 0 0 0-.334-.303h-1.034a.09.09 0 0 0-.09.09ZM13.326 15.707s-.157 1.409-.157 3.583c0 2.174.157 3.582.157 3.582a.347.347 0 0 0 .333.303h1.035c.05 0 .09-.04.09-.09v-7.59a.09.09 0 0 0-.09-.09h-1.035a.347.347 0 0 0-.333.302ZM24 23.7H6v.3h18v-.3ZM18.477 20.284c.158.12.354.191.568.191h4.505c.248 0 .45-.203.45-.45V18.9a.451.451 0 0 0-.45-.45h-3.79l-.642-2.025h3.331a.638.638 0 0 0 0-1.274l-3.736-.002-1.538-4.874h-1.5l2.47 9.525a.941.941 0 0 0 .332.484Zm-1.522-9.709 1.538 4.873 3.956.003a.338.338 0 0 1 0 .675l-3.74-.001.832 2.625h4.01c.08 0 .15.069.15.15v1.125c0 .081-.07.15-.15.15h-4.506a.645.645 0 0 1-.612-.455l-2.37-9.145h.892ZM17.168 9.825l.802-.876c.169-.176.18-.287.18-.45V6.45A.45.45 0 0 0 17.7 6h-1.575a.45.45 0 0 0-.45.45v3.375h1.492ZM16.125 6.3H17.7a.15.15 0 0 1 .15.15V8.5c0 .113 0 .14-.099.244l-.716.781h-1.06V6.45a.15.15 0 0 1 .15-.15ZM6.45 20.475h4.505a.933.933 0 0 0 .9-.675l2.47-9.525h-1.5l-1.538 4.874-3.736.002a.638.638 0 0 0 0 1.275l3.331-.001-.643 2.025H6.45a.451.451 0 0 0-.45.45v1.125c0 .248.203.45.45.45ZM6.3 18.9c0-.081.068-.15.15-.15h4.009l.833-2.625H7.55a.338.338 0 0 1 0-.674l3.956-.002 1.538-4.874h.892l-2.37 9.145a.645.645 0 0 1-.612.455H6.45a.152.152 0 0 1-.15-.15V18.9ZM12.833 9.825h1.492V6.45a.45.45 0 0 0-.45-.45H12.3a.45.45 0 0 0-.45.45V8.5c0 .162.011.273.18.45l.803.875ZM12.15 6.45a.15.15 0 0 1 .15-.15h1.575a.15.15 0 0 1 .15.15v3.075h-1.06l-.716-.78c-.1-.105-.1-.132-.1-.245l.001-2.05Z" fill="#fff"/></g><defs><clipPath id="a"><path fill="#fff" d="M0 0h30v30H0z"/></clipPath></defs></svg>