<svg class="color-immutable" width="30" height="30" viewBox="0 0 30 30" fill="none" xmlns="http://www.w3.org/2000/svg"><path d="M0 0h30v30H0V0Z" fill="#2D327D"/><path d="M25.5 3c.825 0 1.5.675 1.5 1.5v21c0 .825-.675 1.5-1.5 1.5h-21c-.825 0-1.5-.675-1.5-1.5v-21C3 3.675 3.675 3 4.5 3h21Zm0-.375h-21A1.877 1.877 0 0 0 2.625 4.5v21c0 1.034.841 1.875 1.875 1.875h21a1.877 1.877 0 0 0 1.875-1.875v-21A1.877 1.877 0 0 0 25.5 2.625Z" fill="#fff"/><path d="M15 10.812A4.189 4.189 0 0 0 10.813 15 4.188 4.188 0 0 0 15 19.186 4.188 4.188 0 0 0 19.187 15 4.189 4.189 0 0 0 15 10.812ZM10.56 20.248l-.135 3.095 1.076-1.077v-3.768H7.733l-1.076 1.077 3.095-.135-3.887 3.887.807.807 3.887-3.886ZM6.657 10.424l1.076 1.077h3.768V7.733l-1.076-1.077.134 3.095-3.887-3.886-.807.807 3.887 3.887-3.095-.135ZM23.343 19.575l-1.076-1.077h-3.768v3.768l1.076 1.077-.134-3.095 3.887 3.886.807-.807-3.887-3.887 3.095.135ZM19.44 9.751l.135-3.095L18.5 7.733V11.5h3.768l1.076-1.077-3.095.135 3.887-3.887-.808-.807-3.886 3.886Z" fill="#fff"/></svg>