<svg class="color-immutable" width="30" height="30" viewBox="0 0 30 30" fill="none" xmlns="http://www.w3.org/2000/svg"><g clip-path="url(#a)"><path d="M30 0H0v30h30V0Z" fill="#2D327D"/><path d="M25.5 3c.825 0 1.5.675 1.5 1.5v21c0 .825-.675 1.5-1.5 1.5h-21c-.825 0-1.5-.675-1.5-1.5v-21C3 3.675 3.675 3 4.5 3h21Zm0-.375h-21A1.877 1.877 0 0 0 2.625 4.5v21c0 1.034.841 1.875 1.875 1.875h21a1.877 1.877 0 0 0 1.875-1.875v-21A1.877 1.877 0 0 0 25.5 2.625Z" fill="#fff"/><path d="M8.642 6v2.249h-.466l.017-1.71-.567 1.71H7.24l-.577-1.661.017 1.66h-.466V6h.698l.53 1.617L7.95 6h.692ZM10.547 7.726a.751.751 0 0 1-.128.266c-.148.202-.36.303-.637.303-.25 0-.45-.08-.601-.237a.773.773 0 0 1-.17-.278 1.055 1.055 0 0 1-.063-.363c0-.244.07-.45.211-.616a.76.76 0 0 1 .61-.278.753.753 0 0 1 .735.516c.046.13.069.295.069.493h-1.17a.65.65 0 0 0 .038.205c.06.146.175.22.344.22.083 0 .151-.019.203-.055a.391.391 0 0 0 .13-.176h.429Zm-.43-.494a.537.537 0 0 0-.055-.202.338.338 0 0 0-.295-.17c-.1 0-.182.033-.246.1a.446.446 0 0 0-.116.272h.712Zm.147-1.301-.454.454h-.3l.283-.454h.47ZM11.714 6.566v.315h-.334v.79c0 .094.009.154.026.18.026.036.083.055.173.055.035 0 .08-.003.135-.008v.357c-.1.011-.193.017-.277.017a.764.764 0 0 1-.29-.043.332.332 0 0 1-.194-.253 1.924 1.924 0 0 1-.017-.324v-.77h-.272v-.316h.272v-.394h.444v.394h.334ZM13.015 6.541v.433a.997.997 0 0 0-.174-.02.39.39 0 0 0-.366.209c-.044.078-.066.208-.066.39v.696h-.446v-1.68h.425v.306c.12-.227.296-.341.527-.341.029 0 .062.002.1.007ZM14.004 6.523c.244 0 .444.081.599.243.152.16.229.373.229.64 0 .276-.082.496-.245.66a.807.807 0 0 1-.596.229c-.262 0-.47-.085-.625-.255-.148-.162-.221-.373-.221-.631 0-.254.071-.461.215-.62.159-.177.373-.266.644-.266Zm-.023.348a.331.331 0 0 0-.281.143.656.656 0 0 0-.106.395c0 .173.034.306.104.398a.35.35 0 0 0 .294.14.333.333 0 0 0 .275-.127c.077-.095.116-.232.116-.411 0-.168-.034-.299-.102-.392a.349.349 0 0 0-.3-.146ZM24 23.25H6V24h18v-.75ZM6 17.844v4.281c0 .207.168.375.375.375h17.624v-4.94h-2.401a.375.375 0 0 1-.376-.375v-5.559c0-.207.168-.375.375-.375H24v-.675H7.779c-.839 0-1.136.46-1.202 1.179 0 0-.577 6.03-.577 6.089Zm13.285-6.09a.578.578 0 0 1 1.155 0v9.418a.578.578 0 0 1-1.155 0v-9.418Zm-1.936 0a.578.578 0 0 1 1.155 0v9.418a.578.578 0 0 1-1.155 0v-9.418Zm-5.33-.128c0-.207.168-.375.375-.375h3.798c.207 0 .375.168.375.375v5.559a.375.375 0 0 1-.375.375h-3.798a.375.375 0 0 1-.375-.375v-5.559Zm-5.314 5.53.44-5.53c.027-.242.168-.375.375-.375h3.464c.207 0 .375.168.375.375v5.559a.375.375 0 0 1-.375.375l-3.934-.032c-.207 0-.366-.156-.345-.372Z" fill="#fff"/></g><defs><clipPath id="a"><path fill="#fff" d="M0 0h30v30H0z"/></clipPath></defs></svg>