<svg class="color-immutable" width="24" height="24" viewBox="0 0 24 24" fill="none" xmlns="http://www.w3.org/2000/svg"><g clip-path="url(#a)"><path d="M0 22.5v-21C0 .675.675 0 1.5 0h21c.825 0 1.5.675 1.5 1.5v21c0 .825-.675 1.5-1.5 1.5h-21C.675 24 0 23.325 0 22.5Z" fill="#2D327D"/><path d="M5.642 3v2.249h-.466l.017-1.709-.567 1.709H4.24l-.577-1.661.017 1.661h-.466V3h.698l.529 1.617L4.95 3h.692ZM7.547 4.726a.77.77 0 0 1-.128.266c-.148.202-.36.303-.637.303-.25 0-.451-.079-.601-.237a.775.775 0 0 1-.169-.278 1.058 1.058 0 0 1-.063-.363c0-.244.07-.449.211-.615a.76.76 0 0 1 .609-.278.754.754 0 0 1 .735.516c.046.131.069.295.069.493h-1.17c.004.082.017.15.038.205.06.147.175.22.345.22a.343.343 0 0 0 .203-.055.39.39 0 0 0 .129-.176h.429v-.001Zm-.43-.494a.526.526 0 0 0-.055-.201.337.337 0 0 0-.295-.171.328.328 0 0 0-.246.1.446.446 0 0 0-.116.272h.712ZM8.714 3.566v.315H8.38v.789c0 .094.009.154.026.18.026.037.083.055.172.055.035 0 .08-.003.135-.008v.357c-.1.011-.193.017-.277.017a.762.762 0 0 1-.291-.043.332.332 0 0 1-.194-.252 1.954 1.954 0 0 1-.017-.325v-.77h-.271v-.315h.272v-.394h.445v.394h.334ZM10.015 3.541v.432a1.037 1.037 0 0 0-.174-.02.391.391 0 0 0-.366.209c-.044.079-.066.209-.066.391v.695h-.446v-1.68h.425v.306c.121-.228.297-.341.528-.341.028.001.061.003.099.008ZM11.004 3.523a.79.79 0 0 1 .598.243c.153.16.229.373.229.64 0 .276-.082.496-.245.66a.807.807 0 0 1-.597.229c-.261 0-.47-.085-.624-.255-.148-.162-.221-.372-.221-.631 0-.254.072-.461.215-.62.16-.177.374-.266.645-.266Zm-.023.348a.33.33 0 0 0-.281.143.652.652 0 0 0-.106.395c0 .173.035.306.105.398.072.093.17.14.294.14a.332.332 0 0 0 .275-.128c.077-.094.115-.231.115-.411 0-.168-.034-.299-.102-.392a.35.35 0 0 0-.3-.145ZM21 20.25H3V21h18v-.75ZM20.422 8.755c-.066-.719-.364-1.179-1.202-1.179H3v.675h2.401c.207 0 .375.168.375.375v5.559a.375.375 0 0 1-.375.375H3v4.94h17.624a.375.375 0 0 0 .375-.375v-4.281c0-.059-.577-6.089-.577-6.089ZM7.713 18.172a.577.577 0 0 1-1.154 0V8.754a.577.577 0 0 1 1.154 0v9.418Zm1.937 0a.577.577 0 0 1-1.154 0V8.754a.577.577 0 0 1 1.154 0v9.418Zm5.33-3.987a.375.375 0 0 1-.375.375h-3.798a.375.375 0 0 1-.375-.375V8.626c0-.207.168-.375.375-.375h3.798c.207 0 .375.168.375.375v5.559Zm4.969.342-3.934.032a.375.375 0 0 1-.375-.375V8.626c0-.207.168-.375.375-.375h3.464c.207 0 .348.133.375.375l.44 5.53c.02.216-.138.371-.345.371Z" fill="#fff"/></g><defs><clipPath id="a"><path fill="#fff" d="M0 0h24v24H0z"/></clipPath></defs></svg>