<svg class="color-immutable" width="30" height="30" viewBox="0 0 30 30" fill="none" xmlns="http://www.w3.org/2000/svg"><g clip-path="url(#a)"><path d="M30 30H0V0h30v30Z" fill="#2D327D"/><path d="M25.5 3c.825 0 1.5.675 1.5 1.5v21c0 .825-.675 1.5-1.5 1.5h-21c-.825 0-1.5-.675-1.5-1.5v-21C3 3.675 3.675 3 4.5 3h21Zm0-.375h-21A1.877 1.877 0 0 0 2.625 4.5v21c0 1.034.841 1.875 1.875 1.875h21a1.877 1.877 0 0 0 1.875-1.875v-21A1.877 1.877 0 0 0 25.5 2.625Z" fill="#fff"/><path d="m6.261 19.182-.003.001a3.45 3.45 0 0 0-.257 1.282c-.003.394 0 3.535 0 3.535h7.822c.083-.189.316-.61.564-1.144a1.785 1.785 0 0 1-.728.148c-.3 0-.61-.068-.896-.198l-3.51-1.596c-.503-.228-.89-.627-1.063-1.092a1.363 1.363 0 0 1 .024-1.055l1.588-3.412.872-1.876a1.359 1.359 0 0 0-.377-1.426.681.681 0 0 0-1.086.238l-2.95 6.595ZM15.516 23.968a.806.806 0 0 1 .018-1.61l1.478-.001a.806.806 0 0 1 .019 1.61l-1.515.001ZM16.434 22.002a.806.806 0 0 1 .018-1.61h1.478a.806.806 0 0 1 .02 1.61h-1.516Z" fill="#fff"/><path d="m24.201 23.14-4.988-4.987h.547a.805.805 0 1 0-.02-1.612h-1.477a.798.798 0 0 0-.496.165l-.353-.352 2.141-4.604c.132-.282.116-.611-.045-.927a1.7 1.7 0 0 0-.822-.758l-3.51-1.595a1.835 1.835 0 0 0-.753-.167h-.045c-.494.014-.892.243-1.065.614l-1.06 2.278L6.86 5.798 5.8 6.86l5.783 5.784-3.054 6.567c-.111.24-.116.511-.014.787.14.38.462.707.882.898l3.51 1.595c.24.11.5.167.752.167h.045c.495-.014.893-.243 1.065-.613l1.973-4.242.636.635h-.017a.806.806 0 0 0-.018 1.61h1.515c.041 0 .08-.004.12-.01L23.14 24.2l1.06-1.06ZM13.976 9.544l4.618 2.076-1.866 4.047-3.816-3.816 1.064-2.307ZM12.198 20.75a.504.504 0 0 1-.673.228.499.499 0 0 1-.24-.665c.12-.247.42-.349.672-.229.252.12.36.418.24.666Zm2.374-.408-4.618-2.077 2.289-4.962 3.815 3.816-1.486 3.223Z" fill="#fff"/><path d="M6.86 5.798 5.798 6.86 23.14 24.201l1.06-1.06L6.86 5.798Z" fill="#EB0000"/></g><defs><clipPath id="a"><path fill="#fff" d="M0 0h30v30H0z"/></clipPath></defs></svg>