<svg class="color-immutable" width="24" height="24" viewBox="0 0 24 24" fill="none" xmlns="http://www.w3.org/2000/svg"><g clip-path="url(#a)"><path d="M0 22.5v-21C0 .675.675 0 1.5 0h21c.825 0 1.5.675 1.5 1.5v21c0 .825-.675 1.5-1.5 1.5h-21C.675 24 0 23.325 0 22.5Z" fill="#2D327D"/><path d="m3.261 16.182-.003.001a3.459 3.459 0 0 0-.257 1.282c-.003.395 0 3.535 0 3.535h7.821c.084-.188.316-.61.565-1.144a1.78 1.78 0 0 1-.674.148l-.055.001c-.3 0-.61-.069-.896-.199l-3.509-1.595c-.504-.229-.892-.627-1.064-1.093a1.362 1.362 0 0 1 .025-1.054l1.587-3.412.872-1.876a1.36 1.36 0 0 0-.377-1.427.68.68 0 0 0-1.085.238l-2.95 6.595ZM12.516 20.967a.805.805 0 1 1 .019-1.611h1.478a.805.805 0 1 1 .019 1.61l-1.516.001ZM13.434 19.002a.805.805 0 1 1 .02-1.611h1.477a.805.805 0 1 1 .019 1.61l-1.516.001ZM14.342 17.048a.805.805 0 1 1 .019-1.611h1.478a.805.805 0 1 1 .019 1.61h-1.516v.001ZM15.245 15.153a.805.805 0 1 1 .019-1.611h1.478a.807.807 0 0 1 .019 1.611h-1.516Z" fill="#fff"/><path d="M16.51 7.822a1.699 1.699 0 0 0-.823-.757l-3.51-1.595a1.83 1.83 0 0 0-.752-.168l-.045.001c-.494.014-.892.243-1.065.614L5.528 16.21a1.008 1.008 0 0 0-.014.788c.14.379.462.706.882.897l3.509 1.595c.241.109.501.167.752.167l.045-.001c.495-.014.893-.243 1.065-.613L16.555 8.75c.132-.282.116-.611-.045-.928ZM9.198 17.75a.505.505 0 0 1-.673.229.499.499 0 0 1-.24-.665.504.504 0 0 1 .672-.229c.253.12.36.417.241.665Zm2.374-.408-4.618-2.077 4.022-8.721 4.618 2.076-4.022 8.722Z" fill="#fff"/></g><defs><clipPath id="a"><path fill="#fff" d="M0 0h24v24H0z"/></clipPath></defs></svg>