<svg class="color-immutable" width="30" height="30" viewBox="0 0 30 30" fill="none" xmlns="http://www.w3.org/2000/svg"><g clip-path="url(#a)"><path d="M30.002 0h-30v30h30V0Z" fill="#2D327D"/><path d="M25.5 3c.825 0 1.5.675 1.5 1.5v21c0 .825-.675 1.5-1.5 1.5h-21c-.825 0-1.5-.675-1.5-1.5v-21C3 3.675 3.675 3 4.5 3h21Zm0-.375h-21A1.877 1.877 0 0 0 2.625 4.5v21c0 1.034.841 1.875 1.875 1.875h21a1.877 1.877 0 0 0 1.875-1.875v-21A1.877 1.877 0 0 0 25.5 2.625Z" fill="#fff"/><path d="m20.478 15.223-.003.755a.298.298 0 0 1-.3.297h-.102l-.515-1.35h.617c.165 0 .302.133.303.298ZM5.997 6h1.817c.306 0 .546.02.722.057.175.038.334.105.476.202.392.262.588.659.588 1.188 0 .47-.162.84-.487 1.109a1.265 1.265 0 0 1-.47.248c-.177.05-.395.075-.654.075H6.98v1.623h-.982V6Zm.982.831v1.275h.878c.26 0 .449-.046.563-.138.142-.115.213-.285.213-.508 0-.226-.082-.395-.246-.505-.12-.082-.314-.124-.582-.124h-.826Z" fill="#fff"/><path d="M21.375 18.75c-.224 0-.44.028-.648.08l-2.072-5.437a.3.3 0 0 0-.281-.192V13.2h-1.986a.338.338 0 1 0 0 .675h1.809l1.97 5.17a2.624 2.624 0 1 0 1.208-.295Zm0 4.125a1.5 1.5 0 0 1-.803-2.765l.523 1.372a.3.3 0 1 0 .56-.214l-.522-1.372a1.5 1.5 0 1 1 .242 2.979ZM11.25 16.35a.675.675 0 0 0-.675-.675H6.75v.675h4.5Z" fill="#fff"/><path d="M18.274 14.925h-1.959a.671.671 0 0 0-.41.14c-.493.384-1.635 1.275-1.775 1.386a.884.884 0 0 1-.555.199H6.75v.9h1.875a3.824 3.824 0 0 1 3.812 3.525h-1.205a2.625 2.625 0 1 0 0 .6h5.721a.611.611 0 0 0 .611-.611v-.021a3.82 3.82 0 0 1 1.904-2.984l-1.194-3.134Zm-9.65 7.95a1.5 1.5 0 1 1 1.47-1.8H8.627a.3.3 0 1 0-.001.6h1.47a1.5 1.5 0 0 1-1.47 1.2Z" fill="#fff"/></g><defs><clipPath id="a"><path fill="#fff" d="M0 0h30v30H0z"/></clipPath></defs></svg>