<svg class="color-immutable" width="24" height="24" viewBox="0 0 24 24" fill="none" xmlns="http://www.w3.org/2000/svg"><g clip-path="url(#a)"><path d="M0 22.5v-21C0 .675.675 0 1.5 0h21c.825 0 1.5.675 1.5 1.5v21c0 .825-.675 1.5-1.5 1.5h-21C.675 24 0 23.325 0 22.5Z" fill="#2D327D"/><path d="m17.478 12.223-.003.755a.298.298 0 0 1-.3.297h-.102l-.514-1.349h.616a.3.3 0 0 1 .303.297ZM2.997 3h1.817c.306 0 .546.019.722.057.175.038.334.105.476.202.392.262.588.659.588 1.188 0 .47-.162.84-.487 1.109a1.255 1.255 0 0 1-.471.248c-.177.05-.394.076-.653.076h-1.01v1.623h-.982V3Zm.982.831v1.275h.878c.261 0 .449-.046.563-.139.142-.114.213-.284.213-.507 0-.226-.082-.394-.246-.505-.119-.082-.314-.124-.582-.124h-.826Z" fill="#fff"/><path d="M18.375 15.75c-.224 0-.441.028-.648.081l-2.071-5.438a.298.298 0 0 0-.282-.192V10.2h-1.986a.337.337 0 1 0 0 .675h1.809l1.97 5.17A2.624 2.624 0 0 0 18.376 21a2.625 2.625 0 0 0-.001-5.25Zm0 4.125a1.5 1.5 0 0 1-.803-2.766l.523 1.372a.3.3 0 0 0 .387.173.3.3 0 0 0 .174-.387l-.523-1.372a1.491 1.491 0 0 1 1.742 1.479 1.5 1.5 0 0 1-1.5 1.501ZM8.25 13.35a.675.675 0 0 0-.675-.675H3.75v.675h4.5Z" fill="#fff"/><path d="M15.274 11.925h-1.959a.674.674 0 0 0-.411.139L11.13 13.45a.886.886 0 0 1-.555.2H3.75v.9h1.875a3.823 3.823 0 0 1 3.812 3.525H8.232a2.625 2.625 0 1 0 0 .6h5.721a.61.61 0 0 0 .611-.611v-.021a3.821 3.821 0 0 1 1.904-2.984l-1.194-3.134Zm-9.649 7.95a1.5 1.5 0 1 1 1.47-1.8H5.626a.308.308 0 0 0-.158.046.3.3 0 0 0 .157.555h1.47a1.5 1.5 0 0 1-1.47 1.199Z" fill="#fff"/></g><defs><clipPath id="a"><path fill="#fff" d="M0 0h24v24H0z"/></clipPath></defs></svg>