<svg class="color-immutable" width="24" height="24" viewBox="0 0 24 24" fill="none" xmlns="http://www.w3.org/2000/svg"><g clip-path="url(#a)"><path d="M0 22.5v-21C0 .675.675 0 1.5 0h21c.825 0 1.5.675 1.5 1.5v21c0 .825-.675 1.5-1.5 1.5h-21C.675 24 0 23.325 0 22.5Z" fill="#2D327D"/><path d="m6.522 12.223.003.755a.298.298 0 0 0 .3.297h.102l.514-1.349h-.616a.3.3 0 0 0-.303.297ZM2.997 3h1.817c.306 0 .546.019.722.057.175.038.334.105.476.202.392.262.588.659.588 1.188 0 .47-.162.84-.487 1.109a1.255 1.255 0 0 1-.471.248c-.177.05-.394.076-.653.076h-1.01v1.623h-.982V3Zm.982.831v1.275h.878c.261 0 .449-.046.563-.139.142-.114.213-.284.213-.507 0-.226-.082-.394-.246-.505-.119-.082-.314-.124-.582-.124h-.826Z" fill="#fff"/><path d="M3 18.375a2.625 2.625 0 1 0 3.834-2.33l1.97-5.17h1.809a.338.338 0 1 0 0-.675H8.626v.001a.3.3 0 0 0-.282.192l-2.071 5.438A2.625 2.625 0 0 0 3 18.375Zm1.125 0a1.5 1.5 0 0 1 1.742-1.479l-.523 1.372a.3.3 0 0 0 .561.214l.523-1.372a1.5 1.5 0 1 1-2.303 1.265ZM15.75 13.35c0-.373.302-.675.675-.675h3.825v.675h-4.5Z" fill="#fff"/><path d="M7.531 15.059a3.817 3.817 0 0 1 1.904 2.984v.021a.61.61 0 0 0 .611.611h5.721a2.626 2.626 0 1 0 .001-.6h-1.205a3.824 3.824 0 0 1 3.812-3.525h1.875v-.9h-6.825a.879.879 0 0 1-.555-.2l-1.774-1.386a.668.668 0 0 0-.411-.139H8.726l-1.195 3.134Zm9.374 3.617h1.47a.3.3 0 1 0-.001-.601h-1.469a1.5 1.5 0 1 1 0 .601Z" fill="#fff"/></g><defs><clipPath id="a"><path fill="#fff" d="M0 0h24v24H0z"/></clipPath></defs></svg>