<svg class="color-immutable" width="24" height="24" viewBox="0 0 24 24" fill="none" xmlns="http://www.w3.org/2000/svg"><path d="M0 22.5V1.5C0 0.675 0.675 0 1.5 0H22.5C23.325 0 24 0.675 24 1.5V22.5C24 23.325 23.325 24 22.5 24H1.5C0.675 24 0 23.325 0 22.5Z" fill="#2D327D"/><path d="M21 20.7H3V21H21V20.7Z" fill="white"/><path d="M3 7.27502L5.467 16.8H5.468C5.581 17.19 5.941 17.475 6.368 17.475H7.529L4.35 7.27502H3Z" fill="white"/><path d="M8.475 11.475H7.5C7.294 11.475 7.125 11.644 7.125 11.85V15.171L7.843 17.475H8.1C8.512 17.475 8.85 17.138 8.85 16.725V11.85C8.85 11.644 8.681 11.475 8.475 11.475Z" fill="white"/><path d="M5.175 5.925C5.333 5.759 5.325 5.68 5.325 5.528V3.375C5.325 3.169 5.156 3 4.95 3H3.375C3.169 3 3 3.169 3 3.375V6.825H4.35L5.175 5.925Z" fill="white"/><path d="M9.15001 8.17497H8.77501L9.66301 7.29797H9.06401L7.96301 8.39997L9.06501 9.50197H9.66401L8.77501 8.62497H9.15001C10.639 8.62497 11.85 9.83697 11.85 11.327H12.3C12.3 9.58897 10.887 8.17497 9.15001 8.17497Z" fill="white"/></svg>