<svg class="color-immutable" width="30" height="30" viewBox="0 0 30 30" fill="none" xmlns="http://www.w3.org/2000/svg"><path d="M30 0H0v30h30V0Z" fill="#2D327D"/><path d="M25.5 3c.825 0 1.5.675 1.5 1.5v21c0 .825-.675 1.5-1.5 1.5h-21c-.825 0-1.5-.675-1.5-1.5v-21C3 3.675 3.675 3 4.5 3h21Zm0-.375h-21A1.877 1.877 0 0 0 2.625 4.5v21c0 1.034.841 1.875 1.875 1.875h21a1.877 1.877 0 0 0 1.875-1.875v-21A1.877 1.877 0 0 0 25.5 2.625Z" fill="#fff"/><path d="M12.612 21.81a2.38 2.38 0 1 0 4.758 0v-2.378h-4.758v2.379Z" fill="#fff"/><path d="m24.192 23.131-6.66-6.661.718-2.979c.073-.303.077-.62.01-.924l-1.218-5.612a1.449 1.449 0 0 0-1.415-1.14h-1.272c-.681 0-1.27.474-1.415 1.14l-.877 4.046L6.85 5.79 5.79 6.85l5.915 5.915c-.033.362.008.729.227 1.14l1.023 1.927 3.027 1.21 7.15 7.15 1.06-1.06Z" fill="#fff"/><path d="M6.85 5.79 5.79 6.85 23.13 24.192l1.061-1.06L6.85 5.788Z" fill="#EB0000"/></svg>