<svg class="color-immutable" width="24" height="24" viewBox="0 0 24 24" fill="none" xmlns="http://www.w3.org/2000/svg"><g clip-path="url(#a)"><path d="M0 22.5v-21C0 .675.675 0 1.5 0h21c.825 0 1.5.675 1.5 1.5v21c0 .825-.675 1.5-1.5 1.5h-21C.675 24 0 23.325 0 22.5Z" fill="#2D327D"/><path d="M11.628 4.087v.225a5.44 5.44 0 0 0 5.438 5.438h.75V8.624h-.75a4.314 4.314 0 0 1-4.312-4.312v-.225h-1.126Z" fill="#fff"/><path d="M17.815 6.374h-.75a2.064 2.064 0 0 1-2.063-2.062v-.225h-1.125v.225a3.188 3.188 0 0 0 3.188 3.187h.75c1.138 0 2.062.924 2.062 2.063v.188h1.125v-.188a3.187 3.187 0 0 0-3.187-3.188ZM19.878 10.874h1.125v2.25h-1.125v-2.25ZM21.05 19.973l-6.849-6.849h4.402v-2.25h-6.652L3.708 2.631l-1.06 1.061 7.182 7.182H3.003v2.25h9.077l7.91 7.91 1.06-1.061Z" fill="#fff"/><path d="m3.708 2.631-1.06 1.061L19.99 21.034l1.06-1.061L3.708 2.631Z" fill="#EB0000"/></g><defs><clipPath id="a"><path fill="#fff" d="M0 0h24v24H0z"/></clipPath></defs></svg>