<svg class="color-immutable" width="24" height="24" viewBox="0 0 24 24" fill="none" xmlns="http://www.w3.org/2000/svg"><path d="M0 22.5V1.5C0 0.675 0.675 0 1.5 0H22.5C23.325 0 24 0.675 24 1.5V22.5C24 23.325 23.325 24 22.5 24H1.5C0.675 24 0 23.325 0 22.5Z" fill="#2D327D"/><path d="M9.011 6.46501L10.655 4.82201L8.77301 2.93901C8.70201 2.86901 8.60801 2.82901 8.50901 2.82901C8.40901 2.82901 8.314 2.87001 8.242 2.93901L7.12801 4.05301C7.05901 4.12301 7.01801 4.21901 7.01801 4.31801C7.01801 4.41801 7.05901 4.51301 7.12801 4.58401L9.011 6.46501Z" fill="white"/><path d="M12.751 7.50101L10.895 5.64401L9.83402 6.70501L10.629 7.50101H7.12602C6.09002 7.50101 5.24902 8.34001 5.24902 9.37501V10.5H6.74802V9.37401C6.74902 9.16801 6.91802 9.00001 7.12602 9.00001H16.5V7.50001H12.751V7.50101Z" fill="white"/><path d="M9 14.295L10.508 12.788L9.712 11.993L9 12.704V12.263C9 12.117 8.883 12 8.738 12H3.263C3.118 12 3 12.117 3 12.264V12.705L2.288 11.993L1.492 12.788L3 14.295V18.704L1.492 20.212L2.288 21.007L3.149 20.146C3.39 20.651 3.904 21 4.501 21H7.501C8.097 21 8.61 20.651 8.852 20.148L9.712 21.008L10.508 20.213L9 18.705V14.295ZM6 15.601C5.94 15.573 5.879 15.547 5.818 15.523L4.884 14.589C5.271 14.596 5.652 14.683 6 14.85C6.205 14.948 6.421 15.018 6.643 15.062L6.072 15.633C6.048 15.622 6.024 15.612 6 15.601ZM8.326 15.601C8.049 15.733 7.752 15.815 7.449 15.847L8.326 14.97V15.601ZM4.837 13.162C5.24 13.162 5.638 13.251 6 13.424C6.363 13.597 6.76 13.688 7.163 13.688C7.535 13.688 7.903 13.609 8.244 13.46L7.27 14.434C7.234 14.435 7.199 14.437 7.163 14.437C6.76 14.437 6.363 14.348 6 14.175C5.638 14.002 5.24 13.912 4.837 13.912C4.645 13.912 4.455 13.933 4.269 13.973L3.706 13.41C4.06 13.247 4.446 13.162 4.837 13.162ZM4.136 15.431C3.978 15.474 3.824 15.53 3.676 15.6V14.971L4.136 15.431Z" fill="white"/><path d="M6 15.705L2.288 11.992L1.492 12.788L5.204 16.5L1.492 20.213L2.288 21.008L6 17.296L9.712 21.008L10.508 20.213L6.795 16.5L10.508 12.788L9.712 11.992L6 15.705Z" fill="#EB0000"/></svg>