<svg class="color-immutable" width="24" height="24" viewBox="0 0 24 24" fill="none" xmlns="http://www.w3.org/2000/svg"><g clip-path="url(#a)"><path d="M0 22.5v-21C0 .675.675 0 1.5 0h21c.825 0 1.5.675 1.5 1.5v21c0 .825-.675 1.5-1.5 1.5h-21C.675 24 0 23.325 0 22.5Z" fill="#2D327D"/><path d="m9.011 6.465 1.644-1.643-1.882-1.883a.376.376 0 0 0-.531 0L7.128 4.053a.38.38 0 0 0-.11.265c0 .1.041.195.11.266l1.883 1.881Z" fill="#fff"/><path d="m12.751 7.501-1.856-1.857-1.061 1.061.795.796H7.126a1.876 1.876 0 0 0-1.877 1.874V10.5h1.499V9.374A.378.378 0 0 1 7.126 9H16.5V7.5h-3.749v.001ZM9 14.295l1.508-1.507-.796-.795-.712.711v-.441A.262.262 0 0 0 8.738 12H3.263a.263.263 0 0 0-.263.264v.441l-.712-.712-.796.795L3 14.295v4.409l-1.508 1.508.796.795.861-.861c.241.505.755.854 1.352.854h3a1.5 1.5 0 0 0 1.351-.852l.86.86.796-.795L9 18.705v-4.41Zm-3 1.306a3.211 3.211 0 0 0-.182-.078l-.934-.934A2.69 2.69 0 0 1 6 14.85c.205.098.421.168.643.212l-.571.571L6 15.601Zm2.326 0a2.696 2.696 0 0 1-.877.246l.877-.877v.631Zm-3.489-2.439c.403 0 .801.089 1.163.262.363.173.76.264 1.163.264.372 0 .74-.079 1.081-.228l-.974.974c-.036.001-.071.003-.107.003-.403 0-.8-.089-1.163-.262a2.699 2.699 0 0 0-1.731-.202l-.563-.563c.354-.163.74-.248 1.131-.248Zm-.701 2.269a2.786 2.786 0 0 0-.46.169v-.629l.46.46Z" fill="#fff"/><path d="m6 15.705-3.712-3.713-.796.796L5.204 16.5l-3.712 3.713.796.795L6 17.296l3.712 3.712.796-.795L6.795 16.5l3.713-3.712-.796-.796L6 15.705Z" fill="#EB0000"/></g><defs><clipPath id="a"><path fill="#fff" d="M0 0h24v24H0z"/></clipPath></defs></svg>