<svg class="color-immutable" width="24" height="24" viewBox="0 0 24 24" fill="none" xmlns="http://www.w3.org/2000/svg"><g clip-path="url(#a)"><path d="M0 22.5v-21C0 .675.675 0 1.5 0h21c.825 0 1.5.675 1.5 1.5v21c0 .825-.675 1.5-1.5 1.5h-21C.675 24 0 23.325 0 22.5Z" fill="#2D327D"/><path fill-rule="evenodd" clip-rule="evenodd" d="M4.079 9.117a1.881 1.881 0 0 1-.044-.076l-.988-1.699a.293.293 0 0 1-.001-.317c.174-.295.345-.592.518-.889l.014-.026-.534-.315.001-.006h1.709c.019 0 .032.002.044.021l.863 1.48a.409.409 0 0 1 .013.025 103.46 103.46 0 0 1-.542-.312.295.295 0 0 0-.019.032l-.97 1.677a.492.492 0 0 0-.06.385c.002.006.001.012.002.019l-.006.001ZM9.072 4.072l.539-.311c-.007.016-.01.024-.015.031l-.84 1.464c-.008.015-.017.023-.036.023l-1.711.006-.025-.001c.182-.108.357-.21.535-.314l-.02-.035-.955-1.667a.489.489 0 0 0-.314-.253c-.004-.001-.007-.004-.018-.01h.04L8.185 3c.059 0 .118 0 .176.009.082.012.138.065.179.136l.522.912a.128.128 0 0 1 .01.015ZM7.88 9.948v.616l-.008.002-.014-.021-.841-1.46c-.009-.014-.013-.025-.003-.042l.857-1.494.009-.012v.622H9.849a.51.51 0 0 0 .372-.145.2.2 0 0 1 .019-.015.856.856 0 0 0-.02.038l-.971 1.688c-.029.05-.058.1-.094.145-.049.06-.119.081-.194.081l-.518-.002h-.521l-.042-.001Z" fill="#fff"/><path fill-rule="evenodd" clip-rule="evenodd" d="M6.59 8.153v1.782h-.036c-.415 0-.83.01-1.244-.003-.374-.011-.658-.186-.818-.535a.82.82 0 0 1-.078-.47.409.409 0 0 1 .046-.142c.115-.204.234-.405.35-.607.011-.019.023-.025.045-.025H6.59ZM8.199 6.316l1.537-.89.02.031c.208.357.424.71.622 1.073a.877.877 0 0 1 .045.805.948.948 0 0 1-.39.442.464.464 0 0 1-.244.067 51.68 51.68 0 0 0-.682 0c-.018 0-.03-.003-.041-.021-.285-.497-.572-.993-.858-1.489l-.009-.018ZM4.258 4.77l.161-.283c.158-.279.311-.559.475-.834a.857.857 0 0 1 .629-.426.925.925 0 0 1 .615.115.461.461 0 0 1 .175.173l.344.593c.01.017.012.03.001.048-.283.493-.565.988-.847 1.482l-.014.023-1.539-.891Z" fill="#fff"/><path d="m19.644 16.76-4.439 3.307s-.435.335-.546.599a.315.315 0 0 0-.023.19c.028.133.181.196.299.13l6.03-3.401-1.321-.825ZM12.611 9.864l-6.257 4.732s-.241.216-.287.265a1.457 1.457 0 0 0-.391.938l-.004.074 8.118 5.066c.079-.487.381-.988.82-1.344.282-.229 6.187-4.613 6.187-4.613l-8.186-5.118Zm1.304 8.796a2.863 2.863 0 0 0-.507.532l-6.076-3.799c.088-.11.188-.213.3-.304a9.453 9.453 0 0 1 .275-.21l6.025 3.767a.127.127 0 0 0-.017.014Zm-5.253-4.348.632-.472 6.017 3.762-.632.472-6.017-3.762Zm7.972 2.31-6.022-3.76 1.834-1.363 6.023 3.76-.008.006-1.827 1.357Z" fill="#fff"/></g><defs><clipPath id="a"><path fill="#fff" d="M0 0h24v24H0z"/></clipPath></defs></svg>