<svg class="color-immutable" width="30" height="30" viewBox="0 0 30 30" fill="none" xmlns="http://www.w3.org/2000/svg"><g clip-path="url(#a)"><path d="M30 0H0v30h30V0Z" fill="#2D327D"/><path d="M25.5 3c.825 0 1.5.675 1.5 1.5v21c0 .825-.675 1.5-1.5 1.5h-21c-.825 0-1.5-.675-1.5-1.5v-21C3 3.675 3.675 3 4.5 3h21Zm0-.375h-21A1.877 1.877 0 0 0 2.625 4.5v21c0 1.034.841 1.875 1.875 1.875h21a1.877 1.877 0 0 0 1.875-1.875v-21A1.877 1.877 0 0 0 25.5 2.625Z" fill="#fff"/><path d="M6 10.508h5.445c.916 0 1.638.057 2.164.17a4.014 4.014 0 0 1 1.426.605c1.175.788 1.762 1.975 1.762 3.562 0 1.41-.486 2.517-1.458 3.322a3.796 3.796 0 0 1-1.412.743c-.529.151-1.18.227-1.956.227H8.944V24H6V10.508ZM8.944 13v3.82h2.63c.781 0 1.344-.138 1.689-.415.424-.345.637-.852.637-1.523 0-.677-.247-1.181-.739-1.513-.357-.246-.938-.37-1.744-.37H8.944ZM6.214 6h.907c.153 0 .273.01.361.028a.67.67 0 0 1 .238.101c.195.131.293.33.293.594a.68.68 0 0 1-.243.554.633.633 0 0 1-.235.123 1.208 1.208 0 0 1-.326.038h-.505v.81h-.49V6Zm.49.415v.637h.439c.13 0 .224-.023.281-.07.071-.057.106-.141.106-.253 0-.113-.04-.197-.123-.252-.06-.041-.156-.062-.29-.062h-.413ZM8.272 7.298v-.301h.624V6.37h.302v.626h.626v.301h-.626v.625h-.302v-.625h-.624ZM10.197 6h1.09c.215 0 .38.034.495.102.095.055.168.129.218.221.05.092.076.196.076.312a.617.617 0 0 1-.095.343.522.522 0 0 1-.264.21c.1.024.178.08.234.166.036.054.06.11.072.17.013.06.029.196.048.408.014.156.036.253.066.29l.022.027h-.513a.372.372 0 0 1-.037-.122 5.359 5.359 0 0 1-.03-.341c-.012-.16-.051-.27-.116-.33-.065-.061-.176-.092-.333-.092h-.442v.885h-.49V6Zm.491.386v.618h.47c.15 0 .256-.021.318-.064.078-.055.117-.137.117-.246 0-.107-.034-.185-.1-.234-.067-.05-.172-.074-.316-.074h-.489ZM13.957 8.249H13.5a.605.605 0 0 1-.029-.168.722.722 0 0 1-.54.214c-.172 0-.306-.04-.403-.12a.475.475 0 0 1-.166-.386c0-.21.095-.356.285-.437.077-.033.218-.063.424-.09a1.37 1.37 0 0 0 .332-.07c.043-.021.065-.066.065-.132 0-.147-.098-.22-.292-.22-.104 0-.18.018-.227.055-.048.037-.08.101-.095.192h-.421a.545.545 0 0 1 .21-.422c.128-.095.309-.142.543-.142.26 0 .452.053.576.158.057.05.095.102.114.159a.914.914 0 0 1 .029.267l-.005.339-.003.347c0 .122.004.212.01.269.008.057.024.119.049.187Zm-.491-.81a.865.865 0 0 1-.314.084.758.758 0 0 0-.23.063c-.067.036-.1.097-.1.183 0 .07.021.124.066.163a.27.27 0 0 0 .184.058.403.403 0 0 0 .319-.138.27.27 0 0 0 .059-.1.467.467 0 0 0 .016-.136v-.178ZM14.703 6v.401h-.446V6h.446Zm0 .572V8.25h-.446V6.572h.446ZM15.515 6v2.249h-.446V6h.446Z" fill="#fff"/></g><defs><clipPath id="a"><path fill="#fff" d="M0 0h30v30H0z"/></clipPath></defs></svg>