<svg class="color-immutable" width="30" height="30" viewBox="0 0 30 30" fill="none" xmlns="http://www.w3.org/2000/svg"><g clip-path="url(#a)"><path d="M30 0H0v30h30V0Z" fill="#2D327D" stroke="#2D327D" stroke-miterlimit="10"/><path d="M25.5 3c.825 0 1.5.675 1.5 1.5v21c0 .825-.675 1.5-1.5 1.5h-21c-.825 0-1.5-.675-1.5-1.5v-21C3 3.675 3.675 3 4.5 3h21Zm0-.375h-21A1.877 1.877 0 0 0 2.625 4.5v21c0 1.034.841 1.875 1.875 1.875h21a1.877 1.877 0 0 0 1.875-1.875v-21A1.877 1.877 0 0 0 25.5 2.625Z" fill="#fff"/><path d="M11.32 6H6v12.115l8.592-3.128L11.32 6ZM23.25 17.782l-.208-.572a1.65 1.65 0 0 0-1.55-1.084H13.44L6 18.833v1.199c0 .35.061.697.181 1.026l.944 2.593 5.427-1.975-.52-1.426h4.439l6.78-2.468ZM23.625 21h-4.5a.375.375 0 0 0-.375.375v.75c0 .208.167.375.374.375h1.125V24h2.25v-1.5h1.126a.375.375 0 0 0 .375-.374v-.75a.376.376 0 0 0-.375-.376Z" fill="#fff"/></g><defs><clipPath id="a"><path fill="#fff" d="M0 0h30v30H0z"/></clipPath></defs></svg>