<svg class="color-immutable" width="24" height="24" viewBox="0 0 24 24" fill="none" xmlns="http://www.w3.org/2000/svg"><path d="M0 22.5V1.5C0 0.675 0.675 0 1.5 0H22.5C23.325 0 24 0.675 24 1.5V22.5C24 23.325 23.325 24 22.5 24H1.5C0.675 24 0 23.325 0 22.5Z" fill="#2D327D"/><path d="M8.32 3H3V15.115L11.592 11.987L8.32 3Z" fill="white"/><path d="M20.25 14.782L20.042 14.21C19.804 13.558 19.184 13.126 18.491 13.126H10.44L3 15.833V17.032C3 17.382 3.061 17.729 3.181 18.058L4.125 20.652L9.552 18.676L9.033 17.25H13.471L20.25 14.782Z" fill="white"/><path d="M20.625 18H16.125C15.918 18 15.751 18.168 15.751 18.375V19.125C15.751 19.332 15.918 19.499 16.125 19.499H17.25V21H19.5V19.5H20.625C20.832 19.5 21 19.333 21 19.126V18.376C21 18.168 20.832 18 20.625 18Z" fill="white"/></svg>