<svg class="color-immutable" width="24" height="24" viewBox="0 0 24 24" fill="none" xmlns="http://www.w3.org/2000/svg"><g clip-path="url(#a)"><path d="M0 22.5v-21C0 .675.675 0 1.5 0h21c.825 0 1.5.675 1.5 1.5v21c0 .825-.675 1.5-1.5 1.5h-21C.675 24 0 23.325 0 22.5Z" fill="#2D327D"/><path d="M8.32 3H3v12.115l8.592-3.128L8.32 3ZM20.25 14.782l-.208-.572a1.65 1.65 0 0 0-1.551-1.084H10.44L3 15.833v1.199c0 .35.061.697.181 1.026l.944 2.594 5.427-1.976-.519-1.426h4.438l6.779-2.468ZM20.625 18h-4.5a.374.374 0 0 0-.374.375v.75c0 .207.167.374.374.374h1.125V21h2.25v-1.5h1.125a.374.374 0 0 0 .375-.374v-.75a.375.375 0 0 0-.375-.376Z" fill="#fff"/></g><defs><clipPath id="a"><path fill="#fff" d="M0 0h24v24H0z"/></clipPath></defs></svg>