<svg class="color-immutable" width="30" height="30" viewBox="0 0 30 30" fill="none" xmlns="http://www.w3.org/2000/svg"><path d="M30 0H0v30h30V0Z" fill="#2D327D"/><path d="M25.5 3c.825 0 1.5.675 1.5 1.5v21c0 .825-.675 1.5-1.5 1.5h-21c-.825 0-1.5-.675-1.5-1.5v-21C3 3.675 3.675 3 4.5 3h21Zm0-.375h-21A1.877 1.877 0 0 0 2.625 4.5v21c0 1.034.841 1.875 1.875 1.875h21a1.877 1.877 0 0 0 1.875-1.875v-21A1.877 1.877 0 0 0 25.5 2.625Z" fill="#fff"/><path d="M18.699 9.304a1.5 1.5 0 1 1-3-.003 1.5 1.5 0 0 1 3 .003ZM22.131 11.26h-6.182a1.21 1.21 0 0 0-1.105.576l-1.151 1.872-.634 1.04-.432.705c-1.146 1.879-.542 3.416 1.345 3.416h3.43l.571 2.42h-.004l.01.038c.005.013.008.026.011.038l.5 2.11a.766.766 0 0 0 1.485-.332l-.008-.042-1.211-5.09a.901.901 0 0 0-.832-.632H14.986l2.982-4.912h4.163a.603.603 0 1 0 0-1.207Z" fill="#fff"/><path d="M22.525 13.071h-.806v10.89h.806V13.07ZM16.103 19.587h-4.305v.003h-.868a.374.374 0 0 1-.341-.262l-2.497-9.37a.568.568 0 0 0-.021-.062l-.054-.204a.383.383 0 0 0-.74.198l2.174 8.16h.002L10 20.094a.374.374 0 0 0 .34.262h5.496l.043-.003h.224a.382.382 0 1 0 0-.766Z" fill="#fff"/></svg>