<svg class="color-immutable" width="30" height="30" viewBox="0 0 30 30" fill="none" xmlns="http://www.w3.org/2000/svg"><path d="M30 0H0v30h30V0Z" fill="#2D327D"/><path d="M25.5 3c.825 0 1.5.675 1.5 1.5v21c0 .825-.675 1.5-1.5 1.5h-21c-.825 0-1.5-.675-1.5-1.5v-21C3 3.675 3.675 3 4.5 3h21Zm0-.375h-21A1.877 1.877 0 0 0 2.625 4.5v21c0 1.034.841 1.875 1.875 1.875h21a1.877 1.877 0 0 0 1.875-1.875v-21A1.877 1.877 0 0 0 25.5 2.625Z" fill="#fff"/><path d="M17.499 19.51h-4.303v.002h-.87a.375.375 0 0 1-.34-.262L9.489 9.88a.587.587 0 0 0-.02-.06l-.054-.204a.382.382 0 1 0-.74.197l2.173 8.16h.003l.546 2.044a.374.374 0 0 0 .34.261h5.495l.044-.003h.223a.383.383 0 1 0 0-.766Z" fill="#fff"/><path d="m21.328 22.988-1.21-5.086a.903.903 0 0 0-.831-.632h-.81a2.928 2.928 0 0 0-3.382-4.014l-.042-.156c-.004-.016-.013-.035-.018-.053l-.202-.773a1.503 1.503 0 0 0-1.838-1.073 1.503 1.503 0 0 0-1.072 1.838h-.002l.09.34h-.008l.384 1.437.489 1.86.004-.002.38 1.46a.898.898 0 0 0 .82.629l4.684-.003.571 2.417h-.003l.01.038a.381.381 0 0 0 .01.038l.5 2.107a.764.764 0 0 0 .787.505.77.77 0 0 0 .696-.835l-.007-.042ZM14.367 9.18a1.498 1.498 0 1 1-2.996-.001 1.498 1.498 0 0 1 2.996.001Z" fill="#fff"/></svg>