<svg class="color-immutable" width="24" height="24" viewBox="0 0 24 24" fill="none" xmlns="http://www.w3.org/2000/svg"><g clip-path="url(#a)"><path d="M0 22.5v-21C0 .675.675 0 1.5 0h21c.825 0 1.5.675 1.5 1.5v21c0 .825-.675 1.5-1.5 1.5h-21C.675 24 0 23.325 0 22.5Z" fill="#2D327D"/><path d="M15.699 6.304a1.5 1.5 0 1 1-3-.002 1.5 1.5 0 0 1 3 .002ZM19.131 8.26h-6.182a1.209 1.209 0 0 0-1.105.576l-1.151 1.872-.634 1.039-.432.706c-1.145 1.878-.542 3.415 1.345 3.415h3.43l.572 2.421h-.004l.01.038c.005.013.008.026.011.038l.499 2.109a.765.765 0 0 0 1.485-.33l-.007-.042-1.212-5.091a.902.902 0 0 0-.831-.632h-2.937l2.981-4.912h4.163a.604.604 0 1 0-.001-1.207Z" fill="#fff"/><path d="M19.525 10.071h-.806v10.89h.806v-10.89ZM13.103 16.587H8.799v.003H7.93a.374.374 0 0 1-.341-.263l-2.497-9.37a.558.558 0 0 0-.021-.061l-.054-.204a.383.383 0 1 0-.739.197l2.173 8.161h.003L7 17.095a.374.374 0 0 0 .341.262h5.495l.044-.003h.223a.384.384 0 0 0 0-.767Z" fill="#fff"/></g><defs><clipPath id="a"><path fill="#fff" d="M0 0h24v24H0z"/></clipPath></defs></svg>