<svg class="color-immutable" width="24" height="24" viewBox="0 0 24 24" fill="none" xmlns="http://www.w3.org/2000/svg"><g clip-path="url(#a)"><path d="M0 22.5v-21C0 .675.675 0 1.5 0h21c.825 0 1.5.675 1.5 1.5v21c0 .825-.675 1.5-1.5 1.5h-21C.675 24 0 23.325 0 22.5Z" fill="#2D327D"/><path d="M14.499 16.509h-4.303v.003h-.869a.374.374 0 0 1-.341-.263L6.489 6.881a.651.651 0 0 0-.021-.062l-.053-.203a.383.383 0 1 0-.739.197l2.173 8.16.003-.001.547 2.044a.373.373 0 0 0 .341.261h5.494l.044-.003h.223c.212 0 .383-.17.383-.382a.387.387 0 0 0-.385-.383Z" fill="#fff"/><path d="m18.328 19.988-1.21-5.086a.902.902 0 0 0-.831-.631h-.81a2.928 2.928 0 0 0-3.381-4.014l-.043-.157c-.005-.016-.014-.035-.018-.053l-.202-.772a1.504 1.504 0 1 0-2.91.764h-.002l.089.341-.007-.002.384 1.438.489 1.859.004-.001.381 1.46a.898.898 0 0 0 .819.629l4.683-.003.572 2.417h-.003a.421.421 0 0 0 .01.038.421.421 0 0 0 .01.038l.499 2.108a.763.763 0 0 0 .788.504.769.769 0 0 0 .695-.835l-.006-.042ZM11.367 6.18a1.498 1.498 0 1 1-2.996-.002 1.498 1.498 0 0 1 2.996.002Z" fill="#fff"/></g><defs><clipPath id="a"><path fill="#fff" d="M0 0h24v24H0z"/></clipPath></defs></svg>