<svg class="color-immutable" width="24" height="24" viewBox="0 0 24 24" fill="none" xmlns="http://www.w3.org/2000/svg"><g clip-path="url(#a)"><path d="M0 22.5v-21C0 .675.675 0 1.5 0h21c.825 0 1.5.675 1.5 1.5v21c0 .825-.675 1.5-1.5 1.5h-21C.675 24 0 23.325 0 22.5Z" fill="#2D327D"/><path d="M15.918 6.426a4.96 4.96 0 0 1-.888 6.957 3.229 3.229 0 0 0-1.25 2.681 4.18 4.18 0 0 1-.52 2.188 2.417 2.417 0 0 1-4.152.135.477.477 0 1 1 .804-.515 1.464 1.464 0 0 0 2.51-.081c.285-.516.424-1.1.4-1.689a4.186 4.186 0 0 1 1.621-3.473A4.003 4.003 0 1 0 8 9.214a.477.477 0 0 1-.954-.058 4.959 4.959 0 0 1 8.872-2.73Z" fill="#fff"/><path d="M14.648 7.409a3.352 3.352 0 0 1-.601 4.703 4.062 4.062 0 0 0-.275.232.387.387 0 0 1-.518-.575c.104-.093.21-.183.32-.268A2.58 2.58 0 1 0 9.743 8.2a.387.387 0 0 1-.674-.377 3.353 3.353 0 0 1 5.579-.414ZM9.814 14.185a5.235 5.235 0 0 1-2.457-2.457L3 16.084V21l6.814-6.815ZM15.21 3.874a6.414 6.414 0 0 1 2.459 2.457l1.618-1.618L21 3h-4.916l-.874.874Z" fill="#fff"/></g><defs><clipPath id="a"><path fill="#fff" d="M0 0h24v24H0z"/></clipPath></defs></svg>