<svg class="color-immutable" width="24" height="24" viewBox="0 0 24 24" fill="none" xmlns="http://www.w3.org/2000/svg"><g clip-path="url(#a)"><path d="M0 22.5v-21C0 .675.675 0 1.5 0h21c.825 0 1.5.675 1.5 1.5v21c0 .825-.675 1.5-1.5 1.5h-21C.675 24 0 23.325 0 22.5Z" fill="#2D327D"/><path fill-rule="evenodd" clip-rule="evenodd" d="M4.079 9.117a1.881 1.881 0 0 1-.044-.076l-.988-1.699a.293.293 0 0 1-.001-.317c.174-.295.345-.592.518-.889l.014-.026-.534-.315.001-.006h1.709c.019 0 .032.002.044.021l.863 1.48a.409.409 0 0 1 .013.025 103.46 103.46 0 0 1-.542-.312.295.295 0 0 0-.019.032l-.97 1.677a.492.492 0 0 0-.06.385c.002.006.001.012.002.019l-.006.001ZM9.072 4.072l.539-.311c-.007.016-.01.024-.015.031l-.84 1.464c-.008.015-.017.023-.036.023l-1.711.006-.025-.001c.182-.108.357-.21.535-.314l-.02-.035-.955-1.667a.489.489 0 0 0-.314-.253c-.004-.001-.007-.004-.018-.01h.04L8.185 3c.059 0 .118 0 .176.009.082.012.138.065.179.136l.522.912a.128.128 0 0 1 .01.015ZM7.88 9.948v.616l-.008.002-.014-.021-.841-1.46c-.009-.014-.013-.025-.003-.042l.857-1.494.009-.012v.622H9.849a.51.51 0 0 0 .372-.145.2.2 0 0 1 .019-.015.856.856 0 0 0-.02.038l-.971 1.688c-.029.05-.058.1-.094.145-.049.06-.119.081-.194.081l-.518-.002h-.521l-.042-.001Z" fill="#fff"/><path fill-rule="evenodd" clip-rule="evenodd" d="M6.59 8.153v1.782h-.036c-.415 0-.83.01-1.244-.003-.374-.011-.658-.186-.818-.535a.82.82 0 0 1-.078-.47.409.409 0 0 1 .046-.142c.115-.204.234-.405.35-.607.011-.019.023-.025.045-.025H6.59ZM8.199 6.316l1.537-.89.02.031c.208.357.424.71.622 1.073a.877.877 0 0 1 .045.805.948.948 0 0 1-.39.442.464.464 0 0 1-.244.067 51.68 51.68 0 0 0-.682 0c-.018 0-.03-.003-.041-.021-.285-.497-.572-.993-.858-1.489l-.009-.018ZM4.258 4.77l.161-.283c.158-.279.311-.559.475-.834a.857.857 0 0 1 .629-.426.925.925 0 0 1 .615.115.461.461 0 0 1 .175.173l.344.593c.01.017.012.03.001.048-.283.493-.565.988-.847 1.482l-.014.023-1.539-.891Z" fill="#fff"/><path d="M20.95 5.719a.374.374 0 0 0-.137-.512l-1.786-1.031a.374.374 0 0 0-.512.137l-.469.812 2.436 1.406.468-.812ZM11.116 13.764a1.894 1.894 0 0 0-.075.116l-2.098 3.634a.844.844 0 0 0 1.097 1.182 6.45 6.45 0 0 0 .035-1.166l.74-.041c.039.71-.012 1.346-.142 1.837a1.772 1.772 0 0 0 1.195.69c.36-.359.886-.721 1.52-1.042l.335.661a6.542 6.542 0 0 0-.992.613.844.844 0 0 0 1.572.359l2.098-3.634c.023-.039.043-.08.063-.123.14-.26.245-.515.323-.763l-5.171-2.985a4.426 4.426 0 0 0-.5.662ZM18.665 12.411l-4.804-2.774a5.145 5.145 0 0 1-1.667 2.935l4.763 2.75a5.146 5.146 0 0 1 1.708-2.911ZM19.572 11.345c.027-.039.053-.078.076-.118 1.17-2.026-.284-2.797.074-3.817.012-.031.024-.063.038-.094l.004.002a.226.226 0 0 0 .333-.143l-2.42-1.397a.227.227 0 0 0 .043.36l.004.002-.062.08c-.704.82-2.098-.053-3.268 1.973-.023.04-.044.081-.064.125a4.715 4.715 0 0 0-.261.573l5.138 2.966a4.69 4.69 0 0 0 .365-.512Z" fill="#fff"/></g><defs><clipPath id="a"><path fill="#fff" d="M0 0h24v24H0z"/></clipPath></defs></svg>