<svg class="color-immutable" width="30" height="30" viewBox="0 0 30 30" fill="none" xmlns="http://www.w3.org/2000/svg"><g clip-path="url(#a)"><path d="M30 0H0v30h30V0Z" fill="#237F52"/><path d="M25.5 3c.825 0 1.5.675 1.5 1.5v21c0 .825-.675 1.5-1.5 1.5h-21c-.825 0-1.5-.675-1.5-1.5v-21C3 3.675 3.675 3 4.5 3h21Zm0-.375h-21A1.877 1.877 0 0 0 2.625 4.5v21c0 1.034.841 1.875 1.875 1.875h21a1.877 1.877 0 0 0 1.875-1.875v-21A1.877 1.877 0 0 0 25.5 2.625Z" fill="#fff"/><path d="m13.732 17.76-.634-1.726.937-1.208.172-1.328.355.046-.184 1.425-.875 1.128.565 1.54-.336.123ZM10.84 12.679H8.582v-.358h2.174l1.311-.664 1.44.383-.091.346-1.309-.347-1.265.64ZM17.093 13.543l-.796-.864h-.725v-.358h.882l.903.979-.264.242ZM10.507 13.687l-.134-.332 1.565-.631.746.299.757-.35.15.325-.897.415-.756-.303-1.431.577ZM19.412 14.081a.432.432 0 0 0-.297-.119h-.01a.43.43 0 0 0-.3.134l-.131.137 1.302 1.242-.142.15-1.595-1.522a.428.428 0 0 0-.297-.118h-.01a.426.426 0 0 0-.3.133l-.13.137 1.905 1.817-.143.15-2.197-2.096a.428.428 0 0 0-.297-.12l-.01.001a.424.424 0 0 0-.299.133l-.132.138 2.508 2.391-.142.15-2.848-2.716a.445.445 0 0 0-.306-.122h-.012a.445.445 0 0 0-.296.766l2.704 2.58a.473.473 0 0 1 .148.333l.018.755a.333.333 0 0 1-.325.341l-1.354.033a.713.713 0 0 0-.662.491.356.356 0 0 0 .34.468h.009l3.946-.098.747-.018L24 21.53v-3.417l-1.734-1.022-2.854-3.01ZM6.608 22.447h.782l1.341-1.624.72-.2 3.803-1.057a.357.357 0 0 0 .197-.55.713.713 0 0 0-.777-.276l-1.304.363a.333.333 0 0 1-.41-.231l-.203-.728a.473.473 0 0 1 .044-.361l1.835-3.257a.445.445 0 0 0-.776-.437l-1.932 3.428-.18-.101 1.703-3.019-.167-.093a.422.422 0 0 0-.325-.04.427.427 0 0 0-.258.202l-1.492 2.646-.18-.101 1.293-2.294-.165-.093a.427.427 0 0 0-.584.163l-1.082 1.92-.18-.102.884-1.567-.166-.093a.43.43 0 0 0-.585.163l-2.087 3.735v3.353c0 .139.113.251.251.251Z" fill="#fff"/><path d="M6.358 18.403v-7.006h14.978c.25 0 .498.207.543.451l.986 5.347.408.24-1.043-5.651a.945.945 0 0 0-.894-.745H6.358V9.61c0-.137.114-.251.25-.251h16.784a.25.25 0 0 1 .25.25v8.045l.358.21V9.608A.61.61 0 0 0 23.392 9H6.608A.61.61 0 0 0 6 9.608v9.435l.121-.217.237-.423ZM23.642 21.567v.63a.25.25 0 0 1-.25.25H7.668l-.295.358h16.019a.61.61 0 0 0 .608-.609v-.416l-.11-.065-.248-.148Z" fill="#fff"/><path d="M13.502 19.126a.367.367 0 0 0-.051-.11.713.713 0 0 0-.777-.276l-1.304.363a.333.333 0 0 1-.41-.231l-.203-.728a.473.473 0 0 1 .044-.361l1.835-3.257a.445.445 0 0 0-.776-.437l-1.932 3.428-.18-.101 1.703-3.019-.167-.093a.422.422 0 0 0-.325-.04.427.427 0 0 0-.258.202l-1.492 2.646-.18-.101 1.293-2.294-.165-.093a.427.427 0 0 0-.584.163l-1.082 1.92-.18-.102.884-1.567-.166-.093a.43.43 0 0 0-.585.163l-2.087 3.735-.049.087-.308.553v2.713a.61.61 0 0 0 .608.608h.487l.295-.357 1.341-1.624.72-.2 3.803-1.057a.357.357 0 0 0 .248-.44Z" fill="#fff"/><path d="M15.133 12.5a.617.617 0 1 0-1.234 0 .617.617 0 0 0 1.234 0Z" fill="#EB0000"/></g><defs><clipPath id="a"><path fill="#fff" d="M0 0h30v30H0z"/></clipPath></defs></svg>