<svg class="color-immutable" width="24" height="24" viewBox="0 0 24 24" fill="none" xmlns="http://www.w3.org/2000/svg"><g clip-path="url(#a)"><path d="M0 22.5v-21C0 .675.675 0 1.5 0h21c.825 0 1.5.675 1.5 1.5v21c0 .825-.675 1.5-1.5 1.5h-21C.675 24 0 23.325 0 22.5Z" fill="#237F52"/><path d="m10.731 14.76-.633-1.726.937-1.208.172-1.328.355.046-.184 1.425-.875 1.128.565 1.54-.337.123ZM7.841 9.679h-2.26v-.358h2.174l1.311-.664 1.441.383-.092.346-1.309-.347-1.265.64ZM14.093 10.542l-.796-.863h-.725v-.358h.882l.903.978-.264.243ZM7.507 10.687l-.134-.332 1.565-.631.746.299.757-.35.15.325-.897.415-.756-.303-1.431.577ZM16.412 11.081a.43.43 0 0 0-.297-.119h-.009a.43.43 0 0 0-.301.134l-.131.137 1.302 1.242-.142.149-1.595-1.521a.428.428 0 0 0-.297-.119h-.009a.432.432 0 0 0-.3.133l-.131.138 1.905 1.817-.142.149-2.198-2.095a.427.427 0 0 0-.297-.119h-.01a.423.423 0 0 0-.299.133l-.132.138 2.508 2.391-.142.149-2.848-2.716a.444.444 0 0 0-.306-.122h-.012a.445.445 0 0 0-.296.766l2.705 2.58a.472.472 0 0 1 .148.333l.018.755a.332.332 0 0 1-.325.341l-1.353.033a.713.713 0 0 0-.662.492.356.356 0 0 0 .339.468h.009l3.946-.098.747-.018L21 18.53v-3.418l-1.734-1.022-2.854-3.009ZM3.608 19.447h.782l1.341-1.624.72-.2 3.803-1.057a.357.357 0 0 0 .197-.549.712.712 0 0 0-.777-.278l-1.304.364a.334.334 0 0 1-.411-.232l-.203-.727a.47.47 0 0 1 .045-.361l1.835-3.256a.444.444 0 0 0-.507-.647.45.45 0 0 0-.269.209l-1.932 3.428-.18-.101 1.702-3.019-.167-.093a.42.42 0 0 0-.325-.04.426.426 0 0 0-.258.203l-1.491 2.645-.179-.101 1.293-2.293-.166-.093a.424.424 0 0 0-.584.163l-1.082 1.92-.18-.101.884-1.567-.165-.093a.428.428 0 0 0-.585.163l-2.087 3.735v3.354a.25.25 0 0 0 .25.248Z" fill="#fff"/><path d="M3.358 15.403V8.397h14.979c.249 0 .498.207.543.452l.986 5.346.408.241-1.043-5.652a.946.946 0 0 0-.894-.744H3.358V6.608c0-.136.115-.251.251-.251h16.784c.138 0 .251.112.251.251v8.045l.356.21V6.608A.61.61 0 0 0 20.392 6H3.608A.61.61 0 0 0 3 6.608v9.435l.121-.217.237-.423ZM20.642 18.567v.629a.251.251 0 0 1-.251.251H4.668l-.295.358h16.019a.61.61 0 0 0 .608-.608v-.417l-.109-.065-.249-.148Z" fill="#fff"/><path d="M10.502 16.126a.376.376 0 0 0-.051-.109.712.712 0 0 0-.777-.278l-1.304.364a.334.334 0 0 1-.411-.232l-.203-.727a.47.47 0 0 1 .045-.361l1.835-3.256a.444.444 0 0 0-.507-.647.45.45 0 0 0-.269.209l-1.932 3.428-.18-.101 1.702-3.019-.167-.093a.42.42 0 0 0-.325-.04.426.426 0 0 0-.258.203l-1.491 2.645-.179-.101 1.293-2.293-.166-.093a.424.424 0 0 0-.584.163l-1.082 1.92-.18-.101.884-1.567-.165-.093a.428.428 0 0 0-.585.163l-2.087 3.735-.049.088-.309.55v2.713a.61.61 0 0 0 .608.608h.487l.295-.358 1.341-1.624.72-.2 3.803-1.057a.356.356 0 0 0 .248-.439Z" fill="#fff"/><path d="M12.133 9.5a.617.617 0 1 0-1.234 0 .617.617 0 0 0 1.234 0Z" fill="#EB0000"/></g><defs><clipPath id="a"><path fill="#fff" d="M0 0h24v24H0z"/></clipPath></defs></svg>