<svg class="color-immutable" width="24" height="24" viewBox="0 0 24 24" fill="none" xmlns="http://www.w3.org/2000/svg"><g clip-path="url(#a)"><path d="M0 22.5v-21C0 .675.675 0 1.5 0h21c.825 0 1.5.675 1.5 1.5v21c0 .825-.675 1.5-1.5 1.5h-21C.675 24 0 23.325 0 22.5Z" fill="#2D327D"/><path d="M7.778 3.709a1.87 1.87 0 0 0-2.154-.083L2.983 5.15h4.795V3.709ZM10.41 7.648a9.338 9.338 0 0 0 4.733-2.122H10.41v2.122ZM10.41 5.15h4.795l-2.641-1.525h-.001a1.868 1.868 0 0 0-2.154.083V5.15h.001ZM7.778 5.525H3.045a9.341 9.341 0 0 0 4.733 2.122V5.525Z" fill="#fff"/><path d="M15.846 10.064a.937.937 0 0 0-.937.937v2.45h-.376V9.869a.937.937 0 1 0-1.874 0v2.85h-.376V9.121a.936.936 0 1 0-1.875 0v2.827h-.375V3.917a.937.937 0 1 0-1.875 0V14.23H7.78l-.001.001v-2.408c0-.595-.374-1.125-.936-1.324a.702.702 0 0 0-.935.661v4.524l-.003.002c0 .468.097.951.253 1.328L7.809 21l7.777-.001.96-2.327a3.66 3.66 0 0 0 .237-1.325v-6.345a.937.937 0 0 0-.937-.938Z" fill="#fff"/></g><defs><clipPath id="a"><path fill="#fff" d="M0 0h24v24H0z"/></clipPath></defs></svg>