<svg class="color-immutable" width="24" height="24" viewBox="0 0 24 24" fill="none" xmlns="http://www.w3.org/2000/svg"><g clip-path="url(#a)"><path d="M0 22.5v-21C0 .675.675 0 1.5 0h21c.825 0 1.5.675 1.5 1.5v21c0 .825-.675 1.5-1.5 1.5h-21C.675 24 0 23.325 0 22.5Z" fill="#2D327D"/><path d="M17.753 5.627a1.312 1.312 0 1 0 0-2.625 1.312 1.312 0 0 0 0 2.625ZM3 21h14.325v-.663L3 18v3ZM19.05 16.21V8.513l.824 1.05v2.813a.489.489 0 0 0 .976 0V9.181a.747.747 0 0 0-.16-.463L19.104 6.7a1.498 1.498 0 0 0-2.679.927v5.046l-1.542 1.543a.747.747 0 0 0-.22.53v3.91a.694.694 0 0 0 1.386 0v-3.434l1.5-1.5v2.502a.75.75 0 0 0 .126.416l2.376 3.676a.693.693 0 1 0 1.165-.753L19.05 16.21Z" fill="#fff"/><path d="M14.719 11.545c.059 0 .117-.01.172-.03l.897-.325v-1.077l-1.241.449a.506.506 0 0 0 .172.983Z" fill="#fff"/></g><defs><clipPath id="a"><path fill="#fff" d="M0 0h24v24H0z"/></clipPath></defs></svg>