<svg class="color-immutable" width="30" height="30" viewBox="0 0 30 30" fill="none" xmlns="http://www.w3.org/2000/svg"><path d="M30 0H0v30h30V0Z" fill="#2D327D"/><path d="M25.5 3c.825 0 1.5.675 1.5 1.5v21c0 .825-.675 1.5-1.5 1.5h-21c-.825 0-1.5-.675-1.5-1.5v-21C3 3.675 3.675 3 4.5 3h21Zm0-.375h-21A1.877 1.877 0 0 0 2.625 4.5v21c0 1.034.841 1.875 1.875 1.875h21a1.877 1.877 0 0 0 1.875-1.875v-21A1.877 1.877 0 0 0 25.5 2.625Z" fill="#fff"/><path d="M9.136 18.223a1.564 1.564 0 0 0-.927-.507A1.399 1.399 0 0 0 6 16.892c.054-.22.162-.436.33-.644.457-.562.815-.678 1.058-.796-.38-.213-.92-.335-1.228-.302-.105.011-.04-.22-.02-.276.032-.09.08-.23.287-.202.29.04 1.079.515 1.185.603.158-.226.286-.592.95-1.014.134-.086.27-.15.405-.193-.363.518-.356 1.212.06 1.678.21.236.49.375.789.415a1.726 1.726 0 0 0 1.99 1.822c-.017.221-.06.399-.134.511-.28.43-.433.394-.749.665-.305.282-.288.438-.746.667-.162.081-.437.094-.768.054a1.57 1.57 0 0 0-.272-1.657ZM10.637 9.499l1.833 5.06 3.98-.815-.35-5.365-5.463 1.12ZM17.59 17.364h-1.203l-2.194 3.8a.754.754 0 0 0 .282 1.028l2.953 1.705a.754.754 0 0 0 1.031-.27l1.824-3.159-2.27-.17-.423-2.934Z" fill="#fff"/><path d="M23.905 10.75 22.6 9.996a.188.188 0 0 0-.257.068l-.194.335a.188.188 0 0 0 .058.25l.01.006s-1.276 1.809-1.778 2.678c-.501.87-2.396 1.163-3.27 2.675l-.14.245h1.523l.433 3.004 1.915.143.536-.929c.873-1.512.18-3.3.681-4.169h-.001c.502-.87 1.405-2.89 1.405-2.89l.016.006c.088.043.194.01.243-.075l.195-.337a.188.188 0 0 0-.07-.256ZM15.72 6.618l-.357.115L14.992 6 10.46 7.904l.056.385-.398.127.114.617 5.756-1.848-.267-.567Z" fill="#fff"/></svg>