<svg class="color-immutable" width="24" height="24" viewBox="0 0 24 24" fill="none" xmlns="http://www.w3.org/2000/svg"><g clip-path="url(#a)"><path d="M0 22.5v-21C0 .675.675 0 1.5 0h21c.825 0 1.5.675 1.5 1.5v21c0 .825-.675 1.5-1.5 1.5h-21C.675 24 0 23.325 0 22.5Z" fill="#2D327D"/><path d="M10.688 3.75c-.725 0-1.313.589-1.313 1.313V13.5h.751v6a.937.937 0 1 0 1.874 0V5.063a1.313 1.313 0 0 0-1.312-1.313ZM7.219 3.75a.281.281 0 0 0-.281.281v3.844h-.563V4.031a.281.281 0 0 0-.563 0v3.844H5.25V4.031a.281.281 0 0 0-.562 0v3.844h-.563V4.031a.281.281 0 0 0-.564 0V7.896c0 .756.39 1.457 1.031 1.855V19.5a.938.938 0 0 0 1.875 0V9.751A2.182 2.182 0 0 0 7.5 7.896V4.031a.281.281 0 0 0-.281-.281Z" fill="#fff"/></g><defs><clipPath id="a"><path fill="#fff" d="M0 0h24v24H0z"/></clipPath></defs></svg>