<svg class="color-immutable" width="30" height="30" viewBox="0 0 30 30" fill="none" xmlns="http://www.w3.org/2000/svg"><path d="M0 0h30v30H0V0Z" fill="#2D327D"/><path d="M25.5 3c.825 0 1.5.675 1.5 1.5v21c0 .825-.675 1.5-1.5 1.5h-21c-.825 0-1.5-.675-1.5-1.5v-21C3 3.675 3.675 3 4.5 3h21Zm0-.375h-21A1.877 1.877 0 0 0 2.625 4.5v21c0 1.034.841 1.875 1.875 1.875h21a1.877 1.877 0 0 0 1.875-1.875v-21A1.877 1.877 0 0 0 25.5 2.625Z" fill="#fff"/><path d="M13.688 6.75c-.725 0-1.313.589-1.313 1.313V16.5h.75v6a.937.937 0 1 0 1.876 0V8.063c0-.724-.588-1.313-1.313-1.313ZM10.219 6.75a.281.281 0 0 0-.28.281v3.844h-.564V7.031a.282.282 0 0 0-.563 0v3.844H8.25V7.031a.282.282 0 0 0-.563 0v3.844h-.562V7.031a.282.282 0 0 0-.563 0v3.864c0 .757.39 1.457 1.031 1.856V22.5a.938.938 0 0 0 1.876 0v-9.75a2.183 2.183 0 0 0 1.031-1.854V7.03a.282.282 0 0 0-.281-.281Z" fill="#fff"/></svg>