<svg class="color-immutable" width="24" height="24" viewBox="0 0 24 24" fill="none" xmlns="http://www.w3.org/2000/svg"><path d="M0 22.5V1.5C0 0.675 0.675 0 1.5 0H22.5C23.325 0 24 0.675 24 1.5V22.5C24 23.325 23.325 24 22.5 24H1.5C0.675 24 0 23.325 0 22.5Z" fill="#2D327D"/><path d="M17.701 7.50999V21.002H14.757V15.123H9.23799V21.002H6.29399V7.50999H9.23799V12.632H14.757V7.50999H17.701Z" fill="white"/><path d="M4.81199 3.666H4.34399C4.33499 3.556 4.29399 3.472 4.22199 3.415C4.14999 3.358 4.04899 3.328 3.91799 3.328C3.80199 3.328 3.71199 3.351 3.64799 3.396C3.58399 3.442 3.55199 3.506 3.55199 3.588C3.55199 3.662 3.58299 3.715 3.64399 3.748C3.70299 3.781 3.85399 3.827 4.09599 3.886C4.35099 3.95 4.52799 4.014 4.62699 4.078C4.80899 4.197 4.89999 4.363 4.89999 4.575C4.89999 4.808 4.80899 4.991 4.62599 5.126C4.46499 5.244 4.24699 5.303 3.97199 5.303C3.66599 5.303 3.42899 5.233 3.25999 5.094C3.09099 4.954 3.00299 4.755 2.99699 4.498H3.48599C3.49299 4.623 3.52499 4.716 3.58299 4.776C3.67299 4.872 3.80899 4.921 3.99099 4.921C4.11399 4.921 4.21099 4.897 4.28299 4.849C4.36399 4.794 4.40499 4.718 4.40499 4.623C4.40499 4.528 4.34799 4.458 4.23399 4.413C4.17099 4.389 4.02299 4.344 3.79099 4.28C3.64499 4.24 3.53099 4.202 3.44899 4.166C3.36699 4.13 3.30199 4.09 3.25199 4.046C3.13799 3.943 3.07999 3.802 3.07999 3.621C3.07999 3.405 3.16999 3.233 3.34899 3.107C3.50199 3 3.70099 2.946 3.94499 2.946C4.15899 2.946 4.33899 2.989 4.48299 3.074C4.69099 3.196 4.80099 3.393 4.81199 3.666Z" fill="white"/><path d="M6.69599 4.726C6.67299 4.82 6.62999 4.909 6.56899 4.992C6.42099 5.194 6.20899 5.295 5.93199 5.295C5.68199 5.295 5.48099 5.216 5.33099 5.058C5.25699 4.981 5.19999 4.888 5.16099 4.78C5.11899 4.664 5.09799 4.543 5.09799 4.417C5.09799 4.173 5.16799 3.968 5.30899 3.802C5.46599 3.616 5.66899 3.524 5.91799 3.524C6.11899 3.524 6.28999 3.586 6.43199 3.71C6.53399 3.799 6.60699 3.909 6.65299 4.04C6.69899 4.171 6.72199 4.335 6.72199 4.533H5.55199C5.55599 4.615 5.56899 4.683 5.58999 4.738C5.64999 4.885 5.76499 4.958 5.93499 4.958C6.01799 4.958 6.08599 4.94 6.13799 4.903C6.18999 4.865 6.23299 4.807 6.26699 4.726H6.69599ZM6.26699 4.232C6.25899 4.151 6.23999 4.084 6.21199 4.031C6.18299 3.978 6.14199 3.937 6.08899 3.906C6.03699 3.875 5.97899 3.86 5.91599 3.86C5.81699 3.86 5.73499 3.893 5.66999 3.96C5.60599 4.026 5.56699 4.117 5.55499 4.232H6.26699Z" fill="white"/><path d="M8.546 4.604C8.525 4.771 8.469 4.911 8.379 5.023C8.233 5.204 8.028 5.295 7.762 5.295C7.489 5.295 7.277 5.202 7.125 5.015C6.997 4.856 6.933 4.66 6.933 4.426C6.933 4.137 7.019 3.909 7.19 3.742C7.34 3.596 7.533 3.524 7.77 3.524C7.988 3.524 8.166 3.581 8.302 3.694C8.438 3.807 8.516 3.962 8.536 4.159H8.097C8.081 4.069 8.045 4 7.988 3.951C7.932 3.901 7.861 3.877 7.774 3.877C7.65 3.877 7.554 3.924 7.486 4.018C7.418 4.111 7.384 4.243 7.384 4.412C7.384 4.562 7.411 4.682 7.466 4.773C7.533 4.885 7.633 4.941 7.766 4.941C7.963 4.941 8.078 4.829 8.112 4.604H8.546Z" fill="white"/><path d="M9.708 3.566V3.881H9.374V4.67C9.374 4.764 9.383 4.824 9.4 4.85C9.426 4.887 9.483 4.905 9.572 4.905C9.607 4.905 9.652 4.902 9.707 4.897V5.254C9.607 5.265 9.514 5.271 9.43 5.271C9.303 5.271 9.206 5.257 9.139 5.228C9.035 5.182 8.971 5.098 8.945 4.976C8.934 4.924 8.928 4.816 8.928 4.651V3.881H8.657V3.566H8.929V3.172H9.374V3.566H9.708Z" fill="white"/><path d="M11.44 4.726C11.416 4.82 11.374 4.909 11.312 4.992C11.164 5.194 10.952 5.295 10.675 5.295C10.425 5.295 10.224 5.216 10.074 5.058C10 4.981 9.94399 4.888 9.90499 4.78C9.86299 4.664 9.842 4.543 9.842 4.417C9.842 4.173 9.912 3.968 10.053 3.802C10.21 3.616 10.413 3.524 10.662 3.524C10.863 3.524 11.034 3.586 11.176 3.71C11.278 3.799 11.351 3.909 11.397 4.04C11.443 4.171 11.466 4.335 11.466 4.533H10.296C10.3 4.615 10.313 4.683 10.334 4.738C10.394 4.885 10.509 4.958 10.679 4.958C10.762 4.958 10.83 4.94 10.882 4.903C10.934 4.867 10.977 4.808 11.011 4.727H11.44V4.726ZM11.011 4.232C11.003 4.151 10.984 4.084 10.956 4.031C10.927 3.979 10.887 3.937 10.834 3.906C10.781 3.875 10.722 3.86 10.66 3.86C10.561 3.86 10.479 3.893 10.414 3.96C10.349 4.027 10.311 4.117 10.299 4.232H11.011Z" fill="white"/><path d="M13.258 3.569V5.249H12.833V5.004C12.705 5.198 12.525 5.295 12.295 5.295C12.094 5.295 11.942 5.228 11.84 5.094C11.801 5.042 11.773 4.98 11.756 4.909C11.739 4.838 11.731 4.746 11.731 4.632V3.569H12.177V4.493C12.177 4.589 12.18 4.658 12.185 4.698C12.191 4.738 12.202 4.772 12.22 4.8C12.267 4.875 12.348 4.912 12.461 4.912C12.601 4.912 12.704 4.85 12.767 4.726C12.798 4.666 12.813 4.556 12.813 4.398V3.569H13.258Z" fill="white"/><path d="M14.647 3.541V3.973C14.575 3.96 14.517 3.953 14.473 3.953C14.307 3.953 14.185 4.023 14.107 4.162C14.063 4.24 14.041 4.37 14.041 4.553V5.248H13.595V3.568H14.02V3.874C14.141 3.646 14.317 3.533 14.548 3.533C14.575 3.534 14.609 3.536 14.647 3.541Z" fill="white"/></svg>