<svg class="color-immutable" width="24" height="24" viewBox="0 0 24 24" fill="none" xmlns="http://www.w3.org/2000/svg"><path d="M0 22.5V1.5C0 0.675 0.675 0 1.5 0H22.5C23.325 0 24 0.675 24 1.5V22.5C24 23.325 23.325 24 22.5 24H1.5C0.675 24 0 23.325 0 22.5Z" fill="#2D327D"/><path d="M18.273 15.797C18.174 17.194 17.707 18.387 16.87 19.378C15.775 20.676 14.224 21.325 12.219 21.325C10.084 21.325 8.423 20.571 7.236 19.064C6.221 17.778 5.713 16.172 5.713 14.247C5.713 12.229 6.316 10.546 7.522 9.199C8.728 7.858 10.33 7.187 12.33 7.187C14.194 7.187 15.695 7.802 16.834 9.033C17.646 9.9 18.095 10.9 18.181 12.032H15.274C15.114 11.269 14.772 10.68 14.25 10.265C13.727 9.85 13.066 9.642 12.266 9.642C10.986 9.642 10.03 10.18 9.396 11.257C8.922 12.075 8.685 13.078 8.685 14.265C8.685 15.483 8.934 16.498 9.433 17.31C10.067 18.35 11.005 18.87 12.248 18.87C13.134 18.87 13.84 18.609 14.366 18.086C14.892 17.563 15.216 16.8 15.34 15.797H18.273Z" fill="white"/><path d="M4.81199 3.666H4.34399C4.33499 3.556 4.29399 3.472 4.22199 3.415C4.14999 3.358 4.04899 3.328 3.91799 3.328C3.80199 3.328 3.71199 3.351 3.64799 3.396C3.58399 3.442 3.55199 3.506 3.55199 3.588C3.55199 3.662 3.58299 3.715 3.64399 3.748C3.70299 3.781 3.85399 3.827 4.09599 3.886C4.35099 3.95 4.52799 4.014 4.62699 4.078C4.80899 4.197 4.89999 4.363 4.89999 4.575C4.89999 4.808 4.80899 4.991 4.62599 5.126C4.46499 5.244 4.24699 5.303 3.97199 5.303C3.66599 5.303 3.42899 5.233 3.25999 5.094C3.09099 4.954 3.00299 4.755 2.99699 4.498H3.48599C3.49299 4.623 3.52499 4.716 3.58299 4.776C3.67299 4.872 3.80899 4.921 3.99099 4.921C4.11399 4.921 4.21099 4.897 4.28299 4.849C4.36399 4.794 4.40499 4.718 4.40499 4.623C4.40499 4.528 4.34799 4.458 4.23399 4.413C4.17099 4.389 4.02299 4.344 3.79099 4.28C3.64499 4.24 3.53099 4.202 3.44899 4.166C3.36699 4.13 3.30199 4.09 3.25199 4.046C3.13799 3.943 3.07999 3.802 3.07999 3.621C3.07999 3.405 3.16999 3.233 3.34899 3.107C3.50199 3 3.70099 2.946 3.94499 2.946C4.15899 2.946 4.33899 2.989 4.48299 3.074C4.69099 3.196 4.80099 3.393 4.81199 3.666Z" fill="white"/><path d="M6.69599 4.726C6.67299 4.82 6.62999 4.909 6.56899 4.992C6.42099 5.194 6.20899 5.295 5.93199 5.295C5.68199 5.295 5.48099 5.216 5.33099 5.058C5.25699 4.981 5.19999 4.888 5.16099 4.78C5.11899 4.664 5.09799 4.543 5.09799 4.417C5.09799 4.173 5.16799 3.968 5.30899 3.802C5.46599 3.616 5.66899 3.524 5.91799 3.524C6.11899 3.524 6.28999 3.586 6.43199 3.71C6.53399 3.799 6.60699 3.909 6.65299 4.04C6.69899 4.171 6.72199 4.335 6.72199 4.533H5.55199C5.55599 4.615 5.56899 4.683 5.58999 4.738C5.64999 4.885 5.76499 4.958 5.93499 4.958C6.01799 4.958 6.08599 4.94 6.13799 4.903C6.18999 4.865 6.23299 4.807 6.26699 4.726H6.69599ZM6.26699 4.232C6.25899 4.151 6.23999 4.084 6.21199 4.031C6.18299 3.978 6.14199 3.937 6.08899 3.906C6.03699 3.875 5.97899 3.86 5.91599 3.86C5.81699 3.86 5.73499 3.893 5.66999 3.96C5.60599 4.026 5.56699 4.117 5.55499 4.232H6.26699Z" fill="white"/><path d="M7.86399 3.566V3.881H7.52999V4.67C7.52999 4.764 7.53899 4.824 7.55599 4.85C7.58199 4.887 7.63899 4.905 7.72799 4.905C7.76299 4.905 7.80799 4.902 7.86299 4.897V5.254C7.76299 5.265 7.66999 5.271 7.58599 5.271C7.45899 5.271 7.36199 5.257 7.29499 5.228C7.19099 5.182 7.12699 5.098 7.10099 4.976C7.08999 4.924 7.08399 4.816 7.08399 4.651V3.881H6.81299V3.566H7.08499V3.172H7.52999V3.566H7.86399Z" fill="white"/><path d="M9.059 3.566V3.881H8.725V4.67C8.725 4.764 8.734 4.824 8.751 4.85C8.777 4.887 8.834 4.905 8.923 4.905C8.958 4.905 9.00299 4.902 9.05799 4.897V5.254C8.95799 5.265 8.865 5.271 8.781 5.271C8.654 5.271 8.557 5.257 8.49 5.228C8.386 5.182 8.32199 5.098 8.29599 4.976C8.28599 4.924 8.27999 4.816 8.27999 4.652V3.881H8.008V3.566H8.27999V3.172H8.725V3.566H9.059Z" fill="white"/><path d="M10.065 3.52299C10.309 3.52299 10.508 3.604 10.663 3.766C10.816 3.926 10.892 4.139 10.892 4.406C10.892 4.682 10.81 4.90199 10.647 5.06599C10.494 5.21899 10.295 5.295 10.05 5.295C9.78899 5.295 9.57999 5.20999 9.42599 5.03999C9.27899 4.87699 9.20499 4.66699 9.20499 4.40899C9.20499 4.15499 9.27699 3.948 9.41999 3.789C9.57899 3.612 9.79399 3.52299 10.065 3.52299ZM10.042 3.871C9.92399 3.871 9.82999 3.91899 9.76099 4.01399C9.68899 4.10999 9.65399 4.24199 9.65399 4.40899C9.65399 4.58199 9.68899 4.715 9.75899 4.807C9.83099 4.9 9.92899 4.947 10.053 4.947C10.169 4.947 10.261 4.90399 10.328 4.81899C10.405 4.72499 10.443 4.588 10.443 4.40799C10.443 4.24 10.409 4.10899 10.341 4.01599C10.271 3.91899 10.171 3.871 10.042 3.871Z" fill="white"/><path d="M12.23 3.541V3.973C12.158 3.96 12.1 3.953 12.056 3.953C11.89 3.953 11.768 4.023 11.69 4.162C11.646 4.24 11.624 4.37 11.624 4.553V5.248H11.178V3.568H11.603V3.874C11.724 3.646 11.9 3.533 12.131 3.533C12.159 3.534 12.192 3.536 12.23 3.541Z" fill="white"/><path d="M13.941 4.726C13.917 4.82 13.875 4.909 13.813 4.992C13.665 5.194 13.453 5.295 13.176 5.295C12.926 5.295 12.725 5.216 12.575 5.058C12.501 4.981 12.445 4.888 12.406 4.78C12.364 4.664 12.343 4.543 12.343 4.417C12.343 4.173 12.413 3.968 12.554 3.802C12.711 3.616 12.914 3.524 13.163 3.524C13.364 3.524 13.535 3.586 13.677 3.71C13.779 3.799 13.852 3.909 13.898 4.04C13.944 4.171 13.967 4.335 13.967 4.533H12.797C12.801 4.615 12.814 4.683 12.835 4.738C12.895 4.885 13.01 4.958 13.18 4.958C13.263 4.958 13.331 4.94 13.383 4.903C13.435 4.867 13.478 4.808 13.512 4.727H13.941V4.726ZM13.511 4.232C13.503 4.151 13.484 4.084 13.456 4.031C13.427 3.979 13.386 3.937 13.334 3.906C13.282 3.875 13.224 3.86 13.161 3.86C13.062 3.86 12.98 3.893 12.915 3.96C12.85 4.027 12.812 4.117 12.8 4.232H13.511Z" fill="white"/></svg>