<svg class="color-immutable" width="30" height="30" viewBox="0 0 30 30" fill="none" xmlns="http://www.w3.org/2000/svg"><path d="M30 0H0v30h30V0Z" fill="#2D327D"/><path d="M25.5 3c.825 0 1.5.675 1.5 1.5v21c0 .825-.675 1.5-1.5 1.5h-21c-.825 0-1.5-.675-1.5-1.5v-21C3 3.675 3.675 3 4.5 3h21Zm0-.375h-21A1.877 1.877 0 0 0 2.625 4.5v21c0 1.034.841 1.875 1.875 1.875h21a1.877 1.877 0 0 0 1.875-1.875v-21A1.877 1.877 0 0 0 25.5 2.625Z" fill="#fff"/><path d="m16.796 23.094-.413-9.063a.869.869 0 0 0-.868-.83h-1.958v-.54a2.16 2.16 0 1 0-4.32 0v.54H7.279a.869.869 0 0 0-.868.83l-.413 9.063a.867.867 0 0 0 .868.907h9.062a.867.867 0 0 0 .868-.907Zm-6.344-10.433a.945.945 0 1 1 1.89 0v.54h-1.89v-.54Zm-2.661 9.585.337-7.29h1.109v1.147a.607.607 0 1 0 1.215 0v-1.147h1.89v1.147a.607.607 0 1 0 1.215 0v-1.147h1.109l.337 7.29H7.79ZM7.96 6.666h-.467a.343.343 0 0 0-.122-.252.474.474 0 0 0-.304-.086.46.46 0 0 0-.27.068.222.222 0 0 0-.096.192c0 .073.03.127.092.16.06.032.21.078.452.138.256.064.433.128.531.192a.563.563 0 0 1 .272.497.647.647 0 0 1-.273.55c-.161.118-.38.177-.654.177-.306 0-.543-.07-.712-.209-.17-.14-.257-.338-.263-.595h.489c.007.125.04.218.097.278.09.097.226.145.407.145.123 0 .22-.024.293-.072a.26.26 0 0 0 .121-.226c0-.096-.057-.166-.17-.21a6.002 6.002 0 0 0-.444-.133 2.619 2.619 0 0 1-.341-.114.736.736 0 0 1-.197-.12.54.54 0 0 1-.172-.425c0-.216.09-.387.269-.513.153-.108.351-.162.595-.162.214 0 .394.043.539.128.208.122.317.32.329.592ZM8.788 6v.8a.522.522 0 0 1 .21-.207c.09-.05.191-.075.3-.075.225 0 .386.08.484.239.056.092.084.234.084.424V8.25h-.444V7.26c0-.123-.017-.208-.051-.255-.05-.07-.129-.105-.235-.105a.311.311 0 0 0-.302.185.41.41 0 0 0-.037.124c-.006.045-.009.118-.009.217v.822h-.446V6h.446ZM11.015 6.523c.244 0 .444.08.599.243.152.16.229.373.229.64 0 .276-.082.496-.245.66a.807.807 0 0 1-.597.229c-.26 0-.47-.085-.624-.255-.148-.162-.221-.373-.221-.631 0-.254.071-.461.215-.62.159-.177.374-.266.644-.266Zm-.023.347a.331.331 0 0 0-.281.144.655.655 0 0 0-.106.395c0 .173.034.306.104.398a.35.35 0 0 0 .294.14.333.333 0 0 0 .275-.127c.077-.095.116-.232.116-.411 0-.168-.034-.299-.102-.392a.349.349 0 0 0-.3-.147ZM12.555 6.572v.212a.586.586 0 0 1 .509-.263.64.64 0 0 1 .524.25c.134.164.2.38.2.649 0 .25-.059.455-.177.613a.628.628 0 0 1-.532.266.577.577 0 0 1-.503-.26v.817h-.446V6.572h.425Zm.389.332a.336.336 0 0 0-.28.136c-.07.089-.104.215-.104.377 0 .167.036.295.109.386.07.087.165.13.286.13a.332.332 0 0 0 .278-.129.604.604 0 0 0 .106-.377c0-.167-.036-.297-.107-.39a.339.339 0 0 0-.288-.133ZM14.479 6.572v.212a.586.586 0 0 1 .51-.263.64.64 0 0 1 .524.25c.133.164.2.38.2.649 0 .25-.06.455-.177.613a.628.628 0 0 1-.532.266.577.577 0 0 1-.503-.26v.817h-.446V6.572h.424Zm.39.332a.336.336 0 0 0-.28.136c-.07.089-.105.215-.105.377 0 .167.036.295.109.386.07.087.165.13.286.13a.332.332 0 0 0 .278-.129.605.605 0 0 0 .106-.377c0-.167-.036-.297-.107-.39a.339.339 0 0 0-.288-.133ZM16.439 6v.401h-.446V6h.446Zm0 .572V8.25h-.446V6.572h.446ZM17.218 6.574v.235a.632.632 0 0 1 .546-.288c.138 0 .254.035.35.105a.439.439 0 0 1 .159.21c.03.085.045.204.045.358v1.055h-.444v-.962a.74.74 0 0 0-.028-.236.21.21 0 0 0-.09-.105.356.356 0 0 0-.35.008.304.304 0 0 0-.121.133.74.74 0 0 0-.045.297v.865h-.446V6.574h.424ZM20.235 6.57v1.479a1.6 1.6 0 0 1-.025.314.66.66 0 0 1-.085.215c-.129.205-.36.307-.695.307-.465 0-.72-.175-.764-.527h.449c.03.14.139.21.324.21.142 0 .24-.04.297-.12.044-.063.066-.165.066-.307l.002-.208a.558.558 0 0 1-.498.265.625.625 0 0 1-.503-.222c-.128-.15-.191-.351-.191-.606 0-.254.064-.458.19-.612a.645.645 0 0 1 .522-.238c.112 0 .205.02.28.063a.605.605 0 0 1 .206.21V6.57h.425Zm-.811.316a.314.314 0 0 0-.285.157.597.597 0 0 0-.078.32c0 .164.038.288.114.373a.324.324 0 0 0 .257.114.327.327 0 0 0 .3-.167.629.629 0 0 0 .076-.326c0-.158-.039-.28-.118-.366a.345.345 0 0 0-.266-.105Z" fill="#fff"/></svg>