<svg class="color-immutable" width="24" height="24" viewBox="0 0 24 24" fill="none" xmlns="http://www.w3.org/2000/svg"><g clip-path="url(#a)"><path d="M0 22.5v-21C0 .675.675 0 1.5 0h21c.825 0 1.5.675 1.5 1.5v21c0 .825-.675 1.5-1.5 1.5h-21C.675 24 0 23.325 0 22.5Z" fill="#2D327D"/><path d="m13.796 20.094-.414-9.063a.869.869 0 0 0-.868-.83h-1.958v-.54a2.16 2.16 0 1 0-4.32 0v.54H4.279a.868.868 0 0 0-.868.83l-.413 9.063a.867.867 0 0 0 .867.907h9.063a.868.868 0 0 0 .868-.907ZM7.452 9.661a.945.945 0 1 1 1.89 0v.54h-1.89v-.54Zm-2.661 9.585.337-7.29h1.109v1.147a.607.607 0 0 0 1.215 0v-1.147h1.89v1.147a.607.607 0 0 0 1.214 0v-1.147h1.109l.337 7.29H4.791ZM4.961 3.666h-.468a.34.34 0 0 0-.122-.251.474.474 0 0 0-.304-.087.464.464 0 0 0-.27.068.223.223 0 0 0-.096.192c0 .074.031.127.092.16.059.033.21.079.452.138.256.064.433.128.531.192a.564.564 0 0 1 .272.497.647.647 0 0 1-.274.551c-.16.118-.378.177-.653.177-.306 0-.543-.07-.712-.209-.169-.14-.257-.339-.263-.596h.489c.007.125.039.218.097.278.09.096.226.145.408.145a.52.52 0 0 0 .292-.072.26.26 0 0 0 .122-.226c0-.095-.058-.165-.172-.21a6.039 6.039 0 0 0-.443-.133 2.623 2.623 0 0 1-.341-.114.74.74 0 0 1-.197-.12.54.54 0 0 1-.172-.425c0-.216.09-.388.269-.514.153-.107.351-.161.595-.161.214 0 .394.043.538.128.209.122.318.319.33.592ZM5.788 3v.8a.523.523 0 0 1 .21-.207.614.614 0 0 1 .301-.075c.225 0 .386.079.483.238.056.092.085.234.085.425v1.067h-.445v-.987c0-.123-.017-.208-.051-.255-.05-.07-.129-.105-.235-.105a.311.311 0 0 0-.301.185.417.417 0 0 0-.038.124 1.858 1.858 0 0 0-.009.217v.821h-.446V3h.446ZM8.015 3.523a.79.79 0 0 1 .598.243c.153.16.229.373.229.64 0 .276-.082.496-.245.66a.806.806 0 0 1-.596.229c-.261 0-.47-.085-.624-.255-.148-.163-.221-.373-.221-.631 0-.254.072-.461.215-.62.159-.177.374-.266.644-.266Zm-.023.348a.33.33 0 0 0-.281.143.652.652 0 0 0-.106.395c0 .173.035.306.105.398.072.093.17.14.294.14a.332.332 0 0 0 .275-.128c.077-.094.115-.231.115-.411 0-.168-.034-.299-.102-.392a.35.35 0 0 0-.3-.145ZM9.555 3.572v.212a.587.587 0 0 1 .509-.263.64.64 0 0 1 .524.249c.133.164.2.38.2.649 0 .251-.059.456-.177.614a.629.629 0 0 1-.532.266.579.579 0 0 1-.503-.26v.817H9.13V3.572h.425Zm.389.332a.336.336 0 0 0-.28.135c-.07.09-.104.216-.104.378 0 .167.036.296.109.386.07.087.165.131.286.131a.33.33 0 0 0 .278-.129.603.603 0 0 0 .106-.377c0-.167-.036-.297-.108-.391a.335.335 0 0 0-.287-.133ZM11.479 3.572v.212a.587.587 0 0 1 .509-.263.64.64 0 0 1 .524.249c.133.164.2.38.2.649 0 .251-.059.456-.177.614a.629.629 0 0 1-.532.266.579.579 0 0 1-.503-.26v.817h-.446V3.572h.425Zm.389.332a.336.336 0 0 0-.28.135c-.07.089-.105.215-.105.377 0 .167.036.296.109.386.07.087.165.131.286.131a.33.33 0 0 0 .278-.129.603.603 0 0 0 .106-.377c0-.167-.036-.297-.108-.391a.334.334 0 0 0-.286-.132ZM13.439 3v.401h-.446V3h.446Zm0 .572v1.677h-.446V3.572h.446ZM14.218 3.574v.235a.633.633 0 0 1 .546-.287c.137 0 .254.035.349.105a.432.432 0 0 1 .159.21c.03.085.045.204.045.358V5.25h-.445v-.963a.722.722 0 0 0-.028-.237.211.211 0 0 0-.089-.105.321.321 0 0 0-.165-.042.356.356 0 0 0-.185.049.306.306 0 0 0-.123.134.738.738 0 0 0-.045.297v.864h-.446V3.574h.427ZM17.235 3.569v1.48c0 .131-.008.236-.025.315a.654.654 0 0 1-.085.215c-.129.205-.361.308-.695.308-.466 0-.72-.176-.764-.528h.449c.031.14.139.211.325.211.142 0 .24-.04.297-.12.044-.064.066-.166.066-.308l.002-.208a.56.56 0 0 1-.498.265.627.627 0 0 1-.503-.221c-.127-.15-.191-.352-.191-.606s.064-.458.191-.612a.644.644 0 0 1 .521-.238c.112 0 .205.021.28.063a.596.596 0 0 1 .206.211v-.227h.424Zm-.811.317a.315.315 0 0 0-.285.157.6.6 0 0 0-.078.32c0 .164.038.289.114.374a.323.323 0 0 0 .257.114.328.328 0 0 0 .3-.168.632.632 0 0 0 .077-.326c0-.158-.039-.28-.118-.366a.346.346 0 0 0-.267-.105Z" fill="#fff"/></g><defs><clipPath id="a"><path fill="#fff" d="M0 0h24v24H0z"/></clipPath></defs></svg>