<svg class="color-immutable" width="30" height="30" viewBox="0 0 30 30" fill="none" xmlns="http://www.w3.org/2000/svg"><path d="M30 0H0v30h30V0Z" fill="#2D327D"/><path d="M25.5 3c.825 0 1.5.675 1.5 1.5v21c0 .825-.675 1.5-1.5 1.5h-21c-.825 0-1.5-.675-1.5-1.5v-21C3 3.675 3.675 3 4.5 3h21Zm0-.375h-21A1.877 1.877 0 0 0 2.625 4.5v21c0 1.034.841 1.875 1.875 1.875h21a1.877 1.877 0 0 0 1.875-1.875v-21A1.877 1.877 0 0 0 25.5 2.625Z" fill="#fff"/><path d="M6.385 21.748a.188.188 0 0 0-.186.16l-.281 1.88c-.002.009-.002.017-.002.027 0 .102.083.188.187.188.092 0 .171-.07.185-.16l.283-1.88.002-.027a.189.189 0 0 0-.188-.188ZM6.947 17.999a.187.187 0 0 0-.185.158l-.282 1.881a.187.187 0 0 0 .37.056l.283-1.881c.002-.008.002-.018.002-.028a.187.187 0 0 0-.188-.186ZM7.453 14.623a.187.187 0 0 0-.185.16l-.282 1.879-.002.028c0 .104.084.187.188.187a.19.19 0 0 0 .186-.16l.281-1.879a.188.188 0 0 0-.186-.216ZM7.622 13.877a.188.188 0 0 0 .185-.16l.282-1.879.001-.027a.188.188 0 0 0-.186-.19.188.188 0 0 0-.186.162l-.281 1.878-.002.028c0 .104.083.188.187.188ZM8.084 19.124a.187.187 0 0 0-.186.168l-.212 1.877v.02a.187.187 0 0 0 .373.02l.21-1.877c.003-.006.003-.013.003-.02a.187.187 0 0 0-.188-.188ZM8.463 15.75a.188.188 0 0 0-.186.165l-.21 1.878c-.002.006-.002.013-.002.02a.187.187 0 0 0 .374.02l.212-1.877v-.02a.187.187 0 0 0-.188-.187ZM8.989 12.936a.187.187 0 0 0-.188-.187.187.187 0 0 0-.186.165l-.211 1.878-.002.021a.188.188 0 0 0 .374.022l.211-1.878a.18.18 0 0 0 .002-.021ZM9.192 21.75a.188.188 0 0 0-.186.173l-.142 1.876v.014a.187.187 0 0 0 .374.014l.141-1.876.001-.013a.188.188 0 0 0-.188-.189ZM9.474 18a.187.187 0 0 0-.188.172l-.14 1.877v.013a.187.187 0 0 0 .374.016l.14-1.878.001-.014A.187.187 0 0 0 9.474 18ZM9.726 14.624a.188.188 0 0 0-.186.173l-.14 1.877-.001.014c0 .103.084.187.187.187.098 0 .18-.076.187-.173l.14-1.877.001-.013a.188.188 0 0 0-.188-.188ZM9.951 11.624a.187.187 0 0 0-.185.175l-.142 1.875v.014c0 .103.084.188.187.188.098 0 .18-.076.187-.174l.14-1.876v-.015a.188.188 0 0 0-.187-.187ZM10.694 19.125c-.1 0-.183.08-.187.18l-.07 1.876v.006c0 .104.084.189.187.189.101 0 .184-.081.187-.181l.071-1.875v-.008a.187.187 0 0 0-.188-.187ZM10.82 15.75c-.1 0-.183.08-.186.18l-.07 1.876v.007c0 .103.083.187.187.187a.186.186 0 0 0 .187-.18l.07-1.876v-.006a.188.188 0 0 0-.187-.189ZM10.933 12.75c-.1 0-.183.08-.186.18l-.071 1.875v.008c0 .103.083.187.188.187.1 0 .184-.08.186-.18l.07-1.876v-.008a.188.188 0 0 0-.187-.187ZM7.954 11.249h8.093a.45.45 0 0 0 .433-.57 4.65 4.65 0 0 0-3.73-3.343V6h-1.5v1.336a4.647 4.647 0 0 0-3.73 3.344.45.45 0 0 0 .434.569ZM12 11.626a.187.187 0 0 0-.187.185v1.877a.187.187 0 0 0 .374 0v-1.877a.187.187 0 0 0-.186-.185ZM12 14.625a.187.187 0 0 0-.187.187v1.876a.187.187 0 0 0 .374 0v-1.876a.188.188 0 0 0-.186-.187ZM12 18a.187.187 0 0 0-.187.189v1.873c0 .104.084.189.188.189a.188.188 0 0 0 .187-.189v-1.873a.188.188 0 0 0-.187-.19ZM12 21.75a.187.187 0 0 0-.187.188v1.875a.187.187 0 0 0 .374 0v-1.875a.188.188 0 0 0-.186-.188ZM13.137 15a.186.186 0 0 0 .187-.187v-.008l-.07-1.875a.188.188 0 0 0-.375.007v.007l.07 1.876c.005.1.087.18.188.18ZM13.25 18a.187.187 0 0 0 .187-.187v-.007l-.07-1.876a.189.189 0 0 0-.188-.18.188.188 0 0 0-.187.188v.006l.07 1.877c.004.1.087.179.187.179ZM13.306 19.125a.188.188 0 0 0-.189.187l.001.008.07 1.875a.188.188 0 0 0 .374-.007l.001-.007-.07-1.877a.187.187 0 0 0-.187-.179ZM14.377 13.688v-.014l-.141-1.875a.188.188 0 0 0-.188-.175.188.188 0 0 0-.186.202l.14 1.876a.19.19 0 0 0 .187.174.19.19 0 0 0 .188-.188ZM14.602 16.688l-.001-.014-.14-1.877a.189.189 0 0 0-.187-.173.188.188 0 0 0-.188.188v.013l.14 1.877c.01.097.09.173.188.173a.188.188 0 0 0 .188-.187ZM14.855 20.062v-.013l-.142-1.877a.188.188 0 0 0-.373.028l.141 1.878a.188.188 0 0 0 .374-.016ZM14.995 21.923a.188.188 0 0 0-.374.015v.013l.14 1.876a.188.188 0 0 0 .374-.014V23.8l-.14-1.876ZM15.598 14.813l-.001-.021-.211-1.878a.188.188 0 0 0-.374.021v.022l.212 1.878a.187.187 0 0 0 .374-.022ZM15.936 17.813l-.002-.02-.211-1.877a.187.187 0 0 0-.373.02v.02l.212 1.878a.188.188 0 0 0 .374-.02ZM16.103 19.291a.189.189 0 0 0-.187-.167.187.187 0 0 0-.186.188v.02l.211 1.878a.187.187 0 0 0 .374-.02l-.001-.021-.21-1.878ZM16.097 11.622a.19.19 0 0 0-.186.216l.282 1.879a.188.188 0 0 0 .373-.028c0-.01 0-.018-.002-.028l-.282-1.878a.189.189 0 0 0-.185-.161ZM17.016 16.69c0-.01 0-.019-.002-.028l-.282-1.88a.188.188 0 0 0-.37.056l.282 1.88a.187.187 0 0 0 .372-.028ZM17.523 20.066l-.002-.028-.283-1.881a.187.187 0 0 0-.185-.158.187.187 0 0 0-.185.213l.281 1.881a.188.188 0 0 0 .374-.027ZM18.083 23.787l-.282-1.88a.186.186 0 0 0-.185-.159.188.188 0 0 0-.188.188l.002.028.282 1.879c.013.09.093.16.186.16a.189.189 0 0 0 .187-.188l-.002-.028Z" fill="#fff"/></svg>