<svg class="color-immutable" width="30" height="30" viewBox="0 0 30 30" fill="none" xmlns="http://www.w3.org/2000/svg"><path d="M30 0H0V30H30V0Z" fill="#2D327D"/><path d="M4.5 3H25.5C26.325 3 27 3.675 27 4.5V25.5C27 26.325 26.325 27 25.5 27H4.5C3.675 27 3 26.325 3 25.5V4.5C3 3.675 3.675 3 4.5 3ZM4.5 2.625C3.46613 2.625 2.625 3.46613 2.625 4.5V25.5C2.625 26.5339 3.46613 27.375 4.5 27.375H25.5C26.5339 27.375 27.375 26.5339 27.375 25.5V4.5C27.375 3.46613 26.5339 2.625 25.5 2.625H4.5Z" fill="white"/><path d="M15 7.125C15.8284 7.125 16.5 7.79655 16.5 8.625C16.5 9.45345 15.8284 10.125 15 10.125C14.1716 10.125 13.5 9.45345 13.5 8.625C13.5 7.79655 14.1716 7.125 15 7.125Z" fill="white"/><path d="M13.5 14.5442V17.625C13.5 18.0392 13.8358 18.375 14.25 18.375H17.3307L13.5 14.5442Z" fill="white"/><path d="M17.9521 16.875L22.0816 21.0045L20.1304 17.625C19.8625 17.1609 19.3673 16.875 18.8314 16.875H17.9521Z" fill="white"/><path d="M16.875 15.7979V14.2364L18.0089 16.2004C18.1642 16.4694 18.5083 16.5616 18.7773 16.4063C19.0463 16.2509 19.1385 15.9069 18.9832 15.6379L16.6054 11.5196C16.3081 11.0048 15.7587 10.6876 15.1642 10.6876C14.245 10.6876 13.5 11.4326 13.5 12.3518V12.423L16.875 15.7979Z" fill="white"/><path d="M23.7505 23.2732L23.0239 24H23.6249C23.832 24 23.9999 23.8321 23.9999 23.625C23.9999 23.4622 23.8955 23.325 23.7505 23.2732Z" fill="white"/><path d="M22.2057 23.25H17.625V19.5C17.625 19.2929 17.4571 19.125 17.25 19.125H11.25V15.375C11.25 15.1679 11.0821 15 10.875 15H6.375C6.16793 15 6 15.1679 6 15.375C6 15.5821 6.16793 15.75 6.375 15.75H10.5V19.5C10.5 19.7071 10.6679 19.875 10.875 19.875H16.875V23.625C16.875 23.8321 17.0429 24 17.25 24H22.9557L22.2057 23.25Z" fill="white"/><path d="M6.70811 5.63115L5.64746 6.6918L22.9894 24.0337L24.0501 22.9731L6.70811 5.63115Z" fill="#EB0000"/></svg>