<svg class="color-immutable" width="24" height="24" viewBox="0 0 24 24" fill="none" xmlns="http://www.w3.org/2000/svg"><path d="M0 22.5V1.5C0 0.675 0.675 0 1.5 0H22.5C23.325 0 24 0.675 24 1.5V22.5C24 23.325 23.325 24 22.5 24H1.5C0.675 24 0 23.325 0 22.5Z" fill="#2D327D"/><path d="M12 4.125C12.828 4.125 13.5 4.797 13.5 5.625C13.5 6.453 12.828 7.125 12 7.125C11.172 7.125 10.5 6.453 10.5 5.625C10.5 4.797 11.172 4.125 12 4.125Z" fill="white"/><path d="M10.5 11.544V14.625C10.5 15.039 10.836 15.375 11.25 15.375H14.331L10.5 11.544Z" fill="white"/><path d="M14.952 13.875L19.082 18.005L17.131 14.625C16.863 14.161 16.368 13.875 15.832 13.875H14.952Z" fill="white"/><path d="M13.875 12.798V11.236L15.009 13.2C15.164 13.469 15.508 13.561 15.777 13.406C16.046 13.251 16.138 12.907 15.983 12.638L13.605 8.51999C13.308 8.00499 12.758 7.68799 12.164 7.68799C11.245 7.68799 10.5 8.43299 10.5 9.35199V9.42299L13.875 12.798Z" fill="white"/><path d="M20.751 20.273L20.024 21H20.625C20.832 21 21 20.832 21 20.625C21 20.462 20.896 20.325 20.751 20.273Z" fill="white"/><path d="M19.206 20.25H14.625V16.5C14.625 16.293 14.457 16.125 14.25 16.125H8.25V12.375C8.25 12.168 8.082 12 7.875 12H3.375C3.168 12 3 12.168 3 12.375C3 12.582 3.168 12.75 3.375 12.75H7.5V16.5C7.5 16.707 7.668 16.875 7.875 16.875H13.875V20.625C13.875 20.832 14.043 21 14.25 21H19.956L19.206 20.25Z" fill="white"/><path d="M3.70829 2.63129L2.64764 3.69194L19.9893 21.0336L21.0499 19.9729L3.70829 2.63129Z" fill="#EB0000"/></svg>