<svg class="color-immutable" width="24" height="24" viewBox="0 0 24 24" fill="none" xmlns="http://www.w3.org/2000/svg"><g clip-path="url(#a)"><path d="M0 22.5v-21C0 .675.675 0 1.5 0h21c.825 0 1.5.675 1.5 1.5v21c0 .825-.675 1.5-1.5 1.5h-21C.675 24 0 23.325 0 22.5Z" fill="#2D327D"/><path d="M13.5 5.625a1.5 1.5 0 1 1-3.001-.001 1.5 1.5 0 0 1 3.001.001ZM13.5 12.423V9.352a1.664 1.664 0 0 0-3.105-.832l-.292.506 3.397 3.397ZM9.326 10.37l-1.309 2.268a.562.562 0 0 0 .974.562l1.134-1.964v2.639H8.169a1.5 1.5 0 0 0-1.299.75L4.545 18.65a.656.656 0 1 0 1.136.656l2.27-3.932h4.798a.75.75 0 0 0 .75-.75v-.081L9.326 10.37ZM16.5 15.423V12.75h4.125a.375.375 0 0 0 0-.75h-4.5a.375.375 0 0 0-.375.375v2.298l.75.75Z" fill="#fff"/><path d="M15.081 16.125H9.75a.375.375 0 0 0-.375.375v3.75h-6a.375.375 0 0 0 0 .75H9.75a.375.375 0 0 0 .375-.375v-3.75h5.706l-.75-.75Z" fill="#fff"/><path d="m3.708 2.631-1.06 1.06 17.341 17.343 1.06-1.061L3.71 2.63Z" fill="#EB0000"/></g><defs><clipPath id="a"><path fill="#fff" d="M0 0h24v24H0z"/></clipPath></defs></svg>