<svg class="color-immutable" width="30" height="30" viewBox="0 0 30 30" fill="none" xmlns="http://www.w3.org/2000/svg"><g clip-path="url(#a)"><path d="M30 0H0v30h30V0Z" fill="#2D327D"/><path d="M4.5 3h21c.825 0 1.5.675 1.5 1.5v21c0 .825-.675 1.5-1.5 1.5h-21c-.825 0-1.5-.675-1.5-1.5v-21C3 3.675 3.675 3 4.5 3Zm0-.375A1.877 1.877 0 0 0 2.625 4.5v21c0 1.034.841 1.875 1.875 1.875h21a1.877 1.877 0 0 0 1.875-1.875v-21A1.877 1.877 0 0 0 25.5 2.625h-21Z" fill="#fff"/><path d="M15 7.125a1.5 1.5 0 1 1 0 3 1.5 1.5 0 0 1 0-3ZM13.5 14.544v3.081c0 .414.336.75.75.75h3.08l-3.83-3.83ZM17.952 16.875l4.13 4.13-1.952-3.38a1.5 1.5 0 0 0-1.299-.75h-.879ZM16.875 15.798v-1.562l1.134 1.964a.563.563 0 0 0 .974-.562l-2.378-4.118a1.664 1.664 0 0 0-3.105.832v.071l3.375 3.375ZM23.75 23.273l-.726.727h.6a.375.375 0 0 0 .127-.727Z" fill="#fff"/><path d="M22.206 23.25h-4.581V19.5a.375.375 0 0 0-.375-.375h-6v-3.75a.375.375 0 0 0-.375-.375h-4.5a.375.375 0 0 0 0 .75H10.5v3.75c0 .207.168.375.375.375h6v3.75c0 .207.168.375.375.375h5.706l-.75-.75Z" fill="#fff"/><path d="m6.708 5.631-1.06 1.06 17.341 17.343 1.061-1.06L6.708 5.63Z" fill="#EB0000"/></g><defs><clipPath id="a"><path fill="#fff" d="M0 0h30v30H0z"/></clipPath></defs></svg>