<svg class="color-immutable" width="24" height="24" viewBox="0 0 24 24" fill="none" xmlns="http://www.w3.org/2000/svg"><g clip-path="url(#a)"><path d="M0 22.5v-21C0 .675.675 0 1.5 0h21c.825 0 1.5.675 1.5 1.5v21c0 .825-.675 1.5-1.5 1.5h-21C.675 24 0 23.325 0 22.5Z" fill="#2D327D"/><path d="M13.234 9.591 6.644 3H5.636l7.095 7.094.503-.503ZM16.125 7.231l-3.278 3.278a.543.543 0 1 0 .768.768l2.509-2.509V7.231h.001ZM15.261 12.624l.504-.503-1.231-1.23-.504.503 1.231 1.23Z" fill="#fff"/><path d="m20.891 8.59-2.117-2.118a1.332 1.332 0 0 0-2.273.941v4.502l-1.653 1.653a.374.374 0 0 0-.11.266v4.222a.693.693 0 1 0 1.388 0v-3.432l2.922-2.81a.373.373 0 0 0 .115-.27V8.347l.75.75v2.772a.543.543 0 0 0 1.086 0V8.856a.37.37 0 0 0-.108-.266Z" fill="#fff"/><path d="M7.728 17.298a.987.987 0 0 1-.414-.611h-.863c.045.357.213.688.475.936.398.357.879.61 1.4.736L21 21v-.69L8.83 17.775a3.035 3.035 0 0 1-1.102-.477ZM18.043 14.43a.544.544 0 1 0-1.088 0 .544.544 0 0 0 1.088 0ZM17.842 5.838a1.163 1.163 0 1 0-.002-2.326 1.163 1.163 0 0 0 .002 2.326Z" fill="#fff"/></g><defs><clipPath id="a"><path fill="#fff" d="M0 0h24v24H0z"/></clipPath></defs></svg>