<svg class="color-immutable" width="24" height="24" viewBox="0 0 24 24" fill="none" xmlns="http://www.w3.org/2000/svg"><path d="M0 22.5V1.5C0 0.675 0.675 0 1.5 0H22.5C23.325 0 24 0.675 24 1.5V22.5C24 23.325 23.325 24 22.5 24H1.5C0.675 24 0 23.325 0 22.5Z" fill="#2D327D"/><path d="M19.8 14.1V17.1H4.2V14.1H3V21H4.2V18.6H19.8V21H21V14.1H19.8Z" fill="white"/><path d="M18.9 16.5H10.5C10.334 16.5 10.2 16.366 10.2 16.2V15.3C10.2 14.637 10.737 14.1 11.4 14.1H18.9C19.066 14.1 19.2 14.234 19.2 14.4V16.2C19.2 16.366 19.066 16.5 18.9 16.5Z" fill="white"/><path d="M9.29999 16.5H5.09999C4.93399 16.5 4.79999 16.366 4.79999 16.2V14.4C4.79999 14.234 4.93399 14.1 5.09999 14.1H8.39999C9.06299 14.1 9.59999 14.637 9.59999 15.3V16.2C9.59999 16.366 9.46599 16.5 9.29999 16.5Z" fill="white"/></svg>