<svg class="color-immutable" width="24" height="24" viewBox="0 0 24 24" fill="none" xmlns="http://www.w3.org/2000/svg"><path d="M0 22.5V1.5C0 0.675 0.675 0 1.5 0H22.5C23.325 0 24 0.675 24 1.5V22.5C24 23.325 23.325 24 22.5 24H1.5C0.675 24 0 23.325 0 22.5Z" fill="#2D327D"/><path d="M3 10.875H18.6V13.125H3V10.875Z" fill="white"/><path d="M11.628 4.087V4.312C11.628 7.313 14.064 9.75 17.066 9.75H17.816V8.624H17.066C14.686 8.624 12.754 6.692 12.754 4.312V4.087H11.628Z" fill="white"/><path d="M17.813 6.375H17.063C15.924 6.375 15 5.451 15 4.312V4.087H13.875V4.312C13.875 6.072 15.303 7.499 17.063 7.499H17.813C18.951 7.499 19.875 8.423 19.875 9.562V9.75H21V9.562C21 7.803 19.572 6.375 17.813 6.375Z" fill="white"/><path d="M19.875 10.875H21V13.125H19.875V10.875Z" fill="white"/></svg>