<svg class="color-immutable" width="30" height="30" viewBox="0 0 30 30" fill="none" xmlns="http://www.w3.org/2000/svg"><g clip-path="url(#a)"><path d="M30.002 0h-30v30h30V0Z" fill="#2D327D"/><path d="M25.502 3c.825 0 1.5.675 1.5 1.5v21c0 .825-.675 1.5-1.5 1.5h-21c-.825 0-1.5-.675-1.5-1.5v-21c0-.825.675-1.5 1.5-1.5h21Zm0-.375h-21A1.877 1.877 0 0 0 2.627 4.5v21c0 1.034.841 1.875 1.875 1.875h21a1.877 1.877 0 0 0 1.875-1.875v-21a1.877 1.877 0 0 0-1.875-1.875Z" fill="#fff"/><path d="M16.93 7.787a.902.902 0 1 0 0-1.804.902.902 0 0 0 0 1.804ZM14.98 10.562a.902.902 0 1 0 0-1.804.902.902 0 0 0 0 1.804ZM17.684 13.712a.902.902 0 1 0 0-1.804.902.902 0 0 0 0 1.804ZM8.58 19.101l-1.54 1.541 3.34 3.341 1.541-1.54-3.34-3.342ZM20.707 17.005l-1.443 1.442v.001a1.117 1.117 0 0 1 .01.15 1.2 1.2 0 0 1-1.2 1.2h-3.45v-.374h3.45a.825.825 0 1 0 0-1.65h-2.301c-.464 0-.76-.135-1.037-.276a7.162 7.162 0 0 1-.047-.024l-.06-.03-.09-.045c-.535-.27-1.126-.32-1.724-.32-1.033 0-1.797.311-2.52 1.044L9.21 19.205l2.601 2.601.505-.506 5.763-.005c.436 0 .827-.165 1.127-.435l.64-.63 2.905-2.904.097-.098c.247-.323-1.201-1.162-2.14-.223Z" fill="#fff"/><path d="M12.815 16.705c.582 0 1.262.043 1.892.36l.03.015.066.033.056.029.047.023c.262.133.492.235.866.235h2.304c.237 0 .459.07.645.19a1.167 1.167 0 0 0-1.313-1.866 1.082 1.082 0 0 0-1.176-.88 1.44 1.44 0 0 0-2.815.224 1.221 1.221 0 0 0-1.331 1.692c.23-.037.473-.055.73-.055Z" fill="#fff"/></g><defs><clipPath id="a"><path fill="#fff" d="M0 0h30v30H0z"/></clipPath></defs></svg>