<svg class="color-immutable" width="24" height="24" viewBox="0 0 24 24" fill="none" xmlns="http://www.w3.org/2000/svg"><g clip-path="url(#a)"><path d="M0 22.5v-21C0 .675.675 0 1.5 0h21c.825 0 1.5.675 1.5 1.5v21c0 .825-.675 1.5-1.5 1.5h-21C.675 24 0 23.325 0 22.5Z" fill="#2D327D"/><path d="M13.93 4.787a.902.902 0 1 0 0-1.804.902.902 0 0 0 0 1.804ZM11.981 7.562a.902.902 0 1 0 0-1.804.902.902 0 0 0 0 1.804ZM14.684 10.712a.902.902 0 1 0 0-1.804.902.902 0 0 0 0 1.804ZM5.58 16.101l-1.54 1.541 3.34 3.341 1.541-1.54-3.34-3.342ZM17.707 14.005l-1.442 1.442v.001l.006.056a1.2 1.2 0 0 1-1.195 1.295h-3.45v-.375h3.45a.825.825 0 1 0 0-1.65h-2.302c-.464 0-.759-.135-1.036-.275l-.048-.024-.059-.03c-.03-.016-.061-.03-.091-.045-.534-.269-1.126-.32-1.723-.32-1.033 0-1.797.312-2.519 1.044l-1.087 1.082 2.601 2.601.503-.507 5.764-.005a1.67 1.67 0 0 0 1.126-.434l.641-.631 2.904-2.904.097-.097c.247-.323-1.201-1.163-2.14-.224Z" fill="#fff"/><path d="M9.815 13.705c.582 0 1.262.043 1.892.361a.26.26 0 0 1 .029.014l.066.033.056.029.047.023c.262.133.492.235.866.235h2.304c.237.001.458.071.644.19a1.167 1.167 0 0 0-1.313-1.866 1.081 1.081 0 0 0-1.176-.88 1.44 1.44 0 0 0-2.814.223 1.221 1.221 0 0 0-1.331 1.691c.231-.035.474-.053.73-.053Z" fill="#fff"/></g><defs><clipPath id="a"><path fill="#fff" d="M0 0h24v24H0z"/></clipPath></defs></svg>