<svg class="color-immutable" width="24" height="24" viewBox="0 0 24 24" fill="none" xmlns="http://www.w3.org/2000/svg"><g clip-path="url(#a)"><path d="M0 22.5v-21C0 .675.675 0 1.5 0h21c.825 0 1.5.675 1.5 1.5v21c0 .825-.675 1.5-1.5 1.5h-21C.675 24 0 23.325 0 22.5Z" fill="#2D327D"/><path d="M14.475 15.094h-4.163a2.252 2.252 0 0 1-2.25-2.25 2.252 2.252 0 0 1 2.25-2.25h1.126c.62 0 1.125-.505 1.125-1.125s-.505-1.125-1.125-1.125H3V7.219h8.439a2.252 2.252 0 0 1 2.25 2.25 2.252 2.252 0 0 1-2.25 2.25h-1.126c-.62 0-1.125.505-1.125 1.125s.505 1.125 1.125 1.125h4.163v1.125h-.001ZM17.625 16.781H16.5a1.688 1.688 0 0 1-1.688-1.688v-1.125c0-.932.756-1.688 1.688-1.688h1.125c.311 0 .562.252.562.562v3.375a.562.562 0 0 1-.562.564ZM20.437 13.125h-1.912v.562h1.912a.281.281 0 0 0 0-.562ZM20.438 15.375h-1.913v.562h1.913a.281.281 0 0 0 0-.562Z" fill="#fff"/></g><defs><clipPath id="a"><path fill="#fff" d="M0 0h24v24H0z"/></clipPath></defs></svg>