<svg class="color-immutable" width="24" height="24" viewBox="0 0 24 24" fill="none" xmlns="http://www.w3.org/2000/svg"><g clip-path="url(#a)"><path d="M0 22.5v-21C0 .675.675 0 1.5 0h21c.825 0 1.5.675 1.5 1.5v21c0 .825-.675 1.5-1.5 1.5h-21C.675 24 0 23.325 0 22.5Z" fill="#2D327D"/><path d="M16.915 17.552h-3.414v1.388h-3.413v1.388H6.675v.675h4.088v-1.388h3.413v-1.388h3.414v-1.388h3.413v-.675h-4.088v1.388ZM3.528 11.563a.503.503 0 0 0 .195-.039l.551-.23v-1.098l-.941.393a.507.507 0 0 0 .195.974Z" fill="#fff"/><path d="M3.693 21.003a.694.694 0 0 0 .694-.694v-3.282L6 14.251V16.6c0 .138.038.273.109.39l1.593 2.616a.694.694 0 0 0 1.186-.722L7.5 16.606V8.391l.75 1.088v2.747a.525.525 0 1 0 1.05 0V9.319a.746.746 0 0 0-.133-.426L7.61 6.634a1.5 1.5 0 0 0-2.735.852v5.715L3.1 16.254a.759.759 0 0 0-.102.377v3.678a.696.696 0 0 0 .695.694ZM6.177 5.635a1.313 1.313 0 1 0 0-2.626 1.313 1.313 0 0 0 0 2.626Z" fill="#fff"/></g><defs><clipPath id="a"><path fill="#fff" d="M0 0h24v24H0z"/></clipPath></defs></svg>