<svg class="color-immutable" width="24" height="24" viewBox="0 0 24 24" fill="none" xmlns="http://www.w3.org/2000/svg"><g clip-path="url(#a)"><path d="M0 22.5v-21C0 .675.675 0 1.5 0h21c.825 0 1.5.675 1.5 1.5v21c0 .825-.675 1.5-1.5 1.5h-21C.675 24 0 23.325 0 22.5Z" fill="#2D327D"/><path d="M7.088 17.552h3.413v1.388h3.413v1.388h3.414v.675h-4.089v-1.388H9.826v-1.388H6.413v-1.388H2.999v-.675h4.089v1.388ZM20.474 11.563a.503.503 0 0 1-.195-.039l-.551-.23v-1.098l.941.393a.507.507 0 0 1-.195.974Z" fill="#fff"/><path d="M20.31 21.003a.694.694 0 0 1-.694-.694v-3.282l-1.613-2.776V16.6a.752.752 0 0 1-.109.39l-1.593 2.616a.694.694 0 0 1-1.186-.722l1.387-2.278V8.391l-.75 1.088v2.747a.525.525 0 1 1-1.05 0V9.319c0-.152.046-.301.133-.426l1.558-2.259a1.501 1.501 0 0 1 2.735.851V13.2l1.774 3.053a.759.759 0 0 1 .102.377v3.678a.695.695 0 0 1-.694.695ZM17.825 5.635a1.313 1.313 0 1 1 0-2.626 1.313 1.313 0 0 1 0 2.626Z" fill="#fff"/></g><defs><clipPath id="a"><path fill="#fff" d="M0 0h24v24H0z"/></clipPath></defs></svg>