<svg class="color-immutable" width="24" height="24" viewBox="0 0 24 24" fill="none" xmlns="http://www.w3.org/2000/svg"><g clip-path="url(#a)"><path d="M0 22.5v-21C0 .675.675 0 1.5 0h21c.825 0 1.5.675 1.5 1.5v21c0 .825-.675 1.5-1.5 1.5h-21C.675 24 0 23.325 0 22.5Z" fill="#2D327D"/><path d="M17.734 5.636a1.313 1.313 0 1 0 0-2.624 1.313 1.313 0 0 0 0 2.624ZM19.05 16.21V8.587l.825 1.088v2.7a.487.487 0 0 0 .976 0V9.289a.748.748 0 0 0-.153-.453l-1.578-2.08a1.499 1.499 0 0 0-2.695.907v5.275l-1.543 1.543a.749.749 0 0 0-.22.53v4.245a.694.694 0 0 0 1.388 0v-3.769l1.5-1.5v2.237c0 .144.042.286.12.407l2.381 3.685a.693.693 0 0 0 1.166-.753L19.05 16.21Z" fill="#fff"/><path d="M14.719 11.604c.059 0 .117-.01.172-.03l.896-.325v-1.077l-1.241.449a.506.506 0 0 0 .173.983ZM6.412 18.225h3.413v1.387h3.412V21h4.088v-.675h-3.413v-1.388H10.5V17.55H7.087v-1.388H3v.675h3.412v1.388Z" fill="#fff"/></g><defs><clipPath id="a"><path fill="#fff" d="M0 0h24v24H0z"/></clipPath></defs></svg>