<svg class="color-immutable" width="24" height="24" viewBox="0 0 24 24" fill="none" xmlns="http://www.w3.org/2000/svg"><g clip-path="url(#a)"><path d="M0 22.5v-21C0 .675.675 0 1.5 0h21c.825 0 1.5.675 1.5 1.5v21c0 .825-.675 1.5-1.5 1.5h-21C.675 24 0 23.325 0 22.5Z" fill="#2D327D"/><path d="M7.232 9.757h4.545c.846 0 1.57.097 2.172.292a4.327 4.327 0 0 1 1.596.923c1.123 1.025 1.684 2.448 1.684 4.268 0 1.928-.531 3.417-1.592 4.468a4.034 4.034 0 0 1-1.577.996c-.583.197-1.327.296-2.229.296H7.232V9.757Zm2.453 2.076v7.091h1.892c.579 0 1.041-.058 1.384-.173.343-.115.643-.311.9-.588.595-.646.892-1.592.892-2.838 0-1.148-.276-2.017-.827-2.607-.551-.59-1.365-.884-2.442-.884H9.685v-.001ZM4.886 3.666h-.468a.34.34 0 0 0-.122-.251.48.48 0 0 0-.304-.087.464.464 0 0 0-.27.068.223.223 0 0 0-.096.192c0 .074.031.127.092.16.06.032.211.078.452.138.255.064.432.128.531.192a.564.564 0 0 1 .272.497.647.647 0 0 1-.274.551c-.16.118-.378.177-.653.177-.306 0-.543-.07-.712-.209-.169-.14-.257-.339-.263-.596h.489c.007.125.039.218.097.278.09.096.226.145.408.145a.52.52 0 0 0 .292-.072.26.26 0 0 0 .122-.226c0-.095-.058-.165-.172-.21a6.039 6.039 0 0 0-.443-.133 2.623 2.623 0 0 1-.341-.114.74.74 0 0 1-.197-.12.54.54 0 0 1-.172-.425c0-.216.09-.388.269-.514.153-.107.351-.161.595-.161.214 0 .394.043.538.128.209.122.318.319.33.592ZM6.139 3.566v.315h-.334v.789c0 .094.009.154.026.18.026.037.083.055.172.055.035 0 .08-.003.135-.008v.357c-.1.011-.193.017-.277.017a.762.762 0 0 1-.291-.043.332.332 0 0 1-.194-.252 1.954 1.954 0 0 1-.017-.325v-.77h-.27v-.315h.272v-.394h.445v.394h.333ZM7.917 5.249h-.455a.629.629 0 0 1-.029-.168.72.72 0 0 1-.54.214c-.172 0-.307-.04-.403-.12a.474.474 0 0 1-.166-.386c0-.21.095-.356.285-.437.077-.033.218-.063.425-.091.176-.023.287-.046.33-.068.043-.022.066-.067.066-.133 0-.147-.097-.22-.292-.22-.104 0-.179.018-.227.055-.048.037-.08.101-.095.192h-.421a.545.545 0 0 1 .21-.422c.127-.095.308-.142.543-.142.259 0 .451.053.575.158.058.05.096.102.115.159a.915.915 0 0 1 .028.268l-.005.338-.002.347c0 .122.004.211.011.268a.89.89 0 0 0 .047.188Zm-.49-.811a.875.875 0 0 1-.314.085.734.734 0 0 0-.231.063c-.067.036-.1.097-.1.183 0 .07.022.124.066.163a.27.27 0 0 0 .185.058.403.403 0 0 0 .318-.138.258.258 0 0 0 .059-.099.46.46 0 0 0 .016-.136v-.179h.001ZM8.631 3.574v.235a.633.633 0 0 1 .546-.287c.137 0 .254.035.349.105a.432.432 0 0 1 .159.21c.03.085.045.204.045.358V5.25h-.444v-.963a.722.722 0 0 0-.028-.237.21.21 0 0 0-.089-.104.356.356 0 0 0-.349.007.312.312 0 0 0-.123.134.738.738 0 0 0-.045.297v.864h-.446V3.574h.425ZM11.659 3v2.249h-.426v-.22c-.098.177-.262.266-.491.266a.66.66 0 0 1-.543-.251c-.131-.163-.197-.378-.197-.644 0-.251.058-.455.174-.611a.64.64 0 0 1 .541-.271c.223 0 .388.086.497.257V3h.445Zm-.826.884a.333.333 0 0 0-.275.129c-.071.09-.106.217-.106.381 0 .16.035.287.105.381.067.09.161.135.285.135a.338.338 0 0 0 .286-.134c.068-.089.102-.215.102-.377 0-.169-.036-.298-.108-.388a.362.362 0 0 0-.289-.127Z" fill="#fff"/></g><defs><clipPath id="a"><path fill="#fff" d="M0 0h24v24H0z"/></clipPath></defs></svg>