<svg class="color-immutable" width="24" height="24" viewBox="0 0 24 24" fill="none" xmlns="http://www.w3.org/2000/svg"><path d="M0 22.5V1.5C0 0.675 0.675 0 1.5 0H22.5C23.325 0 24 0.675 24 1.5V22.5C24 23.325 23.325 24 22.5 24H1.5C0.675 24 0 23.325 0 22.5Z" fill="#2D327D"/><path d="M18.506 7.508L13.476 15.795V21H10.532V15.758L5.493 7.508H8.861L12.026 13.054L15.21 7.508H18.506Z" fill="white"/><path d="M5.318 5.218L5.087 5.467L4.755 5.167C4.609 5.257 4.428 5.303 4.21 5.303C4.043 5.303 3.889 5.272 3.747 5.211C3.605 5.149 3.487 5.061 3.392 4.945C3.21 4.725 3.118 4.451 3.118 4.124C3.118 3.77 3.225 3.484 3.439 3.266C3.649 3.053 3.914 2.946 4.233 2.946C4.398 2.946 4.551 2.977 4.691 3.038C4.831 3.099 4.95 3.186 5.047 3.299C5.237 3.52 5.332 3.792 5.332 4.113C5.332 4.288 5.306 4.449 5.253 4.595C5.2 4.741 5.125 4.861 5.027 4.955L5.318 5.218ZM4.684 4.638C4.786 4.503 4.836 4.329 4.836 4.118C4.836 3.892 4.784 3.711 4.681 3.574C4.572 3.428 4.42 3.355 4.224 3.355C4.034 3.355 3.884 3.427 3.773 3.57C3.666 3.707 3.613 3.891 3.613 4.121C3.613 4.359 3.668 4.547 3.779 4.684C3.89 4.823 4.038 4.893 4.225 4.893C4.3 4.893 4.369 4.882 4.433 4.859L4.209 4.663L4.44 4.417L4.684 4.638Z" fill="white"/><path d="M7.191 3.569V5.249H6.767V5.004C6.639 5.198 6.459 5.295 6.228 5.295C6.027 5.295 5.875 5.228 5.773 5.094C5.734 5.041 5.706 4.98 5.689 4.909C5.672 4.838 5.664 4.746 5.664 4.632V3.569H6.11V4.493C6.11 4.589 6.113 4.658 6.118 4.698C6.124 4.738 6.136 4.772 6.153 4.8C6.2 4.874 6.281 4.912 6.395 4.912C6.535 4.912 6.638 4.85 6.701 4.726C6.732 4.666 6.747 4.556 6.747 4.398V3.569H7.191Z" fill="white"/><path d="M9.052 5.249H8.597C8.578 5.183 8.568 5.12699 8.568 5.08099C8.429 5.22399 8.249 5.295 8.028 5.295C7.856 5.295 7.721 5.255 7.625 5.175C7.514 5.083 7.459 4.95399 7.459 4.789C7.459 4.57899 7.554 4.433 7.744 4.352C7.82 4.319 7.962 4.289 8.168 4.261C8.345 4.237 8.456 4.21499 8.499 4.19299C8.542 4.17099 8.565 4.12599 8.565 4.05999C8.565 3.91299 8.468 3.83999 8.273 3.83999C8.169 3.83999 8.094 3.85799 8.046 3.89499C7.998 3.93199 7.966 3.99599 7.951 4.08699H7.53C7.543 3.90099 7.613 3.75999 7.74 3.66499C7.867 3.56999 8.048 3.52299 8.283 3.52299C8.542 3.52299 8.734 3.57599 8.858 3.68099C8.916 3.73099 8.954 3.78299 8.973 3.83999C8.992 3.89699 9.001 3.98599 9.001 4.10799C9.001 4.13399 8.999 4.246 8.996 4.446C8.995 4.648 8.994 4.764 8.994 4.793C8.994 4.915 8.998 5.00399 9.005 5.06099C9.012 5.11899 9.028 5.181 9.052 5.249ZM8.562 4.438C8.504 4.474 8.4 4.50199 8.248 4.52299C8.141 4.53899 8.064 4.55999 8.017 4.58599C7.95 4.62199 7.917 4.683 7.917 4.769C7.917 4.839 7.939 4.893 7.983 4.932C8.027 4.971 8.089 4.98999 8.168 4.98999C8.299 4.98999 8.405 4.944 8.486 4.852C8.515 4.82 8.535 4.78699 8.546 4.75299C8.557 4.71899 8.562 4.673 8.562 4.617V4.438Z" fill="white"/><path d="M9.79799 3V3.401H9.35199V3H9.79799ZM9.79799 3.572V5.249H9.35199V3.572H9.79799Z" fill="white"/></svg>