<svg class="color-immutable" width="24" height="24" viewBox="0 0 24 24" fill="none" xmlns="http://www.w3.org/2000/svg"><g clip-path="url(#a)"><path d="M-.001 22.5v-21c0-.825.675-1.5 1.5-1.5h21C23.324 0 24 .675 24 1.5v21c0 .825-.675 1.5-1.5 1.5h-21a1.505 1.505 0 0 1-1.501-1.5Z" fill="#2D327D"/><path d="M18.362 12.1 21 14.738V21h-7.891a.629.629 0 0 1-.629-.628l.001-.045a.466.466 0 0 1 .031-.162c.147-.4.528-.666.953-.666h2.21a.49.49 0 0 0 .489-.487v-1.271a.745.745 0 0 0-.221-.529l-4.086-4.087a.693.693 0 1 1 .981-.982l4.345 4.346.239-.239-3.884-3.884.264-.267a.598.598 0 0 1 .849 0l3.474 3.475.238-.239-2.969-2.969.264-.267a.603.603 0 0 1 .85 0l2.545 2.546.239-.238-2.041-2.042.264-.267a.609.609 0 0 1 .425-.175.61.61 0 0 1 .422.177Z" fill="#fff"/><path d="M5.637 16.4 3 13.761V7.5h7.891c.348 0 .629.282.629.628l-.001.045a.466.466 0 0 1-.031.162c-.147.4-.528.665-.953.665h-2.21a.489.489 0 0 0-.488.488v1.271c0 .199.08.389.221.529l4.086 4.087a.693.693 0 1 1-.981.982l-4.345-4.346-.24.239 3.884 3.884-.264.266a.598.598 0 0 1-.849 0l-3.474-3.475-.238.24 2.969 2.969-.264.266a.603.603 0 0 1-.85 0l-2.545-2.546-.239.238 2.041 2.042-.263.266a.6.6 0 0 1-.849 0ZM4.885 3.666h-.467a.34.34 0 0 0-.122-.251.476.476 0 0 0-.304-.087.464.464 0 0 0-.27.068.223.223 0 0 0-.096.192c0 .074.031.127.092.16.059.032.21.078.452.138.255.064.432.128.531.192a.564.564 0 0 1 .272.497.647.647 0 0 1-.274.551c-.161.118-.379.177-.654.177-.306 0-.543-.07-.712-.209-.169-.14-.257-.339-.263-.596h.489c.007.125.039.218.097.278.09.096.226.145.408.145a.52.52 0 0 0 .292-.072.26.26 0 0 0 .122-.226c0-.095-.057-.165-.171-.209a5.53 5.53 0 0 0-.443-.134 2.646 2.646 0 0 1-.342-.114.732.732 0 0 1-.196-.12.54.54 0 0 1-.173-.425c0-.216.09-.388.269-.514.153-.107.352-.161.596-.161.214 0 .394.043.538.128.208.122.318.319.329.592ZM6.291 2.946c.299 0 .551.098.754.295.223.218.335.512.335.883 0 .32-.085.585-.254.795-.207.255-.49.383-.849.383-.367 0-.655-.131-.864-.392-.165-.207-.248-.468-.248-.783 0-.373.107-.664.321-.872.212-.206.48-.309.805-.309Zm-.025.409a.536.536 0 0 0-.437.206c-.112.139-.169.325-.169.56 0 .243.055.432.166.568a.546.546 0 0 0 .199.151.63.63 0 0 0 .255.053.524.524 0 0 0 .425-.188c.12-.144.18-.339.18-.586 0-.234-.055-.42-.165-.558a.548.548 0 0 0-.454-.206ZM9.383 3.666h-.468a.34.34 0 0 0-.122-.251.476.476 0 0 0-.304-.087.464.464 0 0 0-.27.068.223.223 0 0 0-.096.192c0 .074.031.127.092.16.059.033.21.079.452.138.256.064.433.128.531.192a.562.562 0 0 1 .272.497.647.647 0 0 1-.274.551c-.161.118-.378.177-.653.177-.306 0-.543-.07-.712-.209-.17-.14-.257-.339-.263-.596h.489c.007.125.039.218.097.278.09.096.226.145.408.145a.52.52 0 0 0 .292-.072.26.26 0 0 0 .122-.226c0-.095-.057-.165-.171-.209a5.606 5.606 0 0 0-.444-.134 2.623 2.623 0 0 1-.341-.114.74.74 0 0 1-.197-.12.54.54 0 0 1-.172-.425c0-.216.09-.388.269-.514.153-.107.351-.161.595-.161.214 0 .394.043.538.128.209.122.318.319.33.592Z" fill="#fff"/></g><defs><clipPath id="a"><path fill="#fff" d="M0 0h24v24H0z"/></clipPath></defs></svg>