<svg class="color-immutable" width="30" height="30" viewBox="0 0 30 30" fill="none" xmlns="http://www.w3.org/2000/svg"><g clip-path="url(#a)"><path d="M0 0h30v30H0V0Z" fill="#2D327D"/><path d="M25.5 3c.825 0 1.5.675 1.5 1.5v21c0 .825-.675 1.5-1.5 1.5h-21c-.825 0-1.5-.675-1.5-1.5v-21C3 3.675 3.675 3 4.5 3h21Zm0-.375h-21A1.877 1.877 0 0 0 2.625 4.5v21c0 1.034.841 1.875 1.875 1.875h21a1.877 1.877 0 0 0 1.875-1.875v-21A1.877 1.877 0 0 0 25.5 2.625Z" fill="#fff"/><path d="M21.363 15.1 24 17.738V24h-7.89a.628.628 0 0 1-.63-.628l.001-.045a.476.476 0 0 1 .03-.162c.148-.4.528-.665.954-.665H18.674c.27 0 .489-.22.489-.488v-1.27a.745.745 0 0 0-.222-.53l-4.085-4.088a.695.695 0 1 1 .981-.982l4.346 4.347.238-.24-3.884-3.883.264-.266a.606.606 0 0 1 .85 0l3.474 3.475.237-.24-2.969-2.969.264-.266a.606.606 0 0 1 .85 0l2.545 2.545.239-.237-2.041-2.042.263-.266a.606.606 0 0 1 .85 0Z" fill="#fff"/><path d="M8.637 19.4 6 16.763V10.5h7.89c.35 0 .63.282.63.628l-.001.045a.48.48 0 0 1-.03.162c-.148.4-.529.665-.954.665h-2.209a.489.489 0 0 0-.489.488v1.27c0 .2.08.39.221.53l4.086 4.088a.695.695 0 1 1-.981.982L9.817 15.01l-.238.24 3.884 3.883-.264.267a.607.607 0 0 1-.85 0l-3.474-3.476-.238.24 2.97 2.969-.264.267a.607.607 0 0 1-.85 0l-2.545-2.546-.239.237 2.041 2.042-.264.267a.606.606 0 0 1-.849 0ZM7.886 6.666h-.468a.342.342 0 0 0-.122-.251.474.474 0 0 0-.304-.087.46.46 0 0 0-.27.068.222.222 0 0 0-.096.192c0 .073.03.127.092.16.06.032.21.079.453.138.255.064.432.128.53.192a.563.563 0 0 1 .272.497.647.647 0 0 1-.273.55c-.161.119-.38.178-.654.178-.306 0-.543-.07-.712-.21-.17-.14-.257-.338-.263-.595h.489c.007.125.04.218.097.278.09.097.226.145.407.145.123 0 .22-.024.293-.072a.26.26 0 0 0 .121-.226c0-.096-.057-.165-.17-.21a6.006 6.006 0 0 0-.444-.133 2.616 2.616 0 0 1-.341-.114.736.736 0 0 1-.197-.12.54.54 0 0 1-.172-.425c0-.216.09-.387.269-.513.153-.108.351-.162.595-.162.215 0 .394.043.539.128.208.122.317.32.329.592ZM9.291 5.946c.3 0 .551.099.754.295.224.218.335.512.335.883 0 .32-.084.585-.253.796-.207.255-.49.382-.85.382-.366 0-.655-.13-.864-.392-.165-.207-.247-.468-.247-.783 0-.373.107-.664.321-.872.211-.206.48-.309.804-.309Zm-.024.41a.534.534 0 0 0-.437.205c-.113.139-.17.325-.17.56 0 .243.056.432.167.568a.53.53 0 0 0 .198.15c.08.036.166.054.256.054.18 0 .32-.062.424-.187.12-.144.18-.34.18-.586 0-.234-.055-.42-.164-.559a.546.546 0 0 0-.454-.206ZM12.383 6.666h-.467a.342.342 0 0 0-.123-.251.474.474 0 0 0-.303-.087.459.459 0 0 0-.27.068.221.221 0 0 0-.097.192c0 .073.031.127.093.16.06.032.21.079.452.138.255.064.432.128.53.192a.563.563 0 0 1 .273.497.647.647 0 0 1-.274.55c-.161.119-.379.178-.654.178-.305 0-.543-.07-.712-.21-.17-.14-.257-.338-.263-.595h.49c.006.125.039.218.096.278.09.097.226.145.408.145.123 0 .22-.024.292-.072a.26.26 0 0 0 .121-.226c0-.096-.056-.165-.17-.21a5.998 5.998 0 0 0-.443-.133 2.612 2.612 0 0 1-.342-.114.735.735 0 0 1-.197-.12.54.54 0 0 1-.172-.425c0-.216.09-.387.27-.513.152-.108.35-.162.595-.162.214 0 .393.043.538.128.208.122.318.32.329.592Z" fill="#fff"/></g><defs><clipPath id="a"><path fill="#fff" d="M0 0h30v30H0z"/></clipPath></defs></svg>