<svg class="color-immutable" width="24" height="24" viewBox="0 0 24 24" fill="none" xmlns="http://www.w3.org/2000/svg"><g clip-path="url(#a)"><path d="M0 22.5v-21C0 .675.675 0 1.5 0h21c.825 0 1.5.675 1.5 1.5v21c0 .825-.675 1.5-1.5 1.5h-21C.675 24 0 23.325 0 22.5Z" fill="#2D327D"/><path d="M12 11.644h.75v1.5H12v-1.5ZM5.58 13.736c.211-.211.497-.329.796-.329h6.484c.298 0 .584.118.795.329l2.614 2.614 4.387.364a.374.374 0 0 1 .344.373v2.338a.375.375 0 0 1-.375.375h-.412v-.431a2.25 2.25 0 0 0-4.5 0v.431H8.25v-.431a2.25 2.25 0 0 0-4.5 0v.431h-.375A.375.375 0 0 1 3 19.425v-2.643c0-.298.119-.585.33-.796l2.25-2.25Zm4.505.758.002 1.538c0 .207.168.374.375.374h4.259a.225.225 0 0 0 .159-.384l-1.793-1.794a.376.376 0 0 0-.265-.11H10.46a.377.377 0 0 0-.375.376Zm-5.572 1.912h4.485a.375.375 0 0 0 .375-.375v-1.537a.375.375 0 0 0-.375-.375H6.413a.376.376 0 0 0-.265.11l-1.793 1.794a.225.225 0 0 0 .158.383Z" fill="#fff"/><path fill-rule="evenodd" clip-rule="evenodd" d="M5.985 20.336a.937.937 0 1 0 0-1.874.937.937 0 0 0 0 1.874Zm.021-2.658a1.707 1.707 0 1 1-.002 3.414 1.707 1.707 0 0 1 .002-3.414ZM17.962 20.336a.938.938 0 1 0-.001-1.875.938.938 0 0 0 .001 1.875Zm0-2.644a1.707 1.707 0 1 1-.002 3.414 1.707 1.707 0 0 1 .002-3.414Z" fill="#fff"/><path d="M4.853 3v.415H4.17v1.833h-.49V3.415H3V3h1.853ZM6.33 5.249h-.455a.597.597 0 0 1-.03-.168.72.72 0 0 1-.54.214c-.172 0-.307-.04-.403-.12a.477.477 0 0 1-.166-.386c0-.21.095-.356.285-.437.077-.033.218-.063.425-.091.177-.024.288-.046.331-.068.044-.022.065-.067.065-.133 0-.147-.097-.22-.292-.22-.104 0-.179.018-.227.055-.047.037-.079.101-.094.192h-.422a.549.549 0 0 1 .211-.422c.127-.095.308-.142.543-.142.259 0 .451.053.575.158.058.05.096.102.115.159a.908.908 0 0 1 .028.267l-.005.338-.002.348c0 .122.004.211.011.268.007.057.022.12.047.188Zm-.491-.811a.868.868 0 0 1-.313.085.734.734 0 0 0-.231.063c-.067.036-.1.097-.1.183 0 .07.022.124.066.163a.27.27 0 0 0 .185.058.403.403 0 0 0 .318-.138.271.271 0 0 0 .059-.099.46.46 0 0 0 .016-.136v-.179ZM8.133 3.569l-.538.78.606.9h-.516l-.346-.545-.338.545h-.508l.592-.889-.54-.791h.512l.293.451.285-.451h.498ZM8.822 3v.401h-.446V3h.446Zm0 .572v1.677h-.446V3.572h.446Z" fill="#fff"/></g><defs><clipPath id="a"><path fill="#fff" d="M0 0h24v24H0z"/></clipPath></defs></svg>