<svg class="color-immutable" width="30" height="30" viewBox="0 0 30 30" fill="none" xmlns="http://www.w3.org/2000/svg"><g clip-path="url(#a)"><path d="M30 0H0v30h30V0Z" fill="#2D327D"/><path d="M25.5 3c.825 0 1.5.675 1.5 1.5v21c0 .825-.675 1.5-1.5 1.5h-21c-.825 0-1.5-.675-1.5-1.5v-21C3 3.675 3.675 3 4.5 3h21Zm0-.375h-21A1.877 1.877 0 0 0 2.625 4.5v21c0 1.034.841 1.875 1.875 1.875h21a1.877 1.877 0 0 0 1.875-1.875v-21A1.877 1.877 0 0 0 25.5 2.625Z" fill="#fff"/><path d="M15 14.644h.75v1.5H15v-1.5ZM8.58 16.736c.211-.211.497-.33.795-.33h6.485c.298 0 .584.119.795.33l2.614 2.613 4.387.365a.375.375 0 0 1 .344.373v2.338a.375.375 0 0 1-.375.375h-.412v-.431a2.25 2.25 0 0 0-4.5 0v.431H11.25v-.431a2.25 2.25 0 0 0-4.5 0v.431h-.375A.375.375 0 0 1 6 22.425v-2.643c0-.299.119-.585.33-.796l2.25-2.25Zm4.505.758.002 1.538c0 .207.168.374.375.374h4.26a.225.225 0 0 0 .159-.384l-1.794-1.793a.375.375 0 0 0-.265-.11H13.46a.375.375 0 0 0-.375.375Zm-5.572 1.912h4.485a.375.375 0 0 0 .375-.375v-1.537a.375.375 0 0 0-.375-.375H9.413c-.1 0-.195.04-.265.11l-1.794 1.793a.224.224 0 0 0 .16.384Z" fill="#fff"/><path fill-rule="evenodd" clip-rule="evenodd" d="M8.985 23.336a.938.938 0 1 0 0-1.875.938.938 0 0 0 0 1.875Zm.021-2.658a1.707 1.707 0 1 1-.001 3.415 1.707 1.707 0 0 1 .001-3.415ZM20.963 23.336a.938.938 0 1 0-.001-1.875.938.938 0 0 0 0 1.875Zm0-2.644a1.707 1.707 0 1 1-.002 3.414 1.707 1.707 0 0 1 .002-3.414Z" fill="#fff"/><path d="M7.853 6v.415h-.682V8.25H6.68V6.415H6V6h1.853ZM9.33 8.249h-.455a.606.606 0 0 1-.03-.168.722.722 0 0 1-.54.214c-.172 0-.306-.04-.402-.12a.475.475 0 0 1-.167-.386c0-.21.095-.356.285-.437.077-.033.218-.063.424-.09.178-.024.288-.047.332-.07.044-.021.065-.066.065-.132 0-.147-.097-.22-.292-.22-.103 0-.18.018-.227.055-.047.037-.079.101-.094.192h-.422a.545.545 0 0 1 .21-.422c.128-.095.309-.142.544-.142.26 0 .451.053.575.158.058.05.096.102.115.159a.911.911 0 0 1 .028.267 68.859 68.859 0 0 0-.008.686c0 .122.004.212.011.269.007.057.023.119.048.187Zm-.49-.81a.866.866 0 0 1-.315.084.757.757 0 0 0-.23.063c-.067.036-.1.097-.1.183 0 .07.022.124.066.163a.27.27 0 0 0 .184.058.403.403 0 0 0 .319-.138.27.27 0 0 0 .06-.1.467.467 0 0 0 .015-.136v-.178ZM11.133 6.57l-.539.779.606.9h-.515l-.346-.545L10 8.25h-.508l.592-.89-.54-.79h.512l.293.45.284-.45h.499ZM11.822 6v.401h-.446V6h.446Zm0 .572V8.25h-.446V6.572h.446Z" fill="#fff"/></g><defs><clipPath id="a"><path fill="#fff" d="M0 0h30v30H0z"/></clipPath></defs></svg>