<svg class="color-immutable" width="24" height="24" viewBox="0 0 24 24" fill="none" xmlns="http://www.w3.org/2000/svg"><path d="M0 22.5V1.5C0 0.675 0.675 0 1.5 0H22.5C23.325 0 24 0.675 24 1.5V22.5C24 23.325 23.325 24 22.5 24H1.5C0.675 24 0 23.325 0 22.5Z" fill="#2D327D"/><path d="M11.249 20.415L10.214 17.115C10.155 16.927 9.98101 16.8 9.78501 16.8H8.23401L9.51101 21H10.819C11.067 21 11.269 20.798 11.269 20.55C11.269 20.504 11.262 20.459 11.249 20.415Z" fill="white"/><path d="M10.819 3H9.51101L8.23401 7.2H9.78501C9.98201 7.2 10.156 7.072 10.214 6.885L11.249 3.585C11.263 3.541 11.27 3.496 11.27 3.45C11.269 3.201 11.068 3 10.819 3Z" fill="white"/><path d="M6.75002 16.8C6.30202 15.239 6.07502 13.623 6.07502 12C6.07502 10.377 6.30202 8.761 6.75002 7.2H7.68502L8.96302 3H7.62202C6.96202 3 6.33602 3.289 5.90802 3.791C3.95802 6.081 2.88702 8.991 2.88702 11.999C2.88702 15.007 3.95802 17.917 5.90802 20.208C6.33602 20.71 6.96202 21 7.62202 21H8.96302L7.68502 16.8H6.75002Z" fill="white"/></svg>