<svg class="color-immutable" width="24" height="24" viewBox="0 0 24 24" fill="none" xmlns="http://www.w3.org/2000/svg"><g clip-path="url(#a)"><path d="M0 22.5v-21C0 .675.675 0 1.5 0h21c.825 0 1.5.675 1.5 1.5v21c0 .825-.675 1.5-1.5 1.5h-21C.675 24 0 23.325 0 22.5Z" fill="#2D327D"/><path d="m11.249 20.415-1.035-3.3a.45.45 0 0 0-.429-.315H8.234L9.511 21h1.308a.45.45 0 0 0 .43-.585ZM10.819 3H9.511L8.234 7.2h1.551a.449.449 0 0 0 .429-.315l1.035-3.3a.45.45 0 0 0-.43-.585Z" fill="#fff"/><path d="M6.75 16.8a17.402 17.402 0 0 1 0-9.6h.935L8.963 3H7.622c-.66 0-1.286.289-1.714.791a12.66 12.66 0 0 0 0 16.417A2.253 2.253 0 0 0 7.622 21h1.341l-1.278-4.2H6.75Z" fill="#fff"/></g><defs><clipPath id="a"><path fill="#fff" d="M0 0h24v24H0z"/></clipPath></defs></svg>