<svg class="color-immutable" width="30" height="30" viewBox="0 0 30 30" fill="none" xmlns="http://www.w3.org/2000/svg"><g clip-path="url(#a)"><path d="M30 0H0v30h30V0Z" fill="#2D327D"/><path d="M25.5 3c.825 0 1.5.675 1.5 1.5v21c0 .825-.675 1.5-1.5 1.5h-21c-.825 0-1.5-.675-1.5-1.5v-21C3 3.675 3.675 3 4.5 3h21Zm0-.375h-21A1.877 1.877 0 0 0 2.625 4.5v21c0 1.034.841 1.875 1.875 1.875h21a1.877 1.877 0 0 0 1.875-1.875v-21A1.877 1.877 0 0 0 25.5 2.625Z" fill="#fff"/><path fill-rule="evenodd" clip-rule="evenodd" d="M10.5 6v3.75h5.25v1.5H18V12h-2.25v.75H18v.75h-2.25v6h3.75V6h-9ZM18 9h-.45V7.527h-.529v-.326c.11-.003.2-.014.269-.034a.558.558 0 0 0 .19-.095c.083-.064.139-.171.168-.322H18V9Z" fill="#fff"/><path fill-rule="evenodd" clip-rule="evenodd" d="M6 10.5V24h9V10.5H6Zm7.5 7.5h-6v-.75h6V18Zm0-1.5h-6v-.75h6v.75Zm0-3h-1.62c0-.122.02-.238.06-.35a.852.852 0 0 1 .166-.285c.056-.062.12-.122.195-.18.074-.059.222-.166.444-.322a.861.861 0 0 0 .226-.209.396.396 0 0 0 .064-.224.333.333 0 0 0-.087-.24.3.3 0 0 0-.228-.09c-.232 0-.351.166-.358.499h-.432v-.05c0-.272.076-.483.229-.633a.79.79 0 0 1 .576-.218c.21 0 .384.06.525.178.153.13.23.303.23.522 0 .19-.062.354-.184.492a.861.861 0 0 1-.112.108 9.159 9.159 0 0 1-.276.196 4.166 4.166 0 0 0-.303.226 1.207 1.207 0 0 0-.17.18H13.5v.4Z" fill="#fff"/></g><defs><clipPath id="a"><path fill="#fff" d="M0 0h30v30H0z"/></clipPath></defs></svg>