<svg class="color-immutable" width="24" height="24" viewBox="0 0 24 24" fill="none" xmlns="http://www.w3.org/2000/svg"><g clip-path="url(#a)"><path d="M0 22.5v-21C0 .675.675 0 1.5 0h21c.825 0 1.5.675 1.5 1.5v21c0 .825-.675 1.5-1.5 1.5h-21C.675 24 0 23.325 0 22.5Z" fill="#2D327D"/><path fill-rule="evenodd" clip-rule="evenodd" d="M7.5 3v3.75h5.25v1.5H15V9h-2.25v.75H15v.75h-2.25v6h3.75V3h-9ZM15 6h-.449V4.527h-.529v-.326c.11-.003.199-.014.269-.034a.566.566 0 0 0 .19-.095c.083-.064.139-.171.168-.322H15V6Z" fill="#fff"/><path fill-rule="evenodd" clip-rule="evenodd" d="M3 7.5V21h9V7.5H3Zm7.5 7.5h-6v-.75h6V15Zm0-1.5h-6v-.75h6v.75Zm0-3H8.88c0-.122.02-.238.059-.349a.836.836 0 0 1 .167-.286c.055-.062.12-.122.195-.18.074-.058.222-.166.444-.321a.867.867 0 0 0 .226-.209.396.396 0 0 0 .065-.225.333.333 0 0 0-.087-.239.298.298 0 0 0-.229-.092c-.232 0-.351.167-.358.5H8.93V9.05c0-.273.076-.484.229-.634a.787.787 0 0 1 .577-.219c.209 0 .384.059.524.178a.646.646 0 0 1 .229.521.715.715 0 0 1-.183.492.847.847 0 0 1-.112.108 9.347 9.347 0 0 1-.275.196 4.56 4.56 0 0 0-.304.228 1.169 1.169 0 0 0-.17.18H10.5v.4Z" fill="#fff"/></g><defs><clipPath id="a"><path fill="#fff" d="M0 0h24v24H0z"/></clipPath></defs></svg>