<svg class="color-immutable" width="30" height="30" viewBox="0 0 30 30" fill="none" xmlns="http://www.w3.org/2000/svg"><g clip-path="url(#a)"><path d="M0 0h30v30H0V0Z" fill="#2D327D"/><path d="M25.5 3c.825 0 1.5.675 1.5 1.5v21c0 .825-.675 1.5-1.5 1.5h-21c-.825 0-1.5-.675-1.5-1.5v-21C3 3.675 3.675 3 4.5 3h21Zm0-.375h-21A1.877 1.877 0 0 0 2.625 4.5v21c0 1.034.841 1.875 1.875 1.875h21a1.877 1.877 0 0 0 1.875-1.875v-21A1.877 1.877 0 0 0 25.5 2.625Z" fill="#fff"/><path fill-rule="evenodd" clip-rule="evenodd" d="M15 9.75v1.5h5.25V15h2.25v.75h-2.25v.75h2.25v.75h-2.25v4.5H24v-12h-9Zm7.5 3h-.45v-1.473h-.528v-.326c.11-.003.199-.014.268-.034a.557.557 0 0 0 .19-.095c.083-.064.14-.171.168-.322h.352v2.25Z" fill="#fff"/><path fill-rule="evenodd" clip-rule="evenodd" d="M10.5 12v12h9V12h-9Zm7.5 7.5h-6v-.75h6v.75Zm0-1.5h-6v-.75h6V18Zm0-2.25h-1.62c0-.122.02-.238.06-.35a.85.85 0 0 1 .166-.285 1.55 1.55 0 0 1 .195-.18c.074-.059.222-.166.444-.322a.861.861 0 0 0 .226-.209.395.395 0 0 0 .064-.224.333.333 0 0 0-.087-.24.3.3 0 0 0-.228-.09c-.232 0-.351.166-.358.499h-.432v-.05c0-.272.076-.483.229-.633a.79.79 0 0 1 .576-.218c.21 0 .384.06.525.178.153.13.23.303.23.522 0 .19-.062.354-.184.492a.867.867 0 0 1-.112.108 9.367 9.367 0 0 1-.275.196 4.166 4.166 0 0 0-.304.226 1.207 1.207 0 0 0-.17.18H18v.4Z" fill="#fff"/><path d="m7.333 5.995.854 2.254h-.515l-.179-.505h-.835l-.183.505H5.97l.857-2.254h.507Zm.04 1.39-.298-.848-.3.847h.598ZM9.857 6.57v1.679h-.424v-.245a.61.61 0 0 1-.538.29c-.201 0-.353-.066-.456-.2a.5.5 0 0 1-.083-.185 1.227 1.227 0 0 1-.026-.277V6.569h.446v.924c0 .097.003.165.009.205.005.04.017.074.034.102.047.074.128.112.242.112a.32.32 0 0 0 .306-.186c.03-.06.046-.17.046-.328V6.57h.444ZM11.094 6.566v.315h-.334v.79c0 .094.01.154.027.18.025.036.083.055.172.055.035 0 .08-.003.135-.008v.357c-.1.011-.192.017-.277.017a.764.764 0 0 1-.29-.043.332.332 0 0 1-.194-.253 1.939 1.939 0 0 1-.017-.324v-.77h-.272v-.316h.272v-.394h.444v.394h.334ZM12.1 6.523a.79.79 0 0 1 .598.243c.153.16.23.373.23.64 0 .276-.082.496-.245.66a.807.807 0 0 1-.597.229c-.261 0-.47-.085-.624-.255-.148-.162-.222-.373-.222-.631 0-.254.072-.461.216-.62.159-.177.373-.266.644-.266Zm-.023.348a.331.331 0 0 0-.281.143.655.655 0 0 0-.107.395c0 .173.035.306.105.398a.35.35 0 0 0 .294.14.333.333 0 0 0 .275-.127c.077-.095.115-.232.115-.411 0-.168-.033-.299-.101-.392a.349.349 0 0 0-.3-.146ZM13.655 6.574v.223a.601.601 0 0 1 .518-.274c.218 0 .37.092.457.277a.623.623 0 0 1 .535-.277c.175 0 .31.052.407.156.096.104.144.251.144.44v1.13h-.446V7.25a.51.51 0 0 0-.035-.226c-.042-.079-.118-.118-.228-.118-.133 0-.226.056-.278.17a.705.705 0 0 0-.036.268v.905h-.444V7.232c0-.1-.012-.171-.036-.215-.038-.074-.108-.111-.212-.111a.316.316 0 0 0-.171.048.299.299 0 0 0-.115.13.654.654 0 0 0-.038.26v.905h-.447V6.574h.425ZM17.591 8.249h-.455a.606.606 0 0 1-.03-.168.722.722 0 0 1-.54.214c-.172 0-.306-.04-.402-.12a.475.475 0 0 1-.166-.386c0-.21.094-.356.284-.437.077-.033.218-.063.425-.09.177-.024.287-.047.331-.07.044-.021.065-.066.065-.132 0-.147-.097-.22-.292-.22-.103 0-.179.018-.227.055-.047.037-.079.101-.094.192h-.422a.545.545 0 0 1 .211-.422c.127-.095.308-.142.543-.142.26 0 .451.053.575.158.058.05.096.102.115.159a.911.911 0 0 1 .028.267l-.004.339-.003.347c0 .122.003.212.01.269.008.057.023.119.048.187Zm-.49-.81a.866.866 0 0 1-.314.084.756.756 0 0 0-.231.063c-.067.036-.1.097-.1.183 0 .07.022.124.066.163a.27.27 0 0 0 .185.058.403.403 0 0 0 .318-.138.27.27 0 0 0 .06-.1.467.467 0 0 0 .015-.136v-.178ZM18.79 6.566v.315h-.334v.79c0 .094.008.154.026.18.025.036.083.055.172.055.035 0 .08-.003.135-.008v.357c-.1.011-.193.017-.277.017a.763.763 0 0 1-.29-.043.332.332 0 0 1-.194-.253 1.924 1.924 0 0 1-.017-.324v-.77h-.272v-.316h.272v-.394h.445v.394h.333ZM20.521 7.726a.751.751 0 0 1-.128.266c-.147.202-.36.303-.636.303-.25 0-.451-.08-.602-.237a.773.773 0 0 1-.169-.278 1.057 1.057 0 0 1-.063-.363c0-.244.07-.45.21-.616a.76.76 0 0 1 .61-.278c.2 0 .372.062.514.186.101.09.175.2.221.33.046.13.07.295.07.493h-1.171c.004.082.017.15.038.205.06.146.176.22.345.22.083 0 .15-.019.203-.055a.39.39 0 0 0 .13-.176h.428Zm-.429-.494a.537.537 0 0 0-.055-.202.338.338 0 0 0-.295-.17c-.1 0-.182.033-.247.1a.446.446 0 0 0-.115.272h.712Z" fill="#fff"/></g><defs><clipPath id="a"><path fill="#fff" d="M0 0h30v30H0z"/></clipPath></defs></svg>