<svg class="color-immutable" width="24" height="24" viewBox="0 0 24 24" fill="none" xmlns="http://www.w3.org/2000/svg"><g clip-path="url(#a)"><path d="M0 22.5v-21C0 .675.675 0 1.5 0h21c.825 0 1.5.675 1.5 1.5v21c0 .825-.675 1.5-1.5 1.5h-21C.675 24 0 23.325 0 22.5Z" fill="#2D327D"/><path d="M13.224 12.755 10.991 21H9.186l-1.427-5.888L6.377 21H4.55l-2.199-8.245h1.81l1.325 6.057 1.449-6.057h1.703l1.449 6.012 1.342-6.012h1.795ZM21.221 17.819c-.06.853-.346 1.583-.857 2.188-.669.793-1.617 1.19-2.842 1.19-1.305 0-2.32-.461-3.045-1.382-.62-.786-.931-1.767-.931-2.944 0-1.233.368-2.261 1.105-3.085.737-.82 1.716-1.229 2.938-1.229 1.139 0 2.057.376 2.752 1.128.496.53.771 1.141.823 1.833h-1.776c-.098-.466-.306-.826-.626-1.08-.32-.254-.724-.381-1.213-.381-.782 0-1.367.329-1.754.987-.29.5-.434 1.113-.434 1.839 0 .744.152 1.365.457 1.861.387.635.961.953 1.72.953.541 0 .973-.16 1.294-.479.321-.32.52-.786.595-1.399h1.794Z" fill="#fff"/></g><defs><clipPath id="a"><path fill="#fff" d="M0 0h24v24H0z"/></clipPath></defs></svg>