<svg class="color-immutable" width="30" height="30" viewBox="0 0 30 30" fill="none" xmlns="http://www.w3.org/2000/svg"><path d="M30 0H0v30h30V0Z" fill="#2D327D"/><path d="M25.5 3c.825 0 1.5.675 1.5 1.5v21c0 .825-.675 1.5-1.5 1.5h-21c-.825 0-1.5-.675-1.5-1.5v-21C3 3.675 3.675 3 4.5 3h21Zm0-.375h-21A1.877 1.877 0 0 0 2.625 4.5v21c0 1.034.841 1.875 1.875 1.875h21a1.877 1.877 0 0 0 1.875-1.875v-21A1.877 1.877 0 0 0 25.5 2.625Z" fill="#fff"/><path d="M16.224 15.755 13.99 24h-1.805l-1.427-5.888L9.377 24H7.55l-2.2-8.245h1.81l1.326 6.057 1.45-6.057h1.703l1.45 6.012 1.341-6.012h1.794ZM24.22 20.82c-.06.853-.345 1.582-.857 2.187-.669.794-1.616 1.19-2.842 1.19-1.305 0-2.32-.46-3.045-1.381-.62-.786-.93-1.767-.93-2.944 0-1.233.368-2.262 1.105-3.085.736-.82 1.716-1.23 2.938-1.23 1.139 0 2.056.376 2.752 1.128.496.53.77 1.141.823 1.833h-1.776c-.098-.466-.307-.826-.626-1.08-.32-.254-.724-.38-1.213-.38-.782 0-1.366.329-1.754.986-.29.5-.434 1.113-.434 1.839 0 .744.152 1.365.457 1.861.387.636.96.953 1.72.953.541 0 .973-.16 1.294-.48.322-.319.52-.785.595-1.398h1.794Z" fill="#fff"/></svg>