<svg class="color-immutable" width="24" height="24" viewBox="0 0 24 24" fill="none" xmlns="http://www.w3.org/2000/svg"><g clip-path="url(#a)"><path d="M0 22.5v-21C0 .675.675 0 1.5 0h21c.825 0 1.5.675 1.5 1.5v21c0 .825-.675 1.5-1.5 1.5h-21C.675 24 0 23.325 0 22.5Z" fill="#2D327D"/><path d="m4.53 16.102-1.54 1.54 3.34 3.341 1.541-1.54-3.34-3.341ZM15.219 15.491a.05.05 0 0 1 .002.013c.002.032.005.063.005.095a1.2 1.2 0 0 1-1.2 1.2h-3.45v-.375h3.45a.825.825 0 0 0 .672-1.302l-.001-.001a.826.826 0 0 0-.671-.346h-2.303c-.463 0-.759-.134-1.036-.275-.064-.031-.133-.069-.198-.1-.535-.269-1.126-.32-1.723-.32-.642-.005-1.294.137-1.837.488a3.748 3.748 0 0 0-.682.557L5.16 16.207l2.601 2.601.503-.508 5.764-.005a1.67 1.67 0 0 0 1.126-.434l.547-.538.095-.093 1.726-1.726c-.429-.013-.87-.018-1.328-.018-.321 0-.643.002-.975.005Z" fill="#fff"/><path d="M17.595 12.712c-2.469-.478-5.832-.494-7.97-.363-2.214.137-3.412.248-5.182.56.846.406 1.538.821 2.198 1.396a3.4 3.4 0 0 1 .599-.322c.456-.189.956-.278 1.525-.278.582 0 1.262.043 1.892.36.065.03.134.068.199.1.262.134.492.235.866.235h2.304c.489.002.911.298 1.096.719l.271-.002c.267-.002.533-.004.799-.004.573 0 1.134.007 1.69.031 1.034.043 2.054.144 3.117.361-1.441-1.477-2.229-2.048-3.404-2.793ZM10.635 7.497a.3.3 0 0 0 .34-.254.3.3 0 0 0-.594-.086.3.3 0 0 0 .254.34ZM10.917 5.547a.3.3 0 1 0 .086-.594.3.3 0 0 0-.086.594ZM10.354 9.447a.3.3 0 0 0 .34-.254.3.3 0 0 0-.594-.086.3.3 0 0 0 .254.34ZM13.301 6.903a.298.298 0 0 0-.257.337.299.299 0 0 0 .337.257.299.299 0 1 0-.08-.594ZM13.038 4.953a.298.298 0 0 0-.257.337.299.299 0 0 0 .337.257.299.299 0 0 0 .257-.337.298.298 0 0 0-.337-.257ZM13.563 8.853a.298.298 0 0 0-.257.337.299.299 0 0 0 .337.257.299.299 0 0 0 .257-.337.298.298 0 0 0-.337-.257ZM11.991 10.463a.3.3 0 1 0 0-.6.3.3 0 0 0 0 .6ZM11.991 6.64a.3.3 0 1 0 0-.6.3.3 0 0 0 0 .6ZM11.991 8.552a.3.3 0 1 0 0-.6.3.3 0 0 0 0 .6ZM12.816 3.6a.3.3 0 1 0 0-.6.3.3 0 0 0 0 .6ZM11.241 3.6a.3.3 0 1 0 0-.6.3.3 0 0 0 0 .6ZM11.991 4.725a.3.3 0 1 0 0-.6.3.3 0 0 0 0 .6Z" fill="#fff"/></g><defs><clipPath id="a"><path fill="#fff" d="M0 0h24v24H0z"/></clipPath></defs></svg>