<svg class="color-immutable" width="30" height="30" viewBox="0 0 30 30" fill="none" xmlns="http://www.w3.org/2000/svg"><g clip-path="url(#a)"><path d="M30 0H0v30h30V0Z" fill="#2D327D"/><path d="M25.5 3c.825 0 1.5.675 1.5 1.5v21c0 .825-.675 1.5-1.5 1.5h-21c-.825 0-1.5-.675-1.5-1.5v-21C3 3.675 3.675 3 4.5 3h21Zm0-.375h-21A1.877 1.877 0 0 0 2.625 4.5v21c0 1.034.841 1.875 1.875 1.875h21a1.877 1.877 0 0 0 1.875-1.875v-21A1.877 1.877 0 0 0 25.5 2.625Z" fill="#fff"/><path d="M12.983 12.335a1.782 1.782 0 1 1 3.563 0 1.782 1.782 0 0 1-3.563 0ZM11.998 24.1c-.056 0-.342-.056-.342-.353 0-.254.215-.353.343-.353h1.131v-7.689l-1.132.002c-.056 0-.342-.056-.342-.353 0-.254.215-.353.343-.353L16.34 15v8.394h1.125c.128 0 .342.1.342.354 0 .296-.285.352-.342.352h-5.467ZM7.964 6v.415H7.28V8.25h-.49V6.415h-.68V6h1.853ZM8.733 6.523c.244 0 .443.081.598.243.153.16.23.373.23.64 0 .276-.082.496-.245.66a.807.807 0 0 1-.597.229c-.261 0-.47-.085-.624-.255-.148-.162-.222-.373-.222-.631 0-.254.072-.461.215-.62.16-.177.374-.266.645-.266Zm-.023.348a.331.331 0 0 0-.282.143.656.656 0 0 0-.106.395c0 .173.035.306.105.398a.35.35 0 0 0 .294.14.333.333 0 0 0 .275-.127c.077-.095.115-.232.115-.411 0-.168-.034-.299-.101-.392a.349.349 0 0 0-.3-.146ZM11.377 6.57v1.679h-.425v-.245a.61.61 0 0 1-.538.29c-.201 0-.353-.066-.455-.2a.5.5 0 0 1-.084-.185 1.227 1.227 0 0 1-.026-.277V6.569h.447v.924c0 .097.002.165.008.205.006.04.017.074.035.102.047.074.127.112.241.112a.32.32 0 0 0 .306-.186c.031-.06.046-.17.046-.328V6.57h.445ZM12.766 6.541v.433a.996.996 0 0 0-.174-.02.39.39 0 0 0-.366.209c-.044.078-.066.208-.066.39v.696h-.446v-1.68h.424v.306c.121-.227.297-.341.528-.341.028 0 .062.002.1.007ZM13.422 6v.401h-.446V6h.446Zm0 .572V8.25h-.446V6.572h.446ZM15.147 7.06h-.419a.27.27 0 0 0-.047-.131c-.047-.06-.132-.09-.257-.09a.329.329 0 0 0-.183.044.138.138 0 0 0-.065.121c0 .056.024.096.072.122.047.026.156.056.327.09.216.045.372.1.467.165.113.077.17.194.17.35a.48.48 0 0 1-.21.418c-.137.097-.32.146-.546.146-.28 0-.487-.07-.618-.208a.6.6 0 0 1-.148-.386h.428a.334.334 0 0 0 .058.172c.057.07.152.105.285.105a.382.382 0 0 0 .22-.056.175.175 0 0 0 .081-.152.14.14 0 0 0-.07-.128 1.2 1.2 0 0 0-.296-.095 4.825 4.825 0 0 1-.31-.079.881.881 0 0 1-.162-.068.376.376 0 0 1-.146-.151.447.447 0 0 1-.053-.215c0-.175.073-.307.217-.399.118-.075.282-.112.493-.112.277 0 .477.07.598.212a.551.551 0 0 1 .114.325ZM16.374 6.566v.315h-.334v.79c0 .094.009.154.027.18.025.036.082.055.172.055.035 0 .08-.003.135-.008v.357c-.1.011-.193.017-.277.017a.764.764 0 0 1-.29-.043.332.332 0 0 1-.194-.253 1.939 1.939 0 0 1-.017-.324v-.77h-.272v-.316h.272v-.394h.444v.394h.334Z" fill="#fff"/></g><defs><clipPath id="a"><path fill="#fff" d="M0 0h30v30H0z"/></clipPath></defs></svg>