<svg class="color-immutable" width="30" height="30" viewBox="0 0 30 30" fill="none" xmlns="http://www.w3.org/2000/svg"><g clip-path="url(#a)"><path d="M30 0H0v30h30V0Z" fill="#2D327D"/><path d="M25.5 3c.825 0 1.5.675 1.5 1.5v21c0 .825-.675 1.5-1.5 1.5h-21c-.825 0-1.5-.675-1.5-1.5v-21C3 3.675 3.675 3 4.5 3h21Zm0-.375h-21A1.877 1.877 0 0 0 2.625 4.5v21c0 1.034.841 1.875 1.875 1.875h21a1.877 1.877 0 0 0 1.875-1.875v-21A1.877 1.877 0 0 0 25.5 2.625Z" fill="#fff"/><path d="M11.825 10.508V24H9.131v-8.832H5.956v-1.956c.658-.019 1.195-.086 1.61-.203a3.338 3.338 0 0 0 1.14-.572c.499-.382.834-1.025 1.006-1.93h2.113ZM14.557 20.613h2.547c.21 1.046.815 1.569 1.818 1.569.566 0 1.026-.192 1.38-.577.354-.384.626-.983.817-1.795.123-.517.212-1.104.267-1.762-.412.578-.835.989-1.269 1.232-.434.243-.961.364-1.582.364-.991 0-1.852-.289-2.584-.867a4.092 4.092 0 0 1-1.196-1.578 5.137 5.137 0 0 1-.429-2.105c0-1.519.52-2.75 1.56-3.69.892-.813 1.962-1.219 3.211-1.219.77 0 1.48.172 2.132.517.652.344 1.2.834 1.643 1.467.781 1.126 1.172 2.707 1.172 4.744 0 1.882-.345 3.488-1.034 4.817-.898 1.729-2.258 2.593-4.079 2.593-1.212 0-2.213-.335-3.004-1.006-.79-.67-1.247-1.572-1.37-2.704Zm4.485-8.149c-.578 0-1.067.237-1.467.71-.4.48-.6 1.09-.6 1.828 0 .597.144 1.126.434 1.588.393.633.947.95 1.66.95.647 0 1.164-.258 1.551-.775.363-.486.545-1.064.545-1.735 0-.707-.188-1.307-.563-1.8a1.874 1.874 0 0 0-1.56-.766ZM8.036 6l-.748 2.249H6.73L5.993 6h.514l.506 1.684L7.527 6h.509ZM8.874 6.523c.244 0 .444.08.598.243.153.16.23.373.23.64 0 .276-.082.495-.245.66a.807.807 0 0 1-.597.229c-.261 0-.47-.085-.624-.256-.148-.162-.222-.372-.222-.63 0-.254.072-.461.216-.62.159-.177.373-.266.644-.266Zm-.023.348a.331.331 0 0 0-.281.143.656.656 0 0 0-.107.395c0 .173.035.306.105.398a.35.35 0 0 0 .294.14.333.333 0 0 0 .275-.127c.077-.095.116-.232.116-.411 0-.168-.034-.299-.102-.392a.349.349 0 0 0-.3-.146ZM10.45 6v.401h-.447V6h.446Zm0 .572V8.25h-.447V6.572h.446ZM12.32 7.726a.751.751 0 0 1-.127.266c-.147.202-.36.303-.636.303-.25 0-.451-.08-.602-.237a.773.773 0 0 1-.17-.278 1.055 1.055 0 0 1-.062-.363c0-.244.07-.45.21-.616a.76.76 0 0 1 .61-.278.753.753 0 0 1 .735.516c.046.13.07.295.07.493h-1.171a.65.65 0 0 0 .038.205c.06.146.175.22.345.22.083 0 .15-.019.203-.055a.391.391 0 0 0 .129-.176h.429Zm-.428-.494a.54.54 0 0 0-.056-.202.338.338 0 0 0-.295-.17c-.1 0-.181.033-.246.1a.446.446 0 0 0-.115.272h.712Z" fill="#fff"/></g><defs><clipPath id="a"><path fill="#fff" d="M0 0h30v30H0z"/></clipPath></defs></svg>