<svg class="color-immutable" width="30" height="30" viewBox="0 0 30 30" fill="none" xmlns="http://www.w3.org/2000/svg"><g clip-path="url(#a)"><path d="M30 0H0v30h30V0Z" fill="#2D327D"/><path d="M25.5 3c.825 0 1.5.675 1.5 1.5v21c0 .825-.675 1.5-1.5 1.5h-21c-.825 0-1.5-.675-1.5-1.5v-21C3 3.675 3.675 3 4.5 3h21Zm0-.375h-21A1.877 1.877 0 0 0 2.625 4.5v21c0 1.034.841 1.875 1.875 1.875h21a1.877 1.877 0 0 0 1.875-1.875v-21A1.877 1.877 0 0 0 25.5 2.625Z" fill="#fff"/><path d="M10.427 14.78c.031-1.107.305-2.036.822-2.786.836-1.206 2.094-1.81 3.774-1.81 1.292 0 2.335.33 3.128.988.855.714 1.283 1.637 1.283 2.769 0 .677-.167 1.26-.503 1.749-.335.489-.789.82-1.36.992.725.166 1.299.535 1.72 1.107.421.572.632 1.264.632 2.077 0 1.335-.492 2.427-1.476 3.276-.91.787-2.061 1.181-3.452 1.181-1.507 0-2.702-.434-3.585-1.301-.883-.868-1.324-2.04-1.324-3.516v-.176h2.593c0 .831.197 1.472.59 1.925.394.452.951.678 1.671.678.72 0 1.274-.212 1.661-.637.357-.4.535-.877.535-1.43 0-.665-.227-1.19-.683-1.578-.375-.32-.953-.48-1.734-.48-.222 0-.44.012-.656.037V15.86c.16.012.314.018.462.018 1.55 0 2.325-.575 2.325-1.726 0-.504-.169-.912-.507-1.223-.339-.31-.785-.466-1.338-.466-.634 0-1.123.197-1.468.591-.344.394-.529.969-.553 1.726h-2.557ZM8.036 6l-.748 2.249H6.73L5.993 6h.514l.506 1.684L7.527 6h.509ZM8.874 6.523c.244 0 .444.08.598.243.153.16.23.373.23.64 0 .276-.082.495-.245.66a.807.807 0 0 1-.597.229c-.261 0-.47-.085-.624-.256-.148-.162-.222-.372-.222-.63 0-.254.072-.461.216-.62.159-.177.373-.266.644-.266Zm-.023.348a.331.331 0 0 0-.281.143.656.656 0 0 0-.107.395c0 .173.035.306.105.398a.35.35 0 0 0 .294.14.333.333 0 0 0 .275-.127c.077-.095.116-.232.116-.411 0-.168-.034-.299-.102-.392a.349.349 0 0 0-.3-.146ZM10.45 6v.401h-.447V6h.446Zm0 .572V8.25h-.447V6.572h.446ZM12.321 7.726a.75.75 0 0 1-.128.266c-.147.202-.36.303-.636.303-.25 0-.451-.08-.602-.237a.773.773 0 0 1-.169-.278 1.055 1.055 0 0 1-.063-.363c0-.244.07-.45.21-.616a.76.76 0 0 1 .61-.278c.2 0 .372.062.514.186.101.09.175.2.221.33.046.13.07.295.07.493h-1.171c.004.082.017.15.038.205.06.146.176.22.345.22.083 0 .15-.019.203-.055a.39.39 0 0 0 .129-.176h.429Zm-.43-.494a.537.537 0 0 0-.054-.202.337.337 0 0 0-.295-.17c-.1 0-.182.033-.247.1a.447.447 0 0 0-.115.272h.712Z" fill="#fff"/></g><defs><clipPath id="a"><path fill="#fff" d="M0 0h30v30H0z"/></clipPath></defs></svg>