<svg class="color-immutable" width="30" height="30" viewBox="0 0 30 30" fill="none" xmlns="http://www.w3.org/2000/svg"><g clip-path="url(#a)"><path d="M30 0H0v30h30V0Z" fill="#2D327D"/><path d="M25.5 3c.825 0 1.5.675 1.5 1.5v21c0 .825-.675 1.5-1.5 1.5h-21c-.825 0-1.5-.675-1.5-1.5v-21C3 3.675 3.675 3 4.5 3h21Zm0-.375h-21A1.877 1.877 0 0 0 2.625 4.5v21c0 1.034.841 1.875 1.875 1.875h21a1.877 1.877 0 0 0 1.875-1.875v-21A1.877 1.877 0 0 0 25.5 2.625Z" fill="#fff"/><path d="M14.081 15.565h-2.138c-.2-.866-.692-1.3-1.477-1.3-.83 0-1.42.511-1.768 1.531-.144.415-.26 1.044-.346 1.884.338-.456.698-.784 1.08-.984.382-.2.842-.3 1.38-.3 1.057 0 1.905.374 2.546 1.123.61.707.915 1.594.915 2.66 0 1.267-.41 2.285-1.23 3.054-.738.692-1.626 1.038-2.661 1.038-1.328 0-2.361-.501-3.1-1.503-.738-1.003-1.107-2.401-1.107-4.196 0-1.917.395-3.42 1.184-4.506.764-1.051 1.808-1.577 3.13-1.577 1.246 0 2.2.418 2.861 1.254.38.482.623 1.09.731 1.822Zm-3.807 2.577c-.538 0-.966.225-1.284.677-.287.4-.43.876-.43 1.43 0 .549.145 1.028.438 1.438a1.51 1.51 0 0 0 1.307.684c.538 0 .972-.217 1.3-.653.307-.41.461-.895.461-1.454 0-.548-.138-1.017-.415-1.407-.339-.477-.797-.715-1.377-.715ZM17.675 17.965c-.523-.18-.924-.474-1.203-.884-.28-.41-.42-.908-.42-1.492 0-.975.4-1.751 1.2-2.33.708-.513 1.549-.77 2.523-.77 1.107 0 2.012.305 2.715.915.666.575 1 1.285 1 2.13 0 .59-.142 1.095-.424 1.516-.282.42-.682.725-1.2.915.406.118.736.269.993.454.712.517 1.069 1.274 1.069 2.268 0 1.144-.439 2.054-1.315 2.73-.739.57-1.687.854-2.846.854-1.256 0-2.256-.313-2.999-.938-.774-.651-1.161-1.505-1.161-2.561 0-.99.343-1.756 1.03-2.3.313-.24.659-.41 1.038-.507Zm2.054.846c-.554 0-1.006.17-1.358.511-.35.341-.526.778-.526 1.311 0 .549.178.995.534 1.339.356.343.82.515 1.388.515.646 0 1.13-.19 1.454-.57.312-.363.469-.784.469-1.26 0-.544-.18-.99-.539-1.339-.343-.338-.817-.507-1.422-.507Zm.015-4.576c-.492 0-.89.137-1.192.412-.302.274-.454.634-.454 1.08 0 .467.153.84.458 1.119.305.28.714.42 1.227.42.512 0 .917-.14 1.215-.416.297-.277.446-.654.446-1.13 0-.467-.15-.831-.45-1.093-.3-.261-.717-.392-1.25-.392ZM6 6h1.013c.217 0 .38.027.486.082.1.05.176.125.227.223.043.082.065.169.065.261a.489.489 0 0 1-.306.463c.086.029.15.059.194.09.145.107.218.263.218.467a.61.61 0 0 1-.312.558c-.12.07-.28.105-.482.105H6.001V6Zm.491.386v.524h.45a.542.542 0 0 0 .23-.036c.091-.044.137-.12.137-.228 0-.091-.029-.157-.086-.198-.057-.042-.151-.062-.282-.062h-.449Zm0 .86v.617h.497c.143 0 .243-.02.3-.06.076-.055.114-.137.114-.248 0-.132-.051-.223-.154-.27a.749.749 0 0 0-.284-.04H6.49ZM8.637 6v.401h-.446V6h.446Zm0 .572V8.25h-.446V6.572h.446ZM9.417 6.574v.235a.632.632 0 0 1 .546-.288c.137 0 .254.035.349.105a.439.439 0 0 1 .16.21c.03.085.045.204.045.358v1.055h-.445v-.962a.74.74 0 0 0-.028-.236.21.21 0 0 0-.089-.105.356.356 0 0 0-.35.008.304.304 0 0 0-.122.133.74.74 0 0 0-.045.297v.865h-.446V6.574h.425ZM12.38 8.249h-.456a.606.606 0 0 1-.03-.168.722.722 0 0 1-.54.214c-.171 0-.306-.04-.402-.12a.475.475 0 0 1-.166-.386c0-.21.095-.356.284-.437.077-.033.219-.063.425-.09.177-.024.288-.047.331-.07.044-.021.066-.066.066-.132 0-.147-.098-.22-.293-.22-.103 0-.179.018-.226.055-.048.037-.08.101-.095.192h-.421a.545.545 0 0 1 .21-.422c.127-.095.308-.142.543-.142.26 0 .451.053.575.158.058.05.096.102.115.159a.911.911 0 0 1 .028.267l-.004.339-.003.347c0 .122.003.212.01.269.008.057.024.119.048.187Zm-.491-.81a.866.866 0 0 1-.314.084.756.756 0 0 0-.23.063c-.068.036-.1.097-.1.183 0 .07.021.124.065.163a.27.27 0 0 0 .185.058.403.403 0 0 0 .318-.138.27.27 0 0 0 .06-.1.466.466 0 0 0 .016-.136v-.178ZM13.716 6.541v.433a.995.995 0 0 0-.174-.02.39.39 0 0 0-.366.209c-.044.078-.066.208-.066.39v.696h-.446v-1.68h.424v.306c.121-.227.297-.341.528-.341a.75.75 0 0 1 .1.007ZM14.373 6v.401h-.446V6h.446Zm0 .572V8.25h-.446V6.572h.446ZM15.534 6.523a.79.79 0 0 1 .598.243c.153.16.23.373.23.64 0 .276-.082.495-.245.66a.807.807 0 0 1-.597.229c-.261 0-.47-.085-.624-.256-.148-.162-.222-.372-.222-.63 0-.254.072-.461.215-.62.16-.177.374-.266.645-.266Zm-.023.348a.331.331 0 0 0-.282.143.656.656 0 0 0-.106.395c0 .173.035.306.105.398a.35.35 0 0 0 .293.14.333.333 0 0 0 .276-.127c.077-.095.115-.232.115-.411 0-.168-.034-.299-.101-.392a.349.349 0 0 0-.3-.146Z" fill="#fff"/></g><defs><clipPath id="a"><path fill="#fff" d="M0 0h30v30H0z"/></clipPath></defs></svg>