<svg class="color-immutable" width="24" height="24" viewBox="0 0 24 24" fill="none" xmlns="http://www.w3.org/2000/svg"><g clip-path="url(#a)"><path d="M0 22.5v-21C0 .675.675 0 1.5 0h21c.825 0 1.5.675 1.5 1.5v21c0 .825-.675 1.5-1.5 1.5h-21C.675 24 0 23.325 0 22.5Z" fill="#2D327D"/><path d="M8.825 7.508V21H6.131v-8.832H2.956v-1.956c.658-.018 1.195-.086 1.61-.203a3.362 3.362 0 0 0 1.14-.572c.499-.382.834-1.025 1.006-1.929h2.113ZM16.245 7.185c1.027 0 1.932.314 2.713.941.775.628 1.338 1.593 1.689 2.898.264.997.397 2.08.397 3.248 0 1.938-.345 3.532-1.034 4.78-.406.726-.937 1.286-1.592 1.68a4.171 4.171 0 0 1-2.192.591c-1.101 0-2.043-.332-2.824-.997-1.391-1.181-2.086-3.199-2.086-6.054 0-2.03.363-3.661 1.089-4.891a4.382 4.382 0 0 1 1.62-1.624 4.402 4.402 0 0 1 2.22-.572Zm-.101 2.279c-.886 0-1.489.511-1.809 1.532-.252.812-.378 1.95-.378 3.415 0 1.292.129 2.329.388 3.11.332 1.015.947 1.523 1.846 1.523.744 0 1.298-.394 1.661-1.181s.544-1.99.544-3.608c0-1.378-.129-2.464-.388-3.258-.332-1.022-.954-1.533-1.864-1.533ZM5.036 3l-.748 2.249H3.73L2.993 3h.514l.506 1.684L4.527 3h.509ZM5.874 3.523a.79.79 0 0 1 .598.243c.153.16.229.373.229.64 0 .276-.082.496-.245.66a.807.807 0 0 1-.596.229c-.261 0-.47-.085-.624-.255-.148-.163-.222-.373-.222-.631 0-.254.072-.461.215-.62.16-.177.374-.266.645-.266Zm-.023.348a.33.33 0 0 0-.281.143.652.652 0 0 0-.107.395c0 .173.035.306.105.398.072.093.17.14.294.14a.332.332 0 0 0 .275-.128c.077-.094.115-.231.115-.411 0-.168-.034-.299-.102-.392a.347.347 0 0 0-.299-.145ZM7.449 3v.401h-.446V3h.446Zm0 .572v1.677h-.446V3.572h.446ZM9.321 4.726a.752.752 0 0 1-.128.266c-.148.202-.36.303-.637.303-.25 0-.451-.079-.601-.237a.775.775 0 0 1-.169-.278 1.058 1.058 0 0 1-.063-.363c0-.244.07-.449.211-.615a.76.76 0 0 1 .609-.278.754.754 0 0 1 .735.516c.046.131.069.295.069.493h-1.17c.004.082.017.15.038.205.06.147.175.22.345.22a.343.343 0 0 0 .203-.055.39.39 0 0 0 .129-.176h.429v-.001Zm-.429-.494a.525.525 0 0 0-.056-.201.334.334 0 0 0-.295-.171.328.328 0 0 0-.246.1.44.44 0 0 0-.115.272h.712Z" fill="#fff"/></g><defs><clipPath id="a"><path fill="#fff" d="M0 0h24v24H0z"/></clipPath></defs></svg>