<svg class="color-immutable" width="30" height="30" viewBox="0 0 30 30" fill="none" xmlns="http://www.w3.org/2000/svg"><g clip-path="url(#a)"><path d="M30 0H0v30h30V0Z" fill="#2D327D"/><path d="M25.5 3c.825 0 1.5.675 1.5 1.5v21c0 .825-.675 1.5-1.5 1.5h-21c-.825 0-1.5-.675-1.5-1.5v-21C3 3.675 3.675 3 4.5 3h21Zm0-.375h-21A1.877 1.877 0 0 0 2.625 4.5v21c0 1.034.841 1.875 1.875 1.875h21a1.877 1.877 0 0 0 1.875-1.875v-21A1.877 1.877 0 0 0 25.5 2.625Z" fill="#fff"/><path d="M12.904 17.963c-.523-.18-.924-.474-1.203-.884-.28-.41-.42-.908-.42-1.492 0-.974.4-1.751 1.2-2.33.708-.513 1.549-.77 2.523-.77 1.107 0 2.012.306 2.715.915.666.575 1 1.285 1 2.13 0 .59-.142 1.096-.424 1.516-.282.42-.682.725-1.2.915.405.118.736.27.993.454.712.518 1.069 1.274 1.069 2.268 0 1.144-.439 2.054-1.315 2.73-.739.57-1.687.854-2.846.854-1.256 0-2.256-.313-2.999-.938-.774-.651-1.161-1.505-1.161-2.561 0-.99.343-1.756 1.03-2.3.313-.24.659-.41 1.038-.507Zm2.054.846c-.554 0-1.007.17-1.358.511-.35.341-.526.778-.526 1.311 0 .55.178.995.534 1.339.356.343.819.515 1.388.515.646 0 1.13-.19 1.454-.57.312-.363.469-.784.469-1.26 0-.544-.18-.99-.539-1.338-.343-.339-.817-.508-1.422-.508Zm.015-4.576c-.492 0-.89.137-1.192.412-.303.274-.454.634-.454 1.08 0 .467.153.84.458 1.12.305.279.714.418 1.226.418.513 0 .918-.138 1.216-.415.297-.277.445-.654.445-1.13 0-.467-.15-.831-.45-1.093-.3-.261-.716-.392-1.249-.392ZM8.036 6l-.748 2.249H6.73L5.993 6h.514l.506 1.684L7.527 6h.509ZM8.874 6.523c.244 0 .444.08.598.243.153.16.23.373.23.64 0 .276-.082.495-.245.66a.807.807 0 0 1-.597.229c-.261 0-.47-.085-.624-.256-.148-.162-.222-.372-.222-.63 0-.254.072-.461.216-.62.159-.177.373-.266.644-.266Zm-.023.348a.331.331 0 0 0-.281.143.656.656 0 0 0-.107.395c0 .173.035.306.105.398a.35.35 0 0 0 .294.14.333.333 0 0 0 .275-.127c.077-.095.116-.232.116-.411 0-.168-.034-.299-.102-.392a.349.349 0 0 0-.3-.146ZM10.45 6v.401h-.447V6h.446Zm0 .572V8.25h-.447V6.572h.446ZM12.321 7.726a.75.75 0 0 1-.128.266c-.147.202-.36.303-.636.303-.25 0-.451-.08-.602-.237a.773.773 0 0 1-.169-.278 1.055 1.055 0 0 1-.063-.363c0-.244.07-.45.21-.616a.76.76 0 0 1 .61-.278c.2 0 .372.062.514.186.101.09.175.2.221.33.046.13.07.295.07.493h-1.171c.004.082.017.15.038.205.06.146.176.22.345.22.083 0 .15-.019.203-.055a.39.39 0 0 0 .129-.176h.429Zm-.43-.494a.537.537 0 0 0-.054-.202.337.337 0 0 0-.295-.17c-.1 0-.182.033-.247.1a.447.447 0 0 0-.115.272h.712Z" fill="#fff"/></g><defs><clipPath id="a"><path fill="#fff" d="M0 0h30v30H0z"/></clipPath></defs></svg>