<svg class="color-immutable" width="24" height="24" viewBox="0 0 24 24" fill="none" xmlns="http://www.w3.org/2000/svg"><g clip-path="url(#a)"><path d="M0 22.5v-21C0 .675.675 0 1.5 0h21c.825 0 1.5.675 1.5 1.5v21c0 .825-.675 1.5-1.5 1.5h-21C.675 24 0 23.325 0 22.5Z" fill="#2D327D"/><path d="M20.711 18.862a.375.375 0 0 0 .371-.428l-.319-2.236h-3.889v2.664h3.837ZM11.634 8.193H3V7.5h7.05L7.837 6 12 3.637 16.137 6h.025l-2.213 1.5h4.596c.56 0 1.035.412 1.114.966l1.003 7.022H2.999v-3.712h8.634a.366.366 0 0 0 0-.732H2.999v-.694h8.634a.366.366 0 0 0 0-.732H2.999v-.693h8.634a.366.366 0 0 0 .001-.732Zm5.015 3.207c0 .207.168.375.375.375h1.955a.375.375 0 0 0 .371-.428l-.405-2.831a.375.375 0 0 0-.371-.322h-1.551a.375.375 0 0 0-.375.375V11.4h.001Zm-3.97-3.9 2.125-1.44-2.806-1.602-2.813 1.596L11.319 7.5h1.36ZM7.791 18.021a1.913 1.913 0 1 1 3.826.002 1.913 1.913 0 0 1-3.826-.002ZM12.299 18.021a1.913 1.913 0 1 1 3.826.002 1.913 1.913 0 0 1-3.826-.002ZM21 3v.375H3V3h18ZM3 21v-.712h18V21H3ZM3 16.313V16.2h4.125v2.662H3v-2.549Z" fill="#fff"/></g><defs><clipPath id="a"><path fill="#fff" d="M0 0h24v24H0z"/></clipPath></defs></svg>