<svg class="color-immutable" width="24" height="24" viewBox="0 0 24 24" fill="none" xmlns="http://www.w3.org/2000/svg"><g clip-path="url(#a)"><path d="M0 22.5v-21C0 .675.675 0 1.5 0h21c.825 0 1.5.675 1.5 1.5v21c0 .825-.675 1.5-1.5 1.5h-21C.675 24 0 23.325 0 22.5Z" fill="#2D327D"/><path d="M10.42 4.186a.347.347 0 1 1 .49-.49l3.881 3.881h3.086c.552 0 1.04.361 1.202.89l1.894 6.203a.57.57 0 0 1 .027.174v2.706a.375.375 0 0 1-.375.375H3.001V13.5h3.637a.375.375 0 0 0 .375-.375v-4.5a.375.375 0 0 0-.375-.375H3.001v-.674h10.81l-3.391-3.39Zm6.83 10.44c0 .207.168.375.375.375h2.218a.375.375 0 0 0 .359-.484l-1.814-5.942a.562.562 0 0 0-.538-.398h-.037a.562.562 0 0 0-.562.562v5.887h-.001Zm-1.818-.113a.562.562 0 0 0 1.125 0V8.739a.562.562 0 0 0-1.125 0v5.774Zm-2.494-5.887a.375.375 0 0 0-.375-.375h-4.5a.375.375 0 0 0-.375.375v4.5c0 .207.168.375.375.375h4.5a.375.375 0 0 0 .375-.375v-4.5Zm.675.113v5.774a.562.562 0 0 0 1.124 0V8.739a.562.562 0 1 0-1.124 0ZM12.349 18.675h3.779a2.039 2.039 0 0 1-3.779 0ZM7.849 18.675h3.78a2.039 2.039 0 0 1-3.78 0ZM21 20.325H3V21h18v-.675ZM21 3H3v.375h18V3Z" fill="#fff"/></g><defs><clipPath id="a"><path fill="#fff" d="M0 0h24v24H0z"/></clipPath></defs></svg>