<svg class="color-immutable" width="24" height="24" viewBox="0 0 24 24" fill="none" xmlns="http://www.w3.org/2000/svg"><g clip-path="url(#a)"><path d="M0 22.5v-21C0 .675.675 0 1.5 0h21c.825 0 1.5.675 1.5 1.5v21c0 .825-.675 1.5-1.5 1.5h-21C.675 24 0 23.325 0 22.5Z" fill="#2D327D"/><path d="M6.6 18.675c0 .572.206 1.095.549 1.5A2.318 2.318 0 0 0 8.925 21c.712 0 1.35-.32 1.776-.825a2.325 2.325 0 1 0-4.101-1.5Zm1.125 0a1.2 1.2 0 1 1 2.4 0 1.2 1.2 0 0 1-2.4 0ZM20.999 17.775h-8.625v1.5h8.625v-1.5Z" fill="#fff"/><path d="M2.999 13.35 3 18.9c0 .207.168.375.375.375h1.95A.375.375 0 0 0 5.7 18.9V18.664a3.225 3.225 0 0 1 5.552-2.222l-.003-6.917H5.026a1.35 1.35 0 0 0-1.304 1L3.046 13a1.336 1.336 0 0 0-.047.35Zm6-3.15c.207 0 .375.168.375.375v2.175a.375.375 0 0 1-.375.375h-4.8a.375.375 0 0 1-.362-.472l.536-2.008a.598.598 0 0 1 .577-.445h4.049ZM21 12.45h-5.7a.375.375 0 0 1 0-.75H21v-.75h-5.7a.375.375 0 0 1 0-.75H21V8.175h-8.25a.375.375 0 0 0-.375.375v8.475L21 17.021V12.45Z" fill="#fff"/></g><defs><clipPath id="a"><path fill="#fff" d="M0 0h24v24H0z"/></clipPath></defs></svg>