<svg class="color-immutable" width="30" height="30" viewBox="0 0 30 30" fill="none" xmlns="http://www.w3.org/2000/svg"><g clip-path="url(#a)"><path d="M30.002 0h-30v30h30V0Z" fill="#2D327D"/><path d="M25.502 3c.825 0 1.5.675 1.5 1.5v21c0 .825-.675 1.5-1.5 1.5h-21c-.825 0-1.5-.675-1.5-1.5v-21c0-.825.675-1.5 1.5-1.5h21Zm0-.375h-21A1.877 1.877 0 0 0 2.627 4.5v21c0 1.034.841 1.875 1.875 1.875h21a1.877 1.877 0 0 0 1.875-1.875v-21a1.877 1.877 0 0 0-1.875-1.875Z" fill="#fff"/><path d="M9.6 21.675c0 .572.206 1.095.55 1.5a2.317 2.317 0 0 0 1.775.825c.713 0 1.35-.32 1.776-.825a2.325 2.325 0 1 0-4.101-1.5Zm1.125 0a1.2 1.2 0 1 1 2.4 0 1.2 1.2 0 0 1-2.4 0ZM23.999 20.775h-8.625v1.5h8.625v-1.5Z" fill="#fff"/><path d="M6 16.35v5.55c0 .207.168.375.375.375h1.95A.375.375 0 0 0 8.7 21.9V21.664a3.225 3.225 0 0 1 5.552-2.222l-.003-6.917H8.026a1.35 1.35 0 0 0-1.304 1L6.046 16c-.03.114-.047.232-.047.35Zm6-3.15c.206 0 .374.168.374.375v2.175a.375.375 0 0 1-.375.375H7.2a.375.375 0 0 1-.362-.473l.536-2.007a.597.597 0 0 1 .577-.445H12ZM24 15.45h-5.7a.375.375 0 0 1 0-.75H24v-.75h-5.7a.375.375 0 0 1 0-.75H24v-2.025h-8.25a.375.375 0 0 0-.375.375v8.475L24 20.021V15.45Z" fill="#fff"/></g><defs><clipPath id="a"><path fill="#fff" d="M0 0h30v30H0z"/></clipPath></defs></svg>