<svg class="color-immutable" width="24" height="24" viewBox="0 0 24 24" fill="none" xmlns="http://www.w3.org/2000/svg"><g clip-path="url(#a)"><path d="M0 22.5v-21C0 .675.675 0 1.5 0h21c.825 0 1.5.675 1.5 1.5v21c0 .825-.675 1.5-1.5 1.5h-21C.675 24 0 23.325 0 22.5Z" fill="#2D327D"/><path d="M15.075 16.35a2.325 2.325 0 1 0 0 4.65 2.325 2.325 0 0 0 0-4.65Zm0 3.525a1.2 1.2 0 1 1 0-2.4 1.2 1.2 0 0 1 0 2.4ZM11.626 17.775H3.001v1.5h8.625v-1.5Z" fill="#fff"/><path d="m20.954 13-.676-2.476a1.35 1.35 0 0 0-1.304-1h-6.223l-.003 6.917a3.225 3.225 0 0 1 5.552 2.222V18.9c0 .207.168.375.375.375h1.95A.375.375 0 0 0 21 18.9l.001-.225V13.35c0-.118-.016-.236-.047-.35Zm-1.904-2.8c.271 0 .506.182.577.445l.536 2.008a.375.375 0 0 1-.362.472h-4.8a.375.375 0 0 1-.375-.375v-2.175c0-.207.168-.375.375-.375h4.049ZM3 17.021l8.625.004V8.55a.375.375 0 0 0-.375-.375H3V10.2h5.7a.375.375 0 0 1 0 .75H3v.75h5.7a.375.375 0 0 1 0 .75H3v4.571Z" fill="#fff"/></g><defs><clipPath id="a"><path fill="#fff" d="M0 0h24v24H0z"/></clipPath></defs></svg>