<svg class="color-immutable" width="30" height="30" viewBox="0 0 30 30" fill="none" xmlns="http://www.w3.org/2000/svg"><path d="M30 0H0v30h30V0Z" fill="#2D327D"/><path d="M4.5 3h21c.825 0 1.5.675 1.5 1.5v21c0 .825-.675 1.5-1.5 1.5h-21c-.825 0-1.5-.675-1.5-1.5v-21C3 3.675 3.675 3 4.5 3Zm0-.375A1.877 1.877 0 0 0 2.625 4.5v21c0 1.034.841 1.875 1.875 1.875h21a1.877 1.877 0 0 0 1.875-1.875v-21A1.877 1.877 0 0 0 25.5 2.625h-21Z" fill="#fff"/><path d="M16.5 7.488a1.5 1.5 0 1 0-3.001.001 1.5 1.5 0 0 0 3.001 0ZM11.681 10.875v5.09a.534.534 0 0 0 1.069 0v-4.34h.469V23.23a.77.77 0 0 0 1.537 0v-6.75h.488v6.75a.77.77 0 0 0 1.537 0V11.625h.469v4.34a.534.534 0 0 0 1.069 0v-5.09a1.5 1.5 0 0 0-1.5-1.5H13.18a1.5 1.5 0 0 0-1.5 1.5ZM24 5.996a.186.186 0 0 0-.186.185v5.762a.151.151 0 0 0-.077.051l-.846.903c-.083.079-.143.144-.166.26a1.353 1.353 0 0 0-.016.183c-.085 2.56-1 3.433-1.362 3.583a.508.508 0 0 0-.31.515c.12 1.999 1.208 3.642 2.386 3.642h.391v2.726a.185.185 0 1 0 .371 0V6.181A.185.185 0 0 0 24 5.996Z" fill="#fff"/></svg>