<svg class="color-immutable" width="24" height="24" viewBox="0 0 24 24" fill="none" xmlns="http://www.w3.org/2000/svg"><g clip-path="url(#a)"><path d="M0 22.5v-21C0 .675.675 0 1.5 0h21c.825 0 1.5.675 1.5 1.5v21c0 .825-.675 1.5-1.5 1.5h-21C.675 24 0 23.325 0 22.5Z" fill="#2D327D"/><path d="M7.126 16.5h-3.75a.375.375 0 0 0-.376.374V21h.75v-3.749h3V21h.75v-4.126a.375.375 0 0 0-.374-.374Z" fill="#fff"/><path d="M9.851 14.9a.749.749 0 0 0-.744-.651H6.375v-2.644l1.338 1.979a.638.638 0 1 0 1.056-.713L6.017 8.799A1.65 1.65 0 0 0 3 9.724V15c0 .413.336.75.75.75h4.664l.611 4.589a.768.768 0 1 0 1.524-.202L9.851 14.9ZM20.249 15.336h-2.306v-.449a.638.638 0 0 0-.638-.637h-1.462a.638.638 0 0 0-.637.637v.449H12.9a.753.753 0 0 0-.751.751v4.162c0 .414.336.75.751.75h7.349A.749.749 0 0 0 21 20.25v-4.162a.752.752 0 0 0-.751-.752Zm-2.83 0h-1.687v-.561h1.687v.561ZM18.038 9.075a3.113 3.113 0 1 0-.002-6.226 3.113 3.113 0 0 0 .002 6.226Zm0-5.512a2.4 2.4 0 1 1-.001 4.801 2.4 2.4 0 0 1 .001-4.801Z" fill="#fff"/><path d="M19.395 4.814a.188.188 0 1 0-.266-.266l-.915.915.266.265.915-.914ZM17.951 6.259l.264-.266-1.445-1.445a.187.187 0 0 0-.32.132c0 .05.02.097.055.134l1.446 1.445ZM4.5 7.575a1.5 1.5 0 1 0-.001-2.999A1.5 1.5 0 0 0 4.5 7.575Z" fill="#fff"/></g><defs><clipPath id="a"><path fill="#fff" d="M0 0h24v24H0z"/></clipPath></defs></svg>