<svg class="color-immutable" width="24" height="24" viewBox="0 0 24 24" fill="none" xmlns="http://www.w3.org/2000/svg"><g clip-path="url(#a)"><path d="M0 22.5v-21C0 .675.675 0 1.5 0h21c.825 0 1.5.675 1.5 1.5v21c0 .825-.675 1.5-1.5 1.5h-21C.675 24 0 23.325 0 22.5Z" fill="#2D327D"/><path d="M19.407 14.279a.796.796 0 1 0 1.592 0v-.796h-1.593v.796h.001ZM19.156 10.974c-.05.223-.104.417.024.658l.342.645 1.444.578.328-1.361a.672.672 0 0 0 .003-.309l-.407-1.878a.485.485 0 0 0-.474-.382h-.426a.486.486 0 0 0-.474.382l-.36 1.667ZM16.593 14.279a.796.796 0 1 1-1.592 0v-.796h1.593v.796h-.001ZM16.844 10.974c.05.223.104.417-.024.658a227.9 227.9 0 0 0-.342.645l-1.444.578-.328-1.361a.672.672 0 0 1-.003-.309l.408-1.878a.485.485 0 0 1 .474-.382h.426c.228 0 .425.159.474.382l.36 1.667ZM6.657 20.279a.796.796 0 1 0 1.592 0v-.796H6.657v.796ZM6.406 16.974c-.05.223-.104.417.024.658l.342.645 1.444.578.328-1.361a.672.672 0 0 0 .003-.309l-.407-1.878a.485.485 0 0 0-.474-.382h-.425a.486.486 0 0 0-.474.382l-.361 1.667ZM4.593 14.279a.796.796 0 1 1-1.593 0v-.796h1.593v.796ZM4.844 10.974c.05.223.104.417-.024.658l-.342.645-1.444.578-.328-1.361a.672.672 0 0 1-.003-.309l.407-1.878a.485.485 0 0 1 .474-.382h.426c.228 0 .425.159.474.382l.36 1.667ZM6.657 8.279a.796.796 0 1 0 1.592 0v-.797H6.657v.797ZM6.406 4.974c-.051.223-.104.418.024.659l.342.645 1.444.578.328-1.361a.69.69 0 0 0 .004-.31L8.14 3.307a.484.484 0 0 0-.473-.382h-.426a.486.486 0 0 0-.474.382l-.361 1.667ZM12 21.112a.187.187 0 0 1-.187-.187V3.075a.187.187 0 0 1 .374 0v17.85a.187.187 0 0 1-.187.187Z" fill="#fff"/></g><defs><clipPath id="a"><path fill="#fff" d="M0 0h24v24H0z"/></clipPath></defs></svg>