<svg class="color-immutable" width="24" height="24" viewBox="0 0 24 24" fill="none" xmlns="http://www.w3.org/2000/svg"><g clip-path="url(#a)"><path d="M0 22.5v-21C0 .675.675 0 1.5 0h21c.825 0 1.5.675 1.5 1.5v21c0 .825-.675 1.5-1.5 1.5h-21C.675 24 0 23.325 0 22.5Z" fill="#2D327D"/><path d="M14.789 13.919H5.653a.665.665 0 1 0-.552 1.035.66.66 0 0 0 .569-.326h2.025v2.22h-2.81v.709h9.904c1.003 0 1.82-.816 1.82-1.82a1.82 1.82 0 0 0-1.82-1.818Zm0 2.929H8.404v-2.22h6.385c.612 0 1.11.498 1.11 1.11 0 .612-.498 1.11-1.11 1.11ZM3.712 3H3v18h.712V3ZM14.289 13.387l-.711-.71v-.575l.485.488a4.512 4.512 0 0 0-4.266-4.266l.488.485h-.574L9 8.098l.711-.711h.574l-.499.496a4.952 4.952 0 0 1 4.718 4.718l.496-.499v.575l-.711.71ZM4.838 13.122V4.598c0-.945.769-1.713 1.713-1.713.945 0 1.714.769 1.714 1.713v8.789h.213V4.598a1.928 1.928 0 0 0-1.926-1.926 1.928 1.928 0 0 0-1.926 1.926v8.593c.067-.03.139-.053.212-.069Z" fill="#fff"/><path d="M5.335 13.116c.073.015.144.036.213.064V11.8h2.008v1.588h.213v-1.8H5.335v1.528ZM6.551 3.382c-.671 0-1.216.546-1.216 1.216v6.492h2.433V4.598c0-.671-.546-1.216-1.217-1.216Zm1.004 7.495H5.548V4.598a1.005 1.005 0 0 1 2.008 0v6.279h-.001Z" fill="#fff"/></g><defs><clipPath id="a"><path fill="#fff" d="M0 0h24v24H0z"/></clipPath></defs></svg>