<svg class="color-immutable" width="30" height="30" viewBox="0 0 30 30" fill="none" xmlns="http://www.w3.org/2000/svg"><path d="M30 0H0v30h30V0Z" fill="#2D327D"/><path d="M25.5 3c.825 0 1.5.675 1.5 1.5v21c0 .825-.675 1.5-1.5 1.5h-21c-.825 0-1.5-.675-1.5-1.5v-21C3 3.675 3.675 3 4.5 3h21Zm0-.375h-21A1.877 1.877 0 0 0 2.625 4.5v21c0 1.034.841 1.875 1.875 1.875h21a1.877 1.877 0 0 0 1.875-1.875v-21A1.877 1.877 0 0 0 25.5 2.625Z" fill="#fff"/><path d="M17.789 16.919H8.653a.664.664 0 1 0 .017.709h2.024v2.22h-2.81v.71h9.905c1.003 0 1.82-.817 1.82-1.82 0-1.003-.817-1.82-1.82-1.82Zm0 2.93h-6.385v-2.221h6.385a1.111 1.111 0 0 1 0 2.22ZM6.712 6H6v18h.712V6ZM17.29 16.387l-.712-.71v-.575l.485.488a4.512 4.512 0 0 0-4.266-4.266l.488.485h-.574L12 11.098l.71-.71h.575l-.499.495a4.952 4.952 0 0 1 4.718 4.718l.496-.5v.575l-.71.711ZM7.838 16.122V7.598c0-.945.769-1.713 1.713-1.713.945 0 1.714.768 1.714 1.713v8.789h.212V7.598a1.928 1.928 0 0 0-1.926-1.926 1.928 1.928 0 0 0-1.926 1.926v8.593c.068-.03.14-.052.213-.07Z" fill="#fff"/><path d="M8.335 16.116c.073.015.144.036.213.064V14.8h2.007v1.587h.213v-1.8H8.335v1.529ZM9.551 6.382c-.67 0-1.216.545-1.216 1.216v6.492h2.433V7.598c0-.67-.546-1.216-1.217-1.216Zm1.004 7.495H8.547V7.598a1.005 1.005 0 0 1 2.008 0v6.279Z" fill="#fff"/></svg>