<svg class="color-immutable" width="30" height="30" viewBox="0 0 30 30" fill="none" xmlns="http://www.w3.org/2000/svg"><path d="M30 0H0V30H30V0Z" fill="#2D327D" stroke="#2D327D" stroke-miterlimit="10"/><path d="M25.5 3C26.325 3 27 3.675 27 4.5V25.5C27 26.325 26.325 27 25.5 27H4.5C3.675 27 3 26.325 3 25.5V4.5C3 3.675 3.675 3 4.5 3H25.5ZM25.5 2.625H4.5C3.46613 2.625 2.625 3.46613 2.625 4.5V25.5C2.625 26.5339 3.46613 27.375 4.5 27.375H25.5C26.5339 27.375 27.375 26.5339 27.375 25.5V4.5C27.375 3.46613 26.5339 2.625 25.5 2.625Z" fill="white"/><path d="M16.5 22.4999C16.5 23.3285 15.8285 24 15.0001 24C14.1718 24 13.5 23.3285 13.5 22.4999C13.5 21.6715 14.1718 21 15.0001 21C15.8285 21 16.5 21.6715 16.5 22.4999Z" fill="white"/><path d="M18.8186 18.7765C17.7792 17.8039 16.4246 17.2681 14.999 17.2681C13.5686 17.2681 12.221 17.8027 11.1814 18.7755L12.6068 20.2075C13.265 19.6131 14.1059 19.2841 14.999 19.2841C15.8897 19.2842 16.7354 19.6133 17.3935 20.208L18.8186 18.7765Z" fill="white"/><path d="M22.541 15.079L22.7016 14.9351L23.9719 13.659C21.6654 11.1266 18.389 9.67456 14.9628 9.67456C11.5761 9.67456 8.3299 11.0974 6.02808 13.5795L7.45038 15.0083C9.37473 12.8999 12.1097 11.6907 14.9628 11.6907C17.8509 11.6907 20.6129 12.9257 22.541 15.079Z" fill="white"/><path d="M21.3341 16.1147C19.6637 14.4009 17.4308 13.4568 15.0345 13.4568C12.6325 13.4568 10.3219 14.4516 8.66589 16.188L10.088 17.6167C11.3672 16.2541 13.1653 15.4729 15.0345 15.4729C16.892 15.4729 18.6221 16.2082 19.9121 17.5431L21.3341 16.1147Z" fill="white"/></svg>