<svg class="color-immutable" width="24" height="24" viewBox="0 0 24 24" fill="none" xmlns="http://www.w3.org/2000/svg"><path d="M0 22.5V1.5C0 0.675 0.675 0 1.5 0H22.5C23.325 0 24 0.675 24 1.5V22.5C24 23.325 23.325 24 22.5 24H1.5C0.675 24 0 23.325 0 22.5Z" fill="#2D327D"/><path d="M13.5 19.5C13.5 20.329 12.829 21 12 21C11.172 21 10.5 20.329 10.5 19.5C10.5 18.672 11.172 18 12 18C12.829 18 13.5 18.671 13.5 19.5Z" fill="white"/><path d="M15.819 15.776C14.78 14.803 13.425 14.268 11.999 14.268C10.569 14.268 9.22103 14.803 8.18103 15.775L9.60603 17.207C10.264 16.613 11.105 16.284 11.998 16.284C12.889 16.284 13.734 16.613 14.393 17.208L15.819 15.776Z" fill="white"/><path d="M19.541 12.079L19.702 11.935L20.972 10.659C18.665 8.12699 15.389 6.67499 11.963 6.67499C8.57602 6.67499 5.33002 8.09799 3.02802 10.58L4.45001 12.009C6.37501 9.89999 9.11002 8.69099 11.963 8.69099C14.851 8.69099 17.613 9.92599 19.541 12.079Z" fill="white"/><path d="M18.334 13.115C16.664 11.401 14.431 10.457 12.034 10.457C9.63201 10.457 7.32101 11.452 5.66501 13.188L7.08701 14.617C8.36601 13.254 10.164 12.473 12.034 12.473C13.891 12.473 15.622 13.208 16.912 14.543L18.334 13.115Z" fill="white"/></svg>