<svg class="color-immutable" width="30" height="30" viewBox="0 0 30 30" fill="none" xmlns="http://www.w3.org/2000/svg"><g clip-path="url(#a)"><path d="M30 0H0v30h30V0Z" fill="#2D327D"/><path d="M22.93 23.06V27H6.466c0-1.21.198-2.356.594-3.44a8.18 8.18 0 0 1 1.704-2.815c.563-.604 1.22-1.19 1.97-1.76.751-.567 2.258-1.623 4.52-3.166 1.095-.75 1.86-1.44 2.299-2.072.437-.63.656-1.362.656-2.197 0-.97-.294-1.753-.883-2.353-.59-.6-1.363-.9-2.322-.9-2.356 0-3.57 1.638-3.644 4.911H6.965v-.485c0-2.679.777-4.754 2.33-6.223 1.511-1.439 3.472-2.158 5.88-2.158 2.105 0 3.878.584 5.316 1.751 1.554 1.272 2.33 2.982 2.33 5.13 0 1.876-.62 3.492-1.86 4.847a9.735 9.735 0 0 1-1.134 1.063c-.35.271-1.285.912-2.807 1.924-1.46.99-2.494 1.735-3.104 2.236-.61.5-1.18 1.089-1.712 1.767H22.93Z" fill="#fff"/></g><defs><clipPath id="a"><path fill="#fff" d="M0 0h30v30H0z"/></clipPath></defs></svg>