<svg class="color-immutable" width="24" height="24" viewBox="0 0 24 24" fill="none" xmlns="http://www.w3.org/2000/svg"><g clip-path="url(#a)"><path d="M0 22.5v-21C0 .675.675 0 1.5 0h21c.825 0 1.5.675 1.5 1.5v21c0 .825-.675 1.5-1.5 1.5h-21C.675 24 0 23.325 0 22.5Z" fill="#2D327D"/><path d="M19.931 20.059V24H3.465c0-1.209.198-2.356.594-3.44a8.193 8.193 0 0 1 1.704-2.815 15.368 15.368 0 0 1 1.97-1.759c.751-.568 2.257-1.624 4.519-3.167 1.095-.751 1.861-1.441 2.299-2.072.438-.631.657-1.363.657-2.197 0-.97-.295-1.754-.884-2.353-.589-.599-1.363-.899-2.322-.899-2.356 0-3.571 1.637-3.644 4.91H3.965v-.485c0-2.679.777-4.754 2.33-6.224 1.511-1.439 3.471-2.158 5.88-2.158 2.106 0 3.878.584 5.317 1.751 1.553 1.272 2.33 2.982 2.33 5.129 0 1.876-.62 3.492-1.861 4.848a9.76 9.76 0 0 1-1.134 1.063c-.349.271-1.285.912-2.807 1.923-1.46.991-2.494 1.736-3.104 2.236-.61.5-1.181 1.089-1.712 1.767h10.727v.001Z" fill="#fff"/></g><defs><clipPath id="a"><path fill="#fff" d="M0 0h24v24H0z"/></clipPath></defs></svg>