<svg class="color-immutable" width="24" height="24" viewBox="0 0 24 24" fill="none" xmlns="http://www.w3.org/2000/svg"><path fill-rule="evenodd" clip-rule="evenodd" d="M22.5 0h-21C.675 0 0 .675 0 1.5v21c0 .825.675 1.5 1.5 1.5h21c.825 0 1.5-.675 1.5-1.5v-21c0-.825-.675-1.5-1.5-1.5Z" fill="#2D327D"/><path fill-rule="evenodd" clip-rule="evenodd" d="M3.188 21.188h17.625A.186.186 0 0 0 21 21a.186.186 0 0 0-.188-.188H3.188A.186.186 0 0 0 3 21c0 .105.083.188.188.188ZM2.88 8.805a3.581 3.581 0 0 1 3.015-.307l5.497 2.002 6.998-5.715 1.455.405-3.592 7.08 2.542.922 1.755-2.182 1.072.45-1.56 3.727h-5.355L4.11 11.332a4.204 4.204 0 0 1-1.395-.84 1.056 1.056 0 0 1 .165-1.687Z" fill="#fff"/></svg>