<svg class="color-immutable" width="24" height="24" viewBox="0 0 24 24" fill="none" xmlns="http://www.w3.org/2000/svg"><path fill-rule="evenodd" clip-rule="evenodd" d="M22.5 0h-21C.675 0 0 .675 0 1.5v21c0 .825.675 1.5 1.5 1.5h21c.825 0 1.5-.675 1.5-1.5v-21c0-.825-.675-1.5-1.5-1.5Z" fill="#2D327D"/><path fill-rule="evenodd" clip-rule="evenodd" d="M20.813 21.188H3.188A.186.186 0 0 1 3 21c0-.105.083-.188.188-.188h17.625c.105 0 .187.083.187.188a.186.186 0 0 1-.188.188ZM21.12 8.805a3.581 3.581 0 0 0-3.015-.307L12.607 10.5 5.61 4.785l-1.455.405 3.592 7.08-2.55.93-1.755-2.183-1.072.45 1.56 3.728h5.355l10.605-3.863c.517-.187.99-.472 1.395-.84a1.056 1.056 0 0 0-.165-1.687Z" fill="#fff"/></svg>