<svg class="color-immutable" width="24" height="24" viewBox="0 0 24 24" fill="none" xmlns="http://www.w3.org/2000/svg"><path fill-rule="evenodd" clip-rule="evenodd" d="M22.5 0h-21C.675 0 0 .675 0 1.5v21c0 .825.675 1.5 1.5 1.5h21c.825 0 1.5-.675 1.5-1.5v-21c0-.825-.675-1.5-1.5-1.5Z" fill="#2D327D"/><path fill-rule="evenodd" clip-rule="evenodd" d="m20.872 18.585-8.1-14.025c-.165-.277-.434-.472-.772-.472-.322 0-.607.202-.773.472l-8.1 14.025c-.157.277-.187.607-.022.9.165.285.48.42.795.428h16.2c.322-.008.622-.143.795-.428.165-.277.128-.63-.023-.9Z" fill="#fff"/><path fill-rule="evenodd" clip-rule="evenodd" d="m12.773 4.56 8.1 14.025c.15.27.187.622.022.9-.172.285-.473.42-.795.428H3.9c-.315-.008-.63-.143-.795-.428-.165-.293-.135-.622.022-.9l8.1-14.025c.165-.27.45-.472.773-.472.338 0 .607.195.773.472Zm-7.646 13.8-.005.008v-.008h.005ZM12 6.45 5.127 18.36h13.75L12 6.45Z" fill="#EB0000"/><path fill-rule="evenodd" clip-rule="evenodd" d="M13.2 13.958h1.898c.247 0 .464.202.45.45a.44.44 0 0 1-.42.442H13.53l-.465.548h1.395c.195 0 .367.165.367.367v1.665a.45.45 0 0 1-.884 0v-1.14H11.79s-1.17-.69-1.177-.69l.12.525s.96.668 1.072.75c.113.075.203.18.203.323a.352.352 0 0 1-.353.352c-.098 0-.15-.03-.255-.097-.105-.068-1.223-.855-1.223-.855-.075-.06-.082-.083-.104-.165-.023-.083-.316-1.403-.316-1.403a1.52 1.52 0 0 1-.044-.322c0-.45.33-.818.764-.878l1.035-.255v-1.087a.362.362 0 0 1 .36-.345c.196 0 .353.157.353.352v1.5a.17.17 0 0 1-.143.173l-.78.195.998.577.75-.892a.17.17 0 0 1 .15-.09Zm-4.762-.285c0-.413.337-.75.75-.75.412 0 .75.337.75.75 0 .412-.338.75-.75.75a.752.752 0 0 1-.75-.75Z" fill="#000"/></svg>