<svg class="color-immutable" width="24" height="24" viewBox="0 0 24 24" fill="none" xmlns="http://www.w3.org/2000/svg"><path fill-rule="evenodd" clip-rule="evenodd" d="M22.5 0h-21C.675 0 0 .675 0 1.5v21c0 .825.675 1.5 1.5 1.5h21c.825 0 1.5-.675 1.5-1.5v-21c0-.825-.675-1.5-1.5-1.5Z" fill="#2D327D"/><path fill-rule="evenodd" clip-rule="evenodd" d="m21.758 19.23-8.91-15.428c-.18-.3-.48-.517-.848-.517-.36 0-.668.225-.848.517L2.25 19.237c-.172.308-.21.675-.03.99.18.308.533.465.878.473H20.91c.352-.008.69-.158.87-.473.18-.307.142-.69-.023-.997Z" fill="#fff"/><path fill-rule="evenodd" clip-rule="evenodd" d="M11.152 3.802c.18-.292.488-.517.848-.517.367 0 .668.217.848.517l8.902 15.435c.165.3.21.683.03.99-.18.315-.518.465-.87.473H3.098c-.345-.008-.698-.165-.878-.473-.18-.315-.142-.682.03-.99l8.902-15.435ZM20.529 19.5 12 4.74 3.48 19.5h17.047Z" fill="#EB0000"/><path fill-rule="evenodd" clip-rule="evenodd" d="M15.405 14.482v1.103a.11.11 0 0 0 .113.112.11.11 0 0 0 .112-.112v-.938h.105v2.513c0 .09.075.165.165.165.09 0 .165-.075.165-.165v-1.463h.105v1.463c0 .09.075.165.165.165.09 0 .165-.075.165-.165v-2.513h.105v.938a.11.11 0 0 0 .113.112.11.11 0 0 0 .112-.112v-1.103a.32.32 0 0 0-.322-.322h-.788a.323.323 0 0 0-.315.322ZM16.44 13.747a.32.32 0 0 0-.322-.322.32.32 0 0 0-.323.322c0 .18.143.323.323.323a.316.316 0 0 0 .322-.323Z" fill="#000"/><path fill-rule="evenodd" clip-rule="evenodd" d="M15 17.625h-2.25v1.5h.375V18H15v-.375Z" fill="#EB0000"/><path fill="#000" d="M15 17.625h3.375V18H15z"/><path fill-rule="evenodd" clip-rule="evenodd" d="M12.75 12v.157l.158-.157h-.158ZM13.252 12l-.502.502v.158l.66-.66h-.158ZM13.748 12l-.998.997v.165L13.912 12h-.165ZM14.752 12l-2.002 2.002v.158L14.91 12h-.158ZM15 12.247l-2.25 2.25v.165l2.25-2.25v-.165ZM15 12.75 12.75 15v.157l2.25-2.25v-.157ZM15 13.252l-2.25 2.25v.158L15 13.41v-.158ZM15 13.747l-2.25 2.25v.165l2.25-2.25v-.165ZM15 14.25l-2.25 2.25v.157l2.25-2.25v-.157ZM15 14.752l-2.25 2.25v.158L15 14.91v-.158ZM15 15.247l-2.002 2.003h.165L15 15.412v-.165ZM15 15.75l-1.5 1.5h.158L15 15.907v-.157ZM15 16.253l-.998.997h.158l.84-.84v-.157ZM15 16.747l-.502.503h.165l.337-.338v-.165ZM14.25 12l-1.5 1.5v.157L14.408 12h-.158Z" fill="#EB0000"/><path fill="#000" d="M11.25 18.525h.375v.6h-.375zM8.625 18.525H9v.6h-.375z"/><path fill-rule="evenodd" clip-rule="evenodd" d="m12.27 12.645-.54-.54a.408.408 0 0 0-.255-.105h-2.7a.408.408 0 0 0-.255.105l-.54.54a.408.408 0 0 0-.105.255v4.575c0 .082.03.21.067.285l.24.48a.266.266 0 0 0 .218.135h3.45c.082 0 .18-.06.218-.135l.24-.48a.755.755 0 0 0 .067-.285V12.9a.408.408 0 0 0-.105-.255Zm-2.52-.195h.75v.3h-.75v-.3Zm-1.5 4.05H9v-.3h-.75v.3Zm3.75 0h-.75v-.3H12v.3ZM8.25 15H12v-1.875H8.25V15ZM11.115 10.875H9.127a.134.134 0 0 0-.135.135c0 .075.06.135.135.135h.863v.713h.262v-.713h.863c.075 0 .135-.06.135-.135a.134.134 0 0 0-.135-.135Z" fill="#000"/></svg>