<svg class="color-immutable" width="24" height="24" viewBox="0 0 24 24" fill="none" xmlns="http://www.w3.org/2000/svg"><path fill-rule="evenodd" clip-rule="evenodd" d="M22.5 0h-21C.675 0 0 .675 0 1.5v21c0 .825.675 1.5 1.5 1.5h21c.825 0 1.5-.675 1.5-1.5v-21c0-.825-.675-1.5-1.5-1.5Z" fill="#2D327D"/><path fill-rule="evenodd" clip-rule="evenodd" d="m2.242 19.23 8.91-15.428c.18-.3.48-.517.848-.517.36 0 .667.225.847.517l8.903 15.435c.172.308.21.675.03.99-.18.308-.533.465-.878.473H3.09c-.353-.008-.69-.158-.87-.473-.18-.307-.143-.69.022-.997Z" fill="#fff"/><path fill-rule="evenodd" clip-rule="evenodd" d="M11.152 3.802c.18-.3.473-.517.848-.517.36 0 .667.225.847.517l8.895 15.428c.173.307.21.667.03.99-.18.307-.532.465-.877.472H3.082c-.352-.007-.682-.15-.87-.472-.18-.308-.135-.69.03-.99l8.91-15.428ZM20.52 19.5 12 4.74 3.472 19.5H20.52Z" fill="#EB0000"/><path fill-rule="evenodd" clip-rule="evenodd" d="M8.595 14.482v1.103a.11.11 0 0 1-.113.112.11.11 0 0 1-.112-.112v-.938h-.105v2.513c0 .09-.075.165-.165.165a.166.166 0 0 1-.165-.165v-1.463H7.83v1.463c0 .09-.075.165-.165.165a.166.166 0 0 1-.165-.165v-2.513h-.105v.938a.11.11 0 0 1-.113.112.11.11 0 0 1-.112-.112v-1.103a.32.32 0 0 1 .322-.322h.788c.165 0 .315.142.315.322ZM7.56 13.747a.32.32 0 0 1 .322-.322.32.32 0 0 1 .323.322.32.32 0 0 1-.323.323.316.316 0 0 1-.322-.323Z" fill="#000"/><path fill-rule="evenodd" clip-rule="evenodd" d="M9 17.625h2.25v1.5h-.375V18H9v-.375Z" fill="#EB0000"/><path fill="#000" d="M5.625 17.625H9V18H5.625z"/><path fill-rule="evenodd" clip-rule="evenodd" d="M11.25 12v.157L11.092 12h.158ZM10.747 12l.503.502v.158l-.66-.66h.157ZM10.252 12l.998.997v.165L10.088 12h.165ZM9.247 12l2.003 2.002v.158L9.09 12h.157ZM9 12.247l2.25 2.25v.165L9 12.412v-.165ZM9 12.75 11.25 15v.157L9 12.907v-.157ZM9 13.252l2.25 2.25v.158L9 13.41v-.158ZM9 13.747l2.25 2.25v.165L9 13.912v-.165ZM9 14.25l2.25 2.25v.157L9 14.407v-.157ZM9 14.752l2.25 2.25v.158L9 14.91v-.158ZM9 15.247l2.002 2.003h-.165L9 15.412v-.165ZM9 15.75l1.5 1.5h-.158L9 15.907v-.157ZM9 16.253l.998.997H9.84L9 16.41v-.157ZM9 16.747l.502.503h-.165L9 16.912v-.165ZM9.75 12l1.5 1.5v.157L9.593 12h.157Z" fill="#EB0000"/><path fill="#000" d="M12.375 18.525h.375v.6h-.375zM15 18.525h.375v.6H15z"/><path fill-rule="evenodd" clip-rule="evenodd" d="M11.625 12.9v4.575c0 .082.03.21.068.285l.24.48a.266.266 0 0 0 .217.135h3.45c.082 0 .18-.06.218-.135l.24-.48a.755.755 0 0 0 .067-.285V12.9a.408.408 0 0 0-.105-.255l-.54-.54a.408.408 0 0 0-.255-.105h-2.7a.408.408 0 0 0-.255.105l-.54.54a.408.408 0 0 0-.105.255Zm2.625-.15h-.75v-.3h.75v.3Zm1.5 3.45H15v.3h.75v-.3Zm-3.75 0h.75v.3H12v-.3Zm3.75-3.075H12V15h3.75v-1.875ZM12.885 10.875h1.988c.075 0 .135.06.135.135 0 .075-.06.135-.135.135h-.863v.713h-.262v-.713h-.863a.134.134 0 0 1-.135-.135c0-.075.06-.135.135-.135Z" fill="#000"/></svg>