<svg class="color-immutable" width="30" height="30" viewBox="0 0 30 30" fill="none" xmlns="http://www.w3.org/2000/svg"><g clip-path="url(#a)"><path d="M30 0H0v30h30V0Z" fill="#2D327D"/><path d="M25.5 3c.825 0 1.5.675 1.5 1.5v21c0 .825-.675 1.5-1.5 1.5h-21c-.825 0-1.5-.675-1.5-1.5v-21C3 3.675 3.675 3 4.5 3h21Zm0-.375h-21A1.877 1.877 0 0 0 2.625 4.5v21c0 1.034.841 1.875 1.875 1.875h21a1.877 1.877 0 0 0 1.875-1.875v-21A1.877 1.877 0 0 0 25.5 2.625Z" fill="#fff"/><path d="M24 23.7H6v.3h18v-.3Z" fill="#fff"/><path fill-rule="evenodd" clip-rule="evenodd" d="M23.625 18.75h-3.809l-.771-2.475h3.567c.269 0 .488-.22.488-.487a.489.489 0 0 0-.488-.488h-3.871l-1.566-5.025h-1.35l2.467 9.525c.114.39.474.675.9.675h4.433A.376.376 0 0 0 24 20.1v-.975a.376.376 0 0 0-.375-.375ZM18 8.925c.158-.166.15-.245.15-.397V6.375A.376.376 0 0 0 17.775 6H16.2a.376.376 0 0 0-.375.375v3.45h1.35l.825-.9ZM8.467 19.8c.114.39.474.675.9.675H13.8a.376.376 0 0 0 .375-.375v-.975a.376.376 0 0 0-.375-.375H9.991l-.771-2.475h3.567c.269 0 .488-.22.488-.487a.489.489 0 0 0-.488-.488h-3.87L7.35 10.275H6L8.467 19.8ZM8.175 8.925c.158-.166.15-.245.15-.397V6.375A.376.376 0 0 0 7.95 6H6.375A.376.376 0 0 0 6 6.375v3.45h1.35l.825-.9Z" fill="#fff"/></g><defs><clipPath id="a"><path fill="#fff" d="M0 0h30v30H0z"/></clipPath></defs></svg>