<svg class="color-immutable" width="24" height="24" viewBox="0 0 24 24" fill="none" xmlns="http://www.w3.org/2000/svg"><g clip-path="url(#a)"><path d="M0 22.5v-21C0 .675.675 0 1.5 0h21c.825 0 1.5.675 1.5 1.5v21c0 .825-.675 1.5-1.5 1.5h-21C.675 24 0 23.325 0 22.5Z" fill="#2D327D"/><path d="m19.875 9-1.313 2.055-4.688-.18L15 3h-1.845l-2.635 7.875H4.125a1.125 1.125 0 0 0 0 2.25h6.395L13.155 21H15l-1.125-7.875 4.688-.18L19.875 15H21l-.75-3L21 9h-1.125Z" fill="#fff"/></g><defs><clipPath id="a"><path fill="#fff" d="M0 0h24v24H0z"/></clipPath></defs></svg>