<svg class="color-immutable" width="24" height="24" viewBox="0 0 24 24" fill="none" xmlns="http://www.w3.org/2000/svg"><g clip-path="url(#a)"><path d="M0 22.5v-21C0 .675.675 0 1.5 0h21c.825 0 1.5.675 1.5 1.5v21c0 .825-.675 1.5-1.5 1.5h-21C.675 24 0 23.325 0 22.5Z" fill="#2D327D"/><path d="M18.15 16.184a1.164 1.164 0 0 0-.641-1.025l-.029-.014c-.636-.316-1.715-1.071-1.715-2.558 0-1.798-.128-2.75-.458-3.394-.366-.715-.992-1.04-2.024-1.052.015-.267.024-.846-.338-1.264-.156-.182-.447-.398-.945-.398-.498 0-.789.216-.946.397-.362.418-.353.997-.338 1.264-1.032.012-1.658.338-2.023 1.052-.33.644-.458 1.596-.458 3.394 0 1.487-1.079 2.242-1.715 2.558l-.029.015c-.376.19-.635.577-.641 1.025v.872h12.3v-.872Zm-6.63-8.905c.107-.124.264-.184.48-.184.216 0 .373.06.48.184.205.237.19.674.187.859h-1.334c-.003-.185-.018-.622.187-.859ZM10.769 17.364a1.281 1.281 0 1 0 2.462 0h-2.462ZM17.658 12.247a.376.376 0 0 1-.347-.519 4.096 4.096 0 0 0 .313-1.579 4.098 4.098 0 0 0-1.208-2.917.375.375 0 0 1 .53-.53 4.843 4.843 0 0 1 1.428 3.447c0 .646-.125 1.274-.37 1.866a.372.372 0 0 1-.346.232ZM19.738 13.108a.376.376 0 0 1-.346-.519 6.337 6.337 0 0 0 .484-2.44 6.333 6.333 0 0 0-1.867-4.508.375.375 0 0 1 .53-.53 7.078 7.078 0 0 1 2.087 5.038 7.08 7.08 0 0 1-.541 2.727.376.376 0 0 1-.347.232ZM6.342 12.247a.376.376 0 0 1-.347-.231 4.838 4.838 0 0 1-.37-1.866c0-1.302.507-2.526 1.428-3.447a.375.375 0 0 1 .53.53 4.098 4.098 0 0 0-1.208 2.917c0 .547.105 1.078.313 1.579a.375.375 0 0 1-.346.518ZM4.262 13.108a.376.376 0 0 1-.347-.231 7.08 7.08 0 0 1-.541-2.727c0-1.903.741-3.692 2.087-5.038a.375.375 0 0 1 .53.53 6.333 6.333 0 0 0-1.867 4.508c0 .845.163 1.666.484 2.44a.375.375 0 0 1-.346.518Z" fill="#fff"/></g><defs><clipPath id="a"><path fill="#fff" d="M0 0h24v24H0z"/></clipPath></defs></svg>