<svg class="color-immutable" width="30" height="30" viewBox="0 0 30 30" fill="none" xmlns="http://www.w3.org/2000/svg"><path d="M30 0H0v30h30V0Z" fill="#2D327D"/><path d="M25.5 3c.825 0 1.5.675 1.5 1.5v21c0 .825-.675 1.5-1.5 1.5h-21c-.825 0-1.5-.675-1.5-1.5v-21C3 3.675 3.675 3 4.5 3h21Zm0-.375h-21A1.877 1.877 0 0 0 2.625 4.5v21c0 1.034.841 1.875 1.875 1.875h21a1.877 1.877 0 0 0 1.875-1.875v-21A1.877 1.877 0 0 0 25.5 2.625Z" fill="#fff"/><path d="M15 23.992a.185.185 0 0 1-.186-.186V6.181a.185.185 0 1 1 .371 0v17.625a.185.185 0 0 1-.185.186ZM19.213 7.488a1.5 1.5 0 1 1 3.002.002 1.5 1.5 0 0 1-3.002-.002ZM24 10.875v5.09a.534.534 0 0 1-1.069 0v-4.34h-.468V23.23a.77.77 0 0 1-1.538 0v-6.75h-.487v6.75a.77.77 0 0 1-1.538 0V11.625h-.469v4.34a.534.534 0 0 1-1.069 0v-5.09a1.5 1.5 0 0 1 1.5-1.5H22.5a1.5 1.5 0 0 1 1.5 1.5ZM12.76 15.704a.534.534 0 1 0 1.004-.37l-1.834-4.978a1.5 1.5 0 0 0-1.408-.981H8.825a1.5 1.5 0 0 0-1.408.981l-1.834 4.978a.533.533 0 0 0 .501.72c.224 0 .424-.14.502-.35l1.503-4.08h.5L5.962 18.75h1.929v4.48a.769.769 0 0 0 1.537 0v-4.48h.488v4.48a.769.769 0 0 0 1.538 0v-4.48h1.928l-2.625-7.125h.5l1.503 4.079ZM11.143 7.488a1.5 1.5 0 1 0-3.002.002 1.5 1.5 0 0 0 3.002-.002Z" fill="#fff"/></svg>