<svg class="color-immutable" width="24" height="24" viewBox="0 0 24 24" fill="none" xmlns="http://www.w3.org/2000/svg"><g clip-path="url(#a)"><path d="M0 22.5v-21C0 .675.675 0 1.5 0h21c.825 0 1.5.675 1.5 1.5v21c0 .825-.675 1.5-1.5 1.5h-21C.675 24 0 23.325 0 22.5Z" fill="#2D327D"/><path d="M12 20.992a.185.185 0 0 1-.185-.185V3.181a.185.185 0 0 1 .37 0v17.625a.185.185 0 0 1-.185.186ZM16.213 4.488a1.5 1.5 0 1 1 3.001.001 1.5 1.5 0 0 1-3.001-.001ZM21 7.875v5.091a.534.534 0 1 1-1.068 0V8.625h-.469v11.606a.77.77 0 0 1-1.538 0v-6.75h-.487v6.75a.77.77 0 0 1-1.538 0V8.625h-.469v4.341a.534.534 0 0 1-1.069 0V7.875a1.5 1.5 0 0 1 1.5-1.5H19.5a1.5 1.5 0 0 1 1.5 1.5ZM9.761 12.704a.535.535 0 1 0 1.002-.369L8.93 7.356a1.501 1.501 0 0 0-1.408-.981H5.824c-.628 0-1.19.392-1.408.981l-1.834 4.978a.534.534 0 1 0 1.002.369l1.503-4.079h.499L2.963 15.75h1.928v4.481a.77.77 0 0 0 1.538 0V15.75h.488v4.481a.768.768 0 0 0 1.538 0V15.75h1.929L7.758 8.625h.5l1.503 4.079ZM8.142 4.488a1.5 1.5 0 1 0-3.001.001 1.5 1.5 0 0 0 3.001-.001Z" fill="#fff"/></g><defs><clipPath id="a"><path fill="#fff" d="M0 0h24v24H0z"/></clipPath></defs></svg>