<svg class="color-immutable" width="24" height="24" viewBox="0 0 24 24" fill="none" xmlns="http://www.w3.org/2000/svg"><path fill-rule="evenodd" clip-rule="evenodd" d="M22.5 0h-21C.675 0 0 .675 0 1.5v21c0 .825.675 1.5 1.5 1.5h21c.825 0 1.5-.675 1.5-1.5v-21c0-.825-.675-1.5-1.5-1.5Z" fill="#2D327D"/><path fill-rule="evenodd" clip-rule="evenodd" d="M3.232 21.188h17.626a.186.186 0 0 0 .187-.188.186.186 0 0 0-.188-.188H3.233a.186.186 0 0 0-.187.188c0 .105.082.188.187.188ZM3.022 13.875c.166-.3.383-.578.63-.825a3.628 3.628 0 0 1 1.83-.953l5.76-1.012 3.338-7.71 1.463-.383.3 7.185 2.67-.472.562-2.025 1.155-.15.39 3.292-4.643 2.655-11.13 1.973a4.243 4.243 0 0 1-1.627-.03 1.097 1.097 0 0 1-.533-.293 1.068 1.068 0 0 1-.164-1.252Z" fill="#fff"/><circle cx="6.142" cy="16.177" r=".502" fill="#fff"/><circle cx="12.518" cy="15.008" r=".54" fill="#fff"/><circle cx="14.085" cy="14.738" r=".54" fill="#fff"/></svg>