<svg class="color-immutable" width="24" height="24" viewBox="0 0 24 24" fill="none" xmlns="http://www.w3.org/2000/svg"><path fill-rule="evenodd" clip-rule="evenodd" d="M22.5 0h-21C.675 0 0 .675 0 1.5v21c0 .825.675 1.5 1.5 1.5h21c.825 0 1.5-.675 1.5-1.5v-21c0-.825-.675-1.5-1.5-1.5Z" fill="#2D327D"/><path fill-rule="evenodd" clip-rule="evenodd" d="M20.767 21.188H3.143A.186.186 0 0 1 2.955 21c0-.105.083-.188.188-.188h17.624c.105 0 .188.083.188.188a.186.186 0 0 1-.188.188ZM20.977 13.875a3.705 3.705 0 0 0-.63-.825 3.628 3.628 0 0 0-1.83-.953l-5.76-1.012-3.33-7.703L7.958 3l-.3 7.185-2.67-.473-.562-2.024-1.155-.15-.39 3.292 4.643 2.655 11.13 1.965c.54.098 1.095.083 1.627-.03.203-.045.39-.15.532-.293.323-.337.39-.847.165-1.252Z" fill="#fff"/><circle cx="17.858" cy="16.177" r=".502" fill="#fff"/><circle cx="11.482" cy="15.015" r=".54" fill="#fff"/><circle cx="9.915" cy="14.738" r=".54" fill="#fff"/></svg>