<svg class="color-immutable" width="30" height="30" viewBox="0 0 30 30" fill="none" xmlns="http://www.w3.org/2000/svg"><path d="M30 0H0v30h30V0Z" fill="#2D327D"/><path d="M25.5 3c.825 0 1.5.675 1.5 1.5v21c0 .825-.675 1.5-1.5 1.5h-21c-.825 0-1.5-.675-1.5-1.5v-21C3 3.675 3.675 3 4.5 3h21Zm0-.375h-21A1.877 1.877 0 0 0 2.625 4.5v21c0 1.034.841 1.875 1.875 1.875h21a1.877 1.877 0 0 0 1.875-1.875v-21A1.877 1.877 0 0 0 25.5 2.625Z" fill="#fff"/><path d="M24 15.004c0-2.03-.844-3.866-2.2-5.176a.374.374 0 0 0-.52.541 6.43 6.43 0 0 1 1.97 4.635 6.43 6.43 0 0 1-1.963 4.627.374.374 0 0 0 .012.549h.001c.146.13.368.127.508-.008A7.18 7.18 0 0 0 24 15.004Z" fill="#fff"/><path d="M21.6 15.005a5.236 5.236 0 0 0-1.681-3.846.377.377 0 0 0-.507-.01.376.376 0 0 0-.003.56 4.487 4.487 0 0 1 .01 6.583.376.376 0 0 0 .003.558c.146.13.366.124.508-.01a5.236 5.236 0 0 0 1.67-3.835ZM19.2 15.006c0-1.014-.45-1.924-1.16-2.543a.374.374 0 0 0-.492.002l-.002.002a.376.376 0 0 0 .007.565 2.619 2.619 0 0 1 .012 3.937.376.376 0 0 0-.005.564l.001.001a.374.374 0 0 0 .495.001 3.366 3.366 0 0 0 1.144-2.529ZM6.478 12.525a.478.478 0 0 0-.478.479v3.992c0 .264.214.478.478.478h2.447v-4.948H6.478ZM13.799 9.251a.478.478 0 0 0-.514.078l-3.61 3.197v4.948l3.61 3.196a.479.479 0 0 0 .796-.358V9.687a.479.479 0 0 0-.282-.436Z" fill="#fff"/></svg>