<svg class="color-immutable" width="24" height="24" viewBox="0 0 24 24" fill="none" xmlns="http://www.w3.org/2000/svg"><g clip-path="url(#a)"><path d="M0 22.5v-21C0 .675.675 0 1.5 0h21c.825 0 1.5.675 1.5 1.5v21c0 .825-.675 1.5-1.5 1.5h-21C.675 24 0 23.325 0 22.5Z" fill="#2D327D"/><path d="M21 12.004c0-2.03-.844-3.865-2.2-5.175a.374.374 0 0 0-.52.541 6.428 6.428 0 0 1 1.97 4.634 6.43 6.43 0 0 1-1.963 4.627.375.375 0 0 0 .521.54A7.177 7.177 0 0 0 21 12.004Z" fill="#fff"/><path d="M18.6 12.005a5.236 5.236 0 0 0-1.681-3.846.377.377 0 0 0-.507-.009.376.376 0 0 0-.003.559 4.487 4.487 0 0 1 .01 6.583.376.376 0 0 0 .004.558.378.378 0 0 0 .508-.009 5.239 5.239 0 0 0 1.669-3.836ZM16.2 12.006c0-1.014-.45-1.924-1.16-2.543a.374.374 0 0 0-.493.002l-.001.001a.376.376 0 0 0 .007.566 2.62 2.62 0 0 1 .012 3.937.376.376 0 0 0-.006.564l.001.001a.374.374 0 0 0 .495.001 3.362 3.362 0 0 0 1.145-2.529ZM3.478 9.526a.477.477 0 0 0-.478.478v3.992c0 .264.214.478.478.478h2.447V9.526H3.478ZM10.799 6.251a.477.477 0 0 0-.513.078L6.675 9.526v4.948l3.611 3.196a.478.478 0 0 0 .795-.358V6.688a.48.48 0 0 0-.282-.437Z" fill="#fff"/></g><defs><clipPath id="a"><path fill="#fff" d="M0 0h24v24H0z"/></clipPath></defs></svg>