<svg class="color-immutable" width="30" height="30" viewBox="0 0 30 30" fill="none" xmlns="http://www.w3.org/2000/svg"><path d="M30 0H0v30h30V0Z" fill="#2D327D"/><path d="M25.5 3c.825 0 1.5.675 1.5 1.5v21c0 .825-.675 1.5-1.5 1.5h-21c-.825 0-1.5-.675-1.5-1.5v-21C3 3.675 3.675 3 4.5 3h21Zm0-.375h-21A1.877 1.877 0 0 0 2.625 4.5v21c0 1.034.841 1.875 1.875 1.875h21a1.877 1.877 0 0 0 1.875-1.875v-21A1.877 1.877 0 0 0 25.5 2.625Z" fill="#fff"/><path d="M6.23 24.185h17.626a.185.185 0 1 0 0-.37H6.23a.185.185 0 1 0 0 .37ZM6.02 16.874a3.563 3.563 0 0 1 2.46-1.773l5.758-1.015 3.336-7.707L19.04 6l.297 7.187 2.666-.47.562-2.027 1.154-.15.393 3.29-4.645 2.658-11.115 1.96a4.242 4.242 0 0 1-1.629-.031 1.056 1.056 0 0 1-.702-1.543ZM9.14 19.68a.501.501 0 1 0 0-1.002.501.501 0 0 0 0 1.002ZM16.023 18.212a.543.543 0 1 0-1.008-.403.543.543 0 0 0 1.008.403ZM17.427 18.156a.543.543 0 1 0-.687-.841.543.543 0 0 0 .687.84Z" fill="#fff"/></svg>