<svg class="color-immutable" width="24" height="24" viewBox="0 0 24 24" fill="none" xmlns="http://www.w3.org/2000/svg"><g clip-path="url(#a)"><path d="M0 22.5v-21C0 .675.675 0 1.5 0h21c.825 0 1.5.675 1.5 1.5v21c0 .825-.675 1.5-1.5 1.5h-21C.675 24 0 23.325 0 22.5Z" fill="#2D327D"/><path d="m2.244 19.233 8.908-15.429c.182-.302.477-.518.846-.519.358-.001.669.227.847.521l8.907 15.429c.171.308.21.672.027.992-.178.31-.531.466-.874.473H3.09c-.352-.007-.687-.154-.872-.473-.181-.31-.139-.693.026-.994Z" fill="#fff"/><path d="M11.998 4.739 20.52 19.5H3.476l8.522-14.761Zm.003-1.454h-.003c-.369.001-.665.217-.846.519L2.244 19.233c-.165.301-.207.684-.027.994.185.319.52.467.872.473h17.815c.344-.008.696-.163.874-.473.184-.32.144-.684-.027-.992L12.845 3.806c-.177-.294-.487-.521-.844-.521Z" fill="#EB0000"/><path d="M8.594 14.483v1.102a.116.116 0 0 1-.232 0v-.94h-.101v2.513a.166.166 0 0 1-.332 0v-1.462h-.107v1.462a.166.166 0 0 1-.333 0v-2.513h-.101v.94a.116.116 0 0 1-.232 0v-1.102c0-.179.145-.325.325-.325h.788c.179 0 .325.146.325.325ZM7.557 13.75a.326.326 0 0 1 .65 0 .326.326 0 0 1-.65 0Z" fill="#000"/><path d="M9 17.625h2.25v1.5h-.375V18H9v-.375Z" fill="#EB0000"/><path d="M5.625 18H9v-.375H5.625V18Z" fill="#000"/><path d="M11.25 12v.159L11.091 12h.159ZM10.75 12l.5.5v.159L10.591 12h.159ZM10.25 12l1 1v.159L10.091 12h.159ZM9.25 12l2 2v.159L9.091 12h.159ZM9 12.25l2.25 2.25v.159L9 12.409v-.159ZM9 12.75 11.25 15v.159L9 12.909v-.159ZM9 13.25l2.25 2.25v.159L9 13.409v-.159ZM9 13.75 11.25 16v.159L9 13.909v-.159ZM9 14.25l2.25 2.25v.159L9 14.409v-.159ZM9 14.75 11.25 17v.159L9 14.909v-.159ZM9 15.25l2 2h-.159L9 15.409v-.159ZM9 15.75l1.5 1.5h-.159L9 15.909v-.159ZM9 16.25l1 1h-.159L9 16.409v-.159ZM9 16.75l.5.5h-.159L9 16.909v-.159ZM9.75 12l1.5 1.5v.159L9.591 12h.159Z" fill="#EB0000"/><path d="M12.375 19.125h.375v-.6h-.375v.6ZM15 19.125h.375v-.6H15v.6ZM11.625 12.9v4.575c0 .082.03.21.067.284l.241.482a.267.267 0 0 0 .217.134h3.45c.082 0 .18-.06.217-.134l.241-.482a.757.757 0 0 0 .067-.284V12.9a.417.417 0 0 0-.106-.256l-.538-.538a.42.42 0 0 0-.256-.106h-2.7a.42.42 0 0 0-.256.106l-.538.538a.417.417 0 0 0-.106.256Zm2.625-.15h-.75v-.3h.75v.3ZM15 16.2h.75v.3H15v-.3Zm-3 0h.75v.3H12v-.3Zm0-3.075h3.75V15H12v-1.875ZM12.881 10.875h1.987c.072 0 .131.059.131.131a.131.131 0 0 1-.131.131h-.862v.713h-.263v-.713h-.862a.131.131 0 0 1-.131-.131c0-.072.059-.131.131-.131Z" fill="#000"/></g><defs><clipPath id="a"><path fill="#fff" d="M0 0h24v24H0z"/></clipPath></defs></svg>