<svg class="color-immutable" width="24" height="24" viewBox="0 0 24 24" fill="none" xmlns="http://www.w3.org/2000/svg"><g clip-path="url(#a)"><path d="M0 22.5v-21C0 .675.675 0 1.5 0h21c.825 0 1.5.675 1.5 1.5v21c0 .825-.675 1.5-1.5 1.5h-21C.675 24 0 23.325 0 22.5Z" fill="#2D327D"/><path d="M21.756 19.233 12.848 3.804c-.182-.302-.477-.518-.846-.519-.358-.001-.669.227-.847.521L2.247 19.234c-.171.308-.21.672-.027.992.178.31.531.466.874.473H20.91c.352-.007.687-.154.872-.473.181-.309.139-.692-.026-.993Z" fill="#fff"/><path d="M12.002 4.738 20.525 19.5H3.48l8.522-14.762Zm-.003-1.453c-.357 0-.667.227-.845.521L2.247 19.234c-.171.308-.21.672-.027.992.178.31.531.466.874.473H20.91c.352-.007.687-.154.872-.473.18-.309.138-.692-.027-.994L12.848 3.804c-.182-.302-.477-.518-.846-.519h-.003Z" fill="#EB0000"/><path d="M15.406 14.483v1.102a.116.116 0 0 0 .232 0v-.94h.102v2.513a.166.166 0 0 0 .332 0v-1.462h.106v1.462a.166.166 0 0 0 .333 0v-2.513h.101v.94a.116.116 0 0 0 .232 0v-1.102a.325.325 0 0 0-.325-.325h-.788a.326.326 0 0 0-.325.325ZM16.443 13.75a.326.326 0 0 0-.65 0 .326.326 0 0 0 .65 0Z" fill="#000"/><path d="M15 17.625h-2.25v1.5h.375V18H15v-.375Z" fill="#EB0000"/><path d="M18.375 17.625H15V18h3.375v-.375Z" fill="#000"/><path d="M12.75 12v.159l.159-.159h-.159ZM13.25 12l-.5.5v.159l.659-.659h-.159ZM13.75 12l-1 1v.159L13.909 12h-.159ZM14.75 12l-2 2v.159L14.909 12h-.159ZM15 12.25l-2.25 2.25v.159l2.25-2.25v-.159ZM15 12.75 12.75 15v.159l2.25-2.25v-.159ZM15 13.25l-2.25 2.25v.159l2.25-2.25v-.159ZM15 13.75 12.75 16v.159l2.25-2.25v-.159ZM15 14.25l-2.25 2.25v.159l2.25-2.25v-.159ZM15 14.75 12.75 17v.159l2.25-2.25v-.159ZM15 15.25l-2 2h.159L15 15.409v-.159ZM15 15.75l-1.5 1.5h.159L15 15.909v-.159ZM15 16.25l-1 1h.159l.841-.841v-.159ZM15 16.75l-.5.5h.159l.341-.341v-.159ZM14.25 12l-1.5 1.5v.159L14.409 12h-.159Z" fill="#EB0000"/><path d="M11.625 18.525h-.375v.6h.375v-.6ZM9 18.525h-.375v.6H9v-.6ZM12.269 12.644l-.538-.538a.42.42 0 0 0-.256-.106h-2.7a.42.42 0 0 0-.256.106l-.538.538a.42.42 0 0 0-.106.256v4.575c0 .082.03.21.067.284l.241.482a.267.267 0 0 0 .217.134h3.45c.082 0 .18-.06.217-.134l.241-.482a.757.757 0 0 0 .067-.284V12.9a.417.417 0 0 0-.106-.256ZM9.75 12.45h.75v.3h-.75v-.3ZM9 16.5h-.75v-.3H9v.3Zm3 0h-.75v-.3H12v.3Zm0-1.5H8.25v-1.875H12V15ZM11.119 10.875H9.131a.131.131 0 0 0-.131.131c0 .072.059.131.131.131h.862v.713h.263v-.713h.862a.131.131 0 0 0 .131-.131.13.13 0 0 0-.13-.131Z" fill="#000"/></g><defs><clipPath id="a"><path fill="#fff" d="M0 0h24v24H0z"/></clipPath></defs></svg>