<svg class="color-immutable" width="24" height="24" viewBox="0 0 24 24" fill="none" xmlns="http://www.w3.org/2000/svg"><path fill-rule="evenodd" clip-rule="evenodd" d="M22.5 0h-21C.675 0 0 .675 0 1.5v21c0 .825.675 1.5 1.5 1.5h21c.825 0 1.5-.675 1.5-1.5v-21c0-.825-.675-1.5-1.5-1.5Z" fill="#2D327D"/><path fill-rule="evenodd" clip-rule="evenodd" d="m15.81 13.177.248.278.66-.593-.256-.277-.652.592ZM11.107 6.195a1.19 1.19 0 0 0-1.192-1.193 1.19 1.19 0 0 0-1.192 1.193c0 .66.532 1.192 1.192 1.192a1.19 1.19 0 0 0 1.193-1.192ZM14.1 4.882a.72.72 0 0 0-.72.72v3.653c.18.09.322.255.375.457V5.61c0-.188.157-.345.345-.345.188 0 .345.157.345.345v4.777a.349.349 0 0 1-.345.345.349.349 0 0 1-.345-.345v-.337a.69.69 0 0 1-.323.427l-.037.023a.717.717 0 0 0 1.425-.128V5.595a.719.719 0 0 0-.72-.713ZM16.215 10.373V5.595a.72.72 0 0 1 1.44 0v4.778a.72.72 0 0 1-1.44 0Zm.367-4.778v4.778c0 .187.158.345.345.345a.349.349 0 0 0 .346-.345V5.595a.349.349 0 0 0-.346-.345.349.349 0 0 0-.345.345ZM10.777 7.342a1.64 1.64 0 0 1-.374.203v.72c.03.037.052.075.074.12 0 0 .128.225.293.51l.008-1.553Z" fill="#fff"/><path fill-rule="evenodd" clip-rule="evenodd" d="m20.168 19.087.884.885-.434.413h.375v.6h-.976l-.03.03-.03-.03H3v-.6h16.343l-1.02-1.02h-6.758a.892.892 0 0 1-.84-.585 5.44 5.44 0 0 1-.338-1.898v-2.55l.162.042c.078.02.15.038.213.056v2.453c0 .607.105 1.2.316 1.77a.52.52 0 0 0 .487.337h.915v-1.995c.112.195.188.322.188.322a.872.872 0 0 0 .187.218v1.455h2.46v-2.64l-2.46-2.46v.352l-.375-.637v-.083l-1.725-1.725v.803a6.907 6.907 0 0 1-.22-.057c-.052-.014-.104-.028-.155-.04V11.43l-.72-.72-.457 1.732 2.505.668a.624.624 0 0 1 .374.285l1.853 3.195a.651.651 0 0 1 .082.307.605.605 0 0 1-1.132.3l-1.688-2.902-3.142-.833-.877 3.315a.624.624 0 0 1-.285.375L3.96 18.855a.61.61 0 0 1-.915-.525c0-.218.12-.413.308-.525l2.64-1.53 1.89-7.133-1.043.608-.615 2.325a.425.425 0 0 1-.412.315.432.432 0 0 1-.428-.428c0-.037.008-.075.015-.112l.653-2.46a.624.624 0 0 1 .285-.375l1.035-.6L2.648 3.69l1.057-1.058 5.123 5.123c.045-.008.082-.008.127-.008.548 0 1.05.285 1.32.758l.96 1.65.165.165 1.447-.848a.51.51 0 0 1 .233-.06c.255 0 .457.203.457.458a.453.453 0 0 1-.225.397l-1.244.72.434.435v-.405c.128-.075.255-.15.375-.217v.99l2.46 2.46V3.375h-2.46v5.827c-.052.015-.097.038-.142.06 0 0-.098.053-.232.135V3.375h-1.726v1.68a1.394 1.394 0 0 0-.374-.203V3.375h-.233V3h10.748v.375h-.233v13.522c0 .645-.112 1.29-.337 1.898a.96.96 0 0 1-.18.292Zm.142-2.19V3.375h-1.777v14.077l1.372 1.373a.54.54 0 0 0 .09-.158 5.09 5.09 0 0 0 .315-1.77ZM15.698 3.375h2.46v13.702l-2.46-2.452V3.375Zm0 13.372v2.265h2.264l-2.264-2.265Z" fill="#fff"/><path fill-rule="evenodd" clip-rule="evenodd" d="M3.705 2.632 2.648 3.69l17.34 17.347 1.064-1.065L3.705 2.632Z" fill="#EB0000"/></svg>