<svg class="color-immutable" width="24" height="24" viewBox="0 0 24 24" fill="none" xmlns="http://www.w3.org/2000/svg"><path fill-rule="evenodd" clip-rule="evenodd" d="M22.5 0h-21C.675 0 0 .675 0 1.5v21c0 .825.675 1.5 1.5 1.5h21c.825 0 1.5-.675 1.5-1.5v-21c0-.825-.675-1.5-1.5-1.5Z" fill="#2D327D"/><path fill-rule="evenodd" clip-rule="evenodd" d="M3.345 16.718a.376.376 0 0 0-.345.375v2.332c0 .21.165.375.375.375h.413v-.428a2.247 2.247 0 0 1 2.25-2.25 2.247 2.247 0 0 1 2.25 2.25v.428h7.462v-.428a2.247 2.247 0 0 1 2.25-2.25 2.252 2.252 0 0 1 2.25 2.25v.428h.375c.21 0 .375-.165.375-.375v-2.648c0-.3-.12-.585-.33-.795l-2.25-2.25c-.21-.21-.495-.33-.795-.33h-6.488c-.3 0-.585.12-.795.33l-2.61 2.618-4.387.367Zm11.28-.683v-1.537c0-.21.165-.375.375-.375h2.587c.098 0 .195.037.263.112l1.792 1.793a.25.25 0 0 1 .068.157.221.221 0 0 1-.225.225H15a.386.386 0 0 1-.375-.375Zm-5.572.142c0 .128.097.226.224.226h4.26c.21 0 .375-.173.375-.375V14.49a.376.376 0 0 0-.375-.375h-2.362a.382.382 0 0 0-.263.112L9.12 16.02a.204.204 0 0 0-.067.157Z" fill="#fff"/><path fill-rule="evenodd" clip-rule="evenodd" d="M17.992 20.22a.938.938 0 1 1 .001-1.876.938.938 0 0 1 0 1.876Zm0-2.64a1.71 1.71 0 1 0-.002 3.422 1.71 1.71 0 0 0 .003-3.422ZM6.037 20.22a.938.938 0 1 1 .001-1.876.938.938 0 0 1 0 1.876Zm0-2.64a1.71 1.71 0 1 0 1.71 1.71 1.719 1.719 0 0 0-1.71-1.71ZM4.59 4.83v.412H3V3h.487v1.83H4.59ZM6.225 3.765a.808.808 0 0 0-.6-.24c-.27 0-.487.09-.645.263a.912.912 0 0 0-.218.622.9.9 0 0 0 .226.63c.15.173.36.255.622.255a.82.82 0 0 0 .6-.232c.165-.165.247-.383.247-.66a.899.899 0 0 0-.232-.638Zm-.907.248a.335.335 0 0 1 .285-.143c.127 0 .224.053.292.15.068.09.105.225.105.39 0 .18-.037.315-.112.413a.37.37 0 0 1-.57-.015c-.068-.09-.106-.225-.106-.398 0-.172.038-.3.106-.397ZM8.295 4.605a.842.842 0 0 1-.165.42c-.143.18-.353.27-.615.27-.27 0-.487-.09-.637-.277a.909.909 0 0 1-.196-.593c0-.292.083-.517.255-.682a.811.811 0 0 1 .578-.218.81.81 0 0 1 .532.173c.135.112.218.27.233.465h-.435a.34.34 0 0 0-.112-.21.308.308 0 0 0-.218-.075.318.318 0 0 0-.285.142.677.677 0 0 0-.105.398c0 .15.03.27.082.36a.323.323 0 0 0 .3.165c.196 0 .316-.113.346-.338h.442ZM9.63 5.25h.457l-.027-.092a.894.894 0 0 0-.025-.08c-.008-.06-.008-.15-.008-.27v-.345c.008-.203.008-.315.008-.338 0-.127-.015-.217-.03-.27a.345.345 0 0 0-.113-.157c-.127-.105-.314-.158-.577-.158-.232 0-.412.045-.54.143-.127.09-.195.232-.21.42h.42a.3.3 0 0 1 .098-.195c.045-.038.12-.053.225-.053.194 0 .292.068.292.218 0 .067-.022.112-.067.135-.045.022-.15.045-.33.067-.21.03-.353.06-.428.09a.44.44 0 0 0-.285.435c0 .165.053.293.165.383.098.082.232.12.405.12a.735.735 0 0 0 .54-.218c0 .045.008.098.03.165Zm-.345-.727A.774.774 0 0 0 9.6 4.44v.18a.673.673 0 0 1-.015.135l-.007.015a.387.387 0 0 1-.368.217.28.28 0 0 1-.188-.06.21.21 0 0 1-.067-.164c0-.083.03-.143.098-.18a.925.925 0 0 1 .232-.06ZM11.287 3.563v.315h-.337v.787c0 .098.008.158.023.18.022.038.082.053.172.053.037 0 .082 0 .135-.008v.36c-.098.015-.195.015-.277.015a.746.746 0 0 1-.293-.045c-.105-.045-.165-.127-.195-.255a2.55 2.55 0 0 1-.015-.322v-.758h-.27V3.57h.27v-.39h.443v.39h.345v-.007ZM11.985 3.405V3h-.442v.405h.442Zm0 1.845V3.57h-.442v1.68h.442ZM13.748 3.765a.808.808 0 0 0-.6-.24c-.27 0-.48.09-.646.263a.912.912 0 0 0-.217.622.9.9 0 0 0 .225.63c.15.173.36.255.623.255a.82.82 0 0 0 .6-.232c.165-.165.247-.383.247-.66a.899.899 0 0 0-.232-.638Zm-.908.248a.335.335 0 0 1 .285-.143c.127 0 .232.053.293.15.067.09.105.225.105.39 0 .18-.038.315-.113.413a.37.37 0 0 1-.57-.015c-.067-.09-.105-.225-.105-.398 0-.172.038-.3.105-.397ZM14.693 3.57v.232a.604.604 0 0 1 .142-.157.662.662 0 0 1 .397-.128c.136 0 .256.038.353.105a.435.435 0 0 1 .157.21c.03.083.045.203.045.36V5.25h-.442v-.96a.666.666 0 0 0-.03-.24.177.177 0 0 0-.09-.105.302.302 0 0 0-.165-.045.339.339 0 0 0-.188.052.265.265 0 0 0-.12.135.738.738 0 0 0-.045.3v.863h-.442V3.57h.428Z" fill="#fff"/></svg>