<svg class="color-immutable" width="24" height="24" viewBox="0 0 24 24" fill="none" xmlns="http://www.w3.org/2000/svg"><path fill-rule="evenodd" clip-rule="evenodd" d="M22.5 0h-21C.675 0 0 .675 0 1.5v21c0 .825.675 1.5 1.5 1.5h21c.825 0 1.5-.675 1.5-1.5v-21c0-.825-.675-1.5-1.5-1.5Z" fill="#2D327D"/><path fill-rule="evenodd" clip-rule="evenodd" d="M8.363 14.018a.234.234 0 0 1-.233-.233v-1.65c0-.187.075-.367.202-.495l1.41-1.41a.685.685 0 0 1 .495-.202h4.05c.188 0 .368.075.495.202l1.636 1.635 2.745.225c.12.008.217.113.217.233v1.462a.234.234 0 0 1-.232.233h-.256v-.27a1.407 1.407 0 1 0-2.812 0v.27h-4.665v-.27a1.407 1.407 0 1 0-2.813 0v.27h-.24Zm4.192-3.315v.96c0 .127.105.232.232.232h2.73c.06 0 .113-.052.113-.112 0-.03-.015-.06-.03-.083l-1.17-1.17a.233.233 0 0 0-.165-.067h-1.478a.235.235 0 0 0-.232.24Zm-.682 1.192H9c-.06 0-.113-.052-.105-.112 0-.03.008-.06.03-.083l1.17-1.162a.233.233 0 0 1 .165-.068h1.613c.127 0 .232.105.232.233v.96a.234.234 0 0 1-.232.232Z" fill="#fff"/><path fill-rule="evenodd" clip-rule="evenodd" d="M18.727 19.29c-.434-.098-.87-.165-1.305-.217a9.075 9.075 0 0 0-1.102-.076c-.832 0-1.665.128-2.468.375a5.567 5.567 0 0 1-1.65.248h-.157a5.854 5.854 0 0 1-1.793-.353 8.43 8.43 0 0 0-3.547-.51 12.84 12.84 0 0 0-3.712.765v-6.007h2.392c.21 0 .375-.165.375-.375v-.023l-.082-1.425a.377.377 0 0 0-.375-.352H3V9.765h2.175c.21 0 .375-.165.375-.375v-.023L5.468 7.98a.377.377 0 0 0-.375-.353H3V6.75h3.787a.3.3 0 0 1 .3.3v.038a.42.42 0 0 1-.374.412l-.458.045 1.208 6.84c.06.36.375.623.734.623h11.43l1.245-3.075.563.21-2.707 7.147Z" fill="#fff"/><path fill-rule="evenodd" clip-rule="evenodd" d="M3 20.07c1.2-.465 2.46-.735 3.742-.802a7.05 7.05 0 0 1 .563-.023c.945 0 1.875.173 2.76.503.63.232 1.29.367 1.958.39h.18c.607 0 1.222-.09 1.8-.27a7.802 7.802 0 0 1 2.31-.345c.345 0 .69.022 1.035.067 1.26.143 2.49.488 3.645 1.005v.953a11.32 11.32 0 0 0-3.75-1.103 7.069 7.069 0 0 0-2.985.247 7.069 7.069 0 0 1-2.055.308H12a6.887 6.887 0 0 1-2.235-.442 7.063 7.063 0 0 0-2.46-.443c-.172 0-.337.008-.51.015A11.376 11.376 0 0 0 3 21v-.93ZM9.998 14.19a.487.487 0 1 0 0-.975.487.487 0 1 0 0 .975Zm0-1.553a1.064 1.064 0 1 1 .001 2.129 1.064 1.064 0 0 1-.002-2.129ZM17.475 14.19a.487.487 0 1 0 0-.975.487.487 0 1 0 0 .975Zm0-1.553c.585 0 1.065.48 1.065 1.066a1.07 1.07 0 0 1-1.065 1.065 1.07 1.07 0 0 1-1.065-1.066c0-.585.48-1.065 1.065-1.065Z" fill="#fff"/></svg>