<svg class="color-immutable" width="24" height="24" viewBox="0 0 24 24" fill="none" xmlns="http://www.w3.org/2000/svg"><path fill-rule="evenodd" clip-rule="evenodd" d="M22.5 0h-21C.675 0 0 .675 0 1.5v21c0 .825.675 1.5 1.5 1.5h21c.825 0 1.5-.675 1.5-1.5v-21c0-.825-.675-1.5-1.5-1.5Z" fill="#2D327D"/><path fill-rule="evenodd" clip-rule="evenodd" d="M15.637 14.018a.234.234 0 0 0 .233-.233v-1.65a.704.704 0 0 0-.202-.495l-1.41-1.41a.685.685 0 0 0-.495-.202h-4.05a.704.704 0 0 0-.495.202l-1.636 1.635-2.744.225a.236.236 0 0 0-.218.233v1.462c0 .128.105.233.232.233h.255v-.27a1.407 1.407 0 1 1 2.813 0v.27h4.665v-.27a1.407 1.407 0 1 1 2.813 0v.27h.24Zm-4.192-3.315v.96a.234.234 0 0 1-.232.232h-2.73a.115.115 0 0 1-.113-.112c0-.03.015-.06.03-.083l1.17-1.17a.233.233 0 0 1 .165-.067h1.478c.127 0 .232.105.232.24Zm.682 1.192H15c.06 0 .113-.052.105-.112 0-.03-.008-.06-.03-.083l-1.17-1.162a.233.233 0 0 0-.165-.068h-1.613a.234.234 0 0 0-.232.233v.96c0 .127.105.232.232.232Z" fill="#fff"/><path fill-rule="evenodd" clip-rule="evenodd" d="M5.272 19.29c.428-.098.87-.165 1.305-.217a9.075 9.075 0 0 1 1.103-.076c.832 0 1.665.128 2.468.375a5.567 5.567 0 0 0 1.65.248h.157a5.854 5.854 0 0 0 1.793-.353 8.43 8.43 0 0 1 3.547-.51c1.267.068 2.52.33 3.712.765v-6.007h-2.392a.371.371 0 0 1-.375-.375v-.023l.083-1.425a.377.377 0 0 1 .375-.352H21V9.765h-2.175a.371.371 0 0 1-.375-.375v-.023l.082-1.387a.377.377 0 0 1 .375-.353H21V6.75h-3.788a.3.3 0 0 0-.3.3v.038c0 .21.166.39.376.412l.457.045-1.207 6.84a.748.748 0 0 1-.736.623H4.373l-1.244-3.075-.563.21 2.708 7.147Z" fill="#fff"/><path fill-rule="evenodd" clip-rule="evenodd" d="M21 20.07c-1.2-.465-2.46-.735-3.742-.802a7.05 7.05 0 0 0-.563-.023c-.945 0-1.875.173-2.76.503-.63.232-1.29.367-1.958.39h-.18c-.607 0-1.222-.09-1.8-.27a7.802 7.802 0 0 0-2.31-.345c-.345 0-.69.022-1.035.067a12.31 12.31 0 0 0-3.645 1.005v.953a11.32 11.32 0 0 1 3.75-1.103 7.069 7.069 0 0 1 2.985.247 7.069 7.069 0 0 0 2.055.308H12a6.887 6.887 0 0 0 2.235-.442 7.063 7.063 0 0 1 2.46-.443c.172 0 .337.008.51.015 1.305.068 2.595.368 3.795.87v-.93ZM6.525 14.19a.487.487 0 1 1 0-.975.487.487 0 1 1 0 .975Zm0-1.553a1.07 1.07 0 0 0-1.065 1.066c0 .585.48 1.065 1.065 1.065a1.07 1.07 0 0 0 1.065-1.066 1.07 1.07 0 0 0-1.065-1.065ZM14.002 14.19a.487.487 0 1 1 0-.975.487.487 0 1 1 0 .975Zm0-1.553a1.064 1.064 0 1 0-.001 2.129 1.064 1.064 0 0 0 .002-2.129Z" fill="#fff"/></svg>