<svg class="color-immutable" width="24" height="24" viewBox="0 0 24 24" fill="none" xmlns="http://www.w3.org/2000/svg"><path fill-rule="evenodd" clip-rule="evenodd" d="M22.5 0h-21C.675 0 0 .675 0 1.5v21c0 .825.675 1.5 1.5 1.5h21c.825 0 1.5-.675 1.5-1.5v-21c0-.825-.675-1.5-1.5-1.5Z" fill="#2D327D"/><path fill-rule="evenodd" clip-rule="evenodd" d="M5.25 18.533c0-.773-.63-1.41-1.41-1.41-.307 0-.6.097-.847.285v2.25a1.408 1.408 0 0 0 2.257-1.125ZM20.67 10.133l-2.25-2.25c-.21-.21-.495-.33-.795-.33h-6.488c-.3 0-.585.12-.795.33L7.732 10.5l-4.387.367a.376.376 0 0 0-.345.375v2.333c0 .21.165.375.375.375h.413v-.427a2.247 2.247 0 0 1 2.25-2.25 2.247 2.247 0 0 1 2.25 2.25v.427h7.462v-.427a2.247 2.247 0 0 1 2.25-2.25 2.247 2.247 0 0 1 2.25 2.25v.427h.375c.21 0 .375-.165.375-.375v-2.64c0-.3-.12-.585-.33-.803Zm-6.758.052c0 .21-.165.375-.375.375h-4.26a.221.221 0 0 1-.224-.225c0-.06.022-.12.067-.158l1.793-1.792a.382.382 0 0 1 .262-.113h2.362c.21 0 .375.165.375.375v1.538ZM15 10.56h4.485a.226.226 0 0 0 .225-.225.216.216 0 0 0-.068-.158L17.85 8.386a.352.352 0 0 0-.263-.113H15a.371.371 0 0 0-.375.375v1.538c0 .21.165.375.375.375ZM3 15.6h18v1.163H3V15.6ZM3 20.288h18V21H3v-.712ZM8.813 18.525a1.407 1.407 0 1 0-2.813 0 1.407 1.407 0 1 0 2.813 0ZM16.08 18.525c0-.78-.63-1.41-1.402-1.41-.773 0-1.41.63-1.41 1.41a1.407 1.407 0 1 0 2.812 0ZM19.688 18.525c0-.78-.63-1.41-1.403-1.41s-1.402.63-1.402 1.41c0 .78.63 1.41 1.402 1.41.773 0 1.402-.63 1.402-1.41Z" fill="#fff"/><path fill-rule="evenodd" clip-rule="evenodd" d="M18.008 11.798c.937 0 1.702.765 1.702 1.71s-.765 1.71-1.703 1.702c-.945 0-1.71-.757-1.71-1.702s.765-1.71 1.71-1.71ZM18 12.57a.938.938 0 1 0 0 1.876.938.938 0 0 0 0-1.876ZM6.045 11.798c.945 0 1.71.765 1.71 1.71s-.765 1.71-1.71 1.702a1.701 1.701 0 0 1-1.702-1.702c0-.945.757-1.71 1.702-1.71Zm.008.772a.938.938 0 1 0 0 1.876.938.938 0 0 0 0-1.876Z" fill="#fff"/></svg>