<svg class="color-immutable" width="24" height="24" viewBox="0 0 24 24" fill="none" xmlns="http://www.w3.org/2000/svg"><path fill-rule="evenodd" clip-rule="evenodd" d="M22.5 0h-21C.675 0 0 .675 0 1.5v21c0 .825.675 1.5 1.5 1.5h21c.825 0 1.5-.675 1.5-1.5v-21c0-.825-.675-1.5-1.5-1.5Z" fill="#2D327D"/><path fill-rule="evenodd" clip-rule="evenodd" d="m20.655 16.718-4.388-.368-2.617-2.618c-.21-.21-.495-.33-.795-.33h-6.48c-.3 0-.585.12-.795.33l-2.25 2.25c-.21.21-.33.495-.33.796v2.647c0 .21.172.375.375.375h.375v-.428A2.252 2.252 0 0 1 6 17.122a2.247 2.247 0 0 1 2.25 2.25v.428h7.463v-.428a2.247 2.247 0 0 1 2.25-2.25 2.247 2.247 0 0 1 2.25 2.25v.428h.412c.21 0 .375-.165.375-.375v-2.34a.369.369 0 0 0-.345-.367Zm-11.28-.683c0 .21-.165.375-.375.375H4.515a.221.221 0 0 1-.225-.225c0-.06.022-.12.067-.157l1.793-1.793a.382.382 0 0 1 .262-.112H9c.21 0 .375.172.375.375v1.537Zm1.088.367h4.26c.12 0 .224-.097.224-.225a.25.25 0 0 0-.067-.157l-1.793-1.793a.352.352 0 0 0-.262-.112h-2.362a.371.371 0 0 0-.375.375v1.537c0 .21.165.375.375.375Z" fill="#fff"/><path fill-rule="evenodd" clip-rule="evenodd" d="M6.007 20.22a.938.938 0 1 1 .001-1.876.938.938 0 0 1 0 1.876Zm0-2.64a1.71 1.71 0 1 0 1.71 1.71 1.719 1.719 0 0 0-1.71-1.71ZM17.962 20.22a.938.938 0 1 1 .001-1.876.938.938 0 0 1 0 1.876Zm0-2.64a1.71 1.71 0 1 0-.001 3.418 1.71 1.71 0 0 0 .002-3.418ZM4.897 3v2.25h-.495l-.937-1.53.008 1.53H3V3h.502l.938 1.53L4.432 3h.465ZM6.705 3.765a.808.808 0 0 0-.6-.24c-.27 0-.48.09-.645.263a.912.912 0 0 0-.218.622.9.9 0 0 0 .225.63c.15.173.36.255.623.255a.82.82 0 0 0 .6-.232c.165-.165.247-.383.247-.66a.899.899 0 0 0-.232-.638Zm-.908.248a.335.335 0 0 1 .285-.143c.128 0 .233.053.293.15.067.09.105.225.105.39 0 .18-.038.315-.113.413a.37.37 0 0 1-.57-.015c-.067-.09-.105-.225-.105-.398 0-.172.038-.3.105-.397ZM7.68 3v2.25h-.443V3h.443ZM9.427 4.987a.712.712 0 0 0 .128-.262h-.428A.386.386 0 0 1 9 4.897a.34.34 0 0 1-.203.053c-.172 0-.285-.068-.345-.218a.697.697 0 0 1-.037-.202h1.17c0-.203-.015-.368-.068-.495a.836.836 0 0 0-.225-.33.746.746 0 0 0-.517-.188c-.248 0-.45.09-.608.278a.9.9 0 0 0-.21.615c0 .12.015.247.06.36a.869.869 0 0 0 .173.277c.15.158.352.24.6.24.277 0 .487-.097.637-.3Zm-.3-.765v.008-.008Zm0 0a.662.662 0 0 0-.052-.195.327.327 0 0 0-.12-.127.348.348 0 0 0-.173-.045c-.097 0-.18.03-.247.097a.405.405 0 0 0-.113.27h.705ZM11.422 5.048V3.57l-.42-.015v.225a.606.606 0 0 0-.202-.21.608.608 0 0 0-.277-.06.659.659 0 0 0-.525.24c-.128.158-.188.36-.188.615s.06.458.188.608c.127.15.292.225.502.225a.542.542 0 0 0 .495-.263v.21c0 .143-.022.248-.067.308-.06.082-.158.12-.3.12-.18 0-.293-.068-.323-.21h-.45c.045.352.3.525.765.525.338 0 .57-.105.698-.308a.766.766 0 0 0 .082-.217c.015-.083.022-.18.022-.315Zm-1.095-1.005a.315.315 0 0 1 .286-.158.32.32 0 0 1 .262.113c.082.09.12.21.12.367 0 .128-.022.24-.075.323a.323.323 0 0 1-.3.165.325.325 0 0 1-.255-.113c-.075-.09-.113-.21-.113-.375 0-.135.023-.24.075-.322ZM13.35 5.048V3.57l-.42-.015v.225a.606.606 0 0 0-.203-.21.608.608 0 0 0-.277-.06.659.659 0 0 0-.525.24c-.128.158-.188.36-.188.615s.06.458.188.608c.127.15.292.225.502.225a.542.542 0 0 0 .495-.263v.21c0 .143-.022.248-.067.308-.06.082-.158.12-.3.12-.18 0-.293-.068-.322-.21h-.45c.045.352.3.525.764.525.338 0 .57-.105.698-.308a.766.766 0 0 0 .083-.217c.014-.083.022-.18.022-.315Zm-1.095-1.005a.315.315 0 0 1 .285-.158.32.32 0 0 1 .263.113c.082.09.12.21.12.367 0 .128-.023.24-.075.323a.323.323 0 0 1-.3.165.325.325 0 0 1-.255-.113c-.075-.09-.113-.21-.113-.375 0-.135.023-.24.075-.322ZM14.168 3.405V3h-.443v.405h.443Zm0 1.845V3.57h-.443v1.68h.443ZM15.93 3.765a.808.808 0 0 0-.6-.24c-.27 0-.488.09-.645.263a.912.912 0 0 0-.218.622.9.9 0 0 0 .226.63c.15.173.36.255.622.255a.82.82 0 0 0 .6-.232c.165-.165.248-.383.248-.66a.899.899 0 0 0-.233-.638Zm-.907.248a.335.335 0 0 1 .284-.143c.128 0 .226.053.293.15.068.09.105.225.105.39 0 .18-.037.315-.113.413a.37.37 0 0 1-.57-.015c-.067-.09-.104-.225-.104-.398 0-.172.037-.3.105-.397Z" fill="#fff"/></svg>