<svg class="color-immutable" width="24" height="24" viewBox="0 0 24 24" fill="none" xmlns="http://www.w3.org/2000/svg"><path fill-rule="evenodd" clip-rule="evenodd" d="M22.5 0h-21C.675 0 0 .675 0 1.5v21c0 .825.675 1.5 1.5 1.5h21c.825 0 1.5-.675 1.5-1.5v-21c0-.825-.675-1.5-1.5-1.5Z" fill="#2D327D"/><path fill-rule="evenodd" clip-rule="evenodd" d="m5.58 13.732-2.25 2.25c-.21.21-.33.495-.33.796v2.647c0 .21.165.375.375.375h.375v-.435A2.247 2.247 0 0 1 6 17.115a2.247 2.247 0 0 1 2.25 2.25v.435h7.463v-.435a2.247 2.247 0 0 1 2.25-2.25 2.247 2.247 0 0 1 2.25 2.25v.435h.412c.21 0 .375-.165.375-.375v-2.34c0-.195-.15-.36-.345-.375l-4.388-.367-2.617-2.618c-.21-.21-.495-.33-.795-.33h-6.48c-.3.015-.585.128-.795.338Zm4.508.766c0-.21.165-.375.375-.375h2.362c.098 0 .195.037.263.112l1.792 1.793a.216.216 0 0 1 .067.157.221.221 0 0 1-.224.225h-4.26a.371.371 0 0 1-.375-.375v-1.537ZM4.29 16.184c0 .128.098.225.225.225H9c.21 0 .375-.165.375-.375v-1.537A.371.371 0 0 0 9 14.123H6.412a.382.382 0 0 0-.262.112l-1.793 1.793a.204.204 0 0 0-.067.157Z" fill="#fff"/><path fill-rule="evenodd" clip-rule="evenodd" d="M5.985 20.332a.938.938 0 1 1 0-1.875.938.938 0 0 1 0 1.875Zm.022-2.655a1.71 1.71 0 1 0 1.71 1.71 1.719 1.719 0 0 0-1.71-1.71ZM17.962 20.332a.938.938 0 1 1 .001-1.875.938.938 0 0 1 0 1.875Zm0-2.64a1.71 1.71 0 1 0 0 3.42c.945 0 1.703-.764 1.703-1.71 0-.945-.765-1.71-1.703-1.71ZM5.213 4.38a1.038 1.038 0 0 1-.233.6c-.18.218-.443.323-.773.323-.352 0-.63-.128-.832-.375-.172-.218-.255-.48-.255-.803 0-.337.097-.615.3-.84.203-.225.465-.337.803-.337.307 0 .562.105.75.307.135.143.21.308.224.503H4.71a.482.482 0 0 0-.173-.293.526.526 0 0 0-.33-.105c-.21 0-.375.09-.48.27a.941.941 0 0 0-.12.503.97.97 0 0 0 .128.51.52.52 0 0 0 .472.262c.15 0 .263-.045.353-.127a.645.645 0 0 0 .165-.383l.488-.015ZM6.555 5.25h.457a.832.832 0 0 1-.052-.172c-.008-.06-.008-.15-.008-.27v-.345c.008-.203.008-.315.008-.338 0-.127-.015-.217-.03-.27a.345.345 0 0 0-.113-.157c-.127-.105-.315-.158-.577-.158-.233 0-.413.045-.54.143-.128.09-.195.232-.21.42h.42a.3.3 0 0 1 .097-.195c.045-.038.12-.053.225-.053.195 0 .293.068.293.218 0 .067-.023.112-.068.135-.045.022-.15.045-.33.067-.21.03-.352.06-.427.09a.44.44 0 0 0-.285.435c0 .165.052.293.165.383.097.082.232.12.405.12a.735.735 0 0 0 .54-.218c0 .045.007.098.03.165Zm-.353-.727a.774.774 0 0 0 .315-.083v.18a.673.673 0 0 1-.015.135l-.007.015c-.013.027-.027.057-.053.083a.387.387 0 0 1-.315.135.28.28 0 0 1-.187-.06.21.21 0 0 1-.068-.165c0-.083.03-.143.098-.18a.925.925 0 0 1 .232-.06ZM8.348 3.54v.435a.903.903 0 0 0-.173-.023.394.394 0 0 0-.368.21c-.045.075-.067.21-.067.39v.698h-.442V3.57h.427v.307c.12-.225.3-.345.525-.345.023 0 .06.008.098.008ZM11.115 3.667h-.465a.359.359 0 0 0-.12-.254.47.47 0 0 0-.307-.09.48.48 0 0 0-.27.067.22.22 0 0 0-.098.195c0 .075.03.127.09.158.06.03.21.082.45.135.255.06.435.127.533.194.18.12.27.285.27.495 0 .233-.09.42-.27.548-.158.12-.383.18-.653.18-.308 0-.54-.067-.713-.21-.172-.143-.255-.338-.262-.593h.487c.008.128.038.218.098.278.09.098.225.143.405.143.12 0 .218-.023.293-.075a.248.248 0 0 0 .12-.226c0-.097-.06-.165-.173-.21a8.966 8.966 0 0 0-.442-.135 2.33 2.33 0 0 1-.346-.112.67.67 0 0 1-.195-.12.559.559 0 0 1-.172-.428c0-.217.09-.39.27-.51.15-.105.352-.164.593-.164.217 0 .39.044.54.127.217.135.322.33.337.607ZM11.94 3v.803a.564.564 0 0 1 .51-.285c.225 0 .383.082.48.24.06.09.082.232.082.427V5.25h-.442v-.99c0-.12-.015-.21-.053-.255a.276.276 0 0 0-.232-.105c-.143 0-.24.06-.3.188a.634.634 0 0 0-.037.127c-.008.045-.008.12-.008.218v.825h-.442V3h.442ZM14.422 5.25h.458l-.028-.092a.893.893 0 0 0-.024-.08c-.008-.06-.008-.15-.008-.27v-.345c.008-.203.008-.315.008-.338 0-.127-.015-.217-.03-.27a.345.345 0 0 0-.113-.157c-.128-.105-.315-.158-.578-.158-.232 0-.412.045-.54.143-.127.09-.194.232-.21.42h.42a.3.3 0 0 1 .098-.195c.045-.038.12-.053.225-.053.195 0 .293.068.293.218 0 .067-.023.112-.068.135-.045.022-.15.045-.33.067-.21.03-.352.06-.427.09a.44.44 0 0 0-.285.435c0 .165.052.293.165.383.097.082.232.12.404.12a.735.735 0 0 0 .54-.218c0 .045.008.098.03.165Zm-.345-.727a.774.774 0 0 0 .316-.083v.18a.673.673 0 0 1-.016.135l-.007.015c-.013.027-.027.057-.052.083a.387.387 0 0 1-.316.135.28.28 0 0 1-.187-.06.21.21 0 0 1-.067-.165c0-.083.03-.143.097-.18a.925.925 0 0 1 .232-.06ZM16.215 3.54v.435a.903.903 0 0 0-.172-.023.394.394 0 0 0-.368.21c-.045.075-.068.21-.068.39v.698h-.442V3.57h.428v.307c.12-.225.3-.345.524-.345.03 0 .06.008.098.008ZM16.875 3.405V3h-.442v.405h.442Zm0 1.845V3.57h-.442v1.68h.442ZM17.655 3.57v.232a.604.604 0 0 1 .142-.157.662.662 0 0 1 .398-.128c.135 0 .255.038.352.105a.435.435 0 0 1 .158.21c.03.083.045.203.045.36V5.25h-.442v-.96a.666.666 0 0 0-.03-.24.177.177 0 0 0-.09-.105.302.302 0 0 0-.165-.045.339.339 0 0 0-.188.052.26.26 0 0 0-.12.135.738.738 0 0 0-.045.3v.863h-.443V3.57h.428ZM20.67 5.048V3.57l-.42-.015v.225a.606.606 0 0 0-.203-.21.608.608 0 0 0-.277-.06.659.659 0 0 0-.525.24c-.128.158-.188.36-.188.615s.06.458.188.608c.127.15.293.225.502.225a.542.542 0 0 0 .495-.263v.21c0 .143-.022.248-.067.308-.06.082-.158.12-.3.12-.18 0-.293-.068-.323-.21h-.45c.046.352.3.525.765.525.338 0 .57-.105.698-.308a.689.689 0 0 0 .082-.217c.016-.083.023-.18.023-.315Zm-1.095-1.005a.315.315 0 0 1 .285-.158.32.32 0 0 1 .262.113c.083.09.12.21.12.367 0 .128-.022.24-.075.323a.323.323 0 0 1-.3.165.325.325 0 0 1-.255-.113c-.074-.09-.112-.21-.112-.375 0-.135.023-.24.075-.322Z" fill="#fff"/></svg>