<svg class="color-immutable" width="24" height="24" viewBox="0 0 24 24" fill="none" xmlns="http://www.w3.org/2000/svg"><path fill-rule="evenodd" clip-rule="evenodd" d="M22.5 0h-21C.675 0 0 .675 0 1.5v21c0 .825.675 1.5 1.5 1.5h21c.825 0 1.5-.675 1.5-1.5v-21c0-.825-.675-1.5-1.5-1.5Z" fill="#2D327D"/><path fill-rule="evenodd" clip-rule="evenodd" d="M5.992 11.798c-.937 0-1.702.765-1.702 1.71s.765 1.71 1.702 1.702c.946 0 1.71-.757 1.71-1.702a1.71 1.71 0 0 0-1.71-1.71ZM6 12.57a.938.938 0 1 1 0 1.876.938.938 0 0 1 0-1.876ZM18.75 18.533c0-.773.63-1.41 1.41-1.41.308 0 .6.097.848.285v2.25a1.408 1.408 0 0 1-2.258-1.125Z" fill="#fff"/><path fill-rule="evenodd" clip-rule="evenodd" d="m3.33 10.133 2.25-2.25c.21-.21.495-.33.795-.33h6.488c.3 0 .585.12.795.33l2.617 2.617 4.388.367c.195.015.345.18.345.375v2.333c0 .21-.165.375-.375.375h-.413v-.427a2.247 2.247 0 0 0-2.25-2.25 2.247 2.247 0 0 0-2.25 2.25v.427H8.25v-.427A2.247 2.247 0 0 0 6 11.273a2.247 2.247 0 0 0-2.25 2.25v.427h-.375A.371.371 0 0 1 3 13.575v-2.64c0-.3.12-.585.33-.803Zm6.758.052c0 .21.165.375.375.375h4.26a.221.221 0 0 0 .224-.225c0-.06-.022-.12-.067-.158l-1.793-1.792a.382.382 0 0 0-.262-.113h-2.362a.371.371 0 0 0-.375.375v1.538ZM9 10.56H4.515a.226.226 0 0 1-.225-.225c0-.06.022-.113.067-.158L6.15 8.386a.352.352 0 0 1 .262-.113H9c.21 0 .375.165.375.375v1.538c0 .21-.165.375-.375.375ZM3 15.6h18v1.163H3V15.6ZM3 20.25h18v.712H3v-.712ZM15.188 18.525a1.407 1.407 0 1 1 2.812 0 1.407 1.407 0 1 1-2.813 0ZM7.92 18.525c0-.78.63-1.41 1.402-1.41.773 0 1.41.63 1.41 1.41a1.407 1.407 0 1 1-2.813 0ZM4.313 18.525c0-.78.63-1.41 1.402-1.41.772 0 1.402.63 1.402 1.41 0 .78-.63 1.41-1.402 1.41-.772 0-1.402-.63-1.402-1.41Z" fill="#fff"/><path fill-rule="evenodd" clip-rule="evenodd" d="M17.948 11.798a1.71 1.71 0 0 0-1.71 1.71c0 .945.765 1.71 1.71 1.702.937 0 1.702-.757 1.702-1.702s-.758-1.71-1.702-1.71Zm0 .772a.938.938 0 1 1-.001 1.876.938.938 0 0 1 0-1.876Z" fill="#fff"/></svg>