<svg class="color-immutable" width="24" height="24" viewBox="0 0 24 24" fill="none" xmlns="http://www.w3.org/2000/svg"><path fill-rule="evenodd" clip-rule="evenodd" d="M22.5 0h-21C.675 0 0 .675 0 1.5v21c0 .825.675 1.5 1.5 1.5h21c.825 0 1.5-.675 1.5-1.5v-21c0-.825-.675-1.5-1.5-1.5Z" fill="#2D327D"/><path fill-rule="evenodd" clip-rule="evenodd" d="m18.36 12.098 2.64 2.64V21h-7.89a.634.634 0 0 1-.63-.63v-.045c0-.052.008-.113.03-.165.15-.398.525-.668.953-.668H15.675c.27 0 .488-.217.488-.487v-1.267a.789.789 0 0 0-.218-.533l-4.088-4.08a.697.697 0 0 1 0-.982c.27-.27.713-.27.983 0l4.343 4.35.24-.24-3.885-3.886.262-.27a.595.595 0 0 1 .427-.172c.158 0 .316.06.428.172l3.473 3.473.24-.24-2.97-2.97.262-.27a.595.595 0 0 1 .427-.172c.158 0 .316.06.428.172l2.543 2.543.24-.24-2.048-2.026.262-.27a.595.595 0 0 1 .428-.172.59.59 0 0 1 .42.172Z" fill="#fff"/><path fill-rule="evenodd" clip-rule="evenodd" d="M5.64 16.402 3 13.762V7.5h7.89c.345 0 .63.285.63.63v.045a.428.428 0 0 1-.03.165c-.15.398-.525.668-.953.668H8.325a.487.487 0 0 0-.487.487v1.268c0 .194.082.39.217.532l4.088 4.088c.27.27.27.712 0 .982a.697.697 0 0 1-.983 0l-4.343-4.35-.24.24 3.886 3.885-.263.27a.595.595 0 0 1-.427.172.607.607 0 0 1-.428-.172l-3.473-3.473-.24.24 2.97 2.97-.262.27a.595.595 0 0 1-.428.173.607.607 0 0 1-.427-.172L4.95 13.852l-.24.24 2.04 2.04-.263.27a.595.595 0 0 1-.427.173.59.59 0 0 1-.42-.172ZM4.883 3.667h-.465a.359.359 0 0 0-.12-.254.47.47 0 0 0-.308-.09.48.48 0 0 0-.27.067.22.22 0 0 0-.098.195c0 .075.03.127.09.158.06.03.21.082.45.135.256.06.436.127.533.194.18.12.27.285.27.495 0 .233-.09.42-.277.548-.158.12-.383.18-.653.18-.308 0-.54-.067-.713-.21-.172-.143-.255-.338-.262-.593h.487c.008.128.038.218.098.278.09.098.225.143.405.143.12 0 .218-.023.293-.075a.248.248 0 0 0 .12-.226c0-.097-.06-.165-.173-.21a8.966 8.966 0 0 0-.442-.135 2.33 2.33 0 0 1-.345-.112.67.67 0 0 1-.196-.12.559.559 0 0 1-.172-.428c0-.217.09-.39.27-.51.15-.105.353-.164.593-.164.217 0 .39.044.54.127.224.135.337.33.345.607ZM7.043 3.24a1.035 1.035 0 0 0-.75-.292c-.323 0-.593.105-.803.315-.217.202-.322.495-.322.87 0 .315.082.57.247.78.21.262.495.39.863.39.36 0 .637-.128.847-.383.173-.21.255-.472.255-.795 0-.375-.112-.667-.337-.885Zm-1.208.315a.537.537 0 0 1 .435-.202c.188 0 .345.075.45.21.113.135.165.322.165.555 0 .247-.06.442-.18.585a.522.522 0 0 1-.427.187.598.598 0 0 1-.255-.052.545.545 0 0 1-.195-.15c-.113-.135-.165-.33-.165-.57 0-.24.06-.428.172-.563ZM9.383 3.667h-.465a.359.359 0 0 0-.12-.254.47.47 0 0 0-.308-.09.48.48 0 0 0-.27.067.22.22 0 0 0-.098.195c0 .075.03.127.09.158.06.03.21.082.45.135.255.06.435.127.533.194.18.12.27.285.27.495 0 .233-.09.42-.27.548-.158.12-.383.18-.652.18-.308 0-.54-.067-.713-.21-.173-.143-.255-.338-.263-.593h.488c.008.128.037.218.098.278.09.098.224.143.404.143.12 0 .218-.023.293-.075a.248.248 0 0 0 .12-.226c0-.097-.06-.165-.173-.21a8.966 8.966 0 0 0-.442-.135 2.33 2.33 0 0 1-.345-.112.67.67 0 0 1-.195-.12.559.559 0 0 1-.173-.428c0-.217.09-.39.27-.51.15-.105.353-.164.593-.164.217 0 .39.044.54.127.218.135.33.33.338.607Z" fill="#fff"/></svg>