<svg class="color-immutable" width="24" height="24" viewBox="0 0 24 24" fill="none" xmlns="http://www.w3.org/2000/svg"><path fill-rule="evenodd" clip-rule="evenodd" d="M22.5 0h-21C.675 0 0 .675 0 1.5v21c0 .825.675 1.5 1.5 1.5h21c.825 0 1.5-.675 1.5-1.5v-21c0-.825-.675-1.5-1.5-1.5Z" fill="#2D327D"/><path fill-rule="evenodd" clip-rule="evenodd" d="M17.97 3.667a.669.669 0 0 1-1.335 0c0-.367.3-.667.667-.667.375 0 .668.3.668.667ZM20.97 9.292l-.9-2.122a.385.385 0 0 0-.368-.24h-1.545l-.082-.668h1.275c.135 0 .24-.105.24-.247a.242.242 0 0 0-.24-.24h-1.335l-.105-.818a.555.555 0 0 0-1.102.135l.262 2.13c0 .023.015.09.015.098a.4.4 0 0 0 .397.397h1.943l.802 1.883c.06.15.21.24.368.24a.392.392 0 0 0 .157-.03c.21-.083.3-.315.218-.518Z" fill="#fff"/><path fill-rule="evenodd" clip-rule="evenodd" d="M19.755 9.023c-.33.555-.938.93-1.628.93a1.892 1.892 0 0 1-1.89-1.89c0-.526.218-.998.563-1.343l-.075-.652A2.436 2.436 0 1 0 20.017 9.6l-.262-.577ZM13.223 12.757 10.986 21H9.18l-1.425-5.888L6.375 21h-1.83l-2.198-8.243h1.808l1.327 6.06 1.448-6.06h1.702l1.448 6.015 1.342-6.015h1.8ZM21.218 17.82c-.06.855-.346 1.582-.855 2.19-.668.795-1.62 1.192-2.843 1.192-1.305 0-2.317-.457-3.045-1.38-.623-.787-.93-1.77-.93-2.947 0-1.23.367-2.265 1.103-3.082.735-.818 1.717-1.23 2.94-1.23 1.14 0 2.054.374 2.752 1.124.495.533.773 1.14.825 1.83h-1.777c-.098-.464-.308-.824-.623-1.08-.323-.255-.72-.382-1.215-.382-.78 0-1.365.33-1.755.99-.293.502-.435 1.11-.435 1.838 0 .742.15 1.364.458 1.86.39.637.96.952 1.717.952.54 0 .975-.157 1.297-.48.323-.323.518-.788.593-1.395h1.793Z" fill="#fff"/></svg>