<svg class="color-immutable" width="24" height="24" viewBox="0 0 24 24" fill="none" xmlns="http://www.w3.org/2000/svg"><path fill-rule="evenodd" clip-rule="evenodd" d="M22.5 0h-21C.675 0 0 .675 0 1.5v21c0 .825.675 1.5 1.5 1.5h21c.825 0 1.5-.675 1.5-1.5v-21c0-.825-.675-1.5-1.5-1.5Z" fill="#2D327D"/><path fill-rule="evenodd" clip-rule="evenodd" d="M12.893 4.628c0 .885.712 1.597 1.597 1.597s1.597-.712 1.597-1.597-.712-1.598-1.597-1.598-1.598.72-1.598 1.598ZM5.73 18.082l2.16-5.077a.95.95 0 0 1 .878-.578h3.69l.194-1.59H9.6a.586.586 0 0 1 0-1.17h3.203l.24-1.942a1.32 1.32 0 0 1 1.477-1.148 1.32 1.32 0 0 1 1.148 1.478l-.638 5.085c-.007.06-.03.217-.03.232a.954.954 0 0 1-.953.953h-4.65l-1.912 4.5a.962.962 0 0 1-1.252.502.939.939 0 0 1-.503-1.245Z" fill="#fff"/><path fill-rule="evenodd" clip-rule="evenodd" d="M8.633 17.438a4.528 4.528 0 0 0 3.892 2.227 4.515 4.515 0 0 0 3.18-7.717l.18-1.553a5.815 5.815 0 0 1 2.467 4.755 5.829 5.829 0 0 1-5.827 5.827 5.808 5.808 0 0 1-4.507-2.137l.615-1.402Z" fill="#fff"/></svg>