<svg class="color-immutable" width="24" height="24" viewBox="0 0 24 24" fill="none" xmlns="http://www.w3.org/2000/svg"><path fill-rule="evenodd" clip-rule="evenodd" d="M22.5 0h-21C.675 0 0 .675 0 1.5v21c0 .825.675 1.5 1.5 1.5h21c.825 0 1.5-.675 1.5-1.5v-21c0-.825-.675-1.5-1.5-1.5Z" fill="#2D327D"/><path fill-rule="evenodd" clip-rule="evenodd" d="M11.107 4.628c0 .885-.712 1.597-1.597 1.597a1.594 1.594 0 0 1-1.598-1.597 1.599 1.599 0 0 1 3.195 0ZM18.27 18.082l-2.16-5.077a.95.95 0 0 0-.877-.578h-3.69l-.195-1.59H14.4a.586.586 0 0 0 0-1.17h-3.203l-.24-1.942A1.32 1.32 0 0 0 9.48 6.577a1.32 1.32 0 0 0-1.148 1.478l.638 5.085c.007.06.03.217.03.232 0 .525.428.953.953.953h4.65l1.912 4.5a.962.962 0 0 0 1.252.502.939.939 0 0 0 .503-1.245Z" fill="#fff"/><path fill-rule="evenodd" clip-rule="evenodd" d="M15.367 17.438a4.528 4.528 0 0 1-3.892 2.227 4.515 4.515 0 0 1-3.18-7.717l-.18-1.553a5.815 5.815 0 0 0-2.468 4.755 5.829 5.829 0 0 0 5.828 5.827 5.808 5.808 0 0 0 4.508-2.137l-.616-1.402Z" fill="#fff"/></svg>