<svg class="color-immutable" width="24" height="24" viewBox="0 0 24 24" fill="none" xmlns="http://www.w3.org/2000/svg"><path fill-rule="evenodd" clip-rule="evenodd" d="M22.5 0h-21C.675 0 0 .675 0 1.5v21c0 .825.675 1.5 1.5 1.5h21c.825 0 1.5-.675 1.5-1.5v-21c0-.825-.675-1.5-1.5-1.5Z" fill="#2D327D"/><path fill-rule="evenodd" clip-rule="evenodd" d="M19.808 15.307c-.585-.585-1.463-.66-1.958-.165l-1.515 1.515-3.585-2.624V7.5c0-.487-.232-.96-.668-1.245A1.487 1.487 0 0 0 11.25 6H7.875a.56.56 0 0 0-.457.24l-1.8 2.565-.143-.105a.374.374 0 0 0-.525.083.374.374 0 0 0 .083.524l.157.113-.007.008a.555.555 0 0 0 .135.78.551.551 0 0 0 .772-.127l.795.584.42-.622-.78-.57 1.643-2.348h1.53l-2.693 4.043a1.537 1.537 0 0 0-.172.352v.008L3.998 20.01a.75.75 0 0 0 1.425.473l2.497-7.486L9 16.605v3.645c0 .413.338.75.75.75s.75-.337.75-.75V16.395c0-.008 0-.015-.008-.023v-.007c0-.007-.007-.022-.007-.03-.008-.015-.008-.03-.015-.053L9.45 12.9l.045-.068 2.13-3.187v3.57l-1.297-.953-.42.623 1.71 1.252v.488a.564.564 0 0 0 1.05.285l3.105 2.28c-.12.09-.255.18-.36.232l-.833.413c-.188.09-.435.3-.563.465L11.994 21h9v-4.5l-1.185-1.193ZM13.5 6.75c.825 0 1.5-.675 1.5-1.5s-.675-1.5-1.5-1.5-1.5.675-1.5 1.5.675 1.5 1.5 1.5Z" fill="#fff"/></svg>