<svg class="color-immutable" width="24" height="24" viewBox="0 0 24 24" fill="none" xmlns="http://www.w3.org/2000/svg"><path fill-rule="evenodd" clip-rule="evenodd" d="M22.5 0h-21C.675 0 0 .675 0 1.5v21c0 .825.675 1.5 1.5 1.5h21c.825 0 1.5-.675 1.5-1.5v-21c0-.825-.675-1.5-1.5-1.5Z" fill="#2D327D"/><path fill-rule="evenodd" clip-rule="evenodd" d="M9.615 18.81a2.378 2.378 0 0 0 4.755 0v-2.377H9.615v2.377Z" fill="#fff"/><path fill-rule="evenodd" clip-rule="evenodd" d="m21.195 20.13-6.66-6.66.72-2.978c.075-.3.075-.622.007-.922l-1.215-5.61a1.446 1.446 0 0 0-1.417-1.14h-1.275c-.683 0-1.268.473-1.418 1.14L9.06 8.003 3.847 2.79 2.79 3.848l5.917 5.917c-.03.36.008.727.225 1.14.323.607 1.02 1.928 1.02 1.928l3.03 1.207 7.148 7.148 1.065-1.058Z" fill="#fff"/><path fill-rule="evenodd" clip-rule="evenodd" d="M3.847 2.79 2.79 3.848l17.34 17.347 1.065-1.065L3.847 2.79Z" fill="#EB0000"/></svg>