<svg class="color-immutable" width="30" height="30" viewBox="0 0 30 30" fill="none" xmlns="http://www.w3.org/2000/svg"><g clip-path="url(#a)"><path d="M30 30H0V0h30v30Z" fill="#2D327D"/><path d="M25.5 3c.825 0 1.5.675 1.5 1.5v21c0 .825-.675 1.5-1.5 1.5h-21c-.825 0-1.5-.675-1.5-1.5v-21C3 3.675 3.675 3 4.5 3h21Zm0-.375h-21A1.877 1.877 0 0 0 2.625 4.5v21c0 1.034.841 1.875 1.875 1.875h21a1.877 1.877 0 0 0 1.875-1.875v-21A1.877 1.877 0 0 0 25.5 2.625Z" fill="#fff"/><path d="m12.375 8.437.75.75.75-.75.75.75.938-.937-.938-.938h-4.289a2.287 2.287 0 1 0 0 1.875h1.289l.75-.75ZM7.125 9a.75.75 0 1 1 0-1.5.75.75 0 0 1 0 1.5ZM24 15.488V14.25l-9-4.125-9 4.125v1.238l9-4.125 9 4.125Z" fill="#fff"/><path d="m13.263 15.946-1.584.554a.327.327 0 0 1-.38-.127l-.356-.528a.263.263 0 0 1 .218-.41h2.015a.262.262 0 0 1 .087.51ZM18.807 15.96h-2.298v-.524h2.298a.262.262 0 0 1 0 .525ZM18.807 16.814h-.329a.263.263 0 0 1 0-.525h.329a.262.262 0 0 1 0 .525ZM10.34 17.568a3.217 3.217 0 0 0 0 6.432 3.215 3.215 0 0 0 3.203-2.92h.684a.854.854 0 1 0 1.443-.888l1.72-2.558.354.567A3.217 3.217 0 0 0 19.659 24a3.217 3.217 0 0 0 0-6.432c-.511 0-1.015.122-1.47.356l-.63-1.011h-5.118l-.63 1.01a3.214 3.214 0 0 0-1.47-.355Zm6.629 3.216c0-.836.39-1.625 1.052-2.135l1.416 2.273a.262.262 0 1 0 .446-.277l-1.415-2.273a2.692 2.692 0 0 1 3.883 2.413 2.692 2.692 0 0 1-5.382 0Zm-2.204-.886-1.655-2.46h3.78l-1.655 2.46a.846.846 0 0 0-.47 0Zm-1.217.656a3.22 3.22 0 0 0-1.291-2.353l.353-.567 1.72 2.557a.847.847 0 0 0-.167.363h-.615Zm-1.57-1.905c.6.46.98 1.152 1.044 1.905h-2.23l1.187-1.905Zm-1.637 4.826a2.691 2.691 0 1 1 1.192-5.104l-1.175 1.889-.017-.001a.525.525 0 1 0 .434.82h2.241a2.692 2.692 0 0 1-2.675 2.396Z" fill="#fff"/></g><defs><clipPath id="a"><path fill="#fff" d="M0 0h30v30H0z"/></clipPath></defs></svg>