<svg class="color-immutable" width="24" height="24" viewBox="0 0 24 24" fill="none" xmlns="http://www.w3.org/2000/svg"><g clip-path="url(#a)"><path d="M0 22.5v-21C0 .675.675 0 1.5 0h21c.825 0 1.5.675 1.5 1.5v21c0 .825-.675 1.5-1.5 1.5h-21C.675 24 0 23.325 0 22.5Z" fill="#2D327D"/><path d="m9.375 5.438.75.75.75-.75.75.75.938-.938-.938-.938H7.336a2.286 2.286 0 0 0-4.373.937 2.288 2.288 0 0 0 4.373.938h1.289l.75-.749ZM4.125 6a.75.75 0 1 1 0-1.5.75.75 0 0 1 0 1.5ZM21 12.488V11.25l-9-4.125-9 4.125v1.238l9-4.125 9 4.125Z" fill="#fff"/><path d="m13.737 12.946 1.584.554a.326.326 0 0 0 .38-.126l.356-.528a.262.262 0 0 0-.218-.409h-2.016a.263.263 0 0 0-.263.263c0 .11.072.21.177.246ZM8.193 12.961h2.298v-.525H8.193a.262.262 0 0 0 0 .525ZM8.194 13.814h.328a.263.263 0 0 0 0-.525h-.328a.262.262 0 0 0 0 .525ZM16.659 14.568c-.511 0-1.016.122-1.47.356l-.63-1.011H9.44l-.63 1.011A3.217 3.217 0 1 0 7.34 21a3.217 3.217 0 0 0 1.916-5.799l.353-.567 1.72 2.557a.854.854 0 1 0 1.444.888h.685a3.214 3.214 0 0 0 6.417-.295 3.217 3.217 0 0 0-3.216-3.216Zm-6.628 3.216a2.692 2.692 0 0 1-5.382 0 2.692 2.692 0 0 1 3.883-2.413l-1.415 2.274a.262.262 0 1 0 .446.278l1.415-2.273a2.689 2.689 0 0 1 1.053 2.134Zm2.204-.886a.846.846 0 0 0-.236-.032.842.842 0 0 0-.234.032l-1.655-2.461h3.78l-1.655 2.461Zm1.217.656h-.615a.85.85 0 0 0-.167-.363l1.719-2.557.354.567a3.22 3.22 0 0 0-1.291 2.353Zm1.569-1.905 1.186 1.905h-2.229a2.692 2.692 0 0 1 1.043-1.905Zm1.638 4.826a2.692 2.692 0 0 1-2.675-2.396h2.241a.524.524 0 1 0 .434-.821l-.017.001-1.175-1.888a2.691 2.691 0 1 1 1.192 5.104Z" fill="#fff"/></g><defs><clipPath id="a"><path fill="#fff" d="M0 0h24v24H0z"/></clipPath></defs></svg>