<svg class="color-immutable" width="24" height="24" viewBox="0 0 24 24" fill="none" xmlns="http://www.w3.org/2000/svg"><g clip-path="url(#a)"><path d="M0 22.5v-21C0 .675.675 0 1.5 0h21c.825 0 1.5.675 1.5 1.5v21c0 .825-.675 1.5-1.5 1.5h-21C.675 24 0 23.325 0 22.5Z" fill="#2D327D"/><path d="m9.375 5.438.75.75.75-.75.75.75.938-.938-.938-.938H7.336a2.286 2.286 0 0 0-4.373.937 2.288 2.288 0 0 0 4.373.938h1.289l.75-.749ZM4.125 6a.75.75 0 1 1 0-1.5.75.75 0 0 1 0 1.5ZM21 12.488V11.25l-9-4.125-9 4.125v1.238l9-4.125 9 4.125Z" fill="#fff"/><path d="m10.263 12.946-1.584.554a.326.326 0 0 1-.38-.126l-.356-.528a.262.262 0 0 1 .218-.409h2.016c.146 0 .263.118.263.263 0 .11-.072.21-.177.246ZM15.807 12.961h-2.298v-.525h2.298a.262.262 0 0 1 0 .525ZM15.807 13.814h-.328a.263.263 0 0 1 0-.525h.328a.262.262 0 0 1 0 .525ZM7.341 14.568a3.217 3.217 0 1 0 3.202 3.511h.685a.855.855 0 0 0 1.627-.361.846.846 0 0 0-.183-.527l1.72-2.557.353.567A3.217 3.217 0 0 0 16.661 21a3.216 3.216 0 1 0-1.47-6.076l-.63-1.011h-5.12l-.63 1.011a3.211 3.211 0 0 0-1.47-.356Zm6.628 3.216a2.69 2.69 0 0 1 1.053-2.135l1.415 2.273a.263.263 0 1 0 .446-.278l-1.415-2.274a2.692 2.692 0 1 1-1.499 2.414Zm-2.204-.886-1.655-2.461h3.78l-1.655 2.461a.856.856 0 0 0-.47 0Zm-1.217.656a3.219 3.219 0 0 0-1.292-2.353l.354-.567 1.719 2.557a.85.85 0 0 0-.167.363h-.614Zm-1.569-1.905c.6.46.979 1.151 1.043 1.905H7.793l1.186-1.905Zm-1.638 4.826a2.691 2.691 0 1 1 1.192-5.104L7.358 17.26l-.017-.001a.526.526 0 1 0 .434.821h2.241a2.692 2.692 0 0 1-2.675 2.395Z" fill="#fff"/></g><defs><clipPath id="a"><path fill="#fff" d="M0 0h24v24H0z"/></clipPath></defs></svg>