<svg class="color-immutable" width="30" height="30" viewBox="0 0 30 30" fill="none" xmlns="http://www.w3.org/2000/svg"><g clip-path="url(#a)"><path d="M30 30H0V0h30v30Z" fill="#2D327D"/><path d="M25.5 3c.825 0 1.5.675 1.5 1.5v21c0 .825-.675 1.5-1.5 1.5h-21c-.825 0-1.5-.675-1.5-1.5v-21C3 3.675 3.675 3 4.5 3h21Zm0-.375h-21A1.877 1.877 0 0 0 2.625 4.5v21c0 1.034.841 1.875 1.875 1.875h21a1.877 1.877 0 0 0 1.875-1.875v-21A1.877 1.877 0 0 0 25.5 2.625Z" fill="#fff"/><path d="m12.375 8.437.75.75.75-.75.75.75.938-.937-.938-.938h-4.289a2.287 2.287 0 1 0 0 1.875h1.289l.75-.75ZM7.125 9a.75.75 0 1 1 0-1.5.75.75 0 0 1 0 1.5ZM24 15.488V14.25l-9-4.125-9 4.125v1.238l9-4.125 9 4.125Z" fill="#fff"/><path d="m16.737 15.946 1.584.554a.327.327 0 0 0 .38-.127l.356-.528a.264.264 0 0 0-.218-.41h-2.015a.263.263 0 0 0-.087.51ZM11.193 15.96h2.298v-.524h-2.298a.262.262 0 0 0 0 .525ZM11.194 16.814h.328a.263.263 0 0 0 0-.525h-.328a.262.262 0 0 0 0 .525ZM19.66 17.568c-.512 0-1.017.122-1.471.356l-.63-1.011H12.44l-.63 1.01A3.217 3.217 0 1 0 10.34 24a3.217 3.217 0 0 0 1.917-5.798l.352-.567 1.72 2.557a.854.854 0 1 0 1.444.888h.685a3.215 3.215 0 0 0 6.417-.295 3.217 3.217 0 0 0-3.216-3.216Zm-6.629 3.216a2.692 2.692 0 0 1-5.382 0 2.692 2.692 0 0 1 3.883-2.412l-1.415 2.273a.262.262 0 1 0 .446.277l1.416-2.273a2.692 2.692 0 0 1 1.052 2.135Zm2.204-.886a.85.85 0 0 0-.47 0l-1.655-2.46h3.78l-1.655 2.46Zm1.217.656h-.615a.846.846 0 0 0-.166-.363l1.719-2.557.354.567a3.22 3.22 0 0 0-1.292 2.353Zm1.57-1.905 1.185 1.905h-2.229a2.689 2.689 0 0 1 1.043-1.905Zm1.637 4.826a2.692 2.692 0 0 1-2.675-2.396h2.241a.525.525 0 1 0 .434-.82h-.017l-1.175-1.887a2.69 2.69 0 1 1 1.192 5.104Z" fill="#fff"/></g><defs><clipPath id="a"><path fill="#fff" d="M0 0h30v30H0z"/></clipPath></defs></svg>