<svg class="color-immutable" width="24" height="24" viewBox="0 0 24 24" fill="none" xmlns="http://www.w3.org/2000/svg"><path fill-rule="evenodd" clip-rule="evenodd" d="M22.5 0h-21C.675 0 0 .675 0 1.5v21c0 .825.675 1.5 1.5 1.5h21c.825 0 1.5-.675 1.5-1.5v-21c0-.825-.675-1.5-1.5-1.5Z" fill="#2D327D"/><path fill-rule="evenodd" clip-rule="evenodd" d="M7.5 3v3.75h5.25v1.5H15V9h-2.25v.75H15v.75h-2.25v6h3.75V3h-9ZM15 6h-.45V4.53h-.525V4.2a.864.864 0 0 0 .27-.038.559.559 0 0 0 .188-.097c.082-.06.142-.173.165-.323H15V6Z" fill="#fff"/><path fill-rule="evenodd" clip-rule="evenodd" d="M3 7.5V21h9V7.5H3Zm7.5 7.5h-6v-.75h6V15Zm0-1.5h-6v-.75h6v.75Zm0-3H8.88c0-.12.022-.24.06-.352a.889.889 0 0 1 .165-.285c.053-.06.12-.12.195-.18.075-.06.225-.165.442-.323a.885.885 0 0 0 .225-.21.397.397 0 0 0 .068-.225c0-.098-.03-.18-.09-.24a.305.305 0 0 0-.225-.09c-.232 0-.353.165-.36.502h-.435v-.052c0-.27.075-.488.232-.63a.799.799 0 0 1 .578-.217c.21 0 .383.06.525.18.15.127.232.3.232.524a.746.746 0 0 1-.292.6c-.037.03-.127.09-.277.195-.143.098-.24.173-.308.226-.06.052-.12.112-.172.18H10.5v.397Z" fill="#fff"/></svg>