<svg class="color-immutable" width="24" height="24" viewBox="0 0 24 24" fill="none" xmlns="http://www.w3.org/2000/svg"><path fill-rule="evenodd" clip-rule="evenodd" d="M22.5 0h-21C.675 0 0 .675 0 1.5v21c0 .825.675 1.5 1.5 1.5h21c.825 0 1.5-.675 1.5-1.5v-21c0-.825-.675-1.5-1.5-1.5Z" fill="#2D327D"/><path fill-rule="evenodd" clip-rule="evenodd" d="M10.5 20.25c0 .413.338.75.75.75h9c.413 0 .75-.337.75-.75v-.375H10.5v.375ZM13.125 12h5.625A2.247 2.247 0 0 1 21 14.25a2.247 2.247 0 0 1-2.25 2.25v1.875c0 .413-.337.75-.75.75h-4.5a.752.752 0 0 1-.75-.75v-6c0-.21.165-.375.375-.375Zm5.633.75h-.008l.008 3c.825 0 1.5-.675 1.5-1.5s-.675-1.5-1.5-1.5ZM9.375 7.5h-6A.371.371 0 0 0 3 7.875V12a3.01 3.01 0 0 0 2.813 3v4.875H3.374A.371.371 0 0 0 3 20.25v.375c0 .21.165.375.375.375h6c.21 0 .375-.165.375-.375v-.375a.371.371 0 0 0-.375-.375H6.937V15a3 3 0 0 0 2.813-3V7.875a.371.371 0 0 0-.375-.375Z" fill="#fff"/></svg>