<svg class="color-immutable" width="24" height="24" viewBox="0 0 24 24" fill="none" xmlns="http://www.w3.org/2000/svg"><g clip-path="url(#a)"><path d="M0 22.5v-21C0 .675.675 0 1.5 0h21c.825 0 1.5.675 1.5 1.5v21c0 .825-.675 1.5-1.5 1.5h-21C.675 24 0 23.325 0 22.5Z" fill="#2D327D"/><path d="M10.5 20.25c0 .414.336.75.75.75h9a.75.75 0 0 0 .75-.75v-.375H10.5v.375ZM18.75 12h-5.625a.375.375 0 0 0-.375.375v6c0 .414.336.75.75.75H18a.75.75 0 0 0 .75-.75V16.5a2.25 2.25 0 0 0 0-4.5Zm.005 3.75h-.005v-3h.005a1.5 1.5 0 0 1 0 3ZM9.375 7.5h-6A.375.375 0 0 0 3 7.875V12a3.004 3.004 0 0 0 2.812 2.998v4.877H3.375A.375.375 0 0 0 3 20.25v.375c0 .207.168.375.375.375h6a.375.375 0 0 0 .375-.375v-.375a.375.375 0 0 0-.375-.375H6.938v-4.877A3.004 3.004 0 0 0 9.75 12V7.875a.375.375 0 0 0-.375-.375Z" fill="#fff"/></g><defs><clipPath id="a"><path fill="#fff" d="M0 0h24v24H0z"/></clipPath></defs></svg>