<svg class="color-immutable" width="30" height="30" viewBox="0 0 30 30" fill="none" xmlns="http://www.w3.org/2000/svg"><g clip-path="url(#a)"><path d="M30 0H0v30h30V0Z" fill="#237F52"/><path d="M25.5 3c.825 0 1.5.675 1.5 1.5v21c0 .825-.675 1.5-1.5 1.5h-21c-.825 0-1.5-.675-1.5-1.5v-21C3 3.675 3.675 3 4.5 3h21Zm0-.375h-21A1.877 1.877 0 0 0 2.625 4.5v21c0 1.034.841 1.875 1.875 1.875h21a1.877 1.877 0 0 0 1.875-1.875v-21A1.877 1.877 0 0 0 25.5 2.625Z" fill="#fff"/><path d="M20.979 15.183c-.181-.258-.395-.41-.395-.41l-.736-.437-1.189-.689a.56.56 0 0 0-.143-.02.328.328 0 0 0-.293.163c-.03.05-.049.144-.051.155-.056.253.104.552.324.689l.959.572.298.184-2.134 3.707c.506.315.548.305.559.31.201.107.399.218.62.218l2.006.007L24 21.53v-3.418l-1.734-1.021s-1.186-1.764-1.287-1.908Z" fill="#fff"/><path d="M23.642 21.567v.63a.25.25 0 0 1-.25.25H6.608a.25.25 0 0 1-.25-.25V9.607c0-.136.114-.25.25-.25h16.784a.25.25 0 0 1 .25.25v8.045l.358.21V9.608A.61.61 0 0 0 23.392 9H6.608A.61.61 0 0 0 6 9.608v12.588a.61.61 0 0 0 .608.608h16.784a.61.61 0 0 0 .608-.608v-.416l-.11-.065-.248-.148Z" fill="#fff"/><path d="M22.266 17.09s-1.186-1.762-1.287-1.907c-.181-.258-.395-.41-.395-.41l-.736-.437-1.189-.689a.56.56 0 0 0-.143-.02.328.328 0 0 0-.293.163c-.03.05-.049.144-.051.155-.056.253.104.552.324.689l.959.572.298.184-2.134 3.707c.506.315.548.305.559.31.201.107.399.218.62.218l2.006.007 2.838 1.686.358.212v-3.418l-.358-.21-1.376-.811ZM19.833 14.079l.305.175.704-1.23 1.417.817.856-1.484-2.64-1.512-2.267.67 1.435.83-.698 1.22-.002.003.89.51ZM16.787 19.346l.337.194-.337-.194Z" fill="#fff"/><path d="m18.829 15.08-.189-.113a.624.624 0 0 1-.483.716.624.624 0 0 1 .04.686.624.624 0 0 1-.502.305l.01.018a.626.626 0 0 1-.032.566.626.626 0 0 1-.505.306c.008.015.017.028.023.044a.629.629 0 0 1-.032.566.626.626 0 0 1-.853.222l-.105-.063-.29.506.876.507.337.194 2.329-4.084-.624-.377ZM11.297 11.32h-2.26v-.359h2.175l1.31-.663 1.441.383-.092.346-1.308-.348-1.266.64ZM17.55 12.183l-.797-.864h-.725v-.358h.882l.903.979-.263.243ZM10.963 12.328l-.134-.333 1.566-.63.746.298.756-.35.15.325-.896.415-.756-.303-1.432.578ZM14.188 16.4l-.633-1.725.937-1.208.171-1.329.356.046-.184 1.426-.875 1.128.564 1.54-.336.123Z" fill="#fff"/><path d="m17.341 16.591-.107-.063-.012-.007-.188-.113-.545-.327a.407.407 0 0 0-.562.134.409.409 0 0 0 .134.561l.554.332.188.113.026.015.101.06a.41.41 0 0 0 .579-.518.404.404 0 0 0-.168-.186ZM17.064 16.173l-.187-.112-.554-.332a.406.406 0 0 1 .214-.756c.073 0 .147.02.213.06l.547.327.187.113.264.158.118.07a.407.407 0 1 1-.411.705l-.112-.066-.279-.167ZM17.822 15.428l-.06-.037-.188-.111-.554-.332a.408.408 0 1 1 .427-.696l.547.327.187.113.052.03.025.018a.409.409 0 0 1 .143.17.41.41 0 0 1-.374.573.406.406 0 0 1-.17-.04c-.012-.006-.024-.009-.035-.015ZM16.974 18.065a.408.408 0 0 1-.558.147l-.108-.065-.019-.011-.188-.113-.142-.085a.408.408 0 1 1 .427-.695l.135.08.188.113.004.003.114.068a.408.408 0 0 1 .147.558Z" fill="#fff"/><path d="M15.59 11.14a.617.617 0 1 0-1.234 0 .617.617 0 0 0 1.233 0Z" fill="#EB0000"/></g><defs><clipPath id="a"><path fill="#fff" d="M0 0h30v30H0z"/></clipPath></defs></svg>