<svg class="color-immutable" width="24" height="24" viewBox="0 0 24 24" fill="none" xmlns="http://www.w3.org/2000/svg"><path fill-rule="evenodd" clip-rule="evenodd" d="M22.5 0h-21C.675 0 0 .675 0 1.5v21c0 .825.675 1.5 1.5 1.5h21c.825 0 1.5-.675 1.5-1.5v-21c0-.825-.675-1.5-1.5-1.5Z" fill="#2D327D"/><path fill-rule="evenodd" clip-rule="evenodd" d="M6.375 8.25H3V7.5h15.075c.608 0 1.148.412 1.305.998l1.575 5.872c.03.113.045.232.045.353v3.802c0 .33-.27.6-.6.6h-6.975c-.33 0-.6-.27-.6-.6V18.45a3.45 3.45 0 0 0-6.9 0V18.525c0 .33-.27.6-.6.6H3V13.5h3.375c.21 0 .375-.165.375-.375v-4.5a.371.371 0 0 0-.375-.375Zm11.063 6.375c0 .21.165.375.375.375h2.047a.371.371 0 0 0 .36-.473l-1.582-5.91a.594.594 0 0 0-.578-.442h-.015c-.33 0-.6.27-.6.6l-.008 5.85Zm-1.35.45c-.33 0-.6-.27-.6-.6v-5.7c0-.33.27-.6.6-.6.33 0 .6.27.6.6v5.7c0 .33-.27.6-.6.6Zm-2.55-.6c0 .33.27.6.6.6.33 0 .6-.27.6-.6v-5.7c0-.33-.27-.6-.6-.6-.33 0-.6.27-.6.6v5.7ZM7.874 13.5a.371.371 0 0 1-.375-.375v-4.5c0-.21.165-.375.375-.375h4.537c.21 0 .375.165.375.375v4.5c0 .21-.165.375-.375.375H7.875Z" fill="#fff"/><path fill-rule="evenodd" clip-rule="evenodd" d="M11.977 18.473a2.628 2.628 0 0 0-2.625-2.625 2.628 2.628 0 0 0-2.625 2.624 2.628 2.628 0 0 0 2.625 2.625 2.628 2.628 0 0 0 2.625-2.625Zm-1.125-.06c0 .825-.675 1.5-1.5 1.5-.832 0-1.5-.668-1.5-1.5 0-.826.675-1.5 1.5-1.5s1.5.674 1.5 1.5Z" fill="#fff"/></svg>