<svg class="color-immutable" width="24" height="24" viewBox="0 0 24 24" fill="none" xmlns="http://www.w3.org/2000/svg"><g clip-path="url(#a)"><path d="M0 22.5v-21C0 .675.675 0 1.5 0h21c.825 0 1.5.675 1.5 1.5v21c0 .825-.675 1.5-1.5 1.5h-21C.675 24 0 23.325 0 22.5Z" fill="#2D327D"/><path d="M17.625 8.25H21V7.5H5.926a1.35 1.35 0 0 0-1.304 1l-1.576 5.869a1.335 1.335 0 0 0-.046.35v3.806a.6.6 0 0 0 .6.6h6.976a.6.6 0 0 0 .6-.6v-.011l-.001-.064a3.452 3.452 0 0 1 3.45-3.45 3.452 3.452 0 0 1 3.45 3.45l-.001.064v.011a.6.6 0 0 0 .6.6H21V13.5h-3.375a.375.375 0 0 1-.375-.375v-4.5c0-.207.168-.375.375-.375ZM6.562 14.625a.374.374 0 0 1-.375.375H4.142a.375.375 0 0 1-.362-.472L5.366 8.62a.6.6 0 0 1 .58-.444h.017a.6.6 0 0 1 .6.6v5.849h-.001Zm1.95-.15a.6.6 0 0 1-1.2 0v-5.7a.6.6 0 0 1 1.2 0v5.7Zm1.951 0a.6.6 0 0 1-1.2 0v-5.7a.6.6 0 0 1 1.2 0v5.7Zm6.037-1.35a.375.375 0 0 1-.375.375h-4.537a.375.375 0 0 1-.375-.375v-4.5c0-.207.168-.375.375-.375h4.537c.207 0 .375.168.375.375v4.5Z" fill="#fff"/><path d="M14.648 15.847a2.626 2.626 0 0 0 0 5.25 2.626 2.626 0 0 0 0-5.25Zm0 4.069a1.5 1.5 0 1 1 .001-3.001 1.5 1.5 0 0 1-.001 3.001Z" fill="#fff"/></g><defs><clipPath id="a"><path fill="#fff" d="M0 0h24v24H0z"/></clipPath></defs></svg>