<svg class="color-immutable" width="30" height="30" viewBox="0 0 30 30" fill="none" xmlns="http://www.w3.org/2000/svg"><g clip-path="url(#a)"><path d="M30 0H0v30h30V0Z" fill="#2D327D"/><path d="M25.5 3c.825 0 1.5.675 1.5 1.5v21c0 .825-.675 1.5-1.5 1.5h-21c-.825 0-1.5-.675-1.5-1.5v-21C3 3.675 3.675 3 4.5 3h21Zm0-.375h-21A1.877 1.877 0 0 0 2.625 4.5v21c0 1.034.841 1.875 1.875 1.875h21a1.877 1.877 0 0 0 1.875-1.875v-21A1.877 1.877 0 0 0 25.5 2.625Z" fill="#fff"/><path d="M9.375 11.25H6v-.75h15.074c.611 0 1.146.41 1.304 1l1.576 5.87c.03.113.046.231.046.35v3.805a.6.6 0 0 1-.6.6h-6.976a.6.6 0 0 1-.6-.6v-.011l.001-.064a3.451 3.451 0 1 0-6.9.075.6.6 0 0 1-.6.6H6V16.5h3.375a.375.375 0 0 0 .375-.375v-4.5a.375.375 0 0 0-.375-.375Zm11.063 6.375c0 .207.168.375.375.375h2.045a.375.375 0 0 0 .362-.472l-1.586-5.909a.6.6 0 0 0-.58-.444h-.016a.6.6 0 0 0-.6.6v5.85Zm-1.95-.15a.6.6 0 0 0 1.2 0v-5.7a.6.6 0 0 0-1.2 0v5.7Zm-1.95 0a.6.6 0 0 0 1.2 0v-5.7a.6.6 0 0 0-1.2 0v5.7Zm-6.038-1.35c0 .207.168.375.375.375h4.538a.375.375 0 0 0 .375-.375v-4.5a.375.375 0 0 0-.375-.375h-4.538a.375.375 0 0 0-.375.375v4.5Z" fill="#fff"/><path d="M12.351 18.847a2.626 2.626 0 0 1 0 5.25 2.626 2.626 0 0 1 0-5.25Zm0 4.069a1.5 1.5 0 1 0 0-3.002 1.5 1.5 0 0 0 0 3.002Z" fill="#fff"/></g><defs><clipPath id="a"><path fill="#fff" d="M0 0h30v30H0z"/></clipPath></defs></svg>