<svg class="color-immutable" width="24" height="24" viewBox="0 0 24 24" fill="none" xmlns="http://www.w3.org/2000/svg"><path fill-rule="evenodd" clip-rule="evenodd" d="M22.5 0h-21C.675 0 0 .675 0 1.5v21c0 .825.675 1.5 1.5 1.5h21c.825 0 1.5-.675 1.5-1.5v-21c0-.825-.675-1.5-1.5-1.5Z" fill="#2D327D"/><path fill-rule="evenodd" clip-rule="evenodd" d="M17.625 8.25H21V7.5H5.925c-.607 0-1.147.412-1.305.998L3.045 14.37c-.03.113-.045.232-.045.353v3.802c0 .33.27.6.6.6h6.975c.33 0 .6-.27.6-.6V18.45a3.45 3.45 0 0 1 6.9 0V18.525c0 .33.27.6.6.6H21V13.5h-3.375a.371.371 0 0 1-.375-.375v-4.5c0-.21.165-.375.375-.375ZM6.562 14.625c0 .21-.165.375-.375.375H4.14a.371.371 0 0 1-.36-.473l1.583-5.91a.594.594 0 0 1 .577-.442h.015c.33 0 .6.27.6.6l.008 5.85Zm1.35.45c.33 0 .6-.27.6-.6v-5.7c0-.33-.27-.6-.6-.6-.33 0-.6.27-.6.6v5.7c0 .33.27.6.6.6Zm2.55-.6c0 .33-.27.6-.6.6-.33 0-.6-.27-.6-.6v-5.7c0-.33.27-.6.6-.6.33 0 .6.27.6.6v5.7Zm5.663-.975c.21 0 .375-.165.375-.375v-4.5a.371.371 0 0 0-.375-.375h-4.537a.371.371 0 0 0-.375.375v4.5c0 .21.165.375.375.375h4.537Z" fill="#fff"/><path fill-rule="evenodd" clip-rule="evenodd" d="M12.023 18.473a2.628 2.628 0 0 1 2.625-2.625 2.628 2.628 0 0 1 2.625 2.624 2.628 2.628 0 0 1-2.625 2.625 2.628 2.628 0 0 1-2.625-2.625Zm1.125-.06a1.5 1.5 0 1 0 3 0 1.5 1.5 0 0 0-3 0Z" fill="#fff"/></svg>