<svg class="color-immutable" width="24" height="24" viewBox="0 0 24 24" fill="none" xmlns="http://www.w3.org/2000/svg"><path fill-rule="evenodd" clip-rule="evenodd" d="M22.5 0h-21C.675 0 0 .675 0 1.5v21c0 .825.675 1.5 1.5 1.5h21c.825 0 1.5-.675 1.5-1.5v-21c0-.825-.675-1.5-1.5-1.5Z" fill="#2D327D"/><path fill-rule="evenodd" clip-rule="evenodd" d="M20.438 3.03h-2.453a.589.589 0 0 0-.593.593V9.48c0 .33.263.592.593.592h2.453c.33 0 .592-.262.592-.592V3.623a.589.589 0 0 0-.593-.593Zm-1.23 6.698c-.143 0-.248-.12-.248-.27 0-.143.12-.263.255-.263.143 0 .247.12.247.27 0 .15-.112.27-.255.263Zm-1.335-.975h2.677V3.69h-2.678v5.063ZM6.112 15.533h.713c.405 0 .57-.188.57-.435 0-.21-.105-.36-.293-.398v-.007a.34.34 0 0 0 .225-.33c0-.263-.18-.383-.457-.383h-.758v1.553Zm.278-.705h.48c.165 0 .262.09.262.24 0 .157-.097.247-.262.247h-.48v-.487Zm.442-.63H6.39v.427h.442c.128 0 .225-.075.225-.217 0-.15-.075-.21-.225-.21ZM8.595 15.533h-.24v-.158h-.007a.378.378 0 0 1-.323.188c-.292 0-.42-.15-.42-.443v-.712h.248v.69c0 .194.082.27.217.27.21 0 .278-.136.278-.308v-.652h.247v1.125ZM9.045 15.173c.015.142.12.195.255.195.09 0 .255-.023.247-.15-.007-.128-.187-.143-.367-.188-.18-.037-.36-.105-.36-.33 0-.247.262-.322.472-.322.233 0 .443.097.473.345h-.263c-.022-.12-.12-.15-.225-.15-.075 0-.202.015-.202.112 0 .12.18.143.367.18.18.045.36.105.36.33 0 .27-.27.368-.502.368-.285 0-.495-.128-.495-.39h.24ZM10.238 13.98H9.99v.232h.248v-.232Zm0 .428H9.99v1.125h.248v-1.125ZM10.508 14.408h.232v.165l.008.007a.4.4 0 0 1 .352-.202c.24 0 .398.127.398.382v.773h-.248v-.705c-.008-.173-.075-.255-.217-.255-.165 0-.27.127-.27.292v.66h-.248l-.008-1.117ZM12.248 14.37c.352 0 .577.323.532.66h-.832c0 .173.097.33.3.33.15 0 .232-.06.277-.188h.24c-.053.248-.263.383-.51.383-.353 0-.548-.248-.548-.592 0-.323.203-.593.54-.593Zm0 .203c-.165 0-.285.134-.293.3h.578c-.015-.158-.12-.3-.285-.3ZM13.155 15.173c.015.142.12.195.255.195.09 0 .255-.023.248-.15-.008-.128-.188-.143-.368-.188-.18-.037-.36-.105-.36-.33 0-.247.263-.322.473-.322.232 0 .442.097.472.345h-.262c-.023-.12-.12-.15-.226-.15-.075 0-.202.015-.202.112 0 .12.18.143.367.18.18.045.36.105.36.33 0 .27-.27.368-.502.368-.285 0-.495-.128-.495-.39h.24ZM14.28 15.173c.015.142.12.195.255.195.09 0 .255-.023.248-.15-.008-.128-.188-.143-.368-.188-.18-.037-.36-.105-.36-.33 0-.247.263-.322.473-.322.232 0 .442.097.472.345h-.262c-.023-.12-.12-.15-.226-.15-.075 0-.202.015-.202.112 0 .12.18.143.367.18.18.045.36.105.36.33 0 .27-.27.368-.502.368-.285 0-.495-.128-.495-.39h.24Z" fill="#fff"/><path fill-rule="evenodd" clip-rule="evenodd" d="m16.74 18.128 1.38 2.392s-.023.495-.233.495H3.247c-.181 0-.233-.358-.245-.443L3 20.558l1.41-2.415V11.49c0-.187.15-.337.337-.337h11.655c.188 0 .338.15.338.337v6.638Zm-.427-6.548H4.845v6.45h11.468v-6.45Zm-3.555 8.933H8.58c-.068 0-.105-.053-.082-.113l.195-.6a.18.18 0 0 1 .157-.112h3.675c.067 0 .135.052.157.12l.173.6c.015.052-.03.105-.098.105Zm-8.415-1.118 12.51-.007c.067 0 .097-.053.067-.105l-.39-.713a.218.218 0 0 0-.18-.105H4.852a.218.218 0 0 0-.18.105l-.39.72c-.037.06-.007.105.06.105Z" fill="#fff"/></svg>