<svg class="color-immutable" width="30" height="30" viewBox="0 0 30 30" fill="none" xmlns="http://www.w3.org/2000/svg"><g clip-path="url(#a)"><path d="M30 0H0v30h30V0Z" fill="#2D327D" stroke="#2D327D" stroke-miterlimit="10"/><path d="M25.5 3c.825 0 1.5.675 1.5 1.5v21c0 .825-.675 1.5-1.5 1.5h-21c-.825 0-1.5-.675-1.5-1.5v-21C3 3.675 3.675 3 4.5 3h21Zm0-.375h-21A1.877 1.877 0 0 0 2.625 4.5v21c0 1.034.841 1.875 1.875 1.875h21a1.877 1.877 0 0 0 1.875-1.875v-21A1.877 1.877 0 0 0 25.5 2.625Z" fill="#fff"/><path d="M23.458 14.624h-2.124a.512.512 0 0 0-.512.512v5.073c0 .283.23.512.512.512h2.124c.283 0 .512-.23.512-.512v-5.073a.512.512 0 0 0-.512-.512Zm-1.067 5.805a.223.223 0 0 1-.214-.232.225.225 0 0 1 .223-.225.223.223 0 0 1 .215.232.224.224 0 0 1-.224.225Zm1.164-.85h-2.318V15.2h2.318v4.38ZM19.056 21.249V14.944a.32.32 0 0 0-.32-.32H7.849a.32.32 0 0 0-.32.32V21.249l-1.31 2.275s.025.477.224.476h13.7c.2 0 .224-.476.224-.476l-1.31-2.275Zm-11.12-6.217H18.65v6.127H7.936v-6.127Zm7.338 8.49H11.31c-.064 0-.102-.05-.084-.11l.163-.571a.162.162 0 0 1 .147-.111h3.51c.064 0 .13.05.148.11l.162.571c.018.061-.02.111-.083.111Zm3.887-1.073H7.424c-.064 0-.09-.045-.06-.1l.372-.679a.216.216 0 0 1 .17-.101h10.772c.063 0 .14.046.17.101l.373.678c.03.056.003.101-.06.101ZM6 6h1.012c.217 0 .38.027.486.082.1.05.176.125.228.223.043.082.064.169.064.261a.49.49 0 0 1-.306.463c.086.029.15.059.194.09.146.107.218.263.218.467a.61.61 0 0 1-.312.558c-.119.07-.28.105-.481.105H6V6Zm.49.386v.524h.45a.542.542 0 0 0 .23-.036c.092-.044.137-.12.137-.228 0-.091-.028-.157-.086-.198-.057-.042-.151-.062-.281-.062h-.45Zm0 .86v.617h.497c.143 0 .243-.02.3-.06.076-.055.114-.137.114-.248 0-.132-.051-.223-.154-.27a.749.749 0 0 0-.284-.04H6.49ZM9.705 6.57v1.679h-.424v-.245a.61.61 0 0 1-.539.29c-.2 0-.352-.066-.455-.2a.5.5 0 0 1-.084-.185 1.227 1.227 0 0 1-.025-.277V6.569h.446v.924c0 .097.003.165.008.205.006.04.018.074.035.102.047.074.128.112.242.112a.32.32 0 0 0 .306-.186c.03-.06.046-.17.046-.328V6.57h.444ZM11.416 7.06h-.419a.27.27 0 0 0-.047-.131c-.047-.06-.132-.09-.257-.09a.328.328 0 0 0-.183.044.138.138 0 0 0-.065.121c0 .056.024.096.072.122.047.026.156.056.327.09.216.045.372.1.467.165.113.077.17.194.17.35a.48.48 0 0 1-.21.418c-.137.097-.32.146-.546.146-.28 0-.487-.07-.618-.208a.601.601 0 0 1-.148-.386h.428a.335.335 0 0 0 .058.172c.058.07.152.105.285.105a.382.382 0 0 0 .22-.056.175.175 0 0 0 .081-.152.14.14 0 0 0-.07-.128 1.203 1.203 0 0 0-.296-.095 4.852 4.852 0 0 1-.31-.079.877.877 0 0 1-.162-.068.376.376 0 0 1-.146-.151.446.446 0 0 1-.052-.215c0-.175.072-.308.216-.399.118-.075.282-.112.493-.112.277 0 .477.07.598.212a.55.55 0 0 1 .114.325ZM12.195 6v.401h-.446V6h.446Zm0 .572V8.25h-.446V6.572h.446ZM12.975 6.574v.235a.632.632 0 0 1 .546-.288c.138 0 .254.035.35.105a.438.438 0 0 1 .159.21c.03.085.045.204.045.358v1.055h-.444v-.962a.74.74 0 0 0-.028-.236.211.211 0 0 0-.09-.105.356.356 0 0 0-.35.008.304.304 0 0 0-.122.133.74.74 0 0 0-.044.297v.865h-.446V6.574h.424ZM15.934 7.726a.75.75 0 0 1-.127.266c-.148.202-.36.303-.637.303-.25 0-.45-.08-.601-.237a.773.773 0 0 1-.17-.278 1.055 1.055 0 0 1-.063-.363c0-.244.07-.45.211-.616a.76.76 0 0 1 .61-.278c.2 0 .371.062.513.186.102.09.175.2.222.33.046.13.069.295.069.493h-1.17a.65.65 0 0 0 .038.205c.06.146.175.22.344.22.083 0 .151-.019.203-.055a.39.39 0 0 0 .13-.176h.428Zm-.429-.494a.537.537 0 0 0-.055-.202.338.338 0 0 0-.295-.17c-.1 0-.182.033-.246.1a.446.446 0 0 0-.116.272h.712ZM17.605 7.06h-.419a.27.27 0 0 0-.047-.131c-.046-.06-.132-.09-.257-.09a.329.329 0 0 0-.183.044.138.138 0 0 0-.065.121c0 .056.024.096.072.122a1.5 1.5 0 0 0 .327.09c.216.045.372.1.467.165.113.077.17.194.17.35a.48.48 0 0 1-.21.418c-.137.097-.32.146-.546.146-.28 0-.487-.07-.618-.208a.601.601 0 0 1-.148-.386h.428a.333.333 0 0 0 .058.172c.058.07.152.105.285.105a.382.382 0 0 0 .22-.056.175.175 0 0 0 .081-.152.14.14 0 0 0-.07-.128 1.205 1.205 0 0 0-.296-.095 4.833 4.833 0 0 1-.309-.079.877.877 0 0 1-.163-.068.375.375 0 0 1-.146-.151.446.446 0 0 1-.052-.215c0-.175.072-.308.216-.399.118-.075.283-.112.493-.112.277 0 .477.07.598.212a.55.55 0 0 1 .114.325ZM19.328 7.06h-.419a.27.27 0 0 0-.047-.131c-.047-.06-.132-.09-.257-.09a.328.328 0 0 0-.183.044.138.138 0 0 0-.065.121c0 .056.024.096.072.122a1.5 1.5 0 0 0 .326.09c.217.045.373.1.468.165.113.077.17.194.17.35a.48.48 0 0 1-.21.418c-.137.097-.32.146-.546.146-.281 0-.487-.07-.618-.208a.6.6 0 0 1-.148-.386h.428a.334.334 0 0 0 .058.172c.057.07.152.105.285.105a.382.382 0 0 0 .22-.056.175.175 0 0 0 .081-.152.14.14 0 0 0-.07-.128 1.202 1.202 0 0 0-.296-.095 4.844 4.844 0 0 1-.31-.079.881.881 0 0 1-.162-.068.376.376 0 0 1-.146-.151.447.447 0 0 1-.053-.215c0-.175.073-.308.217-.399.118-.075.282-.112.492-.112.278 0 .478.07.599.212a.55.55 0 0 1 .114.325Z" fill="#fff"/></g><defs><clipPath id="a"><path fill="#fff" d="M0 0h30v30H0z"/></clipPath></defs></svg>