<svg class="color-immutable" width="30" height="30" viewBox="0 0 30 30" fill="none" xmlns="http://www.w3.org/2000/svg"><g clip-path="url(#a)"><path d="M30 0H0v30h30V0Z" fill="#2D327D"/><path d="M25.5 3c.825 0 1.5.675 1.5 1.5v21c0 .825-.675 1.5-1.5 1.5h-21c-.825 0-1.5-.675-1.5-1.5v-21C3 3.675 3.675 3 4.5 3h21Zm0-.375h-21A1.877 1.877 0 0 0 2.625 4.5v21c0 1.034.841 1.875 1.875 1.875h21a1.877 1.877 0 0 0 1.875-1.875v-21A1.877 1.877 0 0 0 25.5 2.625Z" fill="#fff"/><path d="M18.224 8.438 11.76 7.306a.694.694 0 0 1 .239-1.367l6.464 1.133a.694.694 0 0 1-.24 1.366ZM24 10.516 6 7.363v-.685L24 9.83v.685ZM6.75 14.25A.75.75 0 0 0 6 15v8.25c0 .414.336.75.75.75h16.5a.75.75 0 0 0 .75-.75V15a.75.75 0 0 0-.75-.75h-3.712l-2.37-4.553-1.302-.228 2.488 4.781h-6.746l2.68-5.057-1.048-.183-2.778 5.24H6.75Zm11.5 4.875v-3.75c0-.207.168-.375.375-.375h4.25c.207 0 .375.168.375.375v3.75a.375.375 0 0 1-.375.375h-4.25a.375.375 0 0 1-.375-.375Zm-5.75 0v-3.75c0-.207.168-.375.375-.375h4.25c.207 0 .375.168.375.375v3.75a.375.375 0 0 1-.375.375h-4.25a.375.375 0 0 1-.375-.375Zm-5.75 0v-3.75c0-.207.168-.375.375-.375h4.25c.207 0 .375.168.375.375v3.75a.375.375 0 0 1-.375.375h-4.25a.375.375 0 0 1-.375-.375Z" fill="#fff"/></g><defs><clipPath id="a"><path fill="#fff" d="M0 0h30v30H0z"/></clipPath></defs></svg>