<svg class="color-immutable" width="30" height="30" viewBox="0 0 30 30" fill="none" xmlns="http://www.w3.org/2000/svg"><g clip-path="url(#a)"><path d="M0 0h30v30H0V0Z" fill="#2D327D"/><path d="M25.5 3c.825 0 1.5.675 1.5 1.5v21c0 .825-.675 1.5-1.5 1.5h-21c-.825 0-1.5-.675-1.5-1.5v-21C3 3.675 3.675 3 4.5 3h21Zm0-.375h-21A1.877 1.877 0 0 0 2.625 4.5v21c0 1.034.841 1.875 1.875 1.875h21a1.877 1.877 0 0 0 1.875-1.875v-21A1.877 1.877 0 0 0 25.5 2.625Z" fill="#fff"/><path d="M11.359 17.016a.234.234 0 0 1-.234-.234v-1.653c0-.186.073-.365.206-.497l1.406-1.406a.703.703 0 0 1 .497-.207h4.053c.186 0 .365.075.497.207l1.634 1.633 2.742.228c.121.01.215.111.215.233v1.462c0 .129-.105.234-.235.234h-.258v-.27a1.407 1.407 0 0 0-2.812 0v.27h-4.664v-.27a1.407 1.407 0 0 0-2.813 0v.27h-.234Zm4.194-3.316.001.96c0 .13.105.235.234.235h2.73a.112.112 0 0 0 .08-.192l-1.17-1.17h.001a.235.235 0 0 0-.166-.068h-1.476a.234.234 0 0 0-.234.234Zm-3.55 1.194h2.87c.13 0 .235-.104.235-.234v-.96a.234.234 0 0 0-.235-.235h-1.615a.234.234 0 0 0-.166.069l-1.17 1.169a.113.113 0 0 0 .08.191Z" fill="#fff"/><path d="M21.725 22.288a12.763 12.763 0 0 0-1.306-.22 8.34 8.34 0 0 0-3.566.3 5.607 5.607 0 0 1-1.81.245 5.6 5.6 0 0 1-1.79-.355 8.375 8.375 0 0 0-3.542-.513A12.736 12.736 0 0 0 6 22.51l.002-6.01h2.392a.375.375 0 0 0 .375-.396l-.083-1.426a.375.375 0 0 0-.374-.353h-2.31V12.75h2.176a.375.375 0 0 0 .375-.375v-.022l-.081-1.387a.375.375 0 0 0-.374-.353H6.002V9.75h3.787a.3.3 0 0 1 .3.3v.035a.413.413 0 0 1-.375.411l-.46.041 1.204 6.843a.75.75 0 0 0 .739.62h11.43l1.244-3.075.562.212-2.708 7.15Z" fill="#fff"/><path d="M6 23.07a12.226 12.226 0 0 1 3.744-.801 7.84 7.84 0 0 1 3.323.48 6.12 6.12 0 0 0 2.137.392c.611 0 1.22-.092 1.803-.272a7.838 7.838 0 0 1 3.347-.28c1.26.145 2.49.485 3.646 1.007v.954a11.37 11.37 0 0 0-3.752-1.105 6.99 6.99 0 0 0-2.986.248 6.991 6.991 0 0 1-2.26.307 6.98 6.98 0 0 1-2.238-.443 6.987 6.987 0 0 0-2.966-.427c-1.307.07-2.592.364-3.798.87v-.93Z" fill="#fff"/><path fill-rule="evenodd" clip-rule="evenodd" d="M12.999 17.192a.488.488 0 1 0 0-.975.488.488 0 0 0 0 .975Zm0-1.554a1.067 1.067 0 1 1 0 2.134 1.067 1.067 0 0 1 0-2.134ZM20.475 17.192a.488.488 0 1 0 0-.976.488.488 0 0 0 0 .976Zm0-1.554a1.067 1.067 0 1 1 0 2.134 1.067 1.067 0 0 1 0-2.134Z" fill="#fff"/></g><defs><clipPath id="a"><path fill="#fff" d="M0 0h30v30H0z"/></clipPath></defs></svg>