<svg class="color-immutable" width="24" height="24" viewBox="0 0 24 24" fill="none" xmlns="http://www.w3.org/2000/svg"><g clip-path="url(#a)"><path d="M0 22.5v-21C0 .675.675 0 1.5 0h21c.825 0 1.5.675 1.5 1.5v21c0 .825-.675 1.5-1.5 1.5h-21C.675 24 0 23.325 0 22.5Z" fill="#2D327D"/><path d="M8.359 14.016a.234.234 0 0 1-.234-.234V12.13c0-.187.074-.365.206-.497l1.407-1.407a.703.703 0 0 1 .497-.206h4.052c.187 0 .365.074.497.206l1.634 1.634 2.742.227c.121.01.215.112.215.234v1.461a.234.234 0 0 1-.234.234h-.258v-.269a1.407 1.407 0 0 0-2.812 0v.269h-4.664v-.269a1.407 1.407 0 0 0-2.812 0v.269h-.236Zm4.194-3.316.002.961c0 .129.105.234.234.234h2.73a.112.112 0 0 0 .079-.191l-1.169-1.169a.235.235 0 0 0-.166-.068h-1.476a.232.232 0 0 0-.234.233Zm-3.551 1.194h2.871a.234.234 0 0 0 .234-.234v-.961a.234.234 0 0 0-.234-.234h-1.616a.239.239 0 0 0-.166.068l-1.169 1.169a.113.113 0 0 0-.033.079.114.114 0 0 0 .113.113Z" fill="#fff"/><path d="M18.725 19.288a12.528 12.528 0 0 0-1.306-.219 8.348 8.348 0 0 0-3.566.299 5.617 5.617 0 0 1-1.809.246 5.604 5.604 0 0 1-1.792-.355 8.37 8.37 0 0 0-3.541-.514A12.708 12.708 0 0 0 3 19.51l.002-6.01h2.392a.375.375 0 0 0 .375-.375l-.001-.021-.082-1.425a.374.374 0 0 0-.374-.353h-2.31V9.75h2.176a.375.375 0 0 0 .375-.375l-.001-.022-.08-1.388a.375.375 0 0 0-.374-.352H3.002V6.75H6.79a.3.3 0 0 1 .3.3v.035a.413.413 0 0 1-.376.411l-.46.041 1.205 6.843c.062.359.374.62.738.62h11.43l1.244-3.075.561.212-2.707 7.151Z" fill="#fff"/><path d="M3 20.071a12.23 12.23 0 0 1 3.744-.802 7.86 7.86 0 0 1 3.323.481 6.116 6.116 0 0 0 2.137.391c.611 0 1.219-.092 1.803-.272a7.841 7.841 0 0 1 3.346-.28c1.26.144 2.49.484 3.646 1.006v.954a11.359 11.359 0 0 0-3.753-1.104 6.991 6.991 0 0 0-2.986.248A7.001 7.001 0 0 1 12 21a6.985 6.985 0 0 1-2.237-.443 6.987 6.987 0 0 0-2.966-.427A11.344 11.344 0 0 0 3 21.001v-.93Z" fill="#fff"/><path fill-rule="evenodd" clip-rule="evenodd" d="M9.999 14.192a.489.489 0 1 0-.001-.977.489.489 0 0 0 .001.977Zm0-1.554a1.067 1.067 0 1 1 0 2.135 1.067 1.067 0 0 1 0-2.135ZM17.475 14.192a.489.489 0 1 0-.001-.977.489.489 0 0 0 .001.977Zm0-1.554a1.067 1.067 0 1 1-.001 2.133 1.067 1.067 0 0 1 .001-2.133Z" fill="#fff"/></g><defs><clipPath id="a"><path fill="#fff" d="M0 0h24v24H0z"/></clipPath></defs></svg>