<svg class="color-immutable" width="30" height="30" viewBox="0 0 30 30" fill="none" xmlns="http://www.w3.org/2000/svg"><g clip-path="url(#a)"><path d="M30 0H0v30h30V0Z" fill="#2D327D"/><path d="M25.5 3c.825 0 1.5.675 1.5 1.5v21c0 .825-.675 1.5-1.5 1.5h-21c-.825 0-1.5-.675-1.5-1.5v-21C3 3.675 3.675 3 4.5 3h21Zm0-.375h-21A1.877 1.877 0 0 0 2.625 4.5v21c0 1.034.841 1.875 1.875 1.875h21a1.877 1.877 0 0 0 1.875-1.875v-21A1.877 1.877 0 0 0 25.5 2.625ZM16.054 14.843Z" fill="#fff"/><path d="M6 10.5h5.448c.917 0 1.639.057 2.165.17a4.022 4.022 0 0 1 1.427.606c1.176.788 1.764 1.976 1.764 3.564 0 1.41-.487 2.518-1.46 3.324a3.8 3.8 0 0 1-1.412.743c-.53.151-1.182.227-1.958.227H8.946V24H6V10.5Zm2.946 2.493v3.823h2.631c.782 0 1.345-.139 1.69-.415.425-.345.637-.853.637-1.524 0-.677-.246-1.182-.738-1.514-.357-.246-.94-.37-1.746-.37H8.946Z" fill="#fff"/></g><defs><clipPath id="a"><path fill="#fff" d="M0 0h30v30H0z"/></clipPath></defs></svg>