<svg class="color-immutable" width="24" height="24" viewBox="0 0 24 24" fill="none" xmlns="http://www.w3.org/2000/svg"><g clip-path="url(#a)"><path d="M0 22.5v-21C0 .675.675 0 1.5 0h21c.825 0 1.5.675 1.5 1.5v21c0 .825-.675 1.5-1.5 1.5h-21C.675 24 0 23.325 0 22.5Z" fill="#2D327D"/><path d="M15.64 14.016a.234.234 0 0 0 .234-.234V12.13a.702.702 0 0 0-.206-.497l-1.407-1.407a.703.703 0 0 0-.497-.206H9.713a.702.702 0 0 0-.497.206L7.583 11.86l-2.743.227a.235.235 0 0 0-.215.234v1.461c0 .129.105.234.234.234h.258v-.269a1.407 1.407 0 0 1 2.812 0v.269h4.664v-.269a1.407 1.407 0 0 1 2.812 0v.269h.235ZM11.447 10.7l-.002.961a.234.234 0 0 1-.234.234h-2.73a.112.112 0 0 1-.079-.191l1.169-1.169a.235.235 0 0 1 .166-.068h1.476a.232.232 0 0 1 .234.233Zm3.55 1.194h-2.871a.234.234 0 0 1-.234-.234v-.961c0-.129.105-.234.234-.234h1.616c.062 0 .122.025.166.068l1.169 1.169c.021.021.033.05.033.079a.114.114 0 0 1-.113.113Z" fill="#fff"/><path d="M5.275 19.288c.431-.096.867-.169 1.306-.219a8.348 8.348 0 0 1 3.566.299 5.617 5.617 0 0 0 1.809.246 5.604 5.604 0 0 0 1.792-.355 8.37 8.37 0 0 1 3.541-.514c1.268.069 2.519.327 3.711.765l-.002-6.01h-2.392a.375.375 0 0 1-.375-.375l.001-.021.082-1.425a.374.374 0 0 1 .374-.353h2.31V9.75h-2.176a.375.375 0 0 1-.375-.375l.001-.022.08-1.388a.374.374 0 0 1 .374-.353h2.096V6.75H17.21a.3.3 0 0 0-.3.3v.035c0 .213.163.392.376.411l.46.041-1.205 6.843a.748.748 0 0 1-.738.62H4.373l-1.244-3.075-.561.212 2.707 7.151Z" fill="#fff"/><path d="M21 20.071a12.23 12.23 0 0 0-3.743-.802 7.86 7.86 0 0 0-3.323.481 6.116 6.116 0 0 1-2.137.391 6.123 6.123 0 0 1-1.803-.272 7.841 7.841 0 0 0-3.346-.28c-1.26.144-2.49.484-3.646 1.006v.954a11.359 11.359 0 0 1 3.753-1.104 6.991 6.991 0 0 1 2.986.248 7.001 7.001 0 0 0 2.26.307 6.985 6.985 0 0 0 2.237-.443 6.987 6.987 0 0 1 2.966-.427c1.307.07 2.592.364 3.798.871l-.002-.93Z" fill="#fff"/><path fill-rule="evenodd" clip-rule="evenodd" d="M6.524 14.192a.489.489 0 1 1 .001-.977.489.489 0 0 1-.001.977Zm0-1.554a1.067 1.067 0 1 0 .001 2.133 1.067 1.067 0 0 0-.001-2.133ZM14.001 14.192a.488.488 0 1 1 0-.976.488.488 0 0 1 0 .976Zm0-1.554a1.067 1.067 0 1 0 0 2.135 1.067 1.067 0 0 0 0-2.135Z" fill="#fff"/></g><defs><clipPath id="a"><path fill="#fff" d="M0 0h24v24H0z"/></clipPath></defs></svg>