<svg class="color-immutable" width="30" height="30" viewBox="0 0 30 30" fill="none" xmlns="http://www.w3.org/2000/svg"><g clip-path="url(#a)"><path d="M30 0H0v30h30V0Z" fill="#2D327D"/><path d="M25.5 3c.825 0 1.5.675 1.5 1.5v21c0 .825-.675 1.5-1.5 1.5h-21c-.825 0-1.5-.675-1.5-1.5v-21C3 3.675 3.675 3 4.5 3h21Zm0-.375h-21A1.877 1.877 0 0 0 2.625 4.5v21c0 1.034.841 1.875 1.875 1.875h21a1.877 1.877 0 0 0 1.875-1.875v-21A1.877 1.877 0 0 0 25.5 2.625Z" fill="#fff"/><path d="M8.25 21.534A1.407 1.407 0 0 0 6 20.41v2.25a1.405 1.405 0 0 0 2.25-1.125ZM23.67 13.136l-2.25-2.25a1.125 1.125 0 0 0-.796-.33h-6.483c-.299 0-.585.119-.796.33L10.731 13.5l-4.387.364a.375.375 0 0 0-.344.373v2.338c0 .207.168.375.375.375h.412v-.431a2.25 2.25 0 0 1 4.5 0v.43h7.463v-.43a2.25 2.25 0 0 1 4.5 0v.43h.375a.375.375 0 0 0 .375-.374v-2.643c0-.299-.118-.585-.33-.796Zm-6.757.046a.375.375 0 0 1-.375.374h-4.26a.225.225 0 0 1-.159-.384l1.794-1.793c.07-.07.166-.11.265-.11h2.36c.207 0 .375.168.375.375v1.538Zm5.574.374h-4.485a.375.375 0 0 1-.375-.375v-1.537c0-.207.168-.375.375-.375h2.585c.1 0 .195.04.265.11l1.794 1.793a.225.225 0 0 1-.16.384ZM6 18.6h18v1.163H6V18.6ZM6 23.288h18V24H6v-.712ZM11.811 21.528a1.407 1.407 0 1 0-2.814.002 1.407 1.407 0 0 0 2.814-.002ZM19.081 21.528a1.406 1.406 0 1 0-2.813 0 1.406 1.406 0 0 0 2.813 0ZM22.688 21.528a1.406 1.406 0 1 0-2.813 0 1.406 1.406 0 0 0 2.813 0Z" fill="#fff"/><path d="M22.706 16.51a1.707 1.707 0 1 0-3.413.002 1.707 1.707 0 0 0 3.413-.001Zm-2.643 0a.938.938 0 1 1 1.875 0 .938.938 0 0 1-1.875 0ZM10.758 16.51a1.707 1.707 0 1 0-3.414.002 1.707 1.707 0 0 0 3.414-.001Zm-2.643 0a.938.938 0 1 1 1.875 0 .938.938 0 0 1-1.875 0Z" fill="#fff"/></g><defs><clipPath id="a"><path fill="#fff" d="M0 0h30v30H0z"/></clipPath></defs></svg>