<svg class="color-immutable" width="30" height="30" viewBox="0 0 30 30" fill="none" xmlns="http://www.w3.org/2000/svg"><g clip-path="url(#a)"><path d="M30 0H0v30h30V0Z" fill="#2D327D"/><path d="M25.5 3c.825 0 1.5.675 1.5 1.5v21c0 .825-.675 1.5-1.5 1.5h-21c-.825 0-1.5-.675-1.5-1.5v-21C3 3.675 3.675 3 4.5 3h21Zm0-.375h-21A1.877 1.877 0 0 0 2.625 4.5v21c0 1.034.841 1.875 1.875 1.875h21a1.877 1.877 0 0 0 1.875-1.875v-21A1.877 1.877 0 0 0 25.5 2.625Z" fill="#fff"/><path d="M21.42 16.736a1.125 1.125 0 0 0-.796-.33h-6.483c-.299 0-.585.119-.796.33l-2.614 2.613-4.387.365a.375.375 0 0 0-.344.373v2.338c0 .207.168.375.375.375h.412v-.431a2.25 2.25 0 0 1 4.5 0v.431h7.463v-.431a2.25 2.25 0 0 1 4.5 0v.431h.375a.375.375 0 0 0 .375-.375v-2.643c0-.299-.119-.585-.33-.796l-2.25-2.25Zm-4.505.758-.002 1.538a.375.375 0 0 1-.375.374h-4.26a.225.225 0 0 1-.159-.384l1.794-1.794c.07-.07.166-.11.265-.11h2.362c.207 0 .375.169.375.376Zm5.572 1.912h-4.485a.375.375 0 0 1-.375-.375v-1.537c0-.207.168-.375.375-.375h2.585c.1 0 .195.04.265.11l1.794 1.793a.225.225 0 0 1-.159.384Z" fill="#fff"/><path fill-rule="evenodd" clip-rule="evenodd" d="M21.017 23.336a.938.938 0 1 1 0-1.875.938.938 0 0 1 0 1.875Zm-.021-2.658a1.707 1.707 0 1 0 .001 3.415 1.707 1.707 0 0 0-.002-3.415ZM9.04 23.336a.938.938 0 1 1 0-1.875.938.938 0 0 1 0 1.875Zm-.001-2.644a1.707 1.707 0 1 0 .002 3.414 1.707 1.707 0 0 0-.002-3.414Z" fill="#fff"/></g><defs><clipPath id="a"><path fill="#fff" d="M0 0h30v30H0z"/></clipPath></defs></svg>