<svg class="color-immutable" width="24" height="24" viewBox="0 0 24 24" fill="none" xmlns="http://www.w3.org/2000/svg"><g clip-path="url(#a)"><path d="M-.001 22.499v-21c0-.825.675-1.5 1.5-1.5h21c.825 0 1.5.675 1.5 1.5v21c0 .825-.675 1.5-1.5 1.5h-21c-.825 0-1.5-.675-1.5-1.5Z" fill="#2D327D"/><path d="M20.625 3.374v1.5h-3.75v.375H21v-2.25H3v2.25h4.124v-.375H3.375v-1.5h17.25ZM13.034 7.686c-.219 0-.732 0-.732.377 0 .371.513.371.732.371.237 0 .75 0 .75-.371 0-.377-.513-.377-.75-.377ZM13.034 9.646c-.219 0-.732 0-.732.377 0 .371.513.371.732.371.237 0 .75 0 .75-.371 0-.377-.513-.377-.75-.377ZM10.214 13.535H8.25v.375h1.964v-.375Z" fill="#fff"/><path d="M15.75 13.91V4.124h-.375v9.411h-3.078v.375h3.453ZM10.214 14.285H9v.375h1.214v-.375Z" fill="#fff"/><path d="M16.5 4.124h-.375v10.161h-3.828v.375H16.5V4.124Z" fill="#fff"/><path d="M11.068 12.302a.754.754 0 0 1 .254-.049l.055-.001a.92.92 0 0 1 .919.908H15V4.124H7.5v9.036h2.768a1.31 1.31 0 0 1 .8-.858Zm3.025-.626h-1.362v.573h-.321c.006-.322-.096-.618-.417-.667v-.368h2.1v.462Zm-1.059-4.452c.837 0 1.101.384 1.101.839 0 .449-.264.833-1.101.833-.819 0-1.083-.384-1.083-.833.001-.455.265-.839 1.083-.839Zm0 1.96c.837 0 1.101.384 1.101.839 0 .449-.264.833-1.101.833-.819 0-1.083-.384-1.083-.833.001-.455.265-.839 1.083-.839Z" fill="#fff"/><path d="m3.173 18.383 2.617 2.616H12v-7.826a.623.623 0 0 0-.622-.624l-.045.001a.455.455 0 0 0-.16.031c-.397.146-.66.523-.66.945v2.19a.485.485 0 0 1-.483.485H8.767a.74.74 0 0 1-.525-.219L4.189 11.93a.69.69 0 0 0-.974.974l4.31 4.31-.236.236-3.852-3.852-.264.262a.597.597 0 0 0 0 .842l3.447 3.446-.237.236-2.945-2.945-.265.261a.6.6 0 0 0 0 .842l2.525 2.524-.236.237-2.025-2.023-.264.262a.597.597 0 0 0 0 .841Z" fill="#fff"/></g><defs><clipPath id="a"><path fill="#fff" d="M0 0h24v24H0z"/></clipPath></defs></svg>