<svg class="color-immutable" width="24" height="24" viewBox="0 0 24 24" fill="none" xmlns="http://www.w3.org/2000/svg"><g clip-path="url(#a)"><path d="M0 22.5v-21C0 .675.675 0 1.5 0h21c.825 0 1.5.675 1.5 1.5v21c0 .825-.675 1.5-1.5 1.5h-21C.675 24 0 23.325 0 22.5Z" fill="#2D327D"/><path d="m20.562 10.089-13.158 4.79a.97.97 0 0 1-.746-.033l-1.357-.632.639 1.756c.113.31.459.471.769.358l13.673-4.977a.602.602 0 0 0 .359-.769l-.179-.493Z" fill="#fff"/><path d="m2.949 12.112.174.478c.052.144.16.269.31.339l3.383 1.577a.597.597 0 0 0 .459.02l13.298-4.841a.602.602 0 0 0 .359-.769l-1.077-2.959-16.906 6.155ZM14.928 16.125h.656l-.853-2.343-2.115.769.918 2.523a1.5 1.5 0 0 1 1.394-.949Z" fill="#fff"/><path d="M14.928 16.5a1.125 1.125 0 0 0 0 2.25H21V16.5h-6.072Zm0 1.872a.75.75 0 1 1 0-1.5.75.75 0 0 1 0 1.5ZM5.088 3l-.747 2.249h-.558L3.046 3h.514l.506 1.684L4.579 3h.509ZM5.724 3v.401h-.446V3h.446Zm0 .572v1.677h-.446V3.572h.446ZM7.665 3v2.249h-.426v-.22c-.1.177-.262.266-.491.266a.66.66 0 0 1-.543-.251c-.131-.163-.197-.378-.197-.644 0-.251.058-.455.174-.611a.64.64 0 0 1 .54-.271c.224 0 .389.086.498.257V3h.445Zm-.826.884a.333.333 0 0 0-.275.129c-.071.09-.106.217-.106.381 0 .16.035.287.105.381.067.09.16.135.285.135a.338.338 0 0 0 .286-.134c.066-.087.1-.213.1-.375 0-.169-.036-.298-.108-.388a.35.35 0 0 0-.287-.129ZM9.52 4.726a.77.77 0 0 1-.128.266c-.148.202-.36.303-.637.303-.25 0-.451-.079-.601-.237a.775.775 0 0 1-.169-.278 1.059 1.059 0 0 1-.064-.363c0-.244.07-.449.211-.615a.76.76 0 0 1 .609-.278.754.754 0 0 1 .735.516c.046.131.069.295.069.493h-1.17c.004.082.017.15.038.205.06.147.175.22.345.22a.343.343 0 0 0 .203-.055.39.39 0 0 0 .129-.177h.43Zm-.43-.494a.526.526 0 0 0-.055-.201.337.337 0 0 0-.295-.171.328.328 0 0 0-.246.1.446.446 0 0 0-.116.272h.712ZM10.618 3.523a.79.79 0 0 1 .598.243c.153.16.229.373.229.64 0 .276-.082.496-.245.66a.807.807 0 0 1-.597.229c-.261 0-.47-.085-.624-.255-.147-.163-.221-.373-.221-.631 0-.254.072-.461.215-.62.159-.177.374-.266.645-.266Zm-.023.348a.33.33 0 0 0-.281.143.652.652 0 0 0-.106.395c0 .173.035.306.105.398.072.093.17.14.294.14a.332.332 0 0 0 .275-.128c.077-.094.115-.231.115-.411 0-.168-.034-.299-.102-.392a.35.35 0 0 0-.3-.145Z" fill="#fff"/></g><defs><clipPath id="a"><path fill="#fff" d="M0 0h24v24H0z"/></clipPath></defs></svg>