<svg class="color-immutable" width="30" height="30" viewBox="0 0 30 30" fill="none" xmlns="http://www.w3.org/2000/svg"><g clip-path="url(#a)"><path d="M30 0H0v30h30V0Z" fill="#2D327D"/><path d="M25.5 3c.825 0 1.5.675 1.5 1.5v21c0 .825-.675 1.5-1.5 1.5h-21c-.825 0-1.5-.675-1.5-1.5v-21C3 3.675 3.675 3 4.5 3h21Zm0-.375h-21A1.877 1.877 0 0 0 2.625 4.5v21c0 1.034.841 1.875 1.875 1.875h21a1.877 1.877 0 0 0 1.875-1.875v-21A1.877 1.877 0 0 0 25.5 2.625Z" fill="#fff"/><path d="M18.788 8.132 6 6v.684l12.788 2.132v-.684ZM20.588 8.432v.684L24 9.685V9l-3.412-.568ZM22.276 20.026v-3.71a1.126 1.126 0 0 0-2.043-.65l-1.86 2.622a.507.507 0 0 0 .826.586l.752-1.06v1.574H17.89a.75.75 0 0 0-.75.75v3.169a.693.693 0 1 0 1.386 0v-2.531h3c.414 0 .75-.337.75-.75Z" fill="#fff"/><path d="M20.176 7.5h-.975v3.931l3.824.638v9.456h-3.824v.975H24V11.243l-3.825-.637V7.5Z" fill="#fff"/><path d="M21.014 14.778a1.05 1.05 0 1 0-.001-2.101 1.05 1.05 0 0 0 0 2.1Z" fill="#fff"/></g><defs><clipPath id="a"><path fill="#fff" d="M0 0h30v30H0z"/></clipPath></defs></svg>