<svg class="color-immutable" width="24" height="24" viewBox="0 0 24 24" fill="none" xmlns="http://www.w3.org/2000/svg"><g clip-path="url(#a)"><path d="M0 22.5v-21C0 .675.675 0 1.5 0h21c.825 0 1.5.675 1.5 1.5v21c0 .825-.675 1.5-1.5 1.5h-21C.675 24 0 23.325 0 22.5Z" fill="#2D327D"/><path d="M8.212 5.132 21 3v.684L8.212 5.816v-.684ZM6.411 5.432v.684L3 6.685V6l3.411-.568ZM4.725 17.026v-3.709a1.126 1.126 0 0 1 2.043-.649l1.859 2.622a.507.507 0 0 1-.825.586l-.752-1.059v1.573h2.062a.75.75 0 0 1 .751.75v3.169a.694.694 0 0 1-1.388-.003v-2.531h-3a.75.75 0 0 1-.75-.749Z" fill="#fff"/><path d="M6.824 4.5h.975v3.931l-3.824.638v9.456h3.824v.975H3V8.243l3.824-.637V4.5Z" fill="#fff"/><path d="M5.986 11.778a1.05 1.05 0 1 1 .001-2.101 1.05 1.05 0 0 1-.001 2.101Z" fill="#fff"/></g><defs><clipPath id="a"><path fill="#fff" d="M0 0h24v24H0z"/></clipPath></defs></svg>