<svg class="color-immutable" width="30" height="30" viewBox="0 0 30 30" fill="none" xmlns="http://www.w3.org/2000/svg"><path d="M30 0H0v30h30V0Z" fill="#2D327D"/><path d="M25.5 3c.825 0 1.5.675 1.5 1.5v21c0 .825-.675 1.5-1.5 1.5h-21c-.825 0-1.5-.675-1.5-1.5v-21C3 3.675 3.675 3 4.5 3h21Zm0-.375h-21A1.877 1.877 0 0 0 2.625 4.5v21c0 1.034.841 1.875 1.875 1.875h21a1.877 1.877 0 0 0 1.875-1.875v-21A1.877 1.877 0 0 0 25.5 2.625Z" fill="#fff"/><path d="M13.406 19.368a1.746 1.746 0 0 1 1.22-.515v-.784l-3.774 1.592c.18.28.277.604.278.945h1.761c.002-.468.184-.907.515-1.238ZM10.615 19.368l.012.012 1.888-.796-3.14-.902v1.171c.468 0 .909.184 1.24.515ZM14.625 17.694v-.576h-5.25v.204l3.647 1.048 1.603-.676Z" fill="#fff"/><path d="M15.586 20.418h.002l-1.093-1.256c-.331.034-.639.18-.877.418a1.446 1.446 0 0 0-.423.945l.515.592-1.255 1.496c-.288.343-.225.869.14 1.175.365.306.893.277 1.181-.066l1.86-2.217c.263-.312.233-.775-.05-1.087ZM9.505 19.162l-1.093 1.256h.001c-.282.312-.312.775-.05 1.087l1.86 2.217c.288.343.817.372 1.182.066s.428-.832.14-1.174l-1.256-1.497.515-.592a1.446 1.446 0 0 0-.422-.945 1.447 1.447 0 0 0-.877-.418ZM17.25 13.175H6.75a.75.75 0 1 0 0 1.5h3v2.106h4.5v-2.106h3a.75.75 0 1 0 0-1.5ZM12 12.8a2.25 2.25 0 1 0 0-4.5 2.25 2.25 0 0 0 0 4.5Z" fill="#fff"/></svg>