<svg class="color-immutable" width="24" height="24" viewBox="0 0 24 24" fill="none" xmlns="http://www.w3.org/2000/svg"><g clip-path="url(#a)"><path d="M0 22.5v-21C0 .675.675 0 1.5 0h21c.825 0 1.5.675 1.5 1.5v21c0 .825-.675 1.5-1.5 1.5h-21C.675 24 0 23.325 0 22.5Z" fill="#2D327D"/><path d="M10.406 16.368a1.75 1.75 0 0 1 1.219-.515v-.784l-3.774 1.592c.18.279.277.605.278.945H9.89c.003-.468.185-.907.516-1.238ZM7.615 16.368l.012.012 1.888-.796-3.14-.902v1.171c.468.001.909.184 1.24.515ZM11.625 14.694v-.576h-5.25v.204l3.647 1.048 1.603-.676Z" fill="#fff"/><path d="M12.587 17.418h.001l-1.092-1.256c-.331.035-.639.18-.877.419a1.447 1.447 0 0 0-.423.944l.515.592h.001l-1.256 1.497c-.287.343-.225.869.14 1.175.365.306.894.277 1.181-.066l1.861-2.217c.261-.313.231-.776-.051-1.088ZM6.505 16.162l-1.092 1.256h.001c-.283.312-.312.775-.05 1.087l1.861 2.217c.287.343.816.372 1.181.066.365-.306.428-.832.14-1.175L7.29 18.116h.001l.515-.592a1.453 1.453 0 0 0-1.301-1.362ZM14.25 10.175H3.75a.75.75 0 0 0 0 1.5h3v2.105h4.5v-2.105h3a.75.75 0 0 0 0-1.5ZM9 9.8a2.25 2.25 0 1 0 0-4.5 2.25 2.25 0 0 0 0 4.5Z" fill="#fff"/></g><defs><clipPath id="a"><path fill="#fff" d="M0 0h24v24H0z"/></clipPath></defs></svg>