<svg class="color-immutable" width="24" height="24" viewBox="0 0 24 24" fill="none" xmlns="http://www.w3.org/2000/svg"><path fill-rule="evenodd" clip-rule="evenodd" d="M22.5 0h-21C.675 0 0 .675 0 1.5v21c0 .825.675 1.5 1.5 1.5h21c.825 0 1.5-.675 1.5-1.5v-21c0-.825-.675-1.5-1.5-1.5Z" fill="#2D327D"/><path fill-rule="evenodd" clip-rule="evenodd" d="m20.25 17.063-2.235 1.68-2.235-1.523L21 11.25l-1.313-.75-8.182 3.803-4.823-3.293a3.549 3.549 0 0 0-2.992-.45c-.442.135-.75.547-.75 1.012 0 .21.06.413.18.586.3.457.69.847 1.14 1.155l9.315 6.352 5.175 1.343 2.438-3.248-.938-.698ZM5.213 4.38a1.038 1.038 0 0 1-.233.6c-.18.218-.443.323-.773.323-.352 0-.63-.128-.832-.375-.172-.218-.255-.48-.255-.803 0-.337.097-.615.3-.84.203-.225.465-.337.803-.337.307 0 .562.105.75.307.135.143.21.308.224.503H4.71a.482.482 0 0 0-.173-.293.526.526 0 0 0-.33-.105c-.21 0-.375.09-.48.27a.941.941 0 0 0-.12.503.97.97 0 0 0 .128.51.52.52 0 0 0 .472.262c.15 0 .263-.045.353-.127.09-.083.142-.218.165-.383l.488-.015ZM5.955 3v.803a.564.564 0 0 1 .51-.285c.225 0 .382.082.48.24.06.09.082.232.082.427V5.25h-.442v-.99c0-.12-.015-.21-.053-.255A.276.276 0 0 0 6.3 3.9c-.143 0-.24.06-.3.188a.634.634 0 0 0-.038.127c-.007.045-.007.12-.007.218v.825h-.443V3h.443ZM8.76 4.987a.712.712 0 0 0 .128-.262H8.46a.386.386 0 0 1-.127.172.34.34 0 0 1-.203.053c-.172 0-.285-.068-.345-.218a.697.697 0 0 1-.037-.202h1.17c0-.203-.015-.368-.068-.495a.836.836 0 0 0-.225-.33.746.746 0 0 0-.517-.188c-.248 0-.45.09-.608.278a.9.9 0 0 0-.21.615c0 .12.015.247.06.36a.869.869 0 0 0 .173.277c.15.158.352.24.6.24.277 0 .487-.097.637-.3Zm-.3-.765v.008-.008Zm0 0a.662.662 0 0 0-.052-.195.327.327 0 0 0-.12-.127.348.348 0 0 0-.173-.045c-.097 0-.18.03-.247.097a.405.405 0 0 0-.113.27h.704ZM10.74 4.605a.842.842 0 0 1-.165.42c-.143.18-.352.27-.615.27-.27 0-.488-.09-.638-.277a.909.909 0 0 1-.194-.593c0-.292.082-.517.255-.682a.811.811 0 0 1 .577-.218.81.81 0 0 1 .532.173c.135.112.218.27.233.465h-.435a.34.34 0 0 0-.112-.21.308.308 0 0 0-.218-.075.318.318 0 0 0-.285.142.677.677 0 0 0-.105.398c0 .15.03.27.082.36a.323.323 0 0 0 .3.165c.196 0 .316-.113.345-.338h.443ZM12.57 3.57l-.615.623.682 1.057h-.54l-.45-.742-.18.172v.57h-.442V3h.442v1.17l.57-.6h.533ZM13.553 4.207v.398h-.856v-.398h.856ZM14.393 3.405V3h-.443v.405h.443Zm0 1.845V3.57h-.443v1.68h.443ZM15.172 3.57v.232a.604.604 0 0 1 .143-.157.662.662 0 0 1 .398-.128c.135 0 .255.038.352.105a.435.435 0 0 1 .157.21c.03.083.045.203.045.36V5.25h-.442v-.96a.666.666 0 0 0-.03-.24.177.177 0 0 0-.09-.105.302.302 0 0 0-.165-.045.339.339 0 0 0-.188.052.265.265 0 0 0-.12.135.738.738 0 0 0-.044.3v.863h-.443V3.57h.428Z" fill="#fff"/></svg>