<svg class="color-immutable" width="24" height="24" viewBox="0 0 24 24" fill="none" xmlns="http://www.w3.org/2000/svg"><path fill-rule="evenodd" clip-rule="evenodd" d="M22.5 0h-21C.675 0 0 .675 0 1.5v21c0 .825.675 1.5 1.5 1.5h21c.825 0 1.5-.675 1.5-1.5v-21c0-.825-.675-1.5-1.5-1.5Z" fill="#2D327D"/><path fill-rule="evenodd" clip-rule="evenodd" d="M18.345 18.45v3.15H5.175c0-.968.157-1.883.472-2.753.315-.87.773-1.62 1.365-2.25.45-.48.975-.952 1.575-1.41.6-.457 1.808-1.297 3.616-2.535.877-.6 1.485-1.155 1.837-1.657.353-.503.525-1.088.525-1.755 0-.773-.232-1.403-.705-1.883s-1.087-.72-1.86-.72c-1.883 0-2.858 1.313-2.918 3.93H5.565v-.39c0-2.145.622-3.802 1.867-4.98 1.208-1.147 2.775-1.725 4.703-1.725 1.688 0 3.105.465 4.252 1.403 1.245 1.02 1.868 2.385 1.868 4.102 0 1.5-.495 2.798-1.485 3.878a6.97 6.97 0 0 1-.907.847c-.278.218-1.028.728-2.243 1.538-1.17.795-1.995 1.387-2.482 1.792-.488.398-.945.87-1.373 1.41l8.58.008Z" fill="#fff"/></svg>