<svg class="color-immutable" width="24" height="24" viewBox="0 0 24 24" fill="none" xmlns="http://www.w3.org/2000/svg"><path fill-rule="evenodd" clip-rule="evenodd" d="M22.5 0h-21C.675 0 0 .675 0 1.5v21c0 .825.675 1.5 1.5 1.5h21c.825 0 1.5-.675 1.5-1.5v-21c0-.825-.675-1.5-1.5-1.5Z" fill="#2D327D"/><path fill-rule="evenodd" clip-rule="evenodd" d="M14.58 3.6v18h-3.652V9.818H6.63V7.215c.9-.03 1.628-.127 2.19-.285a4.601 4.601 0 0 0 1.537-.757c.676-.51 1.133-1.365 1.366-2.58l2.857.007Z" fill="#fff"/></svg>