<svg class="color-immutable" width="30" height="30" viewBox="0 0 30 30" fill="none" xmlns="http://www.w3.org/2000/svg"><g clip-path="url(#a)"><path d="M30 0H0v30h30V0Z" fill="#2D327D"/><path d="M25.5 3c.825 0 1.5.675 1.5 1.5v21c0 .825-.675 1.5-1.5 1.5h-21c-.825 0-1.5-.675-1.5-1.5v-21C3 3.675 3.675 3 4.5 3h21Zm0-.375h-21A1.877 1.877 0 0 0 2.625 4.5v21c0 1.034.841 1.875 1.875 1.875h21a1.877 1.877 0 0 0 1.875-1.875v-21A1.877 1.877 0 0 0 25.5 2.625Z" fill="#fff"/><path d="m18.814 15 1.296 1.814a.75.75 0 0 1-1.22.872L16.97 15H15l1.395 8.373a.75.75 0 0 0 .74.627h4.73a.75.75 0 0 0 .74-.627L24 15h-5.186Z" fill="#fff"/><path d="M19.5 17.625a.375.375 0 0 1-.305-.157l-3.75-5.25a.375.375 0 0 1 .61-.436l3.75 5.25a.375.375 0 0 1-.305.593ZM18.547 14.625h5.07a.944.944 0 0 0-1.305-.749.875.875 0 0 0-.951-.71 1.165 1.165 0 0 0-2.276.18.986.986 0 0 0-1.062.546l.524.733ZM22.535 12.249a.73.73 0 1 0 0-1.458.73.73 0 0 0 0 1.458ZM20.349 9.702a.73.73 0 1 0 0-1.458.73.73 0 0 0 0 1.458ZM21.925 7.458a.73.73 0 1 0 0-1.458.73.73 0 0 0 0 1.458ZM7.656 23.04a.188.188 0 0 1 .372.046L7.914 24h1.649v-.938a.187.187 0 1 1 .374 0V24h1.65l-.115-.914a.188.188 0 0 1 .372-.047l.12.96H13.5l-.469-1.874H6.47L6 24h1.536l.12-.96ZM12.938 21.75l-.046-.182a.75.75 0 0 0-.727-.568h-4.83a.75.75 0 0 0-.727.568l-.045.182h6.375ZM10.174 20.625h-.75V6.375a.375.375 0 0 1 .75 0v14.25Z" fill="#fff"/></g><defs><clipPath id="a"><path fill="#fff" d="M0 0h30v30H0z"/></clipPath></defs></svg>