<svg class="color-immutable" width="30" height="30" viewBox="0 0 30 30" fill="none" xmlns="http://www.w3.org/2000/svg"><g clip-path="url(#a)"><path d="M30 0H0v30h30V0Z" fill="#2D327D"/><path d="M25.5 3c.825 0 1.5.675 1.5 1.5v21c0 .825-.675 1.5-1.5 1.5h-21c-.825 0-1.5-.675-1.5-1.5v-21C3 3.675 3.675 3 4.5 3h21Zm0-.375h-21A1.877 1.877 0 0 0 2.625 4.5v21c0 1.034.841 1.875 1.875 1.875h21a1.877 1.877 0 0 0 1.875-1.875v-21A1.877 1.877 0 0 0 25.5 2.625Z" fill="#fff"/><path d="M23.182 16.273 17.65 13.68a2.145 2.145 0 0 1-1.06-1.771v-1.713c0-.876-.717-1.594-1.594-1.594-.876 0-1.593.718-1.593 1.594v.067c0 .032.027.058.059.058h.765a.059.059 0 0 0 .06-.058v-.067a.71.71 0 0 1 1.42 0v5.184a.71.71 0 1 1-1.421 0V11.852a.06.06 0 0 0-.058-.059h-.766a.06.06 0 0 0-.059.06v.055a2.146 2.146 0 0 1-1.061 1.772l-5.546 2.593a1.449 1.449 0 0 0 .644 2.749h15.099a1.45 1.45 0 0 0 .643-2.749Zm-.05 1.299a.59.59 0 0 1-.589.588H7.449a.59.59 0 0 1-.589-.588.59.59 0 0 1 .589-.59h15.094a.59.59 0 0 1 .589.59Z" fill="#fff"/></g><defs><clipPath id="a"><path fill="#fff" d="M0 0h30v30H0z"/></clipPath></defs></svg>