<svg class="color-immutable" width="24" height="24" viewBox="0 0 24 24" fill="none" xmlns="http://www.w3.org/2000/svg"><g clip-path="url(#a)"><path d="M0 22.5v-21C0 .675.675 0 1.5 0h21c.825 0 1.5.675 1.5 1.5v21c0 .825-.675 1.5-1.5 1.5h-21C.675 24 0 23.325 0 22.5Z" fill="#2D327D"/><path d="m20.182 13.273-5.532-2.594a2.145 2.145 0 0 1-1.06-1.771V7.196c0-.876-.717-1.594-1.593-1.594-.877 0-1.593.717-1.593 1.594v.067a.06.06 0 0 0 .059.059h.765a.06.06 0 0 0 .059-.059v-.067a.71.71 0 0 1 1.42 0v5.184a.71.71 0 1 1-1.421 0l.001-.013V8.852a.06.06 0 0 0-.059-.059h-.766a.06.06 0 0 0-.059.059v.056l-.001.001a2.144 2.144 0 0 1-1.061 1.771l-5.545 2.594a1.45 1.45 0 0 0 .644 2.748h15.099a1.45 1.45 0 0 0 .643-2.749Zm-.05 1.299a.59.59 0 0 1-.589.589H4.449a.59.59 0 0 1-.589-.589.59.59 0 0 1 .589-.589h15.094a.59.59 0 0 1 .589.589Z" fill="#fff"/></g><defs><clipPath id="a"><path fill="#fff" d="M0 0h24v24H0z"/></clipPath></defs></svg>