<svg class="color-immutable" width="30" height="30" viewBox="0 0 30 30" fill="none" xmlns="http://www.w3.org/2000/svg"><g clip-path="url(#a)"><path d="M30 0H0v30h30V0Z" fill="#2D327D"/><path d="M25.5 3c.825 0 1.5.675 1.5 1.5v21c0 .825-.675 1.5-1.5 1.5h-21c-.825 0-1.5-.675-1.5-1.5v-21C3 3.675 3.675 3 4.5 3h21Zm0-.375h-21A1.877 1.877 0 0 0 2.625 4.5v21c0 1.034.841 1.875 1.875 1.875h21a1.877 1.877 0 0 0 1.875-1.875v-21A1.877 1.877 0 0 0 25.5 2.625Z" fill="#fff"/><path d="M6 6v.376L24 7.95v-.376L6 6ZM14.307 20.819l-3.772-.33a2.023 2.023 0 0 0 3.772.33ZM18.568 10.198l-3.937-2.753-4.356 2.028 2.073 1.687-4.707-.41a.977.977 0 0 0-1.056.886l-.64 7.321c-.002.011-.002.021-.002.032 0 .195.148.357.343.375L24 20.914v-4.292l-4.117-.36a.376.376 0 0 1-.342-.374v-.032l.263-2.99a.374.374 0 0 1 .373-.342c.011 0 .023 0 .033.002l3.79.332v-.678l-7.767-.68 2.335-1.302Zm-9.001 1.773-.261 2.989a.375.375 0 0 1-.374.342c-.01 0-.02 0-.032-.002l-1.606-.14h-.001a.376.376 0 0 1-.342-.374v-.032l.263-2.99a.375.375 0 0 1 .407-.34l1.605.141c.194.017.343.18.343.373 0 .012 0 .023-.002.033Zm1.822.272-.374 4.259a.562.562 0 0 1-1.122-.048c0-.017 0-.034.002-.05l.372-4.258a.563.563 0 0 1 1.122.097Zm1.793.157-.374 4.259a.561.561 0 0 1-1.122-.05c0-.016 0-.032.002-.048l.373-4.258a.562.562 0 0 1 1.122.05l-.001.047Zm-1.645-2.77 3.027-1.408 2.734 1.912-2.263 1.261-1.488-.13-2.01-1.635Zm7.253 2.772c.194.017.342.18.342.373v.033l-.263 2.988a.374.374 0 0 1-.373.343c-.011 0-.023 0-.033-.002l-4.52-.395a.375.375 0 0 1-.342-.374v-.032l.263-2.989a.374.374 0 0 1 .405-.34l4.521.395ZM18.791 21.21l-3.774-.33a2.023 2.023 0 0 0 3.774.33ZM6 22.425l18 1.576v-.641L6 21.785v.64Z" fill="#fff"/></g><defs><clipPath id="a"><path fill="#fff" d="M0 0h30v30H0z"/></clipPath></defs></svg>