<svg class="color-immutable" width="24" height="24" viewBox="0 0 24 24" fill="none" xmlns="http://www.w3.org/2000/svg"><g clip-path="url(#a)"><path d="M0 22.5v-21C0 .675.675 0 1.5 0h21c.825 0 1.5.675 1.5 1.5v21c0 .825-.675 1.5-1.5 1.5h-21C.675 24 0 23.325 0 22.5Z" fill="#2D327D"/><path d="M2.999 3v.376L21 4.951v-.376L2.999 3ZM11.308 17.819l-3.773-.331a2.022 2.022 0 0 0 3.773.331ZM15.568 7.198l-3.937-2.753-4.356 2.028L9.348 8.16l-4.707-.411a.977.977 0 0 0-1.057.885l-.64 7.322c-.002.011-.002.021-.002.032 0 .194.149.357.343.374L21 17.914v-4.293l-4.117-.359a.376.376 0 0 1-.342-.374l.001-.032.262-2.99a.374.374 0 0 1 .406-.34l3.79.332V9.18l-7.767-.68 2.335-1.302ZM6.567 8.971l-.261 2.989a.375.375 0 0 1-.373.343l-.033-.002-1.606-.14h-.001a.376.376 0 0 1-.342-.374l.001-.032.262-2.989a.374.374 0 0 1 .406-.342l1.605.141a.375.375 0 0 1 .344.373c0 .012 0 .023-.002.033Zm1.822.272-.373 4.259a.56.56 0 0 1-1.122-.049c0-.017 0-.033.002-.05l.372-4.258a.562.562 0 0 1 1.123.05l-.002.048Zm1.793.157-.373 4.259a.562.562 0 0 1-1.122-.049l.002-.049.374-4.258a.56.56 0 0 1 1.122.049l-.003.048ZM8.537 6.63l3.027-1.408 2.734 1.913-2.263 1.261-1.488-.13-2.01-1.636Zm7.253 2.772a.374.374 0 0 1 .342.373l-.001.033-.262 2.988a.374.374 0 0 1-.373.343c-.011 0-.022 0-.033-.002l-4.521-.395a.375.375 0 0 1-.342-.373l.001-.032.262-2.989a.374.374 0 0 1 .405-.341l4.522.395ZM15.791 18.21l-3.774-.33a2.023 2.023 0 0 0 3.774.33ZM2.999 19.425 21 21.001v-.641L2.999 18.785v.64Z" fill="#fff"/></g><defs><clipPath id="a"><path fill="#fff" d="M0 0h24v24H0z"/></clipPath></defs></svg>