<svg class="color-immutable" width="30" height="30" viewBox="0 0 30 30" fill="none" xmlns="http://www.w3.org/2000/svg"><path d="M30 0H0v30h30V0Z" fill="#2D327D"/><path d="M25.5 3c.825 0 1.5.675 1.5 1.5v21c0 .825-.675 1.5-1.5 1.5h-21c-.825 0-1.5-.675-1.5-1.5v-21C3 3.675 3.675 3 4.5 3h21Zm0-.375h-21A1.877 1.877 0 0 0 2.625 4.5v21c0 1.034.841 1.875 1.875 1.875h21a1.877 1.877 0 0 0 1.875-1.875v-21A1.877 1.877 0 0 0 25.5 2.625Z" fill="#fff"/><path d="M22.81 18.31c-.583-.583-1.464-.656-1.957-.163l-1.518 1.517-3.585-2.63V10.5a1.498 1.498 0 0 0-1.5-1.5h-3.375a.561.561 0 0 0-.46.24l-1.798 2.564-.145-.106a.375.375 0 1 0-.444.604l.158.116-.007.01a.563.563 0 0 0 .914.655l.793.582.417-.625-.78-.57 1.645-2.345h1.53l-2.696 4.043a1.5 1.5 0 0 0-.172.349l-.003.008-2.83 8.488a.75.75 0 0 0 1.423.474L10.916 16 12 19.61v3.64a.75.75 0 1 0 1.5 0v-3.738l-.001-.05v-.003a.715.715 0 0 0-.004-.046l-.003-.022-.004-.023-.002-.012a.645.645 0 0 0-.007-.033v-.002a.736.736 0 0 0-.014-.049l-1.013-3.375.046-.065 2.127-3.19v3.568l-1.295-.95-.416.625 1.71 1.255v.485a.563.563 0 0 0 1.049.283l3.105 2.277c-.123.093-.257.18-.363.233l-.83.414a1.894 1.894 0 0 0-.56.468L15 24h9v-4.5l-1.19-1.19ZM16.5 9.75a1.5 1.5 0 1 0 0-3 1.5 1.5 0 0 0 0 3Z" fill="#fff"/></svg>