<svg class="color-immutable" width="24" height="24" viewBox="0 0 24 24" fill="none" xmlns="http://www.w3.org/2000/svg"><g clip-path="url(#a)"><path d="M0 22.5v-21C0 .675.675 0 1.5 0h21c.825 0 1.5.675 1.5 1.5v21c0 .825-.675 1.5-1.5 1.5h-21C.675 24 0 23.325 0 22.5Z" fill="#2D327D"/><path d="M21 12.488V11.25l-9-4.125-9 4.125v1.238l9-4.125 9 4.125Z" fill="#fff"/><path d="M9.038 11.325h3.904c.657 0 1.175.041 1.552.122.377.082.718.226 1.022.433.843.565 1.264 1.416 1.264 2.554 0 1.01-.349 1.804-1.046 2.382a2.728 2.728 0 0 1-1.012.533c-.379.108-.847.162-1.403.162h-2.171V21h-2.11v-9.675Zm2.111 1.787v2.74h1.886c.56 0 .964-.099 1.211-.298.304-.247.457-.611.457-1.092 0-.485-.177-.847-.529-1.085-.256-.176-.673-.265-1.251-.265h-1.774Z" fill="#fff"/></g><defs><clipPath id="a"><path fill="#fff" d="M0 0h24v24H0z"/></clipPath></defs></svg>