<svg class="color-immutable" width="30" height="30" viewBox="0 0 30 30" fill="none" xmlns="http://www.w3.org/2000/svg"><g clip-path="url(#a)"><path d="M30 0H0v30h30V0Z" fill="#2D327D"/><path d="M25.5 3c.825 0 1.5.675 1.5 1.5v21c0 .825-.675 1.5-1.5 1.5h-21c-.825 0-1.5-.675-1.5-1.5v-21C3 3.675 3.675 3 4.5 3h21Zm0-.375h-21A1.877 1.877 0 0 0 2.625 4.5v21c0 1.034.841 1.875 1.875 1.875h21a1.877 1.877 0 0 0 1.875-1.875v-21A1.877 1.877 0 0 0 25.5 2.625Z" fill="#fff"/><path d="M24 15.488V14.25l-9-4.125-9 4.125v1.238l9-4.125 9 4.125ZM19.243 17.438v-.001Z" fill="#fff"/><path d="M12.037 14.325h3.905c.657 0 1.175.04 1.552.122a2.88 2.88 0 0 1 1.022.434c.843.565 1.264 1.416 1.264 2.554 0 1.01-.348 1.805-1.045 2.383a2.722 2.722 0 0 1-1.013.532c-.38.108-.847.162-1.403.162h-2.17V24h-2.111v-9.675Zm2.112 1.787v2.74h1.886c.56 0 .963-.1 1.21-.298.305-.247.457-.611.457-1.092 0-.485-.176-.847-.53-1.085-.255-.177-.672-.265-1.25-.265H14.15Z" fill="#fff"/></g><defs><clipPath id="a"><path fill="#fff" d="M0 0h30v30H0z"/></clipPath></defs></svg>