<svg class="color-immutable" width="24" height="24" viewBox="0 0 24 24" fill="none" xmlns="http://www.w3.org/2000/svg"><g clip-path="url(#a)"><path d="M-.001 22.499v-21c0-.825.675-1.5 1.5-1.5h21c.825 0 1.5.675 1.5 1.5v21c0 .825-.675 1.5-1.5 1.5h-21c-.825 0-1.5-.675-1.5-1.5Z" fill="#2D327D"/><path d="M2.999 2.999v9h1.585c.093-.408.258-.788.484-1.125h-.944v-6.75h15.75v6.75H10.68c.226.337.391.717.484 1.125h9.835v-9h-18Z" fill="#fff"/><path d="M11.974 4.874a2.625 2.625 0 1 0 0 5.25 2.625 2.625 0 0 0 0-5.25Zm-.855 3.231c-.122.144-.294.216-.517.216a.667.667 0 0 1-.554-.251.84.84 0 0 1-.168-.535c0-.224.067-.411.201-.561a.684.684 0 0 1 .534-.224c.207 0 .374.068.5.205.09.096.14.207.15.333h-.323a.326.326 0 0 0-.114-.196.344.344 0 0 0-.22-.069.347.347 0 0 0-.319.179.653.653 0 0 0-.079.334c0 .135.028.248.083.338.07.115.175.173.313.173a.319.319 0 0 0 .235-.087.423.423 0 0 0 .108-.254h.326a.674.674 0 0 1-.156.399Zm1.639.181h-.327v-.654h-.613v.653h-.327V6.786h.327v.569h.613v-.569h.327v1.5Zm1.251-.875v.257h-.634v.617h-.327V6.786h1.055v.277h-.728v.348h.634ZM7.892 10.124a2.625 2.625 0 1 0 0 5.25 2.625 2.625 0 0 0 0-5.25Zm.638 1.925a1.812 1.812 0 0 0-.354-.203.812.812 0 0 0-.3-.057c-.276 0-.472.198-.589.593h1.116l-.117.332H7.228l-.002.094.002.09h.978l-.125.332h-.785c.122.365.316.548.584.548a.868.868 0 0 0 .262-.04c.086-.027.213-.08.381-.161v.578c-.313.093-.539.139-.679.139a1.13 1.13 0 0 1-.695-.242c-.239-.179-.401-.453-.484-.822h-.387l.121-.332h.213a2.73 2.73 0 0 1-.004-.125v-.059h-.33l.121-.332h.254c.056-.242.153-.455.291-.64.231-.31.556-.466.976-.466a1.2 1.2 0 0 1 .543.115c.06.03.148.083.262.158l-.195.5ZM11.999 15.749a2.625 2.625 0 1 0 0 5.25 2.625 2.625 0 0 0 0-5.25Zm.918 4.11a1.04 1.04 0 0 1-.379.069c-.079 0-.148-.005-.205-.016a4.381 4.381 0 0 1-.306-.08 1.46 1.46 0 0 0-.381-.066.61.61 0 0 0-.213.036 1.182 1.182 0 0 0-.236.128l-.258-.383c.137-.097.235-.183.295-.256a.652.652 0 0 0 .164-.41.733.733 0 0 0-.041-.232h-.435V18.3h.287a2.208 2.208 0 0 0-.062-.139 1.605 1.605 0 0 1-.092-.248.898.898 0 0 1-.025-.217c0-.209.077-.386.23-.529.19-.176.455-.265.794-.265.332 0 .59.083.772.248.183.165.276.401.282.705h-.589c-.003-.139-.036-.245-.098-.316-.082-.093-.2-.139-.355-.139a.423.423 0 0 0-.281.093.296.296 0 0 0-.111.237c0 .081.023.177.07.289.048.118.084.211.109.281h.543v.349h-.431a.947.947 0 0 1 .018.18c0 .1-.026.193-.079.279a1.34 1.34 0 0 1-.272.295.928.928 0 0 1 .377-.088c.079 0 .176.015.291.045.123.033.213.049.269.049a.514.514 0 0 0 .39-.174l.252.433a.793.793 0 0 1-.294.191ZM18.769 15.753a1.669 1.669 0 0 0-.265-.096v.806c.288-.036.433-.169.433-.402a.33.33 0 0 0-.168-.308ZM17.864 14.69c0 .097.029.172.086.225.057.053.159.097.306.132v-.714c-.261.024-.392.143-.392.357Z" fill="#fff"/><path d="M18.374 12.749a2.625 2.625 0 1 0 0 5.25 2.625 2.625 0 0 0 0-5.25Zm.91 3.85a.925.925 0 0 1-.327.231 1.41 1.41 0 0 1-.452.087v.416h-.248v-.418c-.288-.016-.514-.09-.677-.219-.227-.182-.342-.438-.345-.769h.582c-.003.325.144.504.439.535v-.867c-.273-.077-.462-.145-.566-.205a.77.77 0 0 1-.291-.272.733.733 0 0 1-.092-.38.78.78 0 0 1 .129-.442.838.838 0 0 1 .367-.3 1.33 1.33 0 0 1 .453-.094v-.369h.248v.369c.291.015.515.096.672.243.157.147.238.352.243.614h-.556c-.005-.249-.125-.388-.359-.418v.765l.162.041c.294.077.502.17.623.281.15.138.226.326.226.564 0 .24-.077.443-.231.607Z" fill="#fff"/></g><defs><clipPath id="a"><path fill="#fff" d="M0 0h24v24H0z"/></clipPath></defs></svg>