<svg class="color-immutable" width="24" height="24" viewBox="0 0 24 24" fill="none" xmlns="http://www.w3.org/2000/svg"><g clip-path="url(#a)"><path d="M0 22.5v-21C0 .675.675 0 1.5 0h21c.825 0 1.5.675 1.5 1.5v21c0 .825-.675 1.5-1.5 1.5h-21C.675 24 0 23.325 0 22.5Z" fill="#2D327D"/><path d="M18.749 7.5h-4.011v-.9c0-.745-.606-1.35-1.351-1.35h-2.775a1.35 1.35 0 0 0-1.35 1.35v.9H5.25a2.251 2.251 0 0 0-2.251 2.25v9A2.252 2.252 0 0 0 5.25 21h13.499A2.25 2.25 0 0 0 21 18.75v-9a2.25 2.25 0 0 0-2.251-2.25Zm-5.061 0h-3.376V6.3h3.376v1.2Z" fill="#fff"/><path d="M9.772 8.925c-2.919 0-5.287 2.292-5.287 5.211 0 2.919 2.368 5.364 5.287 5.364s5.288-2.445 5.288-5.364-2.369-5.211-5.288-5.211Zm0 9.17a3.79 3.79 0 0 1-3.788-3.788 3.79 3.79 0 0 1 3.788-3.787 3.789 3.789 0 0 1 3.787 3.787 3.79 3.79 0 0 1-3.787 3.788Z" fill="#EB0000"/><path d="M7.725 14.85h4.125a.563.563 0 1 0 0-1.126H7.725a.562.562 0 0 0 0 1.126ZM7.163 12.307h.423c.079 0 .146.009.202.027a.392.392 0 0 1 .148.086.512.512 0 0 1 .157.397c0 .179-.049.318-.148.416a.383.383 0 0 1-.147.093.663.663 0 0 1-.207.028h-.428v-1.047Zm.229.193v.659h.176a.41.41 0 0 0 .129-.016.202.202 0 0 0 .084-.055c.055-.06.083-.148.083-.264 0-.107-.026-.188-.077-.242-.052-.054-.128-.082-.228-.082h-.167ZM8.604 12.55a.37.37 0 0 1 .278.113.414.414 0 0 1 .107.298c0 .128-.038.23-.114.307a.377.377 0 0 1-.278.107.373.373 0 0 1-.29-.119.416.416 0 0 1-.103-.293c0-.118.033-.214.1-.288a.382.382 0 0 1 .3-.125Zm-.01.162a.153.153 0 0 0-.131.067.304.304 0 0 0-.049.184c0 .081.016.142.049.185a.164.164 0 0 0 .137.065c.054 0 .097-.02.128-.059a.296.296 0 0 0 .054-.191.308.308 0 0 0-.047-.182.164.164 0 0 0-.141-.069ZM9.853 12.572v.688c0 .061-.004.11-.011.146a.336.336 0 0 1-.039.1c-.06.095-.168.143-.323.143-.216 0-.335-.082-.355-.245h.209c.014.065.065.098.151.098.066 0 .112-.019.138-.056a.261.261 0 0 0 .031-.143l.001-.097a.26.26 0 0 1-.232.123.29.29 0 0 1-.234-.103.422.422 0 0 1-.089-.282c0-.118.03-.213.089-.285a.3.3 0 0 1 .242-.111c.052 0 .095.01.13.029.035.02.067.052.096.098v-.104h.196v.001Zm-.377.147a.145.145 0 0 0-.132.073.281.281 0 0 0-.036.149c0 .076.018.134.053.174.031.035.07.053.119.053a.151.151 0 0 0 .139-.078.292.292 0 0 0 .036-.152c0-.073-.018-.13-.055-.17a.158.158 0 0 0-.124-.049ZM10.726 13.353h-.212a.293.293 0 0 1-.014-.078.338.338 0 0 1-.251.099.284.284 0 0 1-.187-.056.223.223 0 0 1-.077-.18c0-.098.044-.165.132-.203a.908.908 0 0 1 .197-.042.652.652 0 0 0 .154-.032c.02-.01.03-.031.03-.062 0-.068-.045-.102-.136-.102-.048 0-.083.009-.105.026-.022.017-.037.047-.044.089h-.196a.252.252 0 0 1 .098-.196.415.415 0 0 1 .252-.066c.121 0 .21.025.267.074a.165.165 0 0 1 .053.074.418.418 0 0 1 .013.124l-.002.157-.001.162c0 .057.002.098.005.125a.526.526 0 0 0 .024.087Zm-.228-.377a.387.387 0 0 1-.146.039.357.357 0 0 0-.107.029c-.031.017-.046.045-.046.085 0 .032.01.058.031.076.02.018.049.027.086.027.061 0 .11-.021.148-.064a.133.133 0 0 0 .028-.046.215.215 0 0 0 .008-.063v-.083h-.002ZM11.058 12.574v.109a.292.292 0 0 1 .254-.134c.064 0 .118.016.162.049.035.026.06.058.074.098a.515.515 0 0 1 .021.166v.491h-.207v-.447a.33.33 0 0 0-.013-.11.098.098 0 0 0-.041-.049.17.17 0 0 0-.163.004.137.137 0 0 0-.057.062.343.343 0 0 0-.021.138v.402h-.207v-.779h.198ZM12.435 13.353h-.212a.293.293 0 0 1-.014-.078.338.338 0 0 1-.251.099.284.284 0 0 1-.187-.056.223.223 0 0 1-.077-.18c0-.098.044-.165.132-.203a.908.908 0 0 1 .197-.042.652.652 0 0 0 .154-.032c.02-.01.03-.031.03-.062 0-.068-.045-.102-.136-.102-.048 0-.083.009-.105.026-.022.017-.037.047-.044.089h-.196a.252.252 0 0 1 .098-.196.415.415 0 0 1 .252-.066c.121 0 .21.025.267.074a.165.165 0 0 1 .053.074.418.418 0 0 1 .013.124l-.002.157-.001.162c0 .057.002.098.005.125a.647.647 0 0 0 .024.087Zm-.228-.377a.387.387 0 0 1-.146.039.357.357 0 0 0-.107.029c-.031.017-.046.045-.046.085 0 .032.01.058.031.076.02.018.049.027.086.027.061 0 .11-.021.148-.064a.133.133 0 0 0 .028-.046.215.215 0 0 0 .008-.063v-.083h-.002Z" fill="#000"/></g><defs><clipPath id="a"><path fill="#fff" d="M0 0h24v24H0z"/></clipPath></defs></svg>