<svg class="color-immutable" width="30" height="30" viewBox="0 0 30 30" fill="none" xmlns="http://www.w3.org/2000/svg"><path d="M30 0H0v30h30V0Z" fill="#2D327D"/><path d="M25.5 3c.825 0 1.5.675 1.5 1.5v21c0 .825-.675 1.5-1.5 1.5h-21c-.825 0-1.5-.675-1.5-1.5v-21C3 3.675 3.675 3 4.5 3h21Zm0-.375h-21A1.877 1.877 0 0 0 2.625 4.5v21c0 1.034.841 1.875 1.875 1.875h21a1.877 1.877 0 0 0 1.875-1.875v-21A1.877 1.877 0 0 0 25.5 2.625Z" fill="#fff"/><path d="M21.75 10.5h-4.012v-.9c0-.745-.606-1.35-1.35-1.35h-2.776a1.35 1.35 0 0 0-1.35 1.35v.9H8.25A2.251 2.251 0 0 0 6 12.75v9A2.251 2.251 0 0 0 8.25 24h13.5A2.25 2.25 0 0 0 24 21.75v-9a2.25 2.25 0 0 0-2.25-2.25Zm-5.062 0h-3.376V9.3h3.376v1.2Z" fill="#fff"/><path d="M12.772 11.925c-2.92 0-5.287 2.292-5.287 5.21 0 2.92 2.368 5.365 5.287 5.365s5.287-2.445 5.287-5.364c0-2.92-2.368-5.211-5.287-5.211Zm0 9.17a3.79 3.79 0 0 1-3.788-3.788 3.79 3.79 0 0 1 3.788-3.788 3.79 3.79 0 0 1 3.787 3.788 3.79 3.79 0 0 1-3.787 3.788Z" fill="#EB0000"/><path d="M10.725 17.85h4.125a.563.563 0 1 0 0-1.125h-4.125a.562.562 0 0 0 0 1.125ZM10.163 15.307h.423c.079 0 .146.01.202.027a.4.4 0 0 1 .149.086.51.51 0 0 1 .156.397c0 .18-.05.318-.148.416a.375.375 0 0 1-.147.092.66.66 0 0 1-.207.028h-.428v-1.046Zm.229.193v.66h.175a.417.417 0 0 0 .13-.017.198.198 0 0 0 .083-.054c.055-.06.083-.148.083-.264 0-.107-.026-.188-.077-.243-.051-.054-.127-.082-.227-.082h-.167ZM11.604 15.55c.114 0 .207.038.279.113a.413.413 0 0 1 .106.298c0 .128-.038.23-.114.306a.375.375 0 0 1-.277.107.373.373 0 0 1-.29-.119.418.418 0 0 1-.103-.293c0-.118.033-.214.1-.288a.382.382 0 0 1 .3-.124Zm-.01.162a.154.154 0 0 0-.131.066.305.305 0 0 0-.05.184c0 .08.017.143.05.186a.163.163 0 0 0 .136.064c.053 0 .096-.02.128-.059a.296.296 0 0 0 .053-.19.307.307 0 0 0-.047-.183.162.162 0 0 0-.14-.068ZM12.834 15.572v.78h-.198v-.113a.284.284 0 0 1-.25.135c-.093 0-.164-.031-.212-.094a.231.231 0 0 1-.039-.085.57.57 0 0 1-.011-.13v-.493h.207v.43c0 .044.001.076.004.095a.12.12 0 0 0 .016.047c.022.035.06.052.112.052a.149.149 0 0 0 .143-.087.372.372 0 0 0 .021-.152v-.385h.207ZM13.7 16.353h-.212a.28.28 0 0 1-.014-.078.336.336 0 0 1-.251.1.286.286 0 0 1-.188-.057.22.22 0 0 1-.077-.18c0-.097.044-.165.133-.202a.867.867 0 0 1 .197-.043.632.632 0 0 0 .154-.031c.02-.01.03-.031.03-.062 0-.068-.045-.102-.136-.102-.048 0-.083.008-.105.025-.022.018-.037.047-.044.09h-.196a.253.253 0 0 1 .098-.197.416.416 0 0 1 .252-.066c.121 0 .21.025.268.074a.17.17 0 0 1 .053.073.425.425 0 0 1 .013.125 16.907 16.907 0 0 1-.003.319c0 .057.002.098.005.125.003.026.01.055.022.087Zm-.229-.377a.402.402 0 0 1-.146.039.35.35 0 0 0-.107.03c-.031.016-.047.044-.047.084 0 .033.01.058.031.076.02.018.05.028.086.028.061 0 .11-.022.148-.065a.126.126 0 0 0 .027-.046.22.22 0 0 0 .008-.063v-.083ZM14.031 15.574v.11a.294.294 0 0 1 .254-.134c.064 0 .118.016.162.048.036.026.06.058.074.098.014.04.021.095.021.166v.49h-.206v-.446a.344.344 0 0 0-.013-.11.098.098 0 0 0-.042-.05.166.166 0 0 0-.162.004.141.141 0 0 0-.057.063.345.345 0 0 0-.02.138v.402h-.208v-.78h.197ZM15.407 16.11a.348.348 0 0 1-.06.123.344.344 0 0 1-.295.141.369.369 0 0 1-.28-.11.36.36 0 0 1-.079-.13.49.49 0 0 1-.029-.168c0-.114.033-.21.098-.286a.354.354 0 0 1 .283-.13.35.35 0 0 1 .342.24c.021.06.032.137.032.23h-.544c.002.038.008.07.018.095.028.068.081.102.16.102.039 0 .07-.009.095-.026a.182.182 0 0 0 .06-.082h.2Zm-.2-.23a.251.251 0 0 0-.025-.094.157.157 0 0 0-.137-.08.153.153 0 0 0-.115.047.208.208 0 0 0-.053.127h.33Z" fill="#000"/></svg>