<svg class="color-immutable" width="24" height="24" viewBox="0 0 24 24" fill="none" xmlns="http://www.w3.org/2000/svg"><g clip-path="url(#a)"><path d="M0 22.5v-21C0 .675.675 0 1.5 0h21c.825 0 1.5.675 1.5 1.5v21c0 .825-.675 1.5-1.5 1.5h-21C.675 24 0 23.325 0 22.5Z" fill="#2D327D"/><path d="m10.015 11.795-1.811.633a.374.374 0 0 1-.435-.145l-.406-.603a.3.3 0 0 1 .249-.468h2.304a.3.3 0 0 1 .099.583ZM16.351 11.812h-2.626v-.6h2.626a.3.3 0 0 1 0 .6ZM16.35 12.787h-.375a.3.3 0 0 1 0-.6h.375a.3.3 0 0 1 0 .6Z" fill="#fff"/><path d="m21.05 19.973-.645-.645a3.676 3.676 0 0 0-4.76-5.272l-.72-1.156h-.948L3.708 2.631l-1.06 1.061 9.208 9.208h-2.78l-.72 1.156A3.676 3.676 0 1 0 6.675 21a3.674 3.674 0 0 0 3.659-3.338h.782a.975.975 0 1 0 1.649-1.014l1.141-1.696.35.35a3.676 3.676 0 0 0 5.09 5.09l.642.642 1.062-1.061Zm-5.087-5.406a3.078 3.078 0 0 1 4.438 2.757c0 .573-.157 1.109-.431 1.568l-3.482-3.482-.525-.843ZM6.675 20.4a3.076 3.076 0 1 1 1.363-5.832l-1.343 2.158-.019-.001a.6.6 0 1 0 .496.938h2.561A3.078 3.078 0 0 1 6.675 20.4Zm.517-3.338 1.355-2.177a3.078 3.078 0 0 1 1.192 2.177H7.192Zm3.851 0h-.702a3.68 3.68 0 0 0-1.476-2.69l.404-.648 1.965 2.923a.973.973 0 0 0-.191.415Zm1.226-.75a.967.967 0 0 0-.536 0L9.84 13.5h2.615l1.019 1.019-1.205 1.793Zm5.056 4.088a3.077 3.077 0 0 1-2.632-4.663l4.221 4.221a3.067 3.067 0 0 1-1.589.442Z" fill="#fff"/><path d="m3.708 2.631-1.06 1.061L19.99 21.034l1.06-1.061L3.708 2.631Z" fill="#EB0000"/></g><defs><clipPath id="a"><path fill="#fff" d="M0 0h24v24H0z"/></clipPath></defs></svg>