<svg class="color-immutable" width="30" height="30" viewBox="0 0 30 30" fill="none" xmlns="http://www.w3.org/2000/svg"><path d="M30 0H0v30h30V0Z" fill="#2D327D"/><path d="M25.5 3c.825 0 1.5.675 1.5 1.5v21c0 .825-.675 1.5-1.5 1.5h-21c-.825 0-1.5-.675-1.5-1.5v-21C3 3.675 3.675 3 4.5 3h21Zm0-.375h-21A1.877 1.877 0 0 0 2.625 4.5v21c0 1.034.841 1.875 1.875 1.875h21a1.877 1.877 0 0 0 1.875-1.875v-21A1.877 1.877 0 0 0 25.5 2.625Z" fill="#fff"/><path d="m17 14.734 1.81.633a.374.374 0 0 0 .435-.145l.407-.603a.303.303 0 0 0-.249-.468h-2.304a.3.3 0 0 0-.1.583ZM10.665 15.726h.375a.3.3 0 0 0 0-.6h-.375a.3.3 0 0 0 0 .6Z" fill="#fff"/><path d="M23.39 22.313a3.676 3.676 0 0 0-4.73-5.32l-.72-1.155h-1.025L6.708 5.631l-1.06 1.06 7.458 7.46h-2.44a.3.3 0 0 0 0 .6h2.624v-.416l1.504 1.503H12.09l-.72 1.156a3.676 3.676 0 1 0-1.68 6.944 3.677 3.677 0 0 0 2.19-6.627l.403-.648 1.966 2.923A.976.976 0 1 0 15.9 20.6h.782a3.674 3.674 0 0 0 5.635 2.76l.674.673 1.06-1.06-.66-.66Zm-10.624-2.05a3.076 3.076 0 0 1-6.151 0 3.077 3.077 0 0 1 4.438-2.757l-1.618 2.599a.3.3 0 1 0 .51.317l1.617-2.599a3.076 3.076 0 0 1 1.204 2.44Zm4.981-3.6.012.018-.015-.014.003-.004Zm-2.463 2.587a.972.972 0 0 0-.537 0l-1.891-2.812h2.538l1.065 1.065-1.175 1.747Zm1.39.75h-.702a.967.967 0 0 0-.19-.414l1.11-1.65.351.351a3.68 3.68 0 0 0-.568 1.714Zm1.005-1.276L18.956 20h-1.68c.04-.456.18-.89.403-1.277Zm2.662 4.614a3.077 3.077 0 0 1-3.058-2.738h2.273l2.324 2.324a3.055 3.055 0 0 1-1.54.414Zm2.615-1.46-3.327-3.326-.651-1.046a3.075 3.075 0 0 1 3.978 4.373Z" fill="#fff"/><path d="m6.708 5.631-1.06 1.06L22.99 24.035l1.06-1.06L6.708 5.63Z" fill="#EB0000"/></svg>