<svg class="color-immutable" width="30" height="30" viewBox="0 0 30 30" fill="none" xmlns="http://www.w3.org/2000/svg"><g clip-path="url(#a)"><path d="M30 0H0v30h30V0Z" fill="#237F52"/><path d="M25.5 3c.825 0 1.5.675 1.5 1.5v21c0 .825-.675 1.5-1.5 1.5h-21c-.825 0-1.5-.675-1.5-1.5v-21C3 3.675 3.675 3 4.5 3h21Zm0-.375h-21A1.877 1.877 0 0 0 2.625 4.5v21c0 1.034.841 1.875 1.875 1.875h21a1.877 1.877 0 0 0 1.875-1.875v-21A1.877 1.877 0 0 0 25.5 2.625Z" fill="#fff"/><path d="M23.999 8.064h-2.064V6h-2.15v2.064h-2.063v2.15h2.063v2.063h2.15v-2.063H24v-2.15ZM15.98 11.633c-2.423-.223-3.252 1.897-3.252 1.897s-.829-2.12-3.251-1.897c-2.423.224-3.909 2.331-3.363 4.925.175.831.915 2.298 2.108 3.681 1.476 1.713 3.536 3.32 4.506 3.761.97-.44 3.03-2.048 4.506-3.76 1.192-1.384 1.933-2.85 2.108-3.682.546-2.594-.94-4.701-3.363-4.925Zm-4.649 9.73 1.27-3.116h-1.875l3.58-3.993-1.482 3.146h1.906l-3.399 3.963Z" fill="#fff"/></g><defs><clipPath id="a"><path fill="#fff" d="M0 0h30v30H0z"/></clipPath></defs></svg>