<svg class="color-immutable" width="24" height="24" viewBox="0 0 24 24" fill="none" xmlns="http://www.w3.org/2000/svg"><path fill-rule="evenodd" clip-rule="evenodd" d="M22.5 0h-21C.675 0 0 .675 0 1.5v21c0 .825.675 1.5 1.5 1.5h21c.825 0 1.5-.675 1.5-1.5v-21c0-.825-.675-1.5-1.5-1.5Z" fill="#237F52"/><path fill-rule="evenodd" clip-rule="evenodd" d="M21 5.063h-2.063V3h-2.152v2.063h-2.063v2.152h2.063v2.063h2.152V7.214H21V5.063ZM9.735 10.53s.825-2.122 3.248-1.897c2.422.225 3.907 2.332 3.375 4.927-.173.832-.915 2.303-2.108 3.682-1.477 1.71-3.54 3.316-4.508 3.758-.975-.435-3.03-2.047-4.507-3.758-1.193-1.387-1.935-2.85-2.108-3.682-.547-2.595.938-4.702 3.36-4.927 2.423-.225 3.248 1.897 3.248 1.897ZM9.6 15.248 8.332 18.36l3.398-3.96H9.825l1.478-3.143-3.578 3.99H9.6Z" fill="#fff"/></svg>