<svg class="color-immutable" width="24" height="24" viewBox="0 0 24 24" fill="none" xmlns="http://www.w3.org/2000/svg"><g clip-path="url(#a)"><path d="M0 22.5v-21C0 .675.675 0 1.5 0h21c.825 0 1.5.675 1.5 1.5v21c0 .825-.675 1.5-1.5 1.5h-21C.675 24 0 23.325 0 22.5Z" fill="#2D327D"/><path d="M3.187 21.185h17.625a.185.185 0 0 0 0-.37H3.187a.185.185 0 0 0 0 .37ZM2.881 8.808a3.567 3.567 0 0 1 3.016-.306l5.495 2 6.999-5.712 1.458.404-3.593 7.078 2.544.926 1.756-2.179 1.075.448-1.561 3.729h-5.352l-10.605-3.86a4.226 4.226 0 0 1-1.395-.841v.001a1.054 1.054 0 0 1 .163-1.688Z" fill="#fff"/></g><defs><clipPath id="a"><path fill="#fff" d="M0 0h24v24H0z"/></clipPath></defs></svg>