<svg class="color-immutable" width="30" height="30" viewBox="0 0 30 30" fill="none" xmlns="http://www.w3.org/2000/svg"><g clip-path="url(#a)"><path d="M30 0H0v30h30V0Z" fill="#2D327D"/><path d="M25.5 3c.825 0 1.5.675 1.5 1.5v21c0 .825-.675 1.5-1.5 1.5h-21c-.825 0-1.5-.675-1.5-1.5v-21C3 3.675 3.675 3 4.5 3h21Zm0-.375h-21A1.877 1.877 0 0 0 2.625 4.5v21c0 1.034.841 1.875 1.875 1.875h21a1.877 1.877 0 0 0 1.875-1.875v-21A1.877 1.877 0 0 0 25.5 2.625Z" fill="#fff"/><path d="m11.093 19.322-.6 1.039a.301.301 0 0 0 .11.41l.455.262a.3.3 0 0 0 .41-.11l.6-1.039-.975-.562ZM20.055 7.175 18.106 6.05a.376.376 0 0 0-.512.137.376.376 0 0 0 .137.512l.487.282-.375.65.974.562.375-.65.488.281c.178.104.409.042.512-.137a.376.376 0 0 0-.137-.512ZM19.904 9.686l-.65-.375-2.598-1.5-.65-.375a.376.376 0 0 0-.511.137.376.376 0 0 0 .137.513l.65.375-5.476 9.482a.301.301 0 0 0 .11.41l2.079 1.2a.3.3 0 0 0 .41-.11l.975-1.688-.975-.563a.376.376 0 0 1-.137-.512.376.376 0 0 1 .512-.137l.975.562 1.124-1.948-.974-.563a.376.376 0 0 1-.137-.512.376.376 0 0 1 .512-.137l.975.562 1.125-1.948-.975-.563a.376.376 0 0 1-.137-.512.376.376 0 0 1 .512-.137l.974.562 1.125-1.948.65.374c.179.104.41.042.512-.137a.376.376 0 0 0-.137-.512ZM10.357 21.495l-1.35 2.339.195.112 1.35-2.338-.195-.113Z" fill="#fff"/></g><defs><clipPath id="a"><path fill="#fff" d="M0 0h30v30H0z"/></clipPath></defs></svg>