<svg class="color-immutable" width="24" height="24" viewBox="0 0 24 24" fill="none" xmlns="http://www.w3.org/2000/svg"><g clip-path="url(#a)"><path d="M0 22.5v-21C0 .675.675 0 1.5 0h21c.825 0 1.5.675 1.5 1.5v21c0 .825-.675 1.5-1.5 1.5h-21C.675 24 0 23.325 0 22.5Z" fill="#2D327D"/><path d="m8.093 16.322-.6 1.039a.302.302 0 0 0 .11.41l.455.263a.302.302 0 0 0 .41-.11l.6-1.039-.975-.563ZM17.055 4.175 15.106 3.05a.376.376 0 0 0-.512.137.376.376 0 0 0 .137.512l.487.281-.375.65.974.562.375-.65.487.281a.374.374 0 0 0 .376-.648ZM16.904 6.686l-.65-.375-2.598-1.5-.65-.375a.376.376 0 0 0-.512.137.376.376 0 0 0 .137.512l.65.375-5.475 9.483a.3.3 0 0 0 .11.41l2.078 1.2a.3.3 0 0 0 .41-.11l.975-1.689-.974-.562a.376.376 0 0 1 .375-.649l.974.562 1.125-1.949-.974-.562a.376.376 0 0 1 .375-.649l.974.562 1.125-1.949-.974-.562a.376.376 0 0 1 .375-.649l.974.562 1.125-1.949.65.375a.376.376 0 0 0 .375-.649ZM7.357 18.496l-1.35 2.338.195.112 1.35-2.338-.195-.112Z" fill="#fff"/></g><defs><clipPath id="a"><path fill="#fff" d="M0 0h24v24H0z"/></clipPath></defs></svg>