<svg class="color-immutable" width="24" height="24" viewBox="0 0 24 24" fill="none" xmlns="http://www.w3.org/2000/svg"><g clip-path="url(#a)"><path d="M0 22.5v-21C0 .675.675 0 1.5 0h21c.825 0 1.5.675 1.5 1.5v21c0 .825-.675 1.5-1.5 1.5h-21C.675 24 0 23.325 0 22.5Z" fill="#2D327D"/><path d="m3.064 16.432 2.128-2.098a.319.319 0 0 1 .45.003l.23.234-1.547 1.528.233.236 1.987-1.962a.317.317 0 0 1 .449.003l.231.233-2.212 2.185.232.236 2.643-2.609a.319.319 0 0 1 .45.003l.23.233-2.869 2.833.233.236 3.311-3.27a.48.48 0 0 1 .674.682l-3.553 3.511a.777.777 0 0 0 .525 1.331l1.74.002.191.009a.555.555 0 0 1 .518.593l-.001.089a.331.331 0 0 1-.344.343H3.065" fill="#fff"/><path d="m21.168 20.057-4.391-4.391h3.536a.76.76 0 0 0 .751-.767v-11.1a.76.76 0 0 0-.751-.768H4.142l-.315-.315-1.061 1.06.3.3v10.822c0 .339.218.625.518.726l.602-.593h-.369c-.065 0-.117-.059-.117-.132v-3.827h4.519l.375-.375H3.7V4.71l5.561 5.561-.953.955a.483.483 0 0 0 .004.682l1.545 1.542c.19.189.495.191.682.003l.951-.953 2.53 2.53h-3.794a.682.682 0 0 1-.163.256l-.384.379h4.976l5.452 5.452 1.061-1.06Zm-8.617-8.617.681-.682c.79-.791.656-2.011 1.11-2.465l-.002-.001c.454-.455 1.346-1.555 1.346-1.555l.008.007a.12.12 0 0 0 .163-.006l.176-.176a.12.12 0 0 0-.001-.17l-.682-.683a.12.12 0 0 0-.17 0l-.175.175a.12.12 0 0 0-.005.164l.005.006s-1.087.908-1.541 1.362c-.454.455-1.674.323-2.464 1.114l-.679.68-5.544-5.544h15.536c.065 0 .117.06.117.133v6.899h-6.891l-.375.375h7.266V14.9c0 .073-.053.132-.117.132h-4.171l-3.591-3.592Z" fill="#fff"/><path d="m3.827 2.716-1.061 1.06 17.342 17.342 1.06-1.061L3.827 2.716Z" fill="#EB0000"/></g><defs><clipPath id="a"><path fill="#fff" d="M0 0h24v24H0z"/></clipPath></defs></svg>