<svg class="color-immutable" width="30" height="30" viewBox="0 0 30 30" fill="none" xmlns="http://www.w3.org/2000/svg"><g clip-path="url(#a)"><path d="M30 0H0v30h30V0Z" fill="#2D327D"/><path d="M25.5 3c.825 0 1.5.675 1.5 1.5v21c0 .825-.675 1.5-1.5 1.5h-21c-.825 0-1.5-.675-1.5-1.5v-21C3 3.675 3.675 3 4.5 3h21Zm0-.375h-21A1.877 1.877 0 0 0 2.625 4.5v21c0 1.034.841 1.875 1.875 1.875h21a1.877 1.877 0 0 0 1.875-1.875v-21A1.877 1.877 0 0 0 25.5 2.625Z" fill="#fff"/><path d="M7.967 15.72a.465.465 0 0 0 0 .93h7.645l-.93-.93H7.967ZM19.034 16.65a.465.465 0 0 0 0-.93H16.76l.93.93h1.344ZM18.658 13.754h-1.433l-.31-1.957h-.858l-1.18 2.042 1.583 1.582h1.236l.962-1.667Z" fill="#fff"/><path d="m17.343 11.296.31 1.958h1.295l.37-.642c.573-.992.118-2.165.447-2.735.328-.571.921-1.897.921-1.897l.01.005a.123.123 0 0 0 .16-.05l.128-.22a.123.123 0 0 0-.046-.169l-.857-.494a.123.123 0 0 0-.168.044l-.127.22a.123.123 0 0 0 .038.164l.006.004s-.837 1.187-1.166 1.757c-.33.57-1.572.763-2.145 1.755l-.173.3h.997ZM19.494 17.382a.375.375 0 0 0-.371-.43h-1.132l1.29 1.29c.095-.275.168-.562.213-.86ZM6.375 16.952a.375.375 0 0 0-.375.375v6.298c0 .207.168.375.375.375h3.695a2.69 2.69 0 0 0 2.249-1.212 2.688 2.688 0 0 1 2.211-1.157h.02c1.642-.071 3.094-.84 4.005-2.037l-2.642-2.642H6.375ZM12.546 10.26h-1.248l1.396 1.395a2.549 2.549 0 0 1-.148-1.396ZM13.165 9.922A2.05 2.05 0 0 1 14.271 8.8l.143.342-1.312 2.156a2.047 2.047 0 0 1 .063-1.376ZM9.764 12.696 7.35 12.12l-.144-.342c.966-.387 2.057.029 2.56.917Z" fill="#fff"/><path d="m6.564 10.259.445 1.055a2.55 2.55 0 0 1 1.932.001 2.551 2.551 0 0 1 1.396 1.374l.924-.39-2.04-2.04H6.563ZM13.41 6.759l-3.107 2.505.49.49h1.896l.009-.022a2.55 2.55 0 0 1 1.376-1.397L13.41 6.76ZM6.024 8.979l.327.775h2.364L7.372 8.411l-1.348.568ZM13.206 6.275 13.09 6 8.833 7.795l1.11 1.11 3.263-2.63Z" fill="#fff"/><path d="M7.01 5.97 5.97 7.01l16.987 16.986 1.038-1.04L7.01 5.971Z" fill="#EB0000"/></g><defs><clipPath id="a"><path fill="#fff" d="M0 0h30v30H0z"/></clipPath></defs></svg>