<svg class="color-immutable" width="24" height="24" viewBox="0 0 24 24" fill="none" xmlns="http://www.w3.org/2000/svg"><g clip-path="url(#a)"><path d="M0 22.5v-21C0 .675.675 0 1.5 0h21c.825 0 1.5.675 1.5 1.5v21c0 .825-.675 1.5-1.5 1.5h-21C.675 24 0 23.325 0 22.5Z" fill="#2D327D"/><path d="M4.967 12.721a.465.465 0 1 0 0 .93h7.645l-.93-.93H4.967ZM16.034 13.65a.465.465 0 1 0 0-.93H13.76l.93.93h1.344ZM15.658 10.754h-1.433l-.309-1.958h-.859l-1.179 2.043 1.582 1.582h1.236l.962-1.667Z" fill="#fff"/><path d="m14.343 8.296.31 1.958h1.294l.37-.641c.573-.993.118-2.165.447-2.735l-.001-.001c.329-.57.922-1.896.922-1.896l.01.005a.124.124 0 0 0 .16-.049l.128-.221a.122.122 0 0 0-.046-.168l-.857-.495a.124.124 0 0 0-.169.045l-.127.22a.124.124 0 0 0 .038.164l.006.004s-.837 1.187-1.166 1.757c-.329.57-1.572.763-2.145 1.755l-.173.3.999-.002ZM16.495 14.382a.375.375 0 0 0-.37-.43h-1.133l1.29 1.29a5.03 5.03 0 0 0 .213-.86ZM3.375 13.952a.375.375 0 0 0-.375.375v6.298c0 .207.168.375.375.375H7.07c.916 0 1.724-.457 2.21-1.155l.039-.057a2.688 2.688 0 0 1 2.211-1.157h.019c1.643-.072 3.095-.841 4.006-2.038l-2.642-2.642H3.375v.001ZM9.546 7.26H8.299l1.396 1.396a2.545 2.545 0 0 1-.15-1.396ZM10.165 6.922A2.05 2.05 0 0 1 11.27 5.8l.144.342-1.313 2.156a2.054 2.054 0 0 1 .064-1.376ZM6.764 9.696l-2.415-.575-.144-.342c.966-.388 2.057.029 2.559.917Z" fill="#fff"/><path d="m3.564 7.259.445 1.055a2.55 2.55 0 0 1 1.932.001 2.555 2.555 0 0 1 1.396 1.374l.924-.39-2.04-2.04H3.564ZM10.41 3.759 7.303 6.264l.49.49h1.895l.009-.023a2.552 2.552 0 0 1 1.377-1.397l-.664-1.575ZM3.025 5.979l.326.775h2.364L4.372 5.411l-1.347.568ZM10.206 3.275 10.09 3 5.833 4.795l1.111 1.11 3.262-2.63Z" fill="#fff"/><path d="M4.009 2.971 2.971 4.009l16.986 16.987 1.038-1.04L4.009 2.971Z" fill="#EB0000"/></g><defs><clipPath id="a"><path fill="#fff" d="M0 0h24v24H0z"/></clipPath></defs></svg>