<svg class="color-immutable" width="30" height="30" viewBox="0 0 30 30" fill="none" xmlns="http://www.w3.org/2000/svg"><path d="M30 0H0v30h30V0Z" fill="#2D327D"/><path d="M25.5 3c.825 0 1.5.675 1.5 1.5v21c0 .825-.675 1.5-1.5 1.5h-21c-.825 0-1.5-.675-1.5-1.5v-21C3 3.675 3.675 3 4.5 3h21Zm0-.375h-21A1.877 1.877 0 0 0 2.625 4.5v21c0 1.034.841 1.875 1.875 1.875h21a1.877 1.877 0 0 0 1.875-1.875v-21A1.877 1.877 0 0 0 25.5 2.625Z" fill="#fff"/><path d="M18.035 9.71a1.396 1.396 0 1 1-2.792 0 1.396 1.396 0 0 1 2.792 0ZM19.567 15.15l-.977-.978h-1.54l1.717 1.717a.52.52 0 0 0 .407.197c.29 0 .552-.262.552-.553a.521.521 0 0 0-.163-.378l.005-.005ZM12.292 17.945h-.627v.635h.627v-.635Z" fill="#fff"/><path d="m24.05 22.973-4.393-4.393h3.524a.76.76 0 0 0 .751-.768v-11.1a.76.76 0 0 0-.75-.767H7.021l-.314-.314-1.06 1.06.306.307v10.814a.76.76 0 0 0 .751.768h3.08v-.635h-3.08c-.064 0-.116-.06-.116-.133v-3.824h3.61l.378-.375H6.589v-5.98l5.136 5.136-1.613 1.613a.432.432 0 0 0-.137.3v8.616a.75.75 0 1 0 1.5 0v-6.986l1.007.999v3.52a.75.75 0 1 0 1.5 0l-.002-3.787s.03-.244-.141-.414l-1.158-1.152.861-.891 3.359 3.358h-2.73v.635h3.365l5.454 5.454 1.06-1.06Zm-8.525-11.867-.007.007c-.254-.246-.64-.404-1.073-.404-.491 0-.921.203-1.168.508l-.491.491-5.13-5.128h15.525c.064 0 .116.06.116.132v6.9H14.82l-.065.066-.17-.17.885-.916.826.826h1.54l-2.311-2.312Zm-.46 2.882h8.232v3.825c0 .073-.052.132-.116.132h-4.159l-3.957-3.957Z" fill="#fff"/><path d="m6.708 5.631-1.06 1.06L22.99 24.035l1.06-1.06L6.708 5.63Z" fill="#EB0000"/></svg>