<svg class="color-immutable" width="24" height="24" viewBox="0 0 24 24" fill="none" xmlns="http://www.w3.org/2000/svg"><g clip-path="url(#a)"><path d="M0 22.5v-21C0 .675.675 0 1.5 0h21c.825 0 1.5.675 1.5 1.5v21c0 .825-.675 1.5-1.5 1.5h-21C.675 24 0 23.325 0 22.5Z" fill="#2D327D"/><path d="M15.035 6.71a1.396 1.396 0 1 1-2.792 0 1.396 1.396 0 0 1 2.792 0ZM16.568 12.15l-.978-.978h-1.54l1.716 1.716a.52.52 0 0 0 .407.197c.29 0 .552-.262.552-.552a.524.524 0 0 0-.163-.379l.006-.004ZM9.292 14.945h-.627v.635h.627v-.635Z" fill="#fff"/><path d="m21.05 19.973-4.393-4.393h3.524a.76.76 0 0 0 .751-.767v-11.1a.76.76 0 0 0-.751-.767H4.022l-.314-.315-1.06 1.061.307.307v10.814a.76.76 0 0 0 .751.767h3.079v-.635h-3.08c-.064 0-.116-.059-.116-.133v-3.825h3.609l.378-.375H3.589V4.634L8.725 9.77l-1.613 1.613a.432.432 0 0 0-.138.301v8.615a.75.75 0 1 0 1.5 0v-6.987l1.007.999v3.521a.75.75 0 1 0 1.5 0l-.002-3.788s.029-.244-.141-.414L9.68 12.478l.862-.891 3.358 3.358h-2.73v.635h3.364l5.454 5.454 1.062-1.061ZM12.525 8.106l-.007.007c-.254-.246-.64-.404-1.073-.404-.491 0-.921.203-1.168.508l-.492.492L4.657 3.58h15.524c.064 0 .116.06.116.132v6.901H11.82l-.065.065-.17-.17.885-.916.826.826h1.54l-2.311-2.312Zm-.46 2.882h8.232v3.825c0 .073-.052.133-.116.133h-4.159l-3.957-3.958Z" fill="#fff"/><path d="m3.708 2.631-1.06 1.061L19.99 21.034l1.06-1.061L3.708 2.631Z" fill="#EB0000"/></g><defs><clipPath id="a"><path fill="#fff" d="M0 0h24v24H0z"/></clipPath></defs></svg>