<svg class="color-immutable" width="24" height="24" viewBox="0 0 24 24" fill="none" xmlns="http://www.w3.org/2000/svg"><g clip-path="url(#a)"><path d="M0 22.5v-21C0 .675.675 0 1.5 0h21c.825 0 1.5.675 1.5 1.5v21c0 .825-.675 1.5-1.5 1.5h-21C.675 24 0 23.325 0 22.5Z" fill="#2D327D"/><path d="M7.395 17.546a2.98 2.98 0 0 1-.822.671l1.711 2.446a.53.53 0 0 0 .867-.607l-1.756-2.51ZM13.075 16.379l-1.915 3.758a.53.53 0 0 0 .943.481l2.16-4.239h-1.188Z" fill="#fff"/><path d="m16.483 13.484.422-.729-2.461-2.474-.535.521c-.166.161-.49.293-.721.293h-1.016L3.708 2.631l-1.06 1.061 7.402 7.402H5.173a1.482 1.482 0 1 1 0-2.964.392.392 0 1 0 0-.784 2.266 2.266 0 0 0 0 4.533v3.76L3.62 17.456v2.99a.53.53 0 0 0 1.058 0l-.001-2.203a.3.3 0 0 1 .3-.3h.168a2.274 2.274 0 0 0 2.273-2.22h7.261l.284.284-.001 4.423c-.001.3.235.545.527.546a.536.536 0 0 0 .531-.542l.001-3.368 3.969 3.969 1.061-1.061-4.568-4.568v-1.922ZM20.828 8.427h-1.052l-.275-.372-.105-.142a.393.393 0 0 0-.278-.142H17.265a.694.694 0 0 0-.42.174l-1.838 1.787 2.305 2.317.622-1.074a.462.462 0 0 1 .36-.208h1.877l.896-.896V8.667a.24.24 0 0 0-.239-.24Z" fill="#fff"/><path d="m3.708 2.631-1.06 1.061L19.99 21.034l1.06-1.061L3.708 2.631Z" fill="#EB0000"/></g><defs><clipPath id="a"><path fill="#fff" d="M0 0h24v24H0z"/></clipPath></defs></svg>