<svg class="color-immutable" width="30" height="30" viewBox="0 0 30 30" fill="none" xmlns="http://www.w3.org/2000/svg"><path d="M30 0H0v30h30V0Z" fill="#2D327D"/><path d="M25.5 3c.825 0 1.5.675 1.5 1.5v21c0 .825-.675 1.5-1.5 1.5h-21c-.825 0-1.5-.675-1.5-1.5v-21C3 3.675 3.675 3 4.5 3h21Zm0-.375h-21A1.877 1.877 0 0 0 2.625 4.5v21c0 1.034.841 1.875 1.875 1.875h21a1.877 1.877 0 0 0 1.875-1.875v-21A1.877 1.877 0 0 0 25.5 2.625Z" fill="#fff"/><path d="M10.395 20.546c-.23.27-.509.498-.822.672l1.711 2.445a.53.53 0 0 0 .867-.607l-1.756-2.51ZM16.076 19.379l-1.916 3.758a.529.529 0 1 0 .943.481l2.16-4.239h-1.188Z" fill="#fff"/><path d="m19.483 16.484.422-.73-2.46-2.473-.536.52c-.166.161-.49.293-.721.293H15.17L6.708 5.631l-1.06 1.06 7.402 7.403H8.173a1.482 1.482 0 1 1 0-2.963.392.392 0 0 0 0-.785 2.266 2.266 0 1 0 0 4.533v3.76L6.62 20.456v2.99a.53.53 0 1 0 1.058 0v-2.203a.3.3 0 0 1 .3-.3h.167c1.238 0 2.244-.989 2.273-2.22h7.261l.284.284v4.422c-.002.3.234.545.526.546a.536.536 0 0 0 .53-.542l.002-3.368 3.969 3.97 1.06-1.062-4.567-4.567v-1.922ZM23.828 11.427h-1.052l-.275-.371-.105-.142a.392.392 0 0 0-.277-.142h-1.854a.697.697 0 0 0-.42.174l-1.837 1.787 2.305 2.317.621-1.073a.462.462 0 0 1 .36-.208h1.877l.897-.896v-1.206a.24.24 0 0 0-.24-.24Z" fill="#fff"/><path d="m6.708 5.631-1.06 1.06L22.99 24.035l1.06-1.06L6.708 5.63Z" fill="#EB0000"/></svg>