<svg class="color-immutable" width="30" height="30" viewBox="0 0 30 30" fill="none" xmlns="http://www.w3.org/2000/svg"><g clip-path="url(#a)"><path d="M30 0H0v30h30V0Z" fill="#2D327D"/><path d="M25.5 3c.825 0 1.5.675 1.5 1.5v21c0 .825-.675 1.5-1.5 1.5h-21c-.825 0-1.5-.675-1.5-1.5v-21C3 3.675 3.675 3 4.5 3h21Zm0-.375h-21A1.877 1.877 0 0 0 2.625 4.5v21c0 1.034.841 1.875 1.875 1.875h21a1.877 1.877 0 0 0 1.875-1.875v-21A1.877 1.877 0 0 0 25.5 2.625Z" fill="#fff"/><path d="M6.089 10.484v13.5h6v-13.5h-6Zm5.25 7.5a.15.15 0 0 1-.15.15h-4.2a.151.151 0 0 1-.15-.15v-6.6c0-.082.068-.15.15-.15h4.2a.15.15 0 0 1 .15.15v6.6ZM7.192 7.424l1.43-1.44h-.894l-1.79 1.8 1.79 1.8h.895l-1.431-1.44h11.047v-.72H7.192ZM18.239 11.234h-5.7v12h5.7v-12Z" fill="#fff"/></g><defs><clipPath id="a"><path fill="#fff" d="M0 0h30v30H0z"/></clipPath></defs></svg>