<svg class="color-immutable" width="30" height="30" viewBox="0 0 30 30" fill="none" xmlns="http://www.w3.org/2000/svg"><g clip-path="url(#a)"><path d="M30 0H0v30h30V0Z" fill="#2D327D"/><path d="M25.5 3c.825 0 1.5.675 1.5 1.5v21c0 .825-.675 1.5-1.5 1.5h-21c-.825 0-1.5-.675-1.5-1.5v-21C3 3.675 3.675 3 4.5 3h21Zm0-.375h-21A1.877 1.877 0 0 0 2.625 4.5v21c0 1.034.841 1.875 1.875 1.875h21a1.877 1.877 0 0 0 1.875-1.875v-21A1.877 1.877 0 0 0 25.5 2.625Z" fill="#fff"/><path d="M19.229 19.684h-8.16v-13.8h8.16v13.8ZM6.149 6.034v13.5h4.5v-13.5h-4.5Zm3.6 9.75c0 .33-.27.6-.6.6h-1.5c-.33 0-.6-.27-.6-.6v-7.8c0-.33.27-.6.6-.6h1.5c.33 0 .6.27.6.6v7.8ZM12.773 20.246a1.8 1.8 0 0 1-1.8 1.8h-3.82l1.35-1.236h-.9L6.03 22.384l1.575 1.574h.9l-1.35-1.237h3.819a2.475 2.475 0 0 0 2.475-2.475h-.675ZM19.649 6.034v13.5h4.5v-13.5h-4.5Zm.9 1.95c0-.33.27-.6.6-.6h1.5c.33 0 .6.27.6.6v7.8c0 .33-.27.6-.6.6h-1.5c-.33 0-.6-.27-.6-.6v-7.8ZM17.525 20.246a1.8 1.8 0 0 0 1.8 1.8h3.82l-1.35-1.236h.9l1.574 1.574-1.575 1.574h-.9l1.35-1.237h-3.82a2.475 2.475 0 0 1-2.474-2.475h.675Z" fill="#fff"/></g><defs><clipPath id="a"><path fill="#fff" d="M0 0h30v30H0z"/></clipPath></defs></svg>