<svg class="color-immutable" width="24" height="24" viewBox="0 0 24 24" fill="none" xmlns="http://www.w3.org/2000/svg"><g clip-path="url(#a)"><path d="M0 22.5v-21C0 .675.675 0 1.5 0h21c.825 0 1.5.675 1.5 1.5v21c0 .825-.675 1.5-1.5 1.5h-21C.675 24 0 23.325 0 22.5Z" fill="#2D327D"/><path d="M16.229 16.684h-8.16v-13.8h8.16v13.8ZM3.149 3.034v13.5h4.5v-13.5h-4.5Zm3.6 9.75c0 .33-.27.6-.6.6h-1.5c-.33 0-.6-.27-.6-.6v-7.8c0-.33.27-.6.6-.6h1.5c.33 0 .6.27.6.6v7.8ZM9.773 17.246a1.8 1.8 0 0 1-1.8 1.8H4.154l1.349-1.237h-.9l-1.574 1.574 1.574 1.574h.9L4.154 19.72h3.819a2.475 2.475 0 0 0 2.475-2.475h-.675v.001ZM16.649 3.034v13.5h4.5v-13.5h-4.5Zm.9 1.95c0-.33.27-.6.6-.6h1.5c.33 0 .6.27.6.6v7.8c0 .33-.27.6-.6.6h-1.5c-.33 0-.6-.27-.6-.6v-7.8ZM14.525 17.246a1.8 1.8 0 0 0 1.8 1.8h3.819l-1.349-1.237h.899l1.575 1.574-1.575 1.574h-.899l1.349-1.237h-3.819a2.475 2.475 0 0 1-2.475-2.475h.675v.001Z" fill="#fff"/></g><defs><clipPath id="a"><path fill="#fff" d="M0 0h24v24H0z"/></clipPath></defs></svg>