<svg class="color-immutable" width="24" height="24" viewBox="0 0 24 24" fill="none" xmlns="http://www.w3.org/2000/svg"><g clip-path="url(#a)"><path d="M0 22.5v-21C0 .675.675 0 1.5 0h21c.825 0 1.5.675 1.5 1.5v21c0 .825-.675 1.5-1.5 1.5h-21C.675 24 0 23.325 0 22.5Z" fill="#2D327D"/><path d="m9.011 6.465 1.644-1.643-1.882-1.883a.376.376 0 0 0-.531 0L7.128 4.053a.38.38 0 0 0-.11.265c0 .1.041.195.11.266l1.883 1.881Z" fill="#fff"/><path d="m12.751 7.501-1.856-1.857-1.061 1.061.795.796H7.126a1.876 1.876 0 0 0-1.877 1.874V10.5h1.499V9.374A.378.378 0 0 1 7.126 9H16.5V7.5h-3.749v.001ZM8.738 12H3.263a.264.264 0 0 0-.263.264v7.237A1.5 1.5 0 0 0 4.501 21h3C8.329 21 9 20.329 9 19.501v-7.237A.262.262 0 0 0 8.738 12Zm-.412 3.601a2.703 2.703 0 0 1-2.325 0 2.7 2.7 0 0 0-2.324 0v-.751a2.698 2.698 0 0 1 2.324 0 2.69 2.69 0 0 0 2.325 0v.751Zm0-1.425a2.703 2.703 0 0 1-2.325 0 2.699 2.699 0 0 0-2.324 0v-.751a2.698 2.698 0 0 1 2.324 0 2.703 2.703 0 0 0 2.325 0v.751Z" fill="#fff"/></g><defs><clipPath id="a"><path fill="#fff" d="M0 0h24v24H0z"/></clipPath></defs></svg>