<svg class="color-immutable" width="24" height="24" viewBox="0 0 24 24" fill="none" xmlns="http://www.w3.org/2000/svg"><path fill-rule="evenodd" clip-rule="evenodd" d="M22.5 0h-21C.675 0 0 .675 0 1.5v21c0 .825.675 1.5 1.5 1.5h21c.825 0 1.5-.675 1.5-1.5v-21c0-.825-.675-1.5-1.5-1.5Z" fill="#2D327D"/><circle cx="12" cy="12" r="9" fill="#fff"/><path fill-rule="evenodd" clip-rule="evenodd" d="M3 12c0-4.973 4.027-9 9-9s9 4.027 9 9-4.027 9-9 9-9-4.027-9-9Zm2.25 0a6.75 6.75 0 1 0 13.501-.001A6.75 6.75 0 0 0 5.25 12Z" fill="#EB0000"/><path fill-rule="evenodd" clip-rule="evenodd" d="M16.83 8.25H7.17a.495.495 0 1 0 0 .99h3.45v8.385a.519.519 0 0 0 1.035 0v-4.418h.69v4.418a.519.519 0 0 0 1.035 0V9.248h3.45a.495.495 0 0 0 .495-.495.501.501 0 0 0-.495-.503ZM12 7.785a1.03 1.03 0 1 0-1.027-1.027A1.024 1.024 0 0 0 12 7.785Z" fill="#000"/></svg>