<svg class="color-immutable" width="24" height="24" viewBox="0 0 24 24" fill="none" xmlns="http://www.w3.org/2000/svg"><path fill-rule="evenodd" clip-rule="evenodd" d="M22.5 0h-21C.675 0 0 .675 0 1.5v21c0 .825.675 1.5 1.5 1.5h21c.825 0 1.5-.675 1.5-1.5v-21c0-.825-.675-1.5-1.5-1.5Z" fill="#2D327D"/><path fill-rule="evenodd" clip-rule="evenodd" d="M21 12a7.197 7.197 0 0 0-2.198-5.175.38.38 0 0 0-.51-.008.37.37 0 0 0-.015.548A6.427 6.427 0 0 1 20.25 12c0 1.815-.75 3.457-1.965 4.628a.37.37 0 0 0 .015.547.38.38 0 0 0 .51-.008A7.16 7.16 0 0 0 21 12Z" fill="#fff"/><path fill-rule="evenodd" clip-rule="evenodd" d="M18.6 12.007a5.237 5.237 0 0 0-1.68-3.847.38.38 0 0 0-.51-.008.381.381 0 0 0 0 .563 4.483 4.483 0 0 1 .008 6.577.373.373 0 0 0 0 .555c.142.128.367.12.51-.007a5.238 5.238 0 0 0 1.672-3.833ZM16.2 12.008c0-1.013-.45-1.928-1.162-2.543a.385.385 0 0 0-.495 0 .37.37 0 0 0 .007.563c.547.48.9 1.184.9 1.972a2.63 2.63 0 0 1-.885 1.965.376.376 0 0 0-.008.563.368.368 0 0 0 .495 0 3.32 3.32 0 0 0 1.148-2.52ZM3.48 9.525a.477.477 0 0 0-.337.143.477.477 0 0 0-.143.337v3.99c0 .263.217.48.48.48h2.445v-4.95H3.48ZM10.8 6.255a.484.484 0 0 0-.51.075L6.675 9.525v4.95l3.608 3.195a.46.46 0 0 0 .51.075.476.476 0 0 0 .285-.435V6.69a.47.47 0 0 0-.278-.435Z" fill="#fff"/></svg>