<svg class="color-immutable" width="24" height="24" viewBox="0 0 24 24" fill="none" xmlns="http://www.w3.org/2000/svg"><path fill-rule="evenodd" clip-rule="evenodd" d="M22.5 0h-21C.675 0 0 .675 0 1.5v21c0 .825.675 1.5 1.5 1.5h21c.825 0 1.5-.675 1.5-1.5v-21c0-.825-.675-1.5-1.5-1.5Z" fill="#2D327D"/><path fill-rule="evenodd" clip-rule="evenodd" d="M3.382 18.75a.193.193 0 0 0-.187.157L2.91 20.79v.03c0 .105.082.188.187.188.09 0 .173-.068.188-.158l.285-1.883v-.03a.186.186 0 0 0-.188-.187ZM3.945 15a.193.193 0 0 0-.188.158l-.285 1.882v.03c0 .105.083.188.188.188.09 0 .172-.068.187-.158l.285-1.883v-.03A.186.186 0 0 0 3.945 15ZM4.455 11.625a.193.193 0 0 0-.188.158l-.285 1.882v.03c0 .105.083.188.188.188.09 0 .173-.068.188-.158l.285-1.883v-.03a.186.186 0 0 0-.188-.187ZM4.62 10.875c.09 0 .173-.068.188-.158l.285-1.875v-.03a.186.186 0 0 0-.188-.187.193.193 0 0 0-.187.158l-.285 1.875v.03c0 .104.082.187.187.187ZM5.085 16.125a.193.193 0 0 0-.188.165l-.21 1.875v.023c0 .105.083.187.188.187.097 0 .18-.075.187-.165l.21-1.875v-.023a.186.186 0 0 0-.187-.187ZM5.46 12.75a.193.193 0 0 0-.188.165l-.21 1.875v.023c0 .104.083.187.188.187a.187.187 0 0 0 .187-.165l.21-1.875v-.023a.186.186 0 0 0-.187-.187ZM5.993 9.938a.186.186 0 0 0-.188-.188c-.097 0-.18.068-.187.165l-.21 1.875v.023c0 .104.082.187.187.187a.193.193 0 0 0 .188-.165l.21-1.875c-.008-.008 0-.015 0-.023ZM6.195 18.75a.188.188 0 0 0-.188.172l-.142 1.875v.015a.188.188 0 0 0 .375.015l.142-1.875v-.015a.186.186 0 0 0-.187-.187ZM6.473 15a.188.188 0 0 0-.188.172l-.143 1.875v.015a.188.188 0 0 0 .375.015l.143-1.875v-.014A.186.186 0 0 0 6.472 15ZM6.728 11.625a.188.188 0 0 0-.188.172l-.143 1.875v.015c0 .106.083.188.188.188.098 0 .18-.075.188-.172l.142-1.875v-.015a.186.186 0 0 0-.188-.188ZM6.952 8.625a.188.188 0 0 0-.187.172l-.143 1.875v.015c0 .106.083.188.188.188.097 0 .18-.075.187-.172l.143-1.875v-.015a.186.186 0 0 0-.188-.188ZM7.695 16.125a.195.195 0 0 0-.188.18L7.44 18.18v.008c0 .105.083.187.188.187a.184.184 0 0 0 .187-.18l.067-1.875v-.008a.186.186 0 0 0-.187-.187ZM7.823 12.75a.195.195 0 0 0-.188.18l-.067 1.875v.008c0 .104.082.187.187.187a.19.19 0 0 0 .188-.18l.067-1.875v-.008a.186.186 0 0 0-.187-.187ZM7.935 9.75a.195.195 0 0 0-.188.18l-.067 1.875v.008c0 .104.083.187.188.187.097 0 .187-.082.187-.18l.067-1.875v-.008a.186.186 0 0 0-.187-.187ZM4.957 8.25h8.093a.451.451 0 0 0 .435-.57 4.654 4.654 0 0 0-3.727-3.345V3h-1.5v1.335A4.634 4.634 0 0 0 4.53 7.68c-.008.038-.015.075-.015.12a.431.431 0 0 0 .442.45ZM9 8.625a.186.186 0 0 0-.188.188v1.874c0 .106.083.188.188.188a.186.186 0 0 0 .188-.188V8.813A.186.186 0 0 0 9 8.624ZM9 11.625a.186.186 0 0 0-.188.188v1.874c0 .106.083.188.188.188a.186.186 0 0 0 .188-.188v-1.874A.186.186 0 0 0 9 11.624ZM9 15a.186.186 0 0 0-.188.188v1.874c0 .105.083.188.188.188a.186.186 0 0 0 .188-.188v-1.875A.186.186 0 0 0 9 15ZM9 18.75a.186.186 0 0 0-.188.188v1.875c0 .105.083.187.188.187a.186.186 0 0 0 .188-.188v-1.875A.186.186 0 0 0 9 18.75ZM10.14 12a.186.186 0 0 0 .188-.188v-.007L10.26 9.93a.195.195 0 0 0-.188-.18.186.186 0 0 0-.187.188v.007l.068 1.875c0 .098.082.18.187.18ZM10.252 15a.186.186 0 0 0 .188-.188v-.007l-.067-1.875a.195.195 0 0 0-.188-.18.186.186 0 0 0-.188.188v.007l.068 1.875c0 .098.083.18.188.18ZM10.305 16.125a.186.186 0 0 0-.188.188v.007l.068 1.875c.008.098.09.18.188.18a.186.186 0 0 0 .187-.188v-.007l-.068-1.875c0-.098-.09-.18-.187-.18ZM11.377 10.688v-.016l-.142-1.875a.188.188 0 0 0-.375.015v.016l.143 1.875a.188.188 0 0 0 .374-.015ZM11.602 13.688v-.016l-.142-1.875a.188.188 0 0 0-.375.015v.016l.142 1.875a.188.188 0 0 0 .375-.015ZM11.857 17.063v-.015l-.142-1.875a.188.188 0 0 0-.375.014v.016l.143 1.875c.007.097.09.172.187.172a.19.19 0 0 0 .188-.188ZM11.992 18.922a.188.188 0 0 0-.375.015v.015l.143 1.875a.188.188 0 0 0 .375-.015v-.015l-.143-1.875ZM12.6 11.813v-.023l-.21-1.875c-.008-.097-.09-.165-.188-.165a.186.186 0 0 0-.187.188v.022l.21 1.875c.008.097.09.165.188.165a.186.186 0 0 0 .187-.188ZM12.938 14.813v-.023l-.21-1.875c-.008-.097-.09-.165-.188-.165a.186.186 0 0 0-.188.188v.022l.21 1.875c.008.097.09.165.188.165a.186.186 0 0 0 .188-.188ZM13.102 16.29c-.007-.098-.09-.165-.187-.165a.186.186 0 0 0-.188.188v.022l.21 1.875c.016.098.09.165.188.165a.186.186 0 0 0 .188-.188v-.022l-.21-1.875ZM13.095 8.625a.186.186 0 0 0-.188.188v.03l.286 1.874c.014.09.09.158.187.158a.186.186 0 0 0 .188-.188v-.03l-.285-1.874a.187.187 0 0 0-.188-.158ZM14.018 13.688v-.03l-.286-1.883a.187.187 0 0 0-.187-.157.186.186 0 0 0-.188.187v.03l.286 1.883c.014.09.09.157.187.157a.186.186 0 0 0 .188-.187ZM14.52 17.063v-.03l-.285-1.883a.187.187 0 0 0-.188-.157.186.186 0 0 0-.187.187v.03l.285 1.883c.015.09.09.157.188.157a.186.186 0 0 0 .187-.187ZM15.082 20.79l-.285-1.883a.187.187 0 0 0-.187-.157.186.186 0 0 0-.188.188v.03l.285 1.882c.015.09.09.157.188.157a.186.186 0 0 0 .188-.187v-.03Z" fill="#fff"/></svg>