<svg class="color-immutable" width="30" height="30" viewBox="0 0 30 30" fill="none" xmlns="http://www.w3.org/2000/svg"><g clip-path="url(#a)"><path d="M30 0H0v30h30V0Z" fill="#2D327D"/><path d="M25.5 3c.825 0 1.5.675 1.5 1.5v21c0 .825-.675 1.5-1.5 1.5h-21c-.825 0-1.5-.675-1.5-1.5v-21C3 3.675 3.675 3 4.5 3h21Zm0-.375h-21A1.877 1.877 0 0 0 2.625 4.5v21c0 1.034.841 1.875 1.875 1.875h21a1.877 1.877 0 0 0 1.875-1.875v-21A1.877 1.877 0 0 0 25.5 2.625Z" fill="#fff"/><path d="m8.58 16.736-2.25 2.25c-.211.211-.33.497-.33.796v2.643c0 .207.168.375.375.375h.375v-.431a2.25 2.25 0 0 1 4.5 0v.431h7.462v-.431a2.25 2.25 0 0 1 4.5 0v.431h.413a.375.375 0 0 0 .375-.375v-2.338a.375.375 0 0 0-.344-.373l-4.387-.364-2.614-2.614a1.124 1.124 0 0 0-.795-.33H9.376c-.299 0-.585.119-.796.33Zm4.505.758c0-.207.168-.375.375-.375h2.362c.1 0 .195.04.265.11l1.794 1.793a.224.224 0 0 1-.16.384h-4.259a.375.375 0 0 1-.375-.374l-.002-1.538Zm-5.572 1.912a.225.225 0 0 1-.159-.384l1.794-1.793c.07-.07.166-.11.265-.11h2.585c.207 0 .375.168.375.375v1.537a.375.375 0 0 1-.375.375H7.513Z" fill="#fff"/><path fill-rule="evenodd" clip-rule="evenodd" d="M8.983 23.336a.938.938 0 1 1 0-1.875.938.938 0 0 1 0 1.875Zm.021-2.658a1.707 1.707 0 1 0 .002 3.415 1.707 1.707 0 0 0-.002-3.415ZM20.961 23.336a.938.938 0 1 1 0-1.875.938.938 0 0 1 0 1.875Zm0-2.644a1.707 1.707 0 1 0 .001 3.415 1.707 1.707 0 0 0-.001-3.415Z" fill="#fff"/><path d="M13.65 11.25h-2.775c-.827 0-1.5-.673-1.5-1.5s.673-1.5 1.5-1.5h.751a.75.75 0 0 0 0-1.5H6V6h5.626c.827 0 1.5.673 1.5 1.5s-.673 1.5-1.5 1.5h-.751a.75.75 0 0 0 0 1.5h2.775v.75ZM15.75 12.375H15a1.125 1.125 0 0 1-1.125-1.125v-.75c0-.621.504-1.125 1.125-1.125h.75c.207 0 .375.168.375.375V12a.375.375 0 0 1-.375.375ZM17.625 9.938H16.35v.374h1.275a.187.187 0 1 0 0-.374ZM17.625 11.438H16.35v.374h1.275a.187.187 0 1 0 0-.374Z" fill="#fff"/></g><defs><clipPath id="a"><path fill="#fff" d="M0 0h30v30H0z"/></clipPath></defs></svg>