<svg class="color-immutable" width="30" height="30" viewBox="0 0 30 30" fill="none" xmlns="http://www.w3.org/2000/svg"><path d="M30 0H0v30h30V0Z" fill="#2D327D"/><path d="M4.5 3h21c.825 0 1.5.675 1.5 1.5v21c0 .825-.675 1.5-1.5 1.5h-21c-.825 0-1.5-.675-1.5-1.5v-21C3 3.675 3.675 3 4.5 3Zm0-.375A1.877 1.877 0 0 0 2.625 4.5v21c0 1.034.841 1.875 1.875 1.875h21a1.877 1.877 0 0 0 1.875-1.875v-21A1.877 1.877 0 0 0 25.5 2.625h-21Z" fill="#fff"/><path d="m22.372 15.44-.01-.024c-.167-.373-.188-.7-.066-1.026l-.38-.142c-.158.423-.135.856.072 1.322.203.673.063 1.13.014 1.217l-.462.685-.33-.223a.278.278 0 0 0-.385.075l-1.39 2.061a.278.278 0 0 0 .074.385l.22.148a.332.332 0 0 0-.073.075l-1.323 1.962a.339.339 0 0 0 .091.469l.028.019a.339.339 0 0 0 .47-.092l1.323-1.96a.332.332 0 0 0 .042-.096l.22.148c.126.085.299.051.384-.075l1.391-2.062a.278.278 0 0 0-.075-.385l-.33-.223.465-.689.005-.008c.134-.221.252-.82.025-1.561ZM18.918 9.426a4.959 4.959 0 0 1-.888 6.957 3.23 3.23 0 0 0-1.25 2.68c.03.764-.15 1.52-.52 2.188a2.417 2.417 0 0 1-4.152.135.478.478 0 1 1 .805-.515 1.464 1.464 0 0 0 2.51-.081 3.23 3.23 0 0 0 .4-1.69 4.187 4.187 0 0 1 1.622-3.473A4.003 4.003 0 1 0 11 12.214a.478.478 0 0 1-.954-.058 4.96 4.96 0 0 1 8.872-2.73Z" fill="#fff"/><path d="M17.648 10.409a3.352 3.352 0 0 1-.601 4.703 4.64 4.64 0 0 0-.276.231.388.388 0 0 1-.545-.03.385.385 0 0 1 .028-.544 5.73 5.73 0 0 1 .32-.268 2.58 2.58 0 1 0-3.831-3.301.386.386 0 1 1-.673-.377 3.353 3.353 0 0 1 5.579-.415ZM12.814 17.185a5.237 5.237 0 0 1-2.457-2.458L6 19.084V24l6.814-6.815ZM18.21 6.874a6.406 6.406 0 0 1 2.458 2.457l1.618-1.618L24 6h-4.916l-.874.874Z" fill="#fff"/></svg>