<svg class="color-immutable" width="24" height="24" viewBox="0 0 24 24" fill="none" xmlns="http://www.w3.org/2000/svg"><g clip-path="url(#a)"><path d="M0 22.5v-21C0 .675.675 0 1.5 0h21c.825 0 1.5.675 1.5 1.5v21c0 .825-.675 1.5-1.5 1.5h-21C.675 24 0 23.325 0 22.5Z" fill="#2D327D"/><path d="M10.65 8.25H7.875c-.827 0-1.5-.673-1.5-1.5s.673-1.5 1.5-1.5h.751a.75.75 0 0 0 0-1.5H3V3h5.626c.827 0 1.5.673 1.5 1.5S9.453 6 8.626 6h-.751a.75.75 0 0 0 0 1.5h2.775v.75ZM12.75 9.375H12a1.125 1.125 0 0 1-1.125-1.125V7.5c0-.621.504-1.125 1.125-1.125h.75c.207 0 .375.168.375.375V9a.375.375 0 0 1-.375.375ZM14.625 6.938H13.35v.375h1.275a.188.188 0 1 0 0-.375ZM14.625 8.438H13.35v.375h1.275a.188.188 0 1 0 0-.375ZM18.42 13.736a1.125 1.125 0 0 0-.796-.329H11.14c-.298 0-.584.118-.795.329L7.731 16.35l-4.387.364a.374.374 0 0 0-.344.373v2.338c0 .207.168.375.375.375h.412v-.431a2.25 2.25 0 0 1 4.5 0v.431h7.463v-.431a2.25 2.25 0 0 1 4.5 0v.431h.375a.375.375 0 0 0 .375-.375v-2.644c0-.298-.119-.585-.33-.796l-2.25-2.249Zm-4.505.758-.002 1.538a.374.374 0 0 1-.375.374H9.279a.225.225 0 0 1-.159-.384l1.793-1.794c.07-.07.166-.11.265-.11h2.362a.377.377 0 0 1 .375.376Zm5.572 1.912h-4.485a.375.375 0 0 1-.375-.375v-1.537c0-.207.168-.375.375-.375h2.585c.099 0 .195.04.265.11l1.793 1.794a.225.225 0 0 1-.158.383Z" fill="#fff"/><path fill-rule="evenodd" clip-rule="evenodd" d="M18.016 20.336a.937.937 0 1 1 0-1.874.937.937 0 0 1 0 1.874Zm-.021-2.658a1.707 1.707 0 1 0 .002 3.414 1.707 1.707 0 0 0-.002-3.414ZM6.039 20.336a.938.938 0 1 1 .001-1.875.938.938 0 0 1-.001 1.875Zm0-2.644a1.707 1.707 0 1 0 .002 3.414 1.707 1.707 0 0 0-.002-3.414Z" fill="#fff"/></g><defs><clipPath id="a"><path fill="#fff" d="M0 0h24v24H0z"/></clipPath></defs></svg>