<svg class="color-immutable" width="24" height="24" viewBox="0 0 24 24" fill="none" xmlns="http://www.w3.org/2000/svg"><g clip-path="url(#a)"><path d="M0 22.5v-21C0 .675.675 0 1.5 0h21c.825 0 1.5.675 1.5 1.5v21c0 .825-.675 1.5-1.5 1.5h-21C.675 24 0 23.325 0 22.5Z" fill="#237F52"/><path d="M8.185 3v10.322H5.1a1.035 1.035 0 1 0 0 2.072l3.083-.001v4.365L6.944 21h6.024l.99-1.056c.257-.274.799-.393 1.21-.263.412.129.536.457.279.733l-.55.586h3.79l1.249-1.243V3H8.185Zm9.958 1.613a1.35 1.35 0 1 1 .001 2.7 1.35 1.35 0 0 1-.001-2.7Zm1.018 7.32h-2.458a.52.52 0 0 1-.52-.52V9.474l-2.277 2.279 2.075 2.075a.691.691 0 0 1 .202.491v4.193a.693.693 0 0 1-1.385 0v-3.809l-2.608-2.606-2.751 2.751a.687.687 0 0 1-.49.202H5.102a.692.692 0 1 1 0-1.385h3.463l5.922-5.923h-1.372L11.188 9.67a.487.487 0 0 1-.83-.343.48.48 0 0 1 .143-.343l2.043-2.043a.692.692 0 0 1 .49-.204h2.42c.958 0 1.733.776 1.733 1.732v2.424h1.973c.288 0 .52.232.52.519a.518.518 0 0 1-.52.521Z" fill="#fff"/></g><defs><clipPath id="a"><path fill="#fff" d="M0 0h24v24H0z"/></clipPath></defs></svg>