<svg class="color-immutable" width="30" height="30" viewBox="0 0 30 30" fill="none" xmlns="http://www.w3.org/2000/svg"><g clip-path="url(#a)"><path d="M30 0H0v30h30V0Z" fill="#237F52"/><path d="M25.5 3c.825 0 1.5.675 1.5 1.5v21c0 .825-.675 1.5-1.5 1.5h-21c-.825 0-1.5-.675-1.5-1.5v-21C3 3.675 3.675 3 4.5 3h21Zm0-.375h-21A1.877 1.877 0 0 0 2.625 4.5v21c0 1.034.841 1.875 1.875 1.875h21a1.877 1.877 0 0 0 1.875-1.875v-21A1.877 1.877 0 0 0 25.5 2.625Z" fill="#fff"/><path d="M9.45 10.35a1.35 1.35 0 1 1-2.7 0 1.35 1.35 0 0 1 2.7 0ZM15.57 18l-1.516-1.517-2.608 2.607v3.81a.693.693 0 0 1-1.385 0v-4.194c0-.185.071-.36.202-.491l2.075-2.075-2.277-2.28v1.94a.52.52 0 0 1-.52.52H7.083a.52.52 0 1 1 0-1.04h1.973v-2.423c0-.956.775-1.732 1.733-1.732h2.42c.183 0 .36.074.49.204l2.043 2.042a.485.485 0 0 1-.686.685l-1.927-1.928h-1.372L17.627 18H15.57Z" fill="#fff"/><path d="m10.5 17.448 1.125-1.125v-.367L10.5 14.831v2.617Z" fill="#fff"/><path d="M10.5 6v4.77c.094-.013.19-.02.289-.02h.836V7.125h11.25v11.25H12.691l-.87.87v.255H24V6H10.5Z" fill="#fff"/></g><defs><clipPath id="a"><path fill="#fff" d="M0 0h30v30H0z"/></clipPath></defs></svg>