<svg class="color-immutable" width="24" height="24" viewBox="0 0 24 24" fill="none" xmlns="http://www.w3.org/2000/svg"><g clip-path="url(#a)"><path d="M0 22.5v-21C0 .675.675 0 1.5 0h21c.825 0 1.5.675 1.5 1.5v21c0 .825-.675 1.5-1.5 1.5h-21C.675 24 0 23.325 0 22.5Z" fill="#237F52"/><path d="M18.899 6a1.35 1.35 0 1 1 .001 2.7A1.35 1.35 0 0 1 18.9 6Zm-9.527 9 5.87-5.872h-1.371l-1.927 1.928a.487.487 0 0 1-.83-.343.48.48 0 0 1 .143-.343L13.3 8.327a.692.692 0 0 1 .49-.204h2.42c.958 0 1.733.776 1.733 1.732v2.424h1.973a.519.519 0 1 1 0 1.039h-2.458a.52.52 0 0 1-.52-.52v-1.939l-2.277 2.279 2.075 2.075a.691.691 0 0 1 .202.491v4.193a.692.692 0 1 1-1.385 0V16.09l-2.608-2.606L11.43 15H9.372Z" fill="#fff"/><path d="m16.5 14.447-1.125-1.124v-.367l1.125-1.125v2.616Z" fill="#fff"/><path d="M16.5 3v4.77a2.114 2.114 0 0 0-.289-.02h-.836V4.125H4.125v11.25h10.184l.871.87v.255H3V3h13.5Z" fill="#fff"/></g><defs><clipPath id="a"><path fill="#fff" d="M0 0h24v24H0z"/></clipPath></defs></svg>