<svg class="color-immutable" width="30" height="30" viewBox="0 0 30 30" fill="none" xmlns="http://www.w3.org/2000/svg"><g clip-path="url(#a)"><path d="M30 0H0v30h30V0Z" fill="#237F52"/><path d="M25.5 3c.825 0 1.5.675 1.5 1.5v21c0 .825-.675 1.5-1.5 1.5h-21c-.825 0-1.5-.675-1.5-1.5v-21C3 3.675 3.675 3 4.5 3h21Zm0-.375h-21A1.877 1.877 0 0 0 2.625 4.5v21c0 1.034.841 1.875 1.875 1.875h21a1.877 1.877 0 0 0 1.875-1.875v-21A1.877 1.877 0 0 0 25.5 2.625Z" fill="#fff"/><path d="m11.421 6.02-1.232.378.01 4.327 1.46-.448a.446.446 0 0 0 .314-.42l.02-3.41a.444.444 0 0 0-.572-.428ZM14.93 19.353a.444.444 0 0 0-.494-.172l-1.462.447 2.418 3.588 1.232-.379a.444.444 0 0 0 .235-.675l-1.93-2.81Z" fill="#fff"/><path d="M11.575 20.2A17.15 17.15 0 0 1 8.8 11.155l.881-.271-.01-4.327-1.263.386a2.226 2.226 0 0 0-1.385 1.243 12.484 12.484 0 0 0 4.746 15.467c.546.349 1.222.44 1.842.25l1.262-.387-2.417-3.587-.881.271ZM19.06 7.573c0-.591.224-1.076.8-1.076.392 0 .804.315.804 1.076 0 .573-.261 1.05-.803 1.05-.596 0-.801-.55-.801-1.05Zm-.564-.004c0 .863.507 1.536 1.37 1.536.762 0 1.363-.582 1.363-1.532 0-.886-.524-1.573-1.368-1.573-.767 0-1.365.594-1.365 1.57ZM15.73 8.093c0 .294.213 1.012 1.264 1.012.998 0 1.2-.59 1.2-.96 0-.493-.345-.767-.757-.834-.092-.017-.336-.052-.428-.066-.32-.049-.616-.056-.616-.346 0-.268.249-.41.567-.41.305 0 .614.118.636.477h.577c-.017-.302-.232-.959-1.211-.959-.617 0-1.124.32-1.124.942 0 .654.607.784 1.024.836.091.011.292.04.346.049.25.04.411.158.411.37 0 .286-.323.417-.604.417-.353 0-.699-.144-.699-.528h-.586ZM21.54 8.093c0 .294.212 1.012 1.263 1.012.997 0 1.197-.59 1.197-.96 0-.493-.343-.767-.754-.834-.093-.017-.337-.052-.428-.066-.32-.049-.617-.056-.617-.346 0-.268.25-.41.568-.41.305 0 .614.118.636.477h.576c-.018-.302-.231-.959-1.21-.959-.617 0-1.125.32-1.125.942 0 .654.608.784 1.024.836.091.011.293.04.346.049.251.04.41.158.41.37 0 .286-.32.417-.602.417-.35 0-.7-.144-.7-.528h-.584Z" fill="#fff"/></g><defs><clipPath id="a"><path fill="#fff" d="M0 0h30v30H0z"/></clipPath></defs></svg>