<svg class="color-immutable" width="30" height="30" viewBox="0 0 30 30" fill="none" xmlns="http://www.w3.org/2000/svg"><g clip-path="url(#a)"><path d="M30 30H0V0h30v30Z" fill="#2D327D"/><path d="M25.5 3c.825 0 1.5.675 1.5 1.5v21c0 .825-.675 1.5-1.5 1.5h-21c-.825 0-1.5-.675-1.5-1.5v-21C3 3.675 3.675 3 4.5 3h21Zm0-.375h-21A1.877 1.877 0 0 0 2.625 4.5v21c0 1.034.841 1.875 1.875 1.875h21a1.877 1.877 0 0 0 1.875-1.875v-21A1.877 1.877 0 0 0 25.5 2.625Z" fill="#fff"/><path d="m6.261 19.182-.003.001a3.45 3.45 0 0 0-.257 1.282c-.003.394 0 3.535 0 3.535h7.822c.083-.189.316-.61.564-1.144a1.785 1.785 0 0 1-.728.148c-.3 0-.61-.068-.896-.198l-3.51-1.596c-.503-.228-.89-.627-1.063-1.092a1.363 1.363 0 0 1 .024-1.055l1.588-3.412.872-1.876a1.359 1.359 0 0 0-.377-1.426.681.681 0 0 0-1.086.238l-2.95 6.595ZM15.515 23.967a.806.806 0 0 1 .019-1.61h1.478a.806.806 0 0 1 .018 1.61h-1.515ZM16.434 22.002a.806.806 0 0 1 .018-1.61h1.478a.806.806 0 0 1 .02 1.61h-1.516ZM17.342 20.048a.806.806 0 0 1 .018-1.61h1.478a.806.806 0 0 1 .02 1.61h-1.516ZM18.245 18.153a.806.806 0 0 1 .018-1.612h1.478a.806.806 0 0 1 .019 1.611h-1.515Z" fill="#fff"/><path d="M19.51 10.822a1.7 1.7 0 0 0-.822-.757l-3.51-1.595a1.834 1.834 0 0 0-.753-.167h-.045c-.494.014-.892.243-1.065.614L8.528 19.21c-.111.24-.116.511-.014.787.14.38.462.707.882.898l3.51 1.595c.24.11.5.167.752.167h.045c.495-.014.893-.243 1.065-.613l4.788-10.294c.13-.282.115-.611-.046-.928Zm-7.312 9.928a.504.504 0 0 1-.673.228.499.499 0 0 1-.24-.665.504.504 0 0 1 .672-.23c.252.122.36.42.24.667Zm2.374-.408-4.618-2.077 4.022-8.72 4.618 2.075-4.022 8.722ZM7.96 6.666h-.467a.343.343 0 0 0-.122-.252.474.474 0 0 0-.304-.086.46.46 0 0 0-.27.068.222.222 0 0 0-.096.192c0 .073.03.127.092.16.06.032.21.078.452.138.256.064.433.128.531.192a.563.563 0 0 1 .272.497.647.647 0 0 1-.273.55c-.161.119-.38.177-.654.177-.306 0-.543-.07-.712-.209-.17-.14-.257-.338-.263-.595h.489c.007.125.04.218.097.278.09.097.226.145.407.145.123 0 .22-.024.293-.072a.26.26 0 0 0 .121-.226c0-.096-.057-.165-.17-.21a6 6 0 0 0-.444-.133 2.619 2.619 0 0 1-.341-.114.736.736 0 0 1-.197-.12.54.54 0 0 1-.172-.425c0-.216.09-.387.269-.513.153-.108.351-.162.595-.162.215 0 .394.043.539.128.208.122.317.32.329.592ZM9.366 5.946c.3 0 .551.099.754.295.224.218.335.512.335.883 0 .32-.084.585-.253.796-.208.255-.49.382-.85.382-.367 0-.655-.13-.864-.392-.165-.207-.247-.468-.247-.783 0-.373.107-.664.321-.872.211-.206.48-.309.804-.309Zm-.024.41a.534.534 0 0 0-.437.205c-.113.139-.17.325-.17.56 0 .243.056.432.167.568a.53.53 0 0 0 .198.15c.08.036.165.054.256.054.18 0 .32-.062.424-.187.12-.144.18-.34.18-.586 0-.234-.055-.42-.164-.559a.546.546 0 0 0-.454-.206ZM12.458 6.666h-.468a.342.342 0 0 0-.122-.252.474.474 0 0 0-.304-.086.46.46 0 0 0-.27.068.222.222 0 0 0-.096.192c0 .073.031.127.092.16.06.032.21.078.453.138.255.064.432.128.53.192a.563.563 0 0 1 .273.497.647.647 0 0 1-.274.55c-.161.119-.38.177-.654.177-.306 0-.543-.07-.712-.209-.17-.14-.257-.338-.263-.595h.489c.007.125.04.218.097.278.09.097.226.145.408.145.123 0 .22-.024.292-.072a.26.26 0 0 0 .121-.226c0-.096-.057-.165-.17-.21a5.993 5.993 0 0 0-.443-.133 2.62 2.62 0 0 1-.342-.114.737.737 0 0 1-.197-.12.54.54 0 0 1-.172-.425c0-.216.09-.387.27-.513.152-.108.35-.162.594-.162.215 0 .394.043.539.128.208.122.318.32.329.592Z" fill="#fff"/></g><defs><clipPath id="a"><path fill="#fff" d="M0 0h30v30H0z"/></clipPath></defs></svg>