<svg class="color-immutable" width="30" height="30" viewBox="0 0 30 30" fill="none" xmlns="http://www.w3.org/2000/svg"><g clip-path="url(#a)"><path d="M30 0H0v30h30V0Z" fill="#237F52"/><path d="M25.5 3c.825 0 1.5.675 1.5 1.5v21c0 .825-.675 1.5-1.5 1.5h-21c-.825 0-1.5-.675-1.5-1.5v-21C3 3.675 3.675 3 4.5 3h21Zm0-.375h-21A1.877 1.877 0 0 0 2.625 4.5v21c0 1.034.841 1.875 1.875 1.875h21a1.877 1.877 0 0 0 1.875-1.875v-21A1.877 1.877 0 0 0 25.5 2.625Z" fill="#fff"/><path d="M13.088 9.262a1.013 1.013 0 1 1-2.026 0 1.013 1.013 0 0 1 2.026 0ZM17.678 15l-1.138-1.137-1.955 1.954v2.857a.52.52 0 0 1-1.04 0V15.53a.52.52 0 0 1 .152-.369l1.557-1.556-1.708-1.71v1.455a.39.39 0 0 1-.39.39h-1.844a.39.39 0 1 1 0-.78h1.48v-1.818a1.3 1.3 0 0 1 1.3-1.298h1.815a.52.52 0 0 1 .367.152l1.532 1.532a.364.364 0 0 1-.515.514l-1.444-1.446h-1.03L19.222 15h-1.543Z" fill="#fff"/><path d="m16.125 14.586-.844-.844v-.275l.844-.844v1.963Z" fill="#fff"/><path d="M13.875 6v3.578c.07-.01.143-.016.216-.016h.628V6.844h8.437v8.437H15.52l-.653.653v.191H24V6H13.875ZM6 6.375v17.25c0 .219.19.396.413.373a.387.387 0 0 0 .337-.39v-.92h4.5c.002 0 .003 0 .003.003v.934c0 .218.189.394.41.373.197-.018.34-.196.34-.393V14.02h-.691a.64.64 0 0 1-.059-.003v2.291a.003.003 0 0 1-.003.003h-4.5v-2.625h3.983a.666.666 0 0 1-.092-.337c0-.013 0-.025.002-.037H6.75v-2.626h4.5c.002 0 .003.002.003.004v1.991a.677.677 0 0 1 .059-.003h.691v-2.126a1.288 1.288 0 0 1-.75-.292v.049a.003.003 0 0 1-.003.002h-4.5V7.688h4.5c.002 0 .003 0 .003.003v.573c.206-.17.466-.276.75-.291V6.375a.376.376 0 0 0-.41-.373c-.197.018-.34.196-.34.393v.915a.003.003 0 0 1-.003.003h-4.5v-.92a.387.387 0 0 0-.337-.391.376.376 0 0 0-.413.373Zm.75 13.313h4.5c.002 0 .003 0 .003.003v2.619a.003.003 0 0 1-.003.003h-4.5v-2.625Zm0-3h4.5c.002 0 .003 0 .003.003v2.619a.003.003 0 0 1-.003.003h-4.5v-2.625Z" fill="#fff"/></g><defs><clipPath id="a"><path fill="#fff" d="M0 0h30v30H0z"/></clipPath></defs></svg>