<svg class="color-immutable" width="24" height="24" viewBox="0 0 24 24" fill="none" xmlns="http://www.w3.org/2000/svg"><g clip-path="url(#a)"><path d="M0 22.5v-21C0 .675.675 0 1.5 0h21c.825 0 1.5.675 1.5 1.5v21c0 .825-.675 1.5-1.5 1.5h-21C.675 24 0 23.325 0 22.5Z" fill="#237F52"/><path d="M14.924 5.25a1.012 1.012 0 1 1 .001 2.025 1.012 1.012 0 0 1-.001-2.025ZM7.779 12l4.403-4.404h-1.029L9.71 9.043a.364.364 0 0 1-.515-.514l1.532-1.532a.522.522 0 0 1 .367-.153h1.815a1.3 1.3 0 0 1 1.3 1.299v1.818h1.48a.389.389 0 1 1 0 .779h-1.844a.39.39 0 0 1-.39-.39V8.896l-1.708 1.709 1.556 1.556c.098.099.152.23.152.369v3.145a.52.52 0 1 1-1.039 0v-2.857l-1.956-1.955L9.322 12H7.78Z" fill="#fff"/><path d="m13.125 11.586-.844-.844v-.275l.844-.844v1.963Z" fill="#fff"/><path d="M13.125 3v3.578a1.547 1.547 0 0 0-.216-.015h-.627V3.844H3.844v8.438h7.638l.653.653v.191H3V3h10.125ZM20.587 3.002a.387.387 0 0 0-.337.391v.92h-4.5c-.002 0-.003-.001-.003-.003v-.915c0-.197-.143-.375-.34-.394a.376.376 0 0 0-.41.373v1.597c.284.016.544.122.75.292V4.69c0-.002 0-.003.003-.003h4.5v2.625h-4.5c-.002 0-.003-.001-.003-.003v-.048c-.206.17-.466.276-.75.292V9.68h.69l.06.003V7.69c0-.002 0-.003.003-.003h4.5v2.625h-3.893l.002.038a.665.665 0 0 1-.092.337h3.983v2.625h-4.5c-.002 0-.003-.001-.003-.003v-2.291a.568.568 0 0 1-.06.003h-.69v9.583c0 .197.143.375.339.394a.376.376 0 0 0 .41-.373v-.935c0-.002.002-.003.004-.003h4.5v.92c0 .196.142.371.337.391a.375.375 0 0 0 .413-.373V3.375a.375.375 0 0 0-.413-.373Zm-.337 16.31h-4.5c-.002 0-.003-.001-.003-.003V16.69c0-.002 0-.003.003-.003h4.5v2.625Zm0-3h-4.5c-.002 0-.003-.001-.003-.003V13.69c0-.002 0-.003.003-.003h4.5v2.625Z" fill="#fff"/></g><defs><clipPath id="a"><path fill="#fff" d="M0 0h24v24H0z"/></clipPath></defs></svg>