<svg class="color-immutable" width="30" height="30" viewBox="0 0 30 30" fill="none" xmlns="http://www.w3.org/2000/svg"><g clip-path="url(#a)"><path d="M30 0H0v30h30V0Z" fill="#237F52"/><path d="M25.5 3c.825 0 1.5.675 1.5 1.5v21c0 .825-.675 1.5-1.5 1.5h-21c-.825 0-1.5-.675-1.5-1.5v-21C3 3.675 3.675 3 4.5 3h21Zm0-.375h-21A1.877 1.877 0 0 0 2.625 4.5v21c0 1.034.841 1.875 1.875 1.875h21a1.877 1.877 0 0 0 1.875-1.875v-21A1.877 1.877 0 0 0 25.5 2.625Z" fill="#fff"/><path d="m8.877 19.307 1.933-1.933v1.208L8.393 21l-2.417-2.417v-1.208l1.934 1.933v-4.592h.967v4.592ZM22.83 6v2.886h.002c0 .408-.33.738-.738.738h-9.372a.738.738 0 0 1-.737-.738h.002l.002-2.884L10.826 6v8.817a1.902 1.902 0 0 0 1.757 1.894v-1.17a.74.74 0 0 1-.593-.724v-3.293c0-.406.331-.736.738-.736H22.1c.405 0 .736.33.736.736v3.293a.739.739 0 0 1-.606.725v1.17A1.902 1.902 0 0 0 24 14.817V6h-1.17Z" fill="#fff"/><path d="M21.17 14.222a.783.783 0 0 0-.783.782v2.044h-.313v-2.99a.782.782 0 1 0-1.565 0v2.38h-.314v-3.004a.782.782 0 1 0-1.564 0v2.36h-.314V13.77a.782.782 0 1 0-1.564 0v3.928h-.314V15.69a1.17 1.17 0 0 0-.782-1.104.586.586 0 0 0-.78.552v3.775l-.003.002c0 .39.081.794.212 1.108l1.377 3.326h6.49l.8-1.943c.133-.346.199-.713.199-1.106v-5.295a.782.782 0 0 0-.783-.782Z" fill="#fff"/></g><defs><clipPath id="a"><path fill="#fff" d="M0 0h30v30H0z"/></clipPath></defs></svg>