<svg class="color-immutable" width="30" height="30" viewBox="0 0 30 30" fill="none" xmlns="http://www.w3.org/2000/svg"><g clip-path="url(#a)"><path d="M30 0H0v30h30V0Z" fill="#237F52"/><path d="M25.5 3c.825 0 1.5.675 1.5 1.5v21c0 .825-.675 1.5-1.5 1.5h-21c-.825 0-1.5-.675-1.5-1.5v-21C3 3.675 3.675 3 4.5 3h21Zm0-.375h-21A1.877 1.877 0 0 0 2.625 4.5v21c0 1.034.841 1.875 1.875 1.875h21a1.877 1.877 0 0 0 1.875-1.875v-21A1.877 1.877 0 0 0 25.5 2.625Z" fill="#fff"/><path d="m9.183 8.7-.007-2.613 5.276.004.061 1.523.957 1.067-6.287.02ZM11.82 12.63c-2.587 0-2.637-3.353-2.637-3.387v-.071l5.354-.02-.002.073c-.002.034-.132 3.405-2.716 3.405ZM15.087 23.984H8.65V13.16h5.253a.087.087 0 0 1 .02-.002h8.92a1.149 1.149 0 0 1 0 2.296h-7.756v8.53ZM8.118 23.984H5.995v-8.139c0-2.212 2.019-2.637 2.039-2.64l.085-.017-.001 10.796ZM17.498 10.972l-.386-.237.085-.124a2.493 2.493 0 0 0-.017-2.848l-.086-.123.383-.241.078.111a2.93 2.93 0 0 1 .02 3.35l-.077.112Z" fill="#fff"/><path d="m18.404 11.453-.368-.262.093-.118a3.033 3.033 0 0 0 .01-3.776l-.092-.118.37-.26.084.107a3.469 3.469 0 0 1-.012 4.32l-.085.107Z" fill="#fff"/><path d="m19.36 11.915-.36-.273.097-.115a3.571 3.571 0 0 0 .86-2.326c0-.855-.315-1.692-.884-2.354l-.099-.114.358-.277.089.103a4.06 4.06 0 0 1 .99 2.642c0 .96-.333 1.862-.963 2.61l-.088.104Z" fill="#fff"/></g><defs><clipPath id="a"><path fill="#fff" d="M0 0h30v30H0z"/></clipPath></defs></svg>