<svg class="color-immutable" width="24" height="24" viewBox="0 0 24 24" fill="none" xmlns="http://www.w3.org/2000/svg"><g clip-path="url(#a)"><path d="M0 22.5v-21C0 .675.675 0 1.5 0h21c.825 0 1.5.675 1.5 1.5v21c0 .825-.675 1.5-1.5 1.5h-21C.675 24 0 23.325 0 22.5Z" fill="#237F52"/><path d="m8.421 3.02-1.232.378.01 4.327 1.461-.448a.444.444 0 0 0 .313-.421l.02-3.409a.444.444 0 0 0-.572-.427ZM11.93 16.353a.443.443 0 0 0-.493-.172l-1.462.447 2.417 3.588 1.232-.379a.445.445 0 0 0 .235-.675l-1.929-2.809Z" fill="#fff"/><path d="M8.575 17.2A17.164 17.164 0 0 1 5.8 8.155l.882-.271-.012-4.327-1.262.386a2.22 2.22 0 0 0-1.385 1.243A12.475 12.475 0 0 0 8.77 20.653c.546.349 1.222.44 1.842.249l1.262-.387-2.417-3.587-.881.272ZM16.06 4.573c0-.592.224-1.076.801-1.076.391 0 .803.315.803 1.076 0 .572-.26 1.05-.803 1.05-.596 0-.8-.55-.8-1.05Zm-.564-.004c0 .863.507 1.535 1.37 1.535.762 0 1.363-.582 1.363-1.532 0-.885-.525-1.572-1.368-1.572-.767 0-1.365.594-1.365 1.569ZM12.729 5.093c0 .294.214 1.013 1.264 1.013.998 0 1.199-.591 1.199-.96 0-.494-.344-.768-.756-.835-.092-.017-.336-.052-.428-.066-.32-.049-.616-.056-.616-.346 0-.267.249-.409.568-.409.304 0 .614.117.635.477h.577c-.017-.302-.232-.959-1.211-.959-.617 0-1.124.32-1.124.942 0 .655.607.784 1.024.836.092.011.293.04.346.049.251.04.411.159.411.371 0 .285-.323.417-.604.417-.353 0-.699-.144-.699-.529h-.586v-.001ZM18.54 5.093c0 .294.212 1.013 1.263 1.013C20.8 6.105 21 5.515 21 5.146c0-.494-.343-.768-.754-.835-.092-.017-.336-.052-.428-.066-.32-.049-.616-.056-.616-.346 0-.267.25-.409.568-.409.305 0 .614.117.635.477h.576c-.018-.302-.231-.959-1.21-.959-.617 0-1.124.32-1.124.942 0 .655.608.784 1.024.836.091.011.293.04.346.049.251.04.411.159.411.371 0 .285-.321.417-.603.417-.351 0-.699-.144-.699-.529h-.586v-.001Z" fill="#fff"/></g><defs><clipPath id="a"><path fill="#fff" d="M0 0h24v24H0z"/></clipPath></defs></svg>