<svg class="color-immutable" width="24" height="24" viewBox="0 0 24 24" fill="none" xmlns="http://www.w3.org/2000/svg"><g clip-path="url(#a)"><path d="M0 22.5v-21C0 .675.675 0 1.5 0h21c.825 0 1.5.675 1.5 1.5v21c0 .825-.675 1.5-1.5 1.5h-21C.675 24 0 23.325 0 22.5Z" fill="#237F52"/><path d="M10.087 6.263a1.013 1.013 0 1 1-2.027 0 1.013 1.013 0 0 1 2.027 0ZM14.678 12l-1.137-1.137-1.956 1.955v2.857a.52.52 0 0 1-1.039 0V12.53c0-.139.054-.27.152-.369l1.556-1.556-1.708-1.709v1.454a.39.39 0 0 1-.39.39H8.312a.39.39 0 1 1 0-.779h1.48V8.142a1.3 1.3 0 0 1 1.3-1.299h1.815c.138 0 .27.055.367.153l1.532 1.532a.363.363 0 1 1-.515.514l-1.445-1.446h-1.029L16.221 12h-1.543Z" fill="#fff"/><path d="m13.125 11.586-.844-.844v-.275l.844-.844v1.963Z" fill="#fff"/><path d="M10.875 3v3.578c.071-.01.143-.015.216-.015h.627V3.844h8.438v8.438h-7.638l-.653.653v.191H21V3H10.875ZM3 3.375v17.25c0 .219.19.396.413.373a.387.387 0 0 0 .337-.391v-.92h4.5c.002 0 .003.001.003.003v.935c0 .218.189.394.411.373.196-.019.339-.197.339-.394v-9.583h-.691a.568.568 0 0 1-.059-.003v2.291c0 .002-.001.003-.003.003h-4.5v-2.625h3.983a.665.665 0 0 1-.092-.337l.002-.038H3.75V7.688h4.5c.002 0 .003.001.003.003v1.992a.568.568 0 0 1 .059-.003h.691V7.553a1.289 1.289 0 0 1-.75-.292v.049c0 .002-.001.003-.003.003h-4.5V4.688h4.5c.002 0 .003.001.003.003v.574c.206-.17.466-.276.75-.292V3.375a.376.376 0 0 0-.411-.373c-.196.018-.339.196-.339.393v.915c0 .002-.001.003-.003.003h-4.5v-.92a.387.387 0 0 0-.337-.391.375.375 0 0 0-.413.373Zm.75 13.313h4.5c.002 0 .003.001.003.003v2.619c0 .002-.001.003-.003.003h-4.5v-2.625Zm0-3h4.5c.002 0 .003.001.003.003v2.619c0 .002-.001.003-.003.003h-4.5v-2.625Z" fill="#fff"/></g><defs><clipPath id="a"><path fill="#fff" d="M0 0h24v24H0z"/></clipPath></defs></svg>