<svg class="color-immutable" width="30" height="30" viewBox="0 0 30 30" fill="none" xmlns="http://www.w3.org/2000/svg"><g clip-path="url(#a)"><path d="M30 0H0v30h30V0Z" fill="#237F52"/><path d="M25.5 3c.825 0 1.5.675 1.5 1.5v21c0 .825-.675 1.5-1.5 1.5h-21c-.825 0-1.5-.675-1.5-1.5v-21C3 3.675 3.675 3 4.5 3h21Zm0-.375h-21A1.877 1.877 0 0 0 2.625 4.5v21c0 1.034.841 1.875 1.875 1.875h21a1.877 1.877 0 0 0 1.875-1.875v-21A1.877 1.877 0 0 0 25.5 2.625Z" fill="#fff"/><path d="M7.065 6v16.757L8.313 24h3.79l-.55-.586c-.256-.276-.132-.604.278-.733.412-.13.954-.01 1.211.263l.99 1.056h6.023l-1.24-1.243v-4.365l3.084.001a1.037 1.037 0 0 0 0-2.071h-3.084V6H7.066Zm3.142 2.963a1.35 1.35 0 1 1-2.7 0 1.35 1.35 0 0 1 2.7 0Zm-2.888 5.45c0-.288.233-.52.52-.52h1.974V11.47c0-.955.775-1.731 1.732-1.731h2.42c.184 0 .361.074.49.203l2.043 2.043a.485.485 0 0 1-.686.685l-1.926-1.928h-1.372l5.922 5.923H21.9a.692.692 0 1 1 0 1.385h-3.848a.687.687 0 0 1-.49-.202l-2.75-2.75-2.608 2.606v3.809a.694.694 0 0 1-1.385 0v-4.193c0-.185.071-.36.202-.491l2.075-2.075-2.277-2.28v1.94a.52.52 0 0 1-.52.52H7.839a.52.52 0 0 1-.52-.52Z" fill="#fff"/></g><defs><clipPath id="a"><path fill="#fff" d="M0 0h30v30H0z"/></clipPath></defs></svg>