<svg class="color-immutable" width="24" height="24" viewBox="0 0 24 24" fill="none" xmlns="http://www.w3.org/2000/svg"><path fill-rule="evenodd" clip-rule="evenodd" d="M22.5 0h-21C.675 0 0 .675 0 1.5v21c0 .825.675 1.5 1.5 1.5h21c.825 0 1.5-.675 1.5-1.5v-21c0-.825-.675-1.5-1.5-1.5Z" fill="#2D327D"/><path fill-rule="evenodd" clip-rule="evenodd" d="M6.037 14.895a4.503 4.503 0 0 0-2.887-1.92l-.15.803 3.795 4.057a4.475 4.475 0 0 0-.758-2.94ZM15.765 16.005a5.636 5.636 0 0 1 4.162-.87l.488-2.475L7.53 15.345c.398.99.503 2.077.293 3.15l5.557 1.087a5.591 5.591 0 0 1 2.385-3.577ZM6.96 14.28c.007.015.022.03.03.045l6.45-1.343L4.095 8.19l-.728 3.697A5.605 5.605 0 0 1 6.96 14.28ZM20.648 11.475 21 9.66 4.44 6.412l-.128.645 10.86 5.558 5.476-1.14Z" fill="#fff"/><path fill-rule="evenodd" clip-rule="evenodd" d="m14.595 19.305 4.965-2.288.158-.802a4.557 4.557 0 0 0-5.123 3.09Z" fill="#fff"/></svg>