<svg class="color-immutable" width="24" height="24" viewBox="0 0 24 24" fill="none" xmlns="http://www.w3.org/2000/svg"><g clip-path="url(#a)"><path d="M0 22.5v-21C0 .675.675 0 1.5 0h21c.825 0 1.5.675 1.5 1.5v21c0 .825-.675 1.5-1.5 1.5h-21C.675 24 0 23.325 0 22.5Z" fill="#2D327D"/><path d="M8.624 14.787v-2.49a1.163 1.163 0 0 1 1.668-1.047l2.143 1.036-1.133.744-1.452-.702-.147.304 1.27.614-2.349 1.541ZM12.749 12.08V9.59a1.163 1.163 0 0 1 1.669-1.046l2.143 1.036-1.133.744-1.452-.702-.147.304 1.27.614-2.35 1.54Z" fill="#fff"/><path d="M5.624 21a2.626 2.626 0 0 1 0-5.25h2.564c.219 0 .434-.064.617-.184l12.194-8.002v5.562L8.999 21H5.624ZM16.874 9.373v-2.49a1.163 1.163 0 0 1 1.669-1.046l2.143 1.036-1.133.744-1.452-.702-.147.304 1.27.614-2.35 1.54ZM17.058 4.488a.976.976 0 1 1 1.951.001.976.976 0 0 1-1.951-.001ZM12.933 7.158a.976.976 0 1 1 1.951.001.976.976 0 0 1-1.951-.001ZM8.808 9.828a.976.976 0 1 1 1.951.001.976.976 0 0 1-1.951-.001Z" fill="#fff"/></g><defs><clipPath id="a"><path fill="#fff" d="M0 0h24v24H0z"/></clipPath></defs></svg>