<svg class="color-immutable" width="24" height="24" viewBox="0 0 24 24" fill="none" xmlns="http://www.w3.org/2000/svg"><g clip-path="url(#a)"><path d="M0 22.5v-21C0 .675.675 0 1.5 0h21c.825 0 1.5.675 1.5 1.5v21c0 .825-.675 1.5-1.5 1.5h-21C.675 24 0 23.325 0 22.5Z" fill="#237F52"/><path d="M15.375 3a.376.376 0 0 0-.375.375v.938H9v-.938A.376.376 0 0 0 8.625 3a.376.376 0 0 0-.375.375v17.25c0 .206.169.375.375.375A.376.376 0 0 0 9 20.625v-.938h6v.938c0 .206.169.375.375.375a.376.376 0 0 0 .375-.375V3.375A.376.376 0 0 0 15.375 3ZM15 19.312H9v-2.625h6v2.625Zm0-3H9v-2.625h6v2.625Zm0-3H9v-2.625h6v2.625Zm0-3H9V7.688h6v2.624Zm0-3H9V4.688h6v2.624Z" fill="#fff"/></g><defs><clipPath id="a"><path fill="#fff" d="M0 0h24v24H0z"/></clipPath></defs></svg>