<svg class="color-immutable" width="24" height="24" viewBox="0 0 24 24" fill="none" xmlns="http://www.w3.org/2000/svg"><g clip-path="url(#a)"><path d="M0 22.5v-21C0 .675.675 0 1.5 0h21c.825 0 1.5.675 1.5 1.5v21c0 .825-.675 1.5-1.5 1.5h-21C.675 24 0 23.325 0 22.5Z" fill="#2D327D"/><path d="M10.907 4.978a.976.976 0 1 1 .001-1.951.976.976 0 0 1-.001 1.951ZM14.668 7.405a.976.976 0 1 1 .001-1.951.976.976 0 0 1-.001 1.951ZM18.429 7.943a.976.976 0 1 1-.001 1.951.976.976 0 0 1 .001-1.951ZM12.849 8.382a.58.58 0 1 1-1.086.414l-.699-1.834-.35.134.314.824-1.278-.841v-.636a1.14 1.14 0 0 1 2.205-.406l.894 2.345ZM16.599 10.852a.58.58 0 1 1-1.086.414l-.699-1.833-.35.134.314.824-1.278-.842v-.636a1.14 1.14 0 0 1 2.205-.406l.894 2.345ZM17.25 12.019v-.636a1.14 1.14 0 0 1 2.205-.406l.894 2.345a.58.58 0 1 1-1.086.414l-.699-1.833-.35.134.314.824-1.278-.842ZM5.625 12.75a2.626 2.626 0 0 1 0-5.25h2.996c.22 0 .435.064.619.186L21 15.432V21L8.475 12.75h-2.85Z" fill="#fff"/></g><defs><clipPath id="a"><path fill="#fff" d="M0 0h24v24H0z"/></clipPath></defs></svg>