<svg class="color-immutable" width="30" height="30" viewBox="0 0 30 30" fill="none" xmlns="http://www.w3.org/2000/svg"><g clip-path="url(#a)"><path d="M30 0H0v30h30V0Z" fill="#237F52"/><path d="M25.5 3c.825 0 1.5.675 1.5 1.5v21c0 .825-.675 1.5-1.5 1.5h-21c-.825 0-1.5-.675-1.5-1.5v-21C3 3.675 3.675 3 4.5 3h21Zm0-.375h-21A1.877 1.877 0 0 0 2.625 4.5v21c0 1.034.841 1.875 1.875 1.875h21a1.877 1.877 0 0 0 1.875-1.875v-21A1.877 1.877 0 0 0 25.5 2.625Z" fill="#fff"/><path d="M18.375 6a.376.376 0 0 0-.375.375v.938h-6v-.938A.376.376 0 0 0 11.625 6a.376.376 0 0 0-.375.375v17.25c0 .206.169.375.375.375a.376.376 0 0 0 .375-.375v-.938h6v.938c0 .206.169.375.375.375a.376.376 0 0 0 .375-.375V6.375A.376.376 0 0 0 18.375 6ZM18 22.313h-6v-2.625h6v2.625Zm0-3h-6v-2.625h6v2.625Zm0-3h-6v-2.625h6v2.624Zm0-3h-6v-2.626h6v2.626Zm0-3h-6V7.687h6v2.625Z" fill="#fff"/></g><defs><clipPath id="a"><path fill="#fff" d="M0 0h30v30H0z"/></clipPath></defs></svg>