<svg class="color-immutable" width="30" height="30" viewBox="0 0 30 30" fill="none" xmlns="http://www.w3.org/2000/svg"><path d="M30 0H0v30h30V0Z" fill="#2D327D"/><path d="M25.5 3c.825 0 1.5.675 1.5 1.5v21c0 .825-.675 1.5-1.5 1.5h-21c-.825 0-1.5-.675-1.5-1.5v-21C3 3.675 3.675 3 4.5 3h21Zm0-.375h-21A1.877 1.877 0 0 0 2.625 4.5v21c0 1.034.841 1.875 1.875 1.875h21a1.877 1.877 0 0 0 1.875-1.875v-21A1.877 1.877 0 0 0 25.5 2.625Z" fill="#fff"/><path d="M11.624 17.787v-2.49a1.163 1.163 0 0 1 1.669-1.047l2.143 1.036-1.133.743-1.452-.701-.147.303 1.27.614-2.35 1.542ZM15.749 15.08v-2.49a1.163 1.163 0 0 1 1.668-1.047l2.143 1.036-1.133.743-1.451-.701-.147.303 1.27.614-2.35 1.542Z" fill="#fff"/><path d="M8.624 24a2.626 2.626 0 0 1 0-5.25h2.564c.219 0 .434-.064.617-.185l12.194-8.002v5.562L12 24H8.624ZM19.874 12.373v-2.49a1.163 1.163 0 0 1 1.668-1.047l2.143 1.036-1.133.744-1.451-.702-.147.303 1.27.614-2.35 1.542ZM20.058 7.488a.975.975 0 1 1 1.95.001.975.975 0 0 1-1.95 0ZM15.933 10.158a.975.975 0 1 1 1.95.001.975.975 0 0 1-1.95 0ZM11.808 12.828a.975.975 0 1 1 1.951.001.975.975 0 0 1-1.95 0Z" fill="#fff"/></svg>