<svg class="color-immutable" width="24" height="24" viewBox="0 0 24 24" fill="none" xmlns="http://www.w3.org/2000/svg"><g clip-path="url(#a)"><path d="M0 22.5v-21C0 .675.675 0 1.5 0h21c.825 0 1.5.675 1.5 1.5v21c0 .825-.675 1.5-1.5 1.5h-21C.675 24 0 23.325 0 22.5Z" fill="#2D327D"/><path d="M15.375 14.787v-2.49a1.163 1.163 0 0 0-1.668-1.047l-2.143 1.036 1.133.744 1.452-.702.147.304-1.27.614 2.349 1.541ZM11.25 12.08V9.59a1.163 1.163 0 0 0-1.669-1.046L7.439 9.579l1.133.744 1.452-.702.147.304-1.27.614 2.349 1.541Z" fill="#fff"/><path d="M18.375 21a2.626 2.626 0 0 0 0-5.25h-2.564c-.219 0-.434-.064-.617-.184L3 7.563v5.562L15 21h3.375ZM7.125 9.373v-2.49a1.163 1.163 0 0 0-1.669-1.046L3.314 6.872l1.133.744 1.452-.702.147.304-1.27.614 2.349 1.541ZM6.942 4.488a.976.976 0 1 0-1.951.001.976.976 0 0 0 1.951-.001ZM11.066 7.158a.976.976 0 1 0-1.951.001.976.976 0 0 0 1.951-.001ZM15.191 9.828a.976.976 0 1 0-1.951.001.976.976 0 0 0 1.951-.001Z" fill="#fff"/></g><defs><clipPath id="a"><path fill="#fff" d="M0 0h24v24H0z"/></clipPath></defs></svg>