<svg class="color-immutable" width="24" height="24" viewBox="0 0 24 24" fill="none" xmlns="http://www.w3.org/2000/svg"><path fill-rule="evenodd" clip-rule="evenodd" d="M22.5 0h-21C.675 0 0 .675 0 1.5v21c0 .825.675 1.5 1.5 1.5h21c.825 0 1.5-.675 1.5-1.5v-21c0-.825-.675-1.5-1.5-1.5Z" fill="#2D327D"/><path fill-rule="evenodd" clip-rule="evenodd" d="M3.412 21h17.175c.27 0 .45-.277.346-.525a9.77 9.77 0 0 0-4.793-4.913.374.374 0 0 0-.345.016 7.815 7.815 0 0 1-3.795.967 7.815 7.815 0 0 1-3.795-.968.374.374 0 0 0-.345-.014 9.798 9.798 0 0 0-4.793 4.912.374.374 0 0 0 .345.525Z" fill="#fff"/><path fill-rule="evenodd" clip-rule="evenodd" d="M18 3a3 3 0 0 1 3 3c0 1.357-.9 2.498-2.13 2.873.037.255.052.51.052.772 0 3.533-3.097 6.39-6.922 6.39-3.825 0-6.923-2.865-6.923-6.39 0-.262.023-.518.053-.772A3.004 3.004 0 0 1 3 6a3 3 0 0 1 5.393-1.808A7.337 7.337 0 0 1 12 3.255c1.32 0 2.557.345 3.607.938A2.987 2.987 0 0 1 18 3Zm-9.735 7.178c0 .434.352.794.795.794a.786.786 0 0 0 .795-.794.8.8 0 0 0-.795-.796.795.795 0 0 0-.795.796Zm4.485 3.847c-.277 0-.547-.068-.75-.18-.203.112-.473.18-.75.18-.637 0-1.133-.465-1.133-.863 0-.09.075-.165.165-.165.09 0 .165.075.165.165 0 .21.346.533.803.533.217 0 .428-.053.585-.135v-.96c-.435-.053-.765-.33-.765-.652 0-.368.42-.668.93-.668.518 0 .93.3.93.668 0 .33-.33.6-.765.652v.96c.15.082.36.135.585.135.457 0 .803-.322.803-.533 0-.09.074-.165.164-.165.09 0 .165.075.165.165 0 .398-.495.863-1.132.863Zm1.395-3.848c0 .436.353.796.795.796a.8.8 0 0 0 .795-.796.795.795 0 0 0-1.59 0Z" fill="#fff"/></svg>