<svg class="color-immutable" width="30" height="30" viewBox="0 0 30 30" fill="none" xmlns="http://www.w3.org/2000/svg"><path d="M30 0H0v30h30V0Z" fill="#2D327D"/><path d="M25.5 3c.825 0 1.5.675 1.5 1.5v21c0 .825-.675 1.5-1.5 1.5h-21c-.825 0-1.5-.675-1.5-1.5v-21C3 3.675 3.675 3 4.5 3h21Zm0-.375h-21A1.877 1.877 0 0 0 2.625 4.5v21c0 1.034.841 1.875 1.875 1.875h21a1.877 1.877 0 0 0 1.875-1.875v-21A1.877 1.877 0 0 0 25.5 2.625Z" fill="#fff"/><path d="M6.411 24h17.177c.27 0 .453-.278.345-.525a9.787 9.787 0 0 0-4.793-4.916.376.376 0 0 0-.342.015 7.821 7.821 0 0 1-3.798.971 7.821 7.821 0 0 1-3.798-.971.376.376 0 0 0-.342-.015 9.787 9.787 0 0 0-4.793 4.916.375.375 0 0 0 .344.525Z" fill="#fff"/><path d="M24 9a3 3 0 0 0-5.393-1.809A7.322 7.322 0 0 0 15 6.256a7.321 7.321 0 0 0-3.607.935 3 3 0 1 0-3.263 4.68 5.96 5.96 0 0 0-.05.774c0 3.528 3.098 6.389 6.92 6.389s6.92-2.86 6.92-6.39c0-.261-.017-.52-.05-.773A3 3 0 0 0 24 9Zm-11.937 4.974a.797.797 0 1 1 0-1.595.797.797 0 0 1 0 1.595Zm3.685 3.051c-.278 0-.544-.064-.748-.178-.204.114-.47.178-.748.178-.637 0-1.132-.465-1.132-.866a.166.166 0 1 1 .332 0c0 .21.344.534.8.534.218 0 .429-.05.582-.134v-.962c-.435-.056-.764-.327-.764-.654 0-.367.416-.664.93-.664s.93.297.93.664c0 .327-.33.598-.764.654v.962c.153.085.364.134.582.134.456 0 .8-.324.8-.534a.166.166 0 1 1 .332 0c0 .4-.495.866-1.132.866Zm2.189-3.051a.797.797 0 1 1 0-1.595.797.797 0 0 1 0 1.595Z" fill="#fff"/></svg>