<svg class="color-immutable" width="24" height="24" viewBox="0 0 24 24" fill="none" xmlns="http://www.w3.org/2000/svg"><path fill-rule="evenodd" clip-rule="evenodd" d="M22.5 0h-21C.675 0 0 .675 0 1.5v21c0 .825.675 1.5 1.5 1.5h21c.825 0 1.5-.675 1.5-1.5v-21c0-.825-.675-1.5-1.5-1.5Z" fill="#9B2423"/><path fill-rule="evenodd" clip-rule="evenodd" d="M9.285 5.175V6.54c1.027 0 1.875 1.027 1.867 1.853V21H5.107V8.385c0-1.125.87-1.83 1.785-1.853h.045V5.325l-1.312.51-.938.96-.045 1.147-.75.023s-.12-.465 0-1.38c.12-.915.353-1.08.353-1.08L6.33 3.652h.915V3h1.777v.825l.915-.022.608.255v.885l-.63.21-.63.022ZM5.79 12.563h4.687v-2.79H5.79v2.79ZM20.1 12.082V9.795s-.518-.128-1.058-.818c-.45-.57-1.11-2.422-1.11-2.422s-.577 1.912.188 3.375c.863 1.665 1.98 2.152 1.98 2.152ZM15.607 9.113c.218.885.646 2.467 1.583 3.3 1.455 1.297 2.94.69 2.94.69s-1.117-.398-1.77-1.515c-.652-1.118-1.035-2.64-1.815-3.33-1.08-.953-1.935-.6-1.935-.6s.75.435.998 1.455Z" fill="#fff"/><path fill-rule="evenodd" clip-rule="evenodd" d="M15.247 11.018s-.487 1.717 1.058 3.472c1.747 1.988 3.802 2.123 3.802 2.123v-2.288s-1.35-.12-2.61-.975c-1.695-1.147-2.25-2.332-2.25-2.332ZM17.625 18.352c1.762.24 2.475-.682 2.475-.682s-.795-.075-1.845-.735c-.758-.48-1.815-2.04-3.03-2.04-1.403 0-1.643.54-1.643.54s.653.127 1.26.585c.878.66 1.335 2.13 2.783 2.332Z" fill="#fff"/><path fill-rule="evenodd" clip-rule="evenodd" d="M17.797 18.975c-1.237-.112-2.647-1.23-2.647-1.23s.007 1.118.96 2.19c.952 1.073 2.122 1.058 2.505 1.065.352.008 1.485-.022 1.485-.022l-.023-2.19s-1.05.3-2.28.187Z" fill="#fff"/></svg>