<svg class="color-immutable" width="24" height="24" viewBox="0 0 24 24" fill="none" xmlns="http://www.w3.org/2000/svg"><g clip-path="url(#a)"><path d="M0 22.5v-21C0 .675.675 0 1.5 0h21c.825 0 1.5.675 1.5 1.5v21c0 .825-.675 1.5-1.5 1.5h-21C.675 24 0 23.325 0 22.5Z" fill="#9B2423"/><path d="M9.283 6.539V5.178l.634-.022.633-.212v-.89l-.61-.258-.915.02V3h-1.78v.656H6.33L4.245 5.508s-.236.164-.352 1.078c-.117.914 0 1.382 0 1.382l.75-.022.047-1.15.938-.959 1.312-.51v1.211l-.047.002c-.915.024-1.781.725-1.781 1.851V21h6.046V8.391c0-.821-.844-1.852-1.875-1.852Zm1.195 6.022H5.792V9.773h4.686v2.788ZM20.101 12.082V9.798s-.517-.131-1.055-.814c-.448-.571-1.11-2.42-1.11-2.42s-.578 1.913.186 3.375c.863 1.657 1.979 2.143 1.979 2.143ZM15.61 9.109c.219.882.648 2.468 1.584 3.301 1.459 1.297 2.942.69 2.942.69s-1.12-.398-1.77-1.515c-.653-1.117-1.032-2.642-1.817-3.328-1.083-.952-1.936-.597-1.936-.597s.747.435.997 1.449Z" fill="#fff"/><path d="M15.247 11.017s-.49 1.717 1.055 3.475c1.747 1.987 3.799 2.119 3.799 2.119v-2.285s-1.352-.123-2.61-.977c-1.692-1.148-2.244-2.332-2.244-2.332ZM17.625 18.35c1.765.242 2.476-.682 2.476-.682s-.796-.075-1.843-.737c-.757-.48-1.813-2.036-3.031-2.036-1.402 0-1.644.541-1.644.541s.652.129 1.26.585c.875.657 1.337 2.13 2.782 2.329Z" fill="#fff"/><path d="M17.796 18.974c-1.235-.115-2.647-1.227-2.647-1.227s.006 1.116.96 2.188c.955 1.071 2.122 1.056 2.506 1.064.349.009 1.487-.022 1.487-.022l-.024-2.188s-1.05.301-2.282.185Z" fill="#fff"/></g><defs><clipPath id="a"><path fill="#fff" d="M0 0h24v24H0z"/></clipPath></defs></svg>