<svg class="color-immutable" width="30" height="30" viewBox="0 0 30 30" fill="none" xmlns="http://www.w3.org/2000/svg"><g clip-path="url(#a)"><path d="M30 0H0v30h30V0Z" fill="#9B2423"/><path d="M25.5 3c.825 0 1.5.675 1.5 1.5v21c0 .825-.675 1.5-1.5 1.5h-21c-.825 0-1.5-.675-1.5-1.5v-21C3 3.675 3.675 3 4.5 3h21Zm0-.375h-21A1.877 1.877 0 0 0 2.625 4.5v21c0 1.034.841 1.875 1.875 1.875h21a1.877 1.877 0 0 0 1.875-1.875v-21A1.877 1.877 0 0 0 25.5 2.625Z" fill="#fff"/><path d="M12.283 9.54V8.177l.634-.022.632-.212v-.89l-.61-.258-.914.02V6h-1.78v.656H9.33L7.245 8.508s-.236.164-.352 1.078c-.118.914 0 1.382 0 1.382l.75-.022.047-1.15.937-.959 1.313-.51v1.21l-.047.002c-.915.025-1.782.726-1.782 1.853V24h6.047V11.392c0-.822-.844-1.853-1.875-1.853Zm1.195 6.02H8.792v-2.787h4.686v2.788ZM23.1 15.082v-2.284s-.516-.131-1.054-.814c-.449-.572-1.11-2.42-1.11-2.42s-.58 1.912.185 3.374c.864 1.658 1.98 2.144 1.98 2.144ZM18.61 12.109c.22.882.648 2.468 1.584 3.3 1.459 1.298 2.942.69 2.942.69s-1.12-.398-1.77-1.515c-.653-1.117-1.032-2.642-1.818-3.328-1.083-.952-1.936-.597-1.936-.597s.748.436.998 1.45Z" fill="#fff"/><path d="M18.247 14.017s-.49 1.718 1.054 3.476c1.747 1.987 3.8 2.119 3.8 2.119v-2.285s-1.352-.123-2.61-.976c-1.692-1.15-2.244-2.334-2.244-2.334ZM20.625 21.35c1.765.242 2.476-.682 2.476-.682s-.796-.075-1.843-.737c-.758-.48-1.814-2.036-3.032-2.036-1.401 0-1.644.541-1.644.541s.651.129 1.26.585c.876.657 1.338 2.13 2.783 2.329Z" fill="#fff"/><path d="M20.796 21.974c-1.236-.115-2.648-1.227-2.648-1.227s.007 1.116.96 2.188c.956 1.07 2.123 1.056 2.507 1.063.349.01 1.487-.021 1.487-.021l-.024-2.188s-1.05.301-2.282.185Z" fill="#fff"/></g><defs><clipPath id="a"><path fill="#fff" d="M0 0h30v30H0z"/></clipPath></defs></svg>