<svg class="color-immutable" width="24" height="24" viewBox="0 0 24 24" fill="none" xmlns="http://www.w3.org/2000/svg"><path fill-rule="evenodd" clip-rule="evenodd" d="M22.5 0h-21C.675 0 0 .675 0 1.5v21c0 .825.675 1.5 1.5 1.5h21c.825 0 1.5-.675 1.5-1.5v-21c0-.825-.675-1.5-1.5-1.5Z" fill="#2D327D"/><path fill-rule="evenodd" clip-rule="evenodd" d="m4.125 9 1.313 2.055 4.687-.18L9 3h1.845l2.632 7.875h6.398c.622 0 1.125.502 1.125 1.125s-.503 1.125-1.125 1.125h-6.398L10.845 21H9l1.125-7.875-4.688-.18L4.125 15H3l.75-3L3 9h1.125Z" fill="#fff"/></svg>