<svg class="color-immutable" width="24" height="24" viewBox="0 0 24 24" fill="none" xmlns="http://www.w3.org/2000/svg"><path fill-rule="evenodd" clip-rule="evenodd" d="M22.5 0h-21C.675 0 0 .675 0 1.5v21c0 .825.675 1.5 1.5 1.5h21c.825 0 1.5-.675 1.5-1.5v-21c0-.825-.675-1.5-1.5-1.5Z" fill="#2D327D"/><path fill-rule="evenodd" clip-rule="evenodd" d="M5.25 17.933a.17.17 0 0 0-.15.165v2.812c0 .082.068.15.15.15h3.405a.15.15 0 0 0 .15-.15v-3.18a.134.134 0 0 0-.15-.135l-3.405.338ZM9.975 15.773H8.828V13.89a.3.3 0 0 0-.3-.3H4.883l-.39-1.305a1.317 1.317 0 0 1-.045-.293V10.02a.15.15 0 0 1 .15-.15h.262a.3.3 0 0 0 .3-.3V7.192a.3.3 0 0 0-.3-.3H3.248a.3.3 0 0 0-.3.3v5.018c0 .082.022.217.045.292l1.38 4.62a.77.77 0 0 0 .772.518l3.668-.36h1.162a.3.3 0 0 0 .3-.3v-.907a.3.3 0 0 0-.3-.3Zm-1.95.075-2.1.202a.375.375 0 0 1-.382-.255l-.195-.66-.225-.75h2.752a.15.15 0 0 1 .15.15v1.313ZM15.922 17.933a.17.17 0 0 0-.15.165v2.812c0 .082.068.15.15.15h3.405a.15.15 0 0 0 .15-.15v-3.18a.134.134 0 0 0-.15-.135l-3.405.338ZM20.648 15.773H19.5V13.89a.3.3 0 0 0-.3-.3h-3.645l-.39-1.305a1.317 1.317 0 0 1-.045-.293V10.02a.15.15 0 0 1 .15-.15h.263a.3.3 0 0 0 .3-.3V7.192a.3.3 0 0 0-.3-.3h-1.62a.3.3 0 0 0-.3.3v5.018c0 .082.022.217.045.292l1.38 4.62a.77.77 0 0 0 .772.518l3.667-.36h1.17a.3.3 0 0 0 .3-.3v-.907a.3.3 0 0 0-.3-.3Zm-1.95.075-2.1.202a.375.375 0 0 1-.383-.255l-.195-.66-.225-.75h2.752a.15.15 0 0 1 .15.15v1.313Z" fill="#fff"/></svg>