<svg class="color-immutable" width="24" height="24" viewBox="0 0 24 24" fill="none" xmlns="http://www.w3.org/2000/svg"><path fill-rule="evenodd" clip-rule="evenodd" d="M22.5 0h-21C.675 0 0 .675 0 1.5v21c0 .825.675 1.5 1.5 1.5h21c.825 0 1.5-.675 1.5-1.5v-21c0-.825-.675-1.5-1.5-1.5Z" fill="#2D327D"/><path fill-rule="evenodd" clip-rule="evenodd" d="m19.875 9-1.313 2.055-4.687-.18L15 3h-1.845l-2.632 7.875H4.125C3.502 10.875 3 11.377 3 12s.502 1.125 1.125 1.125h6.398L13.155 21H15l-1.125-7.875 4.688-.18L19.875 15H21l-.75-3L21 9h-1.125Z" fill="#fff"/></svg>