<svg class="color-immutable" width="24" height="24" viewBox="0 0 24 24" fill="none" xmlns="http://www.w3.org/2000/svg"><path fill-rule="evenodd" clip-rule="evenodd" d="M22.5 0h-21C.675 0 0 .675 0 1.5v21c0 .825.675 1.5 1.5 1.5h21c.825 0 1.5-.675 1.5-1.5v-21c0-.825-.675-1.5-1.5-1.5Z" fill="#2D327D"/><path fill-rule="evenodd" clip-rule="evenodd" d="M5.138 11.1a.3.3 0 0 0-.3.3c0 .428.307.787.734.855l2.423.375a.219.219 0 0 1-.03.435H3.54c-.3 0-.54.24-.54.54 0 .3.24.54.54.54h2.857c.196 0 .353.158.353.353 0 .195-.157.36-.353.36H3.54c-.3 0-.54.24-.54.54 0 .3.24.54.54.54h2.857a.352.352 0 1 1 0 .704H3.54c-.3 0-.54.24-.54.54 0 .3.24.54.54.54h2.857a.352.352 0 1 1 0 .705H3.54c-.3 0-.54.24-.54.54 0 .3.24.54.54.54H15v-2.325a.567.567 0 0 0-.563-.562h-.75a.562.562 0 1 1 0-1.125h.75a.567.567 0 0 0 .563-.563v-2.325l-9.817-1.5c-.015-.007-.03-.007-.045-.007Z" fill="#fff"/><path fill-rule="evenodd" clip-rule="evenodd" d="m20.828 13.807-1.043-1.042a.562.562 0 0 0-.398-.165h-.457V8.325h.758A1.31 1.31 0 0 0 21 7.012c0-.727-.593-1.312-1.313-1.312h-.562a.371.371 0 0 0-.375.375c0 .202.165.375.375.375h.563a.562.562 0 1 1 0 1.125h-3.195V5.7L4.402 7.575H3v.75h1.402l12.09 1.875V8.325h2.063V12.6h-.457c-.15 0-.293.06-.398.165l-1.043 1.042a.562.562 0 0 0-.165.398v6.232c0 .308.255.563.563.563h3.375a.562.562 0 0 0 .563-.563v-6.232a.575.575 0 0 0-.165-.398Zm-1.65 5.693h-.93v-.915h.93v.915Zm.224-1.98c.323-.225.54-.42.653-.578.105-.157.165-.352.18-.6 0-.352-.127-.637-.383-.87-.255-.232-.607-.352-1.042-.352-.555 0-.967.188-1.237.563-.166.225-.256.524-.278.907h.87c.015-.488.225-.735.63-.735.157 0 .277.045.375.135a.432.432 0 0 1 .142.345.558.558 0 0 1-.075.3 1.32 1.32 0 0 1-.292.292c-.195.158-.323.27-.383.338a.765.765 0 0 0-.15.255c-.03.082-.052.165-.06.24a8.078 8.078 0 0 0-.022.435h.795c0-.18.023-.323.067-.42a.568.568 0 0 1 .21-.255Z" fill="#fff"/></svg>