<svg class="color-immutable" width="24" height="24" viewBox="0 0 24 24" fill="none" xmlns="http://www.w3.org/2000/svg"><g clip-path="url(#a)"><path d="M0 22.5v-21C0 .675.675 0 1.5 0h21c.825 0 1.5.675 1.5 1.5v21c0 .825-.675 1.5-1.5 1.5h-21C.675 24 0 23.325 0 22.5Z" fill="#2D327D"/><path d="M3.375 17.145a.397.397 0 0 0 .091-.011l17.25-4.312a.377.377 0 0 0 .284-.365v-8.61a.825.825 0 0 0-1.029-.799l-16.35 4.17A.825.825 0 0 0 3 8.017v8.753c0 .207.168.375.375.375Zm13.313-12.12c0-.207.168-.375.375-.375h2.812c.207 0 .375.168.375.375v4.5a.375.375 0 0 1-.375.375h-2.812a.375.375 0 0 1-.375-.375v-4.5Zm-4.313 1.102c0-.207.168-.375.375-.375h2.812c.207 0 .375.168.375.375v4.5a.375.375 0 0 1-.375.375H12.75a.375.375 0 0 1-.375-.375v-4.5ZM8.062 7.225c0-.207.168-.375.375-.375h2.813c.207 0 .375.168.375.375v4.5a.375.375 0 0 1-.375.375H8.438a.375.375 0 0 1-.375-.375v-4.5h-.001Zm-4.312 1.1c0-.207.168-.375.375-.375h2.812c.207 0 .375.168.375.375v4.5a.375.375 0 0 1-.375.375H4.125a.375.375 0 0 1-.375-.375v-4.5ZM21 15.727l-18 4.5V21l18-4.5v-.773ZM7.179 17.399a1.088 1.088 0 1 0 2.177-.001 1.088 1.088 0 0 0-2.177.001ZM4.473 18.131a1.088 1.088 0 1 0 2.177-.001 1.088 1.088 0 0 0-2.177.001ZM14.618 15.538a1.088 1.088 0 1 0 2.177-.001 1.088 1.088 0 0 0-2.177.001ZM17.38 14.861a1.088 1.088 0 1 0 2.177-.001 1.088 1.088 0 0 0-2.177.001Z" fill="#fff"/></g><defs><clipPath id="a"><path fill="#fff" d="M0 0h24v24H0z"/></clipPath></defs></svg>