<svg class="color-immutable" width="30" height="30" viewBox="0 0 30 30" fill="none" xmlns="http://www.w3.org/2000/svg"><g clip-path="url(#a)"><path d="M30 0H0v30h30V0Z" fill="#2D327D"/><path d="M25.5 3c.825 0 1.5.675 1.5 1.5v21c0 .825-.675 1.5-1.5 1.5h-21c-.825 0-1.5-.675-1.5-1.5v-21C3 3.675 3.675 3 4.5 3h21Zm0-.375h-21A1.877 1.877 0 0 0 2.625 4.5v21c0 1.034.841 1.875 1.875 1.875h21a1.877 1.877 0 0 0 1.875-1.875v-21A1.877 1.877 0 0 0 25.5 2.625Z" fill="#fff"/><path d="M23.625 20.145A.375.375 0 0 0 24 19.77v-8.753a.825.825 0 0 0-.621-.8l-16.35-4.17a.825.825 0 0 0-1.029.8v8.61c0 .172.117.322.284.364l17.25 4.312c.03.008.06.012.091.012ZM10.312 8.025v4.5a.375.375 0 0 1-.375.375H7.125a.375.375 0 0 1-.375-.375v-4.5c0-.207.168-.375.375-.375h2.812c.207 0 .375.168.375.375Zm4.313 1.102v4.5a.375.375 0 0 1-.375.374h-2.813a.375.375 0 0 1-.375-.374v-4.5c0-.207.168-.376.375-.376h2.813c.207 0 .375.169.375.376Zm4.312 1.098v4.5a.375.375 0 0 1-.375.375H15.75a.375.375 0 0 1-.375-.375v-4.5c0-.207.168-.375.375-.375h2.812c.207 0 .375.168.375.375Zm4.313 1.1v4.5a.375.375 0 0 1-.375.375h-2.813a.375.375 0 0 1-.375-.375v-4.5c0-.207.168-.375.375-.375h2.813c.207 0 .375.168.375.375ZM6 18.727l18 4.5V24L6 19.5v-.773ZM19.822 20.398a1.088 1.088 0 1 1-2.177 0 1.088 1.088 0 0 1 2.177 0ZM22.527 21.131a1.088 1.088 0 1 1-2.176 0 1.088 1.088 0 0 1 2.176 0ZM12.382 18.538a1.088 1.088 0 1 1-2.176 0 1.088 1.088 0 0 1 2.176 0ZM9.62 17.861a1.088 1.088 0 1 1-2.176 0 1.088 1.088 0 0 1 2.176 0Z" fill="#fff"/></g><defs><clipPath id="a"><path fill="#fff" d="M0 0h30v30H0z"/></clipPath></defs></svg>