<svg class="color-immutable" width="24" height="24" viewBox="0 0 24 24" fill="none" xmlns="http://www.w3.org/2000/svg"><path fill-rule="evenodd" clip-rule="evenodd" d="M22.5 0h-21C.675 0 0 .675 0 1.5v21c0 .825.675 1.5 1.5 1.5h21c.825 0 1.5-.675 1.5-1.5v-21c0-.825-.675-1.5-1.5-1.5Z" fill="#2D327D"/><path fill-rule="evenodd" clip-rule="evenodd" d="m14.648 10.68 5.535 2.595c.48.232.81.727.81 1.29 0 .795-.645 1.447-1.448 1.447H4.447A1.448 1.448 0 0 1 3 14.566c0-.57.33-1.057.81-1.297l5.542-2.596a2.156 2.156 0 0 0 1.058-1.77V8.85c0-.03.03-.06.06-.06h.765c.03 0 .06.03.06.06V12.382c0 .398.315.713.713.713a.712.712 0 0 0 .712-.713V7.2a.712.712 0 1 0-1.425 0v.067c0 .03-.03.06-.06.06h-.765c-.03 0-.06-.03-.06-.06V7.2c0-.87.72-1.59 1.59-1.59.87 0 1.59.712 1.59 1.59v1.71c.023.757.443 1.41 1.058 1.77Zm4.89 4.485a.594.594 0 0 0 .007-1.185H4.447a.594.594 0 0 0 0 1.185h15.09Z" fill="#fff"/><path d="m20.183 13.275.218-.45-.006-.003-.212.453Zm-5.535-2.595-.253.431.02.012.02.01.213-.453Zm6.345 3.885h-.5.5ZM3.81 13.268l-.212-.454-.012.006.224.447Zm5.542-2.596.213.453.022-.01.02-.012-.255-.43Zm1.058-1.77.5.02v-.02h-.5Zm3.18.008h-.5v.015l.5-.015Zm5.955 5.07v.5-.5Zm.85-1.158-5.535-2.595-.425.906 5.535 2.595.425-.906Zm1.098 1.743c0-.76-.446-1.427-1.092-1.74l-.436.9a.938.938 0 0 1 .527.84h1Zm-1.948 1.947c1.08 0 1.947-.878 1.947-1.947h-1c0 .52-.422.947-.947.947v1Zm-15.098 0h15.098v-1H4.447v1ZM2.5 14.566c0 1.08.878 1.947 1.947 1.947v-1a.948.948 0 0 1-.947-.947h-1Zm1.086-1.745A1.949 1.949 0 0 0 2.5 14.565h1c0-.37.213-.69.534-.85l-.448-.895Zm5.554-2.6-5.542 2.595.424.905 5.543-2.595-.425-.905Zm.77-1.337a1.656 1.656 0 0 1-.812 1.36l.51.86a2.656 2.656 0 0 0 1.302-2.18l-1-.04Zm0-.033v.052h1V8.85h-1Zm.56-.56a.56.56 0 0 0-.56.56h1a.44.44 0 0 1-.128.312.44.44 0 0 1-.312.128v-1Zm.765 0h-.765v1h.765v-1Zm.56.56a.56.56 0 0 0-.56-.56v1a.44.44 0 0 1-.312-.128.44.44 0 0 1-.128-.312h1Zm0 3.518V8.85h-1v3.518h1Zm0 .014v-.014h-1v.014h1Zm.213.213a.208.208 0 0 1-.213-.213h-1c0 .674.539 1.213 1.213 1.213v-1Zm.212-.213a.212.212 0 0 1-.213.213v1c.678 0 1.213-.55 1.213-1.213h-1Zm0-5.182v5.183h1V7.2h-1Zm-.213-.213c.118 0 .213.095.213.213h1c0-.677-.55-1.213-1.213-1.213v1Zm-.212.213c0-.117.095-.213.213-.213v-1c-.678 0-1.213.55-1.213 1.213h1Zm0 .067V7.2h-1v.067h1Zm-.56.56a.56.56 0 0 0 .56-.56h-1a.44.44 0 0 1 .128-.312.44.44 0 0 1 .312-.128v1Zm-.765 0h.765v-1h-.765v1Zm-.56-.56a.56.56 0 0 0 .56.56v-1a.44.44 0 0 1 .312.128.44.44 0 0 1 .128.312h-1Zm0-.067v.067h1V7.2h-1ZM12 5.11A2.1 2.1 0 0 0 9.91 7.2h1A1.1 1.1 0 0 1 12 6.11v-1Zm2.09 2.09c0-1.155-.945-2.09-2.09-2.09v1c.595 0 1.09.49 1.09 1.09h1Zm0 1.71V7.2h-1v1.71h1Zm.81 1.338a1.622 1.622 0 0 1-.81-1.353l-1 .03c.028.939.55 1.744 1.305 2.186l.505-.863Zm4.73 4.325c0 .05-.043.092-.092.092v1c.61 0 1.092-.498 1.092-1.092h-1Zm-.085-.093a.08.08 0 0 1 .057.026.096.096 0 0 1 .028.066h1c0-.59-.478-1.092-1.085-1.092v1Zm-15.098 0h15.098v-1H4.447v1Zm-.092.092c0-.05.043-.092.092-.092v-1c-.61 0-1.092.498-1.092 1.092h1Zm.092.093a.094.094 0 0 1-.092-.092h-1c0 .61.498 1.092 1.092 1.092v-1Zm15.09 0H4.448v1h15.09v-1Z" fill="#fff"/></svg>