<svg class="color-immutable" width="24" height="24" viewBox="0 0 24 24" fill="none" xmlns="http://www.w3.org/2000/svg"><path fill-rule="evenodd" clip-rule="evenodd" d="M22.5 0h-21C.675 0 0 .675 0 1.5v21c0 .825.675 1.5 1.5 1.5h21c.825 0 1.5-.675 1.5-1.5v-21c0-.825-.675-1.5-1.5-1.5Z" fill="#2D327D"/><path fill-rule="evenodd" clip-rule="evenodd" d="m3.067 16.432 2.13-2.1a.326.326 0 0 1 .45 0l.233.233-1.545 1.53.232.232 1.988-1.965a.326.326 0 0 1 .45 0l.232.233-2.212 2.182.232.233 2.64-2.61a.326.326 0 0 1 .45 0l.233.232L5.7 17.49l.232.232 3.316-3.27a.469.469 0 0 1 .675.008.469.469 0 0 1-.008.675l-3.555 3.51a.78.78 0 0 0 .525 1.335h1.74l.188.007a.556.556 0 0 1 .518.592v.09c-.001.09-.031.18-.098.248a.345.345 0 0 1-.248.098H3.06" fill="#fff"/><path fill-rule="evenodd" clip-rule="evenodd" d="m16.77 15.66 4.395 4.395-1.05 1.065-5.452-5.453h-4.98l.382-.382a.712.712 0 0 0 .165-.255h3.795l-2.527-2.527-.953.952a.484.484 0 0 1-.682 0L8.318 11.91a.478.478 0 0 1-.008-.683l.953-.952L3.698 4.71v5.985h4.89l-.375.375H3.698v3.825c0 .075.052.135.12.135h.367l-.6.593a.772.772 0 0 1-.517-.728V4.072l-.3-.3 1.057-1.057.315.315h16.162a.76.76 0 0 1 .75.765v11.1a.76.76 0 0 1-.75.765H16.77Zm-3.54-4.905-.683.682 3.608 3.608h4.17c.067 0 .12-.06.12-.135v-3.825h-7.268l.376-.375h6.892v-6.9c0-.075-.053-.135-.12-.135H4.793l5.542 5.542.675-.682c.448-.452 1.036-.603 1.543-.734.385-.099.723-.186.917-.384.45-.457 1.537-1.365 1.537-1.365L15 6.045a.126.126 0 0 1 .008-.165l.172-.173c.053-.045.127-.045.172 0l.683.683c.045.052.045.127 0 .172l-.172.173a.126.126 0 0 1-.165.007l-.008-.007s-.893 1.095-1.35 1.552c-.198.198-.285.54-.384.926-.13.508-.28 1.095-.726 1.542Z" fill="#fff"/><path fill-rule="evenodd" clip-rule="evenodd" d="M3.825 2.715 2.768 3.772l17.34 17.348 1.057-1.065-17.34-17.34Z" fill="#EB0000"/></svg>