<svg class="color-immutable" width="24" height="24" viewBox="0 0 24 24" fill="none" xmlns="http://www.w3.org/2000/svg"><path fill-rule="evenodd" clip-rule="evenodd" d="M22.5 0h-21C.675 0 0 .675 0 1.5v21c0 .825.675 1.5 1.5 1.5h21c.825 0 1.5-.675 1.5-1.5v-21c0-.825-.675-1.5-1.5-1.5Z" fill="#2D327D"/><path fill-rule="evenodd" clip-rule="evenodd" d="M20.625 3.375v1.5h-3.75v.375H21V3H3v2.25h4.125v-.375h-3.75v-1.5h17.25ZM13.035 7.687c-.217 0-.735 0-.735.375 0 .368.51.368.735.368.24 0 .75 0 .75-.368 0-.375-.51-.375-.75-.375ZM13.035 9.645c-.217 0-.735 0-.735.375 0 .367.51.367.735.367.24 0 .75 0 .75-.367 0-.375-.51-.375-.75-.375ZM10.215 13.537H8.25v.375h1.965v-.375Z" fill="#fff"/><path fill-rule="evenodd" clip-rule="evenodd" d="M15.75 13.912V4.125h-.375v9.412H12.3v.375h3.45Z" fill="#fff"/><path fill="#fff" d="M9 14.287h1.215v.375H9z"/><path fill-rule="evenodd" clip-rule="evenodd" d="M16.5 4.125h-.375v10.162H12.3v.375h4.2V4.125Z" fill="#fff"/><path fill-rule="evenodd" clip-rule="evenodd" d="M11.325 12.248a.964.964 0 0 0-.255.052c-.398.15-.69.473-.803.862H7.5V4.125H15v9.03h-2.7a.924.924 0 0 0-.923-.907h-.052Zm1.402-.57h1.365l-.007-.466h-2.1v.368c.322.053.428.345.42.668h.322v-.57Zm.308-4.456c.84 0 1.102.383 1.102.84 0 .45-.262.833-1.102.833-.818 0-1.08-.383-1.08-.832 0-.45.262-.84 1.08-.84Zm1.102 2.805c0-.457-.262-.84-1.102-.84-.818 0-1.08.383-1.08.84 0 .45.262.833 1.08.833.84 0 1.102-.383 1.102-.832Z" fill="#fff"/><path fill-rule="evenodd" clip-rule="evenodd" d="M3.172 18.383 5.79 21H12v-7.822a.621.621 0 0 0-.623-.623h-.045a.37.37 0 0 0-.157.03c-.398.142-.66.525-.66.945v2.19c0 .27-.218.487-.48.487h-1.26a.77.77 0 0 1-.525-.217l-4.058-4.05a.688.688 0 0 0-.975 0 .688.688 0 0 0 0 .975l4.313 4.313-.24.24-3.855-3.855-.263.262a.59.59 0 0 0-.172.42c0 .158.06.308.172.42l3.45 3.443-.24.232-2.947-2.947-.263.262a.59.59 0 0 0-.172.42c0 .158.06.308.172.42L5.7 19.073l-.232.24-2.026-2.025-.262.262a.59.59 0 0 0-.173.42c-.007.15.053.3.165.413Z" fill="#fff"/></svg>