<svg class="color-immutable" width="24" height="24" viewBox="0 0 24 24" fill="none" xmlns="http://www.w3.org/2000/svg"><path fill-rule="evenodd" clip-rule="evenodd" d="M22.5 0h-21C.675 0 0 .675 0 1.5v21c0 .825.675 1.5 1.5 1.5h21c.825 0 1.5-.675 1.5-1.5v-21c0-.825-.675-1.5-1.5-1.5Z" fill="#2D327D"/><path fill-rule="evenodd" clip-rule="evenodd" d="M3 3v9h1.582a3.21 3.21 0 0 1 .488-1.125h-.945v-6.75h15.75v6.75H10.68c.225.338.39.72.488 1.125H21V3H3Z" fill="#fff"/><path fill-rule="evenodd" clip-rule="evenodd" d="M9.353 7.5a2.628 2.628 0 0 1 2.624-2.625A2.628 2.628 0 0 1 14.602 7.5a2.628 2.628 0 0 1-2.625 2.625A2.628 2.628 0 0 1 9.353 7.5Zm1.252.825c.225 0 .397-.075.518-.217a.634.634 0 0 0 .142-.406h-.322a.42.42 0 0 1-.105.255c-.053.06-.135.09-.233.09a.344.344 0 0 1-.315-.172.661.661 0 0 1-.082-.338c0-.135.03-.247.082-.337.075-.12.18-.18.323-.18.082 0 .157.023.217.068.06.045.098.112.113.194h.322a.534.534 0 0 0-.15-.33.655.655 0 0 0-.502-.202.686.686 0 0 0-.533.225.81.81 0 0 0-.202.563c0 .21.06.39.172.532.135.172.315.255.555.255Zm2.152-.037h-.33v-.653h-.614v.652h-.33v-1.5h.33v.57h.614v-.57h.33v1.5Zm1.253-.623V7.41l-.63-.008v-.345h.727V6.78H13.05v1.5h.33v-.615h.63ZM5.265 12.75a2.628 2.628 0 0 1 2.625-2.625 2.623 2.623 0 0 1 2.625 2.625 2.628 2.628 0 0 1-2.625 2.625 2.628 2.628 0 0 1-2.625-2.625Zm2.91-.9c.098.037.21.105.353.203l.172-.496a2.625 2.625 0 0 0-.262-.157 1.196 1.196 0 0 0-.54-.113c-.42 0-.743.158-.975.465-.143.18-.24.398-.293.638h-.255l-.12.33h.33v.06l.002.035a.969.969 0 0 1 .006.093h-.21l-.12.33h.39c.09.375.247.645.487.825.218.157.45.24.698.24.142 0 .367-.053.682-.143v-.578c-.172.075-.3.128-.382.158a1.009 1.009 0 0 1-.263.037c-.27 0-.465-.18-.585-.547h.788l.127-.33H7.23v-.188h1.058l.12-.33H7.29c.113-.397.308-.592.585-.592.105 0 .203.023.3.06ZM9.375 18.375A2.628 2.628 0 0 1 12 15.75a2.628 2.628 0 0 1 2.625 2.625A2.628 2.628 0 0 1 12 21a2.628 2.628 0 0 1-2.625-2.625Zm3.158 1.552c.135 0 .262-.022.382-.067a.944.944 0 0 0 .315-.203l-.255-.434a.523.523 0 0 1-.39.172c-.06 0-.15-.023-.27-.052a1.16 1.16 0 0 0-.292-.046c-.12 0-.24.03-.375.09.127-.105.217-.21.27-.292a.522.522 0 0 0 .082-.277c0-.06 0-.12-.015-.18h.428v-.346h-.54a3.43 3.43 0 0 0-.056-.147l-.05-.13a.809.809 0 0 1-.067-.293c0-.097.038-.18.113-.24a.412.412 0 0 1 .277-.09c.15 0 .27.053.353.143.06.067.097.172.097.315h.585c-.008-.308-.105-.54-.285-.705-.18-.165-.442-.247-.772-.247-.338 0-.608.082-.795.262a.7.7 0 0 0-.233.532c0 .083.008.15.023.218.014.06.044.15.09.247.014.03.037.083.06.143h-.285v.345h.434a.632.632 0 0 1-.128.645 1.53 1.53 0 0 1-.291.255l.255.382c.09-.06.165-.104.232-.127a.616.616 0 0 1 .21-.038 1.466 1.466 0 0 1 .41.076c.135.04.224.067.28.075.053.007.12.014.203.014ZM18.773 15.75a1.317 1.317 0 0 0-.263-.098v.803c.285-.037.435-.172.435-.405a.353.353 0 0 0-.172-.3ZM17.865 14.693c0 .097.03.172.083.225.06.052.157.097.307.135v-.713c-.262.015-.39.135-.39.353Z" fill="#fff"/><path fill-rule="evenodd" clip-rule="evenodd" d="M15.75 15.375a2.628 2.628 0 0 1 2.625-2.625A2.628 2.628 0 0 1 21 15.375 2.628 2.628 0 0 1 18.375 18a2.628 2.628 0 0 1-2.625-2.625Zm3.203 1.455a.982.982 0 0 0 .33-.232c.157-.158.232-.368.24-.623 0-.24-.075-.428-.226-.563-.12-.105-.33-.202-.622-.277a1.138 1.138 0 0 1-.165-.037v-.766c.232.03.352.173.36.42h.555c0-.262-.082-.465-.24-.615-.157-.142-.383-.225-.675-.24v-.367h-.248v.368a1.34 1.34 0 0 0-.45.097.816.816 0 0 0-.367.3.805.805 0 0 0-.128.443c0 .15.03.277.09.382.06.105.158.195.293.27.098.06.293.127.563.202v.87c-.3-.03-.443-.21-.443-.532h-.585c0 .337.12.593.345.773.158.127.39.202.675.217v.42h.248v-.42a1.7 1.7 0 0 0 .45-.09Z" fill="#fff"/></svg>