<svg class="color-immutable" width="24" height="24" viewBox="0 0 24 24" fill="none" xmlns="http://www.w3.org/2000/svg"><path fill-rule="evenodd" clip-rule="evenodd" d="M22.5 0h-21C.675 0 0 .675 0 1.5v21c0 .825.675 1.5 1.5 1.5h21c.825 0 1.5-.675 1.5-1.5v-21c0-.825-.675-1.5-1.5-1.5Z" fill="#2D327D"/><path fill-rule="evenodd" clip-rule="evenodd" d="M21.075 20.933h-18v-.3h18v.3ZM11.91 10.852a.3.3 0 0 0-.3.3v.93c0 .053.038.09.09.09h.42c.053 0 .09-.037.09-.09v-.93a.3.3 0 0 0-.3-.3ZM13.598 12.623a.34.34 0 0 0-.33-.3h-1.043a.087.087 0 0 0-.09.09v7.59c0 .052.037.09.09.09h1.035a.34.34 0 0 0 .33-.3s.158-1.41.158-3.585c.007-2.175-.15-3.585-.15-3.585ZM11.595 12.322H10.56a.34.34 0 0 0-.33.3s-.158 1.41-.158 3.585.158 3.585.158 3.585c.015.165.172.3.33.3h1.035c.053 0 .09-.037.09-.09v-7.59a.091.091 0 0 0-.09-.09ZM9.45 2.94h1.553c.262 0 .48.21.472.48v3.735c0 .097-.015.255-.045.352l-2.295 8.28-.382 1.388a.668.668 0 0 1-.608.465h-4.59a.483.483 0 0 1-.48-.48v-1.14c0-.263.218-.48.48-.48H6.57c.098 0 .248.022.345.052l.255.09c.045.015.09.008.12-.015.038-.022.053-.067.053-.112v-.27c0-.098.03-.255.06-.345l.195-.57.232-.683c.038-.097-.022-.172-.12-.172H3.855c-.097 0-.18-.075-.18-.165v-.518c0-.202.218-.367.48-.367h3.908a.26.26 0 0 0 .24-.173l1.62-4.785a1.16 1.16 0 0 0 .06-.352V7.02a.462.462 0 0 0-.135-.3l-.743-.66a.462.462 0 0 1-.135-.3V3.42c0-.263.218-.48.48-.48Zm1.755 4.507c.015-.075.037-.217.037-.292V3.42a.237.237 0 0 0-.24-.24H9.45a.237.237 0 0 0-.24.24v2.332c0 .03.03.098.053.12l.742.66a.698.698 0 0 1 .217.48v.135c0 .128-.03.308-.067.428l-1.62 4.785a.509.509 0 0 1-.465.337H4.155c-.15 0-.24.083-.24.128v.442H7.71c.128 0 .24.053.308.15a.38.38 0 0 1 .045.338l-.165.487-.263.773a1.07 1.07 0 0 0-.045.27v.27c0 .127-.052.24-.15.307a.38.38 0 0 1-.337.045l-.255-.082a1.194 1.194 0 0 0-.27-.045H3.555a.237.237 0 0 0-.24.24v1.14c0 .135.105.24.24.24h4.59c.15 0 .33-.135.375-.285l2.685-9.668ZM12.502 6.982V3.247a.48.48 0 0 1 .465-.48h1.553c.263 0 .48.218.48.48v2.34c0 .098-.06.233-.135.3l-.742.66a.462.462 0 0 0-.135.3v.135c0 .098.03.263.06.353l1.62 4.785a.276.276 0 0 0 .24.173h3.915c.262 0 .48.165.48.367v.518c0 .09-.083.164-.18.164h-3.856c-.097 0-.15.075-.12.173l.233.682.195.57c.03.09.06.248.06.346v.27c0 .052.022.09.052.112.03.023.075.03.12.015l.256-.09c.097-.03.247-.053.345-.053h3.022c.262 0 .48.218.48.48v1.14c0 .263-.218.48-.48.48h-4.59a.668.668 0 0 1-.607-.464l-.383-1.388-2.303-8.28a1.89 1.89 0 0 1-.045-.353Zm.48-3.975h1.553-1.553Zm1.553 0c.135 0 .24.105.24.24l-.24-.24Zm.24.24v2.34-2.34Zm0 2.34c0 .03-.03.098-.053.12l.053-.12Zm-.053.12-.742.66.742-.66Zm-.742.66a.698.698 0 0 0-.218.48l.218-.48Zm-.218.48v.135-.135Zm0 .135c0 .128.03.308.068.428l-.068-.428Zm.068.428 1.62 4.785-1.62-4.785Zm1.62 4.785a.52.52 0 0 0 .465.338l-.465-.338Zm.465.338h3.915-3.915Zm3.915 0c.15 0 .24.082.24.127l-.24-.127Zm.24.127v.36-.36Zm0 .36v.082-.082Zm0 .082h-3.795 3.795Zm-3.795 0a.364.364 0 0 0-.307.15l.307-.15Zm-.307.15a.38.38 0 0 0-.046.338l.045-.338Zm-.046.338.165.488-.165-.488Zm.165.488.263.772-.263-.772Zm.263.772c.022.068.045.203.045.27l-.045-.27Zm.045.27v.27-.27Zm0 .27c0 .127.053.24.15.307l-.15-.307Zm.15.307a.38.38 0 0 0 .337.046l-.337-.046Zm.337.046.255-.09-.255.09Zm.255-.09c.075-.023.203-.046.27-.046l-.27.046Zm.27-.046h3.023-3.023Zm3.023 0c.135 0 .24.106.24.24l-.24-.24Zm.24.24v1.14-1.14Zm0 1.14c0 .136-.105.24-.24.24l.24-.24Zm-.24.24h-4.59 4.59Zm-4.59 0c-.158 0-.338-.134-.375-.285l.375.285Zm-.375-.285L12.78 7.275l2.685 9.667ZM12.78 7.275a1.25 1.25 0 0 1-.037-.293l.037.293Zm-.037-.293V3.247v3.735Z" fill="#fff"/></svg>