<svg class="color-immutable" width="24" height="24" viewBox="0 0 24 24" fill="none" xmlns="http://www.w3.org/2000/svg"><path fill-rule="evenodd" clip-rule="evenodd" d="M22.5 0h-21C.675 0 0 .675 0 1.5v21c0 .825.675 1.5 1.5 1.5h21c.825 0 1.5-.675 1.5-1.5v-21c0-.825-.675-1.5-1.5-1.5Z" fill="#2D327D"/><path fill-rule="evenodd" clip-rule="evenodd" d="M5.535 9.66a.318.318 0 0 0 .54-.225.318.318 0 0 0-.09-.225l-.338-.337.135-.135.915.915c.068.06.15.097.24.097.188 0 .338-.15.338-.337a.361.361 0 0 0-.098-.24l-.914-.915.135-.135 1.53 1.53c.06.06.15.097.24.097.187 0 .337-.15.337-.337a.361.361 0 0 0-.098-.24l-1.53-1.53.136-.135L9.15 9.645a.354.354 0 0 0 .607-.255.357.357 0 0 0-.104-.255L6.636 6.12a.347.347 0 0 1-.097-.24c0-.187.15-.337.338-.337H8.07c.248 0 .45-.203.45-.45 0-.023 0-.045-.008-.068a.187.187 0 0 0-.187-.157H3v2.625h.375l2.16 2.167ZM14.25 18.45V13.2c0-.622-.502-1.125-1.125-1.125H10.5V11.4c0-.495-.405-.9-.9-.9H7.65c-.495 0-.9.405-.9.9v.675H4.125C3.502 12.075 3 12.578 3 13.2v5.25c0 .623.502 1.125 1.125 1.125h9c.623 0 1.125-.502 1.125-1.125Zm-6.825-7.275h2.4v.9h-2.4v-.9Zm3.712 5.438a.3.3 0 0 0 .3-.3l.016-2.595c0-.075-.03-.15-.09-.21l-.623-.623a.216.216 0 0 0-.135-.053h-.285v.375h-.375v-.375H9.66a.18.18 0 0 0-.135.053l-.623.623a.272.272 0 0 0-.09.21v2.595a.3.3 0 0 0 .3.3h2.025ZM9.75 20.325H21V21H9.75v-.675Z" fill="#fff"/></svg>