<svg class="color-immutable" width="24" height="24" viewBox="0 0 24 24" fill="none" xmlns="http://www.w3.org/2000/svg"><path fill-rule="evenodd" clip-rule="evenodd" d="M22.5 0h-21C.675 0 0 .675 0 1.5v21c0 .825.675 1.5 1.5 1.5h21c.825 0 1.5-.675 1.5-1.5v-21c0-.825-.675-1.5-1.5-1.5Z" fill="#2D327D"/><path fill-rule="evenodd" clip-rule="evenodd" d="M6.128 18.555c-.675 0-1.223.547-1.223 1.215 0 .675.548 1.222 1.223 1.222s1.215-.547 1.215-1.222c0-.675-.548-1.215-1.215-1.215ZM18.938 17.857l2.114 2.115-1.057 1.065-1.027-1.027c-.105.562-.6.982-1.193.982a1.223 1.223 0 0 1-1.223-1.222c0-.593.42-1.08.983-1.193L16.957 18H4.875V8.25h-1.5A.371.371 0 0 1 3 7.875c0-.21.165-.375.375-.375H5.25c.21 0 .375.172.375.375v9.375h10.582l-.562-.563H7.688c-.825 0-1.5-.675-1.5-1.5V10.5c0-.825.675-1.5 1.5-1.5h.27l-5.31-5.31 1.057-1.058L10.08 9h.42v-.75c0-.413.338-.75.75-.75h2.625c.412 0 .75.337.75.75V9h2.813c.825 0 1.5.675 1.5 1.5v4.687c0 .728-.518 1.335-1.2 1.47l.592.593h.608v.607ZM13.875 8.25H11.25V9h2.625v-.75Z" fill="#fff"/><path fill-rule="evenodd" clip-rule="evenodd" d="M3.705 2.632 2.648 3.69l17.34 17.347 1.064-1.065L3.705 2.632Z" fill="#EB0000"/></svg>