<svg class="color-immutable" width="24" height="24" viewBox="0 0 24 24" fill="none" xmlns="http://www.w3.org/2000/svg"><path fill-rule="evenodd" clip-rule="evenodd" d="M22.5 0h-21C.675 0 0 .675 0 1.5v21c0 .825.675 1.5 1.5 1.5h21c.825 0 1.5-.675 1.5-1.5v-21c0-.825-.675-1.5-1.5-1.5Z" fill="#2D327D"/><path fill-rule="evenodd" clip-rule="evenodd" d="M18.848 7.372a2.247 2.247 0 0 1 2.25 2.25l-.008 9a2.2 2.2 0 0 1-.293 1.103l.248.247-1.058 1.058-.314-.315a2.306 2.306 0 0 1-.825.157h-13.5a2.252 2.252 0 0 1-2.25-2.25v-9a2.247 2.247 0 0 1 2.25-2.25h.982L2.648 3.69l1.057-1.058 4.748 4.74h.87v-.937a1.31 1.31 0 0 1 1.312-1.313h2.925a1.31 1.31 0 0 1 1.313 1.313v.937h3.975Zm-5.025-1.2h-3.45v1.2h3.45v-1.2Z" fill="#fff"/><path fill-rule="evenodd" clip-rule="evenodd" d="M3.705 2.632 2.648 3.69l17.34 17.347 1.064-1.065L3.705 2.632Z" fill="#EB0000"/></svg>