<svg class="color-immutable" width="24" height="24" viewBox="0 0 24 24" fill="none" xmlns="http://www.w3.org/2000/svg"><path fill-rule="evenodd" clip-rule="evenodd" d="M22.5 0h-21C.675 0 0 .675 0 1.5v21c0 .825.675 1.5 1.5 1.5h21c.825 0 1.5-.675 1.5-1.5v-21c0-.825-.675-1.5-1.5-1.5Z" fill="#2D327D"/><path fill-rule="evenodd" clip-rule="evenodd" d="M14.775 7.5h3.975A2.247 2.247 0 0 1 21 9.75v9A2.247 2.247 0 0 1 18.75 21H5.25A2.252 2.252 0 0 1 3 18.75v-9A2.247 2.247 0 0 1 5.25 7.5h3.975v-.938a1.31 1.31 0 0 1 1.313-1.312h2.925a1.31 1.31 0 0 1 1.312 1.313V7.5Zm-4.5 0h3.45V6.3h-3.45v1.2Z" fill="#fff"/></svg>