<svg class="color-immutable" width="24" height="24" viewBox="0 0 24 24" fill="none" xmlns="http://www.w3.org/2000/svg"><path fill-rule="evenodd" clip-rule="evenodd" d="M22.5 0h-21C.675 0 0 .675 0 1.5v21c0 .825.675 1.5 1.5 1.5h21c.825 0 1.5-.675 1.5-1.5v-21c0-.825-.675-1.5-1.5-1.5Z" fill="#2D327D"/><path fill-rule="evenodd" clip-rule="evenodd" d="M17.438 16.688h-9.75c-.825 0-1.5-.675-1.5-1.5V10.5c0-.825.675-1.5 1.5-1.5H10.5v-.75c0-.412.338-.75.75-.75h2.625c.412 0 .75.338.75.75V9h2.813c.825 0 1.5.675 1.5 1.5v4.688c0 .824-.675 1.5-1.5 1.5ZM13.874 8.25H11.25V9h2.625v-.75Z" fill="#fff"/><path d="M10.5 9v.5h.5V9h-.5Zm4.125 0h-.5v.5h.5V9Zm-3.375-.75v-.5h-.5v.5h.5Zm2.625 0h.5v-.5h-.5v.5ZM11.25 9h-.5v.5h.5V9Zm2.625 0v.5h.5V9h-.5Zm-6.188 8.188h9.75v-1h-9.75v1Zm-2-2c0 1.1.9 2 2 2v-1c-.548 0-1-.452-1-1h-1Zm0-4.688v4.688h1V10.5h-1Zm2-2c-1.1 0-2 .899-2 2h1c0-.549.452-1 1-1v-1Zm2.813 0H7.687v1H10.5v-1Zm-.5-.25V9h1v-.75h-1ZM11.25 7C10.561 7 10 7.561 10 8.25h1c0-.136.114-.25.25-.25V7Zm2.625 0H11.25v1h2.625V7Zm1.25 1.25c0-.689-.561-1.25-1.25-1.25v1c.136 0 .25.114.25.25h1Zm0 .75v-.75h-1V9h1Zm2.313-.5h-2.813v1h2.813v-1Zm2 2c0-1.101-.9-2-2-2v1c.548 0 1 .451 1 1h1Zm0 4.688V10.5h-1v4.688h1Zm-2 2c1.1 0 2-.9 2-2h-1c0 .548-.452 1-1 1v1ZM11.25 8.75h2.625v-1H11.25v1Zm.5.25v-.75h-1V9h1Zm2.125-.5H11.25v1h2.625v-1Zm-.5-.25V9h1v-.75h-1Z" fill="#fff"/><path fill-rule="evenodd" clip-rule="evenodd" d="M18.938 18v-.75H5.624V7.875A.376.376 0 0 0 5.25 7.5H3.375A.371.371 0 0 0 3 7.875c0 .21.165.375.375.375h1.5V18h14.063ZM17.767 18.555c-.674 0-1.222.548-1.222 1.215 0 .675.547 1.223 1.222 1.223.675 0 1.216-.548 1.216-1.223a1.21 1.21 0 0 0-1.216-1.215ZM6.128 18.555c-.676 0-1.223.548-1.223 1.215 0 .675.547 1.223 1.223 1.223.675 0 1.215-.548 1.215-1.223s-.548-1.215-1.215-1.215Z" fill="#fff" stroke="#fff"/></svg>