<svg class="color-immutable" width="24" height="24" viewBox="0 0 24 24" fill="none" xmlns="http://www.w3.org/2000/svg"><path fill-rule="evenodd" clip-rule="evenodd" d="M22.5 0h-21C.675 0 0 .675 0 1.5v21c0 .825.675 1.5 1.5 1.5h21c.825 0 1.5-.675 1.5-1.5v-21c0-.825-.675-1.5-1.5-1.5Z" fill="#2D327D"/><path fill-rule="evenodd" clip-rule="evenodd" d="M8.227 19.575h-4.5L3 8.655v-.068c0-.555.45-1.012 1.013-1.012h3.93c.562 0 1.012.457 1.012 1.012v.068l-.728 10.92ZM4.17 8.325a.371.371 0 0 0-.375.375v.022l.225 3.353h3.923l.225-3.353V8.7a.371.371 0 0 0-.375-.375H4.17Z" fill="#fff"/><path fill-rule="evenodd" clip-rule="evenodd" d="m7.718 9.195-.263-.15-.367.652.255.15.375-.652ZM6.952 8.842l-.292-.075-.188.728.293.075.187-.728ZM5.835 8.7h.3v.75h-.3V8.7ZM5.79 11.7h.39l-.81-2.768a.185.185 0 0 0-.18-.135.186.186 0 0 0-.188.188c0 .015 0 .037.008.052l.78 2.663ZM4.875 9.705 4.5 9.052l-.263.15.375.645.263-.142ZM19.875 12.075H17.25v-.75a.823.823 0 0 0-.825-.825h-2.1a.823.823 0 0 0-.825.825v.75h-2.625c-.623 0-1.125.503-1.125 1.125v5.25c0 .623.502 1.125 1.125 1.125h9c.622 0 1.125-.502 1.125-1.125V13.2c0-.622-.503-1.125-1.125-1.125Zm-4.688 4.275a.3.3 0 0 1-.3.3h-2.024a.3.3 0 0 1-.3-.3v-2.595c0-.083.03-.158.09-.21l.66-.66a.18.18 0 0 1 .134-.053h.24v.375h.376v-.375h.24c.044 0 .097.023.134.053l.66.66c.053.053.09.135.09.21v2.595Zm-1.012-4.275h2.4v-.9h-2.4v.9ZM3 20.325h17.992V21H3v-.675Z" fill="#fff"/></svg>