<svg class="color-immutable" width="24" height="24" viewBox="0 0 24 24" fill="none" xmlns="http://www.w3.org/2000/svg"><path fill-rule="evenodd" clip-rule="evenodd" d="M22.5 0h-21C.675 0 0 .675 0 1.5v21c0 .825.675 1.5 1.5 1.5h21c.825 0 1.5-.675 1.5-1.5v-21c0-.825-.675-1.5-1.5-1.5Z" fill="#2D327D"/><path fill-rule="evenodd" clip-rule="evenodd" d="M3 7.5h.675v1.125H3V7.5ZM3 19.125h.675v1.125H3v-1.125ZM4.425 6.75h1.05V21h-1.05V6.75ZM6.15 19.163h11.7v1.087H6.15v-1.087ZM13.8 10.838h2.925c.622 0 1.125.502 1.125 1.125v5.287c0 .622-.503 1.125-1.125 1.125h-9.45A1.123 1.123 0 0 1 6.15 17.25v-5.287c0-.623.502-1.125 1.125-1.125H10.2v-.563c0-.517.42-.937.938-.937h1.725c.517 0 .937.42.937.937v.563Zm-2.925 0h2.25v-.825h-2.25v.825ZM6.15 7.5h11.7v1.088H6.15V7.5ZM18.525 6.75h1.05V21h-1.05V6.75ZM20.325 7.5H21v1.125h-.675V7.5ZM20.325 19.125H21v1.125h-.675v-1.125Z" fill="#fff"/></svg>