<svg class="color-immutable" width="24" height="24" viewBox="0 0 24 24" fill="none" xmlns="http://www.w3.org/2000/svg"><g clip-path="url(#a)"><path d="M0 22.5v-21C0 .675.675 0 1.5 0h21c.825 0 1.5.675 1.5 1.5v21c0 .825-.675 1.5-1.5 1.5h-21C.675 24 0 23.325 0 22.5Z" fill="#2D327D"/><path d="M5.287 5.619 3 6v.684l2.287-.381v-.684ZM6.713 5.381v.684L21 3.685V3L6.713 5.381Z" fill="#fff"/><path d="M8.249 11.251H6.338V4.726h-.676v6.525H3.75a.75.75 0 0 0-.75.75v4.351c0 .098.01.197.029.293l.751 3.752a.747.747 0 0 0 .735.603h2.97a.75.75 0 0 0 .736-.602l.75-3.752c.02-.097.029-.195.029-.293v-4.351a.75.75 0 0 0-.751-.751Zm0 4.875a.373.373 0 0 1-.374.374h-3.75a.374.374 0 0 1-.374-.374v-3.75c0-.207.168-.375.374-.375h3.75c.207 0 .374.168.374.375v3.75Z" fill="#fff"/></g><defs><clipPath id="a"><path fill="#fff" d="M0 0h24v24H0z"/></clipPath></defs></svg>