<svg class="color-immutable" width="24" height="24" viewBox="0 0 24 24" fill="none" xmlns="http://www.w3.org/2000/svg"><path fill-rule="evenodd" clip-rule="evenodd" d="M22.5 0h-21C.675 0 0 .675 0 1.5v21c0 .825.675 1.5 1.5 1.5h21c.825 0 1.5-.675 1.5-1.5v-21c0-.825-.675-1.5-1.5-1.5Z" fill="#2D327D"/><path fill-rule="evenodd" clip-rule="evenodd" d="M5.287 5.618 3 6v.683L5.287 6.3v-.682ZM6.713 5.378v.69L21 3.683V3L6.713 5.378Z" fill="#fff"/><path fill-rule="evenodd" clip-rule="evenodd" d="M6.338 11.25H8.25c.412 0 .75.338.75.75v4.35c0 .098-.008.195-.03.292l-.75 3.75a.748.748 0 0 1-.735.6h-2.97a.741.741 0 0 1-.735-.6l-.75-3.75A1.292 1.292 0 0 1 3 16.35V12c0-.412.337-.75.75-.75h1.912V4.725h.676v6.525Zm1.537 5.25c.21 0 .375-.165.375-.375v-3.75A.371.371 0 0 0 7.875 12h-3.75a.371.371 0 0 0-.375.375v3.75c0 .21.172.375.375.375h3.75Z" fill="#fff"/></svg>