<svg class="color-immutable" width="24" height="24" viewBox="0 0 24 24" fill="none" xmlns="http://www.w3.org/2000/svg"><path fill-rule="evenodd" clip-rule="evenodd" d="M22.5 0h-21C.675 0 0 .675 0 1.5v21c0 .825.675 1.5 1.5 1.5h21c.825 0 1.5-.675 1.5-1.5v-21c0-.825-.675-1.5-1.5-1.5Z" fill="#2D327D"/><path fill-rule="evenodd" clip-rule="evenodd" d="M18.712 5.618 21 6v.683L18.712 6.3v-.682ZM17.288 5.385v.683L3 3.683V3l14.288 2.385Z" fill="#fff"/><path fill-rule="evenodd" clip-rule="evenodd" d="M15 12c0-.412.338-.75.75-.75h1.913V4.725h.674v6.525h1.913c.413 0 .75.338.75.75v4.35c0 .098-.015.195-.03.292l-.75 3.75a.748.748 0 0 1-.735.6h-2.97a.741.741 0 0 1-.735-.6l-.75-3.75a1.292 1.292 0 0 1-.03-.292V12Zm.75.375v3.75c0 .21.165.375.375.375h3.75c.21 0 .375-.165.375-.375v-3.75a.376.376 0 0 0-.375-.375h-3.75a.371.371 0 0 0-.375.375Z" fill="#fff"/></svg>