<svg class="color-immutable" width="24" height="24" viewBox="0 0 24 24" fill="none" xmlns="http://www.w3.org/2000/svg"><path fill-rule="evenodd" clip-rule="evenodd" d="M22.5 0h-21C.675 0 0 .675 0 1.5v21c0 .825.675 1.5 1.5 1.5h21c.825 0 1.5-.675 1.5-1.5v-21c0-.825-.675-1.5-1.5-1.5Z" fill="#2D327D"/><path fill-rule="evenodd" clip-rule="evenodd" d="m13.658 18.652 2.197 2.198h5.22v-6.57a.522.522 0 0 0-.525-.525h-.038a.425.425 0 0 0-.134.022.852.852 0 0 0-.555.796v1.837c0 .225-.18.405-.405.405H18.36a.625.625 0 0 1-.442-.188l-3.405-3.404a.58.58 0 0 0-.818 0 .58.58 0 0 0 0 .817l3.622 3.623-.195.202-3.247-3.232-.217.217a.527.527 0 0 0-.143.353.5.5 0 0 0 .143.352l2.894 2.895-.202.203-2.475-2.476-.217.218a.513.513 0 0 0-.143.352.5.5 0 0 0 .143.353l2.122 2.122-.195.203-1.71-1.703-.217.218a.513.513 0 0 0 0 .712ZM10.485 18.652 8.288 20.85h-5.22v-6.57c0-.292.232-.525.524-.525h.038c.045 0 .09.007.135.022.33.12.555.443.555.796v1.837c0 .225.18.405.405.405h1.058a.625.625 0 0 0 .442-.188l3.405-3.404a.58.58 0 0 1 .817 0 .58.58 0 0 1 0 .817l-3.622 3.623.195.202 3.24-3.232.225.217c.09.098.143.225.143.353a.5.5 0 0 1-.143.352L7.59 18.45l.195.203 2.475-2.476.225.218c.09.098.143.218.143.352a.5.5 0 0 1-.143.353l-2.122 2.122.195.203 1.702-1.703.225.218c.09.098.143.217.143.352a.498.498 0 0 1-.143.36ZM3.81 10.02c0-.232-.15-.435-.24-.562-.075-.113-.12-.18-.12-.263 0-.232.225-.397.292-.435.293-.187.458-.442.458-.72 0-.277-.165-.54-.458-.72-.187-.12-.292-.27-.292-.42 0-.15.105-.3.292-.42.293-.187.458-.442.458-.72 0-.277-.165-.54-.458-.72-.187-.12-.292-.27-.292-.42 0-.15.105-.3.292-.42.293-.187.458-.442.458-.72 0-.277-.165-.54-.458-.72l-.187.3c.187.12.292.27.292.42 0 .15-.105.3-.292.42-.293.188-.458.443-.458.72 0 .278.165.54.458.72.187.12.292.27.292.42 0 .15-.105.3-.292.42-.293.188-.458.443-.458.72 0 .278.165.54.458.72.187.12.292.27.292.42 0 .15-.105.3-.292.42-.105.068-.458.323-.458.743 0 .202.098.345.18.465a.88.88 0 0 1 .173.367h-.518l.713 1.238.712-1.238-.547-.015ZM6.217 10.02c0-.232-.15-.435-.24-.562-.075-.113-.12-.18-.12-.263 0-.232.225-.397.293-.435.292-.187.457-.442.457-.72 0-.277-.165-.54-.457-.72-.188-.12-.293-.27-.293-.42 0-.15.105-.3.293-.42.292-.187.457-.442.457-.72 0-.277-.165-.54-.457-.72-.188-.12-.293-.27-.293-.42 0-.15.105-.3.293-.42.292-.187.457-.442.457-.72 0-.277-.165-.54-.457-.72l-.188.3c.188.12.293.27.293.42 0 .15-.105.3-.293.42-.292.188-.457.443-.457.72 0 .278.165.54.457.72.188.12.293.27.293.42 0 .15-.105.3-.293.42-.292.188-.457.443-.457.72 0 .278.165.54.457.72.188.12.293.27.293.42 0 .15-.105.3-.293.42-.105.068-.457.323-.457.743 0 .202.097.345.18.465a.88.88 0 0 1 .172.367H5.34l.712 1.238.713-1.238-.548-.015ZM15.84 10.02c0-.232-.15-.435-.24-.562-.075-.113-.12-.18-.12-.263 0-.232.225-.397.293-.435.292-.187.457-.442.457-.72 0-.277-.165-.54-.457-.72-.188-.12-.293-.27-.293-.42 0-.15.105-.3.293-.42.292-.187.457-.442.457-.72 0-.277-.165-.54-.457-.72-.188-.12-.293-.27-.293-.42 0-.15.105-.3.293-.42.292-.187.457-.442.457-.72 0-.277-.165-.54-.457-.72l-.188.3c.188.12.292.27.292.42 0 .15-.104.3-.292.42-.293.188-.458.443-.458.72 0 .278.165.54.458.72.188.12.292.27.292.42 0 .15-.104.3-.292.42-.293.188-.458.443-.458.72 0 .278.165.54.458.72.188.12.292.27.292.42 0 .15-.104.3-.292.42-.105.068-.458.323-.458.743 0 .202.098.345.18.465a.88.88 0 0 1 .173.367h-.518l.713 1.238.712-1.238-.547-.015ZM20.655 10.02c0-.232-.15-.435-.24-.562-.075-.113-.12-.18-.12-.263 0-.232.225-.397.292-.435.293-.187.458-.442.458-.72 0-.277-.165-.54-.458-.72-.187-.12-.292-.27-.292-.42 0-.15.105-.3.292-.42.293-.187.458-.442.458-.72 0-.277-.165-.54-.458-.72-.187-.12-.292-.27-.292-.42 0-.15.105-.3.292-.42.293-.187.458-.442.458-.72 0-.277-.165-.54-.458-.72l-.187.3c.188.12.293.27.293.42 0 .15-.106.3-.293.42-.292.188-.457.443-.457.72 0 .278.165.54.457.72.188.12.293.27.293.42 0 .15-.106.3-.293.42-.292.188-.457.443-.457.72 0 .278.165.54.457.72.188.12.293.27.293.42 0 .15-.106.3-.293.42-.105.068-.457.323-.457.743 0 .202.097.345.18.465a.88.88 0 0 1 .172.367h-.518l.713 1.238.713-1.238-.548-.015ZM18.247 10.02c0-.232-.15-.435-.24-.562-.075-.113-.12-.18-.12-.263 0-.232.226-.397.293-.435.293-.187.457-.442.457-.72 0-.277-.165-.54-.457-.72-.188-.12-.293-.27-.293-.42 0-.15.105-.3.293-.42.293-.187.457-.442.457-.72 0-.277-.165-.54-.457-.72-.188-.12-.293-.27-.293-.42 0-.15.105-.3.293-.42.293-.187.457-.442.457-.72 0-.277-.165-.54-.457-.72l-.188.3c.188.12.293.27.293.42 0 .15-.105.3-.293.42-.292.188-.457.443-.457.72 0 .278.165.54.457.72.188.12.293.27.293.42 0 .15-.105.3-.293.42-.292.188-.457.443-.457.72 0 .278.165.54.457.72.188.12.293.27.293.42 0 .15-.105.3-.293.42-.105.068-.457.323-.457.743 0 .202.098.345.18.465.075.105.135.21.172.367h-.517l.712 1.238.713-1.238-.548-.015ZM11.033 10.02c0-.232-.15-.435-.24-.562-.075-.113-.12-.18-.12-.263 0-.232.225-.397.292-.435.293-.187.457-.442.457-.72 0-.277-.165-.54-.457-.72-.188-.12-.293-.27-.293-.42 0-.15.105-.3.293-.42.293-.187.457-.442.457-.72 0-.277-.165-.54-.457-.72-.188-.12-.293-.27-.293-.42 0-.15.105-.3.293-.42.293-.187.457-.442.457-.72 0-.277-.165-.54-.457-.72l-.188.3c.188.12.293.27.293.42 0 .15-.105.3-.293.42-.292.188-.457.443-.457.72 0 .278.165.54.457.72.188.12.293.27.293.42 0 .15-.105.3-.293.42-.292.188-.457.443-.457.72 0 .278.165.54.457.72.188.12.293.27.293.42 0 .15-.105.3-.293.42-.104.068-.457.323-.457.743 0 .202.098.345.18.465a.88.88 0 0 1 .172.367h-.517l.713 1.238.712-1.238-.547-.015ZM8.625 10.02c0-.232-.15-.435-.24-.562-.075-.113-.12-.18-.12-.263 0-.232.225-.397.292-.435.293-.187.458-.442.458-.72 0-.277-.165-.54-.458-.72-.187-.12-.292-.27-.292-.42 0-.15.105-.3.292-.42.293-.187.458-.442.458-.72 0-.277-.165-.54-.458-.72-.187-.12-.292-.27-.292-.42 0-.15.105-.3.292-.42.293-.187.458-.442.458-.72 0-.277-.165-.54-.458-.72l-.187.3c.188.12.293.27.293.42 0 .15-.106.3-.293.42-.292.188-.457.443-.457.72 0 .278.165.54.457.72.188.12.293.27.293.42 0 .15-.106.3-.293.42-.292.188-.457.443-.457.72 0 .278.165.54.457.72.188.12.293.27.293.42 0 .15-.106.3-.293.42-.105.068-.457.323-.457.743 0 .202.097.345.18.465a.88.88 0 0 1 .172.367h-.518l.713 1.238.712-1.238-.547-.015ZM13.432 10.02c0-.232-.15-.435-.24-.562-.075-.113-.12-.18-.12-.263 0-.232.226-.397.293-.435.293-.187.457-.442.457-.72 0-.277-.164-.54-.457-.72-.188-.12-.293-.27-.293-.42 0-.15.106-.3.293-.42.293-.187.457-.442.457-.72 0-.277-.164-.54-.457-.72-.188-.12-.293-.27-.293-.42 0-.15.106-.3.293-.42.293-.187.457-.442.457-.72 0-.277-.164-.54-.457-.72l-.188.3c.188.12.293.27.293.42 0 .15-.105.3-.293.42-.292.188-.457.443-.457.72 0 .278.165.54.457.72.188.12.293.27.293.42 0 .15-.105.3-.293.42-.292.188-.457.443-.457.72 0 .278.165.54.457.72.188.12.293.27.293.42 0 .15-.105.3-.293.42-.104.068-.457.323-.457.743 0 .202.098.345.18.465a.88.88 0 0 1 .172.367h-.517l.713 1.238.712-1.238-.548-.015Z" fill="#fff"/></svg>