<svg class="color-immutable" width="24" height="24" viewBox="0 0 24 24" fill="none" xmlns="http://www.w3.org/2000/svg"><g clip-path="url(#a)"><path d="M0 22.5v-21C0 .675.675 0 1.5 0h21c.825 0 1.5.675 1.5 1.5v21c0 .825-.675 1.5-1.5 1.5h-21C.675 24 0 23.325 0 22.5Z" fill="#2D327D"/><path d="m11.369 12.551-.045.001a.455.455 0 0 0-.16.031c-.397.146-.66.523-.66.945v2.19a.485.485 0 0 1-.483.485H8.759a.74.74 0 0 1-.525-.219L4.18 11.931a.69.69 0 0 0-.974.974l4.31 4.31-.236.236-3.852-3.852-.264.262a.6.6 0 0 0 0 .842l3.447 3.446-.238.236-2.945-2.945-.264.262a.598.598 0 0 0 0 .842l2.525 2.524-.236.237-2.025-2.024-.264.262a.6.6 0 0 0 0 .842L5.781 21h6.21v-7.826a.623.623 0 0 0-.622-.623ZM18.225 4.125H5.775v3.3h12.45v-3.3Z" fill="#fff"/><path d="M3 3v2.25h2.4v-.375H3.375v-1.5h17.25v1.5H18.6v.375H21V3H3ZM5.775 11.1h10.462V9.113h1.988V7.8H5.775v3.3Z" fill="#fff"/><path d="M16.612 11.1h.001l1.612-1.612h-1.613V11.1Z" fill="#fff"/></g><defs><clipPath id="a"><path fill="#fff" d="M0 0h24v24H0z"/></clipPath></defs></svg>