<svg class="color-immutable" width="30" height="30" viewBox="0 0 30 30" fill="none" xmlns="http://www.w3.org/2000/svg"><g clip-path="url(#a)"><path d="M30.002 0h-30v30h30V0Z" fill="#2D327D"/><path d="M25.502 3c.825 0 1.5.675 1.5 1.5v21c0 .825-.675 1.5-1.5 1.5h-21c-.825 0-1.5-.675-1.5-1.5v-21c0-.825.675-1.5 1.5-1.5h21Zm0-.375h-21A1.877 1.877 0 0 0 2.627 4.5v21c0 1.034.841 1.875 1.875 1.875h21a1.877 1.877 0 0 0 1.875-1.875v-21a1.877 1.877 0 0 0-1.875-1.875Z" fill="#fff"/><path d="M10.213 12.276v-2.063h2.064v-2.15h-2.064V5.999h-2.15v2.064H5.999v2.15h2.064v2.063h2.15ZM9.705 19.118l-1.54 1.54L11.504 24l1.541-1.541-3.34-3.341ZM21.832 17.021l-1.443 1.443a1.117 1.117 0 0 1 .01.151 1.2 1.2 0 0 1-1.2 1.2h-3.45v-.375h3.45a.825.825 0 1 0 0-1.65h-2.301c-.464 0-.76-.134-1.037-.275a7.162 7.162 0 0 1-.047-.024l-.06-.03c-.03-.017-.06-.03-.09-.046-.535-.27-1.126-.32-1.724-.32-1.033 0-1.797.312-2.52 1.045l-1.086 1.082 2.601 2.6.505-.505 5.763-.006c.436 0 .827-.164 1.127-.434l.64-.63 2.905-2.905.097-.097c.247-.323-1.201-1.163-2.14-.224ZM16.42 10.497a.3.3 0 1 0 .084-.595.3.3 0 0 0-.084.595ZM16.701 8.547a.3.3 0 1 0 0 0ZM16.139 12.447a.3.3 0 0 0 .085-.594.3.3 0 0 0-.085.594ZM19.085 9.903a.3.3 0 1 0 .08.595.3.3 0 0 0-.08-.595ZM18.823 7.953a.3.3 0 1 0 .08.594.3.3 0 0 0-.08-.594ZM19.348 11.853a.3.3 0 1 0 .08.595.3.3 0 0 0-.08-.595ZM17.775 13.463a.3.3 0 1 0 0-.6.3.3 0 0 0 0 .6ZM17.775 9.64a.3.3 0 1 0 0-.6.3.3 0 0 0 0 .6ZM17.775 11.552a.3.3 0 1 0 0-.6.3.3 0 0 0 0 .6ZM18.6 6.6a.3.3 0 1 0 0-.6.3.3 0 0 0 0 .6ZM17.025 6.6a.3.3 0 1 0 0-.6.3.3 0 0 0 0 .6ZM17.775 7.725a.3.3 0 1 0 0-.6.3.3 0 0 0 0 .6ZM15.9 14.4a.3.3 0 1 0 0-.6.3.3 0 0 0 0 .6ZM17.775 15.375a.3.3 0 1 0 0-.6.3.3 0 0 0 0 .6ZM19.65 14.4a.3.3 0 1 0 0-.6.3.3 0 0 0 0 .6Z" fill="#fff"/></g><defs><clipPath id="a"><path fill="#fff" d="M0 0h30v30H0z"/></clipPath></defs></svg>