<svg class="color-immutable" width="24" height="24" viewBox="0 0 24 24" fill="none" xmlns="http://www.w3.org/2000/svg"><g clip-path="url(#a)"><path d="M0 22.5v-21C0 .675.675 0 1.5 0h21c.825 0 1.5.675 1.5 1.5v21c0 .825-.675 1.5-1.5 1.5h-21C.675 24 0 23.325 0 22.5Z" fill="#2D327D"/><path d="M15.263 8.55a1.239 1.239 0 0 0 0-2.476v.45a.789.789 0 1 1-.787.788V3h-.45v4.312a1.237 1.237 0 0 0 1.237 1.238ZM8.738 8.55a1.24 1.24 0 0 0 1.238-1.238V3h-.45v4.312a.789.789 0 0 1-1.576 0c0-.435.353-.787.787-.787v-.45a1.239 1.239 0 0 0 .001 2.475ZM14.25 10.087c0-.682-.555-1.237-1.238-1.237v.45a.789.789 0 0 1 0 1.575.788.788 0 0 1-.787-.788V3h-.45v7.087a1.24 1.24 0 0 0 1.237 1.238c.683 0 1.238-.555 1.238-1.238ZM10.694 13.632a.592.592 0 0 0-1.012-.42l-3.523 3.522a.633.633 0 0 1-.449.187H4.705a.443.443 0 0 1-.444-.444v-1.804a.95.95 0 0 0-.635-.898.476.476 0 0 0-.634.449v6.774L8.238 21v-.002l2.199-2.196a.572.572 0 0 0 0-.808l-.179-.179-1.696 1.696-.194-.194 2.077-2.077a.569.569 0 0 0 0-.808l-.179-.18-2.481 2.481-.195-.195 2.862-2.862a.569.569 0 0 0 0-.808l-.179-.18-3.266 3.266-.194-.194 3.708-3.708a.597.597 0 0 0 .173-.42ZM20.516 13.748a.466.466 0 0 0-.159.027.952.952 0 0 0-.635.898v1.804a.444.444 0 0 1-.444.444h-1.005a.631.631 0 0 1-.449-.187l-3.522-3.522a.593.593 0 0 0-.84.84l3.708 3.708-.194.194-3.266-3.266-.18.18a.573.573 0 0 0 0 .808l2.862 2.862-.194.194-2.481-2.481-.179.18a.567.567 0 0 0 0 .808l2.077 2.077-.194.194-1.696-1.696-.179.179a.57.57 0 0 0 0 .808l2.199 2.196V21l5.246-.002v-6.774a.476.476 0 0 0-.475-.476Z" fill="#fff"/></g><defs><clipPath id="a"><path fill="#fff" d="M0 0h24v24H0z"/></clipPath></defs></svg>