<svg class="color-immutable" width="24" height="24" viewBox="0 0 24 24" fill="none" xmlns="http://www.w3.org/2000/svg"><path fill-rule="evenodd" clip-rule="evenodd" d="M22.5 0h-21C.675 0 0 .675 0 1.5v21c0 .825.675 1.5 1.5 1.5h21c.825 0 1.5-.675 1.5-1.5v-21c0-.825-.675-1.5-1.5-1.5Z" fill="#2D327D"/><path fill-rule="evenodd" clip-rule="evenodd" d="M19.148 3H6s1.845 2.737 1.845 11.543h2.385a1.421 1.421 0 0 1 .938-1.215.907.907 0 0 1 .285-.045c.472 0 .854.382.854.854v.405h8.678C21.015 5.739 19.148 3 19.148 3Z" fill="#fff"/><path fill-rule="evenodd" clip-rule="evenodd" d="m4.823 21-1.508-1.508a.67.67 0 0 1 0-.945l.21-.21 1.98 1.98.225-.224-2.422-2.423a.657.657 0 0 1-.195-.473c0-.18.067-.345.195-.472l.21-.21 2.895 2.895.225-.225-3.345-3.345a.67.67 0 0 1 0-.945l.21-.21 3.817 3.818.225-.226L3.21 13.95a.688.688 0 1 1 .975-.975l4.118 4.11c.135.142.33.217.525.217h1.177a.519.519 0 0 0 .518-.517v-2.107c0-.473.3-.893.742-1.05.06-.023.12-.03.188-.03.307 0 .555.247.555.554V21H4.823Z" fill="#fff"/></svg>