<svg class="color-immutable" width="30" height="30" viewBox="0 0 30 30" fill="none" xmlns="http://www.w3.org/2000/svg"><g clip-path="url(#a)"><path d="M30.002 0h-30v30h30V0Z" fill="#2D327D"/><path d="M25.502 3c.825 0 1.5.675 1.5 1.5v21c0 .825-.675 1.5-1.5 1.5h-21c-.825 0-1.5-.675-1.5-1.5v-21c0-.825.675-1.5 1.5-1.5h21Zm0-.375h-21A1.877 1.877 0 0 0 2.627 4.5v21c0 1.034.841 1.875 1.875 1.875h21a1.877 1.877 0 0 0 1.875-1.875v-21a1.877 1.877 0 0 0-1.875-1.875Z" fill="#fff"/><path d="M14.369 15.55c-.015 0-.03 0-.045.002a.468.468 0 0 0-.16.03c-.397.146-.66.523-.66.945V18.718a.485.485 0 0 1-.484.485h-1.26a.74.74 0 0 1-.525-.22L7.18 14.931a.69.69 0 1 0-.974.973l4.31 4.31-.236.237L6.428 16.6l-.265.262a.601.601 0 0 0 0 .842l3.447 3.445-.238.236L6.43 18.44l-.265.262a.601.601 0 0 0 0 .842l2.525 2.524-.235.237-2.025-2.024-.265.261a.601.601 0 0 0 0 .842L8.781 24h6.21v-7.826a.623.623 0 0 0-.622-.623ZM21.225 7.125H8.775v3.3h12.45v-3.3Z" fill="#fff"/><path d="M6 6v2.25h2.4v-.375H6.375v-1.5h17.25v1.5H21.6v.375H24V6H6ZM8.775 14.1h10.463v-1.987h1.987V10.8H8.775v3.3Z" fill="#fff"/><path d="m19.613 14.1 1.612-1.612h-1.613V14.1Z" fill="#fff"/></g><defs><clipPath id="a"><path fill="#fff" d="M0 0h30v30H0z"/></clipPath></defs></svg>