<svg class="color-immutable" width="30" height="30" viewBox="0 0 30 30" fill="none" xmlns="http://www.w3.org/2000/svg"><g clip-path="url(#a)"><path d="M30.002 0h-30v30h30V0Z" fill="#2D327D"/><path d="M25.502 3c.825 0 1.5.675 1.5 1.5v21c0 .825-.675 1.5-1.5 1.5h-21c-.825 0-1.5-.675-1.5-1.5v-21c0-.825.675-1.5 1.5-1.5h21Zm0-.375h-21A1.877 1.877 0 0 0 2.627 4.5v21c0 1.034.841 1.875 1.875 1.875h21a1.877 1.877 0 0 0 1.875-1.875v-21a1.877 1.877 0 0 0-1.875-1.875Z" fill="#fff"/><path d="M18.263 11.55a1.239 1.239 0 0 0 0-2.475v.45a.788.788 0 1 1-.788.787V6h-.45v4.313c0 .682.555 1.237 1.238 1.237ZM11.738 11.55c.682 0 1.237-.555 1.237-1.238V6h-.45v4.313a.788.788 0 1 1-.787-.788v-.45a1.239 1.239 0 0 0 0 2.475ZM17.25 13.088c0-.683-.555-1.238-1.237-1.238v.45a.788.788 0 1 1-.788.787V6h-.45v7.088a1.239 1.239 0 0 0 2.475 0ZM13.695 16.632a.593.593 0 0 0-1.013-.42l-3.523 3.523a.631.631 0 0 1-.448.186H7.705a.444.444 0 0 1-.444-.444v-1.804a.951.951 0 0 0-.635-.898.476.476 0 0 0-.634.449v6.774l5.246.002v-.002l2.2-2.196a.573.573 0 0 0 0-.81l-.18-.178-1.696 1.695-.194-.194 2.077-2.076a.569.569 0 0 0 0-.808l-.18-.18-2.48 2.48-.194-.193 2.862-2.862a.57.57 0 0 0 0-.807l-.18-.18-3.266 3.265-.194-.194 3.708-3.708a.595.595 0 0 0 .174-.42ZM23.517 16.748a.48.48 0 0 0-.16.027.951.951 0 0 0-.634.898v1.804a.444.444 0 0 1-.445.444h-1.005a.632.632 0 0 1-.449-.186l-3.522-3.523a.592.592 0 0 0-.84.84l3.708 3.708-.194.194-3.266-3.266-.18.18a.569.569 0 0 0 0 .807l2.863 2.863-.195.194-2.48-2.481-.18.18a.568.568 0 0 0 0 .808l2.077 2.076-.194.194-1.696-1.695-.179.179a.572.572 0 0 0 0 .809l2.2 2.196V24l5.245-.002v-6.774a.476.476 0 0 0-.474-.476Z" fill="#fff"/></g><defs><clipPath id="a"><path fill="#fff" d="M0 0h30v30H0z"/></clipPath></defs></svg>