<svg class="color-immutable" width="24" height="24" viewBox="0 0 24 24" fill="none" xmlns="http://www.w3.org/2000/svg"><path fill-rule="evenodd" clip-rule="evenodd" d="M22.5 0h-21C.675 0 0 .675 0 1.5v21c0 .825.675 1.5 1.5 1.5h21c.825 0 1.5-.675 1.5-1.5v-21c0-.825-.675-1.5-1.5-1.5Z" fill="#2D327D"/><path fill-rule="evenodd" clip-rule="evenodd" d="M18.855 13.8c.465.232.787.72.795 1.275v1.088H4.35v-1.088c.007-.555.33-1.042.795-1.275a.05.05 0 0 0 .027-.01.17.17 0 0 1 .01-.005c.788-.39 2.13-1.328 2.13-3.18 0-2.235.158-3.42.57-4.223.458-.892 1.238-1.297 2.52-1.312-.022-.338-.03-1.058.42-1.575C11.018 3.27 11.378 3 12 3c.623 0 .982.27 1.178.495.45.525.442 1.245.42 1.575 1.29.022 2.062.42 2.52 1.313.412.802.57 1.987.57 4.222 0 1.845 1.342 2.79 2.13 3.18.01 0 .017.004.026.01a.203.203 0 0 0 .011.005ZM12 3.765c-.27 0-.465.075-.6.232-.25.287-.233.812-.226 1.058l.001.015h1.657c.008-.232.023-.78-.232-1.073-.135-.157-.33-.232-.6-.232ZM10.47 16.538a1.59 1.59 0 1 0 3.06 0h-3.06Z" fill="#fff"/></svg>