<svg class="color-immutable" width="24" height="24" viewBox="0 0 24 24" fill="none" xmlns="http://www.w3.org/2000/svg"><path fill-rule="evenodd" clip-rule="evenodd" d="M22.5 0h-21C.675 0 0 .675 0 1.5v21c0 .825.675 1.5 1.5 1.5h21c.825 0 1.5-.675 1.5-1.5v-21c0-.825-.675-1.5-1.5-1.5Z" fill="#2D327D"/><path fill-rule="evenodd" clip-rule="evenodd" d="M15.037 6.713c0 .772-.622 1.394-1.395 1.394a1.392 1.392 0 0 1-1.394-1.394c0-.773.622-1.396 1.395-1.396.772 0 1.394.623 1.394 1.396ZM16.567 12.15l-.975-.975h-1.537l1.718 1.717c.097.12.24.195.404.195a.574.574 0 0 0 .556-.555.578.578 0 0 0-.166-.382Z" fill="#fff"/><path fill="#fff" d="M8.663 14.947h.63v.637h-.63z"/><path fill-rule="evenodd" clip-rule="evenodd" d="m21.052 19.972-4.395-4.395h3.526a.76.76 0 0 0 .75-.765v-11.1a.76.76 0 0 0-.75-.765H4.02l-.315-.315L2.648 3.69l.307.307v10.815c0 .42.338.765.75.765h3.083v-.637H3.705c-.067 0-.112-.06-.112-.135V10.98H7.2l.375-.375H3.593V4.627L8.73 9.765l-1.612 1.612a.431.431 0 0 0-.135.3v8.618c0 .412.337.75.75.75.412 0 .75-.338.75-.75v-6.99l1.005.997v3.518c0 .412.337.75.75.75.412 0 .75-.338.75-.75v-3.788s.03-.247-.143-.412L9.69 12.465l.863-.893 3.36 3.36h-2.73v.638h3.367l5.453 5.452 1.05-1.05ZM12.525 8.107a1.6 1.6 0 0 0-1.08-.397c-.488 0-.922.202-1.17.51l-.495.495-5.13-5.13h15.525c.067 0 .113.06.113.135v6.9h-8.476l-.067.067-.172-.172.884-.915.825.825h1.538l-2.295-2.318Zm7.777 2.88h-8.234l3.96 3.96h4.162c.06 0 .112-.06.112-.135v-3.825Z" fill="#fff"/><path fill-rule="evenodd" clip-rule="evenodd" d="M3.705 2.632 2.648 3.69l17.34 17.347 1.064-1.065L3.705 2.632Z" fill="#EB0000"/></svg>