<svg class="color-immutable" width="24" height="24" viewBox="0 0 24 24" fill="none" xmlns="http://www.w3.org/2000/svg"><path fill-rule="evenodd" clip-rule="evenodd" d="M22.5 0h-21C.675 0 0 .675 0 1.5v21c0 .825.675 1.5 1.5 1.5h21c.825 0 1.5-.675 1.5-1.5v-21c0-.825-.675-1.5-1.5-1.5Z" fill="#2D327D"/><path fill-rule="evenodd" clip-rule="evenodd" d="M7.395 17.55a3.13 3.13 0 0 1-.825.675l1.71 2.445c.165.24.495.3.735.127.24-.165.3-.495.128-.735L7.395 17.55ZM13.072 16.38l-1.912 3.758a.527.527 0 0 0 .232.712c.263.135.578.03.713-.233l2.16-4.237h-1.193Z" fill="#fff"/><path fill-rule="evenodd" clip-rule="evenodd" d="m16.485 13.485.42-.728-2.46-2.475-.533.518a1.207 1.207 0 0 1-.72.292h-1.02l-8.467-8.46L2.648 3.69l7.402 7.402H5.175c-.817 0-1.485-.66-1.485-1.485 0-.817.66-1.485 1.485-1.485.218 0 .39-.172.39-.39a.387.387 0 0 0-.39-.39A2.263 2.263 0 0 0 2.91 9.607a2.263 2.263 0 0 0 2.265 2.265v3.758l-1.552 1.815v2.992c0 .293.24.533.532.533.293 0 .533-.24.533-.533v-2.205a.3.3 0 0 1 .3-.3h.165c1.237 0 2.242-.99 2.272-2.22h7.26l.285.285v4.425c0 .3.232.548.525.548.293 0 .533-.24.533-.54v-3.368l3.967 3.968 1.057-1.058-4.567-4.567v-1.92ZM20.828 8.43h-1.05l-.278-.375-.105-.143a.403.403 0 0 0-.277-.142h-1.853a.678.678 0 0 0-.42.172c-.098.098-1.837 1.785-1.837 1.785l2.302 2.318.623-1.073a.466.466 0 0 1 .36-.21h1.875l.9-.9V8.655c0-.12-.106-.225-.24-.225Z" fill="#fff"/><path fill-rule="evenodd" clip-rule="evenodd" d="M3.705 2.632 2.648 3.69l17.34 17.347 1.064-1.065L3.705 2.632Z" fill="#EB0000"/></svg>