<svg class="color-immutable" width="24" height="24" viewBox="0 0 24 24" fill="none" xmlns="http://www.w3.org/2000/svg"><path fill-rule="evenodd" clip-rule="evenodd" d="M22.5 0h-21C.675 0 0 .675 0 1.5v21c0 .825.675 1.5 1.5 1.5h21c.825 0 1.5-.675 1.5-1.5v-21c0-.825-.675-1.5-1.5-1.5Z" fill="#2D327D"/><path fill-rule="evenodd" clip-rule="evenodd" d="M15.915 6.427c1.68 2.168 1.275 5.28-.885 6.96a3.235 3.235 0 0 0-1.252 2.678c.03.765-.15 1.522-.518 2.19a2.414 2.414 0 0 1-4.147.127.48.48 0 0 1 .142-.66.48.48 0 0 1 .66.143 1.458 1.458 0 0 0 2.505-.083 3.171 3.171 0 0 0 .398-1.687 4.195 4.195 0 0 1 1.62-3.473 4.01 4.01 0 0 0 .72-5.617 4.01 4.01 0 0 0-5.618-.72 3.98 3.98 0 0 0-1.545 2.917.48.48 0 0 1-.51.45.478.478 0 0 1-.45-.502 4.968 4.968 0 0 1 1.913-3.615c2.182-1.673 5.294-1.275 6.967.892Z" fill="#fff"/><path fill-rule="evenodd" clip-rule="evenodd" d="M14.648 7.41a3.354 3.354 0 0 1-.6 4.703c-.098.075-.188.15-.278.232a.39.39 0 0 1-.547-.03.39.39 0 0 1 .03-.547c.104-.09.21-.18.322-.27a2.587 2.587 0 0 0 .465-3.623 2.587 2.587 0 0 0-4.298.315.384.384 0 0 1-.525.15.384.384 0 0 1-.15-.525c.218-.39.518-.742.878-1.012a3.355 3.355 0 0 1 4.703.607ZM17.587 16.5h-1.102v-.683H19.5v.683h-1.102v3h-.81v-3ZM9.818 14.182a5.254 5.254 0 0 1-2.46-2.46L3 16.087V21l6.818-6.818ZM15.21 3.877a6.407 6.407 0 0 1 2.46 2.46l1.62-1.62L21 3h-4.92l-.87.877Z" fill="#fff"/></svg>