<svg class="color-immutable" width="24" height="24" viewBox="0 0 24 24" fill="none" xmlns="http://www.w3.org/2000/svg"><path fill-rule="evenodd" clip-rule="evenodd" d="M22.5 0h-21C.675 0 0 .675 0 1.5v21c0 .825.675 1.5 1.5 1.5h21c.825 0 1.5-.675 1.5-1.5v-21c0-.825-.675-1.5-1.5-1.5Z" fill="#2D327D"/><path fill-rule="evenodd" clip-rule="evenodd" d="M12 3c-4.973 0-9 4.027-9 9s4.027 9 9 9 9-4.027 9-9-4.027-9-9-9Zm0 1.388c1.043 0 1.89.847 1.89 1.89A1.898 1.898 0 0 1 12 8.175a1.892 1.892 0 0 1-1.89-1.89c0-1.043.848-1.897 1.89-1.897Zm2.887 14.362H9.113a.371.371 0 0 1-.375-.375c0-.21.165-.375.375-.375h1.2V9.825h-1.2a.371.371 0 0 1-.375-.375c0-.21.165-.375.375-.375h4.612V18h1.162c.21 0 .375.165.375.375s-.165.375-.375.375Z" fill="#fff"/></svg>