<svg class="color-immutable" width="30" height="30" viewBox="0 0 30 30" fill="none" xmlns="http://www.w3.org/2000/svg"><g clip-path="url(#a)"><path d="M0 0h30v30H0V0Z" fill="#2D327D"/><path d="M25.5 3c.825 0 1.5.675 1.5 1.5v21c0 .825-.675 1.5-1.5 1.5h-21c-.825 0-1.5-.675-1.5-1.5v-21C3 3.675 3.675 3 4.5 3h21Zm0-.375h-21A1.877 1.877 0 0 0 2.625 4.5v21c0 1.034.841 1.875 1.875 1.875h21a1.877 1.877 0 0 0 1.875-1.875v-21A1.877 1.877 0 0 0 25.5 2.625Z" fill="#fff"/><path d="M6.75 11.25c.207 0 .375.168.375.375v1.5a.376.376 0 0 1-.375.376H6v2.25h.75c.207 0 .375.167.375.373v1.5A.375.375 0 0 1 6.75 18H6v4.575c.373 0 .746-.04 1.113-.115l2.52-.532c.288-.037.578-.06.868-.066.29.007.58.029.868.066l2.52.532c.365.076.738.114 1.111.115.374 0 .746-.04 1.112-.115l2.52-.532c.288-.037.577-.06.868-.066.29.007.58.029.868.066l1.606.339L24.224 18h-9.037l-.375-2.25h1.313V13.5h-4.613l-.375-2.25h.525a.375.375 0 0 0 0-.75H6v.75h.75Zm4.725 6.375v-1.5c0-.207.168-.375.375-.375h1.96c.183 0 .34.132.37.313l.25 1.5a.376.376 0 0 1-.37.436h-2.21a.376.376 0 0 1-.375-.374Zm-3.676 0v-1.5c0-.207.169-.375.376-.375h2.25c.207 0 .375.168.375.374v1.5a.376.376 0 0 1-.375.376h-2.25a.376.376 0 0 1-.376-.375Zm0-4.5v-1.5c0-.207.169-.375.376-.375h1.96c.184 0 .34.133.37.313l.25 1.5a.376.376 0 0 1-.37.438h-2.21a.376.376 0 0 1-.376-.376ZM9.75 22.632c.25-.032.5-.05.75-.056.252.006.502.024.75.056l2.493.525a6.151 6.151 0 0 0 2.516 0l2.491-.525c.25-.032.5-.05.75-.056.252.006.502.024.75.056l2.493.525c.414.088.834.13 1.257.131V24c-.47 0-.941-.048-1.403-.144l-2.463-.52a7.26 7.26 0 0 0-.633-.048 7.308 7.308 0 0 0-.634.048l-2.462.52a6.914 6.914 0 0 1-2.808 0l-2.463-.52c-.21-.025-.421-.041-.633-.048a7.313 7.313 0 0 0-.634.048l-2.463.52A6.93 6.93 0 0 1 6 24v-.712c.423 0 .844-.043 1.259-.13l2.491-.526Z" fill="#fff"/></g><defs><clipPath id="a"><path fill="#fff" d="M0 0h30v30H0z"/></clipPath></defs></svg>