<svg class="color-immutable" width="24" height="24" viewBox="0 0 24 24" fill="none" xmlns="http://www.w3.org/2000/svg"><g clip-path="url(#a)"><path d="M0 22.5v-21C0 .675.675 0 1.5 0h21c.825 0 1.5.675 1.5 1.5v21c0 .825-.675 1.5-1.5 1.5h-21C.675 24 0 23.325 0 22.5Z" fill="#2D327D"/><path d="M3.75 8.25c.207 0 .375.168.375.375v1.5a.376.376 0 0 1-.375.376H3v2.25h.75c.207 0 .375.168.375.374v1.5A.375.375 0 0 1 3.75 15H3v4.575a5.562 5.562 0 0 0 1.113-.115l2.519-.532a8.45 8.45 0 0 1 .868-.066c.29.006.58.029.869.066l2.52.532c.365.076.738.114 1.111.115a5.545 5.545 0 0 0 1.112-.115l2.52-.532c.287-.037.577-.059.868-.066.291.006.581.029.868.066l1.606.339L21.224 15h-9.037l-.375-2.25h1.313V10.5H8.512l-.375-2.25h.525a.375.375 0 0 0 0-.75H3v.75h.75Zm4.725 6.375v-1.5c0-.206.168-.374.374-.374h1.961c.183 0 .339.132.37.313l.25 1.5a.376.376 0 0 1-.369.436H8.849a.376.376 0 0 1-.374-.375Zm-3.676 0v-1.5c0-.206.168-.374.375-.374h2.25c.207 0 .375.168.375.374v1.5a.374.374 0 0 1-.374.375h-2.25a.377.377 0 0 1-.376-.375Zm0-4.5v-1.5c0-.207.168-.375.375-.375h1.96c.184 0 .34.133.371.313l.25 1.499a.376.376 0 0 1-.369.438H5.175a.375.375 0 0 1-.376-.375ZM6.75 19.632c.25-.032.5-.05.751-.056.251.006.502.024.75.056l2.492.525c.414.087.835.13 1.258.131a6.19 6.19 0 0 0 1.258-.131l2.492-.525c.25-.032.5-.05.751-.056.251.006.501.024.75.056l2.493.525c.413.087.834.13 1.257.131V21a6.896 6.896 0 0 1-1.403-.145l-2.464-.52a7.036 7.036 0 0 0-.633-.047 7.478 7.478 0 0 0-.634.047l-2.463.52a6.898 6.898 0 0 1-2.808 0l-2.464-.52a7.01 7.01 0 0 0-.633-.047 7.478 7.478 0 0 0-.634.047l-2.463.52A6.881 6.881 0 0 1 3 21v-.712a6.2 6.2 0 0 0 1.259-.131l2.491-.525Z" fill="#fff"/></g><defs><clipPath id="a"><path fill="#fff" d="M0 0h24v24H0z"/></clipPath></defs></svg>