<svg class="color-immutable" width="24" height="24" viewBox="0 0 24 24" fill="none" xmlns="http://www.w3.org/2000/svg"><g clip-path="url(#a)"><path d="M0 22.5v-21C0 .675.675 0 1.5 0h21c.825 0 1.5.675 1.5 1.5v21c0 .825-.675 1.5-1.5 1.5h-21C.675 24 0 23.325 0 22.5Z" fill="#2D327D"/><path d="M16.306 10.595a.88.88 0 0 1-1.019 1.406l2.601 2.602h2.875c.081 0 .16.01.237.028V3h-6v6.29l1.306 1.305Zm.569-6.095c0-.207.168-.375.375-.375h2.25c.207 0 .375.168.375.375v8.625a.375.375 0 0 1-.375.375h-2.25a.375.375 0 0 1-.375-.375V4.5ZM20.341 21H21v-.659l-.659.659ZM21 19.939v-3.24a1.083 1.083 0 0 1-.237.028h-2.976L21 19.939ZM15 16.06V21h4.94L15 16.06Z" fill="#fff"/><path d="m11.936 10.875 2.25 2.25 3.151 3.151.025.001h3.402a.612.612 0 1 0 0-1.224h-3.061l-5.235-5.236h1.213l1.703 1.704a.429.429 0 1 0 .607-.606l-1.806-1.806a.612.612 0 0 0-.433-.18h-2.139c-.446 0-.846.192-1.125.495l1.448 1.451ZM12.641 13.701l-1.495 1.495a.61.61 0 0 0-.179.434v3.707a.613.613 0 1 0 1.225 0V15.97l1.359-1.359-.91-.91ZM10.967 12.028l-.366-.366-.522-.522v1.463H9.45v.919h1.058a.46.46 0 0 0 .46-.46v-1.034h-.001ZM10.112 9.051a1.193 1.193 0 0 0-.661-1.979V8.39l.661.661ZM5.186 4.125H6.75c.207 0 .375.168.375.375v1.564L9 7.939V3H4.061l1.125 1.125ZM7.125 8.185v4.94a.375.375 0 0 1-.375.375H4.5a.375.375 0 0 1-.375-.375v-7.94L3 4.06V21h6V10.06L7.125 8.185ZM3.658 3H3v.658L3.658 3Z" fill="#fff"/><path d="m14.185 13.125-2.249-2.25-8.077-8.077-1.06 1.061 7.802 7.803 1.463 1.463 8.076 8.076 1.061-1.061-7.016-7.015Z" fill="#EB0000"/></g><defs><clipPath id="a"><path fill="#fff" d="M0 0h24v24H0z"/></clipPath></defs></svg>