<svg class="color-immutable" width="24" height="24" viewBox="0 0 24 24" fill="none" xmlns="http://www.w3.org/2000/svg"><g clip-path="url(#a)"><path d="M0 22.5v-21C0 .675.675 0 1.5 0h21c.825 0 1.5.675 1.5 1.5v21c0 .825-.675 1.5-1.5 1.5h-21C.675 24 0 23.325 0 22.5Z" fill="#2D327D"/><path d="M14.55 9.417V7.071a1.192 1.192 0 0 0 0 2.346ZM7.39 16.415a1.048 1.048 0 0 1-.751.311H3.237c-.081 0-.16-.01-.237-.028V21h6v-6.195l-1.61 1.61ZM3.658 3H3v.658L3.658 3ZM5.186 4.125H6.75c.207 0 .375.168.375.375v1.564L9 7.939V3H4.061l1.125 1.125ZM7.435 11.218c0-.236.092-.457.258-.621l.922-.922-1.49-1.49v4.94a.375.375 0 0 1-.375.375H4.5a.375.375 0 0 1-.375-.375v-7.94L3 4.06v10.57c.076-.017.155-.028.237-.028h2.875l2.601-2.601a.879.879 0 0 1-1.278-.783ZM10.877 9.816h.656l-.328.328.73.73.785.785.312-.312v.624l1.153 1.153.365.365v-.886h-.629V10.46c0-.844-.685-1.531-1.532-1.531H10.25a.63.63 0 0 0-.219.041l.846.846Z" fill="#fff"/><path d="m11.019 13.362.641-.641-1.059-1.059-.457-.457-3.847 3.847h-3.06a.612.612 0 0 0 0 1.224h3.402a.606.606 0 0 0 .432-.179l2.432-2.432 2.305 2.304v3.367a.614.614 0 0 0 1.225 0v-3.707a.61.61 0 0 0-.179-.434l-1.835-1.833ZM8.314 11.646a.434.434 0 0 0 .304-.125l.921-.922-.606-.606-.922.922a.428.428 0 0 0 .303.731ZM15 16.06V21h4.94L15 16.06ZM20.341 21H21v-.659l-.659.659ZM21 19.939V3h-6v10.939l6 6ZM16.875 4.5c0-.207.168-.375.375-.375h2.25c.207 0 .375.168.375.375v8.625a.375.375 0 0 1-.375.375h-2.25a.375.375 0 0 1-.375-.375V4.5Z" fill="#fff"/><path d="m14.185 13.125-2.249-2.25-8.077-8.077-1.06 1.061 7.802 7.803 1.463 1.463 8.076 8.076 1.061-1.061-7.016-7.015Z" fill="#EB0000"/></g><defs><clipPath id="a"><path fill="#fff" d="M0 0h24v24H0z"/></clipPath></defs></svg>