<svg class="color-immutable" width="24" height="24" viewBox="0 0 24 24" fill="none" xmlns="http://www.w3.org/2000/svg"><path fill-rule="evenodd" clip-rule="evenodd" d="M22.5 0h-21C.675 0 0 .675 0 1.5v21c0 .825.675 1.5 1.5 1.5h21c.825 0 1.5-.675 1.5-1.5v-21c0-.825-.675-1.5-1.5-1.5Z" fill="#2D327D"/><path fill-rule="evenodd" clip-rule="evenodd" d="m9.008 6.465 1.642-1.642L8.775 2.94a.382.382 0 0 0-.262-.112.38.38 0 0 0-.27.112L7.125 4.05a.382.382 0 0 0-.112.263c0 .097.037.195.112.262l1.883 1.89Z" fill="#fff"/><path fill-rule="evenodd" clip-rule="evenodd" d="m12.75 7.5-1.86-1.86-1.058 1.065.795.795H7.125c-1.035 0-1.875.84-1.875 1.875V10.5h1.5V9.375c0-.202.173-.375.375-.375H16.5V7.5h-3.75ZM9 14.295l1.508-1.507-.796-.795-.712.712v-.442A.26.26 0 0 0 8.737 12H3.262a.266.266 0 0 0-.262.263v.442l-.713-.712-.795.795L3 14.295v4.41l-1.508 1.508.795.795.863-.863c.24.503.757.855 1.35.855h3a1.49 1.49 0 0 0 1.35-.855l.862.863.796-.795L9 18.705v-4.41ZM6 15.6c-.06-.03-.12-.052-.18-.075l-.938-.937c.39.007.765.097 1.118.262.202.098.42.165.645.21l-.57.57A.225.225 0 0 1 6 15.6Zm1.447.248c.3-.03.6-.113.878-.248v-.63l-.878.878Zm-2.61-2.685c.405 0 .803.09 1.163.262.36.173.757.263 1.162.263.375 0 .743-.083 1.08-.225l-.975.975h-.105A2.69 2.69 0 0 1 6 14.175a2.69 2.69 0 0 0-1.733-.202l-.562-.563a2.68 2.68 0 0 1 1.132-.247Zm-1.162 2.445c.142-.075.3-.128.457-.173l-.457-.457v.63Z" fill="#fff"/><path fill-rule="evenodd" clip-rule="evenodd" d="m6 15.705-3.713-3.712-.795.795L5.205 16.5l-3.713 3.713.795.795L6 17.295l3.712 3.713.796-.795L6.795 16.5l3.713-3.712-.796-.795L6 15.705Z" fill="#EB0000"/></svg>