<svg class="color-immutable" width="24" height="24" viewBox="0 0 24 24" fill="none" xmlns="http://www.w3.org/2000/svg"><path fill-rule="evenodd" clip-rule="evenodd" d="M22.5 0h-21C.675 0 0 .675 0 1.5v21c0 .825.675 1.5 1.5 1.5h21c.825 0 1.5-.675 1.5-1.5v-21c0-.825-.675-1.5-1.5-1.5Z" fill="#2D327D"/><path fill-rule="evenodd" clip-rule="evenodd" d="M7.088 21.112a2.636 2.636 0 0 1-2.633-2.632 2.64 2.64 0 0 1 2.633-2.633A2.636 2.636 0 0 1 9.72 18.48a2.631 2.631 0 0 1-2.632 2.632Zm-.008-4.5a1.868 1.868 0 1 0 0 3.736 1.868 1.868 0 0 0 0-3.736ZM13.838 21.112a2.636 2.636 0 0 1-2.633-2.632 2.646 2.646 0 0 1 2.633-2.633 2.636 2.636 0 0 1 2.632 2.633 2.636 2.636 0 0 1-2.632 2.632Zm0-4.5a1.868 1.868 0 1 0 0 3.736 1.868 1.868 0 0 0 0-3.736ZM3.023 9.48a10.39 10.39 0 0 0 2.4 5.625H15.57a10.503 10.503 0 0 0 2.4-5.625H3.023ZM9.495 8.73c.413 0 .578-.293.375-.653L6.728 2.632A7.48 7.48 0 0 0 3 8.722h6.495v.008ZM20.205 8.437h-4.5v.6h4.5a.3.3 0 0 0 .3-.3.3.3 0 0 0-.3-.3Z" fill="#fff"/></svg>