<svg class="color-immutable" width="24" height="24" viewBox="0 0 24 24" fill="none" xmlns="http://www.w3.org/2000/svg"><path fill-rule="evenodd" clip-rule="evenodd" d="M22.5 0h-21C.675 0 0 .675 0 1.5v21c0 .825.675 1.5 1.5 1.5h21c.825 0 1.5-.675 1.5-1.5v-21c0-.825-.675-1.5-1.5-1.5Z" fill="#2D327D"/><path fill-rule="evenodd" clip-rule="evenodd" d="M16.05 15.847a2.636 2.636 0 0 1 2.633 2.633 2.636 2.636 0 0 1-2.633 2.632 2.636 2.636 0 0 1-2.633-2.632 2.631 2.631 0 0 1 2.633-2.633Zm0 4.5a1.868 1.868 0 1 0 0-3.735 1.868 1.868 0 0 0 0 3.735ZM9.293 15.847a2.636 2.636 0 0 1 2.632 2.633 2.631 2.631 0 0 1-2.633 2.632A2.636 2.636 0 0 1 6.66 18.48a2.636 2.636 0 0 1 2.633-2.633Zm.007 4.5a1.868 1.868 0 1 0 0-3.735 1.868 1.868 0 0 0 0 3.735ZM20.115 9.48a10.39 10.39 0 0 1-2.4 5.625H7.568a10.503 10.503 0 0 1-2.4-5.625h14.947ZM13.643 8.73c-.413 0-.578-.293-.376-.653l3.143-5.445a7.48 7.48 0 0 1 3.727 6.09l-6.495.008ZM2.925 8.437h4.5v.6h-4.5a.3.3 0 0 1-.3-.3.3.3 0 0 1 .3-.3Z" fill="#fff"/></svg>