<svg class="color-immutable" width="24" height="24" viewBox="0 0 24 24" fill="none" xmlns="http://www.w3.org/2000/svg"><g clip-path="url(#a)"><path d="M0 22.5v-21C0 .675.675 0 1.5 0h21c.825 0 1.5.675 1.5 1.5v21c0 .825-.675 1.5-1.5 1.5h-21C.675 24 0 23.325 0 22.5Z" fill="#2D327D"/><path d="M10.212 12.704a.534.534 0 1 0 1.002-.369L9.381 7.356a1.499 1.499 0 0 0-1.408-.981H6.276c-.628 0-1.19.392-1.408.981l-1.834 4.978a.534.534 0 1 0 1.002.369L5.54 8.625h.5L3.415 15.75h1.929v4.481a.768.768 0 1 0 1.537 0V15.75h.488v4.481a.768.768 0 1 0 1.537 0V15.75h1.929L8.21 8.625h.5l1.502 4.079ZM8.594 4.488a1.5 1.5 0 1 0-3.001.001 1.5 1.5 0 0 0 3.001-.001Z" fill="#fff"/></g><defs><clipPath id="a"><path fill="#fff" d="M0 0h24v24H0z"/></clipPath></defs></svg>