<svg class="color-immutable" width="30" height="30" viewBox="0 0 30 30" fill="none" xmlns="http://www.w3.org/2000/svg"><path d="M30 0H0v30h30V0Z" fill="#2D327D"/><path d="M25.5 3c.825 0 1.5.675 1.5 1.5v21c0 .825-.675 1.5-1.5 1.5h-21c-.825 0-1.5-.675-1.5-1.5v-21C3 3.675 3.675 3 4.5 3h21Zm0-.375h-21A1.877 1.877 0 0 0 2.625 4.5v21c0 1.034.841 1.875 1.875 1.875h21a1.877 1.877 0 0 0 1.875-1.875v-21A1.877 1.877 0 0 0 25.5 2.625Z" fill="#fff"/><path d="M13.212 15.704a.534.534 0 1 0 1.003-.37l-1.834-4.978a1.5 1.5 0 0 0-1.408-.981H9.276a1.5 1.5 0 0 0-1.408.981l-1.834 4.978a.534.534 0 0 0 1.003.37l1.503-4.08h.5L6.413 18.75h1.929v4.48a.77.77 0 0 0 1.538 0v-4.48h.487v4.48a.769.769 0 0 0 1.538 0v-4.48h1.929l-2.626-7.125h.5l1.503 4.079ZM11.594 7.488a1.5 1.5 0 1 0-3.002.002 1.5 1.5 0 0 0 3.002-.002Z" fill="#fff"/></svg>