<svg class="color-immutable" width="24" height="24" viewBox="0 0 24 24" fill="none" xmlns="http://www.w3.org/2000/svg"><path fill-rule="evenodd" clip-rule="evenodd" d="M22.5 0h-21C.675 0 0 .675 0 1.5v21c0 .825.675 1.5 1.5 1.5h21c.825 0 1.5-.675 1.5-1.5v-21c0-.825-.675-1.5-1.5-1.5Z" fill="#2D327D"/><path fill-rule="evenodd" clip-rule="evenodd" d="M13.5 3v7.5H5.25v2.925H3V3h10.5Z" fill="#fff"/><path fill-rule="evenodd" clip-rule="evenodd" d="M14.033 13.425c.3-.9 1.147-1.5 2.092-1.5a2.23 2.23 0 0 1 2.1 1.5h2.782V8.392c0-.09-.015-.18-.037-.27l-.502-2.017a1.13 1.13 0 0 0-1.096-.855h-4.747v5.925H6v2.25h.907a2.21 2.21 0 0 1 4.185 0h2.94Zm6.022-5.865c.008.03.008.06.008.09 0 .21-.165.375-.375.375h-2.063a.371.371 0 0 1-.375-.375V6.3c0-.21.172-.375.375-.375h1.492c.308 0 .578.21.653.51l.285 1.125ZM3 16.2h17.992v1.125H3V16.2ZM3 20.325h18V21H3v-.675Z" fill="#fff"/><path fill-rule="evenodd" clip-rule="evenodd" d="M10.68 14.152a1.69 1.69 0 0 0-1.688-1.687 1.69 1.69 0 0 0-1.687 1.688c0 .93.758 1.687 1.688 1.687a1.69 1.69 0 0 0 1.687-1.688Zm-.75 0a.938.938 0 1 1-1.876 0 .938.938 0 0 1 1.876 0ZM17.872 14.152a1.69 1.69 0 0 0-1.687-1.687 1.69 1.69 0 0 0-1.687 1.688c0 .93.757 1.687 1.687 1.687a1.69 1.69 0 0 0 1.688-1.688Zm-.75 0a.938.938 0 1 1-1.875 0 .938.938 0 0 1 1.875 0ZM4.485 18.773a1.088 1.088 0 1 1 2.177.001 1.088 1.088 0 0 1-2.177-.001ZM7.395 18.773a1.088 1.088 0 1 1 2.177.001 1.088 1.088 0 0 1-2.177-.001ZM14.415 18.773a1.088 1.088 0 1 1 2.177.001 1.088 1.088 0 0 1-2.177-.001ZM17.325 18.773a1.088 1.088 0 1 1 2.177.001 1.088 1.088 0 0 1-2.177-.001Z" fill="#fff"/></svg>