<svg class="color-immutable" width="24" height="24" viewBox="0 0 24 24" fill="none" xmlns="http://www.w3.org/2000/svg"><path fill-rule="evenodd" clip-rule="evenodd" d="M22.5 0h-21C.675 0 0 .675 0 1.5v21c0 .825.675 1.5 1.5 1.5h21c.825 0 1.5-.675 1.5-1.5v-21c0-.825-.675-1.5-1.5-1.5Z" fill="#2D327D"/><path fill-rule="evenodd" clip-rule="evenodd" d="M10.5 3v7.5h8.25v2.925H21V3H10.5Z" fill="#fff"/><path fill-rule="evenodd" clip-rule="evenodd" d="M9.967 13.425c-.3-.9-1.147-1.5-2.092-1.5a2.23 2.23 0 0 0-2.1 1.5H2.992V8.392c0-.09.015-.18.038-.27l.503-2.017a1.13 1.13 0 0 1 1.095-.855h4.747v5.925H18v2.25h-.907a2.21 2.21 0 0 0-4.185 0h-2.94ZM3.945 7.56c-.007.03-.007.06-.007.09 0 .21.164.375.374.375h2.063c.21 0 .375-.165.375-.375V6.3a.371.371 0 0 0-.375-.375H4.883a.674.674 0 0 0-.653.51L3.945 7.56ZM3 16.2h18v1.125H3V16.2ZM3 20.325h18V21H3v-.675Z" fill="#fff"/><path fill-rule="evenodd" clip-rule="evenodd" d="M13.32 14.152c0-.93.758-1.687 1.688-1.687.93 0 1.687.758 1.687 1.688a1.69 1.69 0 0 1-1.688 1.687 1.69 1.69 0 0 1-1.687-1.688Zm.75 0a.938.938 0 1 0 1.876 0 .938.938 0 0 0-1.876 0ZM6.128 14.152c0-.93.757-1.687 1.687-1.687s1.687.75 1.687 1.688a1.69 1.69 0 0 1-1.687 1.687 1.69 1.69 0 0 1-1.688-1.688Zm.75 0a.938.938 0 1 0 1.875 0 .938.938 0 0 0-1.875 0ZM19.515 18.773a1.088 1.088 0 1 0-2.177.001 1.088 1.088 0 0 0 2.177-.001ZM16.605 18.773a1.088 1.088 0 1 0-2.177.001 1.088 1.088 0 0 0 2.177-.001ZM9.585 18.773a1.088 1.088 0 1 0-2.177.001 1.088 1.088 0 0 0 2.177-.001ZM6.675 18.773a1.088 1.088 0 1 0-2.177.001 1.088 1.088 0 0 0 2.177-.001Z" fill="#fff"/></svg>