<svg class="color-immutable" width="24" height="24" viewBox="0 0 24 24" fill="none" xmlns="http://www.w3.org/2000/svg"><path fill-rule="evenodd" clip-rule="evenodd" d="M22.5 0h-21C.675 0 0 .675 0 1.5v21c0 .825.675 1.5 1.5 1.5h21c.825 0 1.5-.675 1.5-1.5v-21c0-.825-.675-1.5-1.5-1.5Z" fill="#2D327D"/><path fill-rule="evenodd" clip-rule="evenodd" d="M8.085 17.955a3.029 3.029 0 0 0-1.387-.323c-1.305 0-2.363.75-2.363 1.68 0 .93 1.058 1.68 2.363 1.68s2.362-.75 2.362-1.68v-9.21l-.975-.975v8.828ZM15.99 6.652v8.258l.975.975V3l-8.88 3.42v.585L9.99 8.918l6-2.265ZM12.24 17.22c0 .93 1.058 1.68 2.363 1.68.997 0 1.845-.443 2.197-1.058l-2.302-2.302c-1.26.037-2.258.772-2.258 1.68Z" fill="#fff"/><path fill-rule="evenodd" clip-rule="evenodd" d="M3.705 2.632 2.648 3.69l17.34 17.347 1.064-1.065L3.705 2.632Z" fill="#EB0000"/></svg>