<svg class="color-immutable" width="24" height="24" viewBox="0 0 24 24" fill="none" xmlns="http://www.w3.org/2000/svg"><path fill-rule="evenodd" clip-rule="evenodd" d="M22.5 0h-21C.675 0 0 .675 0 1.5v21c0 .825.675 1.5 1.5 1.5h21c.825 0 1.5-.675 1.5-1.5v-21c0-.825-.675-1.5-1.5-1.5Z" fill="#2D327D"/><path fill-rule="evenodd" clip-rule="evenodd" d="M12.232 5.625V3.398l.923 1.005v-.675L12 2.573l-1.155 1.155v.675l.922-1.005v2.227h.466ZM11.768 18.375v2.227l-.923-1.005v.675L12 21.428l1.155-1.154v-.675l-.922 1.005v-2.228h-.466ZM6.075 6.075h11.85v11.85H6.075V6.075Zm.75 11.1h10.35V6.825H6.825v10.35ZM18.75 3H21v18h-2.25V3ZM3 3h2.25v18H3V3Z" fill="#fff"/><path fill-rule="evenodd" clip-rule="evenodd" d="M10.335 9.015a.78.78 0 1 0 .001-1.559.78.78 0 0 0-.001 1.559ZM8.872 13.005a.293.293 0 0 0 .293-.293V10.47h.195v6.015c0 .218.172.39.39.39.217 0 .39-.172.39-.39v-3.48h.292v3.48c0 .218.173.39.39.39.218 0 .39-.172.39-.39V10.47h.196v2.242c0 .165.135.293.292.293a.298.298 0 0 0 .293-.293v-2.64a.78.78 0 0 0-.78-.78H9.36a.78.78 0 0 0-.78.78v2.64c0 .165.135.293.292.293Z" fill="#fff"/></svg>