<svg class="color-immutable" width="30" height="30" viewBox="0 0 30 30" fill="none" xmlns="http://www.w3.org/2000/svg"><path d="M30 0H0v30h30V0Z" fill="#2D327D"/><path d="M25.5 3c.825 0 1.5.675 1.5 1.5v21c0 .825-.675 1.5-1.5 1.5h-21c-.825 0-1.5-.675-1.5-1.5v-21C3 3.675 3.675 3 4.5 3h21Zm0-.375h-21A1.877 1.877 0 0 0 2.625 4.5v21c0 1.034.841 1.875 1.875 1.875h21a1.877 1.877 0 0 0 1.875-1.875v-21A1.877 1.877 0 0 0 25.5 2.625Z" fill="#fff"/><path d="M15.232 8.625V6.396l.923 1.008v-.677L15 5.572l-1.155 1.155v.677l.924-1.008v2.229h.463ZM14.769 21.375v2.228l-.924-1.008v.678L15 24.428l1.155-1.155v-.678l-.923 1.008v-2.229h-.463ZM20.925 9.075H9.075v11.85h11.85V9.075Zm-.75 11.1H9.825V9.825h10.35v10.35ZM21.75 6H24v18h-2.25V6ZM6 6h2.25v18H6V6Z" fill="#fff"/><path d="M13.334 12.015a.782.782 0 1 0 0-1.564.782.782 0 0 0 0 1.564ZM11.875 16.006a.293.293 0 0 0 .293-.293v-2.246h.195v6.017a.39.39 0 0 0 .782 0v-3.478h.293v3.478a.39.39 0 0 0 .781 0v-6.017h.195v2.246a.293.293 0 0 0 .586 0v-2.637a.782.782 0 0 0-.78-.781h-1.857a.782.782 0 0 0-.78.781v2.637c0 .162.13.293.292.293Z" fill="#fff"/></svg>