<svg class="color-immutable" width="30" height="30" viewBox="0 0 30 30" fill="none" xmlns="http://www.w3.org/2000/svg"><g clip-path="url(#a)"><path d="M30 0H0v30h30V0Z" fill="#2D327D"/><path d="M25.5 3c.825 0 1.5.675 1.5 1.5v21c0 .825-.675 1.5-1.5 1.5h-21c-.825 0-1.5-.675-1.5-1.5v-21C3 3.675 3.675 3 4.5 3h21Zm0-.375h-21A1.877 1.877 0 0 0 2.625 4.5v21c0 1.034.841 1.875 1.875 1.875h21a1.877 1.877 0 0 0 1.875-1.875v-21A1.877 1.877 0 0 0 25.5 2.625Z" fill="#fff"/><path d="M8.636 21.739a.374.374 0 0 1-.265-.64l1.59-1.591a.375.375 0 0 1 .531.53l-1.59 1.591a.374.374 0 0 1-.266.11ZM21.364 21.739a.374.374 0 0 1-.265-.11l-1.591-1.59a.375.375 0 1 1 .53-.531l1.591 1.59a.375.375 0 0 1-.265.641ZM8.25 15.375H6a.375.375 0 0 1 0-.75h2.25a.375.375 0 0 1 0 .75ZM24 15.375h-2.25a.375.375 0 0 1 0-.75H24a.375.375 0 0 1 0 .75ZM15 24.375a.375.375 0 0 1-.375-.375v-2.25a.375.375 0 0 1 .75 0V24a.375.375 0 0 1-.375.375ZM17.474 10.18v-.43h-4.948v.43c0 .61-.253 1.19-.687 1.619a4.486 4.486 0 0 0-1.334 3.409 4.514 4.514 0 0 0 4.28 4.287 4.5 4.5 0 0 0 3.369-7.704 2.258 2.258 0 0 1-.68-1.61ZM17.475 9V6.75a.75.75 0 0 0-.75-.75h-3.45a.75.75 0 0 0-.75.75V9h4.95Z" fill="#fff"/></g><defs><clipPath id="a"><path fill="#fff" d="M0 0h30v30H0z"/></clipPath></defs></svg>