<svg class="color-immutable" width="24" height="24" viewBox="0 0 24 24" fill="none" xmlns="http://www.w3.org/2000/svg"><path fill-rule="evenodd" clip-rule="evenodd" d="M22.5 0h-21C.675 0 0 .675 0 1.5v21c0 .825.675 1.5 1.5 1.5h21c.825 0 1.5-.675 1.5-1.5v-21c0-.825-.675-1.5-1.5-1.5Z" fill="#2D327D"/><path fill-rule="evenodd" clip-rule="evenodd" d="M19.41 14.28a.795.795 0 0 0 1.59 0v-.795h-1.59v.795ZM19.155 10.973c-.053.224-.105.42.022.66.105.202.346.645.346.645l1.44.577.33-1.357a.709.709 0 0 0 0-.308l-.405-1.875a.482.482 0 0 0-.473-.383h-.427a.482.482 0 0 0-.473.383l-.36 1.658ZM16.59 14.28a.795.795 0 0 1-1.59 0v-.795h1.59v.795ZM16.845 10.973c.053.224.105.42-.022.66-.105.202-.346.645-.346.645l-1.44.577-.33-1.357a.709.709 0 0 1 0-.308l.405-1.875a.482.482 0 0 1 .473-.383h.427c.226 0 .428.158.473.383l.36 1.658ZM6.66 20.28a.795.795 0 0 0 1.59 0v-.795H6.66v.795ZM6.405 16.973c-.053.225-.105.42.022.66.105.202.345.645.345.645l1.44.577.33-1.358a.709.709 0 0 0 0-.307l-.405-1.875a.482.482 0 0 0-.472-.383h-.428a.482.482 0 0 0-.472.383l-.36 1.658ZM4.59 14.28a.795.795 0 0 1-1.59 0v-.795h1.59v.795ZM4.845 10.973c.052.224.105.42-.023.66-.105.202-.345.645-.345.645l-1.44.577-.33-1.357a.709.709 0 0 1 0-.308l.405-1.875a.482.482 0 0 1 .473-.383h.427c.225 0 .428.158.473.383l.36 1.658ZM6.66 8.28a.795.795 0 0 0 1.59 0v-.795H6.66v.795ZM6.405 4.972c-.053.225-.105.42.022.66.105.203.345.645.345.645l1.44.578.33-1.358a.709.709 0 0 0 0-.307l-.405-1.875a.482.482 0 0 0-.472-.382h-.428a.482.482 0 0 0-.472.382l-.36 1.657ZM12 21.112a.186.186 0 0 1-.188-.187V3.075c0-.105.083-.188.188-.188s.188.083.188.188v17.85a.186.186 0 0 1-.188.187Z" fill="#fff"/></svg>