<svg class="color-immutable" width="24" height="24" viewBox="0 0 24 24" fill="none" xmlns="http://www.w3.org/2000/svg"><g clip-path="url(#a)"><path d="M0 22.5v-21C0 .675.675 0 1.5 0h21c.825 0 1.5.675 1.5 1.5v21c0 .825-.675 1.5-1.5 1.5h-21C.675 24 0 23.325 0 22.5Z" fill="#2D327D"/><path d="M6.6 13.5c0 .571.206 1.095.549 1.5a2.316 2.316 0 0 0 1.776.825c.712 0 1.35-.32 1.776-.825A2.325 2.325 0 1 0 6.6 13.5Zm1.125 0a1.2 1.2 0 1 1 2.4 0 1.2 1.2 0 0 1-2.4 0ZM20.999 12.6h-8.625v1.5h8.625v-1.5Z" fill="#fff"/><path d="M2.999 8.175 3 13.725c0 .207.168.375.375.375h1.95a.375.375 0 0 0 .375-.375V13.489a3.225 3.225 0 0 1 5.552-2.222l-.003-6.917H5.026a1.35 1.35 0 0 0-1.304 1l-.676 2.475a1.336 1.336 0 0 0-.047.35Zm6-3.15c.207 0 .375.168.375.375v2.175a.375.375 0 0 1-.375.375h-4.8a.375.375 0 0 1-.362-.472l.536-2.008a.598.598 0 0 1 .577-.445h4.049ZM21 16.2H3v1.125h18V16.2ZM3 20.325h18V21H3v-.675ZM4.498 18.787a1.087 1.087 0 1 1 2.174.002 1.087 1.087 0 0 1-2.174-.002ZM7.422 18.787a1.087 1.087 0 1 1 2.175.003 1.087 1.087 0 0 1-2.175-.003ZM14.398 18.787a1.087 1.087 0 1 1 2.174.002 1.087 1.087 0 0 1-2.174-.002ZM17.322 18.787a1.087 1.087 0 1 1 2.175.003 1.087 1.087 0 0 1-2.175-.003ZM21 7.275h-5.7a.375.375 0 0 1 0-.75H21v-.75h-5.7a.375.375 0 0 1 0-.75H21V3h-8.25a.375.375 0 0 0-.375.375v8.475L21 11.846V7.275Z" fill="#fff"/></g><defs><clipPath id="a"><path fill="#fff" d="M0 0h24v24H0z"/></clipPath></defs></svg>