<svg class="color-immutable" width="24" height="24" viewBox="0 0 24 24" fill="none" xmlns="http://www.w3.org/2000/svg"><g clip-path="url(#a)"><path d="M0 22.5v-21C0 .675.675 0 1.5 0h21c.825 0 1.5.675 1.5 1.5v21c0 .825-.675 1.5-1.5 1.5h-21C.675 24 0 23.325 0 22.5Z" fill="#2D327D"/><path d="M5.137 11.1a.3.3 0 0 0-.299.301c0 .426.311.788.731.852l2.422.372a.215.215 0 0 1 .185.214.219.219 0 0 1-.217.219h-4.42a.537.537 0 0 0-.539.536c0 .298.243.54.539.54h2.855a.355.355 0 0 1 0 .711H3.539a.54.54 0 0 0 0 1.078h2.855a.356.356 0 0 1 0 .711H3.539a.54.54 0 0 0 0 1.078h2.855a.356.356 0 0 1 0 .711H3.539a.54.54 0 0 0 0 1.077H15v-2.323a.562.562 0 0 0-.563-.561h-.75a.561.561 0 1 1 0-1.124h.75A.563.563 0 0 0 15 14.93v-2.324l-9.817-1.502a.232.232 0 0 0-.046-.004Z" fill="#fff"/><path d="m20.827 13.81-1.045-1.044a.568.568 0 0 0-.398-.164h-.454V8.326h.755c.724 0 1.315-.587 1.315-1.312 0-.725-.591-1.314-1.315-1.314h-.56a.375.375 0 1 0 0 .751h.56a.562.562 0 1 1 0 1.126h-3.192V5.703L4.403 7.577H3v.749h1.403l12.09 1.876V8.326h2.061v4.275H18.1a.574.574 0 0 0-.398.164l-1.045 1.046a.57.57 0 0 0-.164.397v6.23c0 .309.253.563.563.563h3.374a.563.563 0 0 0 .563-.563v-6.23a.565.565 0 0 0-.164-.397v-.001h-.002Zm-1.652 5.69h-.932v-.918h.932v.918Zm.877-2.554c-.111.158-.329.351-.655.579a.59.59 0 0 0-.212.256c-.042.1-.065.24-.069.419h-.798c.006-.214.013-.358.022-.432.009-.074.029-.154.06-.24a.84.84 0 0 1 .152-.257 3.62 3.62 0 0 1 .38-.336 1.23 1.23 0 0 0 .289-.295.568.568 0 0 0 .076-.301.452.452 0 0 0-.142-.348.526.526 0 0 0-.373-.132c-.401 0-.612.245-.631.736h-.871c.019-.38.111-.683.275-.909.271-.374.684-.561 1.239-.561.438 0 .786.118 1.043.354.253.23.38.521.38.874a.993.993 0 0 1-.165.593Z" fill="#fff"/></g><defs><clipPath id="a"><path fill="#fff" d="M0 0h24v24H0z"/></clipPath></defs></svg>