<svg class="color-immutable" width="24" height="24" viewBox="0 0 24 24" fill="none" xmlns="http://www.w3.org/2000/svg"><g clip-path="url(#a)"><path d="M0 22.5v-21C0 .675.675 0 1.5 0h21c.825 0 1.5.675 1.5 1.5v21c0 .825-.675 1.5-1.5 1.5h-21C.675 24 0 23.325 0 22.5Z" fill="#2D327D"/><path d="M8.085 17.955a3.028 3.028 0 0 0-1.387-.321c-1.304 0-2.362.753-2.362 1.683C4.337 20.247 5.394 21 6.7 21c1.304 0 2.362-.753 2.362-1.683v-9.212l-.976-.975v8.825ZM15.989 6.651v8.26l.975.975V3L8.085 6.423v.585l1.906 1.906 5.998-2.263ZM12.24 17.217c0 .929 1.057 1.683 2.362 1.683.995 0 1.846-.439 2.194-1.06l-2.304-2.304c-1.253.041-2.252.778-2.252 1.681Z" fill="#fff"/><path d="m3.708 2.631-1.06 1.061L19.99 21.034l1.06-1.061L3.708 2.631Z" fill="#EB0000"/></g><defs><clipPath id="a"><path fill="#fff" d="M0 0h24v24H0z"/></clipPath></defs></svg>