<svg class="color-immutable" width="24" height="24" viewBox="0 0 24 24" fill="none" xmlns="http://www.w3.org/2000/svg"><path fill-rule="evenodd" clip-rule="evenodd" d="M22.5 0h-21C.675 0 0 .675 0 1.5v21c0 .825.675 1.5 1.5 1.5h21c.825 0 1.5-.675 1.5-1.5v-21c0-.825-.675-1.5-1.5-1.5Z" fill="#2D327D"/><path fill-rule="evenodd" clip-rule="evenodd" d="M15.225 5.438 8.76 4.305a.695.695 0 0 1 .232-1.372l6.465 1.132c.33.06.578.345.578.683 0 .382-.308.69-.69.69a.322.322 0 0 1-.12 0ZM21 7.515 3 4.365v-.69l18 3.158v.682ZM3 12c0-.412.337-.75.75-.75l3.713.008 2.775-5.243 1.05.18L8.61 11.25h6.742l-2.49-4.777 1.306.225 2.37 4.552h3.712c.413 0 .75.338.75.75v8.25c0 .413-.337.75-.75.75H3.75a.752.752 0 0 1-.75-.75V12Zm12.248.375v3.75c0 .21.172.375.375.375h4.252c.21 0 .375-.165.375-.375v-3.75a.371.371 0 0 0-.375-.375h-4.252a.371.371 0 0 0-.375.375Zm-5.745 3.75v-3.75c0-.21.165-.375.374-.375h4.253c.21 0 .375.165.375.375v3.75c0 .21-.165.375-.375.375H9.877a.371.371 0 0 1-.375-.375Zm-5.753-3.75v3.75c0 .21.165.375.375.375h4.252c.21 0 .375-.165.375-.375v-3.75A.371.371 0 0 0 8.377 12H4.125a.371.371 0 0 0-.375.375Z" fill="#fff"/></svg>