<svg class="color-immutable" width="24" height="24" viewBox="0 0 24 24" fill="none" xmlns="http://www.w3.org/2000/svg"><path fill-rule="evenodd" clip-rule="evenodd" d="M22.5 0h-21C.675 0 0 .675 0 1.5v21c0 .825.675 1.5 1.5 1.5h21c.825 0 1.5-.675 1.5-1.5v-21c0-.825-.675-1.5-1.5-1.5Z" fill="#2D327D"/><path fill-rule="evenodd" clip-rule="evenodd" d="m8.775 5.438 6.465-1.133a.695.695 0 0 0-.232-1.372L8.543 4.065a.699.699 0 0 0-.578.683c0 .382.308.69.69.69a.322.322 0 0 0 .12 0ZM3 7.515l18-3.15v-.69L3 6.833v.682ZM16.538 11.25h3.712c.413 0 .75.338.75.75v8.25c0 .413-.337.75-.75.75H3.75a.752.752 0 0 1-.75-.75V12c0-.412.337-.75.75-.75h3.713l2.37-4.56 1.304-.225-2.49 4.778h6.743l-2.678-5.055 1.05-.18 2.776 5.242Zm-8.16 5.25c.21 0 .374-.165.374-.375v-3.75A.371.371 0 0 0 8.377 12H4.125a.371.371 0 0 0-.375.375v3.75c0 .21.165.375.375.375h4.252Zm6.12-.375c0 .21-.165.375-.375.375H9.87a.371.371 0 0 1-.375-.375v-3.75c0-.21.165-.375.375-.375h4.253c.21 0 .375.165.375.375v3.75Zm5.377.375c.21 0 .375-.165.375-.375v-3.75a.371.371 0 0 0-.375-.375h-4.252a.371.371 0 0 0-.375.375v3.75c0 .21.165.375.375.375h4.252Z" fill="#fff"/></svg>