<svg class="color-immutable" width="24" height="24" viewBox="0 0 24 24" fill="none" xmlns="http://www.w3.org/2000/svg"><g clip-path="url(#a)"><path d="M0 22.5v-21C0 .675.675 0 1.5 0h21c.825 0 1.5.675 1.5 1.5v21c0 .825-.675 1.5-1.5 1.5h-21C.675 24 0 23.325 0 22.5Z" fill="#2D327D"/><path d="M3 7.875V21h18V7.875H3Zm16.875 12H4.125V9h15.75v10.875Z" fill="#fff"/><path d="M7.125 19.125h9.749c.622 0 1.126-.503 1.126-1.125v-5.7c0-.619-.504-1.124-1.126-1.124H13.8v-.487a.94.94 0 0 0-.938-.939h-1.725a.938.938 0 0 0-.936.939v.487H7.125C6.504 11.176 6 11.681 6 12.3V18c0 .622.504 1.125 1.125 1.125Zm3.75-8.699h2.25v.75h-2.25v-.75ZM9.375 5.438l.75.75.75-.75.75.75.938-.938-.938-.938H7.336a2.286 2.286 0 1 0 0 1.874h1.289l.75-.748ZM4.125 6a.75.75 0 1 1 0-1.5.75.75 0 0 1 0 1.5Z" fill="#fff"/></g><defs><clipPath id="a"><path fill="#fff" d="M0 0h24v24H0z"/></clipPath></defs></svg>