<svg class="color-immutable" width="24" height="24" viewBox="0 0 24 24" fill="none" xmlns="http://www.w3.org/2000/svg"><g clip-path="url(#a)"><path d="M0 22.5v-21C0 .675.675 0 1.5 0h21c.825 0 1.5.675 1.5 1.5v21c0 .825-.675 1.5-1.5 1.5h-21C.675 24 0 23.325 0 22.5Z" fill="#2D327D"/><path d="M3 7.5h.675v1.125H3V7.5ZM3 19.125h.675v1.125H3v-1.125ZM4.425 6.75h1.05V21h-1.05V6.75ZM6.15 19.163h11.7v1.087H6.15v-1.087ZM16.726 10.838H13.8v-.563a.94.94 0 0 0-.937-.938h-1.726a.938.938 0 0 0-.936.938v.563H7.275c-.622 0-1.125.504-1.125 1.125v5.289c0 .62.503 1.123 1.125 1.123h9.451c.621 0 1.124-.503 1.124-1.123v-5.289c0-.621-.503-1.125-1.124-1.125Zm-3.601 0h-2.25v-.824h2.25v.824ZM6.15 7.5h11.7v1.087H6.15V7.5ZM18.525 6.75h1.05V21h-1.05V6.75ZM20.325 7.5H21v1.125h-.675V7.5ZM20.325 19.125H21v1.125h-.675v-1.125Z" fill="#fff"/></g><defs><clipPath id="a"><path fill="#fff" d="M0 0h24v24H0z"/></clipPath></defs></svg>