<svg class="color-immutable" width="24" height="24" viewBox="0 0 24 24" fill="none" xmlns="http://www.w3.org/2000/svg"><g clip-path="url(#a)"><path d="M0 22.5v-21C0 .675.675 0 1.5 0h21c.825 0 1.5.675 1.5 1.5v21c0 .825-.675 1.5-1.5 1.5h-21C.675 24 0 23.325 0 22.5Z" fill="#2D327D"/><path d="M21.096 9.624a2.25 2.25 0 0 0-2.249-2.251h-3.975v-.937c0-.724-.588-1.312-1.313-1.312h-2.925c-.725 0-1.312.588-1.312 1.312v.938h-.87L3.708 2.631l-1.06 1.061L6.33 7.374h-.984a2.251 2.251 0 0 0-2.25 2.251v9.001a2.251 2.251 0 0 0 2.25 2.249h13.5c.292 0 .57-.056.826-.157l.318.318 1.061-1.061-.245-.245c.184-.326.29-.702.29-1.103V9.624Zm-10.725-3.45h3.45v1.199h-3.45V6.174Z" fill="#fff"/><path d="m3.708 2.631-1.06 1.061L19.99 21.034l1.06-1.061L3.708 2.631Z" fill="#EB0000"/></g><defs><clipPath id="a"><path fill="#fff" d="M0 0h24v24H0z"/></clipPath></defs></svg>