<svg class="color-immutable" width="24" height="24" viewBox="0 0 24 24" fill="none" xmlns="http://www.w3.org/2000/svg"><g clip-path="url(#a)"><path d="M0 22.5v-21C0 .675.675 0 1.5 0h21c.825 0 1.5.675 1.5 1.5v21c0 .825-.675 1.5-1.5 1.5h-21C.675 24 0 23.325 0 22.5Z" fill="#2D327D"/><path d="M5.531 9.657a.32.32 0 0 0 .452-.452l-.337-.335.134-.136.917.917a.338.338 0 1 0 .478-.478l-.917-.916.136-.135 1.529 1.529a.337.337 0 0 0 .575-.239.345.345 0 0 0-.098-.239L6.87 7.644l.136-.135 2.136 2.137a.357.357 0 0 0 .503-.505L6.63 6.126a.337.337 0 0 1 .238-.577h1.194a.45.45 0 0 0 .446-.513.187.187 0 0 0-.186-.161H3V7.5h.374l2.157 2.157ZM14.25 18.45V13.2c0-.621-.504-1.125-1.125-1.125H10.5V11.4a.9.9 0 0 0-.899-.9H7.65a.9.9 0 0 0-.899.9v.675H4.125C3.503 12.075 3 12.579 3 13.2v5.25c0 .621.503 1.125 1.125 1.125h9c.621 0 1.125-.504 1.125-1.125Zm-6.825-7.275h2.401v.9H7.425v-.9Zm4.013 5.137a.301.301 0 0 1-.301.301H9.113a.3.3 0 0 1-.3-.301v-2.598c0-.08.032-.155.087-.212h.001l.621-.622a.19.19 0 0 1 .134-.056h.281v.376h.374v-.375h.282c.049 0 .098.02.132.056l.623.622a.297.297 0 0 1 .088.212v2.597h.002ZM9.75 20.325H21V21H9.75v-.675Z" fill="#fff"/></g><defs><clipPath id="a"><path fill="#fff" d="M0 0h24v24H0z"/></clipPath></defs></svg>