<svg class="color-immutable" width="30" height="30" viewBox="0 0 30 30" fill="none" xmlns="http://www.w3.org/2000/svg"><g clip-path="url(#a)"><path d="M30 30H0V0h30v30Z" fill="#2D327D"/><path d="M25.5 3c.825 0 1.5.675 1.5 1.5v21c0 .825-.675 1.5-1.5 1.5h-21c-.825 0-1.5-.675-1.5-1.5v-21C3 3.675 3.675 3 4.5 3h21Zm0-.375h-21A1.877 1.877 0 0 0 2.625 4.5v21c0 1.034.841 1.875 1.875 1.875h21a1.877 1.877 0 0 0 1.875-1.875v-21A1.877 1.877 0 0 0 25.5 2.625Z" fill="#fff"/><path d="M6.73 22.575h4.502l.729-10.92c.002-.023.002-.045.002-.069 0-.557-.454-1.011-1.013-1.011H7.013c-.56 0-1.013.454-1.013 1.011l.001.068.73 10.921ZM6.796 11.7c0-.207.167-.376.375-.376h3.62a.377.377 0 0 1 .375.401l-.223 3.35H7.021l-.225-3.35V11.7Z" fill="#fff"/><path d="m10.719 12.196-.262-.149-.371.65.26.15.373-.65ZM9.952 11.844l-.29-.077-.19.726.29.076.19-.725ZM8.831 11.7h.301v.75h-.3v-.75ZM8.787 14.7h.39l-.808-2.766a.19.19 0 0 0-.182-.133.187.187 0 0 0-.18.24l.78 2.66ZM7.872 12.702l-.373-.65-.261.148.373.65.261-.148ZM22.875 15.075H20.25v-.75a.825.825 0 0 0-.825-.825h-2.1a.825.825 0 0 0-.825.825v.75h-2.625c-.622 0-1.125.503-1.125 1.124v5.25c0 .622.503 1.126 1.125 1.126h9c.62 0 1.125-.504 1.125-1.125V16.2c0-.622-.504-1.125-1.125-1.125Zm-4.687 4.274a.3.3 0 0 1-.3.301h-2.026a.3.3 0 0 1-.3-.3v-2.598c0-.08.032-.156.088-.212l.66-.66a.193.193 0 0 1 .133-.054h.244v.373h.376v-.373h.244c.049 0 .098.02.133.054l.66.66a.3.3 0 0 1 .088.212v2.598Zm1.386-4.274h-2.4v-.9h2.4v.9ZM6 23.325h17.99V24H6v-.675Z" fill="#fff"/></g><defs><clipPath id="a"><path fill="#fff" d="M0 0h30v30H0z"/></clipPath></defs></svg>