<svg class="color-immutable" width="30" height="30" viewBox="0 0 30 30" fill="none" xmlns="http://www.w3.org/2000/svg"><g clip-path="url(#a)"><path d="M30 30H0V0h30v30Z" fill="#2D327D"/><path d="M25.5 3c.825 0 1.5.675 1.5 1.5v21c0 .825-.675 1.5-1.5 1.5h-21c-.825 0-1.5-.675-1.5-1.5v-21C3 3.675 3.675 3 4.5 3h21Zm0-.375h-21A1.877 1.877 0 0 0 2.625 4.5v21c0 1.034.841 1.875 1.875 1.875h21a1.877 1.877 0 0 0 1.875-1.875v-21A1.877 1.877 0 0 0 25.5 2.625Z" fill="#fff"/><path d="M6 10.5h.675v1.125H6V10.5ZM6 22.125h.675v1.125H6v-1.125ZM7.425 9.75h1.05V24h-1.05V9.75ZM9.15 22.163h11.7v1.087H9.15v-1.087ZM19.726 13.838H16.8v-.563a.939.939 0 0 0-.937-.938h-1.726a.938.938 0 0 0-.937.938v.563h-2.925c-.622 0-1.125.504-1.125 1.125v5.289c0 .62.503 1.123 1.125 1.123h9.45c.621 0 1.125-.503 1.125-1.123v-5.289c0-.621-.504-1.125-1.124-1.125Zm-3.601 0h-2.25v-.824h2.25v.824ZM9.15 10.5h11.7v1.088H9.15V10.5ZM21.525 9.75h1.05V24h-1.05V9.75ZM23.325 10.5H24v1.125h-.675V10.5ZM23.325 22.125H24v1.125h-.675v-1.125Z" fill="#fff"/></g><defs><clipPath id="a"><path fill="#fff" d="M0 0h30v30H0z"/></clipPath></defs></svg>