<svg class="color-immutable" width="24" height="24" viewBox="0 0 24 24" fill="none" xmlns="http://www.w3.org/2000/svg"><g clip-path="url(#a)"><path d="M0 22.5v-21C0 .675.675 0 1.5 0h21c.825 0 1.5.675 1.5 1.5v21c0 .825-.675 1.5-1.5 1.5h-21C.675 24 0 23.325 0 22.5Z" fill="#2D327D"/><path d="M7.687 16.688h9.75a1.5 1.5 0 0 0 1.5-1.5V10.5a1.5 1.5 0 0 0-1.5-1.5h-2.812v-.751a.75.75 0 0 0-.751-.748H11.25a.75.75 0 0 0-.751.748V9H7.687a1.5 1.5 0 0 0-1.5 1.5v4.689c0 .826.673 1.499 1.5 1.499Zm3.563-8.439h2.624V9H11.25v-.751Z" fill="#fff"/><path d="M18.938 18v-.749H5.624V7.875a.374.374 0 0 0-.374-.374H3.375a.375.375 0 1 0 0 .748h1.5V18h14.063ZM17.768 18.552a1.22 1.22 0 1 0 0 2.438 1.22 1.22 0 0 0 0-2.438ZM6.124 18.552a1.22 1.22 0 1 0 0 2.438 1.22 1.22 0 0 0 0-2.438Z" fill="#fff"/></g><defs><clipPath id="a"><path fill="#fff" d="M0 0h24v24H0z"/></clipPath></defs></svg>