<svg class="color-immutable" width="24" height="24" viewBox="0 0 24 24" fill="none" xmlns="http://www.w3.org/2000/svg"><g clip-path="url(#a)"><path d="M0 22.5v-21C0 .675.675 0 1.5 0h21c.825 0 1.5.675 1.5 1.5v21c0 .825-.675 1.5-1.5 1.5h-21C.675 24 0 23.325 0 22.5Z" fill="#2D327D"/><path d="M11.799 12.254h.42a.09.09 0 0 0 .09-.09v-.93a.3.3 0 0 0-.3-.3.3.3 0 0 0-.3.3v.93c0 .05.04.09.09.09ZM12.234 12.494v7.591c0 .049.041.09.09.09h1.034a.347.347 0 0 0 .334-.303s.157-1.408.157-3.583c0-2.174-.157-3.582-.157-3.582a.348.348 0 0 0-.334-.303h-1.034a.09.09 0 0 0-.09.09ZM10.326 12.707s-.157 1.408-.157 3.582.157 3.583.157 3.583a.348.348 0 0 0 .334.303h1.034c.05 0 .09-.04.09-.09v-7.591a.09.09 0 0 0-.09-.09H10.66a.348.348 0 0 0-.334.303ZM21 20.7H3v.3h18v-.3ZM15.477 17.284c.158.12.354.191.568.191h4.505c.248 0 .45-.203.45-.45V15.9a.451.451 0 0 0-.45-.45h-3.79l-.643-2.025 3.331.001a.637.637 0 1 0 0-1.274l-3.736-.002-1.538-4.874h-1.5l2.469 9.525a.954.954 0 0 0 .334.483Zm-1.522-9.709 1.538 4.874 3.956.002a.337.337 0 0 1 0 .675l-3.741-.001.833 2.625h4.009c.081 0 .15.069.15.15v1.125c0 .081-.069.15-.15.15h-4.505a.633.633 0 0 1-.386-.13.652.652 0 0 1-.226-.325l-2.371-9.145h.893ZM14.167 6.825l.803-.876c.168-.176.18-.288.18-.45V3.45A.45.45 0 0 0 14.7 3h-1.575a.45.45 0 0 0-.45.45v3.375h1.492ZM13.125 3.3H14.7a.15.15 0 0 1 .15.15V5.5c0 .113 0 .14-.099.244l-.716.781h-1.06V3.45a.15.15 0 0 1 .15-.15ZM3.45 17.475h4.505a.934.934 0 0 0 .901-.675l2.469-9.525h-1.5l-1.538 4.874-3.736.002a.638.638 0 1 0 0 1.274l3.331-.001-.643 2.026H3.45a.451.451 0 0 0-.45.45v1.125c0 .247.202.45.45.45ZM3.3 15.9c0-.081.069-.15.15-.15h4.009l.833-2.625-3.741.001a.337.337 0 1 1 .001-.675l3.956-.002 1.538-4.874h.893L8.566 16.72a.635.635 0 0 1-.612.455H3.45a.152.152 0 0 1-.15-.15V15.9ZM9.833 6.825h1.492V3.45a.45.45 0 0 0-.45-.45H9.3a.45.45 0 0 0-.45.45v2.049c0 .162.011.273.18.45l.803.876ZM9.15 3.45a.15.15 0 0 1 .15-.15h1.575a.15.15 0 0 1 .15.15v3.075h-1.06l-.716-.781C9.15 5.64 9.15 5.613 9.15 5.5V3.45Z" fill="#fff"/></g><defs><clipPath id="a"><path fill="#fff" d="M0 0h24v24H0z"/></clipPath></defs></svg>