<svg class="color-immutable" width="30" height="30" viewBox="0 0 30 30" fill="none" xmlns="http://www.w3.org/2000/svg"><g clip-path="url(#a)"><path d="M30 30H0V0h30v30Z" fill="#2D327D"/><path d="M25.5 3c.825 0 1.5.675 1.5 1.5v21c0 .825-.675 1.5-1.5 1.5h-21c-.825 0-1.5-.675-1.5-1.5v-21C3 3.675 3.675 3 4.5 3h21Zm0-.375h-21A1.877 1.877 0 0 0 2.625 4.5v21c0 1.034.841 1.875 1.875 1.875h21a1.877 1.877 0 0 0 1.875-1.875v-21A1.877 1.877 0 0 0 25.5 2.625Z" fill="#fff"/><path d="M6 10.875V24h18V10.875H6Zm16.875 12H7.125V12h15.75v10.875Z" fill="#fff"/><path d="M10.125 22.125h9.749c.621 0 1.126-.503 1.126-1.125v-5.7c0-.619-.505-1.124-1.126-1.124H16.8v-.486a.94.94 0 0 0-.938-.94h-1.725a.939.939 0 0 0-.936.94v.486h-3.076c-.62 0-1.125.505-1.125 1.124V21c0 .622.504 1.125 1.125 1.125Zm3.75-8.7h2.25v.751h-2.25v-.75ZM12.375 8.437l.75.75.75-.75.75.75.938-.937-.938-.938h-4.289a2.287 2.287 0 1 0 0 1.875h1.289l.75-.75ZM7.125 9a.75.75 0 1 1 0-1.5.75.75 0 0 1 0 1.5Z" fill="#fff"/></g><defs><clipPath id="a"><path fill="#fff" d="M0 0h30v30H0z"/></clipPath></defs></svg>