<svg class="color-immutable" width="24" height="24" viewBox="0 0 24 24" fill="none" xmlns="http://www.w3.org/2000/svg"><path fill-rule="evenodd" clip-rule="evenodd" d="M22.5 0h-21C.675 0 0 .675 0 1.5v21c0 .825.675 1.5 1.5 1.5h21c.825 0 1.5-.675 1.5-1.5v-21c0-.825-.675-1.5-1.5-1.5Z" fill="#2D327D"/><path fill-rule="evenodd" clip-rule="evenodd" d="M11.287 14.857 8.28 11.85v1.883l3.758 3.75 3.75-3.75V11.85l-3 3.008V7.724h-1.5v7.133ZM21 21H3v-1.5h18V21ZM5.715 3v2.25H5.25l.015-1.71-.57 1.71h-.383l-.577-1.658.015 1.658h-.465V3h.697l.533 1.62.51-1.62h.69ZM7.17 5.25h.458a.562.562 0 0 1-.053-.172c-.007-.06-.007-.15-.007-.27v-.345c.007-.203.007-.315.007-.338 0-.127-.015-.217-.03-.27a.345.345 0 0 0-.112-.157c-.128-.105-.315-.158-.578-.158-.232 0-.412.053-.54.143-.127.09-.195.232-.21.42h.42a.3.3 0 0 1 .098-.195c.045-.038.12-.053.225-.053.195 0 .292.068.292.218 0 .067-.022.112-.067.135-.045.022-.15.045-.33.067-.21.03-.353.06-.428.09a.44.44 0 0 0-.285.435c0 .165.053.293.165.383.098.082.233.12.405.12a.735.735 0 0 0 .54-.218c0 .045.008.098.03.165Zm-.352-.727a.774.774 0 0 0 .315-.083v.18c0 .053 0 .105-.015.135l-.008.015c-.013.027-.027.057-.052.083a.387.387 0 0 1-.315.135.28.28 0 0 1-.188-.06.21.21 0 0 1-.067-.165c0-.083.03-.143.097-.18a.925.925 0 0 1 .233-.06ZM9.427 3.57l-.54.78.608.9h-.518l-.345-.548-.337.548h-.51l.592-.893-.54-.787h.51l.293.45.285-.45h.502ZM10.207 4.748v.502h-.51v-.502h.51ZM12.945 4.86v.39h-1.62c0-.12.023-.232.06-.337a.852.852 0 0 1 .165-.278c.052-.06.12-.12.195-.172.075-.053.225-.158.443-.315a1.04 1.04 0 0 0 .224-.203.357.357 0 0 0 .068-.217.31.31 0 0 0-.09-.233.305.305 0 0 0-.225-.09c-.232 0-.352.158-.36.48h-.435V3.84c0-.262.075-.465.232-.615a.806.806 0 0 1 .578-.21c.21 0 .383.06.525.173a.63.63 0 0 1 .232.502c0 .188-.06.345-.18.48-.037.045-.075.075-.112.105a4.84 4.84 0 0 1-.277.188 9.534 9.534 0 0 0-.308.217.908.908 0 0 0-.165.173l1.05.007ZM14.348 3.172a.723.723 0 0 0-.45-.15.762.762 0 0 0-.368.09.698.698 0 0 0-.27.263c-.12.187-.18.45-.18.78 0 .457.113.78.345.967a.748.748 0 0 0 .473.158c.135 0 .247-.03.36-.09a.668.668 0 0 0 .27-.27c.112-.195.172-.45.172-.765 0-.188-.022-.36-.067-.518-.06-.21-.158-.367-.285-.465Zm-.766.458c.053-.165.15-.248.3-.248s.255.083.316.248c.044.135.067.307.067.525 0 .262-.03.45-.09.577-.06.128-.15.188-.277.188-.15 0-.255-.083-.308-.248a1.454 1.454 0 0 1-.067-.495c0-.24.014-.42.06-.547ZM17.85 3l-.885.893.968 1.357h-.623l-.682-1.013-.285.285v.728h-.488V3h.488v.93l.884-.93h.623ZM19.657 5.048V3.57l-.42-.015v.225a.547.547 0 0 0-.202-.21.608.608 0 0 0-.277-.06.659.659 0 0 0-.525.24c-.128.158-.188.36-.188.615s.06.458.188.608c.127.15.292.225.502.225a.542.542 0 0 0 .495-.263v.21c0 .143-.023.248-.067.308-.06.082-.158.12-.3.12-.18 0-.293-.068-.323-.21h-.45c.045.352.3.525.765.525.337 0 .57-.105.697-.308a.689.689 0 0 0 .083-.217c.015-.083.022-.18.022-.315Zm-1.095-1.005a.315.315 0 0 1 .285-.158.32.32 0 0 1 .263.113c.082.09.12.21.12.367 0 .128-.023.24-.075.323a.323.323 0 0 1-.3.165.325.325 0 0 1-.255-.113c-.075-.09-.113-.21-.113-.375 0-.135.023-.24.076-.322Z" fill="#fff"/></svg>