<svg class="color-immutable" width="24" height="24" viewBox="0 0 24 24" fill="none" xmlns="http://www.w3.org/2000/svg"><g clip-path="url(#a)"><path d="M0 22.5v-21C0 .675.675 0 1.5 0h21c.825 0 1.5.675 1.5 1.5v21c0 .825-.675 1.5-1.5 1.5h-21C.675 24 0 23.325 0 22.5Z" fill="#2D327D"/><path d="m11.285 14.856-3.002-3.002v1.876l3.753 3.754 3.754-3.754v-1.876l-3.003 3.002V7.724h-1.502v7.132ZM21 21H3v-1.5h18V21ZM5.717 3v2.249h-.466l.017-1.709-.567 1.709h-.386l-.577-1.661.017 1.661h-.466V3h.698l.529 1.617L5.025 3h.692ZM7.625 5.249h-.456a.629.629 0 0 1-.029-.168.72.72 0 0 1-.54.214c-.172 0-.307-.04-.403-.12a.477.477 0 0 1-.166-.386c0-.21.095-.356.285-.437.077-.033.218-.063.424-.091.177-.024.288-.046.331-.068.044-.022.066-.067.066-.133 0-.147-.097-.22-.292-.22-.104 0-.179.018-.227.055-.048.037-.079.101-.095.192h-.421a.546.546 0 0 1 .211-.422c.127-.095.308-.142.543-.142.259 0 .451.053.575.158a.37.37 0 0 1 .114.159.915.915 0 0 1 .028.268l-.005.338-.002.347c0 .122.004.211.011.268.007.058.023.12.048.188Zm-.491-.811c-.057.036-.162.064-.314.085a.734.734 0 0 0-.23.063c-.067.036-.1.097-.1.183 0 .07.022.124.066.163a.267.267 0 0 0 .184.058.403.403 0 0 0 .318-.138.274.274 0 0 0 .06-.099.46.46 0 0 0 .016-.136v-.179ZM9.427 3.569l-.538.78.606.9H8.98l-.346-.545-.339.545h-.507l.592-.889-.54-.791h.512l.292.451.285-.451h.498ZM10.204 4.749v.5h-.511v-.5h.511ZM12.948 4.861v.388h-1.62c0-.119.019-.232.058-.338a.801.801 0 0 1 .168-.277c.055-.059.12-.117.194-.173.074-.056.222-.16.445-.311a.881.881 0 0 0 .226-.204.37.37 0 0 0 .065-.216.314.314 0 0 0-.087-.231.305.305 0 0 0-.228-.088c-.232 0-.351.161-.358.483h-.432v-.048c0-.264.076-.468.229-.612a.802.802 0 0 1 .578-.212c.207 0 .381.057.523.172a.617.617 0 0 1 .229.504.681.681 0 0 1-.183.477.949.949 0 0 1-.112.105c-.034.027-.126.09-.276.189a4.449 4.449 0 0 0-.305.22 1.07 1.07 0 0 0-.168.174h1.054v-.002ZM13.9 3.02c.171 0 .322.05.452.151.13.1.224.255.281.463.044.16.066.333.066.52 0 .318-.057.573-.172.766a.746.746 0 0 1-.268.27.716.716 0 0 1-.363.093.719.719 0 0 1-.471-.16c-.232-.189-.348-.511-.348-.967 0-.328.06-.589.181-.783a.723.723 0 0 1 .272-.261.769.769 0 0 1 .37-.092Zm-.017.365c-.147 0-.247.082-.301.246a1.826 1.826 0 0 0-.063.546c0 .208.022.374.065.497.055.163.158.245.308.245.124 0 .216-.063.277-.188.061-.125.091-.318.091-.578 0-.219-.022-.394-.065-.523-.057-.164-.16-.245-.312-.245ZM17.851 3l-.881.889.964 1.36h-.62l-.682-1.009-.283.283v.726h-.491V3h.491v.931L17.23 3h.621ZM19.656 3.569v1.48c0 .131-.008.236-.025.315a.662.662 0 0 1-.085.215c-.129.205-.361.308-.695.308-.466 0-.72-.176-.764-.528h.449c.031.14.139.211.325.211.142 0 .24-.04.297-.12.044-.064.066-.166.066-.308l.002-.208a.56.56 0 0 1-.498.265.627.627 0 0 1-.503-.221c-.127-.15-.191-.352-.191-.606s.064-.458.191-.612a.644.644 0 0 1 .521-.238c.112 0 .205.021.28.063a.596.596 0 0 1 .206.211v-.227h.424Zm-.811.317a.315.315 0 0 0-.285.157.6.6 0 0 0-.078.32c0 .164.038.289.114.374a.323.323 0 0 0 .257.114.328.328 0 0 0 .3-.168.632.632 0 0 0 .077-.326c0-.158-.039-.28-.118-.366a.348.348 0 0 0-.267-.105Z" fill="#fff"/></g><defs><clipPath id="a"><path fill="#fff" d="M0 0h24v24H0z"/></clipPath></defs></svg>