<svg class="color-immutable" width="30" height="30" viewBox="0 0 30 30" fill="none" xmlns="http://www.w3.org/2000/svg"><path d="M30 0H0v30h30V0Z" fill="#2D327D"/><path d="M25.5 3c.825 0 1.5.675 1.5 1.5v21c0 .825-.675 1.5-1.5 1.5h-21c-.825 0-1.5-.675-1.5-1.5v-21C3 3.675 3.675 3 4.5 3h21Zm0-.375h-21A1.877 1.877 0 0 0 2.625 4.5v21c0 1.034.841 1.875 1.875 1.875h21a1.877 1.877 0 0 0 1.875-1.875v-21A1.877 1.877 0 0 0 25.5 2.625Z" fill="#fff"/><path d="m14.285 17.856-3.003-3.003v1.877l3.754 3.754 3.754-3.754v-1.877l-3.003 3.003v-7.132h-1.502v7.132ZM24 24H6v-1.5h18V24ZM8.717 6v2.249h-.466l.017-1.71-.567 1.71h-.386l-.577-1.661.017 1.66h-.466V6h.698l.53 1.617L8.024 6h.692ZM10.625 8.249h-.456a.605.605 0 0 1-.029-.168.722.722 0 0 1-.54.214c-.172 0-.306-.04-.403-.12a.475.475 0 0 1-.166-.386c0-.21.095-.356.285-.437.077-.033.218-.063.424-.09a1.37 1.37 0 0 0 .332-.07c.043-.021.065-.066.065-.132 0-.147-.097-.22-.292-.22-.104 0-.18.018-.227.055-.048.037-.08.101-.095.192h-.421a.545.545 0 0 1 .21-.422c.128-.095.309-.142.544-.142.26 0 .45.053.575.158.057.05.096.102.115.159a.91.91 0 0 1 .028.267l-.005.339-.003.347c0 .122.004.212.011.269.007.057.023.119.048.187Zm-.491-.81a.865.865 0 0 1-.314.084.757.757 0 0 0-.23.063c-.067.036-.1.097-.1.183 0 .07.022.124.066.163a.27.27 0 0 0 .184.058.403.403 0 0 0 .319-.138.268.268 0 0 0 .059-.1.467.467 0 0 0 .016-.136v-.178ZM12.427 6.57l-.538.779.606.9h-.515l-.346-.545-.339.545h-.507l.592-.89-.54-.79h.512l.292.45.285-.45h.498ZM13.204 7.749v.5h-.51v-.5h.51ZM15.948 7.861v.388h-1.62c0-.12.02-.232.059-.339a.804.804 0 0 1 .167-.277 1.5 1.5 0 0 1 .194-.173c.074-.056.222-.16.445-.311a.885.885 0 0 0 .226-.204.369.369 0 0 0 .064-.216.316.316 0 0 0-.087-.231.306.306 0 0 0-.228-.089c-.232 0-.351.161-.358.483h-.433v-.048c0-.263.077-.467.23-.612a.804.804 0 0 1 .578-.212c.207 0 .381.057.523.172.153.125.23.294.23.505a.682.682 0 0 1-.184.477.96.96 0 0 1-.111.104c-.035.027-.127.09-.276.19-.144.097-.246.17-.306.22-.06.049-.116.107-.168.173h1.055ZM16.9 6.02a.72.72 0 0 1 .452.15c.13.101.224.256.282.464.044.16.066.333.066.52 0 .317-.058.573-.173.766a.714.714 0 0 1-.63.363.719.719 0 0 1-.47-.16c-.233-.19-.348-.511-.348-.968 0-.328.06-.589.181-.783a.73.73 0 0 1 .64-.352Zm-.017.365c-.147 0-.247.082-.302.246-.042.127-.063.309-.063.546 0 .208.022.373.065.496.055.163.158.245.308.245.124 0 .216-.063.276-.188.06-.126.091-.319.091-.578 0-.22-.021-.394-.064-.523-.056-.163-.16-.244-.311-.244ZM20.851 6l-.881.889.964 1.36h-.62l-.683-1.01-.282.284v.726h-.491V6h.49v.93L20.23 6h.621ZM22.656 6.57v1.479c0 .131-.009.236-.025.314a.66.66 0 0 1-.085.215c-.129.205-.36.308-.695.308-.465 0-.72-.176-.764-.528h.449c.03.14.139.21.324.21.142 0 .24-.04.297-.12.044-.063.066-.165.066-.307l.002-.208a.559.559 0 0 1-.498.265.626.626 0 0 1-.503-.222c-.128-.15-.191-.351-.191-.606 0-.254.063-.458.19-.612a.645.645 0 0 1 .522-.238c.112 0 .205.02.28.063a.605.605 0 0 1 .206.21V6.57h.425Zm-.811.316a.314.314 0 0 0-.284.157.596.596 0 0 0-.079.32c0 .164.038.288.114.373a.323.323 0 0 0 .257.114.327.327 0 0 0 .3-.167.629.629 0 0 0 .077-.326c0-.158-.04-.28-.119-.367a.345.345 0 0 0-.266-.104Z" fill="#fff"/></svg>