<svg class="color-immutable" width="24" height="24" viewBox="0 0 24 24" fill="none" xmlns="http://www.w3.org/2000/svg"><g clip-path="url(#a)"><path d="M0 22.5v-21C0 .675.675 0 1.5 0h21c.825 0 1.5.675 1.5 1.5v21c0 .825-.675 1.5-1.5 1.5h-21C.675 24 0 23.325 0 22.5Z" fill="#2D327D"/><path d="M12 7.812a4.189 4.189 0 0 0-4.187 4.187A4.189 4.189 0 0 0 12 16.186a4.189 4.189 0 0 0 4.187-4.187A4.189 4.189 0 0 0 12 7.812ZM7.559 17.248l-.134 3.095 1.076-1.077v-3.768H4.733l-1.076 1.077 3.095-.135-3.887 3.887.807.807 3.887-3.886ZM3.657 7.424l1.076 1.077h3.768V4.733L7.425 3.656l.134 3.095-3.887-3.886-.807.807 3.887 3.887-3.095-.135ZM20.343 16.575l-1.076-1.077h-3.768v3.768l1.076 1.077-.134-3.095 3.887 3.886.807-.807-3.887-3.887 3.095.135ZM16.441 6.751l.134-3.095-1.076 1.077v3.768h3.768l1.076-1.077-3.095.135 3.887-3.887-.807-.807-3.887 3.886Z" fill="#fff"/></g><defs><clipPath id="a"><path fill="#fff" d="M0 0h24v24H0z"/></clipPath></defs></svg>