<svg class="color-immutable" width="24" height="24" viewBox="0 0 24 24" fill="none" xmlns="http://www.w3.org/2000/svg"><mask id="a" style="mask-type:alpha" maskUnits="userSpaceOnUse" x="0" y="0" width="24" height="24"><path fill-rule="evenodd" clip-rule="evenodd" d="M0 0h24v24H0V0Z" fill="#fff"/></mask><g mask="url(#a)"><path fill-rule="evenodd" clip-rule="evenodd" d="M22.5 0h-21C.675 0 0 .675 0 1.5v21c0 .825.675 1.5 1.5 1.5h21c.825 0 1.5-.675 1.5-1.5v-21c0-.825-.675-1.5-1.5-1.5Z" fill="#2D327D"/></g><path fill-rule="evenodd" clip-rule="evenodd" d="M5.643 3v2.249h-.466l.017-1.71-.568 1.71H4.24l-.576-1.661.016 1.66h-.466V3h.699l.529 1.617L4.95 3h.692ZM7.118 4.232a.525.525 0 0 0-.056-.201.318.318 0 0 0-.122-.125.344.344 0 0 0-.173-.046.328.328 0 0 0-.246.1.44.44 0 0 0-.115.272h.712Zm.429.494a.752.752 0 0 1-.128.266c-.147.202-.36.303-.636.303-.251 0-.451-.08-.602-.237a.775.775 0 0 1-.17-.278 1.058 1.058 0 0 1-.062-.363c0-.244.07-.45.21-.616a.76.76 0 0 1 .61-.278.754.754 0 0 1 .735.516c.046.13.069.295.069.493h-1.17a.64.64 0 0 0 .038.205c.06.146.176.22.344.22a.348.348 0 0 0 .204-.055.39.39 0 0 0 .129-.176h.429ZM8.714 3.566v.315H8.38v.789c0 .095.008.155.025.18.026.037.083.056.173.056.034 0 .08-.003.135-.008v.357a2.58 2.58 0 0 1-.277.017.773.773 0 0 1-.29-.043.332.332 0 0 1-.194-.252 1.971 1.971 0 0 1-.017-.325V3.88h-.272v-.315h.272v-.394h.445v.394h.333ZM10.015 3.541v.432a1.027 1.027 0 0 0-.174-.02.39.39 0 0 0-.366.21c-.044.077-.066.208-.066.39v.696h-.446V3.57h.425v.306c.121-.228.296-.342.527-.342.03 0 .062.003.1.008ZM10.981 3.87a.331.331 0 0 0-.281.143.655.655 0 0 0-.106.396c0 .173.034.306.104.398.072.093.17.14.294.14a.332.332 0 0 0 .275-.128c.077-.094.116-.23.116-.41 0-.169-.034-.299-.102-.393a.35.35 0 0 0-.3-.146Zm.023-.348a.79.79 0 0 1 .599.244c.152.16.229.373.229.64 0 .275-.082.495-.245.66a.806.806 0 0 1-.597.228c-.261 0-.469-.085-.624-.255-.148-.162-.221-.372-.221-.63 0-.255.071-.46.215-.62.159-.178.373-.267.644-.267Z" fill="#fff"/><mask id="b" style="mask-type:alpha" maskUnits="userSpaceOnUse" x="0" y="0" width="24" height="24"><path fill-rule="evenodd" clip-rule="evenodd" d="M0 24h24V0H0v24Z" fill="#fff"/></mask><g mask="url(#b)" fill-rule="evenodd" clip-rule="evenodd" fill="#fff"><path d="M3 21h18v-.75H3V21ZM19.949 14.527l-3.934.032a.375.375 0 0 1-.376-.374V8.626c0-.207.168-.375.376-.375h3.464c.206 0 .348.133.374.375l.44 5.53c.022.216-.137.371-.344.371Zm-4.97-.342a.375.375 0 0 1-.374.374h-3.798a.375.375 0 0 1-.375-.374V8.626c0-.207.168-.375.375-.375h3.798c.207 0 .375.168.375.375v5.56Zm-5.33 3.987a.577.577 0 1 1-1.154 0V8.754a.578.578 0 0 1 1.155 0v9.418Zm-1.935 0a.578.578 0 0 1-1.156 0V8.754a.578.578 0 0 1 1.156 0v9.418Zm12.708-9.417c-.066-.719-.364-1.179-1.201-1.179H3v.675h2.402c.207 0 .375.168.375.375v5.56a.375.375 0 0 1-.375.373H3V19.5h17.624a.375.375 0 0 0 .375-.375v-4.28c0-.06-.577-6.09-.577-6.09Z"/></g></svg>