<svg class="color-immutable" width="24" height="24" viewBox="0 0 24 24" fill="none" xmlns="http://www.w3.org/2000/svg"><path fill-rule="evenodd" clip-rule="evenodd" d="M22.5 0h-21C.675 0 0 .675 0 1.5v21c0 .825.675 1.5 1.5 1.5h21c.825 0 1.5-.675 1.5-1.5v-21c0-.825-.675-1.5-1.5-1.5Z" fill="#2D327D"/><path fill-rule="evenodd" clip-rule="evenodd" d="M15.697 6.3a1.5 1.5 0 1 1-3 0 1.5 1.5 0 1 1 3 0ZM19.133 8.258h-6.18a1.203 1.203 0 0 0-1.103.577l-1.155 1.875c-.203.33-.412.675-.63 1.042l-.435.705c-1.148 1.875-.54 3.413 1.342 3.413H14.4l.57 2.423h-.008a.068.068 0 0 1 .008.037.068.068 0 0 1 .007.038l.503 2.107a.76.76 0 0 0 .787.503.771.771 0 0 0 .698-.833c0-.015-.008-.03-.008-.045l-1.215-5.092a.902.902 0 0 0-.832-.63h-2.94l2.985-4.913h4.162c.338 0 .608-.27.608-.6a.592.592 0 0 0-.593-.607Z" fill="#fff"/><path fill="#fff" d="M18.72 10.072h.803v10.89h-.803z"/><path fill-rule="evenodd" clip-rule="evenodd" d="M13.102 16.59H7.927c-.15 0-.3-.12-.345-.262L5.085 6.96a.517.517 0 0 1-.023-.06l-.052-.202a.381.381 0 1 0-.735.202l2.175 8.16.547 2.048a.378.378 0 0 0 .338.262H13.102c.21 0 .383-.172.383-.382a.383.383 0 0 0-.383-.398Z" fill="#fff"/></svg>