<svg class="color-immutable" width="24" height="24" viewBox="0 0 24 24" fill="none" xmlns="http://www.w3.org/2000/svg"><path fill-rule="evenodd" clip-rule="evenodd" d="M22.5 0h-21C.675 0 0 .675 0 1.5v21c0 .825.675 1.5 1.5 1.5h21c.825 0 1.5-.675 1.5-1.5v-21c0-.825-.675-1.5-1.5-1.5Z" fill="#2D327D"/><path fill-rule="evenodd" clip-rule="evenodd" d="M3.263 16.185A3.5 3.5 0 0 0 3 17.468V21h7.822c.083-.188.316-.608.563-1.148a1.78 1.78 0 0 1-.675.15h-.053c-.3 0-.607-.067-.892-.194l-3.51-1.598c-.502-.233-.893-.63-1.065-1.095a1.358 1.358 0 0 1 .022-1.057l1.59-3.413.87-1.875a1.356 1.356 0 0 0-.374-1.425.674.674 0 0 0-.196-.127.686.686 0 0 0-.892.36l-2.947 6.607ZM12.518 20.97a.803.803 0 1 1 .022-1.605h1.478a.81.81 0 0 1 .817.795.81.81 0 0 1-.795.817h-1.522v-.007ZM13.432 19.005a.803.803 0 1 1 .023-1.605h1.477a.81.81 0 0 1 .818.795.81.81 0 0 1-.795.817h-1.523v-.007ZM14.34 17.047a.803.803 0 1 1 .023-1.604h1.477a.81.81 0 0 1 .817.795.81.81 0 0 1-.794.817H14.34v-.008ZM15.248 15.15a.805.805 0 1 1 .022-1.613h1.477a.81.81 0 0 1 .818.795.81.81 0 0 1-.795.818h-1.522Z" fill="#fff"/><path fill-rule="evenodd" clip-rule="evenodd" d="M16.508 7.822a1.7 1.7 0 0 0-.825-.757l-3.51-1.598a1.784 1.784 0 0 0-.75-.165h-.046c-.495.015-.892.24-1.065.615l-4.784 10.29c-.113.24-.113.51-.015.788.142.383.465.705.885.9l3.51 1.598c.24.112.502.165.75.165h.045c.495-.016.892-.24 1.065-.616l4.784-10.29c.136-.285.12-.615-.044-.93Zm-7.313 9.93a.498.498 0 0 1-.675.226.498.498 0 0 1-.24-.668.507.507 0 0 1 .915.443Zm-2.242-2.49 4.62 2.078 4.02-8.723-4.62-2.077-4.02 8.723Z" fill="#fff"/></svg>