<svg class="color-immutable" width="24" height="24" viewBox="0 0 24 24" fill="none" xmlns="http://www.w3.org/2000/svg"><g clip-path="url(#a)"><path d="M0 22.5v-21C0 .675.675 0 1.5 0h21c.825 0 1.5.675 1.5 1.5v21c0 .825-.675 1.5-1.5 1.5h-21C.675 24 0 23.325 0 22.5Z" fill="#2D327D"/><path d="m3.261 16.182-.003.001a3.459 3.459 0 0 0-.257 1.282c-.003.395 0 3.535 0 3.535h7.821c.084-.188.316-.61.565-1.144a1.78 1.78 0 0 1-.674.148l-.055.001c-.3 0-.61-.069-.896-.199l-3.509-1.595c-.504-.229-.892-.627-1.064-1.093a1.362 1.362 0 0 1 .025-1.054l1.587-3.412.872-1.876a1.36 1.36 0 0 0-.377-1.427.68.68 0 0 0-1.085.238l-2.95 6.595ZM12.516 20.968a.805.805 0 1 1 .019-1.61l1.478-.001a.805.805 0 1 1 .019 1.61l-1.516.001ZM13.434 19.002a.805.805 0 1 1 .019-1.611h1.478a.805.805 0 1 1 .019 1.61l-1.516.001Z" fill="#fff"/><path d="m21.201 20.14-4.988-4.988h.546a.806.806 0 0 0-.019-1.611h-1.478a.8.8 0 0 0-.496.165l-.352-.352 2.141-4.603c.131-.282.115-.611-.045-.928a1.699 1.699 0 0 0-.823-.757l-3.51-1.595a1.83 1.83 0 0 0-.752-.168h-.045c-.494.014-.892.243-1.065.614L9.256 8.195 3.859 2.798l-1.06 1.061 5.784 5.784-3.055 6.567a1.008 1.008 0 0 0-.014.788c.14.379.462.706.882.897l3.509 1.595c.241.109.501.167.752.167l.045-.001c.495-.014.893-.243 1.065-.613l1.973-4.242.636.636h-.016a.806.806 0 0 0-.019 1.611h1.515c.041 0 .08-.005.119-.011l4.164 4.164 1.062-1.061ZM10.976 6.544l4.618 2.076-1.866 4.047-3.816-3.816 1.064-2.307ZM9.198 17.75a.505.505 0 0 1-.673.229.499.499 0 0 1-.24-.665.504.504 0 0 1 .672-.229c.253.12.36.417.24.665Zm2.374-.408-4.618-2.077 2.288-4.962 3.816 3.816-1.486 3.223Z" fill="#fff"/><path d="M3.86 2.798 2.798 3.86 20.14 21.201l1.06-1.061L3.86 2.798Z" fill="#EB0000"/></g><defs><clipPath id="a"><path fill="#fff" d="M0 0h24v24H0z"/></clipPath></defs></svg>