<svg class="color-immutable" width="24" height="24" viewBox="0 0 24 24" fill="none" xmlns="http://www.w3.org/2000/svg"><path fill-rule="evenodd" clip-rule="evenodd" d="M22.5 0h-21C.675 0 0 .675 0 1.5v21c0 .825.675 1.5 1.5 1.5h21c.825 0 1.5-.675 1.5-1.5v-21c0-.825-.675-1.5-1.5-1.5Z" fill="#2D327D"/><path fill-rule="evenodd" clip-rule="evenodd" d="M3.263 16.185A3.5 3.5 0 0 0 3 17.468V21h7.822c.083-.188.316-.608.563-1.148a1.78 1.78 0 0 1-.675.15h-.053c-.3 0-.607-.067-.892-.194l-3.51-1.598c-.502-.233-.893-.63-1.065-1.095a1.358 1.358 0 0 1 .022-1.057l1.59-3.413.87-1.875a1.356 1.356 0 0 0-.374-1.425.674.674 0 0 0-.196-.127.686.686 0 0 0-.892.36l-2.947 6.607ZM12.518 20.97a.805.805 0 1 1 .022-1.612h1.478a.81.81 0 0 1 .817.794.81.81 0 0 1-.795.818h-1.522ZM13.432 19.005a.803.803 0 1 1 .023-1.605h1.477a.81.81 0 0 1 .818.795.81.81 0 0 1-.795.817h-1.523v-.007Z" fill="#fff"/><path fill-rule="evenodd" clip-rule="evenodd" d="m16.215 15.15 4.988 4.987-1.066 1.066-4.162-4.163a.676.676 0 0 0-.06.004.677.677 0 0 1-.06.003H14.34a.799.799 0 0 1-.795-.81.81.81 0 0 1 .818-.794h.014l-.637-.638-1.973 4.245c-.172.375-.57.6-1.064.615h-.045c-.248 0-.51-.052-.75-.165l-3.51-1.598c-.42-.195-.743-.517-.886-.9-.097-.277-.097-.547.015-.787l3.053-6.57-5.783-5.782L3.855 2.79l5.4 5.4 1.057-2.28c.173-.375.57-.6 1.066-.615h.044c.248 0 .51.053.75.165l3.51 1.598a1.7 1.7 0 0 1 .825.757c.158.315.18.645.045.93l-2.137 4.605.353.353a.802.802 0 0 1 .494-.165h1.478a.805.805 0 1 1 .023 1.612h-.548ZM15.6 8.625l-4.62-2.077L9.915 8.85l3.818 3.825 1.867-4.05Zm-6.405 9.128a.498.498 0 0 1-.675.224.498.498 0 0 1-.24-.667.507.507 0 0 1 .915.443Zm-2.243-2.49 4.62 2.077 1.486-3.225-3.818-3.818-2.288 4.965Z" fill="#fff"/><path fill-rule="evenodd" clip-rule="evenodd" d="m2.799 3.86 1.06-1.061L21.201 20.14l-1.06 1.06L2.798 3.86Z" fill="#EB0000"/></svg>