<svg class="color-immutable" width="24" height="24" viewBox="0 0 24 24" fill="none" xmlns="http://www.w3.org/2000/svg"><path fill-rule="evenodd" clip-rule="evenodd" d="M22.5 0h-21C.675 0 0 .675 0 1.5v21c0 .825.675 1.5 1.5 1.5h21c.825 0 1.5-.675 1.5-1.5v-21c0-.825-.675-1.5-1.5-1.5Z" fill="#2D327D"/><path fill-rule="evenodd" clip-rule="evenodd" d="M10.328 4.058a1.6 1.6 0 0 1 2.175-.585c.757.435 1.02 1.41.585 2.175a1.599 1.599 0 0 1-2.175.585 1.599 1.599 0 0 1-.585-2.175ZM4.987 20.625a.793.793 0 0 1-.975.563.783.783 0 0 1-.562-.968s2.062-7.71 2.077-7.807a.785.785 0 0 1 .09-.218c.015-.03 2.895-5.017 2.895-5.017a1.596 1.596 0 0 1 2.175-.585c.248.15.443.345.578.577l3.195 5.535a.636.636 0 1 1-1.103.637l-.307.18v.008l1.342 7.598-.442.075-1.32-7.508-1.485-2.565.697-.405-.847-1.47L8.7 13.238l1.77 3.06c.082.142.12.285.12.45v3.667a.79.79 0 0 1-.795.795.79.79 0 0 1-.795-.795v-3.48l-2.063-3.577-1.95 7.267Zm8.115-7.717-.99-1.718-.307.18.99 1.718.307-.18Z" fill="#fff"/></svg>