<svg class="color-immutable" width="24" height="24" viewBox="0 0 24 24" fill="none" xmlns="http://www.w3.org/2000/svg"><path fill-rule="evenodd" clip-rule="evenodd" d="M22.5 0h-21C.675 0 0 .675 0 1.5v21c0 .825.675 1.5 1.5 1.5h21c.825 0 1.5-.675 1.5-1.5v-21c0-.825-.675-1.5-1.5-1.5Z" fill="#2D327D"/><path fill-rule="evenodd" clip-rule="evenodd" d="M5.438 4.485c0-.825.675-1.5 1.5-1.5s1.5.675 1.5 1.5-.676 1.5-1.5 1.5a1.5 1.5 0 0 1-1.5-1.5ZM18.893 20.88l-.248.248-7.905-7.898.255-.255 7.898 7.905ZM10.703 12.082a.694.694 0 0 1 .157.27.604.604 0 0 1-.428.735.579.579 0 0 1-.577-.157l-1.117-1.118v-1.695l1.965 1.965Z" fill="#fff"/><path fill-rule="evenodd" clip-rule="evenodd" d="M4.77 20.617a.758.758 0 0 1-1.027.278.758.758 0 0 1-.278-1.027L5.43 16.47V7.897c0-.825.675-1.5 1.5-1.5s1.5.675 1.5 1.5v5.595s1.553 2.693 1.635 2.828c.083.135.113.27.113.427 0 .158 0 0 0 0v3.495c0 .413-.338.75-.75.75a.752.752 0 0 1-.75-.75V16.92L6.93 13.897v2.978l-2.16 3.742Z" fill="#fff"/></svg>