<svg class="color-immutable" width="24" height="24" viewBox="0 0 24 24" fill="none" xmlns="http://www.w3.org/2000/svg"><path fill-rule="evenodd" clip-rule="evenodd" d="M22.5 0h-21C.675 0 0 .675 0 1.5v21c0 .825.675 1.5 1.5 1.5h21c.825 0 1.5-.675 1.5-1.5v-21c0-.825-.675-1.5-1.5-1.5Z" fill="#2D327D"/><path fill-rule="evenodd" clip-rule="evenodd" d="M14.498 16.508H9.323c-.15 0-.3-.12-.346-.263L6.48 6.878a.516.516 0 0 1-.023-.06l-.052-.203a.381.381 0 0 0-.465-.27.375.375 0 0 0-.27.465l2.175 8.16.547 2.048a.378.378 0 0 0 .338.262h5.768a.386.386 0 0 0 0-.773Z" fill="#fff"/><path fill-rule="evenodd" clip-rule="evenodd" d="m18.33 19.988-1.207-5.085a.902.902 0 0 0-.833-.63h-.81a2.92 2.92 0 0 0 .247-1.17 2.924 2.924 0 0 0-3.622-2.843l-.045-.157a.139.139 0 0 1-.015-.053l-.203-.772a1.506 1.506 0 0 0-1.837-1.073 1.506 1.506 0 0 0-1.073 1.838l.09.337h-.007l.382 1.44.488 1.86h.007l.383 1.463c.09.345.465.63.817.63h4.68l.57 2.415c0 .015.008.022.008.037s.008.023.008.038l.494 2.107c.12.323.436.533.788.503a.771.771 0 0 0 .697-.833c-.007-.022-.007-.037-.007-.052ZM11.37 6.18a1.5 1.5 0 1 1-3 0 1.5 1.5 0 0 1 3 0Z" fill="#fff"/></svg>