<svg class="color-immutable" width="30" height="30" viewBox="0 0 30 30" fill="none" xmlns="http://www.w3.org/2000/svg"><g clip-path="url(#a)"><path d="M30.002 0h-30v30h30V0Z" fill="#2D327D"/><path d="M25.5 3c.825 0 1.5.675 1.5 1.5v21c0 .825-.675 1.5-1.5 1.5h-21c-.825 0-1.5-.675-1.5-1.5v-21C3 3.675 3.675 3 4.5 3h21Zm0-.375h-21A1.877 1.877 0 0 0 2.625 4.5v21c0 1.034.841 1.875 1.875 1.875h21a1.877 1.877 0 0 0 1.875-1.875v-21A1.877 1.877 0 0 0 25.5 2.625Z" fill="#fff"/><path d="m9.522 15.223.003.755a.298.298 0 0 0 .3.297h.102l.514-1.35h-.616a.302.302 0 0 0-.303.298ZM5.997 6h1.817c.306 0 .546.02.722.057.175.038.334.105.476.202.392.262.588.659.588 1.188 0 .47-.162.84-.487 1.109a1.265 1.265 0 0 1-.47.248c-.177.05-.395.075-.654.075H6.98v1.623h-.982V6Zm.982.831v1.275h.878c.26 0 .449-.046.563-.138.142-.115.213-.285.213-.508 0-.226-.082-.395-.246-.505-.12-.082-.314-.124-.582-.124h-.826Z" fill="#fff"/><path d="M6 21.375a2.625 2.625 0 1 0 3.834-2.33l1.97-5.17h1.808a.338.338 0 0 0 0-.675h-1.986a.3.3 0 0 0-.281.193l-2.072 5.438A2.625 2.625 0 0 0 6 21.375Zm1.125 0a1.5 1.5 0 0 1 1.742-1.479l-.522 1.372a.3.3 0 0 0 .56.214l.523-1.372a1.5 1.5 0 1 1-2.303 1.265ZM18.75 16.35c0-.373.302-.675.675-.675h3.825v.675h-4.5Z" fill="#fff"/><path d="M10.531 18.06a3.82 3.82 0 0 1 1.905 2.983v.02c0 .338.274.612.611.612h5.721a2.625 2.625 0 1 0 0-.6h-1.205a3.824 3.824 0 0 1 3.812-3.525h1.875v-.9h-6.825a.884.884 0 0 1-.555-.2l-1.775-1.385a.671.671 0 0 0-.41-.14h-1.96l-1.194 3.134Zm9.374 3.616h1.47a.3.3 0 1 0-.001-.6h-1.469a1.5 1.5 0 1 1 0 .6Z" fill="#fff"/></g><defs><clipPath id="a"><path fill="#fff" d="M0 0h30v30H0z"/></clipPath></defs></svg>