<svg class="color-immutable" width="24" height="24" viewBox="0 0 24 24" fill="none" xmlns="http://www.w3.org/2000/svg"><path fill-rule="evenodd" clip-rule="evenodd" d="M22.5 0h-21C.675 0 0 .675 0 1.5v21c0 .825.675 1.5 1.5 1.5h21c.825 0 1.5-.675 1.5-1.5v-21c0-.825-.675-1.5-1.5-1.5Z" fill="#2D327D"/><path fill-rule="evenodd" clip-rule="evenodd" d="M18.712 14.175V14.1a.221.221 0 0 0-.224-.225H15.45l-2.025 3h-.75L9.375 12H7.53a.336.336 0 0 0-.277.525l.66.975h.675l-.518.803a3.564 3.564 0 0 0-1.545-.36A3.53 3.53 0 0 0 3 17.468a3.53 3.53 0 0 0 3.525 3.524 3.527 3.527 0 0 0 2.242-6.248l.413-.636 2.002 2.954V18c0 .413.338.75.75.75h2.265A3.52 3.52 0 0 0 17.483 21a3.53 3.53 0 0 0 3.524-3.525 3.548 3.548 0 0 0-2.295-3.3Zm-9.6 3.3a2.588 2.588 0 0 1-2.587 2.587 2.593 2.593 0 0 1-2.588-2.587 2.593 2.593 0 0 1 2.588-2.588c.353 0 .705.075 1.035.218L6.18 17.25a.397.397 0 0 0-.067.225c0 .225.187.412.412.412.143 0 .27-.075.345-.187l1.38-2.145a2.57 2.57 0 0 1 .863 1.92Zm6.113 1.275a2.588 2.588 0 0 0 2.25 1.313 2.593 2.593 0 0 0 2.587-2.588c0-.93-.502-1.793-1.312-2.25V18c0 .413-.337.75-.75.75h-2.775Z" fill="#fff"/><path fill-rule="evenodd" clip-rule="evenodd" d="M15.188 13.5h3.562v-.75a.3.3 0 0 0-.3-.3h-3.412a.3.3 0 0 0-.3.3c0 .06.022.12.052.165l.398.585ZM7.275 11.588h2.662v-.675H7.276a.336.336 0 0 0-.338.337c0 .188.15.338.338.338ZM4.815 3H3v4.5h.982V5.88h.998c.255 0 .472-.022.652-.075.18-.052.338-.135.473-.247.322-.27.487-.638.487-1.11 0-.526-.194-.923-.584-1.186a1.273 1.273 0 0 0-.473-.202 3.524 3.524 0 0 0-.72-.06Zm-.833 2.107V3.833l.818.008c.27 0 .465.038.585.12.165.105.248.277.248.503 0 .224-.068.397-.21.51-.113.09-.3.135-.563.135h-.878Z" fill="#fff"/></svg>