<svg class="color-immutable" width="24" height="24" viewBox="0 0 24 24" fill="none" xmlns="http://www.w3.org/2000/svg"><path fill-rule="evenodd" clip-rule="evenodd" d="M22.5 0h-21C.675 0 0 .675 0 1.5v21c0 .825.675 1.5 1.5 1.5h21c.825 0 1.5-.675 1.5-1.5v-21c0-.825-.675-1.5-1.5-1.5Z" fill="#2D327D"/><path fill-rule="evenodd" clip-rule="evenodd" d="M5.287 14.175A3.53 3.53 0 0 0 3 17.475 3.53 3.53 0 0 0 6.525 21a3.52 3.52 0 0 0 3.285-2.25h2.265c.413 0 .75-.337.75-.75v-.93l2.003-2.955.412.638a3.503 3.503 0 0 0-1.283 2.722A3.53 3.53 0 0 0 17.483 21a3.53 3.53 0 0 0 3.524-3.525 3.53 3.53 0 0 0-3.524-3.525 3.46 3.46 0 0 0-1.546.36l-.517-.802h.675l.66-.975a.336.336 0 0 0-.277-.525h-1.853l-3.3 4.875h-.75l-2.025-3H5.512a.221.221 0 0 0-.224.225v.067Zm9.6 3.3c0-.735.316-1.432.863-1.927l1.38 2.145c.075.12.21.187.345.187a.416.416 0 0 0 .412-.412.415.415 0 0 0-.067-.225l-1.38-2.145a2.561 2.561 0 0 1 1.035-.218 2.593 2.593 0 0 1 2.587 2.588 2.588 2.588 0 0 1-2.587 2.587 2.577 2.577 0 0 1-2.588-2.58Zm-10.95 0a2.588 2.588 0 0 0 4.838 1.275H6a.752.752 0 0 1-.75-.75v-2.775a2.588 2.588 0 0 0-1.313 2.25Z" fill="#fff"/><path fill-rule="evenodd" clip-rule="evenodd" d="M8.813 13.5H5.25v-.75a.3.3 0 0 1 .3-.3h3.413a.3.3 0 0 1 .3.3c0 .06-.023.12-.053.172l-.398.578ZM16.725 11.588h-2.663v-.675h2.663c.188 0 .337.15.337.337 0 .188-.15.338-.337.338ZM4.815 3H3v4.5h.982V5.88h.998c.255 0 .472-.022.652-.075.18-.052.338-.135.473-.247.322-.27.487-.638.487-1.11 0-.526-.194-.923-.584-1.186a1.273 1.273 0 0 0-.473-.202 3.524 3.524 0 0 0-.72-.06Zm-.833 2.107V3.833l.818.008c.27 0 .465.038.585.12.165.105.248.277.248.503 0 .224-.068.397-.21.51-.113.09-.3.135-.563.135h-.878Z" fill="#fff"/></svg>