<svg class="color-immutable" width="24" height="24" viewBox="0 0 24 24" fill="none" xmlns="http://www.w3.org/2000/svg"><g clip-path="url(#a)"><path d="M0 22.5v-21C0 .675.675 0 1.5 0h21c.825 0 1.5.675 1.5 1.5v21c0 .825-.675 1.5-1.5 1.5h-21C.675 24 0 23.325 0 22.5Z" fill="#2D327D"/><path d="M21 20.7H3v.3h18v-.3ZM3 7.275 5.467 16.8h.001c.113.39.473.675.9.675h1.161L4.35 7.275H3ZM8.475 11.475H7.5a.376.376 0 0 0-.375.375v3.321l.718 2.304H8.1c.412 0 .75-.337.75-.75V11.85a.376.376 0 0 0-.375-.375ZM5.175 5.925c.158-.166.15-.245.15-.397V3.375A.376.376 0 0 0 4.95 3H3.375A.376.376 0 0 0 3 3.375v3.45h1.35l.825-.9ZM9.15 8.175h-.375l.888-.877h-.599L7.963 8.4l1.102 1.102h.599l-.889-.877h.375c1.489 0 2.7 1.212 2.7 2.702h.45a3.155 3.155 0 0 0-3.15-3.152Z" fill="#fff"/></g><defs><clipPath id="a"><path fill="#fff" d="M0 0h24v24H0z"/></clipPath></defs></svg>