<svg class="color-immutable" width="30" height="30" viewBox="0 0 30 30" fill="none" xmlns="http://www.w3.org/2000/svg"><g clip-path="url(#a)"><path d="M30.002 0h-30v30h30V0Z" fill="#2D327D"/><path d="M25.502 3c.825 0 1.5.675 1.5 1.5v21c0 .825-.675 1.5-1.5 1.5h-21c-.825 0-1.5-.675-1.5-1.5v-21c0-.825.675-1.5 1.5-1.5h21Zm-.002-.375h-21A1.877 1.877 0 0 0 2.625 4.5v21c0 1.034.841 1.875 1.875 1.875h21a1.877 1.877 0 0 0 1.875-1.875v-21A1.877 1.877 0 0 0 25.5 2.625Z" fill="#fff"/><path d="M24 23.7H6v.3h18v-.3ZM6 10.275 8.467 19.8c.114.39.474.675.9.675h1.161l-3.178-10.2H6ZM11.475 14.475H10.5a.376.376 0 0 0-.375.375v3.321l.718 2.304h.257c.412 0 .75-.338.75-.75V14.85a.376.376 0 0 0-.375-.375ZM8.175 8.925c.158-.166.15-.245.15-.397V6.375A.376.376 0 0 0 7.95 6H6.375A.376.376 0 0 0 6 6.375v3.45h1.35l.825-.9ZM12.15 11.175h-.375l.888-.877h-.599L10.963 11.4l1.101 1.102h.6l-.89-.877h.376c1.489 0 2.7 1.212 2.7 2.701h.45a3.154 3.154 0 0 0-3.15-3.151Z" fill="#fff"/></g><defs><clipPath id="a"><path fill="#fff" d="M0 0h30v30H0z"/></clipPath></defs></svg>