<svg class="color-immutable" width="24" height="24" viewBox="0 0 24 24" fill="none" xmlns="http://www.w3.org/2000/svg"><path fill-rule="evenodd" clip-rule="evenodd" d="M22.5 0h-21C.675 0 0 .675 0 1.5v21c0 .825.675 1.5 1.5 1.5h21c.825 0 1.5-.675 1.5-1.5v-21c0-.825-.675-1.5-1.5-1.5Z" fill="#2D327D"/><path fill-rule="evenodd" clip-rule="evenodd" d="M20.363 20.992h-5.52a.637.637 0 0 1-.638-.637V17.13c0-.352.285-.637.637-.637h1.74v-.278c0-.293.24-.533.533-.533h.975c.293 0 .532.24.532.533v.277h1.74c.353 0 .638.285.638.638v3.225a.637.637 0 0 1-.637.637Zm-2.123-4.927h-1.275v.427h1.275v-.427ZM14.94 11.325a1.188 1.188 0 0 1-1.185-1.185c0-.653.532-1.185 1.185-1.185.652 0 1.185.532 1.185 1.185 0 .652-.533 1.185-1.185 1.185Zm0-2.033a.851.851 0 0 0-.848.848c0 .465.383.848.848.848a.851.851 0 0 0 .848-.848.851.851 0 0 0-.848-.848ZM17.985 11.325A1.188 1.188 0 0 1 16.8 10.14c0-.653.532-1.185 1.185-1.185.652 0 1.185.532 1.185 1.185 0 .652-.533 1.185-1.185 1.185Zm.008-2.033a.847.847 0 1 0-.002 1.697.847.847 0 0 0 .002-1.697ZM13.102 6.083c.105.96.495 1.837 1.08 2.542h4.583a4.66 4.66 0 0 0 1.08-2.542h-6.742ZM16.027 5.745c.188 0 .263-.135.173-.293l-1.425-2.46a3.377 3.377 0 0 0-1.68 2.753h2.932ZM20.865 5.61h-2.032v.27h2.032c.075 0 .135-.06.135-.135a.134.134 0 0 0-.135-.135ZM5.483 5.79l-.008-2.4c0-.225-.15-.405-.33-.405h-1.8c-.18 0-.33.18-.33.405v3.75s-.015.135.098.622c.12.488 2.482 8.948 2.482 8.948s.21.848.615.863c.405.014 1.643 0 1.643 0l-3.18-9.63s-.338-.796-.21-1.006c.127-.21.847-.877.847-.877s.173-.15.173-.27Z" fill="#fff"/><path fill-rule="evenodd" clip-rule="evenodd" d="M9.375 16.68c.158-.135.06-.585.06-.585l-.472-4.343c-.015-.225-.18-.397-.36-.382l-1.268.097c-.18.015-.315.21-.3.435l.405 3.24s.525 1.673.728 2.265c-.008.008 1.042-.585 1.207-.727ZM7.59 20.625c0 .203-.112.367-.247.367h-1.11c-.135 0-.248-.165-.248-.367v-2.302c0-.203.113-.368.248-.368h1.11c.135 0 .247.165.247.368v2.302ZM11.033 11.467h.675a3.467 3.467 0 0 0-3.315-3.352h-.75c-.008 0-.008-.008-.015-.008l.765-.757h-.878L6.428 8.437l1.087 1.088h.878L7.65 8.79h.593a2.787 2.787 0 0 1 2.79 2.678Z" fill="#fff"/></svg>