<svg class="color-immutable" width="24" height="24" viewBox="0 0 24 24" fill="none" xmlns="http://www.w3.org/2000/svg"><path fill-rule="evenodd" clip-rule="evenodd" d="M22.5 0h-21C.675 0 0 .675 0 1.5v21c0 .825.675 1.5 1.5 1.5h21c.825 0 1.5-.675 1.5-1.5v-21c0-.825-.675-1.5-1.5-1.5Z" fill="#2D327D"/><path fill-rule="evenodd" clip-rule="evenodd" d="M11.625 4.087v.225c0 3 2.438 5.438 5.438 5.438h.75V8.625h-.75a4.318 4.318 0 0 1-4.313-4.313v-.225h-1.125Z" fill="#fff"/><path fill-rule="evenodd" clip-rule="evenodd" d="M17.813 6.375h-.75A2.061 2.061 0 0 1 15 4.312v-.225h-1.125v.225A3.185 3.185 0 0 0 17.063 7.5h.75c1.14 0 2.062.922 2.062 2.062v.188H21v-.188a3.185 3.185 0 0 0-3.188-3.187ZM19.875 10.875H21v2.25h-1.125v-2.25ZM21.052 19.972l-6.847-6.847H18.6v-2.25h-6.645l-8.25-8.243L2.648 3.69l7.185 7.185H3v2.25h9.082l7.905 7.912 1.066-1.065Z" fill="#fff"/><path fill-rule="evenodd" clip-rule="evenodd" d="M3.705 2.632 2.648 3.69l17.34 17.347 1.064-1.065L3.705 2.632Z" fill="#EB0000"/></svg>