<svg class="color-immutable" width="24" height="24" viewBox="0 0 24 24" fill="none" xmlns="http://www.w3.org/2000/svg"><g clip-path="url(#a)"><path d="M0 22.5v-21C0 .675.675 0 1.5 0h21c.825 0 1.5.675 1.5 1.5v21c0 .825-.675 1.5-1.5 1.5h-21C.675 24 0 23.325 0 22.5Z" fill="#2D327D"/><path d="M9.612 18.811a2.379 2.379 0 1 0 4.758 0v-2.379H9.612v2.379Z" fill="#fff"/><path d="m21.192 20.131-6.661-6.661.719-2.979a2.06 2.06 0 0 0 .01-.924l-1.218-5.612a1.449 1.449 0 0 0-1.415-1.141h-1.272c-.682 0-1.271.475-1.415 1.141l-.877 4.046-5.212-5.212L2.79 3.85l5.915 5.915a1.94 1.94 0 0 0 .227 1.14l1.023 1.927 3.027 1.211 7.149 7.149 1.061-1.061Z" fill="#fff"/><path d="M3.851 2.789 2.79 3.85l17.342 17.342 1.06-1.061L3.851 2.789Z" fill="#EB0000"/></g><defs><clipPath id="a"><path fill="#fff" d="M0 0h24v24H0z"/></clipPath></defs></svg>