<svg class="color-immutable" width="24" height="24" viewBox="0 0 24 24" fill="none" xmlns="http://www.w3.org/2000/svg"><g clip-path="url(#a)"><path d="M0 22.5v-21C0 .675.675 0 1.5 0h21c.825 0 1.5.675 1.5 1.5v21c0 .825-.675 1.5-1.5 1.5h-21C.675 24 0 23.325 0 22.5Z" fill="#2D327D"/><path d="M21 12a9 9 0 0 1-9 9 9 9 0 0 1-9-9 9 9 0 0 1 9-9 9 9 0 0 1 9 9Z" fill="#fff"/><path d="M12 3a9 9 0 0 0-9 9 9 9 0 0 0 9 9 9 9 0 0 0 9-9 9 9 0 0 0-9-9Zm0 15.75a6.75 6.75 0 1 1 0-13.5 6.75 6.75 0 0 1 0 13.5Z" fill="#EB0000"/><path d="M16.826 8.25H7.174a.499.499 0 0 0 0 .996h3.452v8.382a.515.515 0 1 0 1.031 0V13.21h.687v4.418a.514.514 0 1 0 1.03 0V9.247h3.453a.499.499 0 0 0-.001-.997ZM12 7.781a1.032 1.032 0 1 0 0-2.063 1.032 1.032 0 0 0 0 2.063Z" fill="#000"/></g><defs><clipPath id="a"><path fill="#fff" d="M0 0h24v24H0z"/></clipPath></defs></svg>