<svg class="color-immutable" width="30" height="30" viewBox="0 0 30 30" fill="none" xmlns="http://www.w3.org/2000/svg"><path d="M30 0H0v30h30V0Z" fill="#2D327D"/><path d="M25.5 3c.825 0 1.5.675 1.5 1.5v21c0 .825-.675 1.5-1.5 1.5h-21c-.825 0-1.5-.675-1.5-1.5v-21C3 3.675 3.675 3 4.5 3h21Zm0-.375h-21A1.877 1.877 0 0 0 2.625 4.5v21c0 1.034.841 1.875 1.875 1.875h21a1.877 1.877 0 0 0 1.875-1.875v-21A1.877 1.877 0 0 0 25.5 2.625Z" fill="#fff"/><path d="M24 15a9 9 0 1 1-18 0 9 9 0 0 1 18 0Z" fill="#fff"/><path d="M15 6a9 9 0 1 0 0 18 9 9 0 0 0 0-18Zm0 15.75a6.75 6.75 0 1 1 0-13.5 6.75 6.75 0 0 1 0 13.5Z" fill="#EB0000"/><path d="M19.826 11.25h-9.652a.498.498 0 0 0 0 .997h3.452v8.381a.514.514 0 1 0 1.03 0V16.21h.687v4.418a.516.516 0 0 0 1.03 0v-8.381h3.453a.499.499 0 0 0 0-.997ZM15 10.781a1.031 1.031 0 1 0 0-2.063 1.031 1.031 0 0 0 0 2.063Z" fill="#000"/></svg>