<svg class="color-immutable" width="30" height="30" viewBox="0 0 30 30" fill="none" xmlns="http://www.w3.org/2000/svg"><path d="M30 0H0v30h30V0Z" fill="#2D327D"/><path d="M25.5 3c.825 0 1.5.675 1.5 1.5v21c0 .825-.675 1.5-1.5 1.5h-21c-.825 0-1.5-.675-1.5-1.5v-21C3 3.675 3.675 3 4.5 3h21Zm0-.375h-21A1.877 1.877 0 0 0 2.625 4.5v21c0 1.034.841 1.875 1.875 1.875h21a1.877 1.877 0 0 0 1.875-1.875v-21A1.877 1.877 0 0 0 25.5 2.625Z" fill="#fff"/><path d="m12.011 9.465 1.645-1.643-1.883-1.883a.378.378 0 0 0-.264-.11c-.1 0-.195.04-.267.11l-1.114 1.114a.381.381 0 0 0-.11.264c0 .1.041.196.11.266l1.883 1.882Z" fill="#fff"/><path d="m15.75 10.5-1.855-1.857-1.061 1.062.795.796h-3.503c-1.036 0-1.876.839-1.876 1.873V13.5h1.5v-1.125c0-.206.168-.374.376-.374H19.5v-1.5h-3.75ZM12 17.295l1.508-1.507-.796-.796-.712.712v-.44a.262.262 0 0 0-.262-.264H6.263a.264.264 0 0 0-.263.264v.44l-.713-.712-.795.796L6 17.295v4.41l-1.508 1.507.795.796.861-.86A1.5 1.5 0 0 0 7.501 24h3c.596 0 1.109-.349 1.35-.852l.861.86.796-.796L12 21.705v-4.41Zm-3 1.306a2.747 2.747 0 0 0-.182-.078l-.934-.934a2.7 2.7 0 0 1 1.116.26c.206.099.422.169.643.212l-.57.571c-.025-.01-.05-.02-.073-.031Zm2.326 0a2.705 2.705 0 0 1-.878.246l.878-.877v.63Zm-3.489-2.439c.403 0 .801.09 1.163.262.364.173.76.264 1.163.264.372 0 .74-.08 1.081-.228l-.974.974A2.708 2.708 0 0 1 9 17.175a2.707 2.707 0 0 0-1.73-.201l-.564-.563a2.7 2.7 0 0 1 1.131-.249Zm-.701 2.27a2.72 2.72 0 0 0-.46.169v-.63l.46.46Z" fill="#fff"/><path d="m9 18.704-3.713-3.712-.795.796L8.204 19.5l-3.712 3.712.795.796L9 20.296l3.712 3.712.796-.796L9.795 19.5l3.713-3.712-.796-.796L9 18.704Z" fill="#EB0000"/></svg>