<svg class="color-immutable" width="24" height="24" viewBox="0 0 24 24" fill="none" xmlns="http://www.w3.org/2000/svg"><path fill-rule="evenodd" clip-rule="evenodd" d="M22.5 0h-21C.675 0 0 .675 0 1.5v21c0 .825.675 1.5 1.5 1.5h21c.825 0 1.5-.675 1.5-1.5v-21c0-.825-.675-1.5-1.5-1.5Z" fill="#237F52"/><path fill-rule="evenodd" clip-rule="evenodd" d="M8.182 3v10.32H5.1c-.57 0-1.035.465-1.035 1.035 0 .57.465 1.035 1.035 1.035h3.082v4.365L6.945 21h6.022l.99-1.058c.255-.277.803-.39 1.208-.262.412.128.532.457.277.735l-.547.585h3.787l1.245-1.245V3H8.182Zm9.96 1.612c.743 0 1.35.608 1.35 1.35 0 .743-.607 1.35-1.35 1.35-.742 0-1.35-.607-1.35-1.35 0-.742.608-1.35 1.35-1.35Zm-1.44 7.32h2.46a.507.507 0 0 0 .51-.517.519.519 0 0 0-.517-.517h-1.973V8.475c0-.952-.772-1.732-1.732-1.732h-2.423a.7.7 0 0 0-.487.202l-2.04 2.04a.487.487 0 1 0 .69.69l1.927-1.928h1.373l-5.925 5.925H5.1a.688.688 0 0 0-.69.69c0 .383.307.69.69.69h3.847a.7.7 0 0 0 .488-.202l2.76-2.76 2.61 2.61v3.817c0 .383.307.69.69.69.382 0 .69-.307.69-.69v-4.192a.717.717 0 0 0-.203-.495l-2.077-2.078 2.28-2.28v1.943c0 .285.232.518.517.518Z" fill="#fff"/></svg>