<svg class="color-immutable" width="24" height="24" viewBox="0 0 24 24" fill="none" xmlns="http://www.w3.org/2000/svg"><path fill-rule="evenodd" clip-rule="evenodd" d="M22.5 0h-21C.675 0 0 .675 0 1.5v21c0 .825.675 1.5 1.5 1.5h21c.825 0 1.5-.675 1.5-1.5v-21c0-.825-.675-1.5-1.5-1.5Z" fill="#237F52"/><path fill-rule="evenodd" clip-rule="evenodd" d="M4.065 3v16.755L5.31 21h3.787l-.547-.585c-.255-.277-.135-.607.277-.735.413-.128.953-.008 1.208.262l.99 1.058h6.022l-1.237-1.245V15.39h3.082c.57 0 1.035-.465 1.035-1.035 0-.57-.465-1.035-1.035-1.035H15.81V3H4.065Zm3.142 2.963c0 .742-.607 1.35-1.35 1.35-.742 0-1.35-.608-1.35-1.35 0-.743.608-1.35 1.35-1.35.743 0 1.35.607 1.35 1.35Zm-2.37 4.935a.519.519 0 0 0-.517.517.51.51 0 0 0 .525.51h2.46a.519.519 0 0 0 .517-.518V9.466l2.28 2.28-2.077 2.078a.717.717 0 0 0-.203.495v4.192c0 .382.308.69.69.69.383 0 .69-.308.69-.69V14.7l2.61-2.602 2.753 2.752a.669.669 0 0 0 .487.203H18.9c.382 0 .69-.308.69-.69a.688.688 0 0 0-.69-.69h-3.473L9.502 7.746h1.373l1.927 1.928a.487.487 0 1 0 .69-.69l-2.04-2.04a.7.7 0 0 0-.487-.203H8.542c-.96 0-1.732.78-1.732 1.733v2.423H4.837Z" fill="#fff"/></svg>