<svg class="color-immutable" width="24" height="24" viewBox="0 0 24 24" fill="none" xmlns="http://www.w3.org/2000/svg"><path fill-rule="evenodd" clip-rule="evenodd" d="M22.5 0h-21C.675 0 0 .675 0 1.5v21c0 .825.675 1.5 1.5 1.5h21c.825 0 1.5-.675 1.5-1.5v-21c0-.825-.675-1.5-1.5-1.5Z" fill="#237F52"/><path fill-rule="evenodd" clip-rule="evenodd" d="m5.88 16.305 1.928-1.935v1.215L5.393 18l-2.415-2.415V14.37l1.935 1.935v-4.59h.967v4.59ZM19.83 3v2.888c0 .405-.33.734-.735.734H9.728a.736.736 0 0 1-.735-.734v-2.88H7.83V11.82c0 1.005.773 1.815 1.755 1.89v-1.17a.739.739 0 0 1-.592-.72V8.527c0-.404.33-.734.735-.734h9.375c.405 0 .735.33.735.734v3.293c0 .36-.263.66-.608.727v1.17A1.897 1.897 0 0 0 21 11.82V3h-1.17Z" fill="#fff"/><path fill-rule="evenodd" clip-rule="evenodd" d="M18.173 11.22a.78.78 0 0 0-.78.78v2.048h-.315v-2.993a.78.78 0 1 0-1.56 0v2.378h-.315v-3a.78.78 0 1 0-1.56 0v2.362h-.315V10.77a.78.78 0 1 0-1.56 0v3.93h-.315v-2.01c0-.495-.315-.937-.78-1.102a.56.56 0 0 0-.195-.03.586.586 0 0 0-.585.585v3.772c0 .39.082.795.21 1.11.127.315 1.38 3.323 1.38 3.323h6.487l.803-1.943c.135-.345.195-.712.195-1.102v-5.295a.809.809 0 0 0-.795-.788Z" fill="#fff"/></svg>