<svg class="color-immutable" width="24" height="24" viewBox="0 0 24 24" fill="none" xmlns="http://www.w3.org/2000/svg"><path fill-rule="evenodd" clip-rule="evenodd" d="M22.5 0h-21C.675 0 0 .675 0 1.5v21c0 .825.675 1.5 1.5 1.5h21c.825 0 1.5-.675 1.5-1.5v-21c0-.825-.675-1.5-1.5-1.5Z" fill="#237F52"/><path fill-rule="evenodd" clip-rule="evenodd" d="m6.18 5.7-.007-2.617 5.28.007.06 1.523.96 1.065L6.18 5.7ZM8.82 9.63c-2.588 0-2.633-3.352-2.633-3.39v-.067l5.356-.023v.075c-.008.03-.143 3.405-2.723 3.405ZM12.09 20.985H5.655V10.163h14.19c.63 0 1.148.517 1.148 1.147s-.518 1.147-1.148 1.147H12.09v8.528ZM5.115 20.985H2.993v-8.137c0-2.213 2.017-2.64 2.04-2.64l.082-.015v10.792ZM14.498 7.973l-.383-.24.083-.128a2.51 2.51 0 0 0 .442-1.41c0-.51-.157-1.012-.457-1.44l-.09-.12.382-.24.075.113a2.91 2.91 0 0 1 .022 3.345l-.074.12Z" fill="#fff"/><path fill-rule="evenodd" clip-rule="evenodd" d="m15.405 8.452-.367-.262.09-.12a3.033 3.033 0 0 0 .015-3.78l-.09-.12.367-.263.083.105c.487.623.75 1.373.75 2.153 0 .787-.263 1.537-.758 2.167l-.09.12Z" fill="#fff"/><path fill-rule="evenodd" clip-rule="evenodd" d="m16.358 8.917-.36-.27.097-.112a3.57 3.57 0 0 0 .863-2.325c0-.855-.315-1.695-.885-2.355l-.098-.113.36-.277.09.105c.638.742.99 1.68.99 2.64 0 .96-.33 1.86-.96 2.61l-.097.097Z" fill="#fff"/></svg>