<svg class="color-immutable" width="24" height="24" viewBox="0 0 24 24" fill="none" xmlns="http://www.w3.org/2000/svg"><path fill-rule="evenodd" clip-rule="evenodd" d="M22.5 0h-21C.675 0 0 .675 0 1.5v21c0 .825.675 1.5 1.5 1.5h21c.825 0 1.5-.675 1.5-1.5v-21c0-.825-.675-1.5-1.5-1.5Z" fill="#2D327D"/><path fill-rule="evenodd" clip-rule="evenodd" d="M3.263 16.185A3.5 3.5 0 0 0 3 17.468V21h7.822c.083-.188.316-.608.563-1.148a1.78 1.78 0 0 1-.675.15h-.053c-.3 0-.607-.067-.892-.194l-3.51-1.598c-.502-.233-.893-.63-1.065-1.095a1.358 1.358 0 0 1 .022-1.057l1.59-3.413.87-1.875a1.356 1.356 0 0 0-.374-1.425.674.674 0 0 0-.196-.127.686.686 0 0 0-.892.36l-2.947 6.607ZM12.518 20.97a.803.803 0 1 1 .022-1.605h1.478a.81.81 0 0 1 .817.795.81.81 0 0 1-.795.817h-1.522v-.007ZM13.432 19.005a.803.803 0 1 1 .023-1.605h1.477a.81.81 0 0 1 .818.795.81.81 0 0 1-.795.817h-1.523v-.007ZM14.34 17.047a.803.803 0 1 1 .023-1.604h1.477a.81.81 0 0 1 .817.795.81.81 0 0 1-.794.817H14.34v-.008ZM15.248 15.15a.805.805 0 1 1 .022-1.613h1.477a.81.81 0 0 1 .818.795.81.81 0 0 1-.795.818h-1.522Z" fill="#fff"/><path fill-rule="evenodd" clip-rule="evenodd" d="M16.508 7.822a1.7 1.7 0 0 0-.825-.757l-3.51-1.598a1.784 1.784 0 0 0-.75-.165h-.046c-.495.015-.892.24-1.065.615l-4.784 10.29c-.113.24-.113.51-.015.788.142.383.465.705.885.9l3.51 1.598c.24.112.502.165.75.165h.045c.495-.016.892-.24 1.065-.616l4.784-10.29c.136-.285.12-.615-.044-.93Zm-7.313 9.93a.498.498 0 0 1-.675.226.498.498 0 0 1-.24-.668.507.507 0 0 1 .915.443Zm-2.242-2.49 4.62 2.078 4.02-8.723-4.62-2.077-4.02 8.723ZM4.958 3.667h-.465a.359.359 0 0 0-.12-.254c-.068-.06-.173-.09-.308-.09a.48.48 0 0 0-.27.067.22.22 0 0 0-.097.195c0 .075.03.127.09.158.06.03.21.082.45.135.255.06.435.127.532.194.18.12.27.285.27.495 0 .233-.09.42-.277.548-.158.12-.383.18-.653.18-.307 0-.54-.067-.712-.21-.173-.143-.255-.338-.263-.593h.488c.007.128.037.218.097.278.09.098.225.143.405.143.12 0 .218-.023.293-.075a.248.248 0 0 0 .12-.226c0-.097-.06-.165-.173-.21a8.966 8.966 0 0 0-.442-.135 2.33 2.33 0 0 1-.345-.112.67.67 0 0 1-.195-.12.559.559 0 0 1-.173-.428c0-.217.09-.39.27-.51.15-.105.353-.164.593-.164.217 0 .39.044.54.127.225.135.337.33.345.607ZM7.118 3.24a1.035 1.035 0 0 0-.75-.292c-.323 0-.593.105-.803.315-.217.202-.322.495-.322.87 0 .315.082.57.247.78.21.262.495.39.863.39.36 0 .637-.128.847-.383.173-.21.255-.472.255-.795 0-.375-.112-.667-.337-.885Zm-1.208.315a.537.537 0 0 1 .435-.202c.188 0 .345.075.45.21.113.135.165.322.165.555 0 .247-.06.442-.18.585a.522.522 0 0 1-.427.187.576.576 0 0 1-.45-.202c-.113-.135-.165-.33-.165-.57 0-.24.06-.428.172-.563ZM9.458 3.667h-.465a.359.359 0 0 0-.12-.254.47.47 0 0 0-.308-.09.48.48 0 0 0-.27.067.22.22 0 0 0-.097.195c0 .075.03.127.09.158.06.03.21.082.45.135.255.06.435.127.532.194.18.12.27.285.27.495 0 .233-.09.42-.27.548-.157.12-.382.18-.652.18-.308 0-.54-.067-.713-.21-.172-.143-.255-.338-.262-.593h.487c.008.128.038.218.098.278.09.098.225.143.405.143.12 0 .217-.023.292-.075a.248.248 0 0 0 .12-.226c0-.097-.06-.165-.172-.21a8.966 8.966 0 0 0-.443-.135 2.33 2.33 0 0 1-.345-.112.67.67 0 0 1-.195-.12.559.559 0 0 1-.172-.428c0-.217.09-.39.27-.51.15-.105.352-.164.592-.164.218 0 .39.044.54.127.218.135.33.33.338.607Z" fill="#fff"/></svg>