<svg class="color-immutable" width="24" height="24" viewBox="0 0 24 24" fill="none" xmlns="http://www.w3.org/2000/svg"><path fill-rule="evenodd" clip-rule="evenodd" d="M22.5 0h-21C.675 0 0 .675 0 1.5v21c0 .825.675 1.5 1.5 1.5h21c.825 0 1.5-.675 1.5-1.5v-21c0-.825-.675-1.5-1.5-1.5Z" fill="#237F52"/><path fill-rule="evenodd" clip-rule="evenodd" d="M15 3.375c0-.21.165-.375.375-.375s.375.165.375.375v17.25c0 .21-.165.375-.375.375a.371.371 0 0 1-.375-.375v-.938H9v.938c0 .21-.165.375-.375.375a.371.371 0 0 1-.375-.375V3.375c0-.21.165-.375.375-.375S9 3.165 9 3.375v.938h6v-.938ZM9 19.313h6v-2.625H9v2.625Zm6-3H9v-2.625h6v2.624Zm-6-3h6v-2.626H9v2.626Zm6-3H9V7.687h6v2.625Zm-6-3h6V4.688H9v2.625Z" fill="#fff"/></svg>