<svg class="color-immutable" width="24" height="24" viewBox="0 0 24 24" fill="none" xmlns="http://www.w3.org/2000/svg"><path fill-rule="evenodd" clip-rule="evenodd" d="M22.5 0h-21C.675 0 0 .675 0 1.5v21c0 .825.675 1.5 1.5 1.5h21c.825 0 1.5-.675 1.5-1.5v-21c0-.825-.675-1.5-1.5-1.5Z" fill="#237F52"/><path fill-rule="evenodd" clip-rule="evenodd" d="m8.422 3.022-1.23.375.008 4.328 1.462-.45a.45.45 0 0 0 .315-.42L9 3.442a.66.66 0 0 0-.015-.127.456.456 0 0 0-.563-.293ZM11.933 16.35a.453.453 0 0 0-.495-.173l-1.463.45 2.415 3.585 1.23-.375a.441.441 0 0 0 .233-.674l-1.92-2.813Z" fill="#fff"/><path fill-rule="evenodd" clip-rule="evenodd" d="M8.573 17.198a17.396 17.396 0 0 1-2.025-4.328c-.473-1.53-.72-3.12-.75-4.717l.885-.27-.008-4.328-1.26.383a2.24 2.24 0 0 0-1.387 1.245 12.453 12.453 0 0 0-.473 8.602 12.47 12.47 0 0 0 5.22 6.863 2.194 2.194 0 0 0 1.845.247l1.26-.39-2.415-3.585-.892.278ZM16.867 6.105c-.862 0-1.372-.675-1.372-1.538 0-.975.6-1.567 1.373-1.567.84 0 1.365.69 1.365 1.575 0 .945-.6 1.53-1.366 1.53Zm-.007-2.603c-.578 0-.802.48-.802 1.073 0 .495.21 1.05.802 1.05.54 0 .803-.48.803-1.05 0-.758-.413-1.073-.803-1.073ZM12.727 5.092c0 .293.21 1.013 1.268 1.013.998 0 1.2-.593 1.2-.96 0-.495-.345-.765-.758-.833l-.427-.067c-.322-.045-.615-.053-.615-.345 0-.27.248-.413.57-.413.308 0 .615.12.637.48h.578c-.015-.3-.232-.96-1.207-.96-.616 0-1.126.323-1.126.945 0 .653.608.78 1.02.84.09.008.293.038.345.045.248.038.413.158.413.368 0 .285-.322.42-.6.42-.353 0-.697-.143-.697-.525l-.6-.008ZM18.54 5.092c0 .293.21 1.013 1.26 1.013.997 0 1.2-.593 1.2-.96 0-.495-.345-.765-.758-.833l-.427-.067c-.323-.045-.615-.053-.615-.345 0-.27.248-.413.57-.413.308 0 .615.12.637.48h.578c-.015-.3-.232-.96-1.207-.96-.615 0-1.125.323-1.125.945 0 .653.607.78 1.02.84.09.008.292.038.345.045.247.038.412.158.412.368 0 .285-.322.42-.6.42-.352 0-.697-.143-.697-.525l-.593-.008Z" fill="#fff"/></svg>