<svg class="color-immutable" width="30" height="30" viewBox="0 0 30 30" fill="none" xmlns="http://www.w3.org/2000/svg"><g clip-path="url(#a)"><path d="M30 0H0v30h30V0Z" fill="#2D327D"/><path d="M25.5 3c.825 0 1.5.675 1.5 1.5v21c0 .825-.675 1.5-1.5 1.5h-21c-.825 0-1.5-.675-1.5-1.5v-21C3 3.675 3.675 3 4.5 3h21Zm0-.375h-21A1.877 1.877 0 0 0 2.625 4.5v21c0 1.034.841 1.875 1.875 1.875h21a1.877 1.877 0 0 0 1.875-1.875v-21A1.877 1.877 0 0 0 25.5 2.625Z" fill="#fff"/><path fill-rule="evenodd" clip-rule="evenodd" d="m7.08 12.117-.045-.076-.988-1.7a.292.292 0 0 1 0-.316c.173-.295.344-.592.517-.889l.013-.025-.534-.315.002-.006h1.71c.018 0 .032.001.043.02l.863 1.48.013.026-.542-.313-.02.032-.968 1.677a.49.49 0 0 0-.06.385l.001.019H7.08ZM12.072 7.072l.54-.311c-.008.016-.011.024-.016.03l-.84 1.465c-.008.015-.017.023-.036.023l-1.712.006-.025-.002.535-.313-.019-.035-.955-1.667a.491.491 0 0 0-.314-.253c-.004-.001-.007-.004-.018-.01h.04L11.185 6c.058 0 .118 0 .176.009.082.012.138.065.179.136l.522.912.01.015ZM10.88 12.948v.616a.867.867 0 0 1-.008.002l-.015-.02-.84-1.46c-.01-.015-.013-.026-.003-.043l.857-1.494.01-.012v.622h1.968a.507.507 0 0 0 .372-.145l.02-.015-.021.038-.97 1.688c-.03.05-.059.1-.095.144-.049.06-.119.082-.194.082-.173 0-.346-.002-.518-.003H10.88Z" fill="#fff"/><path fill-rule="evenodd" clip-rule="evenodd" d="M9.59 11.153v1.782h-.035c-.415 0-.83.01-1.245-.003-.374-.011-.658-.186-.818-.535a.827.827 0 0 1-.078-.47.417.417 0 0 1 .046-.142c.115-.204.234-.405.35-.607.011-.02.023-.025.045-.025H9.59ZM11.2 9.316l1.537-.89c.007.012.013.022.02.031.207.357.423.71.62 1.073.14.255.168.53.045.805a.942.942 0 0 1-.39.442.461.461 0 0 1-.243.067c-.227-.002-.454 0-.682 0-.018 0-.03-.003-.04-.02-.286-.498-.573-.994-.86-1.49l-.008-.018ZM7.258 7.77l.16-.284c.159-.278.312-.558.476-.833a.859.859 0 0 1 .63-.426.92.92 0 0 1 .614.115.464.464 0 0 1 .175.173c.113.198.229.395.343.593.01.017.012.03.002.048-.283.493-.565.988-.847 1.482l-.014.023-1.54-.891Z" fill="#fff"/><path d="m22.644 19.76-4.439 3.307s-.435.336-.546.599a.313.313 0 0 0-.023.19c.027.132.18.196.299.13l6.03-3.401-1.32-.825ZM15.61 12.864l-6.256 4.732s-.241.216-.286.265a1.46 1.46 0 0 0-.392.938 2.064 2.064 0 0 0-.004.074l8.119 5.067c.079-.487.38-.988.82-1.345.28-.229 6.186-4.612 6.186-4.612l-8.186-5.12Zm1.305 8.796a2.887 2.887 0 0 0-.507.531l-6.076-3.799c.088-.11.188-.213.3-.304a8.532 8.532 0 0 1 .275-.21l6.025 3.768-.017.014Zm-5.252-4.348.632-.472 6.016 3.762-.632.473-6.016-3.762Zm7.97 2.31-6.022-3.76 1.834-1.363 6.023 3.76-.008.006-1.826 1.357Z" fill="#fff"/></g><defs><clipPath id="a"><path fill="#fff" d="M0 0h30v30H0z"/></clipPath></defs></svg>