<svg class="color-immutable" width="24" height="24" viewBox="0 0 24 24" fill="none" xmlns="http://www.w3.org/2000/svg"><path fill-rule="evenodd" clip-rule="evenodd" d="M22.5 0h-21C.675 0 0 .675 0 1.5v21c0 .825.675 1.5 1.5 1.5h21c.825 0 1.5-.675 1.5-1.5v-21c0-.825-.675-1.5-1.5-1.5Z" fill="#2D327D"/><path fill-rule="evenodd" clip-rule="evenodd" d="M8.445 7.5H3V21h2.94v-4.867h3.03c.772 0 1.425-.075 1.957-.225.526-.15.998-.398 1.41-.743.976-.802 1.463-1.912 1.463-3.322 0-1.59-.585-2.775-1.763-3.563-.42-.292-.9-.495-1.425-.607C10.088 7.56 9.36 7.5 8.446 7.5Zm-2.498 6.315V9.99l2.475.008c.81 0 1.388.12 1.748.367.488.33.735.84.735 1.515 0 .667-.21 1.177-.637 1.522-.346.278-.908.413-1.688.413H5.947Z" fill="#fff"/></svg>