<svg class="color-immutable" width="24" height="24" viewBox="0 0 24 24" fill="none" xmlns="http://www.w3.org/2000/svg"><g clip-path="url(#a)"><path d="M0 22.5v-21C0 .675.675 0 1.5 0h21c.825 0 1.5.675 1.5 1.5v21c0 .825-.675 1.5-1.5 1.5h-21C.675 24 0 23.325 0 22.5Z" fill="#2D327D"/><path d="M3 7.508h5.445c.917 0 1.638.057 2.164.171a4.024 4.024 0 0 1 1.426.604c1.175.788 1.763 1.975 1.763 3.562 0 1.409-.486 2.516-1.458 3.322a3.794 3.794 0 0 1-1.412.743c-.529.151-1.181.226-1.956.226H5.944V21H3V7.508ZM5.944 10v3.821h2.63c.781 0 1.344-.138 1.689-.415.425-.344.637-.852.637-1.523 0-.677-.246-1.181-.738-1.513-.358-.247-.939-.37-1.745-.37H5.944ZM3.214 3h.907c.153 0 .273.009.361.028a.675.675 0 0 1 .238.101c.195.131.293.329.293.594a.682.682 0 0 1-.243.554.63.63 0 0 1-.235.123 1.172 1.172 0 0 1-.326.038h-.505v.811h-.49V3Zm.49.415v.637h.438c.13 0 .224-.023.281-.069.072-.058.107-.142.107-.254 0-.113-.041-.197-.123-.252-.059-.041-.156-.062-.29-.062h-.413ZM5.272 4.298v-.301h.624v-.626h.301v.626h.626v.301h-.625v.624h-.302v-.624h-.624ZM7.197 3h1.089c.215 0 .38.034.495.102A.56.56 0 0 1 9 3.323c.05.092.075.196.075.312a.617.617 0 0 1-.095.343.512.512 0 0 1-.263.209c.099.025.177.08.234.166.036.054.06.111.072.171.012.06.028.196.048.408.014.156.036.253.066.291l.022.026h-.513a.39.39 0 0 1-.038-.122 4.978 4.978 0 0 1-.03-.341c-.012-.159-.051-.269-.116-.33s-.176-.092-.332-.092h-.442v.884h-.491V3Zm.491.386v.618h.469c.151 0 .257-.022.318-.065.078-.054.117-.136.117-.246 0-.107-.033-.185-.1-.234-.066-.048-.171-.073-.315-.073h-.489ZM10.957 5.249h-.455a.629.629 0 0 1-.029-.168.72.72 0 0 1-.54.214c-.172 0-.307-.04-.403-.12a.472.472 0 0 1-.167-.386c0-.21.095-.356.285-.437.077-.033.218-.063.425-.091.177-.024.288-.046.331-.068.044-.022.065-.066.065-.133 0-.147-.097-.22-.292-.22-.104 0-.179.018-.227.055-.048.037-.079.101-.095.192h-.421a.543.543 0 0 1 .211-.422c.128-.095.308-.142.543-.142.259 0 .451.053.575.158a.37.37 0 0 1 .115.158.915.915 0 0 1 .028.268l-.005.338-.003.348c0 .122.004.211.011.268.007.058.023.12.048.188Zm-.491-.811c-.057.036-.162.064-.314.085a.742.742 0 0 0-.231.063c-.067.036-.1.097-.1.183 0 .07.022.124.066.163a.272.272 0 0 0 .185.058.403.403 0 0 0 .318-.138.271.271 0 0 0 .059-.099.46.46 0 0 0 .016-.136v-.179h.001ZM11.702 3v.401h-.446V3h.446Zm0 .572v1.677h-.446V3.572h.446ZM12.515 3v2.249h-.446V3h.446Z" fill="#fff"/></g><defs><clipPath id="a"><path fill="#fff" d="M0 0h24v24H0z"/></clipPath></defs></svg>