<svg class="color-immutable" width="24" height="24" viewBox="0 0 24 24" fill="none" xmlns="http://www.w3.org/2000/svg"><path fill-rule="evenodd" clip-rule="evenodd" d="M22.5 0h-21C.675 0 0 .675 0 1.5v21c0 .825.675 1.5 1.5 1.5h21c.825 0 1.5-.675 1.5-1.5v-21c0-.825-.675-1.5-1.5-1.5Z" fill="#2D327D"/><path fill-rule="evenodd" clip-rule="evenodd" d="M21 12.488V11.25l-9-4.125-9 4.125v1.238l9-4.125 9 4.125Z" fill="#fff"/><path fill-rule="evenodd" clip-rule="evenodd" d="M12.945 11.325H9.053V21h2.107v-3.48h2.168c.555 0 1.02-.06 1.402-.165.383-.105.72-.285 1.012-.533.698-.577 1.043-1.372 1.043-2.384 0-1.14-.427-1.995-1.268-2.558-.3-.21-.644-.353-1.02-.435-.374-.082-.892-.12-1.552-.12Zm-1.8 4.523V13.11l1.763-.008c.577 0 .997.083 1.252.263.352.24.533.6.533 1.088 0 .487-.15.847-.458 1.095-.24.202-.645.3-1.207.3h-1.883Z" fill="#fff"/></svg>