<svg class="color-immutable" width="24" height="24" viewBox="0 0 24 24" fill="none" xmlns="http://www.w3.org/2000/svg"><path fill-rule="evenodd" clip-rule="evenodd" d="M22.5 0h-21C.675 0 0 .675 0 1.5v21c0 .825.675 1.5 1.5 1.5h21c.825 0 1.5-.675 1.5-1.5v-21c0-.825-.675-1.5-1.5-1.5Z" fill="#2D327D"/><path fill-rule="evenodd" clip-rule="evenodd" d="M19.613 7.5H4.386A1.39 1.39 0 0 0 3 8.887h18A1.39 1.39 0 0 0 19.613 7.5ZM14.648 18h1.522v-3.368h1.2c.96 0 1.492.18 1.657 1.418.083.652.188 1.44.368 1.95H21c-.255-.458-.323-1.238-.413-1.898-.142-1.05-.307-1.882-1.62-2.085l.113-.007c.458 0 1.733-.413 1.733-1.868 0-1.605-1.058-2.385-2.31-2.385h-3.848L14.648 18Zm1.537-6.998h1.883c.907 0 1.2.6 1.2 1.208 0 .682-.428 1.17-1.448 1.17h-1.635v-2.378ZM12.473 16.762v-1.725h1.664v-1.35h-1.665v-1.5h-1.5v1.5H9.3V15h1.672v1.762h1.5ZM3 18h1.537v-2.97h2.168c1.68 0 2.445-1.253 2.445-2.58 0-1.245-.72-2.693-2.61-2.693H3V18Zm1.53-6.96h1.882c.466 0 1.223.315 1.223 1.41 0 .922-.592 1.32-1.237 1.32H4.53v-2.73ZM4.388 21h15.225A1.39 1.39 0 0 0 21 19.613H3A1.39 1.39 0 0 0 4.388 21Z" fill="#fff"/></svg>