<svg class="color-immutable" width="30" height="30" viewBox="0 0 30 30" fill="none" xmlns="http://www.w3.org/2000/svg"><g clip-path="url(#a)"><path d="M30 0H0v30h30V0Z" fill="#2D327D"/><path d="M25.5 3c.825 0 1.5.675 1.5 1.5v21c0 .825-.675 1.5-1.5 1.5h-21c-.825 0-1.5-.675-1.5-1.5v-21C3 3.675 3.675 3 4.5 3h21Zm0-.375h-21A1.877 1.877 0 0 0 2.625 4.5v21c0 1.034.841 1.875 1.875 1.875h21a1.877 1.877 0 0 0 1.875-1.875v-21A1.877 1.877 0 0 0 25.5 2.625Z" fill="#fff"/><path fill-rule="evenodd" clip-rule="evenodd" d="m7.08 12.117-.045-.076-.988-1.7a.292.292 0 0 1 0-.316c.173-.295.344-.592.517-.889l.013-.025-.534-.315.002-.006h1.71c.018 0 .032.001.043.02l.863 1.48.013.026-.542-.313-.02.032-.968 1.677a.49.49 0 0 0-.06.385l.001.019H7.08ZM12.072 7.072l.54-.311c-.008.016-.011.024-.016.03l-.84 1.465c-.008.015-.017.023-.036.023l-1.712.006-.025-.002.535-.313-.019-.035-.955-1.667a.491.491 0 0 0-.314-.253c-.004-.001-.007-.004-.018-.01h.04L11.185 6c.058 0 .118 0 .176.009.082.012.138.065.179.136l.522.912.01.015ZM10.88 12.948v.616a.867.867 0 0 1-.008.002l-.015-.02-.84-1.46c-.01-.015-.013-.026-.003-.043l.857-1.494.01-.012v.622h1.968a.507.507 0 0 0 .372-.145l.02-.015-.021.038-.97 1.688c-.03.05-.059.1-.095.144-.049.06-.119.082-.194.082-.173 0-.346-.002-.518-.003H10.88Z" fill="#fff"/><path fill-rule="evenodd" clip-rule="evenodd" d="M9.59 11.153v1.782h-.035c-.415 0-.83.01-1.245-.003-.374-.011-.658-.186-.818-.535a.827.827 0 0 1-.078-.47.417.417 0 0 1 .046-.142c.115-.204.234-.405.35-.607.011-.02.023-.025.045-.025H9.59ZM11.2 9.316l1.537-.89c.007.012.013.022.02.031.207.357.423.71.62 1.073.14.255.168.53.045.805a.942.942 0 0 1-.39.442.461.461 0 0 1-.243.067c-.227-.002-.454 0-.682 0-.018 0-.03-.003-.04-.02-.286-.498-.573-.994-.86-1.49l-.008-.018ZM7.258 7.77l.16-.284c.159-.278.312-.558.476-.833a.859.859 0 0 1 .63-.426.92.92 0 0 1 .614.115.464.464 0 0 1 .175.173c.113.198.229.395.343.593.01.017.012.03.002.048-.283.493-.565.988-.847 1.482l-.014.023-1.54-.891Z" fill="#fff"/><path d="M23.95 8.719a.375.375 0 0 0-.138-.512l-1.786-1.032a.375.375 0 0 0-.512.138l-.469.811 2.436 1.407.469-.812ZM14.116 16.764a1.576 1.576 0 0 0-.075.117l-2.098 3.634a.844.844 0 0 0 1.098 1.181c.044-.343.057-.744.034-1.166l.74-.04c.039.71-.011 1.346-.142 1.837a1.772 1.772 0 0 0 1.194.69c.36-.359.886-.72 1.52-1.042l.335.66c-.376.191-.717.403-.992.614a.842.842 0 0 0 1.572.36l2.098-3.635c.022-.039.043-.08.063-.123.14-.26.245-.514.323-.762l-5.17-2.986c-.176.192-.345.41-.5.661ZM21.665 15.41l-4.804-2.773a5.147 5.147 0 0 1-1.667 2.935l4.763 2.75a5.147 5.147 0 0 1 1.708-2.911ZM22.573 14.345c.027-.04.052-.079.075-.118 1.17-2.026-.284-2.797.075-3.817.012-.032.024-.063.038-.094l.004.002a.226.226 0 0 0 .333-.143l-2.42-1.396a.226.226 0 0 0 .043.36l.004.002-.062.08c-.704.82-2.099-.054-3.268 1.972-.023.04-.044.082-.064.125-.105.194-.191.386-.262.573l5.138 2.966c.127-.154.25-.325.366-.512Z" fill="#fff"/></g><defs><clipPath id="a"><path fill="#fff" d="M0 0h30v30H0z"/></clipPath></defs></svg>