<svg class="color-immutable" width="24" height="24" viewBox="0 0 24 24" fill="none" xmlns="http://www.w3.org/2000/svg"><path fill-rule="evenodd" clip-rule="evenodd" d="M22.5 0h-21C.675 0 0 .675 0 1.5v21c0 .825.675 1.5 1.5 1.5h21c.825 0 1.5-.675 1.5-1.5v-21c0-.825-.675-1.5-1.5-1.5Z" fill="#2D327D"/><path fill-rule="evenodd" clip-rule="evenodd" d="M13.5 4.485c0-.825-.675-1.5-1.5-1.5s-1.5.675-1.5 1.5.675 1.5 1.5 1.5a1.5 1.5 0 0 0 1.5-1.5ZM8.685 7.875v5.092c0 .293.24.533.532.533.293 0 .533-.24.533-.533V8.625h.465v11.61c0 .428.345.765.773.765a.763.763 0 0 0 .764-.765v-6.75h.488v6.75c0 .428.345.765.772.765a.763.763 0 0 0 .765-.765V8.625h.473v4.342c0 .293.24.533.533.533.292 0 .532-.24.532-.533V7.875c0-.825-.675-1.5-1.5-1.5h-3.637c-.826 0-1.493.675-1.493 1.5ZM21 2.992a.186.186 0 0 0-.188.188v5.76a.138.138 0 0 0-.075.052l-.847.9c-.082.083-.143.143-.165.263a1.344 1.344 0 0 0-.015.18c-.082 2.557-.998 3.435-1.365 3.585a.513.513 0 0 0-.307.517c.12 2.003 1.207 3.645 2.384 3.645h.39v2.73c0 .105.083.188.188.188a.186.186 0 0 0 .188-.188V3.187A.192.192 0 0 0 21 2.992Z" fill="#fff"/></svg>