<svg class="color-immutable" width="24" height="24" viewBox="0 0 24 24" fill="none" xmlns="http://www.w3.org/2000/svg"><path fill-rule="evenodd" clip-rule="evenodd" d="M22.5 0h-21C.675 0 0 .675 0 1.5v21c0 .825.675 1.5 1.5 1.5h21c.825 0 1.5-.675 1.5-1.5v-21c0-.825-.675-1.5-1.5-1.5Z" fill="#2D327D"/><path fill-rule="evenodd" clip-rule="evenodd" d="M11.37 18.435v-1.897l-1.41-.008V9.757H7.882l-4.807 6.57v2.108h4.687V21h2.19v-2.565h1.418Zm-3.555-6.06v4.185H4.92l2.895-4.185ZM15.037 18.18h-2.122c.105.945.48 1.695 1.14 2.258.66.562 1.492.84 2.505.84 1.515 0 2.648-.72 3.398-2.16.577-1.103.862-2.445.862-4.013 0-1.695-.323-3.015-.975-3.953a3.95 3.95 0 0 0-1.372-1.222 3.792 3.792 0 0 0-1.778-.428c-1.043 0-1.935.338-2.678 1.013-.862.78-1.297 1.807-1.297 3.075 0 .63.12 1.215.36 1.755.24.532.57.975.998 1.312.607.48 1.327.72 2.152.72.517 0 .96-.104 1.32-.307.36-.203.712-.547 1.058-1.027a9.502 9.502 0 0 1-.226 1.47c-.157.674-.39 1.17-.682 1.492-.293.323-.675.48-1.148.48-.832 0-1.342-.435-1.514-1.305Zm.39-6.195c.33-.397.743-.592 1.223-.592.54 0 .975.21 1.29.637.315.413.473.908.473 1.5 0 .563-.15 1.043-.45 1.447-.323.428-.75.646-1.29.646-.6 0-1.058-.27-1.388-.795a2.437 2.437 0 0 1-.36-1.32c0-.615.172-1.125.502-1.523ZM3 3h1.013c.217 0 .382.03.487.083.098.052.18.127.225.224a.547.547 0 0 1-.007.54.507.507 0 0 1-.226.188c.083.03.15.06.196.09a.547.547 0 0 1 .217.465.628.628 0 0 1-.315.555.97.97 0 0 1-.48.105H3V3Zm.495.382v.526h.45c.105 0 .18-.015.233-.038a.233.233 0 0 0 .135-.225c0-.09-.03-.157-.083-.195-.053-.037-.15-.06-.285-.06-.007-.008-.45-.008-.45-.008Zm0 1.478v-.615h.465c.135 0 .225.015.285.037.105.045.157.136.157.27 0 .113-.037.196-.112.248-.06.038-.157.06-.3.06h-.495ZM5.64 3.405V3h-.442v.405h.442Zm0 1.845V3.57h-.442v1.68h.442ZM6.42 3.57v.233a.604.604 0 0 1 .143-.158.662.662 0 0 1 .397-.127c.135 0 .255.037.353.105a.435.435 0 0 1 .157.21c.03.082.045.202.045.36V5.25h-.442v-.96a.666.666 0 0 0-.03-.24.177.177 0 0 0-.09-.105.302.302 0 0 0-.165-.045.339.339 0 0 0-.188.053.26.26 0 0 0-.12.135.738.738 0 0 0-.045.3v.862h-.442V3.57h.427ZM8.925 5.25h.458a.562.562 0 0 1-.053-.173c-.007-.06-.007-.15-.007-.27v-.345c.007-.202.007-.314.007-.337 0-.127-.015-.217-.03-.27a.345.345 0 0 0-.112-.158c-.128-.105-.315-.157-.578-.157-.232 0-.412.045-.54.143-.127.09-.195.232-.21.42h.42a.3.3 0 0 1 .098-.195c.045-.038.12-.053.225-.053.195 0 .292.067.292.217 0 .068-.022.113-.067.135-.045.023-.15.046-.33.068-.21.03-.353.06-.428.09a.44.44 0 0 0-.285.435c0 .165.053.293.165.383.098.082.233.12.405.12a.735.735 0 0 0 .54-.218c0 .045.008.098.03.165Zm-.352-.728a.774.774 0 0 0 .315-.082v.18c0 .053 0 .105-.015.135l-.008.015c-.013.027-.027.057-.052.083a.387.387 0 0 1-.315.135.28.28 0 0 1-.188-.06.21.21 0 0 1-.067-.165c0-.083.03-.143.097-.18a.925.925 0 0 1 .233-.06ZM10.717 3.54v.435a.903.903 0 0 0-.172-.022.394.394 0 0 0-.367.21c-.046.075-.068.21-.068.39v.697h-.443V3.57h.428v.308c.12-.226.3-.345.525-.345.023 0 .06.007.098.007ZM11.37 3.405V3h-.442v.405h.442Zm0 1.845V3.57h-.442v1.68h.442ZM13.133 3.765a.808.808 0 0 0-.6-.24c-.27 0-.488.09-.646.263a.912.912 0 0 0-.217.622.9.9 0 0 0 .225.63c.15.173.36.255.623.255a.82.82 0 0 0 .6-.232c.165-.165.247-.383.247-.66a.899.899 0 0 0-.232-.638Zm-.908.248a.335.335 0 0 1 .285-.143c.127 0 .232.052.293.15.067.09.104.225.104.39 0 .18-.037.315-.112.412a.37.37 0 0 1-.57-.015c-.068-.09-.105-.225-.105-.397 0-.172.038-.3.105-.397Z" fill="#fff"/></svg>