<svg class="color-immutable" width="24" height="24" viewBox="0 0 24 24" fill="none" xmlns="http://www.w3.org/2000/svg"><path fill-rule="evenodd" clip-rule="evenodd" d="M22.5 0h-21C.675 0 0 .675 0 1.5v21c0 .825.675 1.5 1.5 1.5h21c.825 0 1.5-.675 1.5-1.5v-21c0-.825-.675-1.5-1.5-1.5Z" fill="#2D327D"/><path fill-rule="evenodd" clip-rule="evenodd" d="M5.13 14.963c-.525-.18-.922-.473-1.2-.885-.277-.413-.42-.908-.42-1.493 0-.975.398-1.748 1.2-2.333.705-.51 1.545-.772 2.52-.772 1.11 0 2.01.307 2.715.915.668.578.998 1.283.998 2.13 0 .592-.143 1.095-.42 1.515a2.39 2.39 0 0 1-1.2.915c.405.12.735.27.99.457.712.518 1.072 1.275 1.072 2.265 0 1.14-.435 2.056-1.312 2.73-.735.57-1.688.855-2.843.855-1.252 0-2.257-.314-3-.937-.78-.645-1.17-1.5-1.17-2.558 0-.99.345-1.755 1.028-2.302a3.051 3.051 0 0 1 1.042-.502Zm2.055.847c-.555 0-1.005.172-1.357.51-.353.337-.525.78-.525 1.313 0 .547.18.997.532 1.335.36.345.818.517 1.388.517.645 0 1.132-.188 1.455-.57.315-.367.472-.787.472-1.26 0-.54-.18-.99-.54-1.335-.345-.345-.817-.51-1.425-.51Zm-1.177-4.162c.3-.278.697-.413 1.192-.413.533 0 .945.128 1.245.39.3.262.45.63.45 1.095 0 .48-.142.855-.442 1.132-.3.278-.705.413-1.215.413-.518 0-.923-.143-1.23-.42-.308-.277-.458-.652-.458-1.118 0-.442.158-.802.458-1.08ZM20.925 18.427V16.53h-1.41V9.757h-2.078l-4.807 6.57v2.108h4.687V21h2.19v-2.573h1.418Zm-3.563-6.052v4.185h-2.894l2.895-4.185ZM5.033 3l-.75 2.25h-.555L2.993 3h.51l.502 1.688L4.515 3h.518ZM6.473 3.765a.808.808 0 0 0-.6-.24c-.27 0-.488.09-.645.263a.912.912 0 0 0-.218.622.9.9 0 0 0 .225.63c.15.173.36.255.623.255a.82.82 0 0 0 .6-.232c.165-.165.247-.383.247-.66a.899.899 0 0 0-.232-.638Zm-.908.248a.335.335 0 0 1 .285-.143c.128 0 .233.053.293.15.067.09.105.225.105.39 0 .18-.038.315-.113.413a.37.37 0 0 1-.57-.015c-.067-.09-.105-.225-.105-.398 0-.172.038-.3.105-.397ZM7.447 3.405V3h-.442v.405h.442Zm0 1.845V3.57h-.442v1.68h.442ZM9.195 4.987a.712.712 0 0 0 .128-.262h-.435a.386.386 0 0 1-.128.172.34.34 0 0 1-.202.053c-.173 0-.285-.068-.345-.218a.697.697 0 0 1-.038-.202h1.178c0-.203-.015-.368-.068-.495a.836.836 0 0 0-.225-.33.746.746 0 0 0-.517-.188c-.248 0-.45.09-.608.278a.9.9 0 0 0-.21.615c0 .12.015.247.06.36a.869.869 0 0 0 .173.277c.15.158.352.24.6.24.277 0 .487-.097.637-.3Zm-.3-.765v.008-.008Zm0 0a.662.662 0 0 0-.052-.195.327.327 0 0 0-.12-.127.348.348 0 0 0-.173-.045c-.097 0-.18.03-.247.097a.405.405 0 0 0-.113.27h.704Z" fill="#fff"/></svg>