<svg class="color-immutable" width="24" height="24" viewBox="0 0 24 24" fill="none" xmlns="http://www.w3.org/2000/svg"><path fill-rule="evenodd" clip-rule="evenodd" d="M22.5 0h-21C.675 0 0 .675 0 1.5v21c0 .825.675 1.5 1.5 1.5h21c.825 0 1.5-.675 1.5-1.5v-21c0-.825-.675-1.5-1.5-1.5Z" fill="#2D327D"/><path fill-rule="evenodd" clip-rule="evenodd" d="M5.49 18.18H3.368c.105.938.487 1.695 1.14 2.258.66.562 1.492.84 2.505.84 1.515 0 2.647-.72 3.397-2.16.578-1.103.863-2.445.863-4.013 0-1.695-.323-3.015-.975-3.952A3.95 3.95 0 0 0 8.925 9.93a3.792 3.792 0 0 0-1.777-.427c-1.043 0-1.935.337-2.678 1.012-.862.78-1.297 1.808-1.297 3.075 0 .63.12 1.223.36 1.755.24.533.57.975.997 1.313.608.48 1.328.72 2.153.72.517 0 .96-.105 1.32-.308.36-.202.712-.547 1.057-1.027a9.502 9.502 0 0 1-.225 1.47c-.157.675-.39 1.17-.682 1.492-.293.323-.675.48-1.148.48-.832 0-1.342-.435-1.515-1.305Zm.398-6.202c.33-.398.742-.593 1.222-.593.533 0 .968.218 1.298.638.315.412.472.907.472 1.5 0 .562-.157 1.042-.457 1.447-.323.428-.75.645-1.29.645-.6 0-1.058-.27-1.388-.795a2.437 2.437 0 0 1-.36-1.32c0-.615.173-1.125.503-1.522ZM19.08 10.275c-.645-.525-1.402-.787-2.257-.787-.675 0-1.29.157-1.86.487a3.642 3.642 0 0 0-1.35 1.35c-.608 1.02-.908 2.378-.908 4.073 0 2.384.585 4.064 1.74 5.047.653.555 1.44.832 2.355.832a3.47 3.47 0 0 0 1.83-.495c.548-.33.99-.794 1.328-1.402.577-1.043.862-2.37.862-3.982 0-.976-.112-1.875-.33-2.708-.292-1.088-.765-1.89-1.41-2.415Zm-3.847 2.385c.27-.848.772-1.275 1.507-1.275.758 0 1.275.428 1.553 1.275.217.66.322 1.567.322 2.715 0 1.35-.15 2.355-.45 3.008-.307.652-.765.982-1.387.982-.75 0-1.26-.42-1.538-1.267-.217-.653-.322-1.515-.322-2.595 0-1.216.105-2.168.315-2.843ZM5.033 3l-.75 2.25h-.555L2.993 3h.51l.502 1.688L4.515 3h.518ZM6.473 3.765a.808.808 0 0 0-.6-.24c-.27 0-.488.09-.645.263a.912.912 0 0 0-.218.622.9.9 0 0 0 .225.63c.15.173.36.255.623.255a.82.82 0 0 0 .6-.232c.165-.165.247-.383.247-.66a.899.899 0 0 0-.232-.638Zm-.908.248a.335.335 0 0 1 .285-.143c.128 0 .233.053.293.15.067.09.105.225.105.39 0 .18-.038.315-.113.413a.37.37 0 0 1-.57-.015c-.067-.09-.105-.225-.105-.398 0-.172.038-.3.105-.397ZM7.447 3.405V3h-.442v.405h.442Zm0 1.845V3.57h-.442v1.68h.442ZM9.195 4.987a.712.712 0 0 0 .128-.262h-.435a.386.386 0 0 1-.128.172.34.34 0 0 1-.202.053c-.173 0-.285-.068-.345-.218a.697.697 0 0 1-.038-.202h1.178c0-.203-.015-.368-.068-.495a.836.836 0 0 0-.225-.33.746.746 0 0 0-.517-.188c-.248 0-.45.09-.608.278a.9.9 0 0 0-.21.615c0 .12.015.247.06.36a.869.869 0 0 0 .173.277c.15.158.352.24.6.24.277 0 .487-.097.637-.3Zm-.352-.96a.66.66 0 0 1 .052.203l-.705-.008a.405.405 0 0 1 .113-.27.333.333 0 0 1 .247-.097c.06 0 .12.015.173.045.052.03.09.075.12.127Z" fill="#fff"/></svg>