<svg class="color-immutable" width="24" height="24" viewBox="0 0 24 24" fill="none" xmlns="http://www.w3.org/2000/svg"><path fill-rule="evenodd" clip-rule="evenodd" d="M22.5 0h-21C.675 0 0 .675 0 1.5v21c0 .825.675 1.5 1.5 1.5h21c.825 0 1.5-.675 1.5-1.5v-21c0-.825-.675-1.5-1.5-1.5Z" fill="#2D327D"/><path fill-rule="evenodd" clip-rule="evenodd" d="M8.827 7.507V21H6.135v-8.835h-3.18v-1.958c.66-.015 1.192-.082 1.612-.202.413-.12.795-.308 1.14-.57.495-.383.833-1.028 1.005-1.928h2.115ZM13.537 13.755c-.63-.218-1.11-.57-1.447-1.058-.338-.495-.503-1.087-.503-1.792 0-1.17.48-2.1 1.44-2.798.848-.615 1.86-.922 3.03-.922 1.328 0 2.415.367 3.255 1.095.803.69 1.2 1.537 1.2 2.557 0 .705-.172 1.313-.51 1.815-.337.503-.817.87-1.44 1.095.488.143.885.323 1.193.548.855.622 1.282 1.53 1.282 2.722 0 1.373-.525 2.468-1.575 3.278-.885.682-2.025 1.027-3.412 1.027-1.508 0-2.708-.375-3.6-1.125-.93-.78-1.395-1.807-1.395-3.075 0-1.185.412-2.107 1.237-2.76a3.565 3.565 0 0 1 1.245-.607Zm2.468 1.012c-.668 0-1.208.203-1.628.615-.42.413-.63.93-.63 1.575 0 .66.218 1.193.645 1.605.428.413.983.615 1.665.615.773 0 1.358-.225 1.748-.682a2.26 2.26 0 0 0 .562-1.515c0-.653-.217-1.185-.645-1.605-.42-.398-.99-.608-1.717-.608Zm-1.418-4.995c.368-.33.84-.495 1.433-.495.645 0 1.125.158 1.485.473.36.315.54.75.54 1.312 0 .57-.173 1.028-.533 1.358-.352.33-.84.495-1.455.495-.615 0-1.102-.165-1.47-.503-.367-.337-.547-.78-.547-1.342 0-.533.187-.968.547-1.298ZM5.092 4.035V5.25h-.315l-.052-.255c-.165.21-.39.307-.675.307-.345 0-.615-.127-.81-.382-.165-.21-.248-.473-.248-.788 0-.352.105-.645.323-.87.202-.21.465-.322.78-.322.292 0 .532.097.72.285a.876.876 0 0 1 .24.51h-.473a.476.476 0 0 0-.165-.285.504.504 0 0 0-.322-.105.531.531 0 0 0-.465.232c-.098.135-.143.315-.143.548 0 .225.045.397.135.532a.56.56 0 0 0 .488.24.515.515 0 0 0 .382-.142.534.534 0 0 0 .158-.368h-.503v-.36l.945.008ZM5.902 3v2.25H5.46V3h.442ZM7.65 4.987a.712.712 0 0 0 .127-.262H7.35a.386.386 0 0 1-.128.172.34.34 0 0 1-.202.053c-.173 0-.285-.068-.345-.218a.697.697 0 0 1-.038-.202h1.17c0-.203-.015-.368-.067-.495a.836.836 0 0 0-.225-.33.746.746 0 0 0-.518-.188c-.247 0-.45.09-.607.278a.9.9 0 0 0-.21.615c0 .12.015.247.06.36a.869.869 0 0 0 .172.277c.15.158.353.24.6.24.278 0 .488-.097.638-.3Zm-.36-.96a.66.66 0 0 1 .052.203l-.705-.008a.405.405 0 0 1 .113-.27.333.333 0 0 1 .247-.097c.06 0 .12.015.173.045.052.03.09.075.12.127ZM8.527 3.405V3h-.442v.405h.442Zm0 1.845V3.57h-.442v1.68h.442ZM10.245 4.057h-.42a.253.253 0 0 0-.045-.127c-.045-.06-.135-.09-.255-.09-.083 0-.143.015-.18.045-.038.03-.068.067-.068.12 0 .052.023.097.075.12.053.022.158.052.33.09.218.045.375.097.466.165.112.075.172.195.172.352 0 .18-.068.315-.21.42-.135.098-.323.143-.548.143-.277 0-.487-.068-.615-.21a.629.629 0 0 1-.15-.383h.428c.007.075.03.135.06.173.06.067.15.105.285.105.09 0 .165-.015.217-.053a.182.182 0 0 0 .083-.15.139.139 0 0 0-.068-.127 1.145 1.145 0 0 0-.292-.098c-.143-.037-.248-.06-.308-.082a3.728 3.728 0 0 1-.165-.068.344.344 0 0 1-.142-.15.516.516 0 0 1-.053-.217c0-.173.075-.308.218-.398.12-.075.285-.112.495-.112.277 0 .48.067.6.21a.717.717 0 0 1 .09.322Z" fill="#fff"/></svg>