<svg class="color-immutable" width="24" height="24" viewBox="0 0 24 24" fill="none" xmlns="http://www.w3.org/2000/svg"><path fill-rule="evenodd" clip-rule="evenodd" d="M22.5 0h-21C.675 0 0 .675 0 1.5v21c0 .825.675 1.5 1.5 1.5h21c.825 0 1.5-.675 1.5-1.5v-21c0-.825-.675-1.5-1.5-1.5Z" fill="#2D327D"/><path fill-rule="evenodd" clip-rule="evenodd" d="M8.827 7.507V21H6.135v-8.835h-3.18v-1.958c.66-.015 1.192-.082 1.612-.202.413-.12.795-.308 1.14-.57.495-.383.833-1.028 1.005-1.928h2.115ZM13.537 13.755c-.63-.217-1.11-.57-1.447-1.057-.338-.495-.503-1.088-.503-1.793 0-1.17.48-2.1 1.44-2.797.848-.615 1.86-.923 3.03-.923 1.328 0 2.415.368 3.255 1.095.803.69 1.2 1.538 1.2 2.558 0 .705-.172 1.312-.51 1.815-.337.502-.817.87-1.44 1.095.488.142.885.322 1.193.547.855.623 1.282 1.53 1.282 2.723 0 1.372-.525 2.467-1.575 3.277-.885.683-2.025 1.028-3.412 1.028-1.508 0-2.708-.375-3.6-1.125-.93-.78-1.395-1.808-1.395-3.075 0-1.185.412-2.108 1.237-2.76a3.565 3.565 0 0 1 1.245-.608Zm2.468 1.013c-.668 0-1.208.202-1.628.615-.42.412-.63.93-.63 1.575 0 .66.218 1.192.645 1.605.428.412.983.615 1.665.615.773 0 1.358-.225 1.748-.683a2.26 2.26 0 0 0 .562-1.515c0-.652-.217-1.185-.645-1.605-.42-.397-.99-.607-1.717-.607Zm-1.418-4.995c.368-.33.84-.495 1.433-.495.645 0 1.125.157 1.485.472.36.315.54.75.54 1.313 0 .57-.173 1.027-.533 1.357-.352.33-.84.495-1.455.495-.615 0-1.102-.165-1.47-.502-.367-.338-.547-.78-.547-1.343 0-.532.187-.967.547-1.297ZM3 3h1.013c.217 0 .382.03.487.083.098.052.18.127.225.224a.547.547 0 0 1-.007.54.507.507 0 0 1-.226.188c.083.03.15.06.196.09a.547.547 0 0 1 .217.465.628.628 0 0 1-.315.555.97.97 0 0 1-.48.105H3V3Zm.495.382v.526h.45c.105 0 .18-.015.233-.038a.233.233 0 0 0 .135-.225c0-.09-.03-.157-.083-.195-.053-.037-.15-.06-.285-.06-.007-.008-.45-.008-.45-.008Zm0 1.478v-.615h.465c.135 0 .225.015.285.037.105.045.157.136.157.27 0 .113-.037.196-.112.248-.06.038-.157.06-.3.06h-.495ZM5.64 3.405V3h-.442v.405h.442Zm0 1.845V3.57h-.442v1.68h.442ZM6.42 3.57v.232a.604.604 0 0 1 .142-.157.662.662 0 0 1 .398-.128c.135 0 .255.038.352.105a.435.435 0 0 1 .158.21c.03.083.045.203.045.36V5.25h-.443v-.96a.666.666 0 0 0-.03-.24.177.177 0 0 0-.09-.105.302.302 0 0 0-.165-.045.339.339 0 0 0-.187.052.26.26 0 0 0-.12.135.738.738 0 0 0-.045.3v.863h-.443V3.57h.428ZM8.925 5.25h.457a.562.562 0 0 1-.052-.172c-.008-.06-.008-.15-.008-.27v-.345c.008-.203.008-.315.008-.338 0-.127-.015-.217-.03-.27a.345.345 0 0 0-.113-.157c-.127-.105-.315-.158-.577-.158-.233 0-.413.045-.54.143-.128.09-.195.232-.21.42h.42a.3.3 0 0 1 .097-.195c.045-.038.12-.053.225-.053.195 0 .293.068.293.218 0 .067-.023.112-.068.135-.045.022-.15.045-.33.067-.21.03-.352.06-.427.09a.44.44 0 0 0-.285.435c0 .165.052.293.165.383.097.082.232.12.405.12a.735.735 0 0 0 .54-.218c0 .045.007.098.03.165Zm-.353-.727a.774.774 0 0 0 .315-.083v.18c0 .053 0 .105-.015.135l-.007.015a.387.387 0 0 1-.368.217.28.28 0 0 1-.187-.06.21.21 0 0 1-.068-.164c0-.083.03-.143.098-.18a.925.925 0 0 1 .232-.06ZM10.717 3.54v.435a.903.903 0 0 0-.172-.023.394.394 0 0 0-.367.21c-.046.075-.068.21-.068.39v.698h-.443V3.57h.428v.307c.12-.225.3-.345.525-.345.023 0 .06.008.098.008ZM11.37 3.405V3h-.442v.405h.442Zm0 1.845V3.57h-.442v1.68h.442ZM13.132 3.765a.808.808 0 0 0-.6-.24c-.27 0-.487.09-.645.263a.912.912 0 0 0-.217.622.9.9 0 0 0 .225.63c.15.173.36.255.622.255a.82.82 0 0 0 .6-.232c.165-.165.248-.383.248-.66a.899.899 0 0 0-.233-.638Zm-.907.248a.335.335 0 0 1 .285-.143c.127 0 .232.053.292.15.068.09.105.225.105.39 0 .18-.037.315-.112.413a.37.37 0 0 1-.57-.015c-.068-.09-.105-.225-.105-.398 0-.172.037-.3.105-.397Z" fill="#fff"/></svg>