<svg class="color-immutable" width="24" height="24" viewBox="0 0 24 24" fill="none" xmlns="http://www.w3.org/2000/svg"><path fill-rule="evenodd" clip-rule="evenodd" d="M22.5 0h-21C.675 0 0 .675 0 1.5v21c0 .825.675 1.5 1.5 1.5h21c.825 0 1.5-.675 1.5-1.5v-21c0-.825-.675-1.5-1.5-1.5Z" fill="#2D327D"/><path fill-rule="evenodd" clip-rule="evenodd" d="M11.273 19.005V21h-8.1c0-.608.097-1.192.292-1.747a4.236 4.236 0 0 1 .833-1.433c.277-.308.6-.608.975-.9.375-.293 1.11-.825 2.22-1.605.54-.375.915-.72 1.132-1.042.218-.323.323-.698.323-1.125 0-.495-.143-.893-.435-1.193-.293-.307-.668-.457-1.14-.457-1.155 0-1.755.832-1.793 2.497H3.42v-.247c0-1.365.383-2.423 1.148-3.165.742-.728 1.702-1.096 2.887-1.096 1.043 0 1.92.3 2.625.893.765.645 1.148 1.515 1.148 2.61 0 .953-.308 1.777-.915 2.46-.203.225-.39.405-.563.54-.172.135-.63.465-1.38.982-.705.495-1.215.87-1.522 1.133a6.066 6.066 0 0 0-.848.9h5.273ZM14.678 14.963c-.525-.18-.923-.473-1.2-.885-.278-.413-.42-.908-.42-1.493 0-.975.397-1.748 1.2-2.333.705-.51 1.545-.772 2.52-.772 1.11 0 2.01.307 2.715.915.667.578.997 1.283.997 2.13 0 .592-.142 1.095-.42 1.515a2.39 2.39 0 0 1-1.2.915c.405.12.735.27.99.457.713.518 1.073 1.275 1.073 2.265 0 1.14-.435 2.056-1.313 2.73-.735.57-1.687.855-2.842.855-1.253 0-2.258-.314-3-.937-.773-.652-1.163-1.508-1.163-2.558 0-.99.345-1.755 1.028-2.302a2.89 2.89 0 0 1 1.035-.502Zm2.055.847c-.555 0-1.005.172-1.358.51-.352.337-.525.78-.525 1.313 0 .547.18.997.533 1.335.36.345.817.517 1.387.517.645 0 1.133-.188 1.455-.57.315-.367.473-.787.473-1.26 0-.54-.18-.99-.54-1.335-.353-.338-.825-.51-1.425-.51Zm-1.178-4.162c.3-.278.698-.413 1.193-.413.532 0 .945.128 1.245.39.3.262.45.63.45 1.095 0 .48-.143.855-.443 1.132-.3.278-.705.413-1.215.413-.517 0-.922-.143-1.23-.42-.307-.277-.457-.652-.457-1.118 0-.442.157-.802.457-1.08ZM5.093 4.035V5.25h-.315l-.053-.255c-.165.21-.39.308-.675.308-.345 0-.615-.128-.81-.383-.165-.21-.247-.473-.247-.787 0-.353.105-.645.322-.87.203-.21.465-.323.78-.323.293 0 .533.098.72.285a.876.876 0 0 1 .24.51h-.472a.476.476 0 0 0-.165-.285.504.504 0 0 0-.323-.105.531.531 0 0 0-.465.232c-.097.136-.142.316-.142.548 0 .225.045.397.135.532a.56.56 0 0 0 .487.24.515.515 0 0 0 .383-.142.534.534 0 0 0 .157-.367h-.502v-.36l.945.007ZM5.903 3v2.25H5.46V3h.443ZM7.65 4.988a.712.712 0 0 0 .128-.263H7.35a.386.386 0 0 1-.127.173.34.34 0 0 1-.203.052c-.172 0-.285-.067-.345-.217a.697.697 0 0 1-.037-.203h1.17c0-.202-.015-.367-.068-.495a.836.836 0 0 0-.225-.33.746.746 0 0 0-.517-.187c-.248 0-.45.09-.608.277a.9.9 0 0 0-.21.615c0 .12.015.248.06.36a.869.869 0 0 0 .173.278c.15.157.352.24.6.24.277 0 .487-.098.637-.3Zm-.308-.765v.007-.007Zm0 0a.662.662 0 0 0-.052-.195.327.327 0 0 0-.12-.128.348.348 0 0 0-.172-.045c-.098 0-.18.03-.248.098a.405.405 0 0 0-.112.27h.704ZM8.528 3.405V3h-.443v.405h.443Zm0 1.845V3.57h-.443v1.68h.443ZM10.245 4.058h-.42a.253.253 0 0 0-.045-.128c-.045-.06-.135-.09-.255-.09-.082 0-.142.015-.18.045-.037.03-.067.068-.067.12 0 .053.022.098.075.12.052.023.157.053.33.09.217.045.375.098.465.165.112.075.172.195.172.353 0 .18-.067.315-.21.42-.135.097-.322.142-.547.142-.278 0-.488-.067-.615-.21a.63.63 0 0 1-.15-.382h.427c.008.075.03.135.06.172.06.068.15.105.285.105.09 0 .165-.015.218-.052a.182.182 0 0 0 .082-.15.139.139 0 0 0-.067-.128 1.145 1.145 0 0 0-.293-.097c-.142-.038-.247-.06-.307-.083a3.704 3.704 0 0 1-.165-.067.344.344 0 0 1-.143-.15.516.516 0 0 1-.052-.218c0-.172.075-.307.217-.397.12-.075.285-.113.495-.113.278 0 .48.068.6.21a.717.717 0 0 1 .09.323Z" fill="#fff"/></svg>