<svg class="color-immutable" width="24" height="24" viewBox="0 0 24 24" fill="none" xmlns="http://www.w3.org/2000/svg"><path fill-rule="evenodd" clip-rule="evenodd" d="M22.5 0h-21C.675 0 0 .675 0 1.5v21c0 .825.675 1.5 1.5 1.5h21c.825 0 1.5-.675 1.5-1.5v-21c0-.825-.675-1.5-1.5-1.5Z" fill="#2D327D"/><path fill-rule="evenodd" clip-rule="evenodd" d="M10.995 9.757v1.905c-.06.068-.24.278-.547.623-.42.48-.84 1.087-1.253 1.822a12.881 12.881 0 0 0-.968 2.1c-.487 1.403-.78 3-.885 4.793H5.017c.015-.848.165-1.785.443-2.813a18.47 18.47 0 0 1 1.155-3.09c.705-1.455 1.417-2.542 2.137-3.255H3.45V9.757h7.545ZM20.543 9.757v1.905c-.06.068-.24.278-.548.623-.42.48-.84 1.087-1.253 1.822a12.881 12.881 0 0 0-.967 2.1c-.487 1.403-.78 3-.885 4.793h-2.325c.015-.848.165-1.785.443-2.813a18.47 18.47 0 0 1 1.155-3.09c.704-1.455 1.417-2.542 2.137-3.255h-5.31V9.757h7.553ZM3 3h1.013c.217 0 .382.03.487.083.098.052.18.127.225.224a.547.547 0 0 1-.007.54.507.507 0 0 1-.226.188c.083.03.15.06.196.09a.547.547 0 0 1 .217.465.628.628 0 0 1-.315.555.97.97 0 0 1-.48.105H3V3Zm.495.382v.526h.45c.105 0 .18-.015.233-.038a.233.233 0 0 0 .135-.225c0-.09-.03-.157-.083-.195-.053-.037-.15-.06-.285-.06-.007-.008-.45-.008-.45-.008Zm0 1.478v-.615h.465c.135 0 .225.015.285.037.105.045.157.136.157.27 0 .113-.037.196-.112.248-.06.038-.157.06-.3.06h-.495ZM5.64 3.405V3h-.442v.405h.442Zm0 1.845V3.57h-.442v1.68h.442ZM6.42 3.57v.232a.604.604 0 0 1 .143-.157.662.662 0 0 1 .397-.128c.135 0 .255.038.353.105a.435.435 0 0 1 .157.21c.03.083.045.203.045.36V5.25h-.442v-.96a.666.666 0 0 0-.03-.24.177.177 0 0 0-.09-.105.302.302 0 0 0-.165-.045.339.339 0 0 0-.188.052.26.26 0 0 0-.12.135.738.738 0 0 0-.045.3v.863h-.442V3.57h.427ZM8.925 5.25h.458a.562.562 0 0 1-.053-.172c-.007-.06-.007-.15-.007-.27v-.345c.007-.203.007-.315.007-.338 0-.127-.015-.217-.03-.27a.345.345 0 0 0-.112-.157c-.128-.105-.315-.158-.578-.158-.232 0-.412.045-.54.143-.127.09-.195.232-.21.42h.42a.3.3 0 0 1 .098-.195c.045-.038.12-.053.225-.053.195 0 .292.068.292.218 0 .067-.022.112-.067.135-.045.022-.15.045-.33.067-.21.03-.353.06-.428.09a.44.44 0 0 0-.285.435c0 .165.053.293.165.383.098.082.233.12.405.12a.735.735 0 0 0 .54-.218c0 .045.008.098.03.165Zm-.352-.727a.774.774 0 0 0 .315-.083v.18c0 .053 0 .105-.015.135l-.008.015c-.013.027-.027.057-.052.083a.387.387 0 0 1-.315.135.28.28 0 0 1-.188-.06.21.21 0 0 1-.067-.165c0-.083.03-.143.097-.18a.925.925 0 0 1 .233-.06ZM10.717 3.54v.435a.903.903 0 0 0-.172-.023.394.394 0 0 0-.367.21c-.046.075-.068.21-.068.39v.698h-.443V3.57h.428v.307c.12-.225.3-.345.525-.345.023 0 .06.008.098.008ZM11.37 3.405V3h-.442v.405h.442Zm0 1.845V3.57h-.442v1.68h.442ZM13.133 3.765a.808.808 0 0 0-.6-.24c-.27 0-.488.09-.646.263a.912.912 0 0 0-.217.622.9.9 0 0 0 .225.63c.15.173.36.255.623.255a.82.82 0 0 0 .6-.232c.165-.165.247-.383.247-.66a.899.899 0 0 0-.232-.638Zm-.908.248a.335.335 0 0 1 .285-.143c.127 0 .232.053.293.15.067.09.104.225.104.39 0 .18-.037.315-.112.413a.37.37 0 0 1-.57-.015c-.068-.09-.105-.225-.105-.398 0-.172.038-.3.105-.397Z" fill="#fff"/></svg>