<svg class="color-immutable" width="24" height="24" viewBox="0 0 24 24" fill="none" xmlns="http://www.w3.org/2000/svg"><path fill-rule="evenodd" clip-rule="evenodd" d="M22.5 0h-21C.675 0 0 .675 0 1.5v21c0 .825.675 1.5 1.5 1.5h21c.825 0 1.5-.675 1.5-1.5v-21c0-.825-.675-1.5-1.5-1.5Z" fill="#2D327D"/><path fill-rule="evenodd" clip-rule="evenodd" d="M9.488 13.755c-.63-.217-1.11-.57-1.448-1.057-.337-.495-.502-1.088-.502-1.793 0-1.17.48-2.1 1.44-2.797.847-.615 1.86-.923 3.03-.923 1.327 0 2.415.368 3.255 1.095.802.69 1.2 1.538 1.2 2.558 0 .705-.173 1.312-.51 1.815-.338.502-.818.87-1.44 1.095.487.142.885.322 1.192.547.855.623 1.283 1.53 1.283 2.723 0 1.372-.526 2.467-1.575 3.277-.886.683-2.026 1.028-3.413 1.028-1.508 0-2.707-.375-3.6-1.125-.93-.78-1.395-1.808-1.395-3.075 0-1.185.413-2.108 1.237-2.76a3.502 3.502 0 0 1 1.246-.608Zm2.46 1.013c-.668 0-1.208.202-1.628.615-.42.412-.63.93-.63 1.575 0 .66.21 1.192.645 1.605.427.412.982.615 1.665.615.773 0 1.357-.225 1.748-.683a2.26 2.26 0 0 0 .562-1.515c0-.652-.218-1.185-.645-1.605-.42-.397-.99-.607-1.717-.607Zm-1.41-4.995c.367-.33.84-.495 1.432-.495.637 0 1.125.157 1.485.472.36.315.54.75.54 1.313 0 .57-.172 1.027-.532 1.357-.353.33-.84.495-1.455.495-.615 0-1.103-.165-1.47-.502-.368-.338-.548-.78-.548-1.343 0-.532.188-.967.547-1.297ZM5.033 3l-.75 2.25h-.555L2.993 3h.51l.502 1.688L4.515 3h.518ZM6.473 3.765a.808.808 0 0 0-.6-.24c-.27 0-.488.09-.645.263a.912.912 0 0 0-.218.622.9.9 0 0 0 .225.63c.15.173.36.255.623.255a.82.82 0 0 0 .6-.232c.165-.165.247-.383.247-.66a.899.899 0 0 0-.232-.638Zm-.908.248a.335.335 0 0 1 .285-.143c.128 0 .233.053.293.15.067.09.105.225.105.39 0 .18-.038.315-.113.413a.37.37 0 0 1-.57-.015c-.067-.09-.105-.225-.105-.398 0-.172.038-.3.105-.397ZM7.447 3.405V3h-.442v.405h.442Zm0 1.845V3.57h-.442v1.68h.442ZM9.195 4.987a.712.712 0 0 0 .128-.262h-.435a.386.386 0 0 1-.128.172.34.34 0 0 1-.202.053c-.173 0-.285-.068-.345-.218a.697.697 0 0 1-.038-.202h1.178c0-.203-.015-.368-.068-.495a.836.836 0 0 0-.225-.33.746.746 0 0 0-.517-.188c-.248 0-.45.09-.608.278a.9.9 0 0 0-.21.615c0 .12.015.247.06.36a.869.869 0 0 0 .173.277c.15.158.352.24.6.24.277 0 .487-.097.637-.3Zm-.3-.765v.008-.008Zm0 0a.662.662 0 0 0-.052-.195.327.327 0 0 0-.12-.127.348.348 0 0 0-.173-.045c-.097 0-.18.03-.247.097a.405.405 0 0 0-.113.27h.704Z" fill="#fff"/></svg>