<svg class="color-immutable" width="24" height="24" viewBox="0 0 24 24" fill="none" xmlns="http://www.w3.org/2000/svg"><path fill-rule="evenodd" clip-rule="evenodd" d="M22.5 0h-21C.675 0 0 .675 0 1.5v21c0 .825.675 1.5 1.5 1.5h21c.825 0 1.5-.675 1.5-1.5v-21c0-.825-.675-1.5-1.5-1.5Z" fill="#2D327D"/><path fill-rule="evenodd" clip-rule="evenodd" d="M8.19 13.32c.023-.922.255-1.695.683-2.325.697-1.005 1.747-1.507 3.142-1.507 1.08 0 1.943.277 2.61.825.713.592 1.073 1.364 1.073 2.31 0 .562-.143 1.05-.42 1.455-.278.405-.66.682-1.133.825a2.34 2.34 0 0 1 1.433.922c.352.48.525 1.05.525 1.733 0 1.11-.413 2.024-1.23 2.73-.758.66-1.718.982-2.873.982-1.252 0-2.25-.36-2.985-1.087-.735-.72-1.102-1.703-1.102-2.933v-.142h2.16c0 .69.165 1.23.495 1.604.33.375.795.563 1.395.563s1.057-.18 1.387-.532c.3-.33.443-.728.443-1.193 0-.555-.188-.99-.57-1.313-.315-.27-.795-.397-1.448-.397-.187 0-.367.008-.547.03v-1.65c.135.007.262.015.382.015 1.29 0 1.935-.48 1.935-1.44 0-.42-.142-.758-.42-1.02-.285-.263-.652-.39-1.117-.39-.525 0-.938.165-1.223.495-.285.33-.442.81-.465 1.44H8.19ZM5.033 3l-.75 2.25h-.555L2.993 3h.51l.502 1.688L4.515 3h.518ZM6.473 3.765a.808.808 0 0 0-.6-.24c-.27 0-.488.09-.645.262a.912.912 0 0 0-.218.623.9.9 0 0 0 .225.63c.15.172.36.255.623.255a.82.82 0 0 0 .6-.233c.165-.165.247-.382.247-.66a.899.899 0 0 0-.232-.637Zm-.908.247a.335.335 0 0 1 .285-.142c.128 0 .233.052.293.15.067.09.105.225.105.39 0 .18-.038.315-.113.412a.37.37 0 0 1-.57-.015c-.067-.09-.105-.225-.105-.397 0-.173.038-.3.105-.398ZM7.447 3.405V3h-.442v.405h.442Zm0 1.845V3.57h-.442v1.68h.442ZM9.195 4.988a.712.712 0 0 0 .128-.263h-.435a.386.386 0 0 1-.128.173.34.34 0 0 1-.202.052c-.173 0-.285-.067-.345-.217a.697.697 0 0 1-.038-.203h1.178c0-.202-.015-.367-.068-.495a.836.836 0 0 0-.225-.33.746.746 0 0 0-.517-.187c-.248 0-.45.09-.608.277a.9.9 0 0 0-.21.615c0 .12.015.248.06.36a.869.869 0 0 0 .173.278c.15.157.352.24.6.24.277 0 .487-.098.637-.3Zm-.3-.765v.007-.007Zm0 0a.662.662 0 0 0-.052-.195.327.327 0 0 0-.12-.128.348.348 0 0 0-.173-.045c-.097 0-.18.03-.247.098a.405.405 0 0 0-.113.27h.704Z" fill="#fff"/></svg>