<svg class="color-immutable" width="24" height="24" viewBox="0 0 24 24" fill="none" xmlns="http://www.w3.org/2000/svg"><path fill-rule="evenodd" clip-rule="evenodd" d="M22.5 0h-21C.675 0 0 .675 0 1.5v21c0 .825.675 1.5 1.5 1.5h21c.825 0 1.5-.675 1.5-1.5v-21c0-.825-.675-1.5-1.5-1.5Z" fill="#2D327D"/><path fill-rule="evenodd" clip-rule="evenodd" d="M8.827 7.507V21H6.135v-8.835h-3.18v-1.958c.66-.015 1.192-.082 1.612-.202.413-.12.795-.308 1.14-.57.495-.383.833-1.028 1.005-1.928h2.115ZM13.537 13.755c-.63-.217-1.11-.57-1.447-1.057-.338-.495-.503-1.088-.503-1.793 0-1.17.48-2.1 1.44-2.797.848-.615 1.86-.923 3.03-.923 1.328 0 2.415.368 3.255 1.095.803.69 1.2 1.538 1.2 2.558 0 .705-.172 1.312-.51 1.815-.337.502-.817.87-1.44 1.095.488.142.885.322 1.193.547.855.623 1.282 1.53 1.282 2.723 0 1.372-.525 2.467-1.575 3.277-.885.683-2.025 1.028-3.412 1.028-1.508 0-2.708-.375-3.6-1.125-.93-.78-1.395-1.808-1.395-3.075 0-1.185.412-2.108 1.237-2.76a3.565 3.565 0 0 1 1.245-.608Zm2.468 1.013c-.668 0-1.208.202-1.628.615-.42.412-.63.93-.63 1.575 0 .66.218 1.192.645 1.605.428.412.983.615 1.665.615.773 0 1.358-.225 1.748-.683a2.26 2.26 0 0 0 .562-1.515c0-.652-.217-1.185-.645-1.605-.42-.397-.99-.607-1.717-.607Zm-1.418-4.995c.368-.33.84-.495 1.433-.495.645 0 1.125.157 1.485.472.36.315.54.75.54 1.313 0 .57-.173 1.027-.533 1.357-.352.33-.84.495-1.455.495-.615 0-1.102-.165-1.47-.502-.367-.338-.547-.78-.547-1.343 0-.532.187-.967.547-1.297ZM5.032 3l-.75 2.25h-.555L2.992 3h.51l.503 1.688L4.515 3h.517ZM6.473 3.765a.808.808 0 0 0-.6-.24c-.27 0-.488.09-.645.263a.912.912 0 0 0-.218.622.9.9 0 0 0 .225.63c.15.173.36.255.623.255a.82.82 0 0 0 .6-.232c.165-.165.247-.383.247-.66a.899.899 0 0 0-.232-.638Zm-.908.248a.335.335 0 0 1 .285-.143c.128 0 .233.053.293.15.067.09.105.225.105.39 0 .18-.038.315-.113.413a.37.37 0 0 1-.57-.015c-.067-.09-.105-.225-.105-.398 0-.172.038-.3.105-.397ZM7.447 3.405V3h-.442v.405h.442Zm0 1.845V3.57h-.442v1.68h.442ZM9.195 4.987a.712.712 0 0 0 .127-.262h-.435a.386.386 0 0 1-.127.172.34.34 0 0 1-.203.053c-.172 0-.285-.068-.345-.218a.697.697 0 0 1-.037-.202h1.177c0-.203-.015-.368-.067-.495a.836.836 0 0 0-.225-.33.746.746 0 0 0-.518-.188c-.247 0-.45.09-.607.278a.9.9 0 0 0-.21.615c0 .12.015.247.06.36a.869.869 0 0 0 .172.277c.15.158.353.24.6.24.278 0 .488-.097.638-.3Zm-.3-.765v.008-.008Zm0 0a.663.663 0 0 0-.053-.195.327.327 0 0 0-.12-.127.348.348 0 0 0-.172-.045c-.098 0-.18.03-.248.097a.405.405 0 0 0-.112.27h.704Z" fill="#fff"/></svg>