<svg class="color-immutable" width="24" height="24" viewBox="0 0 24 24" fill="none" xmlns="http://www.w3.org/2000/svg"><path fill-rule="evenodd" clip-rule="evenodd" d="M22.5 0h-21C.675 0 0 .675 0 1.5v21c0 .825.675 1.5 1.5 1.5h21c.825 0 1.5-.675 1.5-1.5v-21c0-.825-.675-1.5-1.5-1.5Z" fill="#2D327D"/><path fill-rule="evenodd" clip-rule="evenodd" d="M5.13 14.963c-.525-.18-.922-.473-1.2-.885-.277-.413-.42-.908-.42-1.493 0-.975.398-1.748 1.2-2.333.705-.51 1.545-.772 2.52-.772 1.11 0 2.01.307 2.715.915.668.578.998 1.283.998 2.13 0 .592-.143 1.095-.42 1.515a2.39 2.39 0 0 1-1.2.915c.405.12.735.27.99.457.712.518 1.072 1.275 1.072 2.265 0 1.14-.435 2.056-1.312 2.73-.735.57-1.688.855-2.843.855-1.252 0-2.257-.314-3-.937-.78-.645-1.17-1.5-1.17-2.55 0-.99.345-1.755 1.028-2.302.315-.24.66-.413 1.042-.51Zm2.055.847c-.555 0-1.005.172-1.357.51-.353.337-.525.78-.525 1.313 0 .547.18.997.532 1.335.36.345.818.517 1.388.517.645 0 1.132-.188 1.455-.57.315-.367.472-.787.472-1.26 0-.54-.18-.99-.54-1.335-.352-.338-.825-.51-1.425-.51Zm-1.177-4.162c.3-.278.697-.413 1.192-.413.533 0 .945.128 1.245.39.3.262.45.63.45 1.095 0 .48-.142.855-.442 1.132-.3.278-.705.413-1.215.413-.518 0-.923-.143-1.23-.42-.308-.277-.458-.652-.458-1.118 0-.442.158-.802.458-1.08ZM20.258 9.758v2.002h-4.53l-.488 2.527c.54-.577 1.238-.862 2.085-.862.833 0 1.553.225 2.168.667.915.675 1.372 1.695 1.372 3.06 0 1.343-.487 2.408-1.462 3.195-.758.615-1.665.923-2.723.923-1.192 0-2.145-.322-2.865-.96-.72-.637-1.102-1.5-1.147-2.587h2.205c.037.397.165.727.382 1.005.345.434.818.652 1.433.652.592 0 1.057-.21 1.402-.637.33-.413.503-.923.503-1.515 0-.646-.173-1.163-.525-1.553-.345-.39-.81-.578-1.395-.578-.705 0-1.26.316-1.65.953l-2.01-.03 1.072-6.27 6.173.008ZM5.093 4.035V5.25h-.315l-.053-.255c-.165.21-.39.307-.675.307-.345 0-.615-.127-.81-.382-.165-.21-.247-.473-.247-.788 0-.352.105-.645.322-.87.203-.21.465-.322.78-.322.293 0 .533.097.72.285a.876.876 0 0 1 .24.51h-.472a.476.476 0 0 0-.165-.285.504.504 0 0 0-.323-.105.531.531 0 0 0-.465.232c-.097.135-.142.315-.142.548 0 .225.045.397.135.532a.56.56 0 0 0 .487.24.515.515 0 0 0 .383-.142.534.534 0 0 0 .157-.368h-.502v-.36l.945.008ZM5.903 3v2.25H5.46V3h.443ZM7.65 4.987a.712.712 0 0 0 .128-.262H7.35a.386.386 0 0 1-.127.172.34.34 0 0 1-.203.053c-.172 0-.285-.068-.345-.218a.697.697 0 0 1-.037-.202h1.17c0-.203-.015-.368-.068-.495a.836.836 0 0 0-.225-.33.746.746 0 0 0-.517-.188c-.248 0-.45.09-.608.278a.9.9 0 0 0-.21.615c0 .12.015.247.06.36a.869.869 0 0 0 .173.277c.15.158.352.24.6.24.277 0 .487-.097.637-.3Zm-.308-.765v.008-.008Zm0 0a.662.662 0 0 0-.052-.195.327.327 0 0 0-.12-.127.348.348 0 0 0-.172-.045c-.098 0-.18.03-.248.097a.405.405 0 0 0-.112.27h.704ZM8.528 3.405V3h-.443v.405h.443Zm0 1.845V3.57h-.443v1.68h.443ZM10.245 4.057h-.42a.253.253 0 0 0-.045-.127c-.045-.06-.135-.09-.255-.09-.082 0-.142.015-.18.045-.037.03-.067.067-.067.12 0 .052.022.097.075.12.052.022.157.052.33.09.217.045.375.097.465.165.112.075.172.195.172.352 0 .18-.067.315-.21.42-.135.098-.322.143-.547.143-.278 0-.488-.068-.615-.21a.63.63 0 0 1-.15-.383h.427c.008.075.03.135.06.173.06.067.15.105.285.105.09 0 .165-.015.218-.053a.182.182 0 0 0 .082-.15.139.139 0 0 0-.067-.127 1.145 1.145 0 0 0-.293-.098c-.142-.037-.247-.06-.307-.082a3.728 3.728 0 0 1-.165-.068.344.344 0 0 1-.143-.15.516.516 0 0 1-.052-.217c0-.173.075-.308.217-.398.12-.075.285-.112.495-.112.278 0 .48.067.6.21a.717.717 0 0 1 .09.322Z" fill="#fff"/></svg>