<svg class="color-immutable" width="24" height="24" viewBox="0 0 24 24" fill="none" xmlns="http://www.w3.org/2000/svg"><path fill-rule="evenodd" clip-rule="evenodd" d="M22.5 0h-21C.675 0 0 .675 0 1.5v21c0 .825.675 1.5 1.5 1.5h21c.825 0 1.5-.675 1.5-1.5v-21c0-.825-.675-1.5-1.5-1.5Z" fill="#2D327D"/><path fill-rule="evenodd" clip-rule="evenodd" d="M10.995 9.757v1.905c-.06.068-.24.278-.547.623-.42.48-.84 1.087-1.253 1.822a12.881 12.881 0 0 0-.967 2.1c-.488 1.403-.78 3-.885 4.793H5.018c.015-.848.165-1.785.442-2.813a18.47 18.47 0 0 1 1.155-3.09c.705-1.455 1.418-2.542 2.138-3.255H3.458V9.757h7.537ZM14.678 14.963c-.526-.18-.923-.473-1.2-.885-.278-.413-.42-.908-.42-1.493 0-.975.397-1.748 1.2-2.333.705-.51 1.545-.772 2.52-.772 1.11 0 2.01.307 2.715.915.667.578.997 1.283.997 2.13 0 .592-.142 1.095-.42 1.515a2.39 2.39 0 0 1-1.2.915c.405.12.735.27.99.457.713.518 1.073 1.275 1.073 2.265 0 1.14-.436 2.056-1.313 2.73-.735.57-1.688.855-2.843.855-1.252 0-2.257-.314-3-.937-.772-.652-1.162-1.508-1.162-2.558 0-.99.345-1.755 1.027-2.302a2.89 2.89 0 0 1 1.036-.502Zm2.055.847c-.556 0-1.006.172-1.358.51-.352.337-.525.78-.525 1.313 0 .547.18.997.533 1.335.36.345.817.517 1.387.517.645 0 1.133-.188 1.455-.57.315-.367.473-.787.473-1.26 0-.54-.18-.99-.54-1.335-.346-.345-.826-.51-1.425-.51Zm-1.178-4.162c.3-.278.698-.413 1.192-.413.533 0 .953.128 1.245.39.3.262.45.63.45 1.095 0 .48-.142.855-.442 1.132-.3.278-.705.413-1.215.413-.518 0-.922-.143-1.23-.42-.307-.277-.457-.652-.457-1.118 0-.442.157-.802.457-1.08ZM5.033 3l-.75 2.25h-.555L2.993 3h.51l.502 1.688L4.515 3h.518ZM6.473 3.765a.808.808 0 0 0-.6-.24c-.27 0-.488.09-.645.263a.912.912 0 0 0-.218.622.9.9 0 0 0 .225.63c.15.173.36.255.623.255a.82.82 0 0 0 .6-.232c.165-.165.247-.383.247-.66a.899.899 0 0 0-.232-.638Zm-.908.248a.335.335 0 0 1 .285-.143c.128 0 .233.053.293.15.067.09.105.225.105.39 0 .18-.038.315-.113.413a.37.37 0 0 1-.57-.015c-.067-.09-.105-.225-.105-.398 0-.172.038-.3.105-.397ZM7.447 3.405V3h-.442v.405h.442Zm0 1.845V3.57h-.442v1.68h.442ZM9.195 4.987a.712.712 0 0 0 .128-.262h-.435a.386.386 0 0 1-.128.172.34.34 0 0 1-.202.053c-.173 0-.285-.068-.345-.218a.697.697 0 0 1-.038-.202h1.178c0-.203-.015-.368-.068-.495a.836.836 0 0 0-.225-.33.746.746 0 0 0-.517-.188c-.248 0-.45.09-.608.278a.9.9 0 0 0-.21.615c0 .12.015.247.06.36a.869.869 0 0 0 .173.277c.15.158.352.24.6.24.277 0 .487-.097.637-.3Zm-.3-.765v.008-.008Zm0 0a.662.662 0 0 0-.052-.195.327.327 0 0 0-.12-.127.348.348 0 0 0-.173-.045c-.097 0-.18.03-.247.097a.405.405 0 0 0-.113.27h.704Z" fill="#fff"/></svg>