<svg class="color-immutable" width="24" height="24" viewBox="0 0 24 24" fill="none" xmlns="http://www.w3.org/2000/svg"><path fill-rule="evenodd" clip-rule="evenodd" d="M22.5 0h-21C.675 0 0 .675 0 1.5v21c0 .825.675 1.5 1.5 1.5h21c.825 0 1.5-.675 1.5-1.5v-21c0-.825-.675-1.5-1.5-1.5Z" fill="#2D327D"/><path fill-rule="evenodd" clip-rule="evenodd" d="M9.353 9.757V21H7.11v-7.358H4.455v-1.627c.548-.015.998-.075 1.343-.173.345-.097.66-.255.952-.48.413-.315.698-.855.84-1.605h1.763ZM14.648 18.18h-2.123c.098.937.48 1.695 1.14 2.258.66.562 1.493.84 2.505.84 1.515 0 2.648-.72 3.398-2.16.577-1.103.862-2.446.862-4.013 0-1.695-.322-3.015-.975-3.953a3.95 3.95 0 0 0-1.372-1.222 3.792 3.792 0 0 0-1.778-.428c-1.042 0-1.935.338-2.677 1.013-.863.78-1.298 1.807-1.298 3.075 0 .63.12 1.215.36 1.755.24.532.57.975.998 1.312.607.48 1.327.72 2.152.72.518 0 .96-.105 1.32-.307.36-.203.713-.548 1.058-1.028a9.505 9.505 0 0 1-.225 1.47c-.158.675-.39 1.17-.683 1.493-.292.322-.675.48-1.147.48-.833 0-1.343-.435-1.515-1.305Zm.39-6.203c.33-.397.742-.592 1.222-.592.54 0 .975.217 1.29.637.315.413.473.908.473 1.5 0 .563-.15 1.043-.45 1.448-.323.427-.75.645-1.29.645-.6 0-1.058-.27-1.388-.795a2.437 2.437 0 0 1-.36-1.32c0-.615.173-1.125.503-1.523ZM5.033 3l-.75 2.25h-.555L2.993 3h.51l.502 1.688L4.515 3h.518ZM6.473 3.765a.808.808 0 0 0-.6-.24c-.27 0-.488.09-.645.263a.912.912 0 0 0-.218.622.9.9 0 0 0 .225.63c.15.173.36.255.623.255a.82.82 0 0 0 .6-.232c.165-.165.247-.383.247-.66a.899.899 0 0 0-.232-.638Zm-.908.248a.335.335 0 0 1 .285-.143c.128 0 .233.053.293.15.067.09.105.225.105.39 0 .18-.038.315-.113.413a.37.37 0 0 1-.57-.015c-.067-.09-.105-.225-.105-.398 0-.172.038-.3.105-.397ZM7.447 3.405V3h-.442v.405h.442Zm0 1.845V3.57h-.442v1.68h.442ZM9.195 4.987a.712.712 0 0 0 .128-.262h-.435a.386.386 0 0 1-.128.172.34.34 0 0 1-.202.053c-.173 0-.285-.068-.345-.218a.697.697 0 0 1-.038-.202h1.178c0-.203-.015-.368-.068-.495a.836.836 0 0 0-.225-.33.746.746 0 0 0-.517-.188c-.248 0-.45.09-.608.278a.9.9 0 0 0-.21.615c0 .12.015.247.06.36a.869.869 0 0 0 .173.277c.15.158.352.24.6.24.277 0 .487-.097.637-.3Zm-.3-.765v.008-.008Zm0 0a.662.662 0 0 0-.052-.195.327.327 0 0 0-.12-.127.348.348 0 0 0-.173-.045c-.097 0-.18.03-.247.097a.405.405 0 0 0-.113.27h.704Z" fill="#fff"/></svg>