<svg class="color-immutable" width="24" height="24" viewBox="0 0 24 24" fill="none" xmlns="http://www.w3.org/2000/svg"><path fill-rule="evenodd" clip-rule="evenodd" d="M22.5 0h-21C.675 0 0 .675 0 1.5v21c0 .825.675 1.5 1.5 1.5h21c.825 0 1.5-.675 1.5-1.5v-21c0-.825-.675-1.5-1.5-1.5Z" fill="#2D327D"/><path fill-rule="evenodd" clip-rule="evenodd" d="M16.05 18.997V21h-8.1c0-.608.098-1.192.293-1.747a4.236 4.236 0 0 1 .832-1.433c.278-.307.6-.607.975-.9.375-.293 1.11-.825 2.22-1.605.54-.375.915-.72 1.133-1.042.217-.323.322-.698.322-1.125 0-.495-.142-.893-.435-1.193-.292-.307-.667-.457-1.14-.457-1.155 0-1.755.832-1.792 2.497h-2.16v-.247c0-1.365.382-2.423 1.147-3.165.743-.728 1.703-1.095 2.888-1.095 1.042 0 1.92.3 2.625.892.765.645 1.147 1.515 1.147 2.61 0 .953-.307 1.777-.915 2.46-.202.225-.39.405-.562.54-.173.135-.63.465-1.38.982-.705.496-1.215.87-1.523 1.133a6.066 6.066 0 0 0-.847.9l5.272-.008ZM5.033 3l-.75 2.25h-.555L2.993 3h.51l.502 1.688L4.515 3h.518ZM6.473 3.765a.808.808 0 0 0-.6-.24c-.27 0-.488.09-.645.262a.912.912 0 0 0-.218.623.9.9 0 0 0 .225.63c.15.172.36.255.623.255a.82.82 0 0 0 .6-.233c.165-.165.247-.382.247-.66a.899.899 0 0 0-.232-.637Zm-.908.247a.335.335 0 0 1 .285-.142c.128 0 .233.052.293.15.067.09.105.225.105.39 0 .18-.038.315-.113.412a.37.37 0 0 1-.57-.015c-.067-.09-.105-.225-.105-.397 0-.173.038-.3.105-.398ZM7.447 3.405V3h-.442v.405h.442Zm0 1.845V3.57h-.442v1.68h.442ZM9.195 4.988a.712.712 0 0 0 .128-.263h-.435a.386.386 0 0 1-.128.173.34.34 0 0 1-.202.052c-.173 0-.285-.067-.345-.217a.697.697 0 0 1-.038-.203h1.178c0-.202-.015-.367-.068-.495a.836.836 0 0 0-.225-.33.746.746 0 0 0-.517-.187c-.248 0-.45.09-.608.277a.9.9 0 0 0-.21.615c0 .12.015.248.06.36a.869.869 0 0 0 .173.278c.15.157.352.24.6.24.277 0 .487-.098.637-.3Zm-.3-.765v.007-.007Zm0 0a.662.662 0 0 0-.052-.195.327.327 0 0 0-.12-.128.348.348 0 0 0-.173-.045c-.097 0-.18.03-.247.098a.405.405 0 0 0-.113.27h.704Z" fill="#fff"/></svg>