<svg class="color-immutable" width="24" height="24" viewBox="0 0 24 24" fill="none" xmlns="http://www.w3.org/2000/svg"><path fill-rule="evenodd" clip-rule="evenodd" d="M22.5 0h-21C.675 0 0 .675 0 1.5v21c0 .825.675 1.5 1.5 1.5h21c.825 0 1.5-.675 1.5-1.5v-21c0-.825-.675-1.5-1.5-1.5Z" fill="#2D327D"/><path fill-rule="evenodd" clip-rule="evenodd" d="M11.378 18.427V16.53H9.96V9.758H7.883l-4.808 6.57v2.107H7.77V21h2.19v-2.573h1.418Zm-3.563-6.052v4.185H4.92l2.895-4.185ZM19.08 10.275c-.645-.525-1.402-.787-2.257-.787-.675 0-1.29.157-1.86.487a3.642 3.642 0 0 0-1.35 1.35c-.608 1.02-.908 2.378-.908 4.073 0 2.384.585 4.064 1.74 5.047.653.555 1.44.832 2.355.832a3.47 3.47 0 0 0 1.83-.495c.548-.33.99-.794 1.328-1.402.577-1.043.862-2.37.862-3.982 0-.976-.112-1.875-.33-2.708-.292-1.088-.765-1.89-1.41-2.415Zm-3.847 2.385c.27-.848.772-1.275 1.507-1.275.758 0 1.275.428 1.553 1.275.217.66.322 1.567.322 2.715 0 1.35-.15 2.355-.45 3.008-.307.652-.765.982-1.387.982-.75 0-1.26-.42-1.538-1.267-.217-.653-.322-1.515-.322-2.595 0-1.216.105-2.168.315-2.843ZM5.033 3l-.75 2.25h-.555L2.993 3h.51l.502 1.688L4.515 3h.518ZM6.473 3.765a.808.808 0 0 0-.6-.24c-.27 0-.488.09-.645.262a.912.912 0 0 0-.218.623.9.9 0 0 0 .225.63c.15.173.36.255.623.255a.82.82 0 0 0 .6-.232c.165-.166.247-.383.247-.66a.899.899 0 0 0-.232-.638Zm-.908.248a.335.335 0 0 1 .285-.143c.128 0 .233.052.293.15.067.09.105.225.105.39 0 .18-.038.315-.113.412a.37.37 0 0 1-.57-.015c-.067-.09-.105-.225-.105-.397 0-.173.038-.3.105-.397ZM7.447 3.405V3h-.442v.405h.442Zm0 1.845V3.57h-.442v1.68h.442ZM9.195 4.987a.712.712 0 0 0 .128-.262h-.435a.386.386 0 0 1-.128.172.34.34 0 0 1-.202.053c-.173 0-.285-.068-.345-.218a.697.697 0 0 1-.038-.202h1.178c0-.203-.015-.368-.068-.495a.836.836 0 0 0-.225-.33.746.746 0 0 0-.517-.188c-.248 0-.45.09-.608.278a.9.9 0 0 0-.21.615c0 .12.015.247.06.36a.869.869 0 0 0 .173.277c.15.158.352.24.6.24.277 0 .487-.097.637-.3Zm-.3-.765v.008-.008Zm0 0a.662.662 0 0 0-.052-.195.327.327 0 0 0-.12-.127.348.348 0 0 0-.173-.045c-.097 0-.18.03-.247.097a.405.405 0 0 0-.113.27h.704Z" fill="#fff"/></svg>