<svg class="color-immutable" width="24" height="24" viewBox="0 0 24 24" fill="none" xmlns="http://www.w3.org/2000/svg"><path fill-rule="evenodd" clip-rule="evenodd" d="M22.5 0h-21C.675 0 0 .675 0 1.5v21c0 .825.675 1.5 1.5 1.5h21c.825 0 1.5-.675 1.5-1.5v-21c0-.825-.675-1.5-1.5-1.5Z" fill="#2D327D"/><path fill-rule="evenodd" clip-rule="evenodd" d="M8.827 7.507V21H6.135v-8.835h-3.18v-1.958c.66-.015 1.192-.082 1.612-.202.413-.12.795-.308 1.14-.57.495-.383.833-1.028 1.005-1.928h2.115ZM14.107 17.61h-2.55c.12 1.132.578 2.04 1.365 2.707.795.668 1.793 1.005 3.008 1.005 1.823 0 3.18-.862 4.08-2.595.69-1.327 1.035-2.932 1.035-4.815 0-2.032-.39-3.615-1.17-4.74a4.59 4.59 0 0 0-1.642-1.47 4.473 4.473 0 0 0-2.13-.517c-1.246 0-2.318.405-3.21 1.215-1.043.937-1.56 2.167-1.56 3.69 0 .757.142 1.462.427 2.107.285.645.683 1.17 1.193 1.575.735.578 1.597.87 2.587.87.623 0 1.148-.127 1.582-.367.436-.24.855-.653 1.268-1.23-.06.66-.15 1.245-.27 1.762-.195.81-.465 1.41-.818 1.793-.352.382-.817.577-1.38.577-.997 0-1.604-.525-1.815-1.567Zm.466-7.433c.404-.472.892-.712 1.47-.712.645 0 1.162.255 1.56.78.374.495.562 1.095.562 1.8 0 .667-.188 1.245-.547 1.732-.39.518-.908.773-1.553.773-.713 0-1.268-.323-1.658-.953-.292-.465-.434-.99-.434-1.59 0-.742.202-1.35.6-1.83ZM3 3h1.013c.217 0 .382.03.487.083.098.052.18.127.225.224a.547.547 0 0 1-.007.54.507.507 0 0 1-.226.188c.083.03.15.06.196.09a.547.547 0 0 1 .217.465.628.628 0 0 1-.315.555.97.97 0 0 1-.48.105H3V3Zm.495.382v.526h.45c.105 0 .18-.015.233-.038a.233.233 0 0 0 .135-.225c0-.09-.03-.157-.083-.195-.053-.037-.15-.06-.285-.06-.007-.008-.45-.008-.45-.008Zm0 1.478v-.615h.465c.135 0 .225.015.285.037.105.045.157.136.157.27 0 .113-.037.196-.112.248-.06.038-.157.06-.3.06h-.495ZM5.64 3.405V3h-.442v.405h.442Zm0 1.845V3.57h-.442v1.68h.442ZM6.42 3.57v.232a.604.604 0 0 1 .142-.157.662.662 0 0 1 .398-.128c.135 0 .255.038.352.105a.435.435 0 0 1 .158.21c.03.083.045.203.045.36V5.25h-.443v-.96a.666.666 0 0 0-.03-.24.177.177 0 0 0-.09-.105.302.302 0 0 0-.165-.045.339.339 0 0 0-.187.052.26.26 0 0 0-.12.135.738.738 0 0 0-.045.3v.863h-.443V3.57h.428ZM8.925 5.25h.457a.562.562 0 0 1-.052-.172c-.008-.06-.008-.15-.008-.27v-.345c.008-.203.008-.315.008-.338 0-.127-.015-.217-.03-.27a.345.345 0 0 0-.113-.157c-.127-.105-.315-.158-.577-.158-.233 0-.413.045-.54.143-.128.09-.195.232-.21.42h.42a.3.3 0 0 1 .097-.195c.045-.038.12-.053.225-.053.195 0 .293.068.293.218 0 .067-.023.112-.068.135-.045.022-.15.045-.33.067-.21.03-.352.06-.427.09a.44.44 0 0 0-.285.435c0 .165.052.293.165.383.097.082.232.12.405.12a.735.735 0 0 0 .54-.218c0 .045.007.098.03.165Zm-.353-.727a.774.774 0 0 0 .315-.083v.18c0 .053 0 .105-.015.135l-.007.015a.387.387 0 0 1-.368.217.28.28 0 0 1-.187-.06.21.21 0 0 1-.068-.164c0-.083.03-.143.098-.18a.925.925 0 0 1 .232-.06ZM10.717 3.54v.435a.903.903 0 0 0-.172-.023.394.394 0 0 0-.367.21c-.046.075-.068.21-.068.39v.698h-.443V3.57h.428v.307c.12-.225.3-.345.525-.345.023 0 .06.008.098.008ZM11.37 3.405V3h-.442v.405h.442Zm0 1.845V3.57h-.442v1.68h.442ZM13.132 3.765a.808.808 0 0 0-.6-.24c-.27 0-.487.09-.645.263a.912.912 0 0 0-.217.622.9.9 0 0 0 .225.63c.15.173.36.255.622.255a.82.82 0 0 0 .6-.232c.165-.165.248-.383.248-.66a.899.899 0 0 0-.233-.638Zm-.907.248a.335.335 0 0 1 .285-.143c.127 0 .232.053.292.15.068.09.105.225.105.39 0 .18-.037.315-.112.413a.37.37 0 0 1-.57-.015c-.068-.09-.105-.225-.105-.398 0-.172.037-.3.105-.397Z" fill="#fff"/></svg>