<svg class="color-immutable" width="24" height="24" viewBox="0 0 24 24" fill="none" xmlns="http://www.w3.org/2000/svg"><path fill-rule="evenodd" clip-rule="evenodd" d="M22.5 0h-21C.675 0 0 .675 0 1.5v21c0 .825.675 1.5 1.5 1.5h21c.825 0 1.5-.675 1.5-1.5v-21c0-.825-.675-1.5-1.5-1.5Z" fill="#2D327D"/><path fill-rule="evenodd" clip-rule="evenodd" d="M10.71 9.758v2.002H6.18l-.487 2.527c.54-.577 1.237-.862 2.085-.862.832 0 1.552.225 2.167.667.915.675 1.373 1.695 1.373 3.06 0 1.343-.488 2.408-1.463 3.195-.758.615-1.665.923-2.723.923-1.192 0-2.145-.322-2.864-.96-.72-.637-1.103-1.5-1.148-2.587h2.205c.037.397.165.727.382 1.005.346.434.818.652 1.433.652.592 0 1.058-.21 1.403-.637.33-.413.502-.923.502-1.515 0-.646-.172-1.163-.525-1.553-.345-.39-.81-.578-1.395-.578-.705 0-1.26.316-1.65.953l-2.01-.03 1.072-6.27 6.173.008ZM18.503 9.758V21H16.26v-7.357h-2.655v-1.628c.547-.015.997-.075 1.342-.173.346-.097.66-.255.953-.48.412-.315.697-.854.84-1.604h1.763ZM5.093 4.035V5.25h-.315l-.053-.255c-.165.21-.39.308-.675.308-.345 0-.615-.128-.81-.383-.165-.21-.247-.473-.247-.787 0-.353.105-.645.322-.87.203-.21.465-.323.78-.323.293 0 .533.098.72.285a.876.876 0 0 1 .24.51h-.472a.476.476 0 0 0-.165-.285.504.504 0 0 0-.323-.105.531.531 0 0 0-.465.232c-.097.136-.142.316-.142.548 0 .225.045.397.135.532a.56.56 0 0 0 .487.24.515.515 0 0 0 .383-.142.534.534 0 0 0 .157-.367h-.502v-.36l.945.007ZM5.903 3v2.25H5.46V3h.443ZM7.65 4.988a.712.712 0 0 0 .128-.263H7.35a.386.386 0 0 1-.127.173.34.34 0 0 1-.203.052c-.172 0-.285-.067-.345-.218a.697.697 0 0 1-.037-.202h1.17c0-.203-.015-.368-.068-.495a.836.836 0 0 0-.225-.33.746.746 0 0 0-.517-.188c-.248 0-.45.09-.608.278a.9.9 0 0 0-.21.615c0 .12.015.247.06.36a.869.869 0 0 0 .173.278c.15.157.352.24.6.24.277 0 .487-.098.637-.3Zm-.308-.766v.008-.008Zm0 0a.662.662 0 0 0-.052-.195.327.327 0 0 0-.12-.127.348.348 0 0 0-.172-.045c-.098 0-.18.03-.248.098a.405.405 0 0 0-.112.27h.704ZM8.528 3.405V3h-.443v.405h.443Zm0 1.845V3.57h-.443v1.68h.443ZM10.245 4.058h-.42a.253.253 0 0 0-.045-.128c-.045-.06-.135-.09-.255-.09-.082 0-.142.015-.18.045-.037.03-.067.068-.067.12 0 .053.022.098.075.12.052.022.157.053.33.09.217.045.375.098.465.165.112.075.172.195.172.353 0 .18-.067.315-.21.42-.135.097-.322.142-.547.142-.278 0-.488-.067-.615-.21a.63.63 0 0 1-.15-.383h.427c.008.075.03.136.06.173.06.067.15.105.285.105.09 0 .165-.015.218-.053a.182.182 0 0 0 .082-.15.139.139 0 0 0-.067-.127 1.145 1.145 0 0 0-.293-.098c-.142-.037-.247-.06-.307-.082a3.728 3.728 0 0 1-.165-.067.344.344 0 0 1-.143-.15.516.516 0 0 1-.052-.218c0-.173.075-.308.217-.397.12-.075.285-.113.495-.113.278 0 .48.067.6.21a.717.717 0 0 1 .09.323Z" fill="#fff"/></svg>