<svg class="color-immutable" width="24" height="24" viewBox="0 0 24 24" fill="none" xmlns="http://www.w3.org/2000/svg"><path fill-rule="evenodd" clip-rule="evenodd" d="M22.5 0h-21C.675 0 0 .675 0 1.5v21c0 .825.675 1.5 1.5 1.5h21c.825 0 1.5-.675 1.5-1.5v-21c0-.825-.675-1.5-1.5-1.5Z" fill="#2D327D"/><path fill-rule="evenodd" clip-rule="evenodd" d="M11.37 18.435v-1.897l-1.41-.008V9.758H7.883l-4.808 6.57v2.107h4.688V21h2.19v-2.565h1.417Zm-3.555-6.06v4.185H4.92l2.895-4.185ZM12.96 13.32c.022-.922.255-1.695.682-2.325.698-1.005 1.748-1.507 3.143-1.507 1.08 0 1.942.277 2.61.825.713.592 1.073 1.364 1.073 2.31 0 .562-.143 1.05-.42 1.455-.278.405-.66.682-1.133.825a2.34 2.34 0 0 1 1.433.922c.352.48.524 1.05.524 1.733 0 1.11-.412 2.024-1.23 2.73-.757.66-1.717.982-2.88.982-1.252 0-2.25-.36-2.985-1.087-.734-.72-1.102-1.703-1.102-2.933v-.142h2.16c0 .69.165 1.23.495 1.604.33.375.795.563 1.395.563s1.057-.18 1.387-.532c.3-.33.443-.728.443-1.193 0-.555-.188-.99-.57-1.313-.315-.27-.795-.397-1.447-.397-.188 0-.368.008-.548.03v-1.65c.135.007.263.015.382.015 1.29 0 1.936-.48 1.936-1.44 0-.42-.143-.758-.42-1.02-.286-.263-.653-.39-1.118-.39-.525 0-.938.165-1.223.495-.285.33-.442.81-.465 1.44H12.96ZM5.093 4.035V5.25h-.315l-.053-.255c-.165.21-.39.308-.675.308-.345 0-.615-.128-.81-.383-.165-.21-.247-.473-.247-.787 0-.353.105-.645.322-.87.203-.21.465-.323.78-.323.293 0 .533.098.72.285a.876.876 0 0 1 .24.51h-.472a.476.476 0 0 0-.165-.285.504.504 0 0 0-.323-.105.531.531 0 0 0-.465.232c-.097.136-.142.316-.142.548 0 .225.045.397.135.532a.56.56 0 0 0 .487.24.515.515 0 0 0 .383-.142.534.534 0 0 0 .157-.367h-.502v-.36l.945.007ZM5.903 3v2.25H5.46V3h.443ZM7.65 4.988a.712.712 0 0 0 .128-.263H7.35a.386.386 0 0 1-.127.173.34.34 0 0 1-.203.052c-.172 0-.285-.067-.345-.217a.697.697 0 0 1-.037-.203h1.17c0-.202-.015-.367-.068-.495a.836.836 0 0 0-.225-.33.746.746 0 0 0-.517-.187c-.248 0-.45.09-.608.277a.9.9 0 0 0-.21.615c0 .12.015.248.06.36a.869.869 0 0 0 .173.278c.15.157.352.24.6.24.277 0 .487-.098.637-.3Zm-.36-.96a.66.66 0 0 1 .053.202l-.705-.007a.405.405 0 0 1 .112-.27.333.333 0 0 1 .248-.098c.06 0 .12.015.172.045.053.03.09.075.12.128ZM8.528 3.405V3h-.443v.405h.443Zm0 1.845V3.57h-.443v1.68h.443ZM10.245 4.057h-.42a.253.253 0 0 0-.045-.127c-.045-.06-.135-.09-.255-.09-.082 0-.142.015-.18.045-.037.03-.067.067-.067.12 0 .052.022.097.075.12.052.022.157.052.33.09.217.045.375.098.465.165.112.075.172.195.172.352 0 .18-.067.315-.21.42-.135.098-.322.143-.547.143-.278 0-.488-.068-.615-.21a.63.63 0 0 1-.15-.383h.427c.008.075.03.135.06.173.06.067.15.105.285.105.09 0 .165-.015.218-.053a.182.182 0 0 0 .082-.15.139.139 0 0 0-.067-.127 1.145 1.145 0 0 0-.293-.098c-.142-.037-.247-.06-.307-.082a3.728 3.728 0 0 1-.165-.068.344.344 0 0 1-.143-.15.516.516 0 0 1-.052-.217c0-.173.075-.308.217-.398.12-.075.285-.112.495-.112.278 0 .48.067.6.21a.717.717 0 0 1 .09.322Z" fill="#fff"/></svg>