<svg class="color-immutable" width="24" height="24" viewBox="0 0 24 24" fill="none" xmlns="http://www.w3.org/2000/svg"><path fill-rule="evenodd" clip-rule="evenodd" d="M22.5 0h-21C.675 0 0 .675 0 1.5v21c0 .825.675 1.5 1.5 1.5h21c.825 0 1.5-.675 1.5-1.5v-21c0-.825-.675-1.5-1.5-1.5Z" fill="#2D327D"/><path fill-rule="evenodd" clip-rule="evenodd" d="M8.94 12.563h2.138c-.105-.728-.345-1.336-.743-1.816-.66-.832-1.612-1.252-2.857-1.252-1.32 0-2.363.525-3.128 1.575-.787 1.088-1.185 2.588-1.185 4.508 0 1.792.375 3.187 1.11 4.192.735.997 1.77 1.5 3.098 1.5 1.035 0 1.927-.345 2.662-1.035.817-.765 1.23-1.785 1.23-3.052 0-1.066-.308-1.958-.915-2.663-.637-.75-1.485-1.125-2.542-1.125-.54 0-.998.098-1.38.3-.383.195-.743.525-1.08.982.082-.84.202-1.47.345-1.882.352-1.02.937-1.53 1.77-1.53.787 0 1.275.428 1.477 1.297Zm-2.947 3.255c.315-.45.742-.675 1.282-.675.578 0 1.035.24 1.38.712.278.39.413.863.413 1.41a2.36 2.36 0 0 1-.465 1.455 1.537 1.537 0 0 1-1.298.652c-.555 0-.99-.224-1.305-.682-.292-.413-.435-.893-.435-1.44 0-.555.143-1.035.428-1.432ZM20.918 18.435v-1.897l-1.41-.008V9.758H17.43l-4.807 6.57v2.107h4.687V21h2.19v-2.565h1.418Zm-3.555-6.06v4.185h-2.895l2.895-4.185ZM5.093 4.035V5.25h-.315l-.053-.255c-.165.21-.39.308-.675.308-.345 0-.615-.128-.81-.383-.165-.21-.247-.473-.247-.787 0-.353.105-.645.322-.87.203-.21.465-.323.78-.323.293 0 .533.098.72.285a.876.876 0 0 1 .24.51h-.472a.476.476 0 0 0-.165-.285.504.504 0 0 0-.323-.105.531.531 0 0 0-.465.232c-.097.136-.142.316-.142.548 0 .225.045.397.135.532a.56.56 0 0 0 .487.24.515.515 0 0 0 .383-.142.534.534 0 0 0 .157-.367h-.502v-.36l.945.007ZM5.903 3v2.25H5.46V3h.443ZM7.65 4.988a.712.712 0 0 0 .128-.263H7.35a.386.386 0 0 1-.127.173.34.34 0 0 1-.203.052c-.172 0-.285-.067-.345-.217a.697.697 0 0 1-.037-.203h1.17c0-.202-.015-.367-.068-.495a.836.836 0 0 0-.225-.33.746.746 0 0 0-.517-.187c-.248 0-.45.09-.608.277a.9.9 0 0 0-.21.615c0 .12.015.248.06.36a.869.869 0 0 0 .173.278c.15.157.352.24.6.24.277 0 .487-.098.637-.3Zm-.308-.765v.007-.007Zm0 0a.662.662 0 0 0-.052-.195.327.327 0 0 0-.12-.128.348.348 0 0 0-.172-.045c-.098 0-.18.03-.248.098a.405.405 0 0 0-.112.27h.704ZM8.528 3.405V3h-.443v.405h.443Zm0 1.845V3.57h-.443v1.68h.443ZM10.245 4.058h-.42a.253.253 0 0 0-.045-.128c-.045-.06-.135-.09-.255-.09-.082 0-.142.015-.18.045-.037.03-.067.068-.067.12 0 .053.022.098.075.12.052.023.157.053.33.09.217.045.375.098.465.165.112.075.172.195.172.353 0 .18-.067.315-.21.42-.135.097-.322.142-.547.142-.278 0-.488-.067-.615-.21a.63.63 0 0 1-.15-.382h.427c.008.075.03.135.06.172.06.068.15.105.285.105.09 0 .165-.015.218-.052a.182.182 0 0 0 .082-.15.139.139 0 0 0-.067-.128 1.145 1.145 0 0 0-.293-.097c-.142-.038-.247-.06-.307-.083a3.704 3.704 0 0 1-.165-.067.344.344 0 0 1-.143-.15.516.516 0 0 1-.052-.218c0-.172.075-.307.217-.397.12-.075.285-.113.495-.113.278 0 .48.068.6.21a.717.717 0 0 1 .09.323Z" fill="#fff"/></svg>