<svg class="color-immutable" width="24" height="24" viewBox="0 0 24 24" fill="none" xmlns="http://www.w3.org/2000/svg"><path fill-rule="evenodd" clip-rule="evenodd" d="M22.5 0h-21C.675 0 0 .675 0 1.5v21c0 .825.675 1.5 1.5 1.5h21c.825 0 1.5-.675 1.5-1.5v-21c0-.825-.675-1.5-1.5-1.5Z" fill="#2D327D"/><path fill-rule="evenodd" clip-rule="evenodd" d="M3.413 13.32c.022-.922.255-1.695.682-2.325.698-1.005 1.748-1.508 3.143-1.508 1.08 0 1.942.278 2.61.825.712.593 1.072 1.366 1.072 2.31 0 .563-.143 1.05-.42 1.456-.277.405-.66.682-1.132.825a2.34 2.34 0 0 1 1.432.922c.352.48.525 1.05.525 1.733 0 1.11-.412 2.024-1.23 2.73-.757.66-1.717.982-2.872.982-1.253 0-2.25-.36-2.985-1.087-.735-.72-1.103-1.703-1.103-2.933v-.142h2.16c0 .69.165 1.23.495 1.604.33.375.795.563 1.395.563s1.058-.18 1.388-.532c.3-.33.442-.728.442-1.193 0-.555-.187-.99-.57-1.313-.315-.27-.795-.397-1.447-.397-.188 0-.368.008-.548.03v-1.65c.135.007.263.015.383.015 1.29 0 1.935-.48 1.935-1.44 0-.42-.143-.758-.42-1.02-.285-.263-.653-.39-1.118-.39-.525 0-.937.165-1.222.495-.285.33-.443.81-.465 1.44h-2.13ZM19.08 10.275c-.645-.525-1.402-.788-2.257-.788-.675 0-1.29.158-1.86.488a3.643 3.643 0 0 0-1.35 1.35c-.608 1.02-.908 2.378-.908 4.073 0 2.384.585 4.064 1.74 5.047.652.555 1.44.832 2.355.832a3.47 3.47 0 0 0 1.83-.495c.547-.33.99-.794 1.328-1.402.577-1.043.862-2.37.862-3.982 0-.976-.113-1.875-.33-2.708-.292-1.088-.765-1.89-1.41-2.415Zm-3.847 2.385c.27-.848.772-1.275 1.507-1.275.758 0 1.275.428 1.553 1.275.217.66.322 1.567.322 2.715 0 1.35-.15 2.355-.45 3.008-.307.652-.765.982-1.387.982-.75 0-1.26-.42-1.538-1.267-.217-.653-.322-1.515-.322-2.595 0-1.216.105-2.168.315-2.843ZM5.033 3l-.75 2.25h-.555L2.993 3h.51l.502 1.688L4.515 3h.518ZM6.473 3.765a.808.808 0 0 0-.6-.24c-.27 0-.488.09-.645.263a.912.912 0 0 0-.218.622.9.9 0 0 0 .225.63c.15.173.36.255.623.255a.82.82 0 0 0 .6-.232c.165-.165.247-.383.247-.66a.899.899 0 0 0-.232-.638Zm-.908.248a.335.335 0 0 1 .285-.143c.128 0 .233.053.293.15.067.09.105.225.105.39 0 .18-.038.315-.113.413a.37.37 0 0 1-.57-.015c-.067-.09-.105-.225-.105-.398 0-.172.038-.3.105-.397ZM7.447 3.405V3h-.442v.405h.442Zm0 1.845V3.57h-.442v1.68h.442ZM9.195 4.988a.712.712 0 0 0 .128-.263h-.435a.386.386 0 0 1-.128.173.34.34 0 0 1-.202.052c-.173 0-.285-.067-.345-.217a.697.697 0 0 1-.038-.203h1.178c0-.202-.015-.367-.068-.495a.836.836 0 0 0-.225-.33.746.746 0 0 0-.517-.187c-.248 0-.45.09-.608.277a.9.9 0 0 0-.21.615c0 .12.015.248.06.36a.869.869 0 0 0 .173.278c.15.157.352.24.6.24.277 0 .487-.098.637-.3Zm-.3-.765v.007-.007Zm0 0a.662.662 0 0 0-.052-.195.327.327 0 0 0-.12-.128.348.348 0 0 0-.173-.045c-.097 0-.18.03-.247.098a.405.405 0 0 0-.113.27h.704Z" fill="#fff"/></svg>