<svg class="color-immutable" width="24" height="24" viewBox="0 0 24 24" fill="none" xmlns="http://www.w3.org/2000/svg"><path fill-rule="evenodd" clip-rule="evenodd" d="M22.5 0h-21C.675 0 0 .675 0 1.5v21c0 .825.675 1.5 1.5 1.5h21c.825 0 1.5-.675 1.5-1.5v-21c0-.825-.675-1.5-1.5-1.5Z" fill="#2D327D"/><path fill-rule="evenodd" clip-rule="evenodd" d="M8.827 7.507V21H6.135v-8.835h-3.18v-1.958c.66-.015 1.192-.082 1.612-.202.413-.12.795-.308 1.14-.57.495-.383.833-1.028 1.005-1.928h2.115ZM14.107 17.61h-2.55c.12 1.132.578 2.04 1.365 2.707.795.668 1.793 1.005 3.008 1.005 1.823 0 3.18-.862 4.08-2.595.69-1.327 1.035-2.932 1.035-4.815 0-2.032-.39-3.615-1.17-4.74a4.59 4.59 0 0 0-1.642-1.47 4.473 4.473 0 0 0-2.13-.517c-1.246 0-2.318.405-3.21 1.215-1.043.937-1.56 2.167-1.56 3.69 0 .757.142 1.462.427 2.107.285.645.683 1.17 1.193 1.575.735.578 1.597.87 2.587.87.623 0 1.148-.127 1.582-.367.436-.24.855-.653 1.268-1.23-.06.66-.15 1.245-.27 1.762-.195.81-.465 1.41-.818 1.793-.352.382-.817.577-1.38.577-.997 0-1.604-.525-1.815-1.567Zm.466-7.433c.404-.472.892-.712 1.47-.712.645 0 1.162.255 1.56.78.374.495.562 1.095.562 1.8 0 .667-.188 1.245-.547 1.732-.39.518-.908.773-1.553.773-.713 0-1.268-.323-1.658-.953-.292-.465-.434-.99-.434-1.59 0-.742.202-1.35.6-1.83ZM5.032 3l-.75 2.25h-.555L2.992 3h.51l.503 1.688L4.515 3h.517ZM6.473 3.765a.808.808 0 0 0-.6-.24c-.27 0-.488.09-.645.263a.912.912 0 0 0-.218.622.9.9 0 0 0 .225.63c.15.173.36.255.623.255a.82.82 0 0 0 .6-.232c.165-.165.247-.383.247-.66a.899.899 0 0 0-.232-.638Zm-.908.248a.335.335 0 0 1 .285-.143c.128 0 .233.053.293.15.067.09.105.225.105.39 0 .18-.038.315-.113.413a.37.37 0 0 1-.57-.015c-.067-.09-.105-.225-.105-.398 0-.172.038-.3.105-.397ZM7.447 3.405V3h-.442v.405h.442Zm0 1.845V3.57h-.442v1.68h.442ZM9.195 4.987a.712.712 0 0 0 .127-.262h-.435a.386.386 0 0 1-.127.172.34.34 0 0 1-.203.053c-.172 0-.285-.068-.345-.218a.697.697 0 0 1-.037-.202h1.177c0-.203-.015-.368-.067-.495a.836.836 0 0 0-.225-.33.746.746 0 0 0-.518-.188c-.247 0-.45.09-.607.278a.9.9 0 0 0-.21.615c0 .12.015.247.06.36a.869.869 0 0 0 .172.277c.15.158.353.24.6.24.278 0 .488-.097.638-.3Zm-.3-.765v.008-.008Zm0 0a.663.663 0 0 0-.053-.195.327.327 0 0 0-.12-.127.348.348 0 0 0-.172-.045c-.098 0-.18.03-.248.097a.405.405 0 0 0-.112.27h.704Z" fill="#fff"/></svg>