<svg class="color-immutable" width="24" height="24" viewBox="0 0 24 24" fill="none" xmlns="http://www.w3.org/2000/svg"><path fill-rule="evenodd" clip-rule="evenodd" d="M22.5 0h-21C.675 0 0 .675 0 1.5v21c0 .825.675 1.5 1.5 1.5h21c.825 0 1.5-.675 1.5-1.5v-21c0-.825-.675-1.5-1.5-1.5Z" fill="#2D327D"/><path fill-rule="evenodd" clip-rule="evenodd" d="M8.827 7.507V21H6.135v-8.835h-3.18v-1.958c.66-.015 1.192-.082 1.612-.202.413-.12.795-.308 1.14-.57.495-.383.833-1.028 1.005-1.928h2.115ZM14.107 17.61h-2.55c.12 1.132.578 2.04 1.365 2.707.795.668 1.793 1.005 3.008 1.005 1.823 0 3.18-.862 4.08-2.595.69-1.327 1.035-2.932 1.035-4.815 0-2.032-.39-3.615-1.17-4.74a4.59 4.59 0 0 0-1.642-1.47 4.473 4.473 0 0 0-2.13-.517c-1.246 0-2.318.405-3.21 1.215-1.043.937-1.56 2.167-1.56 3.69 0 .757.142 1.462.427 2.107.285.645.683 1.17 1.193 1.575.735.578 1.597.87 2.587.87.623 0 1.148-.127 1.582-.367.436-.24.855-.653 1.268-1.23-.06.66-.15 1.245-.27 1.762-.195.81-.465 1.41-.818 1.793-.352.382-.817.577-1.38.577-.997 0-1.604-.525-1.815-1.567Zm.466-7.433c.404-.472.892-.712 1.47-.712.645 0 1.162.255 1.56.78.374.495.562 1.095.562 1.8 0 .667-.188 1.245-.547 1.732-.39.518-.908.773-1.553.773-.713 0-1.268-.323-1.658-.953-.292-.465-.434-.99-.434-1.59 0-.742.202-1.35.6-1.83ZM5.092 4.035V5.25h-.315l-.052-.255c-.165.21-.39.307-.675.307-.345 0-.615-.127-.81-.382-.165-.21-.248-.473-.248-.788 0-.352.105-.645.323-.87.202-.21.465-.322.78-.322.292 0 .532.097.72.285a.876.876 0 0 1 .24.51h-.473a.476.476 0 0 0-.165-.285.504.504 0 0 0-.322-.105.531.531 0 0 0-.465.232c-.098.135-.143.315-.143.548 0 .225.045.397.135.532a.56.56 0 0 0 .488.24.515.515 0 0 0 .382-.142.534.534 0 0 0 .158-.368h-.503v-.36l.945.008ZM5.902 3v2.25H5.46V3h.442ZM7.65 4.987a.712.712 0 0 0 .127-.262H7.35a.386.386 0 0 1-.128.172.34.34 0 0 1-.202.053c-.173 0-.285-.068-.345-.218a.697.697 0 0 1-.038-.202h1.17c0-.203-.015-.368-.067-.495a.836.836 0 0 0-.225-.33.746.746 0 0 0-.518-.188c-.247 0-.45.09-.607.278a.9.9 0 0 0-.21.615c0 .12.015.247.06.36a.869.869 0 0 0 .172.277c.15.158.353.24.6.24.278 0 .488-.097.638-.3Zm-.308-.765v.008-.008Zm0 0a.662.662 0 0 0-.052-.195.327.327 0 0 0-.12-.127.348.348 0 0 0-.173-.045c-.097 0-.18.03-.247.097a.405.405 0 0 0-.113.27h.705ZM8.527 3.405V3h-.442v.405h.442Zm0 1.845V3.57h-.442v1.68h.442ZM10.245 4.057h-.42a.253.253 0 0 0-.045-.127c-.045-.06-.135-.09-.255-.09-.083 0-.143.015-.18.045-.038.03-.068.067-.068.12 0 .052.023.097.075.12.053.022.158.052.33.09.218.045.375.097.466.165.112.075.172.195.172.352 0 .18-.068.315-.21.42-.135.098-.323.143-.548.143-.277 0-.487-.068-.615-.21a.629.629 0 0 1-.15-.383h.428c.007.075.03.135.06.173.06.067.15.105.285.105.09 0 .165-.015.217-.053a.182.182 0 0 0 .083-.15.139.139 0 0 0-.068-.127 1.145 1.145 0 0 0-.292-.098c-.143-.037-.248-.06-.308-.082a3.728 3.728 0 0 1-.165-.068.344.344 0 0 1-.142-.15.516.516 0 0 1-.053-.217c0-.173.075-.308.218-.398.12-.075.285-.112.495-.112.277 0 .48.067.6.21a.717.717 0 0 1 .09.322Z" fill="#fff"/></svg>