<svg class="color-immutable" width="24" height="24" viewBox="0 0 24 24" fill="none" xmlns="http://www.w3.org/2000/svg"><path fill-rule="evenodd" clip-rule="evenodd" d="M22.5 0h-21C.675 0 0 .675 0 1.5v21c0 .825.675 1.5 1.5 1.5h21c.825 0 1.5-.675 1.5-1.5v-21c0-.825-.675-1.5-1.5-1.5Z" fill="#2D327D"/><path fill-rule="evenodd" clip-rule="evenodd" d="M10.995 9.757v1.905c-.06.068-.24.278-.547.623-.42.48-.84 1.087-1.253 1.822a12.881 12.881 0 0 0-.967 2.1c-.488 1.403-.78 3-.885 4.793H5.018c.015-.848.165-1.785.442-2.813a18.47 18.47 0 0 1 1.155-3.09c.705-1.455 1.418-2.542 2.138-3.255H3.458V9.757h7.537ZM18.495 12.563h2.137c-.112-.736-.352-1.343-.742-1.816-.66-.832-1.613-1.252-2.858-1.252-1.32 0-2.362.525-3.127 1.575-.787 1.088-1.185 2.588-1.185 4.508 0 1.792.375 3.187 1.11 4.192.735.997 1.77 1.5 3.097 1.5 1.035 0 1.928-.345 2.663-1.035.817-.765 1.23-1.785 1.23-3.052 0-1.066-.308-1.958-.915-2.663-.638-.75-1.485-1.125-2.543-1.125-.54 0-.997.098-1.38.3-.382.195-.742.525-1.08.982.083-.84.203-1.47.346-1.882.352-1.02.937-1.53 1.77-1.53.787 0 1.274.428 1.477 1.297Zm-2.955 3.255c.315-.45.742-.675 1.283-.675.577 0 1.042.232 1.38.712.277.39.412.863.412 1.41a2.36 2.36 0 0 1-.465 1.455 1.537 1.537 0 0 1-1.297.652c-.556 0-.99-.224-1.306-.682-.292-.413-.434-.893-.434-1.44 0-.555.142-1.035.427-1.432ZM5.033 3l-.75 2.25h-.555L2.993 3h.51l.502 1.688L4.515 3h.518ZM6.473 3.765a.808.808 0 0 0-.6-.24c-.27 0-.488.09-.645.263a.912.912 0 0 0-.218.622.9.9 0 0 0 .225.63c.15.173.36.255.623.255a.82.82 0 0 0 .6-.232c.165-.165.247-.383.247-.66a.899.899 0 0 0-.232-.638Zm-.908.248a.335.335 0 0 1 .285-.143c.128 0 .233.053.293.15.067.09.105.225.105.39 0 .18-.038.315-.113.413a.37.37 0 0 1-.57-.015c-.067-.09-.105-.225-.105-.398 0-.172.038-.3.105-.397ZM7.447 3.405V3h-.442v.405h.442Zm0 1.845V3.57h-.442v1.68h.442ZM9.195 4.987a.712.712 0 0 0 .128-.262h-.435a.386.386 0 0 1-.128.172.34.34 0 0 1-.202.053c-.173 0-.285-.068-.345-.218a.697.697 0 0 1-.038-.202h1.178c0-.203-.015-.368-.068-.495a.836.836 0 0 0-.225-.33.746.746 0 0 0-.517-.188c-.248 0-.45.09-.608.278a.9.9 0 0 0-.21.615c0 .12.015.247.06.36a.869.869 0 0 0 .173.277c.15.158.352.24.6.24.277 0 .487-.097.637-.3Zm-.3-.765v.008-.008Zm0 0a.662.662 0 0 0-.052-.195.327.327 0 0 0-.12-.127.348.348 0 0 0-.173-.045c-.097 0-.18.03-.247.097a.405.405 0 0 0-.113.27h.704Z" fill="#fff"/></svg>