<svg class="color-immutable" width="24" height="24" viewBox="0 0 24 24" fill="none" xmlns="http://www.w3.org/2000/svg"><path fill-rule="evenodd" clip-rule="evenodd" d="M22.5 0h-21C.675 0 0 .675 0 1.5v21c0 .825.675 1.5 1.5 1.5h21c.825 0 1.5-.675 1.5-1.5v-21c0-.825-.675-1.5-1.5-1.5Z" fill="#2D327D"/><path fill-rule="evenodd" clip-rule="evenodd" d="M8.94 12.563h2.138c-.105-.728-.345-1.336-.743-1.816-.66-.832-1.612-1.252-2.857-1.252-1.32 0-2.363.525-3.128 1.575-.787 1.088-1.185 2.588-1.185 4.508 0 1.792.375 3.187 1.11 4.192.735.997 1.77 1.5 3.098 1.5 1.035 0 1.927-.345 2.662-1.035.817-.765 1.23-1.785 1.23-3.052 0-1.066-.308-1.958-.915-2.663-.637-.75-1.485-1.125-2.542-1.125-.54 0-.998.098-1.38.3-.383.195-.743.525-1.08.982.082-.84.202-1.47.345-1.882.352-1.02.937-1.53 1.77-1.53.787 0 1.275.428 1.477 1.297Zm-2.947 3.255c.315-.45.742-.675 1.282-.675.578 0 1.035.24 1.38.712.278.39.413.863.413 1.41a2.36 2.36 0 0 1-.465 1.455 1.537 1.537 0 0 1-1.298.652c-.555 0-.99-.224-1.305-.682-.292-.413-.435-.893-.435-1.44 0-.555.143-1.035.428-1.432ZM20.258 9.758v2.002h-4.53l-.488 2.527c.54-.577 1.237-.862 2.085-.862.832 0 1.553.225 2.168.667.915.675 1.372 1.695 1.372 3.06 0 1.343-.487 2.408-1.462 3.195-.758.615-1.665.923-2.723.923-1.192 0-2.145-.322-2.865-.96-.72-.637-1.102-1.5-1.147-2.587h2.205c.037.397.165.727.382 1.005.345.434.818.652 1.432.652.593 0 1.058-.21 1.403-.637.33-.413.503-.923.503-1.515 0-.646-.173-1.163-.526-1.553-.345-.39-.81-.578-1.395-.578-.705 0-1.26.316-1.65.953l-2.01-.03 1.073-6.27 6.172.008ZM3 3h1.013c.217 0 .382.03.487.083.098.052.18.127.225.224a.547.547 0 0 1-.007.54.507.507 0 0 1-.226.188c.083.03.15.06.196.09a.547.547 0 0 1 .217.465.628.628 0 0 1-.315.555.97.97 0 0 1-.48.105H3V3Zm.495.382v.526h.45c.105 0 .18-.015.233-.038a.233.233 0 0 0 .135-.225c0-.09-.03-.157-.083-.195-.053-.037-.15-.06-.285-.06-.007-.008-.45-.008-.45-.008Zm0 1.478v-.615h.465c.135 0 .225.015.285.037.105.045.157.136.157.27 0 .113-.037.196-.112.248-.06.038-.157.06-.3.06h-.495ZM5.64 3.405V3h-.442v.405h.442Zm0 1.845V3.57h-.442v1.68h.442ZM6.42 3.57v.233a.604.604 0 0 1 .143-.158.662.662 0 0 1 .397-.127c.135 0 .255.037.353.105a.435.435 0 0 1 .157.21c.03.082.045.202.045.36V5.25h-.442v-.96a.666.666 0 0 0-.03-.24.177.177 0 0 0-.09-.105.302.302 0 0 0-.165-.045.339.339 0 0 0-.188.053.26.26 0 0 0-.12.135.738.738 0 0 0-.045.3v.862h-.442V3.57h.427ZM8.925 5.25h.458a.562.562 0 0 1-.053-.173c-.007-.06-.007-.15-.007-.27v-.345c.007-.202.007-.315.007-.337 0-.128-.015-.218-.03-.27a.345.345 0 0 0-.112-.158c-.128-.105-.315-.157-.578-.157-.232 0-.412.045-.54.142-.127.09-.195.233-.21.42h.42a.3.3 0 0 1 .098-.195c.045-.037.12-.052.225-.052.195 0 .292.067.292.217 0 .068-.022.113-.067.135-.045.023-.15.045-.33.068-.21.03-.353.06-.428.09a.44.44 0 0 0-.285.435c0 .165.053.292.165.382.098.083.233.12.405.12a.735.735 0 0 0 .54-.217c0 .045.008.097.03.165Zm-.352-.728a.774.774 0 0 0 .315-.082v.18c0 .052 0 .105-.015.135l-.008.015c-.013.027-.027.057-.052.082a.387.387 0 0 1-.315.135.28.28 0 0 1-.188-.06.21.21 0 0 1-.067-.165c0-.082.03-.142.097-.18a.925.925 0 0 1 .233-.06ZM10.717 3.54v.435a.903.903 0 0 0-.172-.023.394.394 0 0 0-.367.21c-.046.075-.068.21-.068.39v.698h-.443V3.57h.428v.307c.12-.225.3-.345.525-.345.023 0 .06.008.098.008ZM11.37 3.405V3h-.442v.405h.442Zm0 1.845V3.57h-.442v1.68h.442ZM13.133 3.765a.808.808 0 0 0-.6-.24c-.27 0-.488.09-.646.263a.912.912 0 0 0-.217.622.9.9 0 0 0 .225.63c.15.173.36.255.623.255a.82.82 0 0 0 .6-.232c.165-.165.247-.383.247-.66a.899.899 0 0 0-.232-.638Zm-.908.248a.335.335 0 0 1 .285-.143c.127 0 .232.053.293.15.067.09.104.225.104.39 0 .18-.037.315-.112.413a.37.37 0 0 1-.57-.015c-.068-.09-.105-.225-.105-.398 0-.172.038-.3.105-.397Z" fill="#fff"/></svg>