<svg class="color-immutable" width="24" height="24" viewBox="0 0 24 24" fill="none" xmlns="http://www.w3.org/2000/svg"><path fill-rule="evenodd" clip-rule="evenodd" d="M22.5 0h-21C.675 0 0 .675 0 1.5v21c0 .825.675 1.5 1.5 1.5h21c.825 0 1.5-.675 1.5-1.5v-21c0-.825-.675-1.5-1.5-1.5Z" fill="#2D327D"/><path fill-rule="evenodd" clip-rule="evenodd" d="M7.425 11.783c.03-1.11.308-2.04.825-2.79.84-1.208 2.093-1.808 3.773-1.808 1.29 0 2.332.33 3.127.99.855.713 1.283 1.635 1.283 2.768 0 .675-.165 1.26-.503 1.747a2.477 2.477 0 0 1-1.357.99c.727.165 1.297.533 1.717 1.11.42.57.63 1.268.63 2.078 0 1.335-.495 2.43-1.477 3.277-.908.788-2.063 1.185-3.45 1.185-1.508 0-2.7-.435-3.585-1.305-.885-.87-1.328-2.04-1.328-3.517v-.173h2.595c0 .833.195 1.47.593 1.928.39.45.952.675 1.672.675s1.275-.21 1.658-.638c.36-.397.532-.877.532-1.432 0-.668-.225-1.193-.682-1.575-.375-.323-.953-.48-1.733-.48-.225 0-.442.015-.652.037v-1.987c.157.015.315.015.465.015 1.552 0 2.325-.578 2.325-1.725 0-.503-.173-.915-.51-1.223-.338-.307-.788-.465-1.335-.465-.63 0-1.125.195-1.47.593-.345.397-.533.967-.555 1.725H7.425ZM5.033 3l-.75 2.25h-.555L2.993 3h.51l.502 1.688L4.515 3h.518ZM6.473 3.765a.808.808 0 0 0-.6-.24c-.27 0-.488.09-.645.262a.912.912 0 0 0-.218.623.9.9 0 0 0 .225.63c.15.172.36.255.623.255a.82.82 0 0 0 .6-.233c.165-.165.247-.382.247-.66a.899.899 0 0 0-.232-.637Zm-.908.247a.335.335 0 0 1 .285-.142c.128 0 .233.052.293.15.067.09.105.225.105.39 0 .18-.038.315-.113.412a.37.37 0 0 1-.57-.015c-.067-.09-.105-.225-.105-.397 0-.173.038-.3.105-.398ZM7.447 3.405V3h-.442v.405h.442Zm0 1.845V3.57h-.442v1.68h.442ZM9.195 4.988a.712.712 0 0 0 .128-.263h-.435a.386.386 0 0 1-.128.173.34.34 0 0 1-.202.052c-.173 0-.285-.067-.345-.217a.697.697 0 0 1-.038-.203h1.178c0-.202-.015-.367-.068-.495a.836.836 0 0 0-.225-.33.746.746 0 0 0-.517-.187c-.248 0-.45.09-.608.277a.9.9 0 0 0-.21.615c0 .12.015.248.06.36a.869.869 0 0 0 .173.278c.15.157.352.24.6.24.277 0 .487-.098.637-.3Zm-.3-.765v.007-.007Zm0 0a.662.662 0 0 0-.052-.195.327.327 0 0 0-.12-.128.348.348 0 0 0-.173-.045c-.097 0-.18.03-.247.098a.405.405 0 0 0-.113.27h.704Z" fill="#fff"/></svg>