<svg class="color-immutable" width="24" height="24" viewBox="0 0 24 24" fill="none" xmlns="http://www.w3.org/2000/svg"><path fill-rule="evenodd" clip-rule="evenodd" d="M22.5 0h-21C.675 0 0 .675 0 1.5v21c0 .825.675 1.5 1.5 1.5h21c.825 0 1.5-.675 1.5-1.5v-21c0-.825-.675-1.5-1.5-1.5Z" fill="#2D327D"/><path fill-rule="evenodd" clip-rule="evenodd" d="M8.827 7.507V21H6.135v-8.835h-3.18v-1.958c.66-.015 1.192-.082 1.612-.202.413-.12.795-.308 1.14-.57.495-.383.833-1.028 1.005-1.928h2.115ZM11.55 11.783c.03-1.11.307-2.04.825-2.79.84-1.208 2.092-1.808 3.773-1.808 1.29 0 2.332.33 3.127.99.855.713 1.283 1.635 1.283 2.768 0 .675-.166 1.26-.503 1.747a2.477 2.477 0 0 1-1.357.99c.727.165 1.297.533 1.717 1.11.42.57.63 1.268.63 2.078 0 1.335-.495 2.43-1.478 3.277-.907.788-2.062 1.185-3.45 1.185-1.507 0-2.7-.435-3.585-1.305-.884-.87-1.327-2.04-1.327-3.517v-.173H13.8c0 .833.195 1.47.592 1.928.39.45.953.675 1.673.675.72 0 1.275-.21 1.657-.638.36-.397.533-.877.533-1.432 0-.668-.225-1.193-.682-1.575-.375-.323-.953-.48-1.733-.48-.225 0-.442.015-.652.037v-1.987c.157.015.314.015.464.015 1.553 0 2.325-.578 2.325-1.725 0-.503-.172-.915-.51-1.223-.337-.307-.787-.465-1.334-.465-.63 0-1.125.195-1.47.593-.345.397-.533.967-.556 1.725H11.55ZM5.032 3l-.75 2.25h-.555L2.992 3h.51l.503 1.688L4.515 3h.517ZM6.473 3.765a.808.808 0 0 0-.6-.24c-.27 0-.488.09-.645.263a.912.912 0 0 0-.218.622.9.9 0 0 0 .225.63c.15.173.36.255.623.255a.82.82 0 0 0 .6-.232c.165-.165.247-.383.247-.66a.899.899 0 0 0-.232-.638Zm-.908.248a.335.335 0 0 1 .285-.143c.128 0 .233.053.293.15.067.09.105.225.105.39 0 .18-.038.315-.113.413a.37.37 0 0 1-.57-.015c-.067-.09-.105-.225-.105-.398 0-.172.038-.3.105-.397ZM7.447 3.405V3h-.442v.405h.442Zm0 1.845V3.57h-.442v1.68h.442ZM9.195 4.987a.712.712 0 0 0 .127-.262h-.435a.386.386 0 0 1-.127.172.34.34 0 0 1-.203.053c-.172 0-.285-.068-.345-.218a.697.697 0 0 1-.037-.202h1.177c0-.203-.015-.368-.067-.495a.836.836 0 0 0-.225-.33.746.746 0 0 0-.518-.188c-.247 0-.45.09-.607.278a.9.9 0 0 0-.21.615c0 .12.015.247.06.36a.869.869 0 0 0 .172.277c.15.158.353.24.6.24.278 0 .488-.097.638-.3Zm-.3-.765v.008-.008Zm0 0a.663.663 0 0 0-.053-.195.327.327 0 0 0-.12-.127.348.348 0 0 0-.172-.045c-.098 0-.18.03-.248.097a.405.405 0 0 0-.112.27h.704Z" fill="#fff"/></svg>