<svg class="color-immutable" width="24" height="24" viewBox="0 0 24 24" fill="none" xmlns="http://www.w3.org/2000/svg"><path fill-rule="evenodd" clip-rule="evenodd" d="M22.5 0h-21C.675 0 0 .675 0 1.5v21c0 .825.675 1.5 1.5 1.5h21c.825 0 1.5-.675 1.5-1.5v-21c0-.825-.675-1.5-1.5-1.5Z" fill="#2D327D"/><path fill-rule="evenodd" clip-rule="evenodd" d="M3.413 13.32c.022-.922.255-1.695.682-2.325.698-1.005 1.748-1.508 3.143-1.508 1.08 0 1.942.278 2.61.825.712.593 1.072 1.366 1.072 2.31 0 .563-.143 1.05-.42 1.456-.277.405-.66.682-1.132.825a2.34 2.34 0 0 1 1.432.922c.352.48.525 1.05.525 1.733 0 1.11-.412 2.024-1.23 2.73-.757.66-1.717.982-2.872.982-1.253 0-2.25-.36-2.985-1.087-.735-.72-1.103-1.703-1.103-2.933v-.142h2.16c0 .69.165 1.23.495 1.604.33.375.795.563 1.395.563s1.058-.18 1.388-.532c.3-.33.442-.728.442-1.193 0-.555-.187-.99-.57-1.313-.315-.27-.795-.397-1.447-.397-.188 0-.368.008-.548.03v-1.65c.135.007.263.015.383.015 1.29 0 1.935-.48 1.935-1.44 0-.42-.143-.758-.42-1.02-.285-.263-.653-.39-1.118-.39-.525 0-.937.165-1.222.495-.285.33-.443.81-.465 1.44h-2.13ZM19.08 10.275c-.645-.525-1.402-.788-2.257-.788-.675 0-1.298.158-1.86.488a3.643 3.643 0 0 0-1.35 1.35c-.608 1.02-.908 2.378-.908 4.073 0 2.384.585 4.064 1.74 5.047.652.555 1.44.832 2.355.832a3.47 3.47 0 0 0 1.83-.495c.547-.33.99-.794 1.328-1.402.577-1.043.862-2.37.862-3.982 0-.976-.113-1.875-.33-2.708-.292-1.088-.765-1.89-1.41-2.415Zm-3.847 2.393c.27-.848.772-1.275 1.507-1.275.758 0 1.275.42 1.553 1.274.217.66.322 1.568.322 2.716 0 1.35-.15 2.355-.45 3.007-.307.652-.765.982-1.387.982-.75 0-1.26-.42-1.538-1.267-.217-.652-.322-1.515-.322-2.595 0-1.215.105-2.168.315-2.842ZM5.093 4.035V5.25h-.315l-.053-.255c-.165.21-.39.308-.675.308-.345 0-.615-.128-.81-.383-.165-.21-.247-.473-.247-.787 0-.353.105-.645.322-.87.203-.21.465-.323.78-.323.293 0 .533.098.72.285a.876.876 0 0 1 .24.51h-.472a.476.476 0 0 0-.165-.285.504.504 0 0 0-.323-.105.531.531 0 0 0-.465.232c-.097.136-.142.316-.142.548 0 .225.045.397.135.532a.56.56 0 0 0 .487.24.515.515 0 0 0 .383-.142.534.534 0 0 0 .157-.367h-.502v-.36l.945.007ZM5.903 3v2.25H5.46V3h.443ZM7.65 4.988a.712.712 0 0 0 .128-.263H7.35a.386.386 0 0 1-.127.173.34.34 0 0 1-.203.052c-.172 0-.285-.067-.345-.217a.697.697 0 0 1-.037-.203h1.17c0-.202-.015-.367-.068-.495a.836.836 0 0 0-.225-.33.746.746 0 0 0-.517-.187c-.248 0-.45.09-.608.277a.9.9 0 0 0-.21.615c0 .12.015.248.06.36a.869.869 0 0 0 .173.278c.15.157.352.24.6.24.277 0 .487-.098.637-.3Zm-.308-.765v.007-.007Zm0 0a.662.662 0 0 0-.052-.195.327.327 0 0 0-.12-.128.348.348 0 0 0-.172-.045c-.098 0-.18.03-.248.098a.405.405 0 0 0-.112.27h.704ZM8.528 3.405V3h-.443v.405h.443Zm0 1.845V3.57h-.443v1.68h.443ZM10.245 4.058h-.42a.253.253 0 0 0-.045-.128c-.045-.06-.135-.09-.255-.09-.082 0-.142.015-.18.045-.037.03-.067.068-.067.12 0 .053.022.098.075.12.052.023.157.053.33.09.217.045.375.098.465.165.112.075.172.195.172.353 0 .18-.067.315-.21.42-.135.097-.322.142-.547.142-.278 0-.488-.067-.615-.21a.63.63 0 0 1-.15-.382h.427c.008.075.03.135.06.172.06.068.15.105.285.105.09 0 .165-.015.218-.052a.182.182 0 0 0 .082-.15.139.139 0 0 0-.067-.128 1.145 1.145 0 0 0-.293-.097c-.142-.038-.247-.06-.307-.083a3.704 3.704 0 0 1-.165-.067.344.344 0 0 1-.143-.15.516.516 0 0 1-.052-.218c0-.172.075-.307.217-.397.12-.075.285-.113.495-.113.278 0 .48.068.6.21a.717.717 0 0 1 .09.323Z" fill="#fff"/></svg>