<svg class="color-immutable" width="24" height="24" viewBox="0 0 24 24" fill="none" xmlns="http://www.w3.org/2000/svg"><path fill-rule="evenodd" clip-rule="evenodd" d="M22.5 0h-21C.675 0 0 .675 0 1.5v21c0 .825.675 1.5 1.5 1.5h21c.825 0 1.5-.675 1.5-1.5v-21c0-.825-.675-1.5-1.5-1.5Z" fill="#2D327D"/><path fill-rule="evenodd" clip-rule="evenodd" d="M10.71 9.758v2.002H6.18l-.487 2.527c.54-.577 1.237-.862 2.085-.862.832 0 1.552.225 2.167.667.915.675 1.373 1.695 1.373 3.06 0 1.343-.488 2.408-1.463 3.195-.758.615-1.665.923-2.723.923-1.192 0-2.145-.322-2.864-.96-.72-.637-1.103-1.5-1.148-2.587h2.205c.037.397.165.727.382 1.005.346.434.818.652 1.433.652.592 0 1.058-.21 1.403-.637.33-.413.502-.923.502-1.515 0-.646-.172-1.163-.525-1.553-.345-.39-.81-.578-1.395-.578-.705 0-1.26.316-1.65.953l-2.01-.03 1.072-6.27 6.173.008ZM14.678 14.963c-.526-.18-.923-.473-1.2-.885-.278-.413-.42-.908-.42-1.493 0-.975.397-1.748 1.2-2.333.705-.51 1.545-.772 2.52-.772 1.11 0 2.01.308 2.715.915.667.578.997 1.283.997 2.13 0 .592-.142 1.095-.42 1.515a2.39 2.39 0 0 1-1.2.915c.405.12.735.27.99.457.713.518 1.073 1.275 1.073 2.265 0 1.14-.436 2.056-1.313 2.73-.735.57-1.688.855-2.843.855-1.252 0-2.257-.314-3-.937-.772-.652-1.162-1.508-1.162-2.558 0-.99.345-1.755 1.027-2.302a2.89 2.89 0 0 1 1.036-.502Zm2.055.847c-.556 0-1.006.172-1.358.51-.352.337-.525.78-.525 1.313 0 .547.18.997.533 1.335.36.345.817.517 1.387.517.645 0 1.133-.188 1.455-.57.315-.367.473-.787.473-1.26 0-.54-.18-.99-.54-1.335-.353-.338-.826-.51-1.425-.51Zm-1.178-4.162c.3-.278.698-.413 1.192-.413.533 0 .945.128 1.245.39.3.262.45.63.45 1.095 0 .48-.142.855-.442 1.132-.3.278-.705.413-1.215.413-.518 0-.922-.143-1.23-.42-.307-.277-.457-.652-.457-1.118 0-.442.157-.802.457-1.08ZM5.093 4.035V5.25h-.315l-.053-.255c-.165.21-.39.308-.675.308-.345 0-.615-.128-.81-.383-.165-.21-.247-.473-.247-.787 0-.353.105-.645.322-.87.203-.21.465-.323.78-.323.293 0 .533.098.72.285a.876.876 0 0 1 .24.51h-.472a.476.476 0 0 0-.165-.285.504.504 0 0 0-.323-.105.531.531 0 0 0-.465.232c-.097.136-.142.316-.142.548 0 .225.045.397.135.532a.56.56 0 0 0 .487.24.515.515 0 0 0 .383-.142.534.534 0 0 0 .157-.367h-.502v-.36l.945.007ZM5.903 3v2.25H5.46V3h.443ZM7.65 4.988a.712.712 0 0 0 .128-.263H7.35a.386.386 0 0 1-.127.173.34.34 0 0 1-.203.052c-.172 0-.285-.067-.345-.217a.697.697 0 0 1-.037-.203h1.17c0-.202-.015-.367-.068-.495a.836.836 0 0 0-.225-.33.746.746 0 0 0-.517-.187c-.248 0-.45.09-.608.277a.9.9 0 0 0-.21.615c0 .12.015.248.06.36a.869.869 0 0 0 .173.278c.15.157.352.24.6.24.277 0 .487-.098.637-.3Zm-.36-.96a.66.66 0 0 1 .053.202l-.705-.007a.405.405 0 0 1 .112-.27.333.333 0 0 1 .248-.098c.06 0 .12.015.172.045.053.03.09.075.12.128ZM8.528 3.405V3h-.443v.405h.443Zm0 1.845V3.57h-.443v1.68h.443ZM10.245 4.057h-.42a.253.253 0 0 0-.045-.127c-.045-.06-.135-.09-.255-.09-.082 0-.142.015-.18.045-.037.03-.067.067-.067.12 0 .052.022.097.075.12.052.022.157.052.33.09.217.045.375.098.465.165.112.075.172.195.172.352 0 .18-.067.315-.21.42-.135.098-.322.143-.547.143-.278 0-.488-.068-.615-.21a.63.63 0 0 1-.15-.383h.427c.008.075.03.135.06.173.06.067.15.105.285.105.09 0 .165-.015.218-.053a.182.182 0 0 0 .082-.15.139.139 0 0 0-.067-.127 1.145 1.145 0 0 0-.293-.098c-.142-.037-.247-.06-.307-.082a3.728 3.728 0 0 1-.165-.068.344.344 0 0 1-.143-.15.516.516 0 0 1-.052-.217c0-.173.075-.308.217-.398.12-.075.285-.112.495-.112.278 0 .48.067.6.21a.717.717 0 0 1 .09.322Z" fill="#fff"/></svg>