<svg class="color-immutable" width="24" height="24" viewBox="0 0 24 24" fill="none" xmlns="http://www.w3.org/2000/svg"><path fill-rule="evenodd" clip-rule="evenodd" d="M22.5 0h-21C.675 0 0 .675 0 1.5v21c0 .825.675 1.5 1.5 1.5h21c.825 0 1.5-.675 1.5-1.5v-21c0-.825-.675-1.5-1.5-1.5Z" fill="#2D327D"/><path fill-rule="evenodd" clip-rule="evenodd" d="M5.49 18.18H3.368c.105.945.48 1.695 1.14 2.258.66.562 1.492.84 2.505.84 1.515 0 2.647-.72 3.397-2.16.578-1.103.863-2.446.863-4.013 0-1.695-.323-3.015-.975-3.953A3.95 3.95 0 0 0 8.925 9.93a3.792 3.792 0 0 0-1.777-.428c-1.043 0-1.935.338-2.678 1.013-.862.78-1.297 1.807-1.297 3.075 0 .63.12 1.223.36 1.755.24.532.57.975.997 1.312.608.48 1.328.72 2.153.72.517 0 .96-.105 1.32-.307.36-.203.712-.548 1.057-1.028a9.505 9.505 0 0 1-.225 1.47c-.157.675-.39 1.17-.682 1.493-.293.322-.675.48-1.148.48-.832 0-1.342-.435-1.515-1.305Zm.39-6.195c.33-.397.743-.593 1.223-.593.54 0 .975.21 1.297.638.315.412.473.908.473 1.5 0 .562-.158 1.042-.458 1.447-.322.428-.75.645-1.29.645-.6 0-1.057-.27-1.387-.795a2.437 2.437 0 0 1-.36-1.32c0-.615.172-1.125.502-1.522ZM14.678 14.963c-.525-.18-.923-.473-1.2-.885-.278-.413-.42-.908-.42-1.493 0-.975.397-1.748 1.2-2.333.705-.51 1.545-.772 2.52-.772 1.11 0 2.01.307 2.715.915.667.578.997 1.283.997 2.13 0 .592-.142 1.095-.42 1.515a2.39 2.39 0 0 1-1.2.915c.405.12.735.27.99.457.713.518 1.073 1.275 1.073 2.265 0 1.14-.435 2.056-1.313 2.73-.735.57-1.687.855-2.842.855-1.253 0-2.258-.314-3-.937-.773-.652-1.163-1.508-1.163-2.558 0-.99.345-1.755 1.028-2.302a2.89 2.89 0 0 1 1.035-.502Zm2.055.847c-.555 0-1.005.172-1.358.51-.352.337-.525.78-.525 1.313 0 .547.18.997.533 1.335.36.345.817.517 1.387.517.645 0 1.133-.188 1.455-.57.315-.367.473-.787.473-1.26 0-.54-.18-.99-.54-1.335-.353-.338-.825-.51-1.425-.51Zm-1.178-4.162c.3-.278.698-.413 1.193-.413.532 0 .945.128 1.245.39.3.262.45.63.45 1.095 0 .48-.143.855-.443 1.132-.3.278-.705.413-1.215.413-.517 0-.922-.143-1.23-.42-.307-.277-.457-.652-.457-1.118 0-.442.157-.802.457-1.08ZM5.093 4.035V5.25h-.315l-.053-.255c-.165.21-.39.307-.675.307-.345 0-.615-.127-.81-.382-.165-.21-.247-.473-.247-.788 0-.352.105-.645.322-.87.203-.21.465-.322.78-.322.293 0 .533.097.72.285a.876.876 0 0 1 .24.51h-.472a.476.476 0 0 0-.165-.285.504.504 0 0 0-.323-.105.531.531 0 0 0-.465.232c-.097.135-.142.315-.142.548 0 .225.045.397.135.532a.56.56 0 0 0 .487.24.515.515 0 0 0 .383-.142.534.534 0 0 0 .157-.368h-.502v-.36l.945.008ZM5.903 3v2.25H5.46V3h.443ZM7.65 4.987a.712.712 0 0 0 .128-.262H7.35a.386.386 0 0 1-.127.172.34.34 0 0 1-.203.053c-.172 0-.285-.068-.345-.218a.697.697 0 0 1-.037-.202h1.17c0-.203-.015-.368-.068-.495a.836.836 0 0 0-.225-.33.746.746 0 0 0-.517-.188c-.248 0-.45.09-.608.278a.9.9 0 0 0-.21.615c0 .12.015.247.06.36a.869.869 0 0 0 .173.277c.15.158.352.24.6.24.277 0 .487-.097.637-.3Zm-.308-.765v.008-.008Zm0 0a.662.662 0 0 0-.052-.195.327.327 0 0 0-.12-.127.348.348 0 0 0-.172-.045c-.098 0-.18.03-.248.097a.405.405 0 0 0-.112.27h.704ZM8.528 3.405V3h-.443v.405h.443Zm0 1.845V3.57h-.443v1.68h.443ZM10.245 4.057h-.42a.253.253 0 0 0-.045-.127c-.045-.06-.135-.09-.255-.09-.082 0-.142.015-.18.045-.037.03-.067.067-.067.12 0 .052.022.097.075.12.052.022.157.052.33.09.217.045.375.097.465.165.112.075.172.195.172.352 0 .18-.067.315-.21.42-.135.098-.322.143-.547.143-.278 0-.488-.068-.615-.21a.63.63 0 0 1-.15-.383h.427c.008.075.03.135.06.173.06.067.15.105.285.105.09 0 .165-.015.218-.053a.182.182 0 0 0 .082-.15.139.139 0 0 0-.067-.127 1.145 1.145 0 0 0-.293-.098c-.142-.037-.247-.06-.307-.082a3.728 3.728 0 0 1-.165-.068.344.344 0 0 1-.143-.15.516.516 0 0 1-.052-.217c0-.173.075-.308.217-.398.12-.075.285-.112.495-.112.278 0 .48.067.6.21a.717.717 0 0 1 .09.322Z" fill="#fff"/></svg>