<svg class="color-immutable" width="24" height="24" viewBox="0 0 24 24" fill="none" xmlns="http://www.w3.org/2000/svg"><path fill-rule="evenodd" clip-rule="evenodd" d="M22.5 0h-21C.675 0 0 .675 0 1.5v21c0 .825.675 1.5 1.5 1.5h21c.825 0 1.5-.675 1.5-1.5v-21c0-.825-.675-1.5-1.5-1.5Z" fill="#2D327D"/><path fill-rule="evenodd" clip-rule="evenodd" d="M10.995 9.758v1.905c-.06.067-.24.277-.547.622-.42.48-.84 1.088-1.253 1.822a12.881 12.881 0 0 0-.967 2.1c-.488 1.403-.78 3-.885 4.793H5.018c.015-.848.165-1.785.442-2.813a18.472 18.472 0 0 1 1.155-3.09c.705-1.454 1.418-2.542 2.138-3.255H3.45V9.758h7.545ZM18.503 9.758V21H16.26v-7.357h-2.655v-1.628c.548-.015.998-.075 1.343-.173.345-.097.66-.255.952-.48.413-.315.698-.854.84-1.604h1.763ZM5.093 4.035V5.25h-.315l-.053-.255c-.165.21-.39.308-.675.308-.345 0-.615-.128-.81-.383-.165-.21-.247-.473-.247-.787 0-.353.105-.645.322-.87.203-.21.465-.323.78-.323.293 0 .533.098.72.285a.876.876 0 0 1 .24.51h-.472a.476.476 0 0 0-.165-.285.504.504 0 0 0-.323-.105.531.531 0 0 0-.465.232c-.097.136-.142.316-.142.548 0 .225.045.397.135.532a.56.56 0 0 0 .487.24.515.515 0 0 0 .383-.142.534.534 0 0 0 .157-.367h-.502v-.36l.945.007ZM5.903 3v2.25H5.46V3h.443ZM7.65 4.988a.712.712 0 0 0 .128-.263H7.35a.386.386 0 0 1-.127.173.34.34 0 0 1-.203.052c-.172 0-.285-.067-.345-.217a.697.697 0 0 1-.037-.203h1.17c0-.202-.015-.367-.068-.495a.836.836 0 0 0-.225-.33.746.746 0 0 0-.517-.187c-.248 0-.45.09-.608.277a.9.9 0 0 0-.21.615c0 .12.015.248.06.36a.869.869 0 0 0 .173.278c.15.157.352.24.6.24.277 0 .487-.098.637-.3Zm-.36-.96a.66.66 0 0 1 .053.202l-.705-.007a.405.405 0 0 1 .112-.27.333.333 0 0 1 .248-.098c.06 0 .12.015.172.045.053.03.09.075.12.128ZM8.528 3.405V3h-.443v.405h.443Zm0 1.845V3.57h-.443v1.68h.443ZM10.245 4.058h-.42a.253.253 0 0 0-.045-.128c-.045-.06-.135-.09-.255-.09-.082 0-.142.015-.18.045-.037.03-.067.068-.067.12 0 .053.022.098.075.12.052.023.157.053.33.09.217.045.375.098.465.165.112.075.172.195.172.353 0 .18-.067.315-.21.42-.135.097-.322.142-.547.142-.278 0-.488-.067-.615-.21a.63.63 0 0 1-.15-.382h.427c.008.075.03.135.06.172.06.068.15.105.285.105.09 0 .165-.015.218-.052a.182.182 0 0 0 .082-.15.139.139 0 0 0-.067-.128 1.145 1.145 0 0 0-.293-.097c-.142-.038-.247-.06-.307-.083a3.704 3.704 0 0 1-.165-.067.344.344 0 0 1-.143-.15.516.516 0 0 1-.052-.218c0-.172.075-.307.217-.397.12-.075.285-.113.495-.113.278 0 .48.068.6.21a.717.717 0 0 1 .09.323Z" fill="#fff"/></svg>