<svg class="color-immutable" width="24" height="24" viewBox="0 0 24 24" fill="none" xmlns="http://www.w3.org/2000/svg"><path fill-rule="evenodd" clip-rule="evenodd" d="M22.5 0h-21C.675 0 0 .675 0 1.5v21c0 .825.675 1.5 1.5 1.5h21c.825 0 1.5-.675 1.5-1.5v-21c0-.825-.675-1.5-1.5-1.5Z" fill="#2D327D"/><path fill-rule="evenodd" clip-rule="evenodd" d="M11.273 18.997V21h-8.1c0-.608.097-1.192.292-1.747a4.236 4.236 0 0 1 .833-1.433c.277-.308.6-.608.975-.9.375-.293 1.11-.825 2.22-1.605.54-.375.915-.72 1.132-1.042.218-.323.323-.698.323-1.125 0-.495-.143-.893-.435-1.193-.293-.307-.668-.457-1.14-.457-1.155 0-1.755.832-1.793 2.497H3.42v-.247c0-1.365.383-2.423 1.148-3.165.742-.728 1.702-1.096 2.887-1.096 1.043 0 1.92.3 2.625.893.765.645 1.148 1.515 1.148 2.61 0 .953-.308 1.777-.915 2.46-.203.225-.39.405-.563.54-.172.135-.63.465-1.38.982-.705.495-1.215.87-1.522 1.133a6.066 6.066 0 0 0-.848.9l5.273-.008ZM15.038 18.18h-2.123c.105.938.488 1.695 1.14 2.258.66.562 1.493.84 2.505.84 1.515 0 2.648-.72 3.398-2.16.577-1.103.862-2.445.862-4.013 0-1.695-.322-3.015-.975-3.953a3.95 3.95 0 0 0-1.372-1.222 3.792 3.792 0 0 0-1.778-.428c-1.042 0-1.935.338-2.677 1.013-.863.78-1.298 1.807-1.298 3.075 0 .63.12 1.215.36 1.755.24.532.57.975.998 1.312.607.48 1.327.72 2.152.72.518 0 .96-.104 1.32-.307.36-.203.713-.547 1.058-1.027a9.502 9.502 0 0 1-.225 1.47c-.158.674-.39 1.17-.683 1.492-.292.323-.675.48-1.147.48-.833 0-1.343-.435-1.515-1.305Zm.397-6.203c.33-.397.743-.592 1.223-.592.532 0 .967.217 1.29.638.315.412.472.907.472 1.5 0 .562-.15 1.042-.45 1.447-.322.428-.75.645-1.29.645-.6 0-1.057-.27-1.387-.795a2.437 2.437 0 0 1-.36-1.32c0-.615.172-1.125.502-1.523ZM5.033 3l-.75 2.25h-.555L2.993 3h.51l.502 1.688L4.515 3h.518ZM6.473 3.765a.808.808 0 0 0-.6-.24c-.27 0-.488.09-.645.263a.912.912 0 0 0-.218.622.9.9 0 0 0 .225.63c.15.173.36.255.623.255a.82.82 0 0 0 .6-.232c.165-.165.247-.383.247-.66a.899.899 0 0 0-.232-.638Zm-.908.248a.335.335 0 0 1 .285-.143c.128 0 .233.053.293.15.067.09.105.225.105.39 0 .18-.038.315-.113.413a.37.37 0 0 1-.57-.015c-.067-.09-.105-.225-.105-.398 0-.172.038-.3.105-.397ZM7.447 3.405V3h-.442v.405h.442Zm0 1.845V3.57h-.442v1.68h.442ZM9.195 4.988a.712.712 0 0 0 .128-.263h-.435a.386.386 0 0 1-.128.173.34.34 0 0 1-.202.052c-.173 0-.285-.067-.345-.217a.697.697 0 0 1-.038-.203h1.178c0-.202-.015-.367-.068-.495a.836.836 0 0 0-.225-.33.746.746 0 0 0-.517-.187c-.248 0-.45.09-.608.277a.9.9 0 0 0-.21.615c0 .12.015.248.06.36a.869.869 0 0 0 .173.278c.15.157.352.24.6.24.277 0 .487-.098.637-.3Zm-.3-.765v.007-.007Zm0 0a.662.662 0 0 0-.052-.195.327.327 0 0 0-.12-.128.348.348 0 0 0-.173-.045c-.097 0-.18.03-.247.098a.405.405 0 0 0-.113.27h.704Z" fill="#fff"/></svg>