<svg class="color-immutable" width="24" height="24" viewBox="0 0 24 24" fill="none" xmlns="http://www.w3.org/2000/svg"><path fill-rule="evenodd" clip-rule="evenodd" d="M22.5 0h-21C.675 0 0 .675 0 1.5v21c0 .825.675 1.5 1.5 1.5h21c.825 0 1.5-.675 1.5-1.5v-21c0-.825-.675-1.5-1.5-1.5Z" fill="#2D327D"/><path fill-rule="evenodd" clip-rule="evenodd" d="M5.49 18.18H3.368c.105.938.487 1.695 1.14 2.258.66.562 1.492.84 2.505.84 1.515 0 2.647-.72 3.397-2.16.578-1.103.863-2.445.863-4.013 0-1.695-.323-3.015-.975-3.952A3.95 3.95 0 0 0 8.925 9.93a3.792 3.792 0 0 0-1.777-.427c-1.043 0-1.935.337-2.678 1.012-.862.78-1.297 1.808-1.297 3.075 0 .63.12 1.223.36 1.755.24.533.57.975.997 1.313.608.48 1.328.72 2.153.72.517 0 .96-.105 1.32-.308.36-.202.712-.547 1.057-1.027a9.502 9.502 0 0 1-.225 1.47c-.157.675-.39 1.17-.682 1.492-.293.323-.675.48-1.148.48-.832 0-1.342-.435-1.515-1.305Zm.398-6.202c.33-.398.742-.593 1.222-.593.533 0 .968.218 1.298.638.315.412.472.907.472 1.5 0 .562-.157 1.042-.457 1.447-.323.428-.75.645-1.29.645-.6 0-1.058-.27-1.388-.795a2.437 2.437 0 0 1-.36-1.32c0-.615.173-1.125.503-1.522ZM12.96 13.32c.022-.922.255-1.695.682-2.325.698-1.005 1.748-1.507 3.143-1.507 1.08 0 1.942.277 2.61.825.713.592 1.073 1.364 1.073 2.31 0 .562-.143 1.05-.42 1.455-.278.405-.66.682-1.133.825a2.34 2.34 0 0 1 1.433.922c.352.48.524 1.05.524 1.733 0 1.11-.412 2.024-1.23 2.73-.757.66-1.717.982-2.88.982-1.252 0-2.25-.36-2.985-1.087-.734-.72-1.102-1.703-1.102-2.933v-.142h2.16c0 .69.165 1.23.495 1.604.33.375.795.563 1.395.563s1.057-.18 1.387-.532c.3-.33.443-.728.443-1.193 0-.555-.188-.99-.57-1.313-.315-.27-.795-.397-1.447-.397-.188 0-.368.008-.548.03v-1.65c.135.007.263.015.382.015 1.29 0 1.936-.48 1.936-1.44 0-.42-.143-.758-.42-1.02-.286-.263-.653-.39-1.118-.39-.525 0-.938.165-1.223.495-.285.33-.442.81-.465 1.44H12.96ZM5.033 3l-.75 2.25h-.555L2.993 3h.51l.502 1.688L4.515 3h.518ZM6.473 3.765a.808.808 0 0 0-.6-.24c-.27 0-.488.09-.645.263a.912.912 0 0 0-.218.622.9.9 0 0 0 .225.63c.15.173.36.255.623.255a.82.82 0 0 0 .6-.232c.165-.165.247-.383.247-.66a.899.899 0 0 0-.232-.638Zm-.908.248a.335.335 0 0 1 .285-.143c.128 0 .233.053.293.15.067.09.105.225.105.39 0 .18-.038.315-.113.413a.37.37 0 0 1-.57-.015c-.067-.09-.105-.225-.105-.398 0-.172.038-.3.105-.397ZM7.447 3.405V3h-.442v.405h.442Zm0 1.845V3.57h-.442v1.68h.442ZM9.195 4.987a.712.712 0 0 0 .128-.262h-.435a.386.386 0 0 1-.128.172.34.34 0 0 1-.202.053c-.173 0-.285-.068-.345-.218a.697.697 0 0 1-.038-.202h1.178c0-.203-.015-.368-.068-.495a.836.836 0 0 0-.225-.33.746.746 0 0 0-.517-.188c-.248 0-.45.09-.608.278a.9.9 0 0 0-.21.615c0 .12.015.247.06.36a.869.869 0 0 0 .173.277c.15.158.352.24.6.24.277 0 .487-.097.637-.3Zm-.3-.765v.008-.008Zm0 0a.662.662 0 0 0-.052-.195.327.327 0 0 0-.12-.127.348.348 0 0 0-.173-.045c-.097 0-.18.03-.247.097a.405.405 0 0 0-.113.27h.704Z" fill="#fff"/></svg>