<svg class="color-immutable" width="24" height="24" viewBox="0 0 24 24" fill="none" xmlns="http://www.w3.org/2000/svg"><path fill-rule="evenodd" clip-rule="evenodd" d="M22.5 0h-21C.675 0 0 .675 0 1.5v21c0 .825.675 1.5 1.5 1.5h21c.825 0 1.5-.675 1.5-1.5v-21c0-.825-.675-1.5-1.5-1.5Z" fill="#2D327D"/><path fill-rule="evenodd" clip-rule="evenodd" d="M8.827 7.507V21H6.135v-8.835h-3.18v-1.958c.66-.015 1.192-.082 1.612-.202.413-.12.795-.308 1.14-.57.495-.383.833-1.028 1.005-1.928h2.115ZM18.96 8.13c-.78-.63-1.688-.945-2.715-.945a4.39 4.39 0 0 0-2.22.57 4.381 4.381 0 0 0-1.62 1.628c-.727 1.23-1.087 2.857-1.087 4.89 0 2.85.697 4.867 2.085 6.052.787.668 1.724.998 2.827.998.802 0 1.537-.195 2.19-.593a4.46 4.46 0 0 0 1.59-1.68c.69-1.245 1.035-2.842 1.035-4.777 0-1.17-.135-2.25-.398-3.248-.352-1.305-.914-2.265-1.687-2.895Zm-4.628 2.865c.316-1.02.923-1.53 1.808-1.53.915 0 1.537.51 1.867 1.53.263.788.39 1.875.39 3.255 0 1.62-.187 2.82-.547 3.608-.36.795-.915 1.185-1.658 1.185-.9 0-1.514-.51-1.845-1.523-.262-.787-.39-1.822-.39-3.112 0-1.463.12-2.603.375-3.413ZM5.032 3l-.75 2.25h-.555L2.992 3h.51l.503 1.688L4.515 3h.517ZM6.473 3.765a.808.808 0 0 0-.6-.24c-.27 0-.488.09-.645.263a.912.912 0 0 0-.218.622.9.9 0 0 0 .225.63c.15.173.36.255.623.255a.82.82 0 0 0 .6-.232c.165-.165.247-.383.247-.66a.899.899 0 0 0-.232-.638Zm-.908.248a.335.335 0 0 1 .285-.143c.128 0 .233.053.293.15.067.09.105.225.105.39 0 .18-.038.315-.113.413a.37.37 0 0 1-.57-.015c-.067-.09-.105-.225-.105-.398 0-.172.038-.3.105-.397ZM7.447 3.405V3h-.442v.405h.442Zm0 1.845V3.57h-.442v1.68h.442ZM9.195 4.987a.712.712 0 0 0 .127-.262h-.435a.386.386 0 0 1-.127.172.34.34 0 0 1-.203.053c-.172 0-.285-.068-.345-.218a.697.697 0 0 1-.037-.202h1.177c0-.203-.015-.368-.067-.495a.836.836 0 0 0-.225-.33.746.746 0 0 0-.518-.188c-.247 0-.45.09-.607.278a.9.9 0 0 0-.21.615c0 .12.015.247.06.36a.869.869 0 0 0 .172.277c.15.158.353.24.6.24.278 0 .488-.097.638-.3Zm-.3-.765v.008-.008Zm0 0a.663.663 0 0 0-.053-.195.327.327 0 0 0-.12-.127.348.348 0 0 0-.172-.045c-.098 0-.18.03-.248.097a.405.405 0 0 0-.112.27h.704Z" fill="#fff"/></svg>