<svg class="color-immutable" width="24" height="24" viewBox="0 0 24 24" fill="none" xmlns="http://www.w3.org/2000/svg"><path fill-rule="evenodd" clip-rule="evenodd" d="M22.5 0h-21C.675 0 0 .675 0 1.5v21c0 .825.675 1.5 1.5 1.5h21c.825 0 1.5-.675 1.5-1.5v-21c0-.825-.675-1.5-1.5-1.5Z" fill="#2D327D"/><path fill-rule="evenodd" clip-rule="evenodd" d="M11.273 19.005V21h-8.1c0-.608.097-1.192.292-1.747a4.236 4.236 0 0 1 .832-1.433c.278-.308.6-.608.975-.9.375-.293 1.11-.825 2.22-1.605.54-.375.915-.72 1.133-1.042.217-.323.322-.698.322-1.125 0-.495-.142-.893-.435-1.193-.292-.307-.667-.457-1.14-.457-1.155 0-1.755.832-1.792 2.497H3.42v-.247c0-1.365.382-2.423 1.147-3.165.743-.728 1.703-1.096 2.888-1.096 1.042 0 1.92.3 2.625.893.765.645 1.147 1.515 1.147 2.61 0 .953-.307 1.777-.915 2.46-.202.225-.39.405-.562.54-.173.135-.63.465-1.38.982-.705.495-1.215.87-1.523 1.133a6.066 6.066 0 0 0-.847.9h5.273ZM14.678 14.963c-.526-.18-.923-.473-1.2-.885-.278-.413-.42-.908-.42-1.493 0-.975.397-1.748 1.2-2.333.705-.51 1.545-.772 2.52-.772 1.11 0 2.01.307 2.715.915.667.578.997 1.283.997 2.13 0 .592-.142 1.095-.42 1.515a2.39 2.39 0 0 1-1.2.915c.405.12.735.27.99.457.713.518 1.073 1.275 1.073 2.265 0 1.14-.436 2.056-1.313 2.73-.735.57-1.688.855-2.843.855-1.252 0-2.257-.314-3-.937-.772-.652-1.162-1.508-1.162-2.558 0-.99.345-1.755 1.027-2.302a2.89 2.89 0 0 1 1.036-.502Zm2.055.847c-.556 0-1.006.172-1.358.51-.352.337-.525.78-.525 1.313 0 .547.18.997.533 1.335.36.345.817.517 1.387.517.645 0 1.133-.188 1.455-.57.315-.367.473-.787.473-1.26 0-.54-.18-.99-.54-1.335-.353-.338-.826-.51-1.425-.51Zm-1.178-4.162c.3-.278.698-.413 1.192-.413.533 0 .945.128 1.245.39.3.262.45.63.45 1.095 0 .48-.142.855-.442 1.132-.3.278-.705.413-1.215.413-.518 0-.922-.143-1.23-.42-.307-.277-.457-.652-.457-1.118 0-.442.157-.802.457-1.08ZM3 3h1.013c.217 0 .382.03.487.083.098.052.18.127.225.224a.547.547 0 0 1-.007.54.507.507 0 0 1-.226.188c.083.03.15.06.196.09a.547.547 0 0 1 .217.465.628.628 0 0 1-.315.555.97.97 0 0 1-.48.105H3V3Zm.495.382v.526h.45c.105 0 .18-.015.233-.038a.233.233 0 0 0 .135-.225c0-.09-.03-.157-.083-.195-.053-.037-.15-.06-.285-.06-.007-.008-.45-.008-.45-.008Zm0 1.478v-.615h.465c.135 0 .225.015.285.037.105.045.157.136.157.27 0 .113-.037.196-.112.248-.06.038-.157.06-.3.06h-.495ZM5.64 3.405V3h-.442v.405h.442Zm0 1.845V3.57h-.442v1.68h.442ZM6.42 3.57v.233a.604.604 0 0 1 .143-.158.662.662 0 0 1 .397-.127c.135 0 .255.037.353.105a.435.435 0 0 1 .157.21c.03.082.045.202.045.36V5.25h-.442v-.96a.666.666 0 0 0-.03-.24.177.177 0 0 0-.09-.105.302.302 0 0 0-.165-.045.339.339 0 0 0-.188.053.26.26 0 0 0-.12.135.738.738 0 0 0-.045.3v.862h-.442V3.57h.427ZM8.925 5.25h.458a.562.562 0 0 1-.053-.173c-.007-.06-.007-.15-.007-.27v-.345c.007-.202.007-.315.007-.337 0-.128-.015-.218-.03-.27a.345.345 0 0 0-.112-.158c-.128-.105-.315-.157-.578-.157-.232 0-.412.045-.54.142-.127.09-.195.233-.21.42h.42a.3.3 0 0 1 .098-.195c.045-.037.12-.052.225-.052.195 0 .292.067.292.217 0 .068-.022.113-.067.135-.045.023-.15.045-.33.068-.21.03-.353.06-.428.09a.44.44 0 0 0-.285.435c0 .165.053.292.165.382.098.083.233.12.405.12a.735.735 0 0 0 .54-.217c0 .045.008.097.03.165Zm-.352-.728a.774.774 0 0 0 .315-.082v.18c0 .052 0 .105-.015.135l-.008.015c-.013.027-.027.057-.052.082a.387.387 0 0 1-.315.135.28.28 0 0 1-.188-.06.21.21 0 0 1-.067-.165c0-.082.03-.142.097-.18a.925.925 0 0 1 .233-.06ZM10.717 3.54v.435a.903.903 0 0 0-.172-.023.394.394 0 0 0-.367.21c-.046.075-.068.21-.068.39v.698h-.443V3.57h.428v.307c.12-.225.3-.345.525-.345.023 0 .06.008.098.008ZM11.37 3.405V3h-.442v.405h.442Zm0 1.845V3.57h-.442v1.68h.442ZM13.133 3.765a.808.808 0 0 0-.6-.24c-.27 0-.488.09-.646.263a.912.912 0 0 0-.217.622.9.9 0 0 0 .225.63c.15.173.36.255.623.255a.82.82 0 0 0 .6-.232c.165-.165.247-.383.247-.66a.899.899 0 0 0-.232-.638Zm-.908.248a.335.335 0 0 1 .285-.143c.127 0 .232.053.293.15.067.09.104.225.104.39 0 .18-.037.315-.112.413a.37.37 0 0 1-.57-.015c-.068-.09-.105-.225-.105-.398 0-.172.038-.3.105-.397Z" fill="#fff"/></svg>