<svg class="color-immutable" width="24" height="24" viewBox="0 0 24 24" fill="none" xmlns="http://www.w3.org/2000/svg"><path fill-rule="evenodd" clip-rule="evenodd" d="M22.5 0h-21C.675 0 0 .675 0 1.5v21c0 .825.675 1.5 1.5 1.5h21c.825 0 1.5-.675 1.5-1.5v-21c0-.825-.675-1.5-1.5-1.5Z" fill="#2D327D"/><path fill-rule="evenodd" clip-rule="evenodd" d="M3.413 13.32c.022-.922.255-1.695.682-2.325.698-1.005 1.748-1.507 3.143-1.507 1.08 0 1.942.277 2.61.825.712.592 1.072 1.364 1.072 2.31 0 .562-.143 1.05-.42 1.455s-.66.682-1.132.825a2.34 2.34 0 0 1 1.432.922c.352.48.525 1.05.525 1.733 0 1.11-.412 2.024-1.23 2.73-.757.66-1.717.982-2.872.982-1.253 0-2.25-.36-2.985-1.087-.735-.72-1.103-1.703-1.103-2.933v-.142h2.16c0 .69.165 1.23.495 1.604.33.375.795.563 1.395.563s1.058-.18 1.388-.532c.3-.33.442-.728.442-1.193 0-.555-.187-.99-.57-1.313-.315-.27-.795-.397-1.447-.397-.188 0-.368.008-.548.03v-1.65c.135.007.263.015.383.015 1.29 0 1.935-.48 1.935-1.44 0-.42-.143-.758-.42-1.02-.285-.263-.653-.39-1.118-.39-.525 0-.937.165-1.222.495-.285.33-.443.81-.465 1.44h-2.13ZM14.678 14.963c-.526-.18-.923-.473-1.2-.885-.278-.413-.42-.908-.42-1.493 0-.975.397-1.748 1.2-2.333.705-.51 1.545-.772 2.52-.772 1.11 0 2.01.308 2.715.915.667.578.997 1.283.997 2.13 0 .592-.142 1.095-.42 1.515a2.39 2.39 0 0 1-1.2.915c.405.12.735.27.99.457.713.518 1.073 1.275 1.073 2.265 0 1.14-.436 2.056-1.313 2.73-.735.57-1.688.855-2.843.855-1.252 0-2.257-.314-3-.937-.772-.652-1.162-1.508-1.162-2.558 0-.99.345-1.755 1.027-2.302a2.89 2.89 0 0 1 1.036-.502Zm2.055.847c-.556 0-1.006.172-1.358.51-.352.337-.525.78-.525 1.313 0 .547.18.997.533 1.335.36.345.817.517 1.387.517.645 0 1.133-.188 1.455-.57.315-.367.473-.787.473-1.26 0-.54-.18-.99-.54-1.335-.346-.345-.826-.51-1.425-.51Zm-1.178-4.162c.3-.278.698-.413 1.192-.413.533 0 .953.128 1.245.39.3.262.45.63.45 1.095 0 .48-.142.855-.442 1.132-.3.278-.705.413-1.215.413-.518 0-.922-.143-1.23-.42-.307-.277-.457-.652-.457-1.118 0-.442.157-.802.457-1.08ZM5.033 3l-.75 2.25h-.555L2.993 3h.51l.502 1.688L4.515 3h.518ZM6.473 3.765a.808.808 0 0 0-.6-.24c-.27 0-.488.09-.645.263a.912.912 0 0 0-.218.622.9.9 0 0 0 .225.63c.15.173.36.255.623.255a.82.82 0 0 0 .6-.232c.165-.165.247-.383.247-.66a.899.899 0 0 0-.232-.638Zm-.908.248a.335.335 0 0 1 .285-.143c.128 0 .233.053.293.15.067.09.105.225.105.39 0 .18-.038.315-.113.413a.37.37 0 0 1-.57-.015c-.067-.09-.105-.225-.105-.398 0-.172.038-.3.105-.397ZM7.447 3.405V3h-.442v.405h.442Zm0 1.845V3.57h-.442v1.68h.442ZM9.195 4.988a.712.712 0 0 0 .128-.263h-.435a.386.386 0 0 1-.128.173.34.34 0 0 1-.202.052c-.173 0-.285-.067-.345-.217a.697.697 0 0 1-.038-.203h1.178c0-.202-.015-.367-.068-.495a.836.836 0 0 0-.225-.33.746.746 0 0 0-.517-.187c-.248 0-.45.09-.608.277a.9.9 0 0 0-.21.615c0 .12.015.248.06.36a.869.869 0 0 0 .173.278c.15.157.352.24.6.24.277 0 .487-.098.637-.3Zm-.3-.765v.007-.007Zm0 0a.662.662 0 0 0-.052-.195.327.327 0 0 0-.12-.128.348.348 0 0 0-.173-.045c-.097 0-.18.03-.247.098a.405.405 0 0 0-.113.27h.704Z" fill="#fff"/></svg>