<svg class="color-immutable" width="24" height="24" viewBox="0 0 24 24" fill="none" xmlns="http://www.w3.org/2000/svg"><path fill-rule="evenodd" clip-rule="evenodd" d="M22.5 0h-21C.675 0 0 .675 0 1.5v21c0 .825.675 1.5 1.5 1.5h21c.825 0 1.5-.675 1.5-1.5v-21c0-.825-.675-1.5-1.5-1.5Z" fill="#2D327D"/><path fill-rule="evenodd" clip-rule="evenodd" d="M9.488 13.755c-.63-.218-1.11-.57-1.448-1.058-.337-.495-.502-1.087-.502-1.792 0-1.17.48-2.1 1.44-2.798.847-.615 1.86-.922 3.03-.922 1.327 0 2.415.367 3.255 1.095.802.69 1.2 1.537 1.2 2.557 0 .705-.173 1.313-.51 1.815-.338.503-.818.87-1.44 1.095.487.143.885.323 1.192.548.855.622 1.283 1.53 1.283 2.722 0 1.373-.526 2.468-1.575 3.278-.886.682-2.026 1.027-3.413 1.027-1.508 0-2.707-.375-3.6-1.125-.93-.78-1.395-1.807-1.395-3.075 0-1.185.413-2.107 1.237-2.76a3.502 3.502 0 0 1 1.246-.607Zm2.46 1.012c-.668 0-1.208.203-1.628.615-.42.413-.63.93-.63 1.575 0 .66.21 1.193.645 1.605.427.413.982.615 1.665.615.773 0 1.357-.225 1.748-.682a2.26 2.26 0 0 0 .562-1.515c0-.653-.218-1.185-.645-1.605-.42-.398-.99-.608-1.717-.608Zm-1.41-4.995c.367-.33.84-.495 1.432-.495.637 0 1.125.158 1.485.473.36.315.54.75.54 1.312 0 .57-.172 1.028-.532 1.358-.353.33-.84.495-1.455.495-.615 0-1.103-.165-1.47-.503-.368-.337-.548-.78-.548-1.342 0-.533.188-.968.547-1.298ZM5.093 4.035V5.25h-.315l-.053-.255c-.165.21-.39.307-.675.307-.345 0-.615-.127-.81-.382-.165-.21-.247-.473-.247-.788 0-.352.105-.645.322-.87.203-.21.465-.322.78-.322.293 0 .533.097.72.285a.876.876 0 0 1 .24.51h-.472a.476.476 0 0 0-.165-.285.504.504 0 0 0-.323-.105.531.531 0 0 0-.465.232c-.097.135-.142.315-.142.548 0 .225.045.397.135.532a.56.56 0 0 0 .487.24.515.515 0 0 0 .383-.142.534.534 0 0 0 .157-.368h-.502v-.36l.945.008ZM5.903 3v2.25H5.46V3h.443ZM7.65 4.987a.712.712 0 0 0 .128-.262H7.35a.386.386 0 0 1-.127.172.34.34 0 0 1-.203.053c-.172 0-.285-.068-.345-.218a.697.697 0 0 1-.037-.202h1.17c0-.203-.015-.368-.068-.495a.836.836 0 0 0-.225-.33.746.746 0 0 0-.517-.188c-.248 0-.45.09-.608.278a.9.9 0 0 0-.21.615c0 .12.015.247.06.36a.869.869 0 0 0 .173.277c.15.158.352.24.6.24.277 0 .487-.097.637-.3Zm-.308-.765v.008-.008Zm0 0a.662.662 0 0 0-.052-.195.327.327 0 0 0-.12-.127.348.348 0 0 0-.172-.045c-.098 0-.18.03-.248.097a.405.405 0 0 0-.112.27h.704ZM8.528 3.405V3h-.443v.405h.443Zm0 1.845V3.57h-.443v1.68h.443ZM10.245 4.057h-.42a.253.253 0 0 0-.045-.127c-.045-.06-.135-.09-.255-.09-.082 0-.142.015-.18.045-.037.03-.067.067-.067.12 0 .052.022.097.075.12.052.022.157.052.33.09.217.045.375.097.465.165.112.075.172.195.172.352 0 .18-.067.315-.21.42-.135.098-.322.143-.547.143-.278 0-.488-.068-.615-.21a.63.63 0 0 1-.15-.383h.427c.008.075.03.135.06.173.06.067.15.105.285.105.09 0 .165-.015.218-.053a.182.182 0 0 0 .082-.15.139.139 0 0 0-.067-.127 1.145 1.145 0 0 0-.293-.098c-.142-.037-.247-.06-.307-.082a3.728 3.728 0 0 1-.165-.068.344.344 0 0 1-.143-.15.516.516 0 0 1-.052-.217c0-.173.075-.308.217-.398.12-.075.285-.112.495-.112.278 0 .48.067.6.21a.717.717 0 0 1 .09.322Z" fill="#fff"/></svg>