<svg class="color-immutable" width="24" height="24" viewBox="0 0 24 24" fill="none" xmlns="http://www.w3.org/2000/svg"><path fill-rule="evenodd" clip-rule="evenodd" d="M22.5 0h-21C.675 0 0 .675 0 1.5v21c0 .825.675 1.5 1.5 1.5h21c.825 0 1.5-.675 1.5-1.5v-21c0-.825-.675-1.5-1.5-1.5Z" fill="#2D327D"/><path fill-rule="evenodd" clip-rule="evenodd" d="M11.273 18.997V21h-8.1c0-.608.097-1.192.292-1.747a4.236 4.236 0 0 1 .833-1.433c.277-.307.6-.607.975-.9.375-.293 1.11-.825 2.22-1.605.54-.375.915-.72 1.132-1.042.218-.323.323-.698.323-1.125 0-.495-.143-.893-.435-1.193-.293-.307-.668-.457-1.14-.457-1.155 0-1.755.832-1.793 2.497H3.42v-.247c0-1.365.383-2.423 1.148-3.165.742-.728 1.702-1.095 2.887-1.095 1.043 0 1.92.3 2.625.892.765.645 1.148 1.515 1.148 2.61 0 .953-.308 1.777-.915 2.46-.203.225-.39.405-.563.54-.172.135-.63.465-1.38.982-.705.496-1.215.87-1.522 1.133a6.066 6.066 0 0 0-.848.9l5.273-.008ZM20.925 18.428V16.53h-1.41V9.758h-2.077l-4.808 6.57v2.107h4.688V21h2.19v-2.572h1.417Zm-3.562-6.053v4.185h-2.895l2.895-4.185ZM5.033 3l-.75 2.25h-.555L2.993 3h.51l.502 1.688L4.515 3h.518ZM6.473 3.765a.808.808 0 0 0-.6-.24c-.27 0-.488.09-.645.263a.912.912 0 0 0-.218.622.9.9 0 0 0 .225.63c.15.173.36.255.623.255a.82.82 0 0 0 .6-.232c.165-.165.247-.383.247-.66a.899.899 0 0 0-.232-.638Zm-.908.248a.335.335 0 0 1 .285-.143c.128 0 .233.053.293.15.067.09.105.225.105.39 0 .18-.038.315-.113.413a.37.37 0 0 1-.57-.015c-.067-.09-.105-.225-.105-.398 0-.172.038-.3.105-.397ZM7.447 3.405V3h-.442v.405h.442Zm0 1.845V3.57h-.442v1.68h.442ZM9.195 4.987a.712.712 0 0 0 .128-.262h-.435a.386.386 0 0 1-.128.172.34.34 0 0 1-.202.053c-.173 0-.285-.068-.345-.218a.697.697 0 0 1-.038-.202h1.178c0-.203-.015-.368-.068-.495a.836.836 0 0 0-.225-.33.746.746 0 0 0-.517-.188c-.248 0-.45.09-.608.278a.9.9 0 0 0-.21.615c0 .12.015.247.06.36a.869.869 0 0 0 .173.277c.15.158.352.24.6.24.277 0 .487-.097.637-.3Zm-.3-.765v.008-.008Zm0 0a.662.662 0 0 0-.052-.195.327.327 0 0 0-.12-.127.348.348 0 0 0-.173-.045c-.097 0-.18.03-.247.097a.405.405 0 0 0-.113.27h.704Z" fill="#fff"/></svg>