<svg class="color-immutable" width="24" height="24" viewBox="0 0 24 24" fill="none" xmlns="http://www.w3.org/2000/svg"><g clip-path="url(#a)"><path d="M0 22.5v-21C0 .675.675 0 1.5 0h21c.825 0 1.5.675 1.5 1.5v21c0 .825-.675 1.5-1.5 1.5h-21C.675 24 0 23.325 0 22.5Z" fill="#2D327D"/><path d="M4.454 18.483c0 1.45 1.18 2.63 2.63 2.63s2.63-1.18 2.63-2.63-1.18-2.63-2.63-2.63a2.633 2.633 0 0 0-2.63 2.63Zm.759 0c0-1.032.839-1.871 1.87-1.871 1.031 0 1.87.839 1.87 1.871 0 1.031-.839 1.87-1.87 1.87a1.872 1.872 0 0 1-1.87-1.87ZM11.208 18.483c0 1.45 1.18 2.63 2.63 2.63s2.63-1.18 2.63-2.63-1.18-2.63-2.63-2.63-2.63 1.18-2.63 2.63Zm.76 0c0-1.032.839-1.871 1.87-1.871 1.031 0 1.871.839 1.871 1.871 0 1.031-.839 1.87-1.871 1.87a1.872 1.872 0 0 1-1.87-1.87ZM3.02 9.483a10.45 10.45 0 0 0 2.397 5.625h10.151a10.45 10.45 0 0 0 2.397-5.625H3.02ZM9.492 8.733c.412 0 .581-.292.375-.649L6.724 2.64A7.467 7.467 0 0 0 3 8.733h6.492ZM20.208 8.435h-4.5v.6h4.5a.3.3 0 0 0 .3-.3.3.3 0 0 0-.3-.3Z" fill="#fff"/></g><defs><clipPath id="a"><path fill="#fff" d="M0 0h24v24H0z"/></clipPath></defs></svg>