<svg class="color-immutable" width="24" height="24" viewBox="0 0 24 24" fill="none" xmlns="http://www.w3.org/2000/svg"><g clip-path="url(#a)"><path d="M0 22.5v-21C0 .675.675 0 1.5 0h21c.825 0 1.5.675 1.5 1.5v21c0 .825-.675 1.5-1.5 1.5h-21C.675 24 0 23.325 0 22.5Z" fill="#2D327D"/><path d="M18.68 18.483c0-1.45-1.18-2.63-2.63-2.63s-2.63 1.18-2.63 2.63 1.18 2.63 2.63 2.63 2.63-1.18 2.63-2.63Zm-.76 0c0 1.031-.839 1.87-1.87 1.87a1.872 1.872 0 0 1-1.87-1.87c0-1.032.839-1.871 1.87-1.871 1.031 0 1.87.839 1.87 1.871ZM11.925 18.483c0-1.45-1.18-2.63-2.63-2.63s-2.63 1.18-2.63 2.63 1.18 2.63 2.63 2.63 2.63-1.18 2.63-2.63Zm-.759 0c0 1.031-.839 1.87-1.87 1.87a1.873 1.873 0 0 1-1.871-1.87c0-1.032.839-1.871 1.871-1.871 1.031 0 1.87.839 1.87 1.871ZM20.113 9.483a10.45 10.45 0 0 1-2.397 5.625H7.564a10.45 10.45 0 0 1-2.397-5.625h14.946ZM13.641 8.733c-.412 0-.581-.292-.375-.649l3.142-5.443a7.467 7.467 0 0 1 3.724 6.092h-6.491ZM2.925 8.435h4.5v.6h-4.5a.3.3 0 0 1-.3-.3.3.3 0 0 1 .3-.3Z" fill="#fff"/></g><defs><clipPath id="a"><path fill="#fff" d="M0 0h24v24H0z"/></clipPath></defs></svg>