<svg class="color-immutable" width="30" height="30" viewBox="0 0 30 30" fill="none" xmlns="http://www.w3.org/2000/svg"><g clip-path="url(#a)"><path d="M30 0H0v30h30V0Z" fill="#2D327D"/><path d="M25.5 3c.825 0 1.5.675 1.5 1.5v21c0 .825-.675 1.5-1.5 1.5h-21c-.825 0-1.5-.675-1.5-1.5v-21C3 3.675 3.675 3 4.5 3h21Zm0-.375h-21A1.877 1.877 0 0 0 2.625 4.5v21c0 1.034.841 1.875 1.875 1.875h21a1.877 1.877 0 0 0 1.875-1.875v-21A1.877 1.877 0 0 0 25.5 2.625Z" fill="#fff"/><path d="M7.454 21.483c0 1.45 1.18 2.63 2.63 2.63s2.63-1.18 2.63-2.63-1.18-2.63-2.63-2.63-2.63 1.18-2.63 2.63Zm.759 0c0-1.032.84-1.87 1.87-1.87 1.032 0 1.87.838 1.87 1.87 0 1.031-.838 1.87-1.87 1.87-1.03 0-1.87-.839-1.87-1.87ZM14.208 21.483c0 1.45 1.18 2.63 2.63 2.63s2.63-1.18 2.63-2.63-1.18-2.63-2.63-2.63-2.63 1.18-2.63 2.63Zm.76 0c0-1.032.839-1.87 1.87-1.87 1.031 0 1.87.838 1.87 1.87 0 1.031-.839 1.87-1.87 1.87-1.031 0-1.87-.839-1.87-1.87ZM6.02 12.483c.228 2.13 1.09 4.07 2.398 5.625h10.15a10.45 10.45 0 0 0 2.398-5.625H6.02ZM12.492 11.733c.412 0 .581-.293.375-.65L9.724 5.64A7.466 7.466 0 0 0 6 11.733h6.492ZM23.208 11.435h-4.5v.6h4.5a.3.3 0 0 0 .3-.3.3.3 0 0 0-.3-.3Z" fill="#fff"/></g><defs><clipPath id="a"><path fill="#fff" d="M0 0h30v30H0z"/></clipPath></defs></svg>