<svg class="color-immutable" width="30" height="30" viewBox="0 0 30 30" fill="none" xmlns="http://www.w3.org/2000/svg"><path d="M30 30H0V0h30v30Z" fill="#2D327D"/><path d="M25.5 3c.825 0 1.5.675 1.5 1.5v21c0 .825-.675 1.5-1.5 1.5h-21c-.825 0-1.5-.675-1.5-1.5v-21C3 3.675 3.675 3 4.5 3h21Zm0-.375h-21A1.877 1.877 0 0 0 2.625 4.5v21c0 1.034.841 1.875 1.875 1.875h21a1.877 1.877 0 0 0 1.875-1.875v-21A1.877 1.877 0 0 0 25.5 2.625Z" fill="#fff"/><path d="M10.778 6.709a1.862 1.862 0 0 0-2.154-.083L5.983 8.15h4.795V6.709ZM13.41 10.648a9.341 9.341 0 0 0 4.733-2.123H13.41v2.123ZM13.41 8.15h4.795l-2.64-1.524h-.001a1.866 1.866 0 0 0-2.154.083V8.15ZM10.778 8.525H6.045a9.34 9.34 0 0 0 4.733 2.123V8.525Z" fill="#fff"/><path d="M18.846 13.064a.938.938 0 0 0-.938.938v2.449h-.375v-3.583a.937.937 0 0 0-1.875 0v2.85h-.376v-3.597a.937.937 0 1 0-1.875 0v2.827h-.376V6.917a.937.937 0 1 0-1.875 0V17.23h-.376v-2.407c0-.595-.375-1.125-.936-1.324a.702.702 0 0 0-.935.662v4.524l-.003.002c0 .468.097.951.253 1.328L10.809 24h7.777l.96-2.328c.158-.415.237-.855.237-1.325V14a.938.938 0 0 0-.937-.937Z" fill="#fff"/></svg>