<svg class="color-immutable" width="24" height="24" viewBox="0 0 24 24" fill="none" xmlns="http://www.w3.org/2000/svg"><g clip-path="url(#a)"><path d="M0 22.5v-21C0 .675.675 0 1.5 0h21c.825 0 1.5.675 1.5 1.5v21c0 .825-.675 1.5-1.5 1.5h-21C.675 24 0 23.325 0 22.5Z" fill="#2D327D"/><path d="M6.246 5.627a1.312 1.312 0 1 1 0-2.625 1.312 1.312 0 0 1 0 2.625ZM20.999 21H6.674v-.663L20.999 18v3ZM4.949 16.21V8.513l-.824 1.05v2.813a.489.489 0 0 1-.976 0V9.181c0-.168.056-.331.16-.463L4.895 6.7a1.498 1.498 0 0 1 2.679.927v5.046l1.542 1.543c.141.14.22.331.22.53v3.91a.694.694 0 0 1-1.387 0v-3.434l-1.5-1.5v2.502a.75.75 0 0 1-.126.416l-2.376 3.676a.693.693 0 1 1-1.165-.753l2.167-3.353Z" fill="#fff"/><path d="M9.28 11.545a.502.502 0 0 1-.172-.03l-.897-.325v-1.077l1.241.449a.506.506 0 0 1-.172.983Z" fill="#fff"/></g><defs><clipPath id="a"><path fill="#fff" d="M0 0h24v24H0z"/></clipPath></defs></svg>