<svg class="color-immutable" width="24" height="24" viewBox="0 0 24 24" fill="none" xmlns="http://www.w3.org/2000/svg"><g clip-path="url(#a)"><path d="M0 22.5v-21C0 .675.675 0 1.5 0h21c.825 0 1.5.675 1.5 1.5v21c0 .825-.675 1.5-1.5 1.5h-21C.675 24 0 23.325 0 22.5Z" fill="#2D327D"/><path d="M3 21.001h14.25v-.6L3 18.076v2.925ZM20.485 11.604a.507.507 0 0 0 .198-.972l-.958-.407v1.1l.562.238c.062.028.13.041.198.041Z" fill="#fff"/><path d="M19.125 13.051V7.467a1.5 1.5 0 0 0-2.727-.863l-1.561 2.219a.749.749 0 0 0-.137.432v2.989a.506.506 0 1 0 1.012 0V9.468l.712-1.013V16.2l-1.323 2.259a.713.713 0 0 0 1.229.721l1.491-2.546a.751.751 0 0 0 .103-.379v-2.284l1.65 2.839v3.29a.712.712 0 0 0 1.424 0v-3.62a.758.758 0 0 0-.101-.377l-1.772-3.052ZM17.839 5.606a1.313 1.313 0 1 0-.002-2.626 1.313 1.313 0 0 0 .002 2.626Z" fill="#fff"/></g><defs><clipPath id="a"><path fill="#fff" d="M0 0h24v24H0z"/></clipPath></defs></svg>