<svg class="color-immutable" width="30" height="30" viewBox="0 0 30 30" fill="none" xmlns="http://www.w3.org/2000/svg"><path d="M30 0H0v30h30V0Z" fill="#2D327D"/><path d="M25.5 3c.825 0 1.5.675 1.5 1.5v21c0 .825-.675 1.5-1.5 1.5h-21c-.825 0-1.5-.675-1.5-1.5v-21C3 3.675 3.675 3 4.5 3h21Zm0-.375h-21A1.877 1.877 0 0 0 2.625 4.5v21c0 1.034.841 1.875 1.875 1.875h21a1.877 1.877 0 0 0 1.875-1.875v-21A1.877 1.877 0 0 0 25.5 2.625Z" fill="#fff"/><path d="M6 24h14.25v-.599L6 21.076V24ZM23.485 14.604a.506.506 0 0 0 .198-.972l-.958-.407v1.1l.562.239c.062.027.13.04.198.04Z" fill="#fff"/><path d="M22.125 16.051v-5.584a1.5 1.5 0 0 0-2.727-.863l-1.561 2.219a.751.751 0 0 0-.137.432v2.989a.506.506 0 0 0 1.013 0v-2.776l.712-1.012V19.2l-1.323 2.26a.713.713 0 0 0 1.229.72l1.49-2.546a.749.749 0 0 0 .104-.378v-2.284l1.65 2.84V23.1a.712.712 0 0 0 1.425 0v-3.62a.748.748 0 0 0-.101-.376l-1.774-3.053ZM20.838 8.606a1.313 1.313 0 1 0 0-2.626 1.313 1.313 0 0 0 0 2.626Z" fill="#fff"/></svg>