<svg class="color-immutable" width="30" height="30" viewBox="0 0 30 30" fill="none" xmlns="http://www.w3.org/2000/svg"><path d="M30 0H0v30h30V0Z" fill="#2D327D"/><path d="M25.5 3c.825 0 1.5.675 1.5 1.5v21c0 .825-.675 1.5-1.5 1.5h-21c-.825 0-1.5-.675-1.5-1.5v-21C3 3.675 3.675 3 4.5 3h21Zm0-.375h-21A1.877 1.877 0 0 0 2.625 4.5v21c0 1.034.841 1.875 1.875 1.875h21a1.877 1.877 0 0 0 1.875-1.875v-21A1.877 1.877 0 0 0 25.5 2.625Z" fill="#fff"/><path d="M9.246 8.627A1.313 1.313 0 1 1 9.247 6a1.313 1.313 0 0 1-.001 2.626ZM23.999 24H9.674v-.663L23.999 21v3ZM7.949 19.21v-7.697l-.825 1.05v2.812a.488.488 0 0 1-.975 0V12.18c0-.168.056-.331.16-.463L7.895 9.7a1.5 1.5 0 0 1 2.68.927v5.046l1.542 1.543c.14.14.22.331.22.53v3.91a.694.694 0 1 1-1.388 0v-3.434l-1.5-1.5v2.502a.746.746 0 0 1-.126.416l-2.376 3.676a.693.693 0 1 1-1.165-.753L7.95 19.21Z" fill="#fff"/><path d="M12.28 14.545a.497.497 0 0 1-.172-.03l-.897-.325v-1.077l1.241.45a.506.506 0 0 1-.172.982Z" fill="#fff"/></svg>