<svg class="color-immutable" width="30" height="30" viewBox="0 0 30 30" fill="none" xmlns="http://www.w3.org/2000/svg"><path d="M30 0H0v30h30V0Z" fill="#2D327D"/><path d="M25.5 3c.825 0 1.5.675 1.5 1.5v21c0 .825-.675 1.5-1.5 1.5h-21c-.825 0-1.5-.675-1.5-1.5v-21C3 3.675 3.675 3 4.5 3h21Zm0-.375h-21A1.877 1.877 0 0 0 2.625 4.5v21c0 1.034.841 1.875 1.875 1.875h21a1.877 1.877 0 0 0 1.875-1.875v-21A1.877 1.877 0 0 0 25.5 2.625Z" fill="#fff"/><path d="M20.753 8.627a1.313 1.313 0 1 0 0-2.626 1.313 1.313 0 0 0 0 2.626ZM6 24h14.325v-.663L6 21v3ZM22.05 19.21v-7.697l.825 1.05v2.812a.488.488 0 0 0 .975 0V12.18a.747.747 0 0 0-.16-.463L22.104 9.7a1.5 1.5 0 0 0-2.679.927v5.046l-1.542 1.543a.748.748 0 0 0-.22.53v3.91a.694.694 0 0 0 1.387 0v-3.434l1.5-1.5v2.502c0 .148.044.293.126.416l2.376 3.676a.693.693 0 1 0 1.165-.753L22.05 19.21Z" fill="#fff"/><path d="M17.719 14.545c.059 0 .117-.01.172-.03l.897-.325v-1.077l-1.241.45a.506.506 0 0 0 .172.982Z" fill="#fff"/></svg>