<svg class="color-immutable" width="24" height="24" viewBox="0 0 24 24" fill="none" xmlns="http://www.w3.org/2000/svg"><path fill-rule="evenodd" clip-rule="evenodd" d="M22.5 0h-21C.675 0 0 .675 0 1.5v21c0 .825.675 1.5 1.5 1.5h21c.825 0 1.5-.675 1.5-1.5v-21c0-.825-.675-1.5-1.5-1.5Z" fill="#2D327D"/><path fill-rule="evenodd" clip-rule="evenodd" d="M6.247 5.625a1.31 1.31 0 0 1-1.312-1.313A1.31 1.31 0 0 1 6.248 3 1.31 1.31 0 0 1 7.56 4.313c0 .727-.592 1.312-1.313 1.312ZM21 21H6.675v-.66L21 18v3ZM4.95 16.207V8.512l-.825 1.05v2.813a.487.487 0 1 1-.975 0V9.18c0-.165.052-.33.157-.465L4.89 6.697c.285-.36.72-.57 1.177-.57.825 0 1.5.675 1.5 1.5v5.048l1.545 1.545c.143.142.218.33.218.532v3.908c0 .382-.308.69-.69.69a.688.688 0 0 1-.69-.69v-3.435l-1.5-1.5v2.505c0 .15-.045.292-.128.412l-2.377 3.675a.696.696 0 0 1-.585.315.69.69 0 0 1-.69-.697c0-.135.037-.263.112-.375l2.168-3.353Z" fill="#fff"/><path fill-rule="evenodd" clip-rule="evenodd" d="M9.277 11.543a.44.44 0 0 1-.172-.03l-.9-.323v-1.08l1.237.45a.508.508 0 0 1 .338.473.495.495 0 0 1-.503.51Z" fill="#fff"/></svg>