<svg class="color-immutable" width="24" height="24" viewBox="0 0 24 24" fill="none" xmlns="http://www.w3.org/2000/svg"><path fill-rule="evenodd" clip-rule="evenodd" d="M22.5 0h-21C.675 0 0 .675 0 1.5v21c0 .825.675 1.5 1.5 1.5h21c.825 0 1.5-.675 1.5-1.5v-21c0-.825-.675-1.5-1.5-1.5Z" fill="#2D327D"/><path fill-rule="evenodd" clip-rule="evenodd" d="M17.753 5.625a1.31 1.31 0 0 0 1.312-1.313A1.31 1.31 0 0 0 17.752 3a1.31 1.31 0 0 0-1.312 1.313 1.31 1.31 0 0 0 1.313 1.312ZM3 21h14.325v-.66L3 18v3ZM19.05 16.207V8.512l.825 1.05v2.813a.487.487 0 1 0 .975 0V9.18a.757.757 0 0 0-.158-.465L19.11 6.697c-.285-.36-.72-.57-1.177-.57-.825 0-1.5.675-1.5 1.5v5.048l-1.546 1.545a.742.742 0 0 0-.217.532v3.908c0 .382.307.69.69.69.383 0 .69-.308.69-.69v-3.435l1.5-1.5v2.505c0 .15.045.292.127.412l2.378 3.675a.696.696 0 0 0 .585.315.69.69 0 0 0 .69-.697.667.667 0 0 0-.112-.375l-2.168-3.353Z" fill="#fff"/><path fill-rule="evenodd" clip-rule="evenodd" d="M14.723 11.543a.44.44 0 0 0 .172-.03l.9-.323v-1.08l-1.238.45a.508.508 0 0 0-.337.473.495.495 0 0 0 .502.51Z" fill="#fff"/></svg>