<svg class="color-immutable" width="24" height="24" viewBox="0 0 24 24" fill="none" xmlns="http://www.w3.org/2000/svg"><path fill-rule="evenodd" clip-rule="evenodd" d="M22.5 0h-21C.675 0 0 .675 0 1.5v21c0 .825.675 1.5 1.5 1.5h21c.825 0 1.5-.675 1.5-1.5v-21c0-.825-.675-1.5-1.5-1.5Z" fill="#2D327D"/><path fill-rule="evenodd" clip-rule="evenodd" d="M3 21h14.25v-.6L3 18.075V21ZM20.483 11.602a.504.504 0 0 0 .502-.51.5.5 0 0 0-.308-.465l-.96-.405v1.103l.563.24a.643.643 0 0 0 .203.037Z" fill="#fff"/><path fill-rule="evenodd" clip-rule="evenodd" d="M19.125 13.05V7.463c0-.825-.675-1.5-1.5-1.5-.488 0-.945.24-1.23.637l-1.56 2.22a.747.747 0 0 0-.135.435v2.992a.51.51 0 0 0 1.02 0V9.474l.713-1.013v7.74l-1.32 2.258a.684.684 0 0 0-.098.36.712.712 0 0 0 1.328.36l1.492-2.543a.745.745 0 0 0 .105-.375v-2.288l1.65 2.843V20.1c0 .39.323.712.712.712.39 0 .713-.322.713-.712v-3.623a.725.725 0 0 0-.105-.375l-1.785-3.052ZM17.835 5.603a1.31 1.31 0 0 0 1.313-1.313 1.31 1.31 0 0 0-1.313-1.312 1.31 1.31 0 0 0-1.313 1.312 1.319 1.319 0 0 0 1.313 1.313Z" fill="#fff"/></svg>