<svg class="color-immutable" width="24" height="24" viewBox="0 0 24 24" fill="none" xmlns="http://www.w3.org/2000/svg"><path fill-rule="evenodd" clip-rule="evenodd" d="M22.5 0h-21C.675 0 0 .675 0 1.5v21c0 .825.675 1.5 1.5 1.5h21c.825 0 1.5-.675 1.5-1.5v-21c0-.825-.675-1.5-1.5-1.5Z" fill="#2D327D"/><path fill-rule="evenodd" clip-rule="evenodd" d="M21 21H6.75v-.6L21 18.075V21ZM3.518 11.602a.504.504 0 0 1-.503-.51.5.5 0 0 1 .308-.465l.96-.405v1.103l-.563.24a.643.643 0 0 1-.202.037Z" fill="#fff"/><path fill-rule="evenodd" clip-rule="evenodd" d="M4.875 13.05V7.463c0-.825.675-1.5 1.5-1.5.487 0 .945.24 1.23.637l1.56 2.22c.09.128.135.278.135.435v2.992a.51.51 0 0 1-1.02 0V9.474L7.568 8.46v7.74l1.32 2.258a.684.684 0 0 1 .097.36.712.712 0 0 1-1.327.36l-1.493-2.543a.745.745 0 0 1-.105-.375v-2.288l-1.65 2.843V20.1c0 .39-.322.712-.713.712A.704.704 0 0 1 3 20.1v-3.623c0-.134.038-.262.098-.375l1.777-3.052ZM6.165 5.603A1.31 1.31 0 0 1 4.852 4.29a1.31 1.31 0 0 1 1.313-1.312A1.31 1.31 0 0 1 7.477 4.29a1.319 1.319 0 0 1-1.312 1.313Z" fill="#fff"/></svg>