<svg class="color-immutable" width="24" height="24" viewBox="0 0 24 24" fill="none" xmlns="http://www.w3.org/2000/svg"><g clip-path="url(#a)"><path d="M0 22.5v-21C0 .675.675 0 1.5 0h21c.825 0 1.5.675 1.5 1.5v21c0 .825-.675 1.5-1.5 1.5h-21C.675 24 0 23.325 0 22.5Z" fill="#2D327D"/><path d="M21 21.001H6.75v-.6L21 18.076v2.925ZM3.515 11.604a.507.507 0 0 1-.198-.972l.958-.407v1.1l-.562.238a.481.481 0 0 1-.198.041Z" fill="#fff"/><path d="M4.875 13.051V7.467a1.5 1.5 0 0 1 2.727-.863l1.561 2.219a.749.749 0 0 1 .137.432v2.989a.506.506 0 1 1-1.012 0V9.468l-.713-1.012V16.2l1.323 2.259a.713.713 0 0 1-1.229.721l-1.491-2.546a.751.751 0 0 1-.103-.379v-2.284l-1.65 2.839v3.29A.712.712 0 0 1 3 20.1v-3.62c0-.132.035-.262.101-.377l1.774-3.052ZM6.161 5.606a1.313 1.313 0 1 1 .002-2.626 1.313 1.313 0 0 1-.002 2.626Z" fill="#fff"/></g><defs><clipPath id="a"><path fill="#fff" d="M0 0h24v24H0z"/></clipPath></defs></svg>