<svg class="color-immutable" width="24" height="24" viewBox="0 0 24 24" fill="none" xmlns="http://www.w3.org/2000/svg"><path fill-rule="evenodd" clip-rule="evenodd" d="M22.5 0h-21C.675 0 0 .675 0 1.5v21c0 .825.675 1.5 1.5 1.5h21c.825 0 1.5-.675 1.5-1.5v-21c0-.825-.675-1.5-1.5-1.5Z" fill="#2D327D"/><path fill-rule="evenodd" clip-rule="evenodd" d="M3 10.875h15.6v2.25H3v-2.25ZM11.625 4.088v.225c0 3 2.438 5.437 5.438 5.437h.75V8.625h-.75a4.318 4.318 0 0 1-4.313-4.312v-.225h-1.125Z" fill="#fff"/><path fill-rule="evenodd" clip-rule="evenodd" d="M17.813 6.375h-.75A2.061 2.061 0 0 1 15 4.313v-.225h-1.125v.225A3.185 3.185 0 0 0 17.063 7.5h.75c1.14 0 2.062.923 2.062 2.063v.187H21v-.187a3.185 3.185 0 0 0-3.188-3.188ZM19.875 10.875H21v2.25h-1.125v-2.25Z" fill="#fff"/></svg>