<svg class="color-immutable" width="24" height="24" viewBox="0 0 24 24" fill="none" xmlns="http://www.w3.org/2000/svg"><path fill-rule="evenodd" clip-rule="evenodd" d="M22.5 0h-21C.675 0 0 .675 0 1.5v21c0 .825.675 1.5 1.5 1.5h21c.825 0 1.5-.675 1.5-1.5v-21c0-.825-.675-1.5-1.5-1.5Z" fill="#2D327D"/><path fill-rule="evenodd" clip-rule="evenodd" d="M12.48 12.6h-1.275c-.96 1.665-2.22 3.84-2.835 4.913a.751.751 0 0 0 .277 1.027l4.095 2.363c.36.21.818.082 1.028-.278l2.332-4.035-3.067-.232-.555-3.758Z" fill="#fff"/><path fill-rule="evenodd" clip-rule="evenodd" d="m20.88 4.013-1.688-.975a.278.278 0 0 0-.36.112.268.268 0 0 0-.037.165v.007a.293.293 0 0 1-.188.3l-.044.015a.267.267 0 0 0-.173.128c-.023.037-.09.21-.098.225-.037.112 0 .24.105.315-.18.255-1.364 1.98-1.957 3-.645 1.11-3.045 1.492-4.163 3.428-.104.187-.254.442-.434.75h1.597l.555 3.832 2.715.203.96-1.666c1.117-1.934.247-4.207.892-5.317.593-1.028 1.485-2.91 1.62-3.195a.273.273 0 0 0 .323-.068c.015-.015.128-.157.15-.195a.313.313 0 0 0 .03-.217l-.008-.045a.292.292 0 0 1 .166-.315h.007a.265.265 0 0 0 .127-.113.302.302 0 0 0-.097-.374ZM4.08 9.12c-.015-.022-.03-.052-.045-.075-.33-.57-.66-1.132-.99-1.702-.06-.105-.068-.21 0-.315.172-.293.345-.593.517-.893.008-.007.008-.015.015-.022-.18-.105-.352-.21-.532-.315V5.79h1.71c.015 0 .03 0 .045.023.285.495.577.99.862 1.477 0 .008.008.008.015.023-.187-.105-.36-.21-.54-.315-.007.015-.015.022-.022.03-.323.562-.645 1.117-.968 1.68a.491.491 0 0 0-.06.382c0 .015 0 .023-.007.03 0 0 0-.007 0 0ZM9.075 4.072c.18-.105.352-.202.54-.307-.008.015-.008.022-.015.03-.278.487-.563.975-.84 1.463-.008.014-.015.022-.038.022-.57 0-1.14 0-1.71.007H6.99c.18-.104.36-.21.532-.314-.007-.016-.015-.023-.022-.038-.315-.555-.638-1.11-.953-1.665a.508.508 0 0 0-.315-.255c-.007 0-.007-.008-.015-.008h.038c.645 0 1.29 0 1.935-.007.06 0 .12 0 .172.007.083.015.135.068.18.135.173.308.345.608.525.916 0 .007 0 .007.008.014ZM7.883 9.945v.615h-.008c-.007-.008-.007-.015-.015-.023-.277-.487-.562-.975-.84-1.462-.007-.015-.015-.023 0-.045.285-.495.57-.998.855-1.493 0 0 .008-.007.008-.015v.623H9.848c.142 0 .27-.045.374-.143l.016-.015c-.008.015-.015.03-.023.038l-.967 1.687a.955.955 0 0 1-.098.143.245.245 0 0 1-.195.082H7.92c-.007.008-.022.008-.037.008Z" fill="#fff"/><path fill-rule="evenodd" clip-rule="evenodd" d="M6.593 8.153v1.785h-.038c-.412 0-.832.007-1.245 0-.375-.015-.66-.188-.817-.533a.792.792 0 0 1-.075-.472.452.452 0 0 1 .045-.143c.112-.202.232-.405.352-.607.007-.023.022-.023.045-.023h1.702c.008-.007.015-.007.03-.007ZM8.198 6.315c.51-.3 1.027-.592 1.537-.892.008.015.015.022.023.03.21.36.427.712.622 1.072a.868.868 0 0 1 .045.803.932.932 0 0 1-.39.442.465.465 0 0 1-.24.068h-.682c-.015 0-.03 0-.038-.023-.285-.495-.57-.99-.855-1.492-.015.007-.015 0-.022-.008ZM4.26 4.77c.053-.097.105-.187.158-.285l.472-.832a.86.86 0 0 1 .63-.428c.218-.03.42.008.615.113a.424.424 0 0 1 .173.172c.112.195.225.398.345.593.007.015.015.03 0 .045-.285.495-.563.99-.848 1.485 0 .007-.007.015-.015.022-.502-.292-1.02-.585-1.53-.885Z" fill="#fff"/></svg>