<svg class="color-immutable" width="24" height="24" viewBox="0 0 24 24" fill="none" xmlns="http://www.w3.org/2000/svg"><path fill-rule="evenodd" clip-rule="evenodd" d="M22.5 0h-21C.675 0 0 .675 0 1.5v21c0 .825.675 1.5 1.5 1.5h21c.825 0 1.5-.675 1.5-1.5v-21c0-.825-.675-1.5-1.5-1.5Z" fill="#2D327D"/><path fill-rule="evenodd" clip-rule="evenodd" d="M4.08 9.12c-.015-.022-.03-.052-.045-.075-.33-.57-.66-1.132-.99-1.702-.06-.105-.068-.21 0-.315.172-.293.345-.593.517-.893.008-.007.008-.015.015-.022-.18-.105-.352-.21-.532-.315V5.79h1.71c.015 0 .03 0 .045.023.285.495.577.99.862 1.477 0 .008.008.008.015.023-.187-.105-.36-.21-.54-.315-.007.015-.015.022-.022.03-.323.562-.645 1.117-.968 1.68a.491.491 0 0 0-.06.382c0 .015 0 .023-.007.03 0 0 0-.007 0 0ZM9.075 4.072c.18-.105.352-.202.54-.307-.008.015-.008.022-.015.03-.278.487-.563.975-.84 1.463-.008.014-.015.022-.038.022-.57 0-1.14 0-1.71.007H6.99c.18-.104.36-.21.532-.314-.007-.016-.015-.023-.022-.038-.315-.555-.638-1.11-.953-1.665a.508.508 0 0 0-.315-.255c-.007 0-.007-.008-.015-.008h.038c.645 0 1.29 0 1.935-.007.06 0 .12 0 .172.007.083.015.135.068.18.135a57.024 57.024 0 0 0 .533.93ZM7.883 9.945v.615h-.008c-.007-.008-.007-.015-.015-.023-.277-.487-.562-.975-.84-1.462-.007-.015-.015-.023 0-.045.285-.495.57-.998.855-1.493 0 0 .008-.007.008-.015v.623H9.848c.142 0 .27-.045.374-.143l.016-.015c-.008.015-.015.03-.023.038l-.967 1.687a.955.955 0 0 1-.098.143.245.245 0 0 1-.195.082H7.92c-.007.008-.022.008-.037.008Z" fill="#fff"/><path fill-rule="evenodd" clip-rule="evenodd" d="M6.593 8.153v1.785h-.038c-.412 0-.832.007-1.245 0-.375-.015-.66-.188-.817-.533a.792.792 0 0 1-.075-.472.452.452 0 0 1 .045-.143c.112-.202.232-.405.352-.607.007-.023.022-.023.045-.023h1.702c.008-.007.015-.007.03-.007ZM8.198 6.315c.51-.3 1.027-.592 1.537-.892.008.015.015.022.023.03.21.36.427.712.622 1.072a.868.868 0 0 1 .045.803.932.932 0 0 1-.39.442.465.465 0 0 1-.24.068h-.682c-.015 0-.03 0-.038-.023-.285-.495-.57-.99-.855-1.492-.015.007-.015 0-.022-.008ZM4.26 4.77c.053-.097.105-.187.158-.285l.472-.832a.86.86 0 0 1 .63-.428c.218-.03.42.008.615.113a.424.424 0 0 1 .173.172c.112.195.225.398.345.593.007.015.015.03 0 .045-.285.495-.563.99-.848 1.485 0 .007-.007.015-.015.022-.502-.292-1.02-.585-1.53-.885ZM20.948 5.722a.37.37 0 0 0-.136-.51l-1.785-1.035a.37.37 0 0 0-.51.135l-.465.81 2.438 1.41.458-.81ZM11.115 13.762a.648.648 0 0 0-.075.12s-2.085 3.608-2.1 3.638a.845.845 0 0 0 .307 1.155.86.86 0 0 0 .788.03c.045-.345.06-.743.037-1.163l.743-.037c.037.712-.015 1.35-.143 1.837.143.18.316.345.525.465.21.12.436.195.668.225.36-.36.885-.72 1.522-1.042l.338.66c-.375.187-.72.405-.99.615.023.27.165.525.42.667a.845.845 0 0 0 1.155-.307c.015-.03 2.1-3.638 2.1-3.638a.895.895 0 0 0 .06-.12 4.08 4.08 0 0 0 .323-.765l-5.168-2.985c-.188.18-.352.398-.51.645ZM18.668 12.412 13.86 9.637a5.154 5.154 0 0 1-1.665 2.933l4.762 2.752a5.121 5.121 0 0 1 1.71-2.91ZM19.575 11.347a.648.648 0 0 0 .075-.12c1.17-2.025-.285-2.797.075-3.817.015-.03.022-.06.037-.09a.23.23 0 0 0 .308-.083c.008-.022.023-.037.023-.06l-2.416-1.402c-.014.015-.03.03-.037.052a.23.23 0 0 0 .082.308l-.06.082c-.704.818-2.1-.052-3.27 1.973-.022.037-.044.082-.067.127a5.446 5.446 0 0 0-.262.57L19.2 11.85c.135-.15.255-.315.375-.503Z" fill="#fff"/></svg>