<svg class="color-immutable" width="24" height="24" viewBox="0 0 24 24" fill="none" xmlns="http://www.w3.org/2000/svg"><path fill-rule="evenodd" clip-rule="evenodd" d="M22.5 0h-21C.675 0 0 .675 0 1.5v21c0 .825.675 1.5 1.5 1.5h21c.825 0 1.5-.675 1.5-1.5v-21c0-.825-.675-1.5-1.5-1.5Z" fill="#2D327D"/><path fill-rule="evenodd" clip-rule="evenodd" d="M4.08 9.12c-.015-.022-.03-.052-.045-.075-.33-.57-.66-1.132-.99-1.702-.06-.105-.068-.21 0-.315.172-.293.345-.593.517-.893.008-.007.008-.015.015-.022-.18-.105-.352-.21-.532-.315V5.79h1.71c.015 0 .03 0 .045.023.285.495.577.99.862 1.477 0 .008.008.008.015.023-.187-.105-.36-.21-.54-.315-.007.015-.015.022-.022.03-.323.562-.645 1.117-.968 1.68a.491.491 0 0 0-.06.382c0 .015 0 .023-.007.03 0 0 0-.007 0 0ZM9.075 4.072c.18-.105.352-.202.54-.307-.008.015-.008.022-.015.03-.278.487-.563.975-.84 1.463-.008.014-.015.022-.038.022-.57 0-1.14 0-1.71.007H6.99c.18-.104.36-.21.532-.314-.007-.016-.015-.023-.022-.038-.315-.555-.638-1.11-.953-1.665a.508.508 0 0 0-.315-.255c-.007 0-.007-.008-.015-.008h.038c.645 0 1.29 0 1.935-.007.06 0 .12 0 .172.007.083.015.135.068.18.135a57.024 57.024 0 0 0 .533.93ZM7.883 9.945v.615h-.008c-.007-.008-.007-.015-.015-.023-.277-.487-.562-.975-.84-1.462-.007-.015-.015-.023 0-.045.285-.495.57-.998.855-1.493 0 0 .008-.007.008-.015v.623H9.848c.142 0 .27-.045.374-.143l.016-.015c-.008.015-.015.03-.023.038l-.967 1.687a.955.955 0 0 1-.098.143.245.245 0 0 1-.195.082H7.92c-.007.008-.022.008-.037.008Z" fill="#fff"/><path fill-rule="evenodd" clip-rule="evenodd" d="M6.593 8.153v1.785h-.038c-.412 0-.832.007-1.245 0-.375-.015-.66-.188-.817-.533a.792.792 0 0 1-.075-.472.452.452 0 0 1 .045-.143c.112-.202.232-.405.352-.607.007-.023.022-.023.045-.023h1.702c.008-.007.015-.007.03-.007ZM8.198 6.315c.51-.3 1.027-.592 1.537-.892.008.015.015.022.023.03.21.36.427.712.622 1.072a.868.868 0 0 1 .045.803.932.932 0 0 1-.39.442.465.465 0 0 1-.24.068h-.682c-.015 0-.03 0-.038-.023-.285-.495-.57-.99-.855-1.492-.015.007-.015 0-.022-.008ZM4.26 4.77c.053-.097.105-.187.158-.285l.472-.832a.86.86 0 0 1 .63-.428c.218-.03.42.008.615.113a.424.424 0 0 1 .173.172c.112.195.225.398.345.593.007.015.015.03 0 .045-.285.495-.563.99-.848 1.485 0 .007-.007.015-.015.022-.502-.292-1.02-.585-1.53-.885ZM19.642 16.762l-4.44 3.308s-.434.337-.547.6c-.03.075-.037.135-.022.188.03.134.18.194.3.127l6.03-3.398-1.32-.825ZM6.352 14.595c.015-.015 6.255-4.732 6.255-4.732l8.183 5.122s-5.902 4.38-6.188 4.613c-.434.352-.735.855-.817 1.342L5.67 15.87c.007-.03.007-.052.007-.075.03-.428.188-.713.39-.938.045-.044.285-.262.285-.262Zm7.05 4.597a2.85 2.85 0 0 1 .51-.532c.008 0 .015-.008.008-.023l-6.023-3.764c-.03.03-.064.054-.092.075l-.02.014a3.442 3.442 0 0 0-.113.086 2.32 2.32 0 0 0-.345.342l6.075 3.802Zm-4.74-4.882.63-.473 6.015 3.765-.63.473-6.015-3.765Zm1.95-1.447 6.023 3.757 1.822-1.358.008-.007-6.022-3.758-1.83 1.366Z" fill="#fff"/></svg>