<svg class="color-immutable" width="30" height="30" viewBox="0 0 30 30" fill="none" xmlns="http://www.w3.org/2000/svg"><g clip-path="url(#a)"><path d="M30 0H0v30h30V0Z" fill="#2D327D"/><path d="M25.5 3c.825 0 1.5.675 1.5 1.5v21c0 .825-.675 1.5-1.5 1.5h-21c-.825 0-1.5-.675-1.5-1.5v-21C3 3.675 3.675 3 4.5 3h21Zm0-.375h-21A1.877 1.877 0 0 0 2.625 4.5v21c0 1.034.841 1.875 1.875 1.875h21a1.877 1.877 0 0 0 1.875-1.875v-21A1.877 1.877 0 0 0 25.5 2.625Z" fill="#fff"/><path d="M6.571 19.054v2.454c0 .373.304.677.677.677h5.994c.437 0 .648-.245.648-.644.07-1.669 1.413-3.13 3.24-3.13 1.688 0 3.24 1.4 3.24 3.13 0 .467.256.644.643.644H24v-4.877H12.931a.37.37 0 1 1 0-.741H24v-.68H12.931a.37.37 0 1 1 0-.741H24v-1.522h-3.169a.381.381 0 0 1-.381-.382V9.028c0-.21.17-.381.381-.381H24v-.896H9.986c-.653 0-1.331.591-1.45 1.137 0 0-1.37 6.153-1.93 9.705a3.16 3.16 0 0 0-.035.46Zm5.815-6.114 1.905-3.835c.117-.213.289-.458.596-.458h4.204c.253 0 .458.205.458.458v4.061a.458.458 0 0 1-.458.458h-6.345c-.253 0-.525-.275-.36-.684Zm-4.639 4.12L9.41 9.252c.113-.41.33-.634.727-.634l2.745-.01c.232 0 .398.29.346.534a.448.448 0 0 1-.047.124l-4.138 8.272a.675.675 0 0 1-.731.332l-.044-.01a.675.675 0 0 1-.52-.8ZM5.369 12.96l.273-1.974.004-.025c.082-.393.21-.834.548-1.123.284-.245.67-.353 1.254-.353h.442l-.14.74h-.302c-.51 0-.684.1-.771.174-.131.113-.225.33-.303.701l-.272 1.961a.37.37 0 0 1-.733-.102Z" fill="#fff"/><path d="M14.782 21.651a2.351 2.351 0 0 1 2.348-2.348 2.351 2.351 0 0 1 2.349 2.348A2.351 2.351 0 0 1 17.13 24a2.351 2.351 0 0 1-2.348-2.349Zm1.133-.043a1.217 1.217 0 0 0 2.431 0 1.217 1.217 0 0 0-2.431 0Z" fill="#fff"/></g><defs><clipPath id="a"><path fill="#fff" d="M0 0h30v30H0z"/></clipPath></defs></svg>