<svg class="color-immutable" width="24" height="24" viewBox="0 0 24 24" fill="none" xmlns="http://www.w3.org/2000/svg"><g clip-path="url(#a)"><path d="M0 22.5v-21C0 .675.675 0 1.5 0h21c.825 0 1.5.675 1.5 1.5v21c0 .825-.675 1.5-1.5 1.5h-21C.675 24 0 23.325 0 22.5Z" fill="#2D327D"/><path d="M20.394 15.593c-.559-3.552-1.93-9.705-1.93-9.705-.118-.546-.797-1.137-1.449-1.137H3v.896h3.169a.38.38 0 0 1 .381.381v4.214a.38.38 0 0 1-.381.381H3v1.522h11.069a.37.37 0 1 1 0 .74H3v.68h11.069a.37.37 0 1 1 0 .74H3v4.877h2.987c.386 0 .642-.177.642-.644 0-1.73 1.552-3.129 3.24-3.129 1.827 0 3.17 1.461 3.24 3.129 0 .4.211.644.649.644h5.993a.677.677 0 0 0 .677-.677v-2.454a3.143 3.143 0 0 0-.034-.458Zm-6.14-4.969H7.909a.458.458 0 0 1-.458-.458V6.105c0-.253.205-.458.458-.458h4.204c.308 0 .479.245.597.458l1.904 3.835c.165.409-.107.684-.36.684Zm4.479 4.237-.044.009a.675.675 0 0 1-.731-.333L13.82 6.266a.466.466 0 0 1-.047-.124c-.052-.243.114-.534.346-.534l2.744.01c.397 0 .614.224.727.634l1.662 7.808a.675.675 0 0 1-.519.801ZM21.631 9.959l-.274-1.974-.004-.024c-.082-.393-.21-.834-.548-1.124-.284-.244-.671-.353-1.253-.353h-.442l.14.741h.303c.509 0 .684.099.771.174.131.113.225.329.303.701l.272 1.961a.371.371 0 0 0 .417.316.37.37 0 0 0 .315-.418Z" fill="#fff"/><path d="M9.87 21a2.351 2.351 0 0 1-2.348-2.349 2.35 2.35 0 0 1 2.348-2.348 2.351 2.351 0 0 1 2.349 2.348A2.353 2.353 0 0 1 9.87 21Zm0-3.607c-.67 0-1.215.545-1.215 1.215a1.216 1.216 0 0 0 2.431 0 1.218 1.218 0 0 0-1.216-1.215Z" fill="#fff"/></g><defs><clipPath id="a"><path fill="#fff" d="M0 0h24v24H0z"/></clipPath></defs></svg>