<svg class="color-immutable" width="24" height="24" viewBox="0 0 24 24" fill="none" xmlns="http://www.w3.org/2000/svg"><g clip-path="url(#a)"><path d="M0 22.5v-21C0 .675.675 0 1.5 0h21c.825 0 1.5.675 1.5 1.5v21c0 .825-.675 1.5-1.5 1.5h-21C.675 24 0 23.325 0 22.5Z" fill="#2D327D"/><path d="M3.571 16.054v2.454c0 .374.303.677.677.677h5.993c.438 0 .649-.244.649-.644.07-1.668 1.413-3.129 3.24-3.129 1.688 0 3.24 1.399 3.24 3.129 0 .467.256.644.642.644H21v-4.877H9.931a.37.37 0 1 1 0-.74H21v-.68H9.931a.37.37 0 1 1 0-.74H21v-1.522h-3.169a.38.38 0 0 1-.381-.381V6.029a.38.38 0 0 1 .381-.381H21v-.897H6.986c-.653 0-1.332.591-1.449 1.137 0 0-1.371 6.153-1.93 9.705a3.078 3.078 0 0 0-.036.461ZM9.386 9.94l1.904-3.835c.118-.213.289-.458.597-.458h4.204c.253 0 .458.205.458.458v4.061a.458.458 0 0 1-.458.458H9.746c-.253 0-.525-.275-.36-.684Zm-4.638 4.12L6.41 6.252c.113-.41.33-.634.727-.634l2.744-.01c.232 0 .398.291.346.534a.423.423 0 0 1-.047.124l-4.138 8.271a.675.675 0 0 1-.731.333l-.044-.009a.675.675 0 0 1-.519-.801ZM2.369 9.959l.274-1.974.004-.024c.082-.393.21-.834.548-1.124.284-.244.671-.353 1.253-.353h.442l-.14.741h-.302c-.509 0-.684.099-.771.174-.131.113-.225.329-.303.701l-.272 1.961a.371.371 0 0 1-.417.316.37.37 0 0 1-.316-.418Z" fill="#fff"/><path d="M11.782 18.651a2.351 2.351 0 0 1 2.349-2.348 2.35 2.35 0 0 1 2.348 2.348A2.352 2.352 0 0 1 14.131 21a2.351 2.351 0 0 1-2.349-2.349Zm1.133-.043a1.217 1.217 0 0 0 2.431 0 1.216 1.216 0 0 0-2.431 0Z" fill="#fff"/></g><defs><clipPath id="a"><path fill="#fff" d="M0 0h24v24H0z"/></clipPath></defs></svg>