<svg class="color-immutable" width="30" height="30" viewBox="0 0 30 30" fill="none" xmlns="http://www.w3.org/2000/svg"><g clip-path="url(#a)"><path d="M30 0H0v30h30V0Z" fill="#2D327D"/><path d="M25.5 3c.825 0 1.5.675 1.5 1.5v21c0 .825-.675 1.5-1.5 1.5h-21c-.825 0-1.5-.675-1.5-1.5v-21C3 3.675 3.675 3 4.5 3h21Zm0-.375h-21A1.877 1.877 0 0 0 2.625 4.5v21c0 1.034.841 1.875 1.875 1.875h21a1.877 1.877 0 0 0 1.875-1.875v-21A1.877 1.877 0 0 0 25.5 2.625Z" fill="#fff"/><path d="M23.394 18.593c-.56-3.552-1.93-9.705-1.93-9.705-.119-.546-.797-1.137-1.45-1.137H6v.896h3.169c.21 0 .381.17.381.381v4.214c0 .211-.17.382-.381.382H6v1.522h11.069a.37.37 0 0 1 0 .74H6v.681h11.069a.37.37 0 1 1 0 .74H6v4.878h2.987c.387 0 .643-.177.643-.644 0-1.73 1.552-3.13 3.24-3.13 1.827 0 3.17 1.461 3.24 3.13 0 .4.21.644.648.644h5.994a.677.677 0 0 0 .677-.677v-2.454c0-.205-.024-.387-.035-.46Zm-6.14-4.969h-6.345a.458.458 0 0 1-.458-.458V9.105c0-.253.205-.458.458-.458h4.204c.307 0 .478.245.596.458l1.905 3.835c.165.409-.107.684-.36.684Zm4.479 4.237-.044.01a.675.675 0 0 1-.731-.333L16.82 9.266a.445.445 0 0 1-.047-.124c-.052-.243.114-.534.347-.534l2.744.01c.397 0 .614.224.727.634l1.662 7.808a.675.675 0 0 1-.52.801ZM24.631 12.96l-.273-1.974-.004-.025c-.082-.393-.21-.834-.548-1.123-.284-.245-.67-.353-1.254-.353h-.442l.14.74h.302c.51 0 .684.1.771.174.131.113.225.33.303.701l.272 1.961a.37.37 0 0 0 .733-.102Z" fill="#fff"/><path d="M12.87 24a2.351 2.351 0 0 1-2.349-2.349 2.351 2.351 0 0 1 2.349-2.348 2.351 2.351 0 0 1 2.348 2.348A2.351 2.351 0 0 1 12.87 24Zm0-3.607c-.67 0-1.216.545-1.216 1.215a1.217 1.217 0 0 0 2.431 0c0-.67-.545-1.215-1.215-1.215Z" fill="#fff"/></g><defs><clipPath id="a"><path fill="#fff" d="M0 0h30v30H0z"/></clipPath></defs></svg>