<svg class="color-immutable" width="30" height="30" viewBox="0 0 30 30" fill="none" xmlns="http://www.w3.org/2000/svg"><g clip-path="url(#a)"><path d="M30 30H0V0h30v30Z" fill="#2D327D"/><path d="M25.5 3c.825 0 1.5.675 1.5 1.5v21c0 .825-.675 1.5-1.5 1.5h-21c-.825 0-1.5-.675-1.5-1.5v-21C3 3.675 3.675 3 4.5 3h21Zm0-.375h-21A1.877 1.877 0 0 0 2.625 4.5v21c0 1.034.841 1.875 1.875 1.875h21a1.877 1.877 0 0 0 1.875-1.875v-21A1.877 1.877 0 0 0 25.5 2.625Z" fill="#fff"/><path d="M15 6a9 9 0 1 0 0 18 9 9 0 0 0 0-18Zm3.75 8.133A1.864 1.864 0 0 1 16.905 12c-.818.49-1.385 1.664-1.385 2.899v4.545h1.156a.375.375 0 0 1 0 .75H15.52l-3.406.002-1.187-.002a.375.375 0 0 1 0-.75h1.187v-8.16h-1.187a.375.375 0 1 1 0-.75h4.593v1.889c.532-.773 1.58-2.017 3.23-2.017a1.864 1.864 0 0 1 0 3.728Z" fill="#fff"/></g><defs><clipPath id="a"><path fill="#fff" d="M0 0h30v30H0z"/></clipPath></defs></svg>