<svg class="color-immutable" width="24" height="24" viewBox="0 0 24 24" fill="none" xmlns="http://www.w3.org/2000/svg"><g clip-path="url(#a)"><path d="M0 22.5v-21C0 .675.675 0 1.5 0h21c.825 0 1.5.675 1.5 1.5v21c0 .825-.675 1.5-1.5 1.5h-21C.675 24 0 23.325 0 22.5Z" fill="#2D327D"/><path d="M12 3a9 9 0 1 0 0 18 9 9 0 0 0 0-18Zm3.75 8.133a1.864 1.864 0 0 1-1.844-2.135c-.818.489-1.385 1.664-1.385 2.899v4.545h1.156a.375.375 0 0 1 0 .751H12.52l-3.406.001-1.187-.001a.376.376 0 0 1 0-.751h1.187V8.283H7.927a.375.375 0 0 1 0-.75h4.593v1.888c.532-.772 1.58-2.017 3.229-2.017a1.864 1.864 0 0 1 .001 3.729Z" fill="#fff"/></g><defs><clipPath id="a"><path fill="#fff" d="M0 0h24v24H0z"/></clipPath></defs></svg>