<svg class="color-immutable" width="24" height="24" viewBox="0 0 24 24" fill="none" xmlns="http://www.w3.org/2000/svg"><path fill-rule="evenodd" clip-rule="evenodd" d="M22.5 0h-21C.675 0 0 .675 0 1.5v21c0 .825.675 1.5 1.5 1.5h21c.825 0 1.5-.675 1.5-1.5v-21c0-.825-.675-1.5-1.5-1.5Z" fill="#2D327D"/><path fill-rule="evenodd" clip-rule="evenodd" d="M3 12c0-4.973 4.027-9 9-9s9 4.027 9 9-4.027 9-9 9-9-4.027-9-9Zm10.883-2.738a1.868 1.868 0 0 0 3.735.008c0-1.035-.84-1.867-1.868-1.867-1.65 0-2.7 1.245-3.232 2.017V7.53h-4.59a.371.371 0 0 0-.375.375c0 .21.165.375.375.375h1.185v8.16H7.928a.371.371 0 0 0-.375.375c0 .21.165.375.375.375h5.744c.21 0 .375-.165.375-.375a.371.371 0 0 0-.375-.375h-1.155v-4.545c0-1.237.57-2.415 1.388-2.902a1.64 1.64 0 0 0-.022.27Z" fill="#fff"/></svg>