<svg class="color-immutable" width="24" height="24" viewBox="0 0 24 24" fill="none" xmlns="http://www.w3.org/2000/svg"><g clip-path="url(#a)"><path d="M0 22.5v-21C0 .675.675 0 1.5 0h21c.825 0 1.5.675 1.5 1.5v21c0 .825-.675 1.5-1.5 1.5h-21C.675 24 0 23.325 0 22.5Z" fill="#2D327D"/><path d="M6.136 15.223a1.56 1.56 0 0 0-.926-.506A1.398 1.398 0 0 0 3 13.893a1.62 1.62 0 0 1 .329-.644c.457-.562.814-.678 1.057-.796-.379-.214-.919-.336-1.227-.303-.106.011-.041-.219-.021-.276.032-.09.08-.23.287-.202.289.04 1.078.514 1.185.603.158-.226.286-.592.95-1.014.135-.086.27-.15.405-.193-.362.518-.355 1.211.06 1.678.21.236.491.375.789.416a1.725 1.725 0 0 0 1.99 1.822c-.017.22-.061.398-.134.51-.28.429-.433.394-.749.665-.306.282-.288.438-.747.667-.162.081-.437.094-.768.054a1.564 1.564 0 0 0-.27-1.657ZM7.637 6.499 9.47 11.56l3.98-.816-.349-5.365-5.464 1.12ZM14.59 14.364h-1.203l-2.194 3.8a.754.754 0 0 0 .281 1.028l2.953 1.705a.754.754 0 0 0 1.031-.271l1.824-3.159-2.27-.17-.422-2.933Z" fill="#fff"/><path d="M20.905 7.75 19.6 6.996a.188.188 0 0 0-.257.068l-.194.335a.188.188 0 0 0 .058.25l.01.006s-1.276 1.809-1.777 2.678c-.502.869-2.396 1.162-3.27 2.675l-.141.244h1.524l.433 3.004 1.914.144.536-.929c.873-1.513.18-3.3.682-4.169l-.002-.001c.502-.869 1.406-2.89 1.406-2.89l.015.007c.088.042.194.01.243-.075l.194-.337a.185.185 0 0 0-.069-.256ZM12.721 3.618l-.358.115L11.992 3 7.46 4.904l.056.385-.398.127.113.617 5.757-1.848-.267-.567Z" fill="#fff"/></g><defs><clipPath id="a"><path fill="#fff" d="M0 0h24v24H0z"/></clipPath></defs></svg>