<svg class="color-immutable" width="24" height="24" viewBox="0 0 24 24" fill="none" xmlns="http://www.w3.org/2000/svg"><path fill-rule="evenodd" clip-rule="evenodd" d="M22.5 0h-21C.675 0 0 .675 0 1.5v21c0 .825.675 1.5 1.5 1.5h21c.825 0 1.5-.675 1.5-1.5v-21c0-.825-.675-1.5-1.5-1.5Z" fill="#2D327D"/><path fill-rule="evenodd" clip-rule="evenodd" d="M6.135 15.225a1.56 1.56 0 0 0-.93-.51 1.432 1.432 0 0 0-.323-.637 1.404 1.404 0 0 0-1.89-.188c.053-.218.158-.435.33-.645.458-.563.818-.675 1.058-.795-.383-.21-.923-.337-1.23-.3-.105.015-.038-.218-.023-.277.03-.09.083-.233.285-.203.293.037 1.08.518 1.185.6.158-.225.285-.592.953-1.012.135-.083.27-.15.405-.195-.36.517-.353 1.214.06 1.68.21.232.487.374.787.412-.03.45.113.908.435 1.268.405.457.998.645 1.56.554-.015.218-.06.398-.135.51-.277.428-.435.39-.75.668-.307.285-.285.435-.75.668-.165.082-.435.097-.765.052a1.529 1.529 0 0 0-.262-1.65ZM7.635 6.502l1.838 5.055 3.974-.81-.345-5.37-5.467 1.125ZM14.588 14.363h-1.2c-.743 1.282-1.68 2.91-2.198 3.802a.747.747 0 0 0 .285 1.027l2.955 1.703c.36.21.825.09 1.035-.27l1.823-3.157-2.273-.173-.428-2.933Z" fill="#fff"/><path fill-rule="evenodd" clip-rule="evenodd" d="m20.902 7.747-1.305-.757a.185.185 0 0 0-.255.067l-.194.338a.182.182 0 0 0 .06.247l.007.008s-1.275 1.807-1.777 2.677c-.503.87-2.4 1.163-3.27 2.678-.045.075-.09.157-.143.247h1.522l.435 3.008 1.913.142.532-.93c.87-1.515.18-3.3.683-4.17.503-.87 1.402-2.887 1.402-2.887l.015.007c.09.045.195.008.24-.075l.195-.337c.068-.09.03-.21-.06-.263ZM12.72 3.615l-.36.12L11.993 3l-4.53 1.905.052.382-.398.128.113.615 5.76-1.845-.27-.57Z" fill="#fff"/></svg>