<svg class="color-immutable" width="24" height="24" viewBox="0 0 24 24" fill="none" xmlns="http://www.w3.org/2000/svg"><path fill-rule="evenodd" clip-rule="evenodd" d="M22.5 0h-21C.675 0 0 .675 0 1.5v21c0 .825.675 1.5 1.5 1.5h21c.825 0 1.5-.675 1.5-1.5v-21c0-.825-.675-1.5-1.5-1.5Z" fill="#2D327D"/><path fill-rule="evenodd" clip-rule="evenodd" d="M10.688 3.75a1.31 1.31 0 0 0-1.313 1.313V13.5h.75v6a.938.938 0 0 0 1.875 0V5.062a1.31 1.31 0 0 0-1.313-1.312ZM7.222 3.75a.279.279 0 0 0-.277.285v3.84h-.57v-3.84a.285.285 0 1 0-.57 0v3.84H5.25v-3.84a.285.285 0 1 0-.57 0v3.84h-.555v-3.84a.285.285 0 1 0-.57 0V7.897c0 .758.39 1.455 1.035 1.853v9.75a.938.938 0 0 0 1.875 0V9.75a2.19 2.19 0 0 0 1.027-1.853V4.036a.272.272 0 0 0-.27-.285Z" fill="#fff"/></svg>