<svg class="color-immutable" width="24" height="24" viewBox="0 0 24 24" fill="none" xmlns="http://www.w3.org/2000/svg"><path fill-rule="evenodd" clip-rule="evenodd" d="M22.5 0h-21C.675 0 0 .675 0 1.5v21c0 .825.675 1.5 1.5 1.5h21c.825 0 1.5-.675 1.5-1.5v-21c0-.825-.675-1.5-1.5-1.5Z" fill="#2D327D"/><path fill-rule="evenodd" clip-rule="evenodd" d="M4.965 12.72a.467.467 0 0 0-.465.465c0 .255.21.465.465.465h7.643l-.93-.93H4.965ZM16.035 13.65c.255 0 .465-.21.465-.465a.467.467 0 0 0-.465-.465h-2.273l.93.93h1.343ZM15.66 10.755h-1.433l-.315-1.958h-.855l-1.177 2.04 1.582 1.583h1.23l.968-1.665Z" fill="#fff"/><path fill-rule="evenodd" clip-rule="evenodd" d="m14.34 8.295.308 1.957h1.297l.367-.637c.57-.99.12-2.168.45-2.738.33-.57.923-1.897.923-1.897l.008.007c.06.03.127.008.157-.052l.127-.218a.115.115 0 0 0-.044-.165l-.848-.502a.115.115 0 0 0-.165.045l-.128.217a.13.13 0 0 0 .038.165l.008.008s-.84 1.185-1.163 1.755c-.33.57-1.575.765-2.145 1.755l-.172.3h.982ZM16.492 14.385a.373.373 0 0 0-.375-.428h-1.132l1.29 1.29c.105-.277.173-.57.218-.862ZM3.375 13.95a.371.371 0 0 0-.375.375v6.3c0 .21.165.375.375.375h3.697c.915 0 1.725-.457 2.213-1.155.015-.022.022-.037.037-.06a2.697 2.697 0 0 1 2.213-1.155h.022c1.643-.075 3.098-.84 4.005-2.04l-2.647-2.64h-9.54ZM9.547 7.26H8.302l1.395 1.395c-.18-.45-.232-.93-.15-1.395ZM10.162 6.922c.21-.51.6-.907 1.103-1.125l.143.345-1.313 2.16a2.125 2.125 0 0 1 .067-1.38ZM6.765 9.697 4.35 9.12l-.143-.345c.96-.383 2.055.03 2.558.922Z" fill="#fff"/><path fill-rule="evenodd" clip-rule="evenodd" d="m3.563 7.26.442 1.058a2.543 2.543 0 0 1 1.935 0c.63.255 1.125.742 1.395 1.372l.923-.39-2.04-2.04H3.563ZM10.41 3.757 7.305 6.262l.487.488H9.69c0-.008.007-.015.007-.023a2.52 2.52 0 0 1 1.38-1.395l-.667-1.575ZM3.022 5.977l.33.773 2.363.007-1.343-1.35-1.35.57ZM10.207 3.277 10.088 3 5.836 4.793l1.11 1.11 3.262-2.625Z" fill="#fff"/><path fill-rule="evenodd" clip-rule="evenodd" d="M4.012 2.97 2.97 4.012l16.988 16.98 1.035-1.035L4.012 2.97Z" fill="#EB0000"/></svg>