<svg class="color-immutable" width="24" height="24" viewBox="0 0 24 24" fill="none" xmlns="http://www.w3.org/2000/svg"><path fill-rule="evenodd" clip-rule="evenodd" d="M22.5 0h-21C.675 0 0 .675 0 1.5v21c0 .825.675 1.5 1.5 1.5h21c.825 0 1.5-.675 1.5-1.5v-21c0-.825-.675-1.5-1.5-1.5Z" fill="#2D327D"/><path fill-rule="evenodd" clip-rule="evenodd" d="M15.375 14.79V12.3c0-.645-.518-1.163-1.162-1.163a1.17 1.17 0 0 0-.503.113l-2.145 1.035 1.133.742 1.454-.704.15.307-1.267.615 2.34 1.545ZM11.25 12.082v-2.49c0-.645-.518-1.162-1.162-1.162a1.17 1.17 0 0 0-.503.112L7.44 9.577l1.132.743 1.456-.705.15.307-1.268.615 2.34 1.545Z" fill="#fff"/><path fill-rule="evenodd" clip-rule="evenodd" d="M18.375 21A2.628 2.628 0 0 0 21 18.375a2.628 2.628 0 0 0-2.625-2.625H15.81a1.12 1.12 0 0 1-.615-.187L3 7.56v5.565L15 21h3.375ZM7.125 9.375v-2.49c0-.645-.518-1.163-1.162-1.163a1.17 1.17 0 0 0-.503.113L3.315 6.87l1.132.742 1.455-.705.15.308-1.267.615 2.34 1.545ZM6.945 4.485a.973.973 0 0 0-.975-.975.973.973 0 0 0-.975.975c0 .54.435.975.975.975a.978.978 0 0 0 .975-.975ZM11.07 7.155a.973.973 0 0 0-.975-.975.973.973 0 0 0-.975.975c0 .54.435.975.975.975a.978.978 0 0 0 .975-.975ZM15.188 9.825a.973.973 0 0 0-.976-.975.973.973 0 0 0-.974.975c0 .54.434.975.975.975.54 0 .975-.435.975-.975Z" fill="#fff"/></svg>