<svg class="color-immutable" width="24" height="24" viewBox="0 0 24 24" fill="none" xmlns="http://www.w3.org/2000/svg"><path fill-rule="evenodd" clip-rule="evenodd" d="M22.5 0h-21C.675 0 0 .675 0 1.5v21c0 .825.675 1.5 1.5 1.5h21c.825 0 1.5-.675 1.5-1.5v-21c0-.825-.675-1.5-1.5-1.5Z" fill="#2D327D"/><path fill-rule="evenodd" clip-rule="evenodd" d="M13.095 4.98c.54 0 .975-.435.975-.975a.973.973 0 0 0-.975-.975.973.973 0 0 0-.975.975c0 .54.435.975.975.975ZM9.33 7.403c.54 0 .975-.435.975-.975a.973.973 0 0 0-.975-.975.973.973 0 0 0-.975.975c0 .54.435.975.975.975ZM5.572 7.942a.973.973 0 0 0-.975.976c0 .54.435.975.975.975s.975-.436.975-.976a.973.973 0 0 0-.975-.974ZM11.152 8.385a.586.586 0 0 0 .547.795c.241 0 .459-.15.541-.375l.697-1.83.353.135-.315.825 1.275-.84v-.638a1.14 1.14 0 0 0-2.205-.404l-.893 2.332ZM7.402 10.852a.586.586 0 0 0 .547.795c.241 0 .458-.15.541-.374l.697-1.83.353.135-.315.825 1.275-.84v-.638a1.14 1.14 0 0 0-2.205-.405l-.893 2.332ZM6.75 12.015v-.638a1.14 1.14 0 0 0-2.205-.405l-.893 2.348a.58.58 0 0 0 .547.787c.241 0 .458-.15.541-.374l.697-1.83.353.134-.315.825 1.275-.847ZM18.375 12.75A2.628 2.628 0 0 0 21 10.125 2.628 2.628 0 0 0 18.375 7.5h-2.992c-.218 0-.435.067-.623.188L3 15.434V21l12.525-8.25h2.85Z" fill="#fff"/></svg>