<svg class="color-immutable" width="24" height="24" viewBox="0 0 24 24" fill="none" xmlns="http://www.w3.org/2000/svg"><path fill-rule="evenodd" clip-rule="evenodd" d="M22.5 0h-21C.675 0 0 .675 0 1.5v21c0 .825.675 1.5 1.5 1.5h21c.825 0 1.5-.675 1.5-1.5v-21c0-.825-.675-1.5-1.5-1.5Z" fill="#2D327D"/><path fill-rule="evenodd" clip-rule="evenodd" d="M10.905 4.98a.973.973 0 0 1-.975-.975c0-.54.435-.975.975-.975s.975.435.975.975-.435.975-.975.975ZM14.67 7.403a.973.973 0 0 1-.975-.975c0-.54.435-.975.975-.975s.975.435.975.975-.435.975-.975.975ZM18.427 7.942c.54 0 .976.435.976.976 0 .54-.435.975-.976.975a.973.973 0 0 1-.974-.976c0-.54.434-.974.974-.974ZM12.848 8.385a.586.586 0 0 1-.547.795.576.576 0 0 1-.541-.375l-.697-1.83-.353.135.315.825-1.275-.84v-.638a1.14 1.14 0 0 1 2.205-.404l.893 2.332ZM16.598 10.852a.586.586 0 0 1-.547.795.576.576 0 0 1-.541-.374l-.697-1.83-.353.135.315.825-1.275-.84v-.638a1.14 1.14 0 0 1 2.205-.405l.893 2.332ZM17.25 12.015v-.638a1.14 1.14 0 0 1 2.205-.405l.893 2.348a.58.58 0 0 1-.547.787.576.576 0 0 1-.541-.374l-.698-1.83-.352.134.315.825-1.275-.847ZM5.625 12.75A2.628 2.628 0 0 1 3 10.125 2.628 2.628 0 0 1 5.625 7.5h2.992c.218 0 .435.067.623.188L21 15.434V21L8.475 12.75h-2.85Z" fill="#fff"/></svg>