<svg class="color-immutable" width="24" height="24" viewBox="0 0 24 24" fill="none" xmlns="http://www.w3.org/2000/svg"><path fill-rule="evenodd" clip-rule="evenodd" d="M22.5 0h-21C.675 0 0 .675 0 1.5v21c0 .825.675 1.5 1.5 1.5h21c.825 0 1.5-.675 1.5-1.5v-21c0-.825-.675-1.5-1.5-1.5Z" fill="#2D327D"/><path fill-rule="evenodd" clip-rule="evenodd" d="M8.625 14.79V12.3c0-.645.518-1.163 1.162-1.163.173 0 .345.038.503.113l2.145 1.035-1.133.742-1.454-.704-.15.307 1.267.615-2.34 1.545ZM12.75 12.082v-2.49c0-.645.518-1.162 1.162-1.162.173 0 .345.037.503.112l2.145 1.035-1.132.743-1.456-.705-.15.307 1.268.615-2.34 1.545Z" fill="#fff"/><path fill-rule="evenodd" clip-rule="evenodd" d="M5.625 21A2.628 2.628 0 0 1 3 18.375a2.628 2.628 0 0 1 2.625-2.625H8.19c.218 0 .435-.067.615-.187L21 7.56v5.565L9 21H5.625ZM16.875 9.375v-2.49c0-.645.517-1.163 1.163-1.163.172 0 .345.038.502.113l2.145 1.035-1.133.742-1.454-.705-.15.308 1.267.615-2.34 1.545ZM17.055 4.485c0-.54.435-.975.975-.975s.975.435.975.975-.435.975-.975.975a.973.973 0 0 1-.975-.975ZM12.93 7.155c0-.54.435-.975.975-.975s.975.435.975.975-.435.975-.975.975a.978.978 0 0 1-.975-.975ZM8.805 9.825c0-.54.435-.975.975-.975s.975.435.975.975-.435.975-.975.975a.973.973 0 0 1-.975-.975Z" fill="#fff"/></svg>