<svg class="color-immutable" width="24" height="24" viewBox="0 0 24 24" fill="none" xmlns="http://www.w3.org/2000/svg"><path fill-rule="evenodd" clip-rule="evenodd" d="M22.5 0h-21C.675 0 0 .675 0 1.5v21c0 .825.675 1.5 1.5 1.5h21c.825 0 1.5-.675 1.5-1.5v-21c0-.825-.675-1.5-1.5-1.5Z" fill="#2D327D"/><path fill-rule="evenodd" clip-rule="evenodd" d="M7.777 3.705a1.857 1.857 0 0 0-1.132-.383c-.375 0-.728.113-1.02.3l-2.64 1.523h4.792v-1.44ZM10.41 7.65a9.364 9.364 0 0 0 4.732-2.123H10.41V7.65ZM10.41 5.152h4.793l-2.64-1.522a1.892 1.892 0 0 0-1.02-.3c-.428 0-.818.142-1.133.382v1.44ZM7.777 5.527H3.045A9.393 9.393 0 0 0 7.777 7.65V5.527Z" fill="#fff"/><path fill-rule="evenodd" clip-rule="evenodd" d="M15.848 10.065a.938.938 0 0 0-.938.938v2.452h-.375V9.87a.938.938 0 0 0-1.875 0v2.85h-.375v-3.6a.938.938 0 0 0-1.875 0v2.828h-.375V3.915a.938.938 0 0 0-1.875 0v10.313h-.375V11.82c0-.593-.375-1.125-.938-1.32a.698.698 0 0 0-.93.668v4.522c0 .465.098.952.255 1.327.158.375 1.65 3.983 1.65 3.983H15.6l.96-2.325c.158-.413.24-.855.24-1.328v-6.345a.96.96 0 0 0-.953-.937Z" fill="#fff"/></svg>