<svg class="color-immutable" width="24" height="24" viewBox="0 0 24 24" fill="none" xmlns="http://www.w3.org/2000/svg"><path fill-rule="evenodd" clip-rule="evenodd" d="M22.5 0h-21C.675 0 0 .675 0 1.5v21c0 .825.675 1.5 1.5 1.5h21c.825 0 1.5-.675 1.5-1.5v-21c0-.825-.675-1.5-1.5-1.5Z" fill="#237F52"/><path fill-rule="evenodd" clip-rule="evenodd" d="m10.732 14.76-.637-1.725.938-1.207.172-1.328.36.045-.188 1.425-.877 1.125.57 1.545-.338.12ZM7.837 9.683H5.58v-.36h2.175l1.312-.668 1.44.383-.09.345-1.312-.345-1.268.645ZM14.092 10.545l-.795-.862h-.727v-.36h.885l.9.974-.263.248ZM7.508 10.688l-.135-.33L8.94 9.72l.743.3.757-.345.15.323-.892.412-.758-.3-1.432.578ZM16.41 11.085a.446.446 0 0 0-.3-.12h-.008a.415.415 0 0 0-.3.135l-.127.135 1.305 1.245-.143.15-1.597-1.53a.446.446 0 0 0-.3-.12h-.008a.415.415 0 0 0-.3.135l-.134.135 1.905 1.815-.143.15-2.198-2.092a.446.446 0 0 0-.3-.12h-.007a.415.415 0 0 0-.3.134l-.135.136 2.505 2.392-.143.15-2.85-2.715a.43.43 0 0 0-.307-.12h-.015a.445.445 0 0 0-.435.457c0 .12.053.233.135.308l2.707 2.58c.09.09.143.21.15.33l.015.758a.324.324 0 0 1-.322.337l-1.35.03a.707.707 0 0 0-.66.495c-.015.038-.015.075-.015.12a.357.357 0 0 0 .36.345h.007l3.945-.098.75-.014 3.195 1.897v-3.42l-1.732-1.02-2.85-3ZM3.608 19.448h.78L5.73 17.82l.72-.202 3.802-1.058a.36.36 0 0 0 .195-.555.702.702 0 0 0-.78-.27l-1.304.36c-.03.008-.06.015-.09.015a.345.345 0 0 1-.323-.24l-.202-.727a.463.463 0 0 1 .045-.36l1.837-3.255a.412.412 0 0 0 .038-.338.441.441 0 0 0-.428-.322.444.444 0 0 0-.39.225L6.915 14.52l-.18-.097 1.703-3.015-.165-.09a.416.416 0 0 0-.21-.053c-.038 0-.075.008-.113.015a.409.409 0 0 0-.255.203L6.203 14.13l-.18-.097 1.29-2.295-.165-.09a.416.416 0 0 0-.21-.053c-.038 0-.075.008-.113.015a.409.409 0 0 0-.255.203l-1.08 1.92-.18-.105.885-1.568-.165-.09a.416.416 0 0 0-.21-.052.409.409 0 0 0-.367.217L3.368 15.87v3.353c-.008.112.105.225.24.225Z" fill="#fff"/><path fill-rule="evenodd" clip-rule="evenodd" d="M3.36 15.405V8.4h14.977c.248 0 .495.21.54.45l.99 5.348.405.24-1.042-5.655a.943.943 0 0 0-.893-.743H3.36V6.608a.25.25 0 0 1 .248-.248h16.784a.25.25 0 0 1 .248.247v8.048l.36.21V6.607A.605.605 0 0 0 20.392 6H3.608A.605.605 0 0 0 3 6.607v9.436l.12-.218.24-.42ZM20.64 18.57v.63a.25.25 0 0 1-.247.247H4.665l-.292.36h16.02c.337 0 .607-.27.607-.607v-.42l-.112-.068-.248-.142Z" fill="#fff"/><path fill-rule="evenodd" clip-rule="evenodd" d="M10.5 16.125c-.008-.038-.03-.075-.053-.113a.702.702 0 0 0-.78-.27l-1.305.36c-.03.008-.06.015-.09.015a.345.345 0 0 1-.322-.24l-.203-.727a.463.463 0 0 1 .045-.36l1.838-3.255a.412.412 0 0 0 .037-.338.441.441 0 0 0-.427-.322.444.444 0 0 0-.39.225l-1.935 3.427-.18-.097 1.702-3.015-.165-.09a.416.416 0 0 0-.21-.052.409.409 0 0 0-.367.217l-1.493 2.647-.18-.097 1.29-2.295-.165-.09a.416.416 0 0 0-.21-.053c-.037 0-.075.008-.112.015a.409.409 0 0 0-.255.203l-1.08 1.92-.18-.105.885-1.567-.165-.09a.416.416 0 0 0-.21-.053.409.409 0 0 0-.368.217l-2.085 3.736-.052.09-.308.555V19.2c0 .338.27.608.608.608h.48l.292-.36L5.73 17.82l.72-.203 3.802-1.057a.351.351 0 0 0 .248-.435Z" fill="#fff"/><path fill-rule="evenodd" clip-rule="evenodd" d="M12.135 9.502a.618.618 0 0 0-.615-.615.618.618 0 0 0-.615.615c0 .338.277.615.615.615a.618.618 0 0 0 .615-.615Z" fill="#EB0000"/></svg>