<svg class="color-immutable" width="24" height="24" viewBox="0 0 24 24" fill="none" xmlns="http://www.w3.org/2000/svg"><path fill-rule="evenodd" clip-rule="evenodd" d="M22.5 0h-21C.675 0 0 .675 0 1.5v21c0 .825.675 1.5 1.5 1.5h21c.825 0 1.5-.675 1.5-1.5v-21c0-.825-.675-1.5-1.5-1.5Z" fill="#237F52"/><path fill-rule="evenodd" clip-rule="evenodd" d="M17.978 12.18c-.18-.255-.398-.412-.398-.412l-.735-.436-1.185-.69a.51.51 0 0 0-.142-.022.334.334 0 0 0-.293.165c-.03.053-.045.143-.052.158-.06.255.105.555.322.69l.96.57.3.18-2.137 3.704c.502.316.547.308.562.308.203.105.398.218.623.218l2.002.007L21 18.517v-3.42l-1.732-1.02c0 .015-1.185-1.747-1.29-1.897Z" fill="#fff"/><path fill-rule="evenodd" clip-rule="evenodd" d="M20.64 18.57v.63a.25.25 0 0 1-.248.248H3.608a.25.25 0 0 1-.248-.248V6.608a.25.25 0 0 1 .248-.248h16.784a.25.25 0 0 1 .248.247v8.048l.36.21V6.607A.605.605 0 0 0 20.392 6H3.608A.605.605 0 0 0 3 6.607V19.2c0 .338.27.608.607.608h16.785c.338 0 .608-.27.608-.608v-.42l-.113-.068-.247-.142Z" fill="#fff"/><path fill-rule="evenodd" clip-rule="evenodd" d="M19.268 14.092s-1.185-1.762-1.29-1.905c-.18-.255-.398-.412-.398-.412l-.735-.435-1.185-.69a.51.51 0 0 0-.142-.023.334.334 0 0 0-.293.165c-.03.053-.045.143-.052.158-.06.255.105.555.322.69l.96.57.3.18-2.137 3.705c.502.315.547.307.562.307.203.105.398.218.623.218l2.002.007 2.835 1.688.36.21v-3.42l-.36-.21-1.372-.803ZM16.83 11.078l.308.18.704-1.23 1.418.81.855-1.478-2.64-1.515-2.265.667 1.432.833-.697 1.223.885.51ZM13.785 16.342l.338.195-.338-.195Z" fill="#fff"/><path fill-rule="evenodd" clip-rule="evenodd" d="m15.832 12.082-.187-.112a.634.634 0 0 1-.075.42.641.641 0 0 1-.405.292c.03.038.053.075.075.12a.62.62 0 0 1-.533.87.62.62 0 0 1-.022.578.64.64 0 0 1-.503.307l.023.045c.082.18.068.39-.03.57a.63.63 0 0 1-.54.308.59.59 0 0 1-.315-.09l-.105-.06-.293.502.878.51.337.196 2.325-4.088-.63-.367ZM8.295 8.317H6.037v-.36h2.175l1.313-.66 1.44.383-.098.345-1.305-.345-1.267.637ZM14.55 9.18l-.795-.862h-.728v-.36h.886l.9.982-.263.24ZM7.965 9.33l-.135-.337 1.567-.63.743.3.758-.353.15.33-.9.413-.75-.3-1.433.577ZM11.19 13.402l-.637-1.724.937-1.208.172-1.335.353.053-.18 1.425-.878 1.125.57 1.537-.337.127Z" fill="#fff"/><path fill-rule="evenodd" clip-rule="evenodd" d="m14.34 13.59-.105-.06-.015-.007-.188-.113-.547-.33a.399.399 0 0 0-.555.135.408.408 0 0 0 .135.563l.555.33.188.112.022.015.105.06a.408.408 0 0 0 .555-.15.4.4 0 0 0 .022-.367.46.46 0 0 0-.172-.188ZM14.063 13.17l-.188-.113-.555-.33a.4.4 0 0 1-.158-.18.43.43 0 0 1 .023-.382.399.399 0 0 1 .555-.135l.547.33.188.113.263.157.12.067a.398.398 0 0 1 .165.188.41.41 0 0 1-.578.518l-.113-.068-.27-.165ZM14.82 12.427l-.06-.037-.188-.113-.554-.33a.4.4 0 0 1-.158-.18.43.43 0 0 1 .023-.382.399.399 0 0 1 .555-.135l.547.33.188.112.052.03c.008.008.015.015.023.015.06.045.112.105.142.173a.41.41 0 0 1-.548.532c0-.007-.007-.007-.022-.015ZM13.973 15.067a.41.41 0 0 1-.556.15l-.104-.067-.016-.008-.187-.112-.143-.083a.4.4 0 0 1-.157-.18.43.43 0 0 1 .022-.382.399.399 0 0 1 .555-.135l.136.082.187.113h.007l.113.067a.398.398 0 0 1 .165.188.4.4 0 0 1-.022.367Z" fill="#fff"/><path fill-rule="evenodd" clip-rule="evenodd" d="M12.592 8.137a.618.618 0 0 0-.615-.615.618.618 0 0 0-.614.615c0 .338.277.615.614.615a.608.608 0 0 0 .615-.615Z" fill="#EB0000"/></svg>