<svg class="color-immutable" width="24" height="24" viewBox="0 0 24 24" fill="none" xmlns="http://www.w3.org/2000/svg"><path fill-rule="evenodd" clip-rule="evenodd" d="M22.5 0h-21C.675 0 0 .675 0 1.5v21c0 .825.675 1.5 1.5 1.5h21c.825 0 1.5-.675 1.5-1.5v-21c0-.825-.675-1.5-1.5-1.5Z" fill="#2D327D"/><path fill-rule="evenodd" clip-rule="evenodd" d="M21 8.25h-.75a.371.371 0 0 0-.375.375v1.5c0 .203.165.375.375.375H21v2.25h-.75a.376.376 0 0 0-.375.375v1.5c0 .21.165.375.375.375H21v4.575c-.367 0-.742-.037-1.11-.113l-2.52-.532a8.492 8.492 0 0 0-.87-.067c-.293.007-.578.03-.87.067l-2.52.532a5.519 5.519 0 0 1-2.22 0l-2.52-.532a8.492 8.492 0 0 0-.87-.067 8.33 8.33 0 0 0-.87.067l-1.605.337L2.775 15h9.037l.376-2.25h-1.313V10.5h4.613l.375-2.25h-.525a.371.371 0 0 1-.375-.375c0-.21.165-.375.375-.375H21v.75ZM15.15 15c.21 0 .375-.172.375-.375v-1.5a.376.376 0 0 0-.375-.375h-1.965a.377.377 0 0 0-.367.315l-.248 1.5c-.008.023-.008.037-.008.06 0 .203.165.375.376.375h2.212Zm4.05-.375a.376.376 0 0 1-.375.375h-2.25a.376.376 0 0 1-.375-.375v-1.5c0-.203.165-.375.375-.375h2.25c.21 0 .375.165.375.375v1.5Zm-.375-4.125c.21 0 .375-.165.375-.375v-1.5a.371.371 0 0 0-.375-.375H16.86a.377.377 0 0 0-.367.315l-.248 1.5c-.008.023-.008.037-.008.06 0 .203.173.375.376.375h2.212Z" fill="#fff"/><path fill-rule="evenodd" clip-rule="evenodd" d="M17.25 19.635a6.302 6.302 0 0 0-.75-.053 8.399 8.399 0 0 0-.75.053l-2.49.525c-.412.09-.832.128-1.26.128-.42 0-.84-.046-1.26-.128l-2.49-.525a6.302 6.302 0 0 0-.75-.053 8.399 8.399 0 0 0-.75.053l-2.49.525c-.412.09-.832.128-1.26.128V21c.473 0 .938-.045 1.402-.142l2.46-.518c.21-.023.42-.038.63-.045.21.007.42.022.63.045l2.46.518c.465.097.93.142 1.403.142s.945-.045 1.402-.142l2.46-.518c.21-.023.42-.038.63-.045.21.007.42.022.63.045l2.46.518c.465.097.93.142 1.403.142v-.712a6.47 6.47 0 0 1-1.26-.128l-2.46-.525Z" fill="#fff"/></svg>