<svg class="color-immutable" width="24" height="24" viewBox="0 0 24 24" fill="none" xmlns="http://www.w3.org/2000/svg"><path fill-rule="evenodd" clip-rule="evenodd" d="M22.5 0h-21C.675 0 0 .675 0 1.5v21c0 .825.675 1.5 1.5 1.5h21c.825 0 1.5-.675 1.5-1.5v-21c0-.825-.675-1.5-1.5-1.5Z" fill="#2D327D"/><path fill-rule="evenodd" clip-rule="evenodd" d="M4.125 8.625a.371.371 0 0 0-.375-.375H3V7.5h5.662c.21 0 .375.165.375.375s-.165.375-.375.375h-.525l.375 2.25h4.613v2.25h-1.313l.376 2.25h9.037l-2.25 4.267-1.605-.337a8.492 8.492 0 0 0-.87-.067 8.33 8.33 0 0 0-.87.067l-2.52.532a5.519 5.519 0 0 1-2.22 0l-2.52-.532a8.492 8.492 0 0 0-.87-.067c-.293.007-.577.03-.87.067l-2.52.532a5.519 5.519 0 0 1-1.11.113V15h.75c.21 0 .375-.165.375-.375v-1.5a.371.371 0 0 0-.375-.375H3V10.5h.75c.21 0 .375-.165.375-.375v-1.5Zm4.35 4.5v1.5c0 .203.165.375.375.375h2.205c.21 0 .375-.172.375-.375 0-.011-.002-.02-.004-.03-.002-.01-.004-.019-.004-.03l-.247-1.5a.377.377 0 0 0-.368-.315H8.85a.376.376 0 0 0-.375.375Zm-3.675 1.5v-1.5c0-.203.165-.375.375-.375h2.25c.21 0 .375.165.375.375v1.5a.376.376 0 0 1-.375.375h-2.25a.376.376 0 0 1-.375-.375Zm0-6v1.5c0 .21.165.375.375.375H7.38c.21 0 .375-.165.375-.375 0-.015 0-.037-.008-.06l-.247-1.5a.371.371 0 0 0-.367-.315H5.175a.371.371 0 0 0-.375.375Z" fill="#fff"/><path fill-rule="evenodd" clip-rule="evenodd" d="M6.75 19.635c.247-.03.503-.053.75-.053.247.008.502.023.75.053l2.49.525c.412.09.832.128 1.26.128.42 0 .84-.046 1.26-.128l2.49-.525c.248-.03.503-.053.75-.053.247.008.503.023.75.053l2.49.525c.413.09.833.128 1.26.128V21c-.473 0-.938-.045-1.402-.142l-2.46-.518a8.89 8.89 0 0 0-.63-.045 8.89 8.89 0 0 0-.63.045l-2.46.518c-.465.097-.93.142-1.403.142s-.945-.045-1.402-.142l-2.46-.518a8.89 8.89 0 0 0-.63-.045 8.89 8.89 0 0 0-.63.045l-2.46.518c-.466.097-.93.142-1.403.142v-.712c.42 0 .848-.046 1.26-.128l2.46-.525Z" fill="#fff"/></svg>