<svg class="color-immutable" width="24" height="24" viewBox="0 0 24 24" fill="none" xmlns="http://www.w3.org/2000/svg"><path fill-rule="evenodd" clip-rule="evenodd" d="M22.5 0h-21C.675 0 0 .675 0 1.5v21c0 .825.675 1.5 1.5 1.5h21c.825 0 1.5-.675 1.5-1.5v-21c0-.825-.675-1.5-1.5-1.5Z" fill="#2D327D"/><path fill-rule="evenodd" clip-rule="evenodd" d="M17.895 13.59a2.173 2.173 0 0 0-2.168 2.167v.57c.113-.12.24-.225.375-.33l.046-.03.044.03c.083.06.166.113.248.158v-.398c0-.802.652-1.455 1.455-1.455s1.455.653 1.455 1.455v.398c.082-.053.172-.105.247-.158l.045-.03.046.03c.135.098.262.21.375.33v-.562a2.17 2.17 0 0 0-2.168-2.175ZM20.79 2.235a2.15 2.15 0 0 0-1.537-.638c-.578 0-1.125.225-1.53.638l-.825.825a.357.357 0 0 0-.105.255.357.357 0 0 0 .36.36.357.357 0 0 0 .255-.105l.825-.825a1.458 1.458 0 1 1 2.062 2.062l-.353.353c.18.157.338.345.473.54l.383-.383c.412-.412.637-.952.637-1.53a2.275 2.275 0 0 0-.645-1.552Z" fill="#fff"/><path fill-rule="evenodd" clip-rule="evenodd" d="M6.12 15.555a2.9 2.9 0 0 0-2.902 2.902A2.9 2.9 0 0 0 6.12 21.36a2.9 2.9 0 0 0 2.903-2.903 2.9 2.9 0 0 0-2.903-2.902Z" fill="#EB0000"/><path fill-rule="evenodd" clip-rule="evenodd" d="M6.12 4.507A2.9 2.9 0 0 0 3.218 7.41a2.9 2.9 0 0 0 2.902 2.902A2.9 2.9 0 0 0 9.023 7.41 2.9 2.9 0 0 0 6.12 4.507Z" fill="#237F52"/><path fill-rule="evenodd" clip-rule="evenodd" d="M10.725 7.207h2.558V6.69h-2.558v.517Zm0 1.02h2.558V7.71h-2.558v.517ZM10.725 18.18h2.558v-.518h-2.558v.518Zm0 1.027h2.558v-.517h-2.558v.517ZM17.902 5.648c.623 0 1.23-.195 1.74-.555a2.957 2.957 0 0 1 1.163 2.317 2.91 2.91 0 0 1-2.902 2.902A2.91 2.91 0 0 1 15 7.41c0-.907.435-1.77 1.163-2.317.51.36 1.117.555 1.74.555Zm.263 3.952v-.69a.467.467 0 0 0-.27-.848.467.467 0 0 0-.27.848v.69c0 .15.12.27.27.27.15 0 .27-.12.27-.27ZM17.902 16.703c.63 0 1.23-.195 1.74-.555a2.945 2.945 0 0 1 1.163 2.317 2.91 2.91 0 0 1-2.902 2.902A2.91 2.91 0 0 1 15 18.465c0-.907.435-1.77 1.163-2.317.51.36 1.11.555 1.74.555Zm.263 3.945v-.69a.467.467 0 0 0-.27-.848.467.467 0 0 0-.27.848v.69c0 .15.12.27.27.27.15 0 .27-.12.27-.27Z" fill="#fff"/></svg>