<svg class="color-immutable" width="24" height="24" viewBox="0 0 24 24" fill="none" xmlns="http://www.w3.org/2000/svg"><path fill-rule="evenodd" clip-rule="evenodd" d="M22.5 0h-21C.675 0 0 .675 0 1.5v21c0 .825.675 1.5 1.5 1.5h21c.825 0 1.5-.675 1.5-1.5v-21c0-.825-.675-1.5-1.5-1.5Z" fill="#2D327D"/><path fill-rule="evenodd" clip-rule="evenodd" d="M3 21V7.875h18V21H3Zm1.125-1.125h15.75V9H4.125v10.875Z" fill="#fff"/><path fill-rule="evenodd" clip-rule="evenodd" d="M16.875 19.125h-9.75A1.123 1.123 0 0 1 6 18v-5.7c0-.623.503-1.125 1.125-1.125H10.2v-.488c0-.517.42-.937.938-.937h1.725c.517 0 .937.42.937.938v.487h3.075c.622 0 1.125.502 1.125 1.125V18c0 .622-.503 1.125-1.125 1.125Zm-3.75-8.7h-2.25v.75h2.25v-.75ZM10.125 6.188l-.75-.75-.75.75h-1.29a2.288 2.288 0 0 1-2.085 1.35A2.292 2.292 0 0 1 2.962 5.25 2.292 2.292 0 0 1 5.25 2.963c.93 0 1.725.555 2.085 1.35h4.29l.938.937-.938.938-.75-.75-.75.75Zm-6.75-.938c0 .413.337.75.75.75.412 0 .75-.337.75-.75a.752.752 0 0 0-.75-.75.752.752 0 0 0-.75.75Z" fill="#fff"/></svg>