<svg class="color-immutable" width="24" height="24" viewBox="0 0 24 24" fill="none" xmlns="http://www.w3.org/2000/svg"><path fill-rule="evenodd" clip-rule="evenodd" d="M22.5 0h-21C.675 0 0 .675 0 1.5v21c0 .825.675 1.5 1.5 1.5h21c.825 0 1.5-.675 1.5-1.5v-21c0-.825-.675-1.5-1.5-1.5Z" fill="#2D327D"/><path fill-rule="evenodd" clip-rule="evenodd" d="M18.645 21 13.523 7.485v-.007h-3.046L5.34 21h3.037l1.095-3.03h5.01L15.556 21h3.09ZM11.97 10.732l1.792 5.086H10.17l1.8-5.085ZM4.815 3.667H4.35a.359.359 0 0 0-.12-.255c-.068-.06-.173-.09-.308-.09a.48.48 0 0 0-.27.068.22.22 0 0 0-.097.195c0 .075.03.127.09.157s.21.083.45.135c.255.06.435.128.533.195.18.12.27.285.27.495 0 .233-.09.42-.278.548-.157.12-.383.18-.653.18-.307 0-.54-.068-.712-.21C3.083 4.942 3 4.755 3 4.5h.487c.008.127.038.217.098.277.09.098.225.143.405.143.12 0 .217-.023.292-.075a.248.248 0 0 0 .12-.225c0-.098-.06-.165-.172-.21a8.966 8.966 0 0 0-.443-.135 2.33 2.33 0 0 1-.345-.113.67.67 0 0 1-.195-.12.559.559 0 0 1-.172-.427c0-.218.09-.39.27-.51.15-.105.352-.165.592-.165.218 0 .39.045.54.127.21.128.323.323.338.6ZM6.57 4.987a.712.712 0 0 0 .127-.262h-.435a.386.386 0 0 1-.127.172.34.34 0 0 1-.203.053c-.172 0-.285-.068-.345-.218a.697.697 0 0 1-.037-.202h1.17c0-.203-.015-.368-.068-.495a.836.836 0 0 0-.225-.33.715.715 0 0 0-.51-.188c-.247 0-.45.09-.607.278a.9.9 0 0 0-.21.615c0 .12.015.247.06.36a.869.869 0 0 0 .172.277c.15.158.353.24.6.24.278 0 .488-.097.638-.3Zm-.3-.765v.008-.008Zm0 0a.663.663 0 0 0-.053-.195.327.327 0 0 0-.12-.127.348.348 0 0 0-.172-.045c-.098 0-.18.03-.248.097a.405.405 0 0 0-.112.27h.704ZM7.86 3.562v.315h-.33v.788c0 .097.007.157.022.18.023.037.083.052.173.052.038 0 .083 0 .135-.007v.36a1.816 1.816 0 0 1-.278.015.746.746 0 0 1-.292-.045c-.105-.045-.165-.128-.195-.255a2.55 2.55 0 0 1-.015-.323v-.757h-.27V3.57h.27v-.39h.442v.39h.338v-.008ZM9.06 3.562v.315h-.33v.788c0 .097.008.157.023.18.022.037.082.052.172.052.038 0 .083 0 .135-.007v.36c-.097.015-.195.015-.277.015a.746.746 0 0 1-.293-.045c-.105-.045-.165-.128-.195-.255a2.55 2.55 0 0 1-.015-.323v-.757h-.27V3.57h.27v-.39h.443v.39h.337v-.008ZM10.665 3.765a.808.808 0 0 0-.6-.24c-.27 0-.487.09-.645.262a.912.912 0 0 0-.217.623.9.9 0 0 0 .225.63c.15.172.36.255.622.255a.82.82 0 0 0 .6-.233c.165-.165.248-.382.248-.66a.899.899 0 0 0-.233-.637Zm-.907.247a.335.335 0 0 1 .285-.142c.127 0 .225.052.292.15.067.09.105.225.105.39 0 .18-.037.315-.112.412a.37.37 0 0 1-.57-.015c-.068-.09-.105-.225-.105-.397 0-.173.037-.3.105-.398ZM12.232 3.54v.435a.903.903 0 0 0-.172-.023.394.394 0 0 0-.367.21c-.045.075-.068.21-.068.39v.698h-.45V3.57h.427v.307c.12-.225.3-.345.525-.345.03 0 .068.008.105.008ZM13.815 4.987a.712.712 0 0 0 .128-.262h-.428a.386.386 0 0 1-.128.172.34.34 0 0 1-.202.053c-.173 0-.285-.068-.345-.218a.697.697 0 0 1-.037-.202h1.17c0-.203-.016-.368-.068-.495a.836.836 0 0 0-.225-.33.746.746 0 0 0-.518-.188c-.247 0-.45.09-.607.278a.9.9 0 0 0-.21.615c0 .12.015.247.06.36a.869.869 0 0 0 .173.277c.15.158.352.24.6.24.277 0 .487-.097.637-.3Zm-.3-.765v.008-.008Zm0 0a.661.661 0 0 0-.053-.195.327.327 0 0 0-.12-.127.348.348 0 0 0-.172-.045c-.098 0-.18.03-.248.097a.405.405 0 0 0-.112.27h.704Z" fill="#fff"/></svg>