<svg class="color-immutable" width="24" height="24" viewBox="0 0 24 24" fill="none" xmlns="http://www.w3.org/2000/svg"><path fill-rule="evenodd" clip-rule="evenodd" d="M22.5 0h-21C.7 0 0 .7 0 1.5v21c0 .8.7 1.5 1.5 1.5h21c.8 0 1.5-.7 1.5-1.5v-21c0-.8-.7-1.5-1.5-1.5Z" fill="#2D327D"/><path fill-rule="evenodd" clip-rule="evenodd" d="M18.3 15.8c-.1 1.4-.6 2.6-1.4 3.6-1.1 1.3-2.6 2-4.7 2s-3.8-.8-5-2.3c-1-1.3-1.5-2.9-1.5-4.8 0-2 .6-3.7 1.8-5 1.2-1.3 2.8-2 4.8-2 1.9 0 3.4.6 4.5 1.8.8.9 1.3 1.9 1.4 3h-2.9c-.2-.8-.5-1.4-1-1.8-.5-.4-1.2-.6-2-.6-1.3 0-2.2.5-2.9 1.6-.5.8-.7 1.8-.7 3s.2 2.2.8 3c.6 1 1.6 1.6 2.8 1.6.9 0 1.6-.3 2.1-.8s.8-1.3 1-2.3h2.9ZM4.8 3.7h-.5c0-.1-.1-.2-.1-.3 0 0-.1-.1-.3-.1-.1 0-.2 0-.3.1-.1.1 0 .1 0 .2s0 .1.1.2c.1 0 .2.1.4.1s.4.1.5.2c.2.1.3.3.3.5s-.1.4-.3.5c-.1.1-.4.2-.6.2-.3 0-.5-.1-.7-.2-.2-.2-.3-.3-.3-.6h.5c0 .1 0 .2.1.3.1.1.2.1.4.1.1 0 .2 0 .3-.1.1-.1.1-.1.1-.2s-.1-.1-.2-.2c0 0-.2-.1-.4-.1-.1 0-.3-.1-.3-.1s-.2-.1-.3-.2c-.1-.1-.1-.2-.1-.4s.1-.4.3-.5c.1-.1.3-.2.5-.2s.4 0 .5.1c.3.2.4.4.4.7ZM6.65 4.85c.025-.05.05-.1.05-.15h-.5c0 .1 0 .2-.1.2 0 .1-.1.1-.2.1s-.3-.1-.3-.3v-.2h1.2c0-.2 0-.4-.1-.5l-.3-.3c-.1-.1-.3-.2-.5-.2s-.4.1-.6.3c-.1.1-.2.4-.2.6 0 .117.034.2.063.269.02.048.037.09.037.131 0 .1.1.2.1.2.2.2.4.3.6.3.3 0 .5-.1.7-.3 0-.05.025-.1.05-.15ZM6.2 4c.1 0 .1.1.1.2h-.7c0-.05.025-.075.05-.1.025-.025.05-.05.05-.1 0-.1.1-.1.2-.1h.2s.1 0 .1.1ZM7.9 3.6v.3h-.4v1s.1.1.2.1h.1v.4h-.6c0-.2-.1-.3-.1-.4V3.9h-.3v-.3h.3v-.4h.4v.4h.4ZM9.1 3.6v.3h-.4v1s.1.1.2.1H9v.4h-.6c0-.2-.1-.3-.1-.4V3.9H8v-.3h.3v-.4h.4v.4h.4ZM10.7 3.7c-.2-.1-.4-.2-.6-.2-.3 0-.5.1-.7.3-.02.042-.042.08-.062.115-.075.135-.138.248-.138.485 0 .3.1.5.2.6.2.2.4.3.7.2.2 0 .5 0 .6-.2.1-.2.2-.4.2-.7 0-.2-.1-.4-.2-.6Zm-1 .3c.1-.1.2-.1.3-.1.2 0 .3 0 .3.2.1.1.1.2.1.4s0 .3-.1.4c-.1.1-.2.1-.3.1-.1 0-.2-.1-.2-.2-.1-.1-.1-.2-.1-.4V4ZM12.2 3.5V4H12c-.2 0-.3.1-.4.2 0 .1-.1.2-.1.4v.7H11V3.6h.4v.3c.1-.2.3-.3.5-.3l.3-.1ZM13.85 4.85c.025-.05.05-.1.05-.15h-.4c0 .1 0 .2-.1.2-.058.057-.082.082-.111.092C13.267 5 13.243 5 13.2 5c-.2 0-.3-.1-.4-.3v-.2H14c0-.2 0-.3-.2-.5 0-.1-.1-.2-.2-.3-.1-.1-.3-.2-.5-.2s-.4.1-.6.3c-.1.1-.2.4-.2.6 0 .117.034.2.063.269.02.048.037.09.037.131.05.05.075.1.1.15.025.05.05.1.1.15.2.1.4.2.6.2.2 0 .5-.1.6-.3 0-.05.025-.1.05-.15ZM13.4 4c.1 0 .1.1.1.2l-.7.1c0-.1 0-.2.1-.3 0-.1.1-.1.2-.1h.2s.1 0 .1.1Z" fill="#fff"/></svg>