<svg class="color-immutable" width="24" height="24" viewBox="0 0 24 24" fill="none" xmlns="http://www.w3.org/2000/svg"><path fill-rule="evenodd" clip-rule="evenodd" d="M22.5 0h-21C.675 0 0 .675 0 1.5v21c0 .825.675 1.5 1.5 1.5h21c.825 0 1.5-.675 1.5-1.5v-21c0-.825-.675-1.5-1.5-1.5Z" fill="#2D327D"/><path fill-rule="evenodd" clip-rule="evenodd" d="M17.227 16.665c-.082 1.163-.472 2.16-1.17 2.985-.914 1.08-2.204 1.62-3.877 1.62-1.777 0-3.165-.63-4.155-1.883-.847-1.072-1.267-2.407-1.267-4.012 0-1.68.502-3.082 1.507-4.207 1.005-1.118 2.34-1.68 4.005-1.68 1.553 0 2.805.51 3.75 1.537.675.72 1.05 1.553 1.125 2.498h-2.422c-.136-.638-.42-1.125-.856-1.47-.435-.346-.99-.518-1.65-.518-1.065 0-1.867.45-2.392 1.342-.397.683-.592 1.515-.592 2.505 0 1.013.21 1.86.622 2.536.525.87 1.313 1.297 2.348 1.297.735 0 1.327-.218 1.762-.652.435-.435.705-1.073.81-1.905h2.452v.007ZM4.815 3.667H4.35a.359.359 0 0 0-.12-.255c-.068-.06-.173-.09-.308-.09a.48.48 0 0 0-.27.068.22.22 0 0 0-.097.195c0 .075.03.127.09.157s.21.083.45.135c.255.06.435.128.533.195.18.12.27.285.27.495 0 .233-.09.42-.278.548-.157.12-.383.18-.653.18-.307 0-.54-.068-.712-.21C3.083 4.942 3 4.755 3 4.5h.487c.008.127.038.217.098.277.09.098.225.143.405.143.12 0 .217-.023.292-.075a.248.248 0 0 0 .12-.225c0-.098-.06-.165-.172-.21a8.966 8.966 0 0 0-.443-.135 2.33 2.33 0 0 1-.345-.113.67.67 0 0 1-.195-.12.559.559 0 0 1-.172-.427c0-.218.09-.39.27-.51.15-.105.352-.165.592-.165.218 0 .39.045.54.127.21.128.323.323.338.6ZM6.57 4.987a.712.712 0 0 0 .127-.262h-.435a.386.386 0 0 1-.127.172.34.34 0 0 1-.203.053c-.172 0-.285-.068-.345-.218a.697.697 0 0 1-.037-.202h1.17c0-.203-.015-.368-.068-.495a.836.836 0 0 0-.225-.33.715.715 0 0 0-.51-.188c-.247 0-.45.09-.607.278a.9.9 0 0 0-.21.615c0 .12.015.247.06.36a.869.869 0 0 0 .172.277c.15.158.353.24.6.24.278 0 .488-.097.638-.3Zm-.3-.765v.008-.008Zm0 0a.663.663 0 0 0-.053-.195.327.327 0 0 0-.12-.127.348.348 0 0 0-.172-.045c-.098 0-.18.03-.248.097a.405.405 0 0 0-.112.27h.704ZM8.573 3.57l-.615.623.682 1.057H8.1l-.45-.742-.18.172v.57h-.442V3h.442v1.17l.57-.6h.533ZM9.765 3.562v.315h-.33v.788c0 .097.008.157.023.18.022.037.082.052.172.052.038 0 .083 0 .135-.007v.36c-.097.015-.195.015-.277.015a.746.746 0 0 1-.293-.045C9.09 5.175 9.03 5.092 9 4.965a2.55 2.55 0 0 1-.015-.323v-.757h-.27V3.57h.27v-.39h.443v.39h.337v-.008ZM11.37 3.765a.808.808 0 0 0-.6-.24c-.27 0-.487.09-.645.262a.912.912 0 0 0-.218.623.9.9 0 0 0 .226.63c.15.172.36.255.622.255a.82.82 0 0 0 .6-.233c.165-.165.247-.382.247-.66a.899.899 0 0 0-.232-.637Zm-.907.247a.335.335 0 0 1 .285-.142c.127 0 .225.052.292.15.068.09.105.225.105.39 0 .18-.037.315-.112.412a.37.37 0 0 1-.57-.015c-.068-.09-.106-.225-.106-.397 0-.173.038-.3.106-.398ZM12.938 3.54v.435a.903.903 0 0 0-.173-.023.394.394 0 0 0-.367.21c-.046.075-.068.21-.068.39v.698h-.443V3.57h.428v.307c.12-.225.3-.345.525-.345.023 0 .06.008.098.008Z" fill="#fff"/></svg>