<svg class="color-immutable" width="24" height="24" viewBox="0 0 24 24" fill="none" xmlns="http://www.w3.org/2000/svg"><path fill-rule="evenodd" clip-rule="evenodd" d="M22.5 0h-21C.675 0 0 .675 0 1.5v21c0 .825.675 1.5 1.5 1.5h21c.825 0 1.5-.675 1.5-1.5v-21c0-.825-.675-1.5-1.5-1.5Z" fill="#2D327D"/><path fill-rule="evenodd" clip-rule="evenodd" d="M14.505 16.605a.922.922 0 0 0-1.38-.803.99.99 0 0 0-1.492-.45v-.014c0-.615-.495-1.11-1.11-1.11a1.107 1.107 0 0 0-1.066 1.425.99.99 0 0 0-1.23.96c0 .15.038.292.098.42a.562.562 0 1 0 .638.908 1.062 1.062 0 0 0 1.792.479.869.869 0 0 0 1.672.037.922.922 0 0 0 1.305-.84c0-.03 0-.052-.007-.082a.957.957 0 0 0 .78-.93ZM10.102 13.83 7.237 8.85l-.36.21a.927.927 0 0 0-.345 1.268l2.543 4.41a1.57 1.57 0 0 1 1.027-.908ZM8.842 15.218l-2.25-3.908-.36.203a.914.914 0 0 0-.435.562c-.06.24-.03.495.09.705l1.95 3.39a1.47 1.47 0 0 1 1.005-.952Z" fill="#fff"/><path fill-rule="evenodd" clip-rule="evenodd" d="M18.308 10.252a.763.763 0 0 0-.263-.022c-.653.053-1.2.51-1.373 1.14l-.757 2.828a.725.725 0 0 1-.885.51l-1.575-.428a1.055 1.055 0 0 1-.623-.48L8.797 6.795a.962.962 0 0 0-1.763.232c-.067.248-.029.51.091.736l3.473 6.022c.622.03 1.147.42 1.372.96a1.3 1.3 0 0 1 .24-.022c.435 0 .847.202 1.117.54a1.373 1.373 0 0 1 1.627 1.35c.001.547-.329 1.027-.809 1.245a1.37 1.37 0 0 1-1.35 1.117c-.053 0-.105 0-.15-.008a1.32 1.32 0 0 1-2.063.082 1.518 1.518 0 0 1-1.853-.525 1.005 1.005 0 0 1-1.185-.99c.001-.224.076-.441.218-.614l-1.815-3.15-.352.203a.914.914 0 0 0-.435.562.927.927 0 0 0 .09.705l1.17 2.092 2.055 3.675H16.2l2.648-9.81a.77.77 0 0 0-.54-.944Z" fill="#fff"/></svg>