<svg class="color-immutable" width="24" height="24" viewBox="0 0 24 24" fill="none" xmlns="http://www.w3.org/2000/svg"><path fill-rule="evenodd" clip-rule="evenodd" d="M22.5 0h-21C.675 0 0 .675 0 1.5v21c0 .825.675 1.5 1.5 1.5h21c.825 0 1.5-.675 1.5-1.5v-21c0-.825-.675-1.5-1.5-1.5Z" fill="#F7B500"/><path fill-rule="evenodd" clip-rule="evenodd" d="M14.025 16.05c0 1.043-.84 1.883-1.883 1.883a1.879 1.879 0 0 1-1.882-1.883c0-1.042.84-1.882 1.882-1.882 1.043 0 1.883.84 1.883 1.882Z" fill="#000"/><path fill-rule="evenodd" clip-rule="evenodd" d="M2.97 14.932a10.015 10.015 0 0 1 9.18-6.007c3.982 0 7.583 2.355 9.18 6.007a10.02 10.02 0 0 1-18.36 0Zm5.415 1.11a3.766 3.766 0 0 0 3.758 3.765 8.874 8.874 0 0 0 7.934-4.874 8.898 8.898 0 0 0-7.935-4.883 8.898 8.898 0 0 0-7.935 4.882A8.88 8.88 0 0 0 8.16 18.87a4.887 4.887 0 0 1-.893-2.82 4.875 4.875 0 0 1 4.875-4.875c2.7 0 4.883 2.182 4.883 4.875H15.9a3.76 3.76 0 0 0-3.758-3.765 3.755 3.755 0 0 0-3.757 3.758Z" fill="#000"/></svg>