<svg class="color-immutable" width="24" height="24" viewBox="0 0 24 24" fill="none" xmlns="http://www.w3.org/2000/svg"><path fill-rule="evenodd" clip-rule="evenodd" d="M22.5 0h-21C.675 0 0 .675 0 1.5v21c0 .825.675 1.5 1.5 1.5h21c.825 0 1.5-.675 1.5-1.5v-21c0-.825-.675-1.5-1.5-1.5Z" fill="#2D327D"/><path fill-rule="evenodd" clip-rule="evenodd" d="M15.787 5.13 3 3v.683l12.787 2.13V5.13ZM17.587 5.43v.683l3.413.57V6l-3.413-.57ZM19.275 17.025v-3.712a1.123 1.123 0 0 0-2.04-.653l-1.86 2.625a.517.517 0 0 0-.09.293c0 .277.225.51.502.51a.498.498 0 0 0 .413-.218l.75-1.057v1.574h-2.063a.752.752 0 0 0-.75.75v3.173c0 .383.308.69.698.69.382 0 .69-.308.69-.69v-2.535h3c.413 0 .75-.337.75-.75Z" fill="#fff"/><path fill-rule="evenodd" clip-rule="evenodd" d="M17.175 4.5H16.2v3.93l3.825.638v9.457H16.2v.975H21V8.242l-3.825-.637V4.5Z" fill="#fff"/><path fill-rule="evenodd" clip-rule="evenodd" d="M18.015 11.775c.578 0 1.05-.473 1.05-1.05 0-.577-.473-1.05-1.05-1.05-.578 0-1.05.473-1.05 1.05 0 .585.473 1.05 1.05 1.05Z" fill="#fff"/></svg>