<svg class="color-immutable" width="24" height="24" viewBox="0 0 24 24" fill="none" xmlns="http://www.w3.org/2000/svg"><path fill-rule="evenodd" clip-rule="evenodd" d="M22.5 0h-21C.675 0 0 .675 0 1.5v21c0 .825.675 1.5 1.5 1.5h21c.825 0 1.5-.675 1.5-1.5v-21c0-.825-.675-1.5-1.5-1.5Z" fill="#2D327D"/><path fill-rule="evenodd" clip-rule="evenodd" d="M8.213 5.13 21 3v.683L8.213 5.813V5.13ZM6.412 5.43v.683L3 6.683V6l3.412-.57ZM4.725 17.025v-3.712a1.123 1.123 0 0 1 2.04-.653l1.86 2.625c.06.09.09.188.09.293 0 .277-.225.51-.502.51a.498.498 0 0 1-.413-.218l-.75-1.057v1.574h2.063c.412 0 .75.338.75.75v3.173a.69.69 0 0 1-.698.69.688.688 0 0 1-.69-.69v-2.535h-3a.752.752 0 0 1-.75-.75Z" fill="#fff"/><path fill-rule="evenodd" clip-rule="evenodd" d="M6.825 4.5H7.8v3.93l-3.825.638v9.457H7.8v.975H3V8.242l3.825-.637V4.5Z" fill="#fff"/><path fill-rule="evenodd" clip-rule="evenodd" d="M5.985 11.775c-.578 0-1.05-.473-1.05-1.05 0-.577.473-1.05 1.05-1.05.577 0 1.05.473 1.05 1.05 0 .585-.473 1.05-1.05 1.05Z" fill="#fff"/></svg>