<svg class="color-immutable" width="24" height="24" viewBox="0 0 24 24" fill="none" xmlns="http://www.w3.org/2000/svg"><path fill-rule="evenodd" clip-rule="evenodd" d="M22.5 0h-21C.675 0 0 .675 0 1.5v21c0 .825.675 1.5 1.5 1.5h21c.825 0 1.5-.675 1.5-1.5v-21c0-.825-.675-1.5-1.5-1.5Z" fill="#2D327D"/><path fill-rule="evenodd" clip-rule="evenodd" d="m13.38 11.033.412 9.06a.853.853 0 0 1-.232.637.868.868 0 0 1-.63.27H3.87a.868.868 0 0 1-.87-.907l.413-9.06a.873.873 0 0 1 .87-.833h1.95v-.54a2.16 2.16 0 0 1 4.32 0v.54h1.957c.465 0 .848.368.87.833ZM7.455 9.66c0-.525.42-.945.945-.945.525 0 .945.42.945.945v.54h-1.89v-.54Zm-2.662 9.585.337-7.29h1.11v1.147c0 .338.27.608.608.608.337 0 .607-.27.607-.608v-1.147h1.89v1.147c0 .338.27.608.608.608.337 0 .607-.27.607-.608v-1.147h1.11l.338 7.29H4.793ZM4.958 3.667h-.465a.359.359 0 0 0-.12-.254.47.47 0 0 0-.308-.09.48.48 0 0 0-.27.067.22.22 0 0 0-.097.195c0 .075.03.127.09.158.06.03.21.082.45.135.255.06.435.127.532.194.18.12.27.285.27.495 0 .233-.09.42-.277.548-.158.12-.383.18-.653.18-.307 0-.54-.067-.712-.21-.173-.143-.255-.338-.263-.593h.488c.007.128.037.218.097.278.09.098.225.143.405.143.12 0 .218-.023.293-.075a.248.248 0 0 0 .12-.226c0-.097-.06-.165-.173-.21a8.966 8.966 0 0 0-.442-.135 2.33 2.33 0 0 1-.345-.112.67.67 0 0 1-.195-.12.559.559 0 0 1-.173-.428c0-.217.09-.39.27-.51.15-.105.353-.164.593-.164.217 0 .39.044.54.127.225.135.337.33.345.607ZM5.79 3v.803a.564.564 0 0 1 .51-.285c.225 0 .383.082.48.24.06.09.082.232.082.427V5.25H6.42v-.99c0-.12-.015-.21-.053-.255a.276.276 0 0 0-.232-.105c-.143 0-.24.06-.3.188a.634.634 0 0 0-.037.127c-.008.045-.008.12-.008.218v.825h-.442V3h.442ZM8.617 3.765a.808.808 0 0 0-.6-.24c-.27 0-.487.09-.644.263a.912.912 0 0 0-.218.622.9.9 0 0 0 .225.63c.15.173.36.255.622.255a.82.82 0 0 0 .6-.232c.165-.165.248-.383.248-.66a.899.899 0 0 0-.232-.638Zm-.907.248a.335.335 0 0 1 .285-.143c.128 0 .225.053.292.15.068.09.105.225.105.39 0 .18-.037.315-.112.413a.37.37 0 0 1-.57-.015c-.067-.09-.105-.225-.105-.398 0-.172.037-.3.105-.397ZM9.555 3.78v-.21h-.42v2.28h.443v-.817c.12.172.285.262.502.262a.622.622 0 0 0 .533-.262c.12-.158.18-.368.18-.615 0-.27-.068-.488-.203-.653a.643.643 0 0 0-.525-.247c-.217 0-.39.09-.51.262Zm.113.263a.325.325 0 0 1 .277-.135c.127 0 .217.037.293.127.067.09.104.225.104.39a.618.618 0 0 1-.104.375.339.339 0 0 1-.278.128c-.12 0-.217-.038-.285-.128-.075-.09-.112-.217-.112-.382 0-.158.037-.285.105-.375ZM11.482 3.78v-.21h-.42v2.28h.443v-.817c.12.172.285.262.502.262a.622.622 0 0 0 .533-.262c.12-.158.18-.368.18-.615 0-.27-.068-.488-.203-.653a.643.643 0 0 0-.524-.247c-.218 0-.39.09-.51.262Zm.106.263a.325.325 0 0 1 .277-.135c.127 0 .225.037.293.127.067.09.104.225.104.39a.618.618 0 0 1-.104.375.339.339 0 0 1-.278.128c-.12 0-.218-.038-.285-.128-.075-.09-.113-.217-.113-.382 0-.158.038-.285.106-.375ZM13.44 3.405V3h-.442v.405h.442Zm0 1.845V3.57h-.442v1.68h.442ZM14.22 3.57v.233a.604.604 0 0 1 .143-.158.662.662 0 0 1 .397-.127c.135 0 .255.037.353.105a.435.435 0 0 1 .157.21c.03.082.045.202.045.36V5.25h-.442v-.96a.666.666 0 0 0-.03-.24.177.177 0 0 0-.09-.105.302.302 0 0 0-.165-.045.339.339 0 0 0-.188.053.26.26 0 0 0-.12.135.738.738 0 0 0-.045.3v.862h-.442V3.57h.427ZM17.235 5.048V3.555h-.42v.225a.547.547 0 0 0-.203-.21.608.608 0 0 0-.277-.06.659.659 0 0 0-.525.24c-.128.158-.188.36-.188.615s.06.458.188.608c.127.15.292.225.502.225a.542.542 0 0 0 .495-.263v.21c0 .143-.022.248-.067.308-.06.082-.157.12-.3.12-.18 0-.293-.068-.323-.21h-.45c.046.352.3.525.766.525.337 0 .57-.105.697-.308a.766.766 0 0 0 .082-.217c.015-.083.023-.18.023-.315ZM16.14 4.043a.315.315 0 0 1 .285-.158.32.32 0 0 1 .262.113c.083.09.12.21.12.367 0 .128-.022.24-.074.323a.323.323 0 0 1-.3.165.325.325 0 0 1-.256-.113c-.075-.09-.112-.21-.112-.375 0-.135.022-.24.075-.322Z" fill="#fff"/></svg>