<svg class="color-immutable" width="24" height="24" viewBox="0 0 24 24" fill="none" xmlns="http://www.w3.org/2000/svg"><g clip-path="url(#a)"><path d="M0 22.5v-21C0 .675.675 0 1.5 0h21c.825 0 1.5.675 1.5 1.5v21c0 .825-.675 1.5-1.5 1.5h-21C.675 24 0 23.325 0 22.5Z" fill="#2D327D"/><path d="M3.385 18.748a.188.188 0 0 0-.186.16l-.282 1.879c-.002.009-.002.018-.002.028 0 .102.083.188.188.188a.189.189 0 0 0 .185-.16l.282-1.879a.188.188 0 0 0-.185-.216ZM3.947 14.999a.187.187 0 0 0-.185.158l-.282 1.881a.187.187 0 0 0 .186.214.186.186 0 0 0 .185-.158l.282-1.881c.002-.007.002-.018.002-.028a.187.187 0 0 0-.188-.186ZM4.453 11.623a.186.186 0 0 0-.185.16l-.282 1.879a.187.187 0 0 0 .186.215.189.189 0 0 0 .186-.16l.281-1.879a.133.133 0 0 0 .003-.028.188.188 0 0 0-.189-.187ZM4.622 10.877a.188.188 0 0 0 .186-.161l.282-1.878v-.027a.188.188 0 0 0-.187-.189.19.19 0 0 0-.186.161l-.282 1.878-.002.028a.19.19 0 0 0 .189.188ZM5.084 16.124a.187.187 0 0 0-.186.167l-.212 1.877-.001.02a.187.187 0 0 0 .374.021l.211-1.877c.002-.006.002-.013.002-.02a.188.188 0 0 0-.188-.188ZM5.463 12.749a.188.188 0 0 0-.186.166l-.211 1.877-.001.02a.188.188 0 0 0 .374.021l.212-1.877v-.02a.188.188 0 0 0-.188-.187ZM5.989 9.936a.188.188 0 0 0-.375-.022l-.211 1.877-.002.021c0 .105.084.188.187.188a.188.188 0 0 0 .187-.167l.211-1.877a.07.07 0 0 0 .003-.02ZM6.192 18.749a.188.188 0 0 0-.187.174l-.141 1.876v.014a.187.187 0 0 0 .374.014l.141-1.876.001-.013a.189.189 0 0 0-.188-.189ZM6.474 15a.187.187 0 0 0-.187.173l-.14 1.877v.013c0 .105.083.189.187.189.098 0 .18-.075.188-.173l.14-1.877.001-.014A.19.19 0 0 0 6.474 15ZM6.727 11.624a.19.19 0 0 0-.187.174l-.14 1.876-.001.014c0 .103.084.188.187.188a.188.188 0 0 0 .187-.174l.14-1.876.001-.013a.187.187 0 0 0-.187-.189ZM6.951 8.624a.188.188 0 0 0-.186.175l-.141 1.875-.001.014c0 .103.084.188.187.188a.19.19 0 0 0 .187-.174l.141-1.876v-.015a.186.186 0 0 0-.187-.187ZM7.694 16.125c-.1 0-.183.079-.188.179l-.071 1.876v.007a.188.188 0 0 0 .376.007l.071-1.875v-.008a.187.187 0 0 0-.188-.186ZM7.821 12.749c-.1 0-.184.081-.187.181l-.071 1.876v.007a.188.188 0 0 0 .375.008l.071-1.876v-.006a.189.189 0 0 0-.188-.19ZM7.933 9.749c-.1 0-.183.081-.187.181l-.071 1.875v.008a.19.19 0 0 0 .189.187c.1 0 .184-.08.187-.18l.071-1.876v-.007a.19.19 0 0 0-.189-.188ZM4.954 8.249h8.093a.45.45 0 0 0 .434-.569A4.65 4.65 0 0 0 9.75 4.336V3h-1.5v1.336A4.65 4.65 0 0 0 4.52 7.68a.45.45 0 0 0 .434.569ZM9.001 8.626a.187.187 0 0 0-.188.186v1.877c0 .103.084.186.188.186a.187.187 0 0 0 .187-.186V8.811a.188.188 0 0 0-.187-.185ZM9.001 11.625a.187.187 0 0 0-.188.187v1.876a.188.188 0 0 0 .375 0v-1.876a.188.188 0 0 0-.187-.187ZM9.001 15a.187.187 0 0 0-.188.189v1.874c0 .104.084.189.188.189a.188.188 0 0 0 .187-.189v-1.874A.188.188 0 0 0 9.001 15ZM9.001 18.75a.188.188 0 0 0-.188.188v1.876a.187.187 0 0 0 .375-.001v-1.876a.189.189 0 0 0-.187-.187ZM10.137 12a.187.187 0 0 0 .187-.187v-.008l-.07-1.875a.19.19 0 0 0-.188-.181.189.189 0 0 0-.188.187v.007h.002l.07 1.876a.187.187 0 0 0 .187.181ZM10.249 15a.188.188 0 0 0 .188-.187v-.007l-.071-1.876a.188.188 0 0 0-.375.008v.006l.07 1.876c.004.101.088.18.188.18ZM10.306 16.125a.188.188 0 0 0-.189.187l.001.008.071 1.875c.004.1.086.181.187.181a.188.188 0 0 0 .187-.188v-.007l-.07-1.876a.187.187 0 0 0-.187-.18ZM11.377 10.688l-.001-.014-.14-1.875a.189.189 0 0 0-.187-.175.189.189 0 0 0-.186.203l.139 1.876a.188.188 0 0 0 .188.174.19.19 0 0 0 .187-.189ZM11.602 13.688l-.001-.014-.14-1.876a.188.188 0 0 0-.187-.174.188.188 0 0 0-.188.188v.013l.14 1.876a.188.188 0 0 0 .376-.013ZM11.855 17.062v-.013l-.141-1.877a.187.187 0 0 0-.375.015l.001.014.141 1.877a.186.186 0 0 0 .186.173.188.188 0 0 0 .188-.189ZM11.995 18.923a.188.188 0 0 0-.375.014v.013l.141 1.876a.188.188 0 0 0 .375-.014l-.001-.014-.14-1.875ZM12.598 11.813l-.001-.021-.211-1.877a.187.187 0 0 0-.187-.165.188.188 0 0 0-.188.187l.001.022.212 1.877c.01.094.091.167.186.167a.19.19 0 0 0 .188-.19ZM12.936 14.813a.123.123 0 0 0-.002-.02l-.211-1.877a.187.187 0 0 0-.373.041l.211 1.877a.188.188 0 0 0 .375-.021ZM13.103 16.292a.188.188 0 0 0-.187-.167.187.187 0 0 0-.187.188v.02l.212 1.877a.187.187 0 0 0 .186.166.187.187 0 0 0 .188-.187l-.001-.02-.211-1.877ZM13.097 8.622a.19.19 0 0 0-.187.189l.002.028.282 1.878a.188.188 0 0 0 .185.161.188.188 0 0 0 .188-.189c0-.009 0-.018-.002-.028l-.281-1.878a.19.19 0 0 0-.187-.161ZM14.016 13.69a.264.264 0 0 0-.002-.028l-.282-1.879a.188.188 0 0 0-.186-.16.188.188 0 0 0-.185.216l.282 1.879a.187.187 0 0 0 .373-.028ZM14.523 17.066a.23.23 0 0 0-.002-.028l-.282-1.881a.187.187 0 0 0-.371.056l.281 1.881a.188.188 0 0 0 .374-.028ZM15.083 20.787l-.283-1.879a.186.186 0 0 0-.185-.16.188.188 0 0 0-.186.216l.282 1.879c.013.091.093.16.186.16a.189.189 0 0 0 .187-.188c.001-.01 0-.019-.001-.028Z" fill="#fff"/></g><defs><clipPath id="a"><path fill="#fff" d="M0 0h24v24H0z"/></clipPath></defs></svg>