<svg class="color-immutable" width="30" height="30" viewBox="0 0 30 30" fill="none" xmlns="http://www.w3.org/2000/svg"><g clip-path="url(#a)"><path d="M30 0H0v30h30V0Z" fill="#2D327D"/><path d="M25.5 3c.825 0 1.5.675 1.5 1.5v21c0 .825-.675 1.5-1.5 1.5h-21c-.825 0-1.5-.675-1.5-1.5v-21C3 3.675 3.675 3 4.5 3h21Zm0-.375h-21A1.877 1.877 0 0 0 2.625 4.5v21c0 1.034.841 1.875 1.875 1.875h21a1.877 1.877 0 0 0 1.875-1.875v-21A1.877 1.877 0 0 0 25.5 2.625Z" fill="#fff"/><path d="M16.5 8.625a1.5 1.5 0 1 1-3 0 1.5 1.5 0 0 1 3 0ZM16.5 15.423v-3.071a1.664 1.664 0 0 0-3.105-.832l-.293.505 3.398 3.398ZM12.326 13.37l-1.31 2.268a.563.563 0 0 0 .975.562l1.134-1.964v2.639H11.17a1.5 1.5 0 0 0-1.3.75l-2.323 4.026a.656.656 0 0 0 1.136.656l2.27-3.932h4.798a.75.75 0 0 0 .75-.75v-.08l-4.174-4.175ZM19.5 18.423V15.75h4.125a.375.375 0 0 0 0-.75h-4.5a.375.375 0 0 0-.375.375v2.298l.75.75Z" fill="#fff"/><path d="M18.08 19.125h-5.33a.375.375 0 0 0-.375.375v3.75h-6a.375.375 0 0 0 0 .75h6.375a.375.375 0 0 0 .375-.375v-3.75h5.706l-.75-.75Z" fill="#fff"/><path d="m6.708 5.631-1.06 1.06 17.341 17.343 1.061-1.06L6.708 5.63Z" fill="#EB0000"/></g><defs><clipPath id="a"><path fill="#fff" d="M0 0h30v30H0z"/></clipPath></defs></svg>