<svg class="color-immutable" width="24" height="24" viewBox="0 0 24 24" fill="none" xmlns="http://www.w3.org/2000/svg"><g clip-path="url(#a)"><path d="M0 22.5v-21C0 .675.675 0 1.5 0h21c.825 0 1.5.675 1.5 1.5v21c0 .825-.675 1.5-1.5 1.5h-21C.675 24 0 23.325 0 22.5Z" fill="#2D327D"/><path d="M12 4.125a1.5 1.5 0 1 1-.001 3.001A1.5 1.5 0 0 1 12 4.125ZM10.5 11.544v3.081c0 .414.336.75.75.75h3.081L10.5 11.544ZM14.952 13.875l4.13 4.13-1.951-3.38a1.5 1.5 0 0 0-1.299-.75h-.88ZM13.875 12.798v-1.562l1.134 1.964a.562.562 0 0 0 .974-.562L13.605 8.52a1.664 1.664 0 0 0-3.105.832v.071l3.375 3.375ZM20.751 20.273l-.727.727h.601a.375.375 0 0 0 .126-.727Z" fill="#fff"/><path d="M19.206 20.25h-4.581V16.5a.375.375 0 0 0-.375-.375h-6v-3.75A.375.375 0 0 0 7.875 12h-4.5a.375.375 0 0 0 0 .75H7.5v3.75c0 .207.168.375.375.375h6v3.75c0 .207.168.375.375.375h5.706l-.75-.75Z" fill="#fff"/><path d="m3.708 2.631-1.06 1.06 17.341 17.343 1.06-1.061L3.71 2.63Z" fill="#EB0000"/></g><defs><clipPath id="a"><path fill="#fff" d="M0 0h24v24H0z"/></clipPath></defs></svg>