<svg class="color-immutable" width="30" height="30" viewBox="0 0 30 30" fill="none" xmlns="http://www.w3.org/2000/svg"><g clip-path="url(#a)"><path d="M30 0H0v30h30V0Z" fill="#2D327D"/><path d="M25.5 3c.825 0 1.5.675 1.5 1.5v21c0 .825-.675 1.5-1.5 1.5h-21c-.825 0-1.5-.675-1.5-1.5v-21C3 3.675 3.675 3 4.5 3h21Zm0-.375h-21A1.877 1.877 0 0 0 2.625 4.5v21c0 1.034.841 1.875 1.875 1.875h21a1.877 1.877 0 0 0 1.875-1.875v-21A1.877 1.877 0 0 0 25.5 2.625Z" fill="#fff"/><path d="M13.765 12.591 20.355 6h1.008l-7.094 7.095-.504-.504ZM10.874 10.23l3.278 3.28a.544.544 0 0 1-.768.769l-2.51-2.51v-1.538ZM11.738 15.624l-.503-.503 1.23-1.23.504.503-1.23 1.23Z" fill="#fff"/><path d="m6.109 11.59 2.117-2.118a1.332 1.332 0 0 1 2.273.942v4.502l1.653 1.652c.07.071.11.167.11.266v4.222a.693.693 0 1 1-1.389 0v-3.432l-2.921-2.81a.376.376 0 0 1-.115-.27v-3.197l-.75.75v2.771a.544.544 0 0 1-1.087 0v-3.012c0-.1.039-.195.109-.266Z" fill="#fff"/><path d="M19.272 20.298a.988.988 0 0 0 .414-.61h.863a1.558 1.558 0 0 1-.475.935c-.398.358-.879.61-1.4.736L6 24v-.69l12.17-2.535c.395-.084.77-.246 1.102-.477ZM8.957 17.43a.544.544 0 1 1 1.088 0 .544.544 0 0 1-1.088 0ZM9.158 8.838a1.163 1.163 0 1 1 .001-2.325 1.163 1.163 0 0 1-.001 2.325Z" fill="#fff"/></g><defs><clipPath id="a"><path fill="#fff" d="M0 0h30v30H0z"/></clipPath></defs></svg>