<svg class="color-immutable" width="30" height="30" viewBox="0 0 30 30" fill="none" xmlns="http://www.w3.org/2000/svg"><g clip-path="url(#a)"><path d="M30 0H0v30h30V0Z" fill="#2D327D"/><path d="M25.5 3c.825 0 1.5.675 1.5 1.5v21c0 .825-.675 1.5-1.5 1.5h-21c-.825 0-1.5-.675-1.5-1.5v-21C3 3.675 3.675 3 4.5 3h21Zm0-.375h-21A1.877 1.877 0 0 0 2.625 4.5v21c0 1.034.841 1.875 1.875 1.875h21a1.877 1.877 0 0 0 1.875-1.875v-21A1.877 1.877 0 0 0 25.5 2.625Z" fill="#fff"/><path d="M16.234 12.591 9.644 6H8.636l7.095 7.095.503-.504ZM19.125 10.23l-3.277 3.28a.544.544 0 0 0 .768.769l2.51-2.51v-1.538ZM18.261 15.624l.504-.503-1.231-1.23-.504.503 1.231 1.23Z" fill="#fff"/><path d="m23.891 11.59-2.117-2.118a1.332 1.332 0 0 0-2.273.942v4.502l-1.653 1.652a.375.375 0 0 0-.11.266v4.222a.693.693 0 1 0 1.389 0v-3.432l2.921-2.81a.376.376 0 0 0 .116-.27v-3.197l.75.75v2.771a.544.544 0 0 0 1.086 0v-3.012c0-.1-.04-.195-.109-.266Z" fill="#fff"/><path d="M10.728 20.298a.988.988 0 0 1-.414-.61h-.863c.046.357.213.687.475.935.398.358.879.61 1.4.736L24 24v-.69l-12.17-2.535a3.017 3.017 0 0 1-1.102-.477ZM21.043 17.43a.544.544 0 1 0-1.09 0 .544.544 0 0 0 1.09 0ZM20.842 8.838a1.163 1.163 0 1 0-.002-2.325 1.163 1.163 0 0 0 .002 2.325Z" fill="#fff"/></g><defs><clipPath id="a"><path fill="#fff" d="M0 0h30v30H0z"/></clipPath></defs></svg>