<svg class="color-immutable" width="24" height="24" viewBox="0 0 24 24" fill="none" xmlns="http://www.w3.org/2000/svg"><g clip-path="url(#a)"><path d="M0 22.5v-21C0 .675.675 0 1.5 0h21c.825 0 1.5.675 1.5 1.5v21c0 .825-.675 1.5-1.5 1.5h-21C.675 24 0 23.325 0 22.5Z" fill="#2D327D"/><path d="M4.032 16.795a.763.763 0 1 0 0-1.526.763.763 0 0 0 0 1.526ZM9.59 16.795a.762.762 0 1 0 .002-1.524.762.762 0 0 0-.002 1.524ZM3.994 8.674a.764.764 0 1 0-.001-1.527.764.764 0 0 0 .001 1.527ZM9.567 8.674a.764.764 0 1 0-.001-1.527.764.764 0 0 0 .001 1.527Z" fill="#fff"/><path d="m7.842 21.171.639.427L4.955 3.879l-.004.001-.03-.098c-.038-.116-.08-.169-.205-.376a1.605 1.605 0 0 0-.58-.564c-.269-.156-.62-.198-.62-.198s-.147.093-.086.127c.06.034.615.427.746.625s.241.589.241.589l.071-.013-.068.014 1.508 7.571-.156.03-.189.167-.178.127-.101.334-.075.514-.553.81-.481.094.171.873 2.065-.404M9.984 13.409l-.17-.872-.481.093-.818-.542-.263-.449-.22-.271-.213-.051-.238-.083-.126.025L5.948 3.69h.001s-.039-.407.008-.639c.047-.233.413-.804.456-.86.043-.054-.129-.086-.129-.086s-.309.171-.5.416a1.613 1.613 0 0 0-.325.741c-.039.239-.056.304-.048.426l.008.112h-.002l3.527 17.72.426-.647-1.408-7.07 2.022-.394Z" fill="#fff"/></g><defs><clipPath id="a"><path fill="#fff" d="M0 0h24v24H0z"/></clipPath></defs></svg>