<svg class="color-immutable" width="30" height="30" viewBox="0 0 30 30" fill="none" xmlns="http://www.w3.org/2000/svg"><g clip-path="url(#a)"><path d="M30 0H0v30h30V0Z" fill="#2D327D"/><path d="M25.5 3c.825 0 1.5.675 1.5 1.5v21c0 .825-.675 1.5-1.5 1.5h-21c-.825 0-1.5-.675-1.5-1.5v-21C3 3.675 3.675 3 4.5 3h21Zm0-.375h-21A1.877 1.877 0 0 0 2.625 4.5v21c0 1.034.841 1.875 1.875 1.875h21a1.877 1.877 0 0 0 1.875-1.875v-21A1.877 1.877 0 0 0 25.5 2.625Z" fill="#fff"/><path d="M7.032 19.795a.763.763 0 1 0 0-1.526.763.763 0 0 0 0 1.526ZM12.59 19.795a.763.763 0 1 0 .001-1.526.763.763 0 0 0 0 1.526ZM6.994 11.674a.763.763 0 1 0 0-1.527.763.763 0 0 0 0 1.527ZM12.567 11.674a.764.764 0 1 0 0-1.528.764.764 0 0 0 0 1.528Z" fill="#fff"/><path d="m10.842 24.17.64.428-3.527-17.72-.004.002-.03-.098c-.038-.116-.08-.17-.204-.376a1.61 1.61 0 0 0-.58-.565c-.27-.155-.62-.198-.62-.198s-.148.094-.087.128c.06.034.614.427.746.625.131.198.241.59.241.59l.071-.014-.068.014 1.508 7.57-.156.03-.19.167-.178.128-.101.334-.076.513-.553.81-.48.095.17.872 2.065-.404M12.984 16.409l-.17-.873-.482.094-.818-.542-.262-.449-.22-.27-.213-.052-.238-.083-.126.025-1.507-7.57s-.038-.407.008-.64c.047-.232.413-.804.457-.859.043-.054-.13-.086-.13-.086s-.308.172-.499.417a1.604 1.604 0 0 0-.325.741c-.039.239-.056.304-.048.426l.008.112h-.002l3.526 17.72.426-.647-1.407-7.07 2.022-.395Z" fill="#fff"/></g><defs><clipPath id="a"><path fill="#fff" d="M0 0h30v30H0z"/></clipPath></defs></svg>