<svg class="color-immutable" width="24" height="24" viewBox="0 0 24 24" fill="none" xmlns="http://www.w3.org/2000/svg"><g clip-path="url(#a)"><path d="M0 22.5v-21C0 .675.675 0 1.5 0h21c.825 0 1.5.675 1.5 1.5v21c0 .825-.675 1.5-1.5 1.5h-21C.675 24 0 23.325 0 22.5Z" fill="#2D327D"/><path d="M10.765 9.591 17.355 3h1.008l-7.094 7.094-.504-.503ZM7.874 7.231l3.278 3.278a.543.543 0 1 1-.768.768l-2.51-2.508V7.231ZM8.738 12.624l-.503-.503 1.231-1.23.503.503-1.231 1.23Z" fill="#fff"/><path d="m3.109 8.59 2.117-2.118a1.332 1.332 0 0 1 2.273.941v4.502l1.653 1.653c.071.071.11.166.11.266v4.222a.693.693 0 1 1-1.388 0v-3.432l-2.922-2.81a.373.373 0 0 1-.115-.27V8.347l-.75.75v2.772a.543.543 0 0 1-1.086 0V8.856a.37.37 0 0 1 .108-.266Z" fill="#fff"/><path d="M16.272 17.298a.987.987 0 0 0 .414-.611h.863a1.558 1.558 0 0 1-.475.936c-.398.357-.879.61-1.4.736L3 21v-.69l12.17-2.536c.395-.083.77-.245 1.102-.476ZM5.957 14.43a.544.544 0 1 1 1.088 0 .544.544 0 0 1-1.088 0ZM6.157 5.838a1.163 1.163 0 1 1 .002-2.326 1.163 1.163 0 0 1-.002 2.326Z" fill="#fff"/></g><defs><clipPath id="a"><path fill="#fff" d="M0 0h24v24H0z"/></clipPath></defs></svg>