<svg class="color-immutable" width="24" height="24" viewBox="0 0 24 24" fill="none" xmlns="http://www.w3.org/2000/svg"><path fill-rule="evenodd" clip-rule="evenodd" d="M22.5 0h-21C.675 0 0 .675 0 1.5v21c0 .825.675 1.5 1.5 1.5h21c.825 0 1.5-.675 1.5-1.5v-21c0-.825-.675-1.5-1.5-1.5Z" fill="#2D327D"/><path fill-rule="evenodd" clip-rule="evenodd" d="M13.238 9.592 6.645 3H5.633l7.094 7.095.51-.503ZM16.125 7.23l-3.277 3.277a.54.54 0 0 0 .39.922c.142.001.285-.059.382-.156l2.513-2.506V7.23h-.008ZM15.262 12.623l.503-.503-1.23-1.23-.502.502 1.23 1.23Z" fill="#fff"/><path fill-rule="evenodd" clip-rule="evenodd" d="M20.895 8.588 18.78 6.473a1.332 1.332 0 0 0-2.273.945v4.5l-1.65 1.65a.382.382 0 0 0-.112.262v4.222a.695.695 0 0 0 1.388 0v-3.427l2.925-2.813a.368.368 0 0 0 .112-.27V8.349l.75.75v2.774c0 .3.24.54.547.54.3 0 .54-.24.54-.54V8.859a.439.439 0 0 0-.112-.27ZM7.725 17.295a.985.985 0 0 1-.412-.608H6.45c.045.36.21.69.473.938.397.36.877.608 1.402.735L21 21v-.69L8.828 17.775a3.07 3.07 0 0 1-1.103-.48Z" fill="#fff"/><path fill-rule="evenodd" clip-rule="evenodd" d="M18.045 14.43a.544.544 0 1 0-1.088 0c0 .3.24.547.54.547a.55.55 0 0 0 .548-.547ZM17.843 5.835a1.163 1.163 0 1 0-.002-2.327 1.163 1.163 0 0 0 .002 2.327Z" fill="#fff"/></svg>