<svg class="color-immutable" width="24" height="24" viewBox="0 0 24 24" fill="none" xmlns="http://www.w3.org/2000/svg"><path fill-rule="evenodd" clip-rule="evenodd" d="M22.5 0h-21C.675 0 0 .675 0 1.5v21c0 .825.675 1.5 1.5 1.5h21c.825 0 1.5-.675 1.5-1.5v-21c0-.825-.675-1.5-1.5-1.5Z" fill="#2D327D"/><path fill-rule="evenodd" clip-rule="evenodd" d="M10.762 9.592 17.355 3h1.005l-7.095 7.095-.503-.503ZM7.875 7.23l3.277 3.277a.54.54 0 0 1-.39.922.552.552 0 0 1-.382-.156L7.875 8.767V7.23ZM8.738 12.623l-.503-.503 1.23-1.23.502.502-1.23 1.23Z" fill="#fff"/><path fill-rule="evenodd" clip-rule="evenodd" d="M3.105 8.588 5.22 6.473a1.332 1.332 0 0 1 2.272.945v4.5l1.65 1.65a.382.382 0 0 1 .113.262v4.222a.695.695 0 0 1-1.388 0v-3.427l-2.925-2.813a.368.368 0 0 1-.112-.27V8.349l-.75.75v2.774c0 .3-.24.54-.547.54-.3 0-.54-.24-.54-.54V8.859a.439.439 0 0 1 .112-.27ZM16.275 17.295c.21-.143.36-.36.413-.608h.862c-.045.36-.21.69-.473.938-.397.36-.877.608-1.402.735L3 21v-.69l12.172-2.535a3.07 3.07 0 0 0 1.103-.48Z" fill="#fff"/><path fill-rule="evenodd" clip-rule="evenodd" d="M5.955 14.43a.544.544 0 1 1 1.088 0c0 .3-.24.547-.54.547a.55.55 0 0 1-.548-.547ZM6.157 5.835a1.159 1.159 0 0 1-1.162-1.162c0-.645.518-1.163 1.162-1.163.646 0 1.163.518 1.163 1.163s-.518 1.162-1.163 1.162Z" fill="#fff"/></svg>