<svg class="color-immutable" width="24" height="24" viewBox="0 0 24 24" fill="none" xmlns="http://www.w3.org/2000/svg"><path fill-rule="evenodd" clip-rule="evenodd" d="M22.5 0h-21C.675 0 0 .675 0 1.5v21c0 .825.675 1.5 1.5 1.5h21c.825 0 1.5-.675 1.5-1.5v-21c0-.825-.675-1.5-1.5-1.5Z" fill="#2D327D"/><path fill-rule="evenodd" clip-rule="evenodd" d="M4.035 16.793c.42 0 .765-.338.765-.765a.768.768 0 0 0-.765-.765.768.768 0 0 0-.765.764c0 .428.338.765.765.765ZM9.593 16.793c.42 0 .764-.338.764-.765a.768.768 0 0 0-.764-.765.768.768 0 0 0-.765.764c0 .428.345.765.765.765ZM3.998 8.677c.42 0 .765-.345.765-.765a.768.768 0 0 0-.765-.765.768.768 0 0 0-.765.765c0 .42.337.765.765.765ZM9.57 8.677c.42 0 .765-.345.765-.765a.768.768 0 0 0-.765-.765.768.768 0 0 0-.765.765c0 .42.338.765.765.765Z" fill="#fff"/><path fill-rule="evenodd" clip-rule="evenodd" d="m7.845 21.172.638.428L4.958 3.877H4.95l-.03-.097c-.037-.113-.082-.173-.202-.375a1.543 1.543 0 0 0-.578-.563c-.27-.157-.622-.195-.622-.195s-.15.098-.09.128c.06.037.615.427.742.622.128.195.24.593.24.593l.068-.015-.068.015 1.515 7.567-.157.03-.188.165-.18.128-.097.337-.075.51-.555.81-.48.09.172.87 2.063-.405M9.983 13.41l-.173-.87-.48.098-.817-.54-.263-.45-.217-.27-.21-.053-.24-.082-.128.022L5.948 3.69s-.038-.405.007-.638c.045-.232.413-.802.458-.862.045-.053-.128-.083-.128-.083s-.307.173-.502.42a1.564 1.564 0 0 0-.323.743c-.037.24-.06.307-.045.427l.008.113 3.525 17.723.427-.646-1.41-7.087 2.018-.39Z" fill="#fff"/></svg>