<svg class="color-immutable" width="24" height="24" viewBox="0 0 24 24" fill="none" xmlns="http://www.w3.org/2000/svg"><g clip-path="url(#a)"><path d="M0 22.5v-21C0 .675.675 0 1.5 0h21c.825 0 1.5.675 1.5 1.5v21c0 .825-.675 1.5-1.5 1.5h-21C.675 24 0 23.325 0 22.5Z" fill="#2D327D"/><path d="M3 10.875h15.6v2.25H3v-2.25ZM11.628 4.087v.225a5.44 5.44 0 0 0 5.438 5.438h.75V8.624h-.75a4.314 4.314 0 0 1-4.312-4.312v-.225h-1.126Z" fill="#fff"/><path d="M17.813 6.375h-.75A2.063 2.063 0 0 1 15 4.312v-.225h-1.125v.225a3.188 3.188 0 0 0 3.188 3.187h.75c1.138 0 2.062.924 2.062 2.063v.188H21v-.188a3.188 3.188 0 0 0-3.187-3.187ZM19.875 10.875H21v2.25h-1.125v-2.25Z" fill="#fff"/></g><defs><clipPath id="a"><path fill="#fff" d="M0 0h24v24H0z"/></clipPath></defs></svg>