<svg class="color-immutable" width="30" height="30" viewBox="0 0 30 30" fill="none" xmlns="http://www.w3.org/2000/svg"><path d="M30 0H0v30h30V0Z" fill="#2D327D"/><path d="M25.5 3c.825 0 1.5.675 1.5 1.5v21c0 .825-.675 1.5-1.5 1.5h-21c-.825 0-1.5-.675-1.5-1.5v-21C3 3.675 3.675 3 4.5 3h21Zm0-.375h-21A1.877 1.877 0 0 0 2.625 4.5v21c0 1.034.841 1.875 1.875 1.875h21a1.877 1.877 0 0 0 1.875-1.875v-21A1.877 1.877 0 0 0 25.5 2.625Z" fill="#fff"/><path d="M6 13.875h15.6v2.25H6v-2.25ZM14.628 7.087v.225a5.44 5.44 0 0 0 5.437 5.437h.75v-1.125h-.75a4.314 4.314 0 0 1-4.312-4.312v-.225h-1.125Z" fill="#fff"/><path d="M20.812 9.375h-.75A2.063 2.063 0 0 1 18 7.312v-.225h-1.125v.225a3.189 3.189 0 0 0 3.187 3.188h.75c1.139 0 2.063.924 2.063 2.062v.188H24v-.188a3.189 3.189 0 0 0-3.188-3.187ZM22.875 13.875H24v2.25h-1.125v-2.25Z" fill="#fff"/></svg>