<svg class="color-immutable" width="30" height="30" viewBox="0 0 30 30" fill="none" xmlns="http://www.w3.org/2000/svg"><g clip-path="url(#a)"><path d="M30 0H0v30h30V0Z" fill="#2D327D"/><path d="M25.5 3c.825 0 1.5.675 1.5 1.5v21c0 .825-.675 1.5-1.5 1.5h-21c-.825 0-1.5-.675-1.5-1.5v-21C3 3.675 3.675 3 4.5 3h21Zm0-.375h-21A1.877 1.877 0 0 0 2.625 4.5v21c0 1.034.841 1.875 1.875 1.875h21a1.877 1.877 0 0 0 1.875-1.875v-21A1.877 1.877 0 0 0 25.5 2.625Z" fill="#fff"/><path d="M17.475 18.094h-4.163c-1.24 0-2.25-1.01-2.25-2.25s1.01-2.25 2.25-2.25h1.127a1.126 1.126 0 0 0 0-2.25H6v-1.125h8.439c1.24 0 2.25 1.01 2.25 2.25s-1.01 2.25-2.25 2.25h-1.127a1.126 1.126 0 0 0 0 2.25h4.163v1.125ZM20.625 19.781H19.5a1.688 1.688 0 0 1-1.688-1.687v-1.125c0-.932.756-1.688 1.688-1.688h1.125c.31 0 .563.252.563.563v3.375c0 .31-.252.562-.563.562ZM23.438 16.125h-1.913v.563h1.913a.281.281 0 0 0 0-.563ZM23.438 18.375h-1.913v.563h1.913a.281.281 0 0 0 0-.563Z" fill="#fff"/></g><defs><clipPath id="a"><path fill="#fff" d="M0 0h30v30H0z"/></clipPath></defs></svg>