<svg class="color-immutable" width="30" height="30" viewBox="0 0 30 30" fill="none" xmlns="http://www.w3.org/2000/svg"><path d="M30 0H0v30h30V0Z" fill="#2D327D"/><path d="M25.5 3c.825 0 1.5.675 1.5 1.5v21c0 .825-.675 1.5-1.5 1.5h-21c-.825 0-1.5-.675-1.5-1.5v-21C3 3.675 3.675 3 4.5 3h21Zm0-.375h-21A1.877 1.877 0 0 0 2.625 4.5v21c0 1.034.841 1.875 1.875 1.875h21a1.877 1.877 0 0 0 1.875-1.875v-21A1.877 1.877 0 0 0 25.5 2.625Z" fill="#fff"/><path d="M19.915 20.552H16.5v1.388h-3.413v1.388H9.675v.675h4.088v-1.388h3.413v-1.388h3.414V19.84h3.413v-.675h-4.088v1.388ZM6.528 14.563a.508.508 0 0 0 .195-.04l.551-.23v-1.097l-.941.393a.507.507 0 0 0 .195.974Z" fill="#fff"/><path d="M6.693 24.003a.694.694 0 0 0 .694-.694v-3.282l1.612-2.776V19.6c0 .137.038.272.11.39l1.592 2.616a.694.694 0 1 0 1.186-.722L10.5 19.606V11.39l.75 1.088v2.747a.525.525 0 0 0 1.05 0v-2.907a.75.75 0 0 0-.133-.426L10.61 9.634a1.5 1.5 0 0 0-2.736.852V16.2L6.1 19.254a.753.753 0 0 0-.101.377v3.678c0 .383.31.694.694.694ZM9.177 8.635a1.313 1.313 0 1 0 0-2.627 1.313 1.313 0 0 0 0 2.627Z" fill="#fff"/></svg>