<svg class="color-immutable" width="30" height="30" viewBox="0 0 30 30" fill="none" xmlns="http://www.w3.org/2000/svg"><path d="M30 0H0v30h30V0Z" fill="#2D327D"/><path d="M25.5 3c.825 0 1.5.675 1.5 1.5v21c0 .825-.675 1.5-1.5 1.5h-21c-.825 0-1.5-.675-1.5-1.5v-21C3 3.675 3.675 3 4.5 3h21Zm0-.375h-21A1.877 1.877 0 0 0 2.625 4.5v21c0 1.034.841 1.875 1.875 1.875h21a1.877 1.877 0 0 0 1.875-1.875v-21A1.877 1.877 0 0 0 25.5 2.625Z" fill="#fff"/><path d="M20.733 8.636a1.313 1.313 0 1 0 0-2.627 1.313 1.313 0 0 0 0 2.627ZM22.05 19.21v-7.623l.825 1.088v2.7a.488.488 0 0 0 .975 0v-3.086a.75.75 0 0 0-.153-.454l-1.577-2.08a1.5 1.5 0 0 0-2.695.907v5.276l-1.543 1.542a.749.749 0 0 0-.22.53v4.246a.694.694 0 0 0 1.388 0v-3.769l1.5-1.5v2.236c0 .145.041.286.12.408l2.381 3.684a.694.694 0 0 0 1.165-.753L22.05 19.21Z" fill="#fff"/><path d="M17.718 14.604c.06 0 .118-.01.173-.03l.896-.325v-1.076l-1.24.449a.506.506 0 0 0 .171.982ZM9.412 21.224h3.413v1.388h3.412v1.387h4.088v-.675h-3.413v-1.387H13.5V20.55h-3.413v-1.387H6v.675h3.412v1.387Z" fill="#fff"/></svg>