<svg class="color-immutable" width="30" height="30" viewBox="0 0 30 30" fill="none" xmlns="http://www.w3.org/2000/svg"><path d="M30 0H0v30h30V0Z" fill="#2D327D"/><path d="M25.5 3c.825 0 1.5.675 1.5 1.5v21c0 .825-.675 1.5-1.5 1.5h-21c-.825 0-1.5-.675-1.5-1.5v-21C3 3.675 3.675 3 4.5 3h21Zm0-.375h-21A1.877 1.877 0 0 0 2.625 4.5v21c0 1.034.841 1.875 1.875 1.875h21a1.877 1.877 0 0 0 1.875-1.875v-21A1.877 1.877 0 0 0 25.5 2.625Z" fill="#fff"/><path d="M9.266 8.635a1.313 1.313 0 1 1 0-2.626 1.313 1.313 0 0 1 0 2.626ZM7.95 19.21v-7.623l-.826 1.088v2.7a.488.488 0 0 1-.975 0v-3.086a.75.75 0 0 1 .153-.454l1.577-2.079a1.5 1.5 0 0 1 2.695.906v5.276l1.543 1.543c.14.14.22.33.22.53v4.245a.694.694 0 0 1-1.387 0v-3.769l-1.5-1.5v2.237a.75.75 0 0 1-.12.407l-2.382 3.685a.694.694 0 0 1-1.165-.753l2.166-3.353Z" fill="#fff"/><path d="M12.28 14.604a.505.505 0 0 1-.172-.03l-.896-.325v-1.076l1.24.449a.506.506 0 0 1-.171.982ZM20.587 21.224h-3.413v1.388h-3.412V24H9.674v-.675h3.413v-1.388h3.412V20.55h3.413v-1.388h4.087v.675h-3.412v1.387Z" fill="#fff"/></svg>