<svg class="color-immutable" width="24" height="24" viewBox="0 0 24 24" fill="none" xmlns="http://www.w3.org/2000/svg"><g clip-path="url(#a)"><path d="M0 22.5v-21C0 .675.675 0 1.5 0h21c.825 0 1.5.675 1.5 1.5v21c0 .825-.675 1.5-1.5 1.5h-21C.675 24 0 23.325 0 22.5Z" fill="#2D327D"/><path d="M6.266 5.636a1.313 1.313 0 1 1 0-2.624 1.313 1.313 0 0 1 0 2.624ZM4.949 16.21V8.587l-.825 1.088v2.7a.487.487 0 0 1-.976 0V9.289c0-.164.054-.323.153-.453l1.577-2.079a1.499 1.499 0 0 1 2.695.907v5.275l1.543 1.543c.141.141.22.331.22.53v4.245a.694.694 0 0 1-1.388 0v-3.769l-1.5-1.5v2.237a.753.753 0 0 1-.12.407l-2.381 3.685a.693.693 0 0 1-1.166-.753l2.168-3.354Z" fill="#fff"/><path d="M9.281 11.604a.502.502 0 0 1-.172-.03l-.896-.325v-1.077l1.241.449a.506.506 0 0 1-.173.983ZM17.587 18.225h-3.413v1.387h-3.412V21H6.674v-.675h3.413v-1.388h3.412V17.55h3.413v-1.388h4.087v.675h-3.412v1.388Z" fill="#fff"/></g><defs><clipPath id="a"><path fill="#fff" d="M0 0h24v24H0z"/></clipPath></defs></svg>