<svg class="color-immutable" width="24" height="24" viewBox="0 0 24 24" fill="none" xmlns="http://www.w3.org/2000/svg"><path fill-rule="evenodd" clip-rule="evenodd" d="M22.5 0h-21C.675 0 0 .675 0 1.5v21c0 .825.675 1.5 1.5 1.5h21c.825 0 1.5-.675 1.5-1.5v-21c0-.825-.675-1.5-1.5-1.5Z" fill="#2D327D"/><path fill-rule="evenodd" clip-rule="evenodd" d="M3.375 17.145c.03 0 .06-.008.09-.015l17.25-4.312A.385.385 0 0 0 21 12.45V3.847a.823.823 0 0 0-.825-.825.93.93 0 0 0-.203.023l-16.35 4.17A.82.82 0 0 0 3 8.017v8.753c0 .21.165.375.375.375Zm13.313-12.12c0-.21.165-.375.375-.375h2.812c.21 0 .375.165.375.375v4.5c0 .21-.165.375-.375.375h-2.813a.371.371 0 0 1-.375-.375v-4.5Zm-3.938.727a.371.371 0 0 0-.375.375v4.5c0 .21.165.375.375.375h2.813c.21 0 .374-.165.374-.375v-4.5a.371.371 0 0 0-.374-.375H12.75Zm-4.688 1.47c0-.21.165-.375.376-.375h2.812c.21 0 .375.165.375.375v4.5c0 .21-.165.376-.375.376H8.437a.371.371 0 0 1-.374-.376v-4.5Zm-3.937.728a.371.371 0 0 0-.375.375v4.5c0 .21.165.375.375.375h2.813c.21 0 .375-.165.375-.375v-4.5a.371.371 0 0 0-.375-.375H4.124ZM21 15.727l-18 4.5V21l18-4.5v-.773ZM7.178 17.4a1.088 1.088 0 1 0 2.176-.002 1.088 1.088 0 0 0-2.176.002ZM4.47 18.135a1.088 1.088 0 1 0 2.177-.002 1.088 1.088 0 0 0-2.177.002ZM14.617 15.54a1.088 1.088 0 1 0 2.177-.002 1.088 1.088 0 0 0-2.177.002ZM17.378 14.857a1.088 1.088 0 1 0 1.087-1.087c-.6.008-1.087.488-1.087 1.088Z" fill="#fff"/></svg>