<svg class="color-immutable" width="24" height="24" viewBox="0 0 24 24" fill="none" xmlns="http://www.w3.org/2000/svg"><path fill-rule="evenodd" clip-rule="evenodd" d="M22.5 0h-21C.675 0 0 .675 0 1.5v21c0 .825.675 1.5 1.5 1.5h21c.825 0 1.5-.675 1.5-1.5v-21c0-.825-.675-1.5-1.5-1.5Z" fill="#2D327D"/><path fill-rule="evenodd" clip-rule="evenodd" d="M20.625 17.145c.21 0 .375-.165.375-.375V8.017a.833.833 0 0 0-.622-.802l-16.35-4.17a.93.93 0 0 0-.203-.023.823.823 0 0 0-.825.825v8.61c0 .173.12.323.285.368l17.25 4.313a.36.36 0 0 1 .045.003c.015.002.03.004.045.004ZM7.312 5.025v4.5c0 .21-.165.375-.375.375H4.126a.371.371 0 0 1-.375-.375v-4.5c0-.21.165-.375.375-.375h2.813c.21 0 .375.165.375.375Zm4.313 5.602v-4.5a.371.371 0 0 0-.375-.375H8.437a.371.371 0 0 0-.374.375v4.5c0 .21.164.375.374.375h2.813c.21 0 .375-.165.375-.375Zm4.313-3.405v4.5c0 .21-.165.376-.376.376H12.75a.371.371 0 0 1-.375-.376v-4.5c0-.21.165-.375.375-.375h2.813c.21 0 .374.173.374.375Zm4.312 5.603v-4.5a.371.371 0 0 0-.375-.375h-2.813a.371.371 0 0 0-.375.375v4.5c0 .21.165.375.375.375h2.813c.21 0 .375-.165.375-.375ZM3 15.727l18 4.5V21L3 16.5v-.773ZM16.823 17.4a1.088 1.088 0 1 1-2.177-.002 1.088 1.088 0 0 1 2.177.002ZM19.53 18.135a1.088 1.088 0 1 1-2.177-.002 1.088 1.088 0 0 1 2.177.002ZM9.383 15.54a1.088 1.088 0 1 1-2.177-.002 1.088 1.088 0 0 1 2.176.002ZM6.622 14.857a1.088 1.088 0 1 1-1.087-1.087c.6.008 1.087.488 1.087 1.088Z" fill="#fff"/></svg>