<svg class="color-immutable" width="24" height="24" viewBox="0 0 24 24" fill="none" xmlns="http://www.w3.org/2000/svg"><path fill-rule="evenodd" clip-rule="evenodd" d="M22.5 0h-21C.675 0 0 .675 0 1.5v21c0 .825.675 1.5 1.5 1.5h21c.825 0 1.5-.675 1.5-1.5v-21c0-.825-.675-1.5-1.5-1.5Z" fill="#2D327D"/><path fill-rule="evenodd" clip-rule="evenodd" d="M5.655 13.92h9.135a1.83 1.83 0 0 1 1.823 1.83 1.824 1.824 0 0 1-1.823 1.822H4.883v-.712h2.812v-2.22H5.67a.685.685 0 0 1-.57.322.669.669 0 0 1-.667-.667.669.669 0 0 1 1.222-.375ZM8.4 16.845h6.39c.608 0 1.11-.495 1.103-1.11 0-.615-.495-1.11-1.11-1.11H8.4v2.22Z" fill="#fff"/><path fill="#fff" d="M3 3h.713v18H3z"/><path fill-rule="evenodd" clip-rule="evenodd" d="M13.777 12.848 12.69 11.76v-.877l.742.742c-.18-3.51-3-6.33-6.51-6.51l.743.743h-.877L5.7 4.77l1.088-1.087h.877L6.9 4.44a7.556 7.556 0 0 1 7.2 7.2l.758-.765v.878l-1.08 1.095Z" fill="#fff"/></svg>