<svg class="color-immutable" width="24" height="24" viewBox="0 0 24 24" fill="none" xmlns="http://www.w3.org/2000/svg"><path fill-rule="evenodd" clip-rule="evenodd" d="M22.5 0h-21C.675 0 0 .675 0 1.5v21c0 .825.675 1.5 1.5 1.5h21c.825 0 1.5-.675 1.5-1.5v-21c0-.825-.675-1.5-1.5-1.5Z" fill="#2D327D"/><path fill-rule="evenodd" clip-rule="evenodd" d="M12 11.64h.75v1.5H12v-1.5ZM5.58 13.732c.21-.21.495-.33.795-.33h6.488c.3 0 .585.12.795.33l2.617 2.618 4.388.367c.195.016.345.18.345.376v2.332c0 .21-.165.375-.375.375h-.413v-.435a2.247 2.247 0 0 0-2.25-2.25 2.247 2.247 0 0 0-2.25 2.25v.435H8.25v-.435A2.247 2.247 0 0 0 6 17.115a2.247 2.247 0 0 0-2.25 2.25v.435h-.375A.371.371 0 0 1 3 19.425v-2.64c0-.3.12-.585.33-.795l2.25-2.258Zm4.508.766v1.537c0 .21.165.375.375.375h4.26a.221.221 0 0 0 .224-.225c0-.06-.022-.12-.067-.157l-1.793-1.793a.382.382 0 0 0-.262-.112h-2.362a.367.367 0 0 0-.375.375ZM9 16.402H4.515a.221.221 0 0 1-.225-.226c0-.06.022-.112.067-.157l1.793-1.793a.352.352 0 0 1 .262-.112H9c.21 0 .375.165.375.375v1.537c0 .21-.165.375-.375.375Z" fill="#fff"/><path fill-rule="evenodd" clip-rule="evenodd" d="M5.985 20.332a.938.938 0 1 0 0-1.875.938.938 0 0 0 0 1.875Zm.022-2.655a1.71 1.71 0 1 1 .002 3.419 1.71 1.71 0 0 1-.002-3.419ZM17.962 20.332a.938.938 0 1 0 0-1.875.938.938 0 0 0 0 1.875Zm0-2.64c.945 0 1.703.765 1.703 1.71s-.765 1.71-1.703 1.71a1.71 1.71 0 1 1 0-3.42ZM4.853 3v.413H4.17V5.25h-.487V3.413H3V3h1.853ZM5.872 5.25h.458a1.996 1.996 0 0 1-.028-.092l-.024-.08c-.008-.06-.008-.15-.008-.27v-.345c.008-.203.008-.315.008-.338 0-.127-.015-.217-.03-.27a.345.345 0 0 0-.113-.157c-.127-.105-.315-.158-.577-.158-.233 0-.413.045-.54.143-.128.09-.196.232-.21.42h.42a.3.3 0 0 1 .097-.195c.045-.038.12-.053.225-.053.195 0 .293.068.293.218 0 .067-.023.112-.068.135-.045.022-.15.045-.33.067-.21.03-.353.06-.428.09a.44.44 0 0 0-.285.435c0 .165.053.293.165.383.098.082.233.12.405.12a.735.735 0 0 0 .54-.218c0 .045.008.098.03.165Zm-.345-.727a.774.774 0 0 0 .316-.083v.18c0 .053 0 .105-.016.135l-.007.015c-.013.027-.027.057-.053.083a.387.387 0 0 1-.315.135.28.28 0 0 1-.187-.06.21.21 0 0 1-.067-.165c0-.083.03-.143.097-.18a.925.925 0 0 1 .232-.06ZM8.13 3.57l-.533.78.608.9h-.518l-.345-.548-.337.548h-.51l.593-.893-.54-.787h.51l.292.45.285-.45h.495ZM8.82 3.405V3h-.443v.405h.443Zm0 1.845V3.57h-.443v1.68h.443Z" fill="#fff"/></svg>