<svg class="color-immutable" width="24" height="24" viewBox="0 0 24 24" fill="none" xmlns="http://www.w3.org/2000/svg"><path fill-rule="evenodd" clip-rule="evenodd" d="M22.5 0h-21C.675 0 0 .675 0 1.5v21c0 .825.675 1.5 1.5 1.5h21c.825 0 1.5-.675 1.5-1.5v-21c0-.825-.675-1.5-1.5-1.5Z" fill="#2D327D"/><path fill-rule="evenodd" clip-rule="evenodd" d="m11.25 20.415-1.035-3.3a.45.45 0 0 0-.427-.315H8.235L9.51 21h1.305c.248 0 .45-.203.45-.45a.28.28 0 0 0-.015-.135ZM10.822 3H9.518L8.243 7.2h1.552a.45.45 0 0 0 .428-.315l1.034-3.3a.425.425 0 0 0 .023-.135.463.463 0 0 0-.457-.45Z" fill="#fff"/><path fill-rule="evenodd" clip-rule="evenodd" d="M6.75 16.8c-.45-1.56-.675-3.18-.675-4.8 0-1.62.225-3.24.675-4.8h.938L8.963 3H7.62c-.66 0-1.282.292-1.71.795A12.65 12.65 0 0 0 2.888 12c0 3.008 1.072 5.918 3.022 8.212A2.25 2.25 0 0 0 7.62 21h1.343l-1.275-4.2H6.75Z" fill="#fff"/></svg>