<svg class="color-immutable" width="30" height="30" viewBox="0 0 30 30" fill="none" xmlns="http://www.w3.org/2000/svg"><g clip-path="url(#a)"><path d="M30 0H0v30h30V0Z" fill="#2D327D"/><path d="M25.5 3c.825 0 1.5.675 1.5 1.5v21c0 .825-.675 1.5-1.5 1.5h-21c-.825 0-1.5-.675-1.5-1.5v-21C3 3.675 3.675 3 4.5 3h21Zm0-.375h-21A1.877 1.877 0 0 0 2.625 4.5v21c0 1.034.841 1.875 1.875 1.875h21a1.877 1.877 0 0 0 1.875-1.875v-21A1.877 1.877 0 0 0 25.5 2.625Z" fill="#fff"/><path d="m14.248 23.415-1.034-3.3a.45.45 0 0 0-.43-.315h-1.55L12.51 24h1.308a.45.45 0 0 0 .43-.585ZM13.82 6H12.51l-1.277 4.2h1.55a.45.45 0 0 0 .43-.316l1.034-3.3a.45.45 0 0 0-.43-.584Z" fill="#fff"/><path d="M9.75 19.8a17.408 17.408 0 0 1 0-9.6h.935L11.962 6h-1.34c-.66 0-1.286.289-1.714.791a12.663 12.663 0 0 0 0 16.418 2.25 2.25 0 0 0 1.714.79h1.34l-1.277-4.2H9.75Z" fill="#fff"/></g><defs><clipPath id="a"><path fill="#fff" d="M0 0h30v30H0z"/></clipPath></defs></svg>