<svg class="color-immutable" width="24" height="24" viewBox="0 0 24 24" fill="none" xmlns="http://www.w3.org/2000/svg"><path fill-rule="evenodd" clip-rule="evenodd" d="M22.5 0h-21C.675 0 0 .675 0 1.5v21c0 .825.675 1.5 1.5 1.5h21c.825 0 1.5-.675 1.5-1.5v-21c0-.825-.675-1.5-1.5-1.5Z" fill="#2D327D"/><path fill-rule="evenodd" clip-rule="evenodd" d="M12 6.75v1.5h5.25V12h2.25v.75h-2.25v.75h2.25v.75h-2.25v4.5H21v-12h-9Zm7.5 3h-.45V8.28h-.525v-.33a.864.864 0 0 0 .27-.038.559.559 0 0 0 .188-.097c.082-.06.142-.173.165-.323h.352V9.75Z" fill="#fff"/><path fill-rule="evenodd" clip-rule="evenodd" d="M7.5 9v12h9V9h-9Zm7.5 7.5H9v-.75h6v.75Zm0-1.5H9v-.75h6V15Zm0-2.25h-1.62c0-.12.022-.24.06-.352a.889.889 0 0 1 .165-.285c.053-.06.12-.12.195-.18.075-.06.225-.165.442-.323a.885.885 0 0 0 .225-.21.397.397 0 0 0 .068-.225c0-.098-.03-.18-.09-.24a.305.305 0 0 0-.225-.09c-.232 0-.353.165-.36.502h-.435v-.052c0-.27.075-.488.232-.63a.799.799 0 0 1 .578-.217c.21 0 .383.06.525.18.15.127.232.3.232.524a.746.746 0 0 1-.292.6c-.037.03-.127.09-.277.195-.143.098-.24.173-.308.226-.06.052-.12.112-.172.18H15v.397ZM5.19 5.242l-.855-2.25h-.503l-.855 2.25h.503l.18-.502h.832l.18.502h.518ZM4.072 3.54l.3.847h-.6l.3-.847ZM6.855 3.57v1.68h-.428v-.247a.61.61 0 0 1-.54.292c-.202 0-.352-.067-.457-.202a.476.476 0 0 1-.082-.188 1.427 1.427 0 0 1-.023-.277V3.57h.442v.923c0 .097 0 .165.008.202a.252.252 0 0 0 .037.105c.045.075.128.113.24.113a.32.32 0 0 0 .308-.188c.03-.06.045-.172.045-.33V3.57h.45ZM8.092 3.562v.315h-.33v.788c0 .097.008.157.023.18.022.037.082.052.172.052.038 0 .083 0 .135-.007v.36c-.097.015-.195.015-.277.015a.746.746 0 0 1-.293-.045c-.104-.045-.165-.128-.195-.255a2.55 2.55 0 0 1-.014-.323v-.757h-.27V3.57h.27v-.39h.442v.39h.337v-.008ZM9.697 3.765a.808.808 0 0 0-.6-.24c-.27 0-.48.09-.644.262a.912.912 0 0 0-.218.623.9.9 0 0 0 .225.63c.15.172.36.255.622.255a.82.82 0 0 0 .6-.233c.165-.165.248-.382.248-.66a.899.899 0 0 0-.232-.637Zm-.907.247a.335.335 0 0 1 .285-.142c.128 0 .232.052.293.15.067.09.104.225.104.39 0 .18-.037.315-.112.412a.37.37 0 0 1-.57-.015c-.068-.09-.105-.225-.105-.397 0-.173.037-.3.105-.398ZM10.658 3.57v.225a.92.92 0 0 1 .165-.172.612.612 0 0 1 .352-.105c.217 0 .367.09.457.277a.617.617 0 0 1 .533-.277c.173 0 .308.052.405.157.098.105.143.248.143.443V5.25h-.443v-.997a.53.53 0 0 0-.037-.225c-.046-.083-.12-.12-.226-.12a.282.282 0 0 0-.277.172.737.737 0 0 0-.037.27v.9h-.443V4.23a.515.515 0 0 0-.037-.217c-.038-.075-.105-.113-.21-.113-.06 0-.12.015-.173.045a.265.265 0 0 0-.113.128.72.72 0 0 0-.037.262v.915h-.442V3.57h.42ZM14.13 5.25h.457l-.027-.092a.892.892 0 0 0-.025-.08c-.008-.06-.008-.15-.008-.27v-.346c.008-.202.008-.315.008-.337 0-.128-.015-.218-.03-.27a.345.345 0 0 0-.113-.158c-.127-.105-.314-.157-.577-.157-.232 0-.412.045-.54.142-.127.09-.195.233-.21.42h.42a.3.3 0 0 1 .098-.195c.044-.037.12-.052.224-.052.195 0 .293.067.293.217 0 .068-.022.113-.067.135-.045.023-.15.045-.33.068-.21.03-.353.06-.428.09a.44.44 0 0 0-.285.435c0 .165.053.292.165.382.098.083.232.12.405.12a.735.735 0 0 0 .54-.217c0 .045.008.097.03.165Zm-.345-.728a.774.774 0 0 0 .315-.082v.18c0 .052 0 .105-.015.135l-.007.015a.387.387 0 0 1-.368.217.28.28 0 0 1-.188-.06.21.21 0 0 1-.067-.165c0-.082.03-.142.098-.18a.925.925 0 0 1 .232-.06ZM15.787 3.562v.315h-.33v.788c0 .097.008.157.023.18.022.037.082.052.172.052.038 0 .083 0 .136-.007v.36c-.098.015-.196.015-.278.015a.746.746 0 0 1-.293-.045c-.104-.045-.165-.128-.194-.255a2.55 2.55 0 0 1-.015-.323v-.757h-.27V3.57h.27v-.39h.442v.39h.338v-.008ZM16.492 3.405V3h-.442v.405h.442Zm0 1.845V3.57h-.442v1.68h.442ZM18.405 4.605a.842.842 0 0 1-.165.42c-.142.18-.352.27-.615.27-.27 0-.488-.09-.637-.278a.909.909 0 0 1-.195-.592c0-.293.082-.518.255-.683a.811.811 0 0 1 .577-.217.81.81 0 0 1 .532.172c.136.113.218.27.233.465h-.435a.34.34 0 0 0-.112-.21.308.308 0 0 0-.218-.075.318.318 0 0 0-.285.143.677.677 0 0 0-.105.397c0 .15.03.27.082.36a.323.323 0 0 0 .3.165c.195 0 .316-.112.345-.337h.443ZM20.07 3.765a.808.808 0 0 0-.6-.24c-.27 0-.487.09-.645.262a.912.912 0 0 0-.217.623.9.9 0 0 0 .224.63c.15.172.36.255.623.255a.82.82 0 0 0 .6-.233c.165-.165.247-.382.247-.66a.899.899 0 0 0-.232-.637Zm-.907.247a.335.335 0 0 1 .285-.142c.127 0 .224.052.292.15.068.09.105.225.105.39 0 .18-.037.315-.112.412a.37.37 0 0 1-.57-.015c-.068-.09-.105-.225-.105-.397 0-.173.037-.3.105-.398Z" fill="#fff"/></svg>