<svg class="color-immutable" width="24" height="24" viewBox="0 0 24 24" fill="none" xmlns="http://www.w3.org/2000/svg"><g clip-path="url(#a)"><path d="M0 22.5v-21C0 .675.675 0 1.5 0h21c.825 0 1.5.675 1.5 1.5v21c0 .825-.675 1.5-1.5 1.5h-21C.675 24 0 23.325 0 22.5Z" fill="#2D327D"/><path fill-rule="evenodd" clip-rule="evenodd" d="M12 6.75v1.5h5.25V12h2.25v.75h-2.25v.75h2.25v.75h-2.25v4.5H21v-12h-9Zm7.5 3h-.449V8.277h-.529v-.326c.11-.003.199-.014.268-.034a.566.566 0 0 0 .19-.095c.083-.064.139-.171.168-.322h.352v2.25Z" fill="#fff"/><path fill-rule="evenodd" clip-rule="evenodd" d="M7.5 9v12h9V9h-9Zm7.5 7.5H9v-.75h6v.75Zm0-1.5H9v-.75h6V15Zm0-2.25h-1.62c0-.122.02-.238.059-.349a.836.836 0 0 1 .167-.286c.055-.062.12-.122.195-.18.074-.058.222-.166.444-.321a.867.867 0 0 0 .226-.209.396.396 0 0 0 .065-.225.333.333 0 0 0-.087-.239.3.3 0 0 0-.228-.092c-.232 0-.351.167-.358.5h-.433V11.3c0-.273.076-.484.229-.634a.788.788 0 0 1 .577-.218c.209 0 .384.059.524.178a.646.646 0 0 1 .229.521.715.715 0 0 1-.183.492.847.847 0 0 1-.112.108 9.347 9.347 0 0 1-.275.196 4.054 4.054 0 0 0-.304.226 1.169 1.169 0 0 0-.17.18H15v.401Z" fill="#fff"/><path d="m4.334 2.995.854 2.253h-.516l-.179-.504h-.835l-.183.505h-.506l.857-2.253h.508v-.001Zm.04 1.389-.299-.847-.3.847h.599ZM6.858 3.569v1.68h-.425v-.245a.61.61 0 0 1-.538.291c-.201 0-.353-.067-.455-.201a.475.475 0 0 1-.084-.185 1.281 1.281 0 0 1-.026-.277V3.569h.446v.924c0 .096.003.165.008.205.006.04.018.074.035.102.047.075.128.112.241.112a.32.32 0 0 0 .306-.186c.031-.061.046-.17.046-.328v-.829h.446ZM8.094 3.566v.315H7.76v.789c0 .094.009.154.026.18.026.037.084.056.173.056.035 0 .08-.003.135-.008v.357c-.1.011-.193.017-.277.017a.762.762 0 0 1-.291-.043.332.332 0 0 1-.194-.252 1.954 1.954 0 0 1-.017-.325v-.771h-.271v-.315h.272v-.394h.444v.394h.334ZM9.1 3.523a.79.79 0 0 1 .598.243c.153.16.229.373.229.64 0 .276-.082.496-.245.66a.807.807 0 0 1-.596.229c-.261 0-.47-.085-.624-.255-.148-.163-.222-.373-.222-.631 0-.254.072-.461.215-.62.16-.177.374-.266.645-.266Zm-.023.348a.33.33 0 0 0-.281.143.652.652 0 0 0-.107.395c0 .173.035.306.105.398.072.093.17.14.294.14a.332.332 0 0 0 .275-.128c.077-.094.115-.231.115-.41 0-.168-.034-.299-.102-.392a.345.345 0 0 0-.299-.146ZM10.655 3.574v.223a.598.598 0 0 1 .519-.274c.217 0 .37.092.457.277a.622.622 0 0 1 .535-.277c.174 0 .31.052.406.156.096.104.145.251.145.441v1.129h-.447V4.25a.519.519 0 0 0-.035-.226c-.042-.079-.118-.118-.228-.118-.133 0-.226.056-.278.169a.697.697 0 0 0-.035.269v.904h-.445V4.232a.493.493 0 0 0-.035-.215c-.038-.074-.109-.111-.212-.111a.31.31 0 0 0-.286.179.65.65 0 0 0-.038.26v.904h-.446V3.574h.423ZM14.591 5.249h-.455a.629.629 0 0 1-.029-.168.72.72 0 0 1-.54.214c-.172 0-.307-.04-.403-.12a.474.474 0 0 1-.166-.386c0-.21.095-.356.285-.437.077-.033.218-.063.425-.091.177-.024.288-.046.331-.068.044-.022.065-.066.065-.133 0-.147-.097-.22-.292-.22-.104 0-.179.018-.227.055-.048.037-.079.101-.095.192h-.421a.544.544 0 0 1 .211-.422c.127-.095.308-.142.543-.142.259 0 .451.053.575.158a.37.37 0 0 1 .115.158.915.915 0 0 1 .028.268l-.005.338-.003.348c0 .122.004.211.011.268.007.058.022.12.047.188Zm-.491-.811c-.057.036-.162.064-.314.085a.734.734 0 0 0-.231.063c-.067.036-.1.097-.1.183 0 .07.022.124.066.163a.27.27 0 0 0 .185.058.403.403 0 0 0 .318-.138.271.271 0 0 0 .059-.099.46.46 0 0 0 .016-.136v-.179h.001ZM15.789 3.566v.315h-.334v.789c0 .094.009.154.026.18.026.037.083.055.172.055.035 0 .08-.003.135-.008v.357c-.1.011-.193.017-.277.017a.762.762 0 0 1-.291-.043.332.332 0 0 1-.194-.252 1.954 1.954 0 0 1-.017-.325v-.77h-.272v-.315h.272v-.394h.445v.394h.335ZM16.492 3v.401h-.446V3h.446Zm0 .572v1.677h-.446V3.572h.446ZM18.405 4.604a.811.811 0 0 1-.168.418c-.146.181-.351.272-.617.272-.273 0-.485-.093-.637-.28a.909.909 0 0 1-.192-.589c0-.289.086-.517.257-.684a.795.795 0 0 1 .58-.218c.218 0 .396.057.532.17a.665.665 0 0 1 .234.465h-.438a.342.342 0 0 0-.109-.207.315.315 0 0 0-.214-.074.335.335 0 0 0-.288.141c-.068.094-.102.225-.102.395 0 .15.027.27.082.361a.328.328 0 0 0 .3.168c.197 0 .312-.112.346-.337h.434v-.001ZM19.468 3.523a.79.79 0 0 1 .598.243c.153.16.229.373.229.64 0 .276-.082.496-.245.66a.807.807 0 0 1-.597.229c-.261 0-.47-.085-.624-.255-.148-.162-.221-.372-.221-.631 0-.254.072-.461.215-.62.16-.177.375-.266.645-.266Zm-.023.348a.33.33 0 0 0-.281.143.652.652 0 0 0-.106.395c0 .173.035.306.105.398.072.093.17.14.294.14a.332.332 0 0 0 .275-.128c.077-.094.115-.231.115-.411 0-.168-.034-.299-.102-.392a.35.35 0 0 0-.3-.145Z" fill="#fff"/></g><defs><clipPath id="a"><path fill="#fff" d="M0 0h24v24H0z"/></clipPath></defs></svg>