<svg class="color-immutable" width="30" height="30" viewBox="0 0 30 30" fill="none" xmlns="http://www.w3.org/2000/svg"><g clip-path="url(#a)"><path d="M30.002 0h-30v30h30V0Z" fill="#2D327D"/><path d="M25.502 3c.825 0 1.5.675 1.5 1.5v21c0 .825-.675 1.5-1.5 1.5h-21c-.825 0-1.5-.675-1.5-1.5v-21c0-.825.675-1.5 1.5-1.5h21Zm0-.375h-21A1.877 1.877 0 0 0 2.627 4.5v21c0 1.034.841 1.875 1.875 1.875h21a1.877 1.877 0 0 0 1.875-1.875v-21a1.877 1.877 0 0 0-1.875-1.875Z" fill="#fff"/><path d="m7.53 19.101-1.54 1.541 3.34 3.341 1.541-1.54-3.34-3.342ZM18.219 18.491l.001.013a1.2 1.2 0 0 1-1.196 1.294h-3.45v-.374h3.45a.825.825 0 0 0 .672-1.303v-.001a.826.826 0 0 0-.671-.347h-2.303c-.463 0-.759-.134-1.035-.275-.065-.031-.134-.069-.198-.1-.535-.269-1.126-.319-1.724-.319-.642-.005-1.294.136-1.837.488-.236.147-.46.332-.682.556l-1.087 1.082 2.601 2.601.504-.506 5.765-.005a1.67 1.67 0 0 0 1.125-.435l.547-.537.095-.093 1.725-1.726a42.32 42.32 0 0 0-1.328-.018c-.32 0-.642.002-.974.005Z" fill="#fff"/><path d="M20.595 15.712c-2.469-.478-5.832-.495-7.97-.363-2.214.136-3.412.247-5.182.56.846.405 1.538.82 2.198 1.396a3.4 3.4 0 0 1 .6-.323c.456-.189.955-.278 1.524-.278.582 0 1.262.043 1.893.36.064.03.134.068.198.1.262.133.492.234.867.234h2.303c.49.002.912.298 1.097.719l.27-.002c.268-.002.534-.004.8-.004.573 0 1.134.008 1.69.031 1.034.043 2.053.145 3.117.361-1.442-1.475-2.23-2.046-3.405-2.791ZM13.635 10.497a.3.3 0 0 0 .085-.594.3.3 0 0 0-.085.594ZM13.917 8.547a.3.3 0 1 0 0 0ZM13.354 12.447a.3.3 0 1 0 .084-.595.3.3 0 0 0-.084.595ZM16.3 9.903a.3.3 0 1 0 .08.595.3.3 0 0 0-.08-.595ZM16.038 7.953a.3.3 0 1 0 .08.594.3.3 0 0 0-.08-.594ZM16.564 11.853a.3.3 0 1 0 .08.595.3.3 0 0 0-.08-.595ZM14.99 13.463a.3.3 0 1 0 0-.6.3.3 0 0 0 0 .6ZM14.99 9.64a.3.3 0 1 0 0-.6.3.3 0 0 0 0 .6ZM14.99 11.552a.3.3 0 1 0 0-.6.3.3 0 0 0 0 .6ZM15.816 6.6a.3.3 0 1 0 0-.6.3.3 0 0 0 0 .6ZM14.24 6.6a.3.3 0 1 0 0-.6.3.3 0 0 0 0 .6ZM14.99 7.725a.3.3 0 1 0 0-.6.3.3 0 0 0 0 .6Z" fill="#fff"/></g><defs><clipPath id="a"><path fill="#fff" d="M0 0h30v30H0z"/></clipPath></defs></svg>