<svg class="color-immutable" width="24" height="24" viewBox="0 0 24 24" fill="none" xmlns="http://www.w3.org/2000/svg"><g clip-path="url(#a)"><path d="M0 22.5v-21C0 .675.675 0 1.5 0h21c.825 0 1.5.675 1.5 1.5v21c0 .825-.675 1.5-1.5 1.5h-21C.675 24 0 23.325 0 22.5Z" fill="#2D327D"/><path d="M9.983 9.335a1.782 1.782 0 1 1 3.564 0 1.782 1.782 0 0 1-3.564 0ZM8.998 21.1c-.057 0-.342-.057-.342-.353 0-.254.214-.353.342-.353l1.132-.001v-7.689l-1.132.002c-.057 0-.342-.057-.342-.353 0-.254.214-.353.342-.353h4.342v8.394l1.125.001c.128 0 .342.099.342.353 0 .296-.286.353-.342.353H8.998V21.1ZM4.964 3v.415h-.683v1.833H3.79V3.415h-.68V3h1.854ZM5.733 3.523a.79.79 0 0 1 .598.243c.153.16.229.373.229.64 0 .276-.082.496-.245.66a.807.807 0 0 1-.596.229c-.261 0-.47-.085-.624-.255-.148-.163-.222-.373-.222-.631 0-.254.072-.461.215-.62.159-.177.374-.266.645-.266Zm-.023.348a.33.33 0 0 0-.281.143.652.652 0 0 0-.107.395c0 .173.035.306.105.398.072.093.17.14.294.14a.332.332 0 0 0 .275-.128c.077-.094.115-.231.115-.411 0-.168-.034-.299-.102-.392a.347.347 0 0 0-.299-.145ZM8.377 3.569v1.68h-.425v-.245a.609.609 0 0 1-.538.291c-.201 0-.353-.067-.455-.201a.506.506 0 0 1-.084-.185 1.22 1.22 0 0 1-.026-.277V3.569h.446v.924c0 .096.003.165.008.205.007.04.018.074.036.102.047.074.127.112.241.112a.32.32 0 0 0 .306-.186c.031-.061.046-.17.046-.328v-.829h.445ZM9.766 3.541v.432a1.038 1.038 0 0 0-.174-.02.391.391 0 0 0-.366.209c-.044.079-.066.209-.066.391v.695h-.446v-1.68h.425v.306c.121-.228.297-.341.528-.341.027.001.061.003.099.008ZM10.422 3v.401h-.446V3h.446Zm0 .572v1.677h-.446V3.572h.446ZM12.147 4.06h-.418a.268.268 0 0 0-.048-.131c-.047-.059-.132-.089-.257-.089a.326.326 0 0 0-.183.043.139.139 0 0 0-.065.122.13.13 0 0 0 .072.122c.048.026.157.056.327.091.216.044.372.099.468.165.113.077.169.194.169.351 0 .179-.07.318-.209.417-.137.097-.319.146-.546.146-.281 0-.487-.069-.618-.208a.605.605 0 0 1-.149-.388h.428a.338.338 0 0 0 .058.172c.057.07.152.105.285.105a.385.385 0 0 0 .22-.056.176.176 0 0 0 .082-.151c0-.057-.023-.1-.07-.128a1.211 1.211 0 0 0-.296-.095 4.8 4.8 0 0 1-.309-.079.94.94 0 0 1-.163-.068.373.373 0 0 1-.146-.151.444.444 0 0 1-.052-.215c0-.174.072-.307.217-.398.118-.075.282-.112.492-.112.278 0 .477.071.598.212a.555.555 0 0 1 .113.323ZM13.374 3.566v.315h-.334v.789c0 .094.009.154.026.18.026.037.083.055.172.055.035 0 .08-.003.135-.008v.357c-.1.011-.193.017-.277.017a.762.762 0 0 1-.291-.043.332.332 0 0 1-.194-.252 1.954 1.954 0 0 1-.017-.325v-.77h-.272v-.315h.272v-.394h.445v.394h.335Z" fill="#fff"/></g><defs><clipPath id="a"><path fill="#fff" d="M0 0h24v24H0z"/></clipPath></defs></svg>