<svg class="color-immutable" width="24" height="24" viewBox="0 0 24 24" fill="none" xmlns="http://www.w3.org/2000/svg"><path fill-rule="evenodd" clip-rule="evenodd" d="M22.5 0h-21C.675 0 0 .675 0 1.5v21c0 .825.675 1.5 1.5 1.5h21c.825 0 1.5-.675 1.5-1.5v-21c0-.825-.675-1.5-1.5-1.5Z" fill="#2D327D"/><path fill-rule="evenodd" clip-rule="evenodd" d="M9.983 9.337a1.784 1.784 0 1 1 3.568 0 1.784 1.784 0 0 1-3.568 0ZM9 21.098c-.06 0-.345-.06-.345-.353 0-.255.218-.353.345-.353h1.133v-7.687H9c-.06 0-.345-.06-.345-.353 0-.255.218-.352.345-.352h4.342v8.392h1.125c.128 0 .345.098.345.353 0 .3-.284.352-.345.352H9ZM4.965 3v.413h-.683V5.25h-.487V3.413h-.683V3h1.853ZM6.33 3.765a.808.808 0 0 0-.6-.24c-.27 0-.48.09-.645.263a.912.912 0 0 0-.218.622.9.9 0 0 0 .225.63c.15.173.36.255.623.255a.82.82 0 0 0 .6-.232c.165-.165.247-.383.247-.66a.899.899 0 0 0-.232-.638Zm-.908.248a.335.335 0 0 1 .285-.143c.135 0 .233.053.293.15.067.09.105.225.105.39 0 .18-.038.315-.113.413a.37.37 0 0 1-.57-.015c-.067-.09-.105-.225-.105-.398 0-.172.038-.3.105-.397ZM8.377 3.57v1.68H7.95v-.247a.61.61 0 0 1-.54.292c-.203 0-.353-.067-.458-.202a.476.476 0 0 1-.082-.188 1.427 1.427 0 0 1-.023-.277V3.57h.443v.923c0 .097 0 .165.007.202a.252.252 0 0 0 .038.105c.045.075.127.113.24.113a.32.32 0 0 0 .307-.188c.03-.06.045-.172.045-.33V3.57h.45ZM9.765 3.54v.435a.902.902 0 0 0-.173-.023.394.394 0 0 0-.367.21c-.045.075-.067.21-.067.39v.698h-.443V3.57h.428v.307c.12-.225.3-.345.524-.345.03 0 .06.008.098.008ZM10.425 3.405V3h-.45v.405h.45Zm0 1.845V3.57h-.45v1.68h.45ZM12.15 4.058h-.42a.253.253 0 0 0-.045-.128c-.045-.06-.135-.09-.255-.09-.082 0-.143.015-.18.045a.135.135 0 0 0-.068.12c0 .053.023.098.075.12.053.023.158.053.33.09.218.045.376.098.466.165.112.075.172.195.172.353 0 .18-.067.315-.21.42-.135.097-.322.142-.548.142-.277 0-.487-.067-.615-.21a.63.63 0 0 1-.15-.382h.428c.007.075.03.135.06.172.06.068.15.105.285.105.09 0 .165-.015.218-.052a.182.182 0 0 0 .082-.15.139.139 0 0 0-.068-.128 1.145 1.145 0 0 0-.292-.097c-.142-.038-.247-.06-.307-.083a3.704 3.704 0 0 1-.165-.067.344.344 0 0 1-.143-.15.425.425 0 0 1-.053-.218c0-.172.075-.307.218-.397.12-.075.285-.113.495-.113.277 0 .48.068.6.21a.983.983 0 0 1 .09.323ZM13.373 3.562v.315h-.33v.788c0 .097.007.157.022.18.023.037.083.052.173.052.037 0 .082 0 .135-.007v.36c-.098.015-.195.015-.278.015a.746.746 0 0 1-.293-.045c-.104-.045-.165-.128-.194-.255a2.55 2.55 0 0 1-.016-.323v-.757h-.27V3.57h.27v-.39h.443v.39h.338v-.008Z" fill="#fff"/></svg>