<svg class="color-immutable" width="30" height="30" viewBox="0 0 30 30" fill="none" xmlns="http://www.w3.org/2000/svg"><g clip-path="url(#a)"><path d="M30 0H0v30h30V0Z" fill="#2D327D"/><path d="M25.5 3c.825 0 1.5.675 1.5 1.5v21c0 .825-.675 1.5-1.5 1.5h-21c-.825 0-1.5-.675-1.5-1.5v-21C3 3.675 3.675 3 4.5 3h21Zm0-.375h-21A1.877 1.877 0 0 0 2.625 4.5v21c0 1.034.841 1.875 1.875 1.875h21a1.877 1.877 0 0 0 1.875-1.875v-21A1.877 1.877 0 0 0 25.5 2.625Z" fill="#fff"/><path d="M12.485 16.756c-.627-.216-1.109-.57-1.444-1.062-.335-.492-.503-1.089-.503-1.79 0-1.169.48-2.1 1.44-2.796.849-.615 1.858-.923 3.027-.923 1.329 0 2.414.366 3.257 1.098.8.69 1.2 1.541 1.2 2.556 0 .708-.17 1.314-.508 1.818-.338.505-.818.871-1.44 1.099.487.141.884.323 1.191.544.855.622 1.283 1.53 1.283 2.723 0 1.372-.526 2.464-1.578 3.276-.886.683-2.024 1.024-3.415 1.024-1.507 0-2.707-.375-3.599-1.126-.929-.781-1.393-1.805-1.393-3.073 0-1.187.412-2.107 1.236-2.76a3.41 3.41 0 0 1 1.246-.608Zm2.464 1.015c-.664 0-1.207.204-1.629.613-.421.41-.632.934-.632 1.574 0 .658.214 1.194.642 1.606.427.412.982.618 1.665.618.776 0 1.357-.228 1.745-.683.375-.437.563-.941.563-1.513 0-.652-.216-1.188-.646-1.606-.413-.406-.982-.61-1.708-.61Zm.019-5.491c-.59 0-1.068.165-1.43.494-.364.329-.545.76-.545 1.296 0 .56.183 1.008.549 1.343.366.335.857.503 1.472.503s1.101-.166 1.458-.499c.357-.332.535-.784.535-1.356 0-.56-.18-.997-.54-1.31-.36-.314-.86-.471-1.5-.471ZM8.036 6l-.748 2.249H6.73L5.993 6h.514l.506 1.684L7.527 6h.509ZM8.874 6.523c.244 0 .444.08.598.243.153.16.23.373.23.64 0 .276-.082.495-.245.66a.807.807 0 0 1-.597.229c-.261 0-.47-.085-.624-.256-.148-.162-.222-.372-.222-.63 0-.254.072-.461.216-.62.159-.177.373-.266.644-.266Zm-.023.348a.331.331 0 0 0-.281.143.656.656 0 0 0-.107.395c0 .173.035.306.105.398a.35.35 0 0 0 .294.14.333.333 0 0 0 .275-.127c.077-.095.116-.232.116-.411 0-.168-.034-.299-.102-.392a.349.349 0 0 0-.3-.146ZM10.45 6v.401h-.447V6h.446Zm0 .572V8.25h-.447V6.572h.446ZM12.321 7.726a.75.75 0 0 1-.128.266c-.147.202-.36.303-.636.303-.25 0-.451-.08-.602-.237a.773.773 0 0 1-.169-.278 1.055 1.055 0 0 1-.063-.363c0-.244.07-.45.21-.616a.76.76 0 0 1 .61-.278c.2 0 .372.062.514.186.101.09.175.2.221.33.046.13.07.295.07.493h-1.171c.004.082.017.15.038.205.06.146.176.22.345.22.083 0 .15-.019.203-.055a.39.39 0 0 0 .129-.176h.429Zm-.43-.494a.537.537 0 0 0-.054-.202.337.337 0 0 0-.295-.17c-.1 0-.182.033-.247.1a.447.447 0 0 0-.115.272h.712Z" fill="#fff"/></g><defs><clipPath id="a"><path fill="#fff" d="M0 0h30v30H0z"/></clipPath></defs></svg>