<svg class="color-immutable" width="30" height="30" viewBox="0 0 30 30" fill="none" xmlns="http://www.w3.org/2000/svg"><g clip-path="url(#a)"><path d="M30 0H0v30h30V0Z" fill="#2D327D"/><path d="M25.5 3c.825 0 1.5.675 1.5 1.5v21c0 .825-.675 1.5-1.5 1.5h-21c-.825 0-1.5-.675-1.5-1.5v-21C3 3.675 3.675 3 4.5 3h21Zm0-.375h-21A1.877 1.877 0 0 0 2.625 4.5v21c0 1.034.841 1.875 1.875 1.875h21a1.877 1.877 0 0 0 1.875-1.875v-21A1.877 1.877 0 0 0 25.5 2.625Z" fill="#fff"/><path d="M6.416 16.317c.026-.923.254-1.697.684-2.322.698-1.005 1.746-1.508 3.146-1.508 1.076 0 1.945.275 2.607.823.712.595 1.069 1.364 1.069 2.307 0 .565-.14 1.05-.42 1.458-.279.407-.657.683-1.134.826.605.139 1.083.447 1.435.923.35.477.526 1.054.526 1.73 0 1.113-.41 2.023-1.23 2.73-.759.657-1.718.985-2.876.985-1.256 0-2.252-.361-2.988-1.084-.736-.723-1.104-1.7-1.104-2.93v-.146h2.161c0 .692.164 1.226.493 1.603.328.377.792.565 1.392.565.6 0 1.06-.176 1.384-.53a1.73 1.73 0 0 0 .446-1.192c0-.554-.19-.992-.57-1.315-.312-.267-.794-.4-1.445-.4-.185 0-.367.01-.546.03v-1.653c.133.01.261.016.385.016 1.292 0 1.938-.48 1.938-1.439 0-.42-.142-.76-.424-1.019-.282-.258-.653-.388-1.115-.388-.528 0-.935.164-1.222.492-.288.328-.441.808-.462 1.438h-2.13ZM23.822 22v2h-8.098c0-.61.099-1.192.296-1.746.198-.553.476-1.03.835-1.43.277-.308.6-.608.973-.9.371-.292 1.11-.828 2.218-1.607.539-.374.916-.723 1.13-1.046.216-.323.324-.697.324-1.123 0-.492-.145-.89-.435-1.196-.29-.305-.67-.457-1.142-.457-1.158 0-1.756.833-1.792 2.5h-2.16v-.247c0-1.364.381-2.42 1.145-3.169.744-.727 1.705-1.092 2.884-1.092 1.046 0 1.92.298 2.623.893.764.645 1.145 1.515 1.145 2.607 0 .953-.305 1.774-.915 2.46-.2.226-.387.407-.561.543-.174.136-.633.463-1.377.98-.707.492-1.213.87-1.518 1.13a6.056 6.056 0 0 0-.85.9h5.275ZM8.036 6l-.748 2.249H6.73L5.993 6h.514l.506 1.684L7.527 6h.509ZM8.874 6.523c.244 0 .444.08.598.243.153.16.23.373.23.64 0 .276-.082.495-.245.66a.807.807 0 0 1-.597.229c-.261 0-.47-.085-.624-.256-.148-.162-.222-.372-.222-.63 0-.254.072-.461.216-.62.159-.177.373-.266.644-.266Zm-.023.348a.331.331 0 0 0-.281.143.656.656 0 0 0-.107.395c0 .173.035.306.105.398a.35.35 0 0 0 .294.14.333.333 0 0 0 .275-.127c.077-.095.116-.232.116-.411 0-.168-.034-.299-.102-.392a.349.349 0 0 0-.3-.146ZM10.45 6v.401h-.447V6h.446Zm0 .572V8.25h-.447V6.572h.446ZM12.321 7.726a.75.75 0 0 1-.128.266c-.147.202-.36.303-.636.303-.25 0-.451-.08-.602-.237a.773.773 0 0 1-.169-.278 1.055 1.055 0 0 1-.063-.363c0-.244.07-.45.21-.616a.76.76 0 0 1 .61-.278c.2 0 .372.062.514.186.101.09.175.2.221.33.046.13.07.295.07.493h-1.171c.004.082.017.15.038.205.06.146.176.22.345.22.083 0 .15-.019.203-.055a.39.39 0 0 0 .129-.176h.429Zm-.43-.494a.537.537 0 0 0-.054-.202.337.337 0 0 0-.295-.17c-.1 0-.182.033-.247.1a.447.447 0 0 0-.115.272h.712Z" fill="#fff"/></g><defs><clipPath id="a"><path fill="#fff" d="M0 0h30v30H0z"/></clipPath></defs></svg>