<svg class="color-immutable" width="24" height="24" viewBox="0 0 24 24" fill="none" xmlns="http://www.w3.org/2000/svg"><g clip-path="url(#a)"><path d="M0 22.5v-21C0 .675.675 0 1.5 0h21c.825 0 1.5.675 1.5 1.5v21c0 .825-.675 1.5-1.5 1.5h-21C.675 24 0 23.325 0 22.5Z" fill="#2D327D"/><path d="M8.825 7.508V21H6.131v-8.832H2.956v-1.956c.658-.018 1.195-.086 1.61-.203a3.362 3.362 0 0 0 1.14-.572c.499-.382.834-1.025 1.006-1.929h2.113ZM21.044 18.601V21h-9.718c0-.732.118-1.43.355-2.095a5.122 5.122 0 0 1 1.001-1.717 9.304 9.304 0 0 1 1.167-1.08c.446-.351 1.334-.994 2.662-1.929.646-.449 1.098-.867 1.357-1.255.259-.388.388-.837.388-1.347 0-.591-.174-1.069-.521-1.435-.348-.366-.804-.549-1.37-.549-1.391 0-2.107 1-2.15 2.999h-2.593v-.295c0-1.636.458-2.904 1.375-3.802.892-.874 2.046-1.31 3.461-1.31 1.255 0 2.304.357 3.147 1.071.917.775 1.375 1.818 1.375 3.128 0 1.144-.366 2.129-1.098 2.953-.24.271-.465.488-.674.651-.209.163-.76.555-1.652 1.177-.849.591-1.457 1.043-1.823 1.357a7.302 7.302 0 0 0-1.02 1.08h6.331v-.001ZM5.036 3l-.748 2.249H3.73L2.993 3h.514l.506 1.684L4.527 3h.509ZM5.874 3.523a.79.79 0 0 1 .598.243c.153.16.229.373.229.64 0 .276-.082.496-.245.66a.807.807 0 0 1-.596.229c-.261 0-.47-.085-.624-.255-.148-.163-.222-.373-.222-.631 0-.254.072-.461.215-.62.16-.177.374-.266.645-.266Zm-.023.348a.33.33 0 0 0-.281.143.652.652 0 0 0-.107.395c0 .173.035.306.105.398.072.093.17.14.294.14a.332.332 0 0 0 .275-.128c.077-.094.115-.231.115-.411 0-.168-.034-.299-.102-.392a.347.347 0 0 0-.299-.145ZM7.449 3v.401h-.446V3h.446Zm0 .572v1.677h-.446V3.572h.446ZM9.321 4.726a.752.752 0 0 1-.128.266c-.148.202-.36.303-.637.303-.25 0-.451-.079-.601-.237a.775.775 0 0 1-.169-.278 1.058 1.058 0 0 1-.063-.363c0-.244.07-.449.211-.615a.76.76 0 0 1 .609-.278.754.754 0 0 1 .735.516c.046.131.069.295.069.493h-1.17c.004.082.017.15.038.205.06.147.175.22.345.22a.343.343 0 0 0 .203-.055.39.39 0 0 0 .129-.176h.429v-.001Zm-.429-.494a.525.525 0 0 0-.056-.201.334.334 0 0 0-.295-.171.328.328 0 0 0-.246.1.44.44 0 0 0-.115.272h.712Z" fill="#fff"/></g><defs><clipPath id="a"><path fill="#fff" d="M0 0h24v24H0z"/></clipPath></defs></svg>