<svg class="color-immutable" width="24" height="24" viewBox="0 0 24 24" fill="none" xmlns="http://www.w3.org/2000/svg"><g clip-path="url(#a)"><path d="M0 22.5v-21C0 .675.675 0 1.5 0h21c.825 0 1.5.675 1.5 1.5v21c0 .825-.675 1.5-1.5 1.5h-21C.675 24 0 23.325 0 22.5Z" fill="#2D327D"/><path d="M8.825 7.508V21H6.131v-8.832H2.956v-1.956c.658-.018 1.195-.086 1.61-.203a3.362 3.362 0 0 0 1.14-.572c.499-.382.834-1.025 1.006-1.929h2.113ZM11.548 11.781c.031-1.107.305-2.036.821-2.787.837-1.206 2.095-1.809 3.774-1.809 1.292 0 2.335.329 3.128.987.855.714 1.283 1.637 1.283 2.769 0 .677-.168 1.26-.503 1.749-.335.489-.789.82-1.361.992.726.166 1.3.535 1.721 1.107.421.572.632 1.264.632 2.076 0 1.335-.492 2.427-1.477 3.276-.911.788-2.061 1.181-3.451 1.181-1.507 0-2.702-.434-3.585-1.301s-1.324-2.04-1.324-3.516v-.175H13.8c0 .831.197 1.472.591 1.924.394.452.951.678 1.67.678.72 0 1.274-.212 1.661-.637.357-.4.535-.877.535-1.43 0-.664-.228-1.19-.683-1.578-.375-.32-.954-.48-1.735-.48-.221 0-.44.012-.655.037V12.86c.16.012.314.018.461.018 1.55 0 2.326-.575 2.326-1.726 0-.504-.169-.912-.508-1.223-.338-.311-.784-.466-1.338-.466-.634 0-1.123.197-1.467.591-.345.394-.529.969-.554 1.726h-2.556v.001ZM5.036 3l-.748 2.249H3.73L2.993 3h.514l.506 1.684L4.527 3h.509ZM5.874 3.523a.79.79 0 0 1 .598.243c.153.16.229.373.229.64 0 .276-.082.496-.245.66a.807.807 0 0 1-.596.229c-.261 0-.47-.085-.624-.255-.148-.163-.222-.373-.222-.631 0-.254.072-.461.215-.62.16-.177.374-.266.645-.266Zm-.023.348a.33.33 0 0 0-.281.143.652.652 0 0 0-.107.395c0 .173.035.306.105.398.072.093.17.14.294.14a.332.332 0 0 0 .275-.128c.077-.094.115-.231.115-.411 0-.168-.034-.299-.102-.392a.347.347 0 0 0-.299-.145ZM7.449 3v.401h-.446V3h.446Zm0 .572v1.677h-.446V3.572h.446ZM9.321 4.726a.752.752 0 0 1-.128.266c-.148.202-.36.303-.637.303-.25 0-.451-.079-.601-.237a.775.775 0 0 1-.169-.278 1.058 1.058 0 0 1-.063-.363c0-.244.07-.449.211-.615a.76.76 0 0 1 .609-.278.754.754 0 0 1 .735.516c.046.131.069.295.069.493h-1.17c.004.082.017.15.038.205.06.147.175.22.345.22a.343.343 0 0 0 .203-.055.39.39 0 0 0 .129-.176h.429v-.001Zm-.429-.494a.525.525 0 0 0-.056-.201.334.334 0 0 0-.295-.171.328.328 0 0 0-.246.1.44.44 0 0 0-.115.272h.712Z" fill="#fff"/></g><defs><clipPath id="a"><path fill="#fff" d="M0 0h24v24H0z"/></clipPath></defs></svg>