<svg class="color-immutable" width="24" height="24" viewBox="0 0 24 24" fill="none" xmlns="http://www.w3.org/2000/svg"><g clip-path="url(#a)"><path d="M0 22.5v-21C0 .675.675 0 1.5 0h21c.825 0 1.5.675 1.5 1.5v21c0 .825-.675 1.5-1.5 1.5h-21C.675 24 0 23.325 0 22.5Z" fill="#2D327D"/><path d="M3.288 18.862a.375.375 0 0 1-.371-.428l.319-2.236 3.889.002v2.661H3.288v.001ZM12.366 8.193H21V7.5h-7.05L16.163 6 12 3.637 7.862 6h-.024l2.213 1.5H5.454c-.56 0-1.035.412-1.114.966l-1.003 7.022H21v-3.712h-8.634a.366.366 0 0 1 0-.732H21v-.694h-8.634a.366.366 0 0 1 0-.732H21v-.693h-8.634a.366.366 0 0 1 0-.732ZM7.35 11.4a.375.375 0 0 1-.375.375H5.02a.375.375 0 0 1-.371-.428l.405-2.831a.374.374 0 0 1 .371-.322h1.551c.207 0 .375.168.375.375V11.4H7.35Zm3.97-3.9L9.195 6.06l2.806-1.602 2.813 1.596L12.68 7.5h-1.36ZM16.209 18.021a1.913 1.913 0 1 0-3.826.002 1.913 1.913 0 0 0 3.826-.002ZM11.7 18.021a1.913 1.913 0 1 0-3.826.002 1.913 1.913 0 0 0 3.826-.002ZM3 3v.375h18V3H3ZM21 21v-.712H3V21h18ZM21 16.313V16.2h-4.125v2.662H21v-2.549Z" fill="#fff"/></g><defs><clipPath id="a"><path fill="#fff" d="M0 0h24v24H0z"/></clipPath></defs></svg>