<svg class="color-immutable" width="30" height="30" viewBox="0 0 30 30" fill="none" xmlns="http://www.w3.org/2000/svg"><g clip-path="url(#a)"><path d="M0 0h30v30H0V0Z" fill="#2D327D"/><path d="M25.5 3c.825 0 1.5.675 1.5 1.5v21c0 .825-.675 1.5-1.5 1.5h-21c-.825 0-1.5-.675-1.5-1.5v-21C3 3.675 3.675 3 4.5 3h21Zm0-.375h-21A1.877 1.877 0 0 0 2.625 4.5v21c0 1.034.841 1.875 1.875 1.875h21a1.877 1.877 0 0 0 1.875-1.875v-21A1.877 1.877 0 0 0 25.5 2.625Z" fill="#fff"/><path d="M23.711 21.862a.375.375 0 0 0 .372-.428l-.32-2.235h-3.889v2.663h3.837ZM14.633 11.194H6V10.5h7.05L10.836 9 15 6.637 19.137 9h.025l-2.213 1.5h4.596c.56 0 1.034.412 1.113.966l1.004 7.021H5.999v-3.712h8.634a.366.366 0 0 0 0-.731H6v-.694h8.634a.366.366 0 0 0 0-.731H6v-.694h8.634a.366.366 0 0 0 0-.732ZM19.65 14.4c0 .207.168.375.375.375h1.955a.375.375 0 0 0 .372-.428l-.405-2.831a.375.375 0 0 0-.371-.322h-1.55a.375.375 0 0 0-.376.374V14.4Zm-3.97-3.9 2.125-1.44-2.806-1.603-2.813 1.597L14.32 10.5h1.36ZM10.79 21.02a1.913 1.913 0 1 1 3.827.002 1.913 1.913 0 0 1-3.826-.001ZM15.3 21.02a1.913 1.913 0 1 1 3.826.002 1.913 1.913 0 0 1-3.827-.001ZM24 6v.375H6V6h18ZM6 24v-.712h18V24H6ZM6 19.313V19.2h4.125v2.663H6v-2.55Z" fill="#fff"/></g><defs><clipPath id="a"><path fill="#fff" d="M0 0h30v30H0z"/></clipPath></defs></svg>