<svg class="color-immutable" width="30" height="30" viewBox="0 0 30 30" fill="none" xmlns="http://www.w3.org/2000/svg"><g clip-path="url(#a)"><path d="M0 0h30v30H0V0Z" fill="#2D327D"/><path d="M25.5 3c.825 0 1.5.675 1.5 1.5v21c0 .825-.675 1.5-1.5 1.5h-21c-.825 0-1.5-.675-1.5-1.5v-21C3 3.675 3.675 3 4.5 3h21Zm0-.375h-21A1.877 1.877 0 0 0 2.625 4.5v21c0 1.034.841 1.875 1.875 1.875h21a1.877 1.877 0 0 0 1.875-1.875v-21A1.877 1.877 0 0 0 25.5 2.625Z" fill="#fff"/><path d="M6.288 21.862a.375.375 0 0 1-.372-.428l.32-2.235 3.889.002v2.661H6.288ZM15.366 11.194H24V10.5h-7.05L19.163 9 15 6.637 10.862 9h-.024l2.212 1.5H8.454c-.56 0-1.034.412-1.113.966l-1.003 7.021H24v-3.712h-8.634a.366.366 0 0 1 0-.731H24v-.694h-8.634a.366.366 0 0 1 0-.731H24v-.694h-8.634a.366.366 0 0 1 0-.732ZM10.35 14.4a.375.375 0 0 1-.375.375H8.02a.375.375 0 0 1-.371-.428l.404-2.831a.375.375 0 0 1 .372-.322h1.55c.207 0 .375.168.375.374V14.4Zm3.97-3.9-2.125-1.44 2.806-1.603 2.813 1.597L15.68 10.5H14.32ZM19.209 21.02a1.913 1.913 0 1 0-3.827.002 1.913 1.913 0 0 0 3.827-.001ZM14.7 21.02a1.913 1.913 0 1 0-3.826.002 1.913 1.913 0 0 0 3.826-.001ZM6 6v.375h18V6H6ZM24 24v-.712H6V24h18ZM24 19.313V19.2h-4.125v2.663H24v-2.55Z" fill="#fff"/></g><defs><clipPath id="a"><path fill="#fff" d="M0 0h30v30H0z"/></clipPath></defs></svg>