<svg class="color-immutable" width="30" height="30" viewBox="0 0 30 30" fill="none" xmlns="http://www.w3.org/2000/svg"><g clip-path="url(#a)"><path d="M30 0H0v30h30V0Z" fill="#2D327D"/><path d="M25.5 3c.825 0 1.5.675 1.5 1.5v21c0 .825-.675 1.5-1.5 1.5h-21c-.825 0-1.5-.675-1.5-1.5v-21C3 3.675 3.675 3 4.5 3h21Zm0-.375h-21A1.877 1.877 0 0 0 2.625 4.5v21c0 1.034.841 1.875 1.875 1.875h21a1.877 1.877 0 0 0 1.875-1.875v-21A1.877 1.877 0 0 0 25.5 2.625Z" fill="#fff"/><path d="M13.42 7.186a.347.347 0 1 1 .491-.49l3.88 3.88h3.087c.553 0 1.04.361 1.202.89l1.894 6.203a.6.6 0 0 1 .026.175v2.706a.375.375 0 0 1-.375.375H6v-4.424h3.637a.375.375 0 0 0 .375-.375v-4.5a.375.375 0 0 0-.375-.375H6.001v-.675h10.81l-3.39-3.39Zm6.83 10.44c0 .207.168.375.375.375h2.218a.375.375 0 0 0 .359-.485l-1.814-5.942a.563.563 0 0 0-.538-.398h-.037a.562.562 0 0 0-.563.563v5.886Zm-1.818-.113a.563.563 0 0 0 1.124 0V11.74a.563.563 0 0 0-1.124 0v5.774Zm-2.494-5.887a.375.375 0 0 0-.375-.375h-4.5a.375.375 0 0 0-.375.375v4.5c0 .207.168.375.375.375h4.5a.375.375 0 0 0 .375-.375v-4.5Zm.675.113v5.774a.563.563 0 0 0 1.125 0V11.74a.562.562 0 0 0-1.125 0ZM15.349 21.675h3.78a2.038 2.038 0 0 1-3.78 0ZM10.849 21.675h3.78a2.038 2.038 0 0 1-3.78 0ZM24 23.325H6V24h18v-.675ZM24 6H6v.375h18V6Z" fill="#fff"/></g><defs><clipPath id="a"><path fill="#fff" d="M0 0h30v30H0z"/></clipPath></defs></svg>