<svg class="color-immutable" width="24" height="24" viewBox="0 0 24 24" fill="none" xmlns="http://www.w3.org/2000/svg"><g clip-path="url(#a)"><path d="M0 22.5v-21C0 .675.675 0 1.5 0h21c.825 0 1.5.675 1.5 1.5v21c0 .825-.675 1.5-1.5 1.5h-21C.675 24 0 23.325 0 22.5Z" fill="#2D327D"/><path d="M13.582 4.186a.347.347 0 1 0-.49-.49L9.21 7.576H6.124c-.553 0-1.04.361-1.202.89l-1.894 6.203a.613.613 0 0 0-.026.175v2.706c0 .207.168.375.375.375h17.624V13.5h-3.637a.375.375 0 0 1-.375-.375v-4.5c0-.207.168-.375.375-.375h3.637v-.674h-10.81l3.391-3.39Zm-6.83 10.44a.375.375 0 0 1-.375.375H4.159a.375.375 0 0 1-.359-.484l1.814-5.942a.562.562 0 0 1 .538-.398h.038c.311 0 .562.252.562.562v5.887Zm1.819-.113a.562.562 0 0 1-1.124 0V8.739a.562.562 0 1 1 1.124 0v5.774Zm2.493-5.887c0-.207.168-.375.375-.375h4.5c.207 0 .375.168.375.375v4.5a.375.375 0 0 1-.375.375h-4.5a.375.375 0 0 1-.375-.375v-4.5Zm-.675.113v5.774a.562.562 0 0 1-1.124 0V8.739a.562.562 0 1 1 1.124 0ZM11.653 18.675H7.874a2.039 2.039 0 0 0 3.779 0ZM16.153 18.675h-3.78a2.039 2.039 0 0 0 3.78 0ZM3 20.325h18V21H3v-.675ZM3 3h18v.338H3V3Z" fill="#fff"/></g><defs><clipPath id="a"><path fill="#fff" d="M0 0h24v24H0z"/></clipPath></defs></svg>