<svg class="color-immutable" width="24" height="24" viewBox="0 0 24 24" fill="none" xmlns="http://www.w3.org/2000/svg"><path fill-rule="evenodd" clip-rule="evenodd" d="M22.5 0h-21C.675 0 0 .675 0 1.5v21c0 .825.675 1.5 1.5 1.5h21c.825 0 1.5-.675 1.5-1.5v-21c0-.825-.675-1.5-1.5-1.5Z" fill="#2D327D"/><path fill-rule="evenodd" clip-rule="evenodd" d="M13.582 4.185a.344.344 0 1 0-.487-.488L9.21 7.575H6.12c-.555 0-1.043.36-1.2.892L3.03 14.67a.68.68 0 0 0-.022.172v2.708c0 .21.164.375.374.375h17.625V13.5H17.37a.371.371 0 0 1-.375-.375v-4.5c0-.21.165-.375.375-.375H21v-.675H10.193l3.39-3.39ZM6.75 14.625c0 .21-.165.375-.375.375H4.162a.371.371 0 0 1-.374-.375c0-.038.007-.075.015-.113l1.814-5.94a.563.563 0 0 1 .54-.397h.038c.308 0 .563.255.563.562l-.008 5.888Zm1.26.45a.567.567 0 0 0 .563-.563V8.737a.567.567 0 0 0-.563-.562.567.567 0 0 0-.563.562v5.775c0 .308.255.563.563.563Zm3.053-6.45c0-.21.164-.375.374-.375h4.5c.21 0 .376.165.376.375v4.5c0 .21-.165.375-.375.375h-4.5a.371.371 0 0 1-.376-.375v-4.5Zm-.676 5.887V8.737a.562.562 0 1 0-1.125 0v5.775c0 .308.255.563.563.563a.567.567 0 0 0 .563-.563ZM11.655 18.675h-3.78a2.03 2.03 0 0 0 1.89 1.275c.832 0 1.575-.503 1.89-1.275ZM16.155 18.675h-3.78a2.03 2.03 0 0 0 1.89 1.275c.832 0 1.575-.503 1.89-1.275ZM3 20.325h18V21H3v-.675ZM3 3h18v.337H3V3Z" fill="#fff"/></svg>