<svg class="color-immutable" width="24" height="24" viewBox="0 0 24 24" fill="none" xmlns="http://www.w3.org/2000/svg"><path fill-rule="evenodd" clip-rule="evenodd" d="M22.5 0h-21C.675 0 0 .675 0 1.5v21c0 .825.675 1.5 1.5 1.5h21c.825 0 1.5-.675 1.5-1.5v-21c0-.825-.675-1.5-1.5-1.5Z" fill="#2D327D"/><path fill-rule="evenodd" clip-rule="evenodd" d="M10.425 4.185a.344.344 0 1 1 .487-.488l3.885 3.878h3.09c.555 0 1.043.36 1.2.892l1.89 6.203a.68.68 0 0 1 .023.172v2.708c0 .21-.165.375-.375.375H3V13.5h3.638c.21 0 .375-.165.375-.375v-4.5a.371.371 0 0 0-.375-.375h-3.63v-.675h10.807l-3.39-3.39Zm6.832 10.44c0 .21.165.375.375.375h2.213c.21 0 .375-.165.375-.375a.579.579 0 0 0-.015-.113l-1.815-5.94a.563.563 0 0 0-.54-.397h-.038a.567.567 0 0 0-.562.562l.008 5.888Zm-1.26.45a.567.567 0 0 1-.562-.563V8.737c0-.307.255-.562.563-.562.307 0 .562.255.562.562v5.775a.567.567 0 0 1-.562.563Zm-3.052-6.45a.371.371 0 0 0-.375-.375h-4.5a.371.371 0 0 0-.375.375v4.5c0 .21.165.375.375.375h4.5c.21 0 .375-.165.375-.375v-4.5Zm.675 5.887V8.737a.562.562 0 1 1 1.125 0v5.775a.567.567 0 0 1-.563.563.567.567 0 0 1-.562-.563ZM12.352 18.675h3.78a2.03 2.03 0 0 1-1.89 1.275 2.038 2.038 0 0 1-1.89-1.275ZM7.853 18.675h3.78a2.03 2.03 0 0 1-1.89 1.275 2.038 2.038 0 0 1-1.89-1.275ZM21.008 20.325h-18V21h18v-.675ZM21.008 3h-18v.337h18V3Z" fill="#fff"/></svg>