<svg class="color-immutable" width="30" height="30" viewBox="0 0 30 30" fill="none" xmlns="http://www.w3.org/2000/svg"><g clip-path="url(#a)"><path d="M30 0H0v30h30V0Z" fill="#2D327D"/><path d="M25.5 3c.825 0 1.5.675 1.5 1.5v21c0 .825-.675 1.5-1.5 1.5h-21c-.825 0-1.5-.675-1.5-1.5v-21C3 3.675 3.675 3 4.5 3h21Zm0-.375h-21A1.877 1.877 0 0 0 2.625 4.5v21c0 1.034.841 1.875 1.875 1.875h21a1.877 1.877 0 0 0 1.875-1.875v-21A1.877 1.877 0 0 0 25.5 2.625Z" fill="#fff"/><path d="M16.582 7.186a.347.347 0 1 0-.49-.49l-3.882 3.88H9.124c-.553 0-1.04.361-1.202.89L6.03 17.669a.6.6 0 0 0-.027.175v2.706c0 .207.168.375.375.375h17.624v-4.424h-3.637a.375.375 0 0 1-.375-.375v-4.5c0-.207.168-.375.375-.375H24v-.675h-10.81l3.39-3.39Zm-6.83 10.44a.375.375 0 0 1-.375.374H7.16a.375.375 0 0 1-.359-.484l1.814-5.942a.563.563 0 0 1 .538-.398h.038c.31 0 .562.252.562.563v5.886Zm1.819-.113a.563.563 0 0 1-1.125 0V11.74a.562.562 0 0 1 1.125 0v5.774Zm2.493-5.887c0-.207.168-.375.375-.375h4.5c.207 0 .375.168.375.375v4.5a.375.375 0 0 1-.375.375h-4.5a.375.375 0 0 1-.375-.375v-4.5Zm-.675.113v5.774a.563.563 0 0 1-1.124 0V11.74a.562.562 0 0 1 1.124 0ZM14.653 21.675h-3.78a2.038 2.038 0 0 0 3.78 0ZM19.153 21.675h-3.78a2.038 2.038 0 0 0 3.78 0ZM6 23.325h18V24H6v-.675ZM6 6h18v.338H6V6Z" fill="#fff"/></g><defs><clipPath id="a"><path fill="#fff" d="M0 0h30v30H0z"/></clipPath></defs></svg>