<svg class="color-immutable" width="24" height="24" viewBox="0 0 24 24" fill="none" xmlns="http://www.w3.org/2000/svg"><path fill-rule="evenodd" clip-rule="evenodd" d="M22.5 0h-21C.675 0 0 .675 0 1.5v21c0 .825.675 1.5 1.5 1.5h21c.825 0 1.5-.675 1.5-1.5v-21c0-.825-.675-1.5-1.5-1.5Z" fill="#2D327D"/><path fill-rule="evenodd" clip-rule="evenodd" d="M12 7.815A4.187 4.187 0 0 0 7.815 12 4.187 4.187 0 0 0 12 16.185 4.187 4.187 0 0 0 16.185 12 4.187 4.187 0 0 0 12 7.815ZM7.56 17.25l-.135 3.09 1.072-1.073v-3.772H4.732l-1.072 1.08 3.09-.135-3.885 3.885.81.81L7.56 17.25ZM3.66 7.425l1.072 1.072h3.765V4.732l-1.072-1.08.135 3.098-3.885-3.885-.81.81L6.75 7.56l-3.09-.135ZM20.34 16.575l-1.073-1.08h-3.764v3.772l1.072 1.073-.135-3.09 3.885 3.885.81-.81-3.885-3.885 3.09.135ZM16.44 6.75l.135-3.098-1.072 1.08v3.765h3.764l1.073-1.072-3.09.135 3.885-3.885-.81-.81L16.44 6.75Z" fill="#fff"/></svg>