<svg class="color-immutable" width="24" height="24" viewBox="0 0 24 24" fill="none" xmlns="http://www.w3.org/2000/svg"><path fill-rule="evenodd" clip-rule="evenodd" d="M22.5 0h-21C.675 0 0 .675 0 1.5v21c0 .825.675 1.5 1.5 1.5h21c.825 0 1.5-.675 1.5-1.5v-21c0-.825-.675-1.5-1.5-1.5Z" fill="#2D327D"/><path fill-rule="evenodd" clip-rule="evenodd" d="M16.913 17.55H13.5v1.388h-3.412v1.387H6.675V21h4.087v-1.387h3.413v-1.388h3.412v-1.387H21v-.675h-4.087v1.387ZM3.525 11.565a.563.563 0 0 0 .195-.037l.548-.233V10.2l-.945.39a.507.507 0 0 0-.308.465.52.52 0 0 0 .51.51Z" fill="#fff"/><path fill-rule="evenodd" clip-rule="evenodd" d="M3.69 21a.696.696 0 0 0 .697-.697v-3.278L6 14.25v2.348c0 .135.037.27.112.39l1.59 2.617a.696.696 0 0 0 1.29-.367.739.739 0 0 0-.097-.36L7.5 16.605V8.393l.75 1.087v2.745c0 .293.232.525.525.525a.522.522 0 0 0 .525-.525v-2.91a.74.74 0 0 0-.135-.427L7.605 6.63a1.504 1.504 0 0 0-2.737.855V13.2L3.09 16.253a.745.745 0 0 0-.105.375v3.675c.015.39.322.697.705.697ZM6.18 5.633A1.31 1.31 0 0 0 7.492 4.32 1.31 1.31 0 0 0 6.18 3.008 1.31 1.31 0 0 0 4.867 4.32 1.31 1.31 0 0 0 6.18 5.633Z" fill="#fff"/></svg>