<svg class="color-immutable" width="24" height="24" viewBox="0 0 24 24" fill="none" xmlns="http://www.w3.org/2000/svg"><path fill-rule="evenodd" clip-rule="evenodd" d="M22.5 0h-21C.675 0 0 .675 0 1.5v21c0 .825.675 1.5 1.5 1.5h21c.825 0 1.5-.675 1.5-1.5v-21c0-.825-.675-1.5-1.5-1.5Z" fill="#2D327D"/><path fill-rule="evenodd" clip-rule="evenodd" d="M6.263 5.632A1.31 1.31 0 0 1 4.95 4.32a1.31 1.31 0 0 1 1.313-1.313c.727 0 1.312.593 1.312 1.313a1.31 1.31 0 0 1-1.312 1.312ZM4.95 16.207v-7.62l-.825 1.088v2.7a.487.487 0 1 1-.975 0V9.292c0-.165.052-.322.15-.45l1.575-2.077a1.499 1.499 0 0 1 2.692.907v5.273l1.545 1.545c.143.143.218.33.218.533v4.244c0 .383-.308.69-.69.69a.688.688 0 0 1-.69-.69v-3.764l-1.5-1.5v2.235a.774.774 0 0 1-.12.404l-2.385 3.683a.696.696 0 0 1-.585.315.688.688 0 0 1-.578-1.065l2.168-3.367Z" fill="#fff"/><path fill-rule="evenodd" clip-rule="evenodd" d="M9.277 11.602a.44.44 0 0 1-.172-.03l-.9-.322v-1.08l1.237.45a.508.508 0 0 1 .338.472.495.495 0 0 1-.503.51ZM17.587 18.225h-3.412v1.387h-3.413V21H6.675v-.675h3.413v-1.387H13.5V17.55h3.413v-1.387H21v.674h-3.413v1.388Z" fill="#fff"/></svg>