<svg class="color-immutable" width="24" height="24" viewBox="0 0 24 24" fill="none" xmlns="http://www.w3.org/2000/svg"><path fill-rule="evenodd" clip-rule="evenodd" d="M22.5 0h-21C.675 0 0 .675 0 1.5v21c0 .825.675 1.5 1.5 1.5h21c.825 0 1.5-.675 1.5-1.5v-21c0-.825-.675-1.5-1.5-1.5Z" fill="#2D327D"/><path fill-rule="evenodd" clip-rule="evenodd" d="M17.73 5.632a1.31 1.31 0 0 0 1.313-1.312 1.31 1.31 0 0 0-1.313-1.313 1.31 1.31 0 0 0-1.313 1.313 1.319 1.319 0 0 0 1.313 1.312ZM19.05 16.207v-7.62l.825 1.088v2.7a.487.487 0 1 0 .975 0V9.292a.738.738 0 0 0-.15-.45l-1.575-2.077a1.499 1.499 0 0 0-2.692.907v5.273l-1.546 1.545a.742.742 0 0 0-.217.533v4.244a.695.695 0 0 0 1.388 0v-3.764l1.5-1.5v2.235c0 .142.044.285.12.404l2.384 3.683a.696.696 0 0 0 .585.315.688.688 0 0 0 .578-1.065l-2.175-3.367Z" fill="#fff"/><path fill-rule="evenodd" clip-rule="evenodd" d="M14.715 11.602a.44.44 0 0 0 .172-.03l.9-.322v-1.08l-1.237.45a.504.504 0 0 0 .165.982ZM6.412 18.225h3.413v1.387h3.413V21h4.087v-.675h-3.412v-1.387H10.5V17.55H7.088v-1.387H3v.674h3.412v1.388Z" fill="#fff"/></svg>