<svg class="color-immutable" width="24" height="24" viewBox="0 0 24 24" fill="none" xmlns="http://www.w3.org/2000/svg"><path fill-rule="evenodd" clip-rule="evenodd" d="M22.5 0h-21C.675 0 0 .675 0 1.5v21c0 .825.675 1.5 1.5 1.5h21c.825 0 1.5-.675 1.5-1.5v-21c0-.825-.675-1.5-1.5-1.5Z" fill="#2D327D"/><path fill-rule="evenodd" clip-rule="evenodd" d="M7.088 17.55H10.5v1.388h3.412v1.387h3.413V21h-4.087v-1.387H9.825v-1.388H6.413v-1.387H3v-.675h4.088v1.387ZM20.475 11.565a.563.563 0 0 1-.195-.037l-.547-.233V10.2l.937.39a.507.507 0 0 1-.195.975Z" fill="#fff"/><path fill-rule="evenodd" clip-rule="evenodd" d="M20.31 21a.696.696 0 0 1-.697-.697v-3.278L18 14.25v2.348c0 .135-.038.27-.113.39l-1.59 2.617a.696.696 0 0 1-1.29-.367c0-.128.038-.255.098-.36l1.387-2.28V8.393l-.75 1.087v2.745a.522.522 0 0 1-.525.525.522.522 0 0 1-.524-.525v-2.91c0-.15.045-.3.135-.427l1.56-2.258a1.504 1.504 0 0 1 2.738.855V13.2l1.776 3.053a.745.745 0 0 1 .105.375v3.675a.701.701 0 0 1-.697.697ZM17.828 5.633a1.31 1.31 0 0 1-1.313-1.313 1.31 1.31 0 0 1 1.313-1.312A1.31 1.31 0 0 1 19.14 4.32c0 .728-.593 1.313-1.313 1.313Z" fill="#fff"/></svg>