<svg class="color-immutable" width="24" height="24" viewBox="0 0 24 24" fill="none" xmlns="http://www.w3.org/2000/svg"><path fill-rule="evenodd" clip-rule="evenodd" d="M22.5 0h-21C.675 0 0 .675 0 1.5v21c0 .825.675 1.5 1.5 1.5h21c.825 0 1.5-.675 1.5-1.5v-21c0-.825-.675-1.5-1.5-1.5Z" fill="#2D327D"/><path fill-rule="evenodd" clip-rule="evenodd" d="m9.015 6.465 1.643-1.643L8.774 2.94a.382.382 0 0 0-.262-.113.38.38 0 0 0-.27.113L7.125 4.05a.382.382 0 0 0-.112.262c0 .098.037.195.112.263l1.89 1.89Z" fill="#fff"/><path fill-rule="evenodd" clip-rule="evenodd" d="m12.75 7.5-1.852-1.86L9.84 6.705l.795.795h-3.51c-1.035 0-1.875.84-1.875 1.875V10.5h1.5V9.375c0-.203.173-.375.375-.375H16.5V7.5h-3.75ZM8.738 12H3.263a.266.266 0 0 0-.263.262V19.5c0 .825.675 1.5 1.5 1.5h3c.825 0 1.5-.675 1.5-1.5v-7.238A.266.266 0 0 0 8.738 12Zm-.413 3.6a2.69 2.69 0 0 1-1.162.263A2.69 2.69 0 0 1 6 15.6a2.69 2.69 0 0 0-1.162-.262c-.405 0-.803.09-1.163.262v-.75a2.69 2.69 0 0 1 1.163-.262c.404 0 .802.09 1.162.262a2.69 2.69 0 0 0 2.325 0v.75Zm-1.162-1.162c.404 0 .802-.09 1.162-.263v-.75a2.69 2.69 0 0 1-1.162.262A2.69 2.69 0 0 1 6 13.425a2.69 2.69 0 0 0-1.162-.263c-.405 0-.803.09-1.163.263v.75a2.69 2.69 0 0 1 1.163-.263c.404 0 .802.09 1.162.263.36.172.758.262 1.162.262Z" fill="#fff"/></svg>