<svg class="color-immutable" width="24" height="24" viewBox="0 0 24 24" fill="none" xmlns="http://www.w3.org/2000/svg"><path fill-rule="evenodd" clip-rule="evenodd" d="M22.5 0h-21C.675 0 0 .675 0 1.5v21c0 .825.675 1.5 1.5 1.5h21c.825 0 1.5-.675 1.5-1.5v-21c0-.825-.675-1.5-1.5-1.5Z" fill="#2D327D"/><path fill-rule="evenodd" clip-rule="evenodd" d="M8.318 3H3v12.113l8.595-3.128L8.318 3ZM20.25 14.783l-.21-.57a1.652 1.652 0 0 0-1.552-1.088H10.44L3 15.832v1.2c0 .353.06.698.18 1.028l.945 2.595 5.43-1.973-.518-1.424h4.44l6.773-2.475ZM20.625 18h-4.5a.371.371 0 0 0-.375.375v.75c0 .21.165.375.375.375h1.125V21h2.25v-1.5h1.125c.21 0 .375-.165.375-.375v-.75a.371.371 0 0 0-.375-.375Z" fill="#fff"/></svg>