<svg class="color-immutable" width="24" height="24" viewBox="0 0 24 24" fill="none" xmlns="http://www.w3.org/2000/svg"><path fill-rule="evenodd" clip-rule="evenodd" d="M22.5 0h-21C.675 0 0 .675 0 1.5v21c0 .825.675 1.5 1.5 1.5h21c.825 0 1.5-.675 1.5-1.5v-21c0-.825-.675-1.5-1.5-1.5Z" fill="#2D327D"/><path fill-rule="evenodd" clip-rule="evenodd" d="M10.852 4.185A1.31 1.31 0 0 0 9.54 2.872a1.31 1.31 0 0 0-1.312 1.313A1.31 1.31 0 0 0 9.54 5.497c.728 0 1.313-.592 1.313-1.312Z" fill="#fff"/><path fill-rule="evenodd" clip-rule="evenodd" d="M20.093 19.012h1.012v.593h-.413l.36.36-1.057 1.058-1.418-1.418h-8.182v1.26H5.13v-.6h4.665v-1.26h8.182l-6.84-6.84v5.573a.677.677 0 0 1-.675.675.672.672 0 0 1-.674-.675v-5.693H9.36L6.705 14.7v1.905a.677.677 0 0 1-.675.675.672.672 0 0 1-.675-.675v-2.453l2.655-2.654V9.06l-.412-.413v2.46c0 .256-.21.466-.465.466a.467.467 0 0 1-.465-.466V7.71L4.155 5.197v11.236l.908-.908v.847l-.908.908v.615h2.85V14.85l.045-.045.555-.555v4.245h-3.45v2.4h-1.05V4.17l-.457-.458.457-.457v-.368h.368l.24-.24.24.24h3.652v2.708a.623.623 0 0 0-.157.045.861.861 0 0 0-.15.06H7.29a.855.855 0 0 0-.142.075H7.14c-.03.015-.06.037-.09.058a1.47 1.47 0 0 1-.045.032V3.472H4.553l2.632 2.633a1.32 1.32 0 0 1 .795-.27h3.18a1.31 1.31 0 0 1 1.313 1.312V11.4l7.62 7.612ZM11.543 7.8h-.413v2.25l.412.412V7.8Z" fill="#fff"/><path fill-rule="evenodd" clip-rule="evenodd" d="M3.705 2.632 2.648 3.69l17.34 17.347 1.064-1.065L3.705 2.632Z" fill="#EB0000"/></svg>