<svg class="color-immutable" width="30" height="30" viewBox="0 0 30 30" fill="none" xmlns="http://www.w3.org/2000/svg"><g clip-path="url(#a)"><path d="M30.002 0h-30v30h30V0Z" fill="#2D327D"/><path d="M25.502 3c.825 0 1.5.675 1.5 1.5v21c0 .825-.675 1.5-1.5 1.5h-21c-.825 0-1.5-.675-1.5-1.5v-21c0-.825.675-1.5 1.5-1.5h21Zm0-.375h-21A1.877 1.877 0 0 0 2.627 4.5v21c0 1.034.841 1.875 1.875 1.875h21a1.877 1.877 0 0 0 1.875-1.875v-21a1.877 1.877 0 0 0-1.875-1.875Z" fill="#fff"/><path d="M18.075 19.35a2.325 2.325 0 1 0 0 4.65 2.325 2.325 0 0 0 0-4.65Zm0 3.525a1.2 1.2 0 1 1 0-2.4 1.2 1.2 0 0 1 0 2.4ZM14.626 20.775H6.001v1.5h8.625v-1.5Z" fill="#fff"/><path d="m23.954 16-.676-2.475a1.35 1.35 0 0 0-1.304-1h-6.223l-.003 6.917a3.225 3.225 0 0 1 5.552 2.221V21.9c0 .207.168.375.375.375h1.95A.375.375 0 0 0 24 21.9v-5.55c0-.118-.015-.236-.046-.35Zm-1.904-2.8c.271 0 .506.182.577.445l.536 2.008a.375.375 0 0 1-.362.473H18a.375.375 0 0 1-.375-.376v-2.175c0-.207.168-.375.375-.375h4.049ZM6 20.02l8.625.005V11.55a.375.375 0 0 0-.375-.375H6V13.2h5.7a.375.375 0 0 1 0 .75H6v.75h5.7a.375.375 0 0 1 0 .75H6v4.57Z" fill="#fff"/></g><defs><clipPath id="a"><path fill="#fff" d="M0 0h30v30H0z"/></clipPath></defs></svg>