<svg class="color-immutable" width="24" height="24" viewBox="0 0 24 24" fill="none" xmlns="http://www.w3.org/2000/svg"><path fill-rule="evenodd" clip-rule="evenodd" d="M22.5 0h-21C.675 0 0 .675 0 1.5v21c0 .825.675 1.5 1.5 1.5h21c.825 0 1.5-.675 1.5-1.5v-21c0-.825-.675-1.5-1.5-1.5Z" fill="#2D327D"/><path fill-rule="evenodd" clip-rule="evenodd" d="M16.23 16.687H8.07V2.88h8.16v13.807ZM3.15 16.537v-13.5h4.5v13.5h-4.5Zm3-3.15c.33 0 .6-.27.6-.6v-7.8c0-.33-.27-.6-.6-.6h-1.5c-.33 0-.6.27-.6.6v7.8c0 .33.27.6.6.6h1.5ZM9.773 17.25c0 .997-.803 1.8-1.8 1.8H4.155l1.35-1.238h-.9L3.03 19.387l1.575 1.575h.9l-1.35-1.237h3.818a2.477 2.477 0 0 0 2.474-2.475h-.674ZM16.65 16.537v-13.5h4.5v13.5h-4.5Zm1.5-12.15c-.33 0-.6.27-.6.6v7.8c0 .33.27.6.6.6h1.5c.33 0 .6-.27.6-.6v-7.8c0-.33-.27-.6-.6-.6h-1.5ZM14.527 17.25c0 .997.803 1.8 1.8 1.8h3.818l-1.35-1.238h.9l1.575 1.575-1.575 1.575h-.9l1.35-1.237h-3.817a2.477 2.477 0 0 1-2.476-2.475h.675Z" fill="#fff"/></svg>