<svg class="color-immutable" width="24" height="24" viewBox="0 0 24 24" fill="none" xmlns="http://www.w3.org/2000/svg"><path fill-rule="evenodd" clip-rule="evenodd" d="M22.5 0h-21C.675 0 0 .675 0 1.5v21c0 .825.675 1.5 1.5 1.5h21c.825 0 1.5-.675 1.5-1.5v-21c0-.825-.675-1.5-1.5-1.5Z" fill="#2D327D"/><path fill-rule="evenodd" clip-rule="evenodd" d="M3.09 20.985v-13.5h6v13.5h-6Zm5.1-5.85a.15.15 0 0 0 .15-.15v-6.6a.15.15 0 0 0-.15-.15h-4.2a.15.15 0 0 0-.15.15v6.6c0 .083.068.15.15.15h4.2ZM4.192 4.425l1.433-1.44h-.9l-1.785 1.8 1.785 1.8h.9l-1.433-1.44H15.24v-.72H4.192ZM15.24 8.235h-5.7v12h5.7v-12Z" fill="#fff"/></svg>