<svg class="color-immutable" width="24" height="24" viewBox="0 0 24 24" fill="none" xmlns="http://www.w3.org/2000/svg"><g clip-path="url(#a)"><path d="M0 22.5v-21C0 .675.675 0 1.5 0h21c.825 0 1.5.675 1.5 1.5v21c0 .825-.675 1.5-1.5 1.5h-21C.675 24 0 23.325 0 22.5Z" fill="#2D327D"/><path d="M13.5 4.488a1.5 1.5 0 1 0-3.001.001 1.5 1.5 0 0 0 3.001-.001ZM8.681 7.875v5.091a.534.534 0 1 0 1.068 0V8.625h.469v11.606a.77.77 0 0 0 1.538 0v-6.75h.487v6.75a.77.77 0 0 0 1.538 0V8.625h.469v4.341a.534.534 0 0 0 1.069 0V7.875a1.5 1.5 0 0 0-1.5-1.5h-3.637a1.5 1.5 0 0 0-1.501 1.5ZM21 2.996a.185.185 0 0 0-.185.185v5.762a.152.152 0 0 0-.077.051l-.847.903c-.083.079-.143.144-.166.261a1.233 1.233 0 0 0-.016.182c-.085 2.559-1 3.433-1.362 3.583a.51.51 0 0 0-.311.515c.12 1.999 1.209 3.642 2.387 3.642h.391v2.726a.185.185 0 0 0 .37 0V3.181A.184.184 0 0 0 21 2.996Z" fill="#fff"/></g><defs><clipPath id="a"><path fill="#fff" d="M0 0h24v24H0z"/></clipPath></defs></svg>