<svg class="color-immutable" width="24" height="24" viewBox="0 0 24 24" fill="none" xmlns="http://www.w3.org/2000/svg"><path fill-rule="evenodd" clip-rule="evenodd" d="M22.5 0h-21C.675 0 0 .675 0 1.5v21c0 .825.675 1.5 1.5 1.5h21c.825 0 1.5-.675 1.5-1.5v-21c0-.825-.675-1.5-1.5-1.5Z" fill="#2D327D"/><path fill-rule="evenodd" clip-rule="evenodd" d="m14.002 11.73 1.808.63a.358.358 0 0 0 .428-.143l.404-.6a.33.33 0 0 0 .053-.165.3.3 0 0 0-.3-.3H14.1a.3.3 0 0 0-.3.3c0 .128.082.24.202.278ZM7.665 12.727h.375a.3.3 0 0 0 .3-.3.3.3 0 0 0-.3-.3h-.375a.3.3 0 0 0-.3.3.3.3 0 0 0 .3.3Z" fill="#fff"/><path fill-rule="evenodd" clip-rule="evenodd" d="M20.392 19.312a3.676 3.676 0 0 0-4.732-5.318l-.72-1.154h-1.027L3.704 2.632 2.648 3.69l7.454 7.455H7.658a.3.3 0 0 0-.3.3.3.3 0 0 0 .3.3h2.625v-.42l1.5 1.5H9.075l-.72 1.155a3.63 3.63 0 0 0-1.68-.405 3.676 3.676 0 0 0 0 7.35 3.68 3.68 0 0 0 3.675-3.675 3.68 3.68 0 0 0-1.485-2.955l.405-.645 1.965 2.925A.973.973 0 0 0 12 18.15c.383 0 .72-.218.885-.563h.78a3.676 3.676 0 0 0 3.66 3.338 3.62 3.62 0 0 0 1.973-.578l.675.675 1.057-1.057-.638-.653ZM9.765 17.265A3.08 3.08 0 0 1 6.69 20.34a3.08 3.08 0 0 1-3.075-3.075 3.08 3.08 0 0 1 4.44-2.76l-1.62 2.602a.3.3 0 0 0 .51.315l1.62-2.595a3.059 3.059 0 0 1 1.2 2.438Zm2.25-1.05c.09 0 .18.015.27.037l1.17-1.747-1.065-1.065H9.855l1.89 2.812c.09-.022.18-.037.27-.037Zm1.657.787h-.697a1.033 1.033 0 0 0-.188-.412l1.11-1.65.353.352a3.606 3.606 0 0 0-.578 1.71Zm2.28-.007-1.274-1.275a3.18 3.18 0 0 0-.405 1.275h1.68Zm1.388 3.345a3.077 3.077 0 0 1-3.06-2.738h2.272l2.326 2.325a3.04 3.04 0 0 1-1.538.413Zm-.712-4.793 3.33 3.33c.292-.465.457-1.02.457-1.62a3.08 3.08 0 0 0-4.44-2.76l.653 1.05Z" fill="#fff"/><path fill-rule="evenodd" clip-rule="evenodd" d="M3.705 2.632 2.648 3.69l17.34 17.347 1.064-1.065L3.705 2.632Z" fill="#EB0000"/></svg>