<svg class="color-immutable" width="24" height="24" viewBox="0 0 24 24" fill="none" xmlns="http://www.w3.org/2000/svg"><path fill-rule="evenodd" clip-rule="evenodd" d="M22.5 0h-21C.675 0 0 .675 0 1.5v21c0 .825.675 1.5 1.5 1.5h21c.825 0 1.5-.675 1.5-1.5v-21c0-.825-.675-1.5-1.5-1.5Z" fill="#2D327D"/><path fill-rule="evenodd" clip-rule="evenodd" d="M4.815 3H3v4.5h.982V5.88h.998c.255 0 .472-.022.652-.075.18-.052.338-.135.473-.247.322-.27.487-.638.487-1.11 0-.526-.194-.923-.584-1.186a1.273 1.273 0 0 0-.473-.202 3.524 3.524 0 0 0-.72-.06Zm-.833 2.107V3.833l.818.008c.27 0 .465.038.585.12.165.105.248.277.248.503 0 .224-.068.397-.21.51-.113.09-.3.135-.563.135h-.878ZM13.988 11.797l1.807.63a.358.358 0 0 0 .428-.143l.405-.599a.33.33 0 0 0 .052-.165.3.3 0 0 0-.3-.3h-2.302a.3.3 0 0 0-.3.3c.007.12.09.232.21.277ZM7.65 11.813h2.625v-.6H7.65a.3.3 0 0 0-.3.3.3.3 0 0 0 .3.3ZM7.65 12.787h.375a.3.3 0 0 0 .3-.3.3.3 0 0 0-.3-.3H7.65a.3.3 0 0 0-.3.3.3.3 0 0 0 .3.3ZM15.645 14.055A3.676 3.676 0 1 1 17.325 21a3.676 3.676 0 0 1-3.66-3.338h-.78a.975.975 0 1 1-1.65-1.012L9.27 13.725l-.405.645a3.68 3.68 0 0 1 1.485 2.955A3.681 3.681 0 0 1 6.675 21a3.676 3.676 0 1 1 1.68-6.945l.72-1.155h5.85l.72 1.155ZM6.675 20.4a3.08 3.08 0 0 0 3.075-3.075c0-.96-.443-1.86-1.2-2.438l-1.62 2.595a.3.3 0 0 1-.51-.315l1.62-2.602a3.08 3.08 0 0 0-4.44 2.76A3.08 3.08 0 0 0 6.675 20.4Zm5.595-4.088a1.115 1.115 0 0 0-.27-.037c-.09 0-.18.015-.27.037L9.84 13.5h4.32l-1.89 2.812Zm.683.75h.705a3.664 3.664 0 0 1 1.477-2.692l-.405-.645-1.965 2.925c.09.12.157.262.188.412Zm2.497-2.175 1.358 2.175h-2.55c.075-.862.51-1.65 1.192-2.175Zm-1.185 2.775a3.077 3.077 0 0 0 6.135-.337 3.08 3.08 0 0 0-4.44-2.76l1.342 2.16h.023c.33 0 .6.27.6.6 0 .33-.27.6-.6.6a.602.602 0 0 1-.495-.263h-2.565Z" fill="#fff"/></svg>