<svg class="color-immutable" width="24" height="24" viewBox="0 0 24 24" fill="none" xmlns="http://www.w3.org/2000/svg"><path fill-rule="evenodd" clip-rule="evenodd" d="M22.5 0h-21C.675 0 0 .675 0 1.5v21c0 .825.675 1.5 1.5 1.5h21c.825 0 1.5-.675 1.5-1.5v-21c0-.825-.675-1.5-1.5-1.5Z" fill="#2D327D"/><path fill-rule="evenodd" clip-rule="evenodd" d="m10.012 11.797-1.807.63a.358.358 0 0 1-.428-.143l-.405-.599a.33.33 0 0 1-.052-.165.3.3 0 0 1 .3-.3h2.302a.3.3 0 0 1 .3.3.324.324 0 0 1-.21.277ZM16.35 11.813h-2.625v-.6h2.625a.3.3 0 0 1 .3.3.3.3 0 0 1-.3.3ZM16.35 12.787h-.375a.3.3 0 0 1-.3-.3.3.3 0 0 1 .3-.3h.375a.3.3 0 0 1 .3.3.3.3 0 0 1-.3.3Z" fill="#fff"/><path fill-rule="evenodd" clip-rule="evenodd" d="m21.052 19.972-.645-.645A3.67 3.67 0 0 0 21 17.325a3.671 3.671 0 0 0-3.675-3.675c-.585 0-1.162.142-1.68.405l-.72-1.155h-.945L3.705 2.632 2.647 3.69l9.21 9.21H9.075l-.72 1.155a3.63 3.63 0 0 0-1.68-.405A3.671 3.671 0 0 0 3 17.325 3.681 3.681 0 0 0 6.675 21a3.676 3.676 0 0 0 3.66-3.338h.78a.967.967 0 0 0 .885.563.973.973 0 0 0 .765-1.575l1.14-1.695.353.352A3.676 3.676 0 0 0 19.35 20.4l.644.646 1.057-1.073Zm-5.092-5.407a3.08 3.08 0 0 1 4.012 4.327l-3.48-3.48-.532-.847ZM3.6 17.325a3.077 3.077 0 0 0 6.135.338H7.17a.602.602 0 0 1-.495.262c-.33 0-.6-.27-.6-.6 0-.33.27-.6.6-.6h.022l1.343-2.16a3.08 3.08 0 0 0-4.44 2.76Zm3.592-.263 1.358-2.175a3.081 3.081 0 0 1 1.192 2.175h-2.55Zm3.143 0h.705c.03-.15.098-.292.188-.412l-1.966-2.925-.405.645a3.69 3.69 0 0 1 1.478 2.692Zm1.935-.75a1.115 1.115 0 0 0-.27-.037c-.09 0-.18.015-.27.037L9.84 13.5h2.617l1.02 1.02-1.207 1.792Zm1.98 1.013a3.08 3.08 0 0 0 3.075 3.075c.578 0 1.125-.165 1.59-.443l-4.222-4.222a3.076 3.076 0 0 0-.443 1.59Z" fill="#fff"/><path fill-rule="evenodd" clip-rule="evenodd" d="M3.705 2.632 2.647 3.69l17.34 17.347 1.066-1.065L3.704 2.632Z" fill="#EB0000"/></svg>