<svg class="color-immutable" width="24" height="24" viewBox="0 0 24 24" fill="none" xmlns="http://www.w3.org/2000/svg"><path fill-rule="evenodd" clip-rule="evenodd" d="M22.5 0h-21C.675 0 0 .675 0 1.5v21c0 .825.675 1.5 1.5 1.5h21c.825 0 1.5-.675 1.5-1.5v-21c0-.825-.675-1.5-1.5-1.5Z" fill="#2D327D"/><path fill-rule="evenodd" clip-rule="evenodd" d="M4.59 4.83v.412H3V3h.487v1.83H4.59ZM6.225 3.765a.808.808 0 0 0-.6-.24c-.27 0-.487.09-.645.263a.912.912 0 0 0-.217.622.9.9 0 0 0 .225.63c.15.173.36.255.622.255a.82.82 0 0 0 .6-.232c.165-.165.248-.383.248-.66a.899.899 0 0 0-.233-.638Zm-.907.248a.335.335 0 0 1 .285-.143c.127 0 .225.053.292.15.068.09.105.225.105.39 0 .18-.037.315-.112.413a.37.37 0 0 1-.57-.015c-.068-.09-.105-.225-.105-.398 0-.172.037-.3.105-.397ZM8.295 4.605a.842.842 0 0 1-.165.42c-.143.18-.353.27-.615.27-.27 0-.487-.09-.637-.277a.909.909 0 0 1-.196-.593c0-.292.083-.517.255-.682a.811.811 0 0 1 .578-.218.81.81 0 0 1 .532.173c.135.112.218.27.233.465h-.435a.34.34 0 0 0-.112-.21.308.308 0 0 0-.218-.075.318.318 0 0 0-.285.142.677.677 0 0 0-.105.398c0 .15.03.27.082.36a.323.323 0 0 0 .3.165c.196 0 .316-.113.346-.338h.442ZM9.63 5.25h.457l-.027-.092a.894.894 0 0 0-.025-.08c-.008-.06-.008-.15-.008-.27v-.345c.008-.203.008-.315.008-.338 0-.127-.015-.217-.03-.27a.345.345 0 0 0-.113-.157c-.127-.105-.315-.158-.577-.158-.233 0-.413.045-.54.143-.128.09-.195.232-.21.42h.42a.3.3 0 0 1 .097-.195c.045-.038.12-.053.225-.053.195 0 .293.068.293.218 0 .067-.023.112-.068.135-.045.022-.15.045-.33.067-.21.03-.352.06-.427.09a.44.44 0 0 0-.285.435c0 .165.052.293.165.383.097.082.232.12.405.12a.735.735 0 0 0 .54-.218c0 .045.007.098.03.165Zm-.345-.727A.774.774 0 0 0 9.6 4.44v.18a.673.673 0 0 1-.015.135l-.007.015a.387.387 0 0 1-.368.217.28.28 0 0 1-.188-.06.21.21 0 0 1-.067-.164c0-.083.03-.143.097-.18a.925.925 0 0 1 .233-.06ZM11.287 3.563v.315h-.337v.787c0 .098.008.158.023.18.022.038.082.053.172.053.037 0 .082 0 .135-.008v.36c-.098.015-.195.015-.277.015a.746.746 0 0 1-.293-.045c-.105-.045-.165-.127-.195-.255a2.55 2.55 0 0 1-.015-.322v-.758h-.27V3.57h.27v-.39h.443v.39h.345v-.007ZM11.985 3.405V3h-.442v.405h.442Zm0 1.845V3.57h-.442v1.68h.442ZM13.748 3.765a.808.808 0 0 0-.6-.24c-.27 0-.48.09-.646.263a.912.912 0 0 0-.217.622.9.9 0 0 0 .225.63c.15.173.36.255.623.255a.82.82 0 0 0 .6-.232c.165-.165.247-.383.247-.66a.899.899 0 0 0-.232-.638Zm-.908.248a.335.335 0 0 1 .285-.143c.127 0 .232.053.293.15.067.09.105.225.105.39 0 .18-.038.315-.113.413a.37.37 0 0 1-.57-.015c-.067-.09-.105-.225-.105-.398 0-.172.038-.3.105-.397ZM14.693 3.57v.232a.604.604 0 0 1 .142-.157.662.662 0 0 1 .397-.128c.136 0 .256.038.353.105a.435.435 0 0 1 .157.21c.03.083.045.203.045.36V5.25h-.442v-.96a.666.666 0 0 0-.03-.24.177.177 0 0 0-.09-.105.302.302 0 0 0-.165-.045.339.339 0 0 0-.188.052.265.265 0 0 0-.12.135.738.738 0 0 0-.045.3v.863h-.442V3.57h.428ZM10.012 11.797l-1.807.63a.358.358 0 0 1-.427-.143l-.405-.599a.33.33 0 0 1-.053-.165.3.3 0 0 1 .3-.3h2.303a.3.3 0 0 1 .3.3.324.324 0 0 1-.21.277ZM16.35 11.813h-2.625v-.6h2.625a.3.3 0 0 1 .3.3.3.3 0 0 1-.3.3ZM16.35 12.787h-.375a.3.3 0 0 1-.3-.3.3.3 0 0 1 .3-.3h.375a.3.3 0 0 1 .3.3.3.3 0 0 1-.3.3ZM3 17.325a3.671 3.671 0 0 1 3.675-3.675 3.63 3.63 0 0 1 1.68.405l.72-1.155h5.85l.72 1.155a3.724 3.724 0 0 1 1.68-.405 3.676 3.676 0 1 1-2.19.72l-.405-.645-1.965 2.925A.973.973 0 0 1 12 18.225a.967.967 0 0 1-.885-.563h-.78A3.676 3.676 0 0 1 6.675 21 3.681 3.681 0 0 1 3 17.325Zm12.45-2.438a3.059 3.059 0 0 0-1.2 2.438 3.08 3.08 0 0 0 3.075 3.075 3.08 3.08 0 0 0 3.075-3.075 3.08 3.08 0 0 0-4.44-2.76l1.62 2.602a.3.3 0 0 1-.51.315l-1.62-2.595Zm-3.72 1.425L9.84 13.5h4.32l-1.89 2.812a1.115 1.115 0 0 0-.27-.037c-.09 0-.18.015-.27.037ZM8.865 14.37a3.69 3.69 0 0 1 1.477 2.692h.705a.94.94 0 0 1 .188-.412L9.27 13.725l-.405.645Zm-.315.517a3.081 3.081 0 0 1 1.192 2.175h-2.55l1.358-2.175ZM3.6 17.325a3.077 3.077 0 0 0 6.135.338H7.17a.602.602 0 0 1-.495.262c-.33 0-.6-.27-.6-.6 0-.33.27-.6.6-.6h.022l1.343-2.16a3.08 3.08 0 0 0-4.44 2.76Z" fill="#fff"/></svg>