<svg class="color-immutable" width="24" height="24" viewBox="0 0 24 24" fill="none" xmlns="http://www.w3.org/2000/svg"><path fill-rule="evenodd" clip-rule="evenodd" d="M22.5 0h-21C.675 0 0 .675 0 1.5v21c0 .825.675 1.5 1.5 1.5h21c.825 0 1.5-.675 1.5-1.5v-21c0-.825-.675-1.5-1.5-1.5Z" fill="#2D327D"/><path fill-rule="evenodd" clip-rule="evenodd" d="m5.01 3-.75 2.25h-.555L2.97 3h.51l.502 1.688L4.492 3h.518ZM6.45 4.987a.712.712 0 0 0 .127-.262h-.434a.386.386 0 0 1-.128.172.34.34 0 0 1-.202.053c-.173 0-.285-.068-.345-.218a.697.697 0 0 1-.038-.202H6.6c0-.203-.022-.368-.067-.495a.836.836 0 0 0-.226-.33.715.715 0 0 0-.51-.188c-.247 0-.45.09-.607.278a.9.9 0 0 0-.21.615c0 .12.015.247.06.36a.869.869 0 0 0 .173.277c.15.158.352.24.6.24.277 0 .487-.097.637-.3Zm-.3-.765v.008-.008Zm0 0a.662.662 0 0 0-.053-.195.327.327 0 0 0-.12-.127.348.348 0 0 0-.172-.045c-.098 0-.18.03-.247.097a.405.405 0 0 0-.113.27h.704ZM7.912 3.54v.435a.903.903 0 0 0-.172-.023.394.394 0 0 0-.368.21c-.045.075-.067.21-.067.39v.698h-.442V3.57h.427v.307c.12-.225.3-.345.525-.345.03 0 .06.008.097.008ZM8.55 3.57v.225a.92.92 0 0 1 .165-.173.612.612 0 0 1 .353-.105c.217 0 .367.09.457.278a.617.617 0 0 1 .532-.278c.173 0 .308.053.405.158.098.105.143.247.143.442V5.25h-.443v-.998a.53.53 0 0 0-.037-.225c-.045-.082-.12-.12-.225-.12a.282.282 0 0 0-.277.173.737.737 0 0 0-.038.27v.9h-.443V4.23a.515.515 0 0 0-.037-.218C9.068 3.937 9 3.9 8.895 3.9c-.06 0-.12.015-.172.045a.265.265 0 0 0-.113.127.72.72 0 0 0-.037.263v.915H8.13V3.57h.42ZM11.422 3.405V3h-.442v.405h.442Zm0 1.845V3.57h-.442v1.68h.442ZM13.17 4.987a.712.712 0 0 0 .127-.262h-.434a.386.386 0 0 1-.128.172.34.34 0 0 1-.202.053c-.173 0-.285-.068-.345-.218a.697.697 0 0 1-.038-.202h1.178c0-.203-.015-.368-.068-.495a.836.836 0 0 0-.225-.33.746.746 0 0 0-.518-.188c-.247 0-.45.09-.607.278a.9.9 0 0 0-.21.615c0 .12.015.247.06.36a.869.869 0 0 0 .172.277c.15.158.353.24.6.24.278 0 .488-.097.638-.3Zm-.3-.765v.008-.008Zm0 0a.664.664 0 0 0-.052-.195.327.327 0 0 0-.12-.127.348.348 0 0 0-.173-.045c-.098 0-.18.03-.248.097a.405.405 0 0 0-.112.27h.704ZM14.467 3.563v.315h-.33v.787c0 .098.008.158.023.18.022.038.082.053.172.053.038 0 .083 0 .135-.008v.36c-.097.015-.194.015-.277.015a.746.746 0 0 1-.292-.045c-.105-.045-.165-.127-.195-.255a2.55 2.55 0 0 1-.015-.322v-.758h-.27V3.57h.27v-.39h.442v.39h.337v-.007ZM16.215 3.57v1.68h-.428v-.248a.61.61 0 0 1-.54.293c-.202 0-.352-.068-.457-.203a.476.476 0 0 1-.082-.187 1.374 1.374 0 0 1-.023-.278V3.57h.442v.922c0 .098 0 .165.008.203.008.037.015.075.037.105.045.075.128.112.24.112a.32.32 0 0 0 .308-.187c.03-.06.045-.173.045-.33V3.57h.45ZM16.98 3.57v.232a.604.604 0 0 1 .142-.157.662.662 0 0 1 .398-.128c.135 0 .255.038.352.105a.435.435 0 0 1 .158.21c.03.083.045.203.045.36V5.25h-.442v-.96a.666.666 0 0 0-.03-.24.177.177 0 0 0-.09-.105.302.302 0 0 0-.166-.045.339.339 0 0 0-.187.052.265.265 0 0 0-.12.135.738.738 0 0 0-.045.3v.863h-.443V3.57h.428ZM19.995 5.048V3.57l-.42-.015v.225a.606.606 0 0 0-.203-.21.608.608 0 0 0-.277-.06.659.659 0 0 0-.525.24c-.128.158-.188.36-.188.615s.06.458.188.608c.128.15.293.225.503.225a.542.542 0 0 0 .494-.263v.21c0 .143-.022.248-.067.308-.06.082-.157.12-.3.12-.18 0-.293-.068-.322-.21h-.45c.044.352.3.525.764.525.338 0 .57-.105.698-.308a.689.689 0 0 0 .082-.217c.015-.083.023-.18.023-.315ZM18.9 4.043a.315.315 0 0 1 .285-.158.32.32 0 0 1 .263.113c.082.09.12.21.12.367 0 .128-.023.24-.076.323a.323.323 0 0 1-.3.165.325.325 0 0 1-.255-.113c-.075-.09-.112-.21-.112-.375 0-.135.023-.24.075-.322ZM13.988 11.797l1.807.63a.358.358 0 0 0 .428-.143l.405-.599a.33.33 0 0 0 .052-.165.3.3 0 0 0-.3-.3h-2.302a.3.3 0 0 0-.3.3c.007.12.09.232.21.277ZM7.65 11.813h2.625v-.6H7.65a.3.3 0 0 0-.3.3.3.3 0 0 0 .3.3ZM7.65 12.787h.375a.3.3 0 0 0 .3-.3.3.3 0 0 0-.3-.3H7.65a.3.3 0 0 0-.3.3.3.3 0 0 0 .3.3ZM15.645 14.055A3.676 3.676 0 1 1 17.325 21a3.676 3.676 0 0 1-3.66-3.338h-.78a.975.975 0 1 1-1.65-1.012L9.27 13.725l-.405.645a3.68 3.68 0 0 1 1.485 2.955A3.681 3.681 0 0 1 6.675 21a3.676 3.676 0 1 1 1.68-6.945l.72-1.155h5.85l.72 1.155ZM6.675 20.4a3.08 3.08 0 0 0 3.075-3.075c0-.96-.443-1.86-1.2-2.438l-1.62 2.595a.3.3 0 0 1-.51-.315l1.62-2.602a3.08 3.08 0 0 0-4.44 2.76A3.08 3.08 0 0 0 6.675 20.4Zm5.595-4.088a1.115 1.115 0 0 0-.27-.037c-.09 0-.18.015-.27.037L9.84 13.5h4.32l-1.89 2.812Zm.683.75h.705a3.664 3.664 0 0 1 1.477-2.692l-.405-.645-1.965 2.925c.09.12.157.262.188.412Zm2.497-2.175 1.358 2.175h-2.55c.075-.862.51-1.65 1.192-2.175Zm-1.185 2.775a3.077 3.077 0 0 0 6.135-.337 3.08 3.08 0 0 0-4.44-2.76l1.342 2.16h.023c.33 0 .6.27.6.6 0 .33-.27.6-.6.6a.602.602 0 0 1-.495-.263h-2.565Z" fill="#fff"/></svg>