<svg class="color-immutable" width="24" height="24" viewBox="0 0 24 24" fill="none" xmlns="http://www.w3.org/2000/svg"><path fill-rule="evenodd" clip-rule="evenodd" d="M22.5 0h-21C.675 0 0 .675 0 1.5v21c0 .825.675 1.5 1.5 1.5h21c.825 0 1.5-.675 1.5-1.5v-21c0-.825-.675-1.5-1.5-1.5Z" fill="#2D327D"/><path fill-rule="evenodd" clip-rule="evenodd" d="M4.815 3H3v4.5h.982V5.88h.998c.255 0 .472-.022.652-.075.18-.052.338-.135.473-.247.322-.27.487-.638.487-1.11 0-.526-.194-.923-.584-1.186a1.273 1.273 0 0 0-.473-.202 3.524 3.524 0 0 0-.72-.06Zm-.833 2.107V3.833l.818.008c.27 0 .465.038.585.12.165.105.248.277.248.503 0 .224-.068.397-.21.51-.113.09-.3.135-.563.135h-.878ZM10.012 11.797l-1.807.63a.358.358 0 0 1-.428-.143l-.405-.599a.33.33 0 0 1-.052-.165.3.3 0 0 1 .3-.3h2.302a.3.3 0 0 1 .3.3.324.324 0 0 1-.21.277ZM16.35 11.813h-2.625v-.6h2.625a.3.3 0 0 1 .3.3.3.3 0 0 1-.3.3ZM16.35 12.787h-.375a.3.3 0 0 1-.3-.3.3.3 0 0 1 .3-.3h.375a.3.3 0 0 1 .3.3.3.3 0 0 1-.3.3ZM3 17.325a3.671 3.671 0 0 1 3.675-3.675 3.63 3.63 0 0 1 1.68.405l.72-1.155h5.85l.72 1.155a3.724 3.724 0 0 1 1.68-.405 3.676 3.676 0 1 1-2.19.72l-.405-.645-1.965 2.925A.973.973 0 0 1 12 18.225a.967.967 0 0 1-.885-.563h-.78A3.676 3.676 0 0 1 6.675 21 3.681 3.681 0 0 1 3 17.325Zm12.45-2.438a3.059 3.059 0 0 0-1.2 2.438 3.08 3.08 0 0 0 3.075 3.075 3.08 3.08 0 0 0 3.075-3.075 3.08 3.08 0 0 0-4.44-2.76l1.62 2.602a.3.3 0 0 1-.51.315l-1.62-2.595Zm-3.72 1.425L9.84 13.5h4.32l-1.89 2.812a1.115 1.115 0 0 0-.27-.037c-.09 0-.18.015-.27.037ZM8.865 14.37a3.69 3.69 0 0 1 1.477 2.692h.705a.94.94 0 0 1 .188-.412L9.27 13.725l-.405.645Zm-.315.517a3.081 3.081 0 0 1 1.192 2.175h-2.55l1.358-2.175ZM3.6 17.325a3.077 3.077 0 0 0 6.135.338H7.17a.602.602 0 0 1-.495.262c-.33 0-.6-.27-.6-.6 0-.33.27-.6.6-.6h.022l1.343-2.16a3.08 3.08 0 0 0-4.44 2.76Z" fill="#fff"/></svg>