<svg class="color-immutable" width="24" height="24" viewBox="0 0 24 24" fill="none" xmlns="http://www.w3.org/2000/svg"><path fill-rule="evenodd" clip-rule="evenodd" d="M22.5 0h-21C.675 0 0 .675 0 1.5v21c0 .825.675 1.5 1.5 1.5h21c.825 0 1.5-.675 1.5-1.5v-21c0-.825-.675-1.5-1.5-1.5Z" fill="#2D327D"/><path fill-rule="evenodd" clip-rule="evenodd" d="m10.125 6.188-.75-.75-.75.75h-1.29a2.288 2.288 0 0 1-2.085 1.35A2.292 2.292 0 0 1 2.962 5.25 2.292 2.292 0 0 1 5.25 2.963c.93 0 1.725.555 2.085 1.35h4.29l.938.937-.938.938-.75-.75-.75.75Zm-6.75-.938c0 .413.337.75.75.75.412 0 .75-.337.75-.75a.752.752 0 0 0-.75-.75.752.752 0 0 0-.75.75ZM21 12.488V11.25l-9-4.125-9 4.125v1.238l9-4.125 9 4.125Z" fill="#fff"/><path fill-rule="evenodd" clip-rule="evenodd" d="m10.26 12.945-1.582.555c-.038.015-.076.015-.106.015a.318.318 0 0 1-.27-.143l-.352-.524a.265.265 0 0 1-.045-.143c0-.143.12-.262.263-.262h2.017c.143 0 .262.12.262.262a.283.283 0 0 1-.187.24ZM15.81 12.96h-2.295v-.525h2.295c.143 0 .263.12.263.262-.008.143-.12.263-.263.263ZM15.81 13.815h-.33a.266.266 0 0 1-.263-.262c0-.143.12-.263.263-.263h.33c.143 0 .263.12.263.263-.008.142-.12.262-.263.262ZM4.125 17.782a3.217 3.217 0 0 1 3.218-3.217c.51 0 1.012.128 1.477.36l.63-1.013h5.115l.63 1.013a3.24 3.24 0 0 1 1.47-.353 3.217 3.217 0 1 1 0 6.436 3.217 3.217 0 0 1-1.92-5.798l-.352-.57-1.718 2.558a.855.855 0 0 1-.675 1.38.86.86 0 0 1-.773-.496h-.682a3.217 3.217 0 0 1-6.42-.3Zm10.898-2.137a2.7 2.7 0 0 0 1.634 4.838 2.695 2.695 0 0 0 2.693-2.693 2.695 2.695 0 0 0-3.885-2.415l1.425 2.265a.31.31 0 0 1 .037.142c0 .143-.12.263-.262.263a.271.271 0 0 1-.225-.128l-1.418-2.272Zm-3.255 1.253-1.658-2.46h3.78l-1.658 2.46a.825.825 0 0 0-.232-.03.791.791 0 0 0-.232.03Zm-2.513-1.695a3.232 3.232 0 0 1 1.29 2.355v-.008h.615a.83.83 0 0 1 .165-.36l-1.717-2.558-.353.57Zm-.278.45c.6.457.983 1.155 1.043 1.905H7.793l1.184-1.905Zm-4.327 2.13a2.695 2.695 0 0 0 2.692 2.692 2.701 2.701 0 0 0 2.678-2.4H7.778a.515.515 0 0 1-.435.233.522.522 0 0 1-.526-.526c0-.292.233-.524.526-.524h.014l1.178-1.89a2.695 2.695 0 0 0-3.885 2.415Z" fill="#fff"/></svg>