<svg class="color-immutable" width="24" height="24" viewBox="0 0 24 24" fill="none" xmlns="http://www.w3.org/2000/svg"><path fill-rule="evenodd" clip-rule="evenodd" d="M22.5 0h-21C.675 0 0 .675 0 1.5v21c0 .825.675 1.5 1.5 1.5h21c.825 0 1.5-.675 1.5-1.5v-21c0-.825-.675-1.5-1.5-1.5Z" fill="#2D327D"/><path fill-rule="evenodd" clip-rule="evenodd" d="m10.125 6.188-.75-.75-.75.75h-1.29a2.288 2.288 0 0 1-2.085 1.35A2.292 2.292 0 0 1 2.962 5.25 2.292 2.292 0 0 1 5.25 2.963c.93 0 1.725.555 2.085 1.35h4.29l.938.937-.938.938-.75-.75-.75.75Zm-6.75-.938c0 .413.337.75.75.75.412 0 .75-.337.75-.75a.752.752 0 0 0-.75-.75.752.752 0 0 0-.75.75ZM21 12.488V11.25l-9-4.125-9 4.125v1.238l9-4.125 9 4.125Z" fill="#fff"/><path fill-rule="evenodd" clip-rule="evenodd" d="m13.74 12.945 1.582.555c.038.015.076.015.106.015.112 0 .21-.053.27-.143l.352-.524a.265.265 0 0 0 .045-.143.266.266 0 0 0-.262-.262h-2.018a.266.266 0 0 0-.262.262.283.283 0 0 0 .187.24ZM8.19 12.96h2.295v-.525H8.19a.266.266 0 0 0-.262.262c.007.143.12.263.262.263ZM8.19 13.815h.33c.142 0 .263-.12.263-.262a.266.266 0 0 0-.263-.263h-.33a.266.266 0 0 0-.262.263c.007.142.12.262.262.262ZM15.188 14.918a3.226 3.226 0 0 1 4.695 2.857 3.217 3.217 0 0 1-3.218 3.218 3.207 3.207 0 0 1-3.202-2.918h-.683a.86.86 0 0 1-.772.495.855.855 0 0 1-.675-1.38l-1.718-2.558-.353.57a3.217 3.217 0 1 1-5.137 2.58 3.217 3.217 0 0 1 3.217-3.217c.51 0 1.013.12 1.47.353l.63-1.013h5.115l.63 1.013Zm-7.853 5.557a2.695 2.695 0 0 0 1.642-4.83L7.56 17.918a.264.264 0 0 1-.225.127.266.266 0 0 1-.263-.263.31.31 0 0 1 .038-.142l1.417-2.273a2.695 2.695 0 0 0-3.885 2.415 2.695 2.695 0 0 0 2.693 2.693Zm4.897-3.578a.825.825 0 0 0-.232-.03.791.791 0 0 0-.232.03l-1.658-2.46h3.78l-1.658 2.46Zm.608.66h.615c.068-.937.533-1.8 1.29-2.347l-.352-.57-1.718 2.558a.792.792 0 0 1 .165.36Zm2.183-1.904 1.184 1.905H13.98a2.66 2.66 0 0 1 1.043-1.905Zm-1.043 2.43a2.694 2.694 0 0 0 5.37-.293 2.695 2.695 0 0 0-3.885-2.415l1.177 1.89h.015c.293 0 .526.232.526.525a.522.522 0 0 1-.526.525.534.534 0 0 1-.434-.233H13.98Z" fill="#fff"/></svg>