<svg class="color-immutable" width="24" height="24" viewBox="0 0 24 24" fill="none" xmlns="http://www.w3.org/2000/svg"><path fill-rule="evenodd" clip-rule="evenodd" d="M22.5 0h-21C.675 0 0 .675 0 1.5v21c0 .825.675 1.5 1.5 1.5h21c.825 0 1.5-.675 1.5-1.5v-21c0-.825-.675-1.5-1.5-1.5Z" fill="#2D327D"/><path fill-rule="evenodd" clip-rule="evenodd" d="M4.897 3v2.25h-.495l-.937-1.53.008 1.53H3V3h.502l.938 1.53L4.432 3h.465ZM6.705 3.765a.808.808 0 0 0-.6-.24c-.27 0-.48.09-.645.263a.912.912 0 0 0-.218.622.9.9 0 0 0 .225.63c.15.173.36.255.623.255a.82.82 0 0 0 .6-.232c.165-.165.247-.383.247-.66a.899.899 0 0 0-.232-.638Zm-.908.248a.335.335 0 0 1 .285-.143c.128 0 .233.053.293.15.067.09.105.225.105.39 0 .18-.038.315-.113.413a.37.37 0 0 1-.57-.015c-.067-.09-.105-.225-.105-.398 0-.172.038-.3.105-.397ZM7.68 3v2.25h-.442V3h.442ZM9.428 4.987a.712.712 0 0 0 .127-.262h-.428A.386.386 0 0 1 9 4.897a.34.34 0 0 1-.203.053c-.172 0-.285-.068-.345-.218a.697.697 0 0 1-.037-.202h1.17c0-.203-.015-.368-.068-.495a.836.836 0 0 0-.224-.33.746.746 0 0 0-.518-.188c-.248 0-.45.09-.607.278a.9.9 0 0 0-.21.615c0 .12.014.247.06.36a.869.869 0 0 0 .172.277c.15.158.353.24.6.24.278 0 .488-.097.638-.3Zm-.301-.765v.008-.008Zm0 0a.662.662 0 0 0-.052-.195.327.327 0 0 0-.12-.127.348.348 0 0 0-.172-.045c-.098 0-.18.03-.248.097a.405.405 0 0 0-.113.27h.705ZM11.422 5.048V3.57l-.42-.015v.225a.606.606 0 0 0-.202-.21.608.608 0 0 0-.277-.06.659.659 0 0 0-.525.24c-.128.158-.188.36-.188.615s.06.458.188.608c.127.15.292.225.502.225a.542.542 0 0 0 .495-.263v.21c0 .143-.022.248-.067.308-.06.082-.158.12-.3.12-.18 0-.293-.068-.323-.21h-.45c.045.352.3.525.765.525.338 0 .57-.105.698-.308a.766.766 0 0 0 .082-.217c.015-.083.022-.18.022-.315Zm-1.095-1.005a.315.315 0 0 1 .286-.158.32.32 0 0 1 .262.113c.082.09.12.21.12.367 0 .128-.022.24-.075.323a.323.323 0 0 1-.3.165.325.325 0 0 1-.255-.113c-.075-.09-.113-.21-.113-.375 0-.135.023-.24.075-.322ZM13.35 5.048V3.57l-.42-.015v.225a.606.606 0 0 0-.203-.21.608.608 0 0 0-.277-.06.659.659 0 0 0-.525.24c-.128.158-.188.36-.188.615s.06.458.188.608c.127.15.292.225.502.225a.542.542 0 0 0 .495-.263v.21c0 .143-.022.248-.067.308-.06.082-.158.12-.3.12-.18 0-.293-.068-.322-.21h-.45c.045.352.3.525.764.525.338 0 .57-.105.698-.308a.766.766 0 0 0 .083-.217c.014-.083.022-.18.022-.315Zm-1.095-1.005a.315.315 0 0 1 .285-.158.32.32 0 0 1 .263.113c.082.09.12.21.12.367 0 .128-.023.24-.075.323a.323.323 0 0 1-.3.165.325.325 0 0 1-.255-.113c-.075-.09-.113-.21-.113-.375 0-.135.023-.24.075-.322ZM14.168 3.405V3h-.443v.405h.443Zm0 1.845V3.57h-.443v1.68h.443ZM15.93 3.765a.808.808 0 0 0-.6-.24c-.27 0-.488.09-.645.263a.912.912 0 0 0-.218.622.9.9 0 0 0 .226.63c.15.173.36.255.622.255a.82.82 0 0 0 .6-.232c.165-.165.248-.383.248-.66a.899.899 0 0 0-.233-.638Zm-.907.248a.335.335 0 0 1 .284-.143c.128 0 .226.053.293.15.068.09.105.225.105.39 0 .18-.037.315-.113.413a.37.37 0 0 1-.57-.015c-.067-.09-.104-.225-.104-.398 0-.172.037-.3.105-.397ZM13.988 11.797l1.807.63a.358.358 0 0 0 .428-.143l.405-.599a.33.33 0 0 0 .052-.165.3.3 0 0 0-.3-.3h-2.302a.3.3 0 0 0-.3.3c.007.12.09.232.21.277ZM7.65 11.813h2.625v-.6H7.65a.3.3 0 0 0-.3.3.3.3 0 0 0 .3.3ZM7.65 12.787h.375a.3.3 0 0 0 .3-.3.3.3 0 0 0-.3-.3H7.65a.3.3 0 0 0-.3.3.3.3 0 0 0 .3.3ZM15.645 14.055A3.676 3.676 0 1 1 17.325 21a3.676 3.676 0 0 1-3.66-3.338h-.78a.975.975 0 1 1-1.65-1.012L9.27 13.725l-.405.645a3.68 3.68 0 0 1 1.485 2.955A3.681 3.681 0 0 1 6.675 21a3.676 3.676 0 1 1 1.68-6.945l.72-1.155h5.85l.72 1.155ZM6.675 20.4a3.08 3.08 0 0 0 3.075-3.075c0-.96-.443-1.86-1.2-2.438l-1.62 2.595a.3.3 0 0 1-.51-.315l1.62-2.602a3.08 3.08 0 0 0-4.44 2.76A3.08 3.08 0 0 0 6.675 20.4Zm5.595-4.088a1.115 1.115 0 0 0-.27-.037c-.09 0-.18.015-.27.037L9.84 13.5h4.32l-1.89 2.812Zm.683.75h.705a3.664 3.664 0 0 1 1.477-2.692l-.405-.645-1.965 2.925c.09.12.157.262.188.412Zm2.497-2.175 1.358 2.175h-2.55c.075-.862.51-1.65 1.192-2.175Zm-1.185 2.775a3.077 3.077 0 0 0 6.135-.337 3.08 3.08 0 0 0-4.44-2.76l1.342 2.16h.023c.33 0 .6.27.6.6 0 .33-.27.6-.6.6a.602.602 0 0 1-.495-.263h-2.565Z" fill="#fff"/></svg>