<svg class="color-immutable" width="24" height="24" viewBox="0 0 24 24" fill="none" xmlns="http://www.w3.org/2000/svg"><path fill-rule="evenodd" clip-rule="evenodd" d="M22.5 0h-21C.675 0 0 .675 0 1.5v21c0 .825.675 1.5 1.5 1.5h21c.825 0 1.5-.675 1.5-1.5v-21c0-.825-.675-1.5-1.5-1.5Z" fill="#2D327D"/><path fill-rule="evenodd" clip-rule="evenodd" d="M20.565 10.088 7.41 14.88a.978.978 0 0 1-.742-.03s-.638-.3-1.358-.63l.638 1.755a.607.607 0 0 0 .772.36l13.672-4.98a.601.601 0 0 0 .36-.765l-.187-.502Z" fill="#fff"/><path fill-rule="evenodd" clip-rule="evenodd" d="m2.948 12.113.172.48a.59.59 0 0 0 .308.337l3.382 1.575c.143.067.3.075.458.022L20.565 9.69a.601.601 0 0 0 .36-.765l-1.08-2.955-16.897 6.143ZM14.925 16.125h.652l-.854-2.34-2.108.765.915 2.52a1.518 1.518 0 0 1 1.395-.945Z" fill="#fff"/><path fill-rule="evenodd" clip-rule="evenodd" d="M13.8 17.625c0-.622.502-1.125 1.125-1.125H21v2.25h-6.075a1.123 1.123 0 0 1-1.125-1.125Zm.375 0c0 .413.337.75.75.75.42 0 .75-.337.75-.75a.752.752 0 0 0-.75-.75.752.752 0 0 0-.75.75ZM5.085 3l-.75 2.25H3.78L3.045 3h.51l.502 1.688L4.567 3h.518ZM5.722 3.405V3H5.28v.405h.442Zm0 1.845V3.57H5.28v1.68h.442ZM7.665 5.25V3h-.443v.772c-.105-.172-.27-.254-.495-.254a.641.641 0 0 0-.54.27c-.112.15-.172.36-.172.607 0 .27.06.48.195.645a.662.662 0 0 0 .54.247c.225 0 .39-.082.487-.262v.225h.428ZM6.562 4.013a.35.35 0 0 1 .278-.128.38.38 0 0 1 .292.128c.068.09.105.217.105.39a.618.618 0 0 1-.105.375.339.339 0 0 1-.285.135.339.339 0 0 1-.285-.136.66.66 0 0 1-.105-.382c0-.165.038-.292.105-.382ZM9.39 4.987a.712.712 0 0 0 .127-.262H9.09a.386.386 0 0 1-.128.172.34.34 0 0 1-.202.053c-.173 0-.285-.068-.345-.218a.697.697 0 0 1-.038-.202h1.17c0-.203-.015-.368-.067-.495a.836.836 0 0 0-.225-.33.746.746 0 0 0-.518-.188c-.247 0-.45.09-.607.278a.9.9 0 0 0-.21.615c0 .12.015.247.06.36a.869.869 0 0 0 .172.277c.15.158.353.24.6.24.278 0 .488-.097.638-.3Zm-.3-.765v.008-.008Zm0 0a.662.662 0 0 0-.053-.195.327.327 0 0 0-.12-.127.348.348 0 0 0-.172-.045c-.098 0-.18.03-.248.097a.405.405 0 0 0-.112.27h.704ZM11.22 3.765a.808.808 0 0 0-.6-.24c-.27 0-.487.09-.645.263a.912.912 0 0 0-.217.622.9.9 0 0 0 .225.63c.15.173.36.255.622.255a.82.82 0 0 0 .6-.232c.165-.165.248-.383.248-.66a.899.899 0 0 0-.233-.638Zm-.908.248a.335.335 0 0 1 .286-.143c.127 0 .224.053.292.15.067.09.105.225.105.39 0 .18-.037.315-.112.413a.37.37 0 0 1-.57-.015c-.068-.09-.106-.225-.106-.398 0-.172.038-.3.105-.397Z" fill="#fff"/></svg>