<svg class="color-immutable" width="30" height="30" viewBox="0 0 30 30" fill="none" xmlns="http://www.w3.org/2000/svg"><g clip-path="url(#a)"><path d="M0 0h30v30H0V0Z" fill="#2D327D"/><path d="M25.5 3c.825 0 1.5.675 1.5 1.5v21c0 .825-.675 1.5-1.5 1.5h-21c-.825 0-1.5-.675-1.5-1.5v-21C3 3.675 3.675 3 4.5 3h21Zm0-.375h-21A1.877 1.877 0 0 0 2.625 4.5v21c0 1.034.841 1.875 1.875 1.875h21a1.877 1.877 0 0 0 1.875-1.875v-21A1.877 1.877 0 0 0 25.5 2.625Z" fill="#fff"/><path d="M10.126 19.5h-3.75a.375.375 0 0 0-.376.374V24h.75v-3.749h3V24h.75v-4.126a.375.375 0 0 0-.374-.374Z" fill="#fff"/><path d="M12.85 17.9a.749.749 0 0 0-.744-.65h-2.73v-2.645l1.337 1.98a.638.638 0 0 0 1.056-.713l-2.752-4.073A1.65 1.65 0 0 0 6 12.724V18c0 .413.336.75.75.75h4.663l.612 4.589a.768.768 0 1 0 1.523-.203l-.697-5.235ZM23.25 18.336h-2.306v-.449a.638.638 0 0 0-.639-.637h-1.462a.638.638 0 0 0-.637.637v.45H15.9a.752.752 0 0 0-.75.75v4.163c0 .414.336.75.75.75h7.35a.75.75 0 0 0 .75-.75v-4.162a.752.752 0 0 0-.75-.752Zm-2.831 0h-1.687v-.56h1.687v.56ZM21.038 12.075a3.113 3.113 0 1 0-.002-6.226 3.113 3.113 0 0 0 .002 6.226Zm0-5.512a2.4 2.4 0 1 1-.002 4.8 2.4 2.4 0 0 1 .002-4.8Z" fill="#fff"/><path d="M22.395 7.814a.187.187 0 0 0-.133-.32c-.05 0-.096.019-.133.054l-.915.915.266.264.915-.913ZM20.95 9.259l.265-.266-1.445-1.445a.187.187 0 1 0-.265.266l1.446 1.445ZM7.5 10.575a1.5 1.5 0 1 0-.002-2.998 1.5 1.5 0 0 0 .002 2.998Z" fill="#fff"/></g><defs><clipPath id="a"><path fill="#fff" d="M0 0h30v30H0z"/></clipPath></defs></svg>