<svg class="color-immutable" width="30" height="30" viewBox="0 0 30 30" fill="none" xmlns="http://www.w3.org/2000/svg"><path d="M30 0H0v30h30V0Z" fill="#2D327D"/><path d="M25.5 3c.825 0 1.5.675 1.5 1.5v21c0 .825-.675 1.5-1.5 1.5h-21c-.825 0-1.5-.675-1.5-1.5v-21C3 3.675 3.675 3 4.5 3h21Zm0-.375h-21A1.877 1.877 0 0 0 2.625 4.5v21c0 1.034.841 1.875 1.875 1.875h21a1.877 1.877 0 0 0 1.875-1.875v-21A1.877 1.877 0 0 0 25.5 2.625Z" fill="#fff"/><path d="M22.407 17.279a.796.796 0 0 0 1.593 0v-.797h-1.593v.797ZM22.155 13.974c-.05.223-.103.418.025.659l.342.645 1.444.577.328-1.36a.692.692 0 0 0 .004-.31l-.408-1.878a.485.485 0 0 0-.474-.382h-.425a.485.485 0 0 0-.474.382l-.361 1.667ZM19.593 17.279a.796.796 0 0 1-1.593 0v-.797h1.593v.797ZM19.845 13.974c.05.223.103.418-.025.659l-.342.645-1.444.577-.328-1.36a.69.69 0 0 1-.004-.31l.408-1.878a.485.485 0 0 1 .474-.382h.425c.228 0 .425.159.474.382l.361 1.667ZM9.657 23.279a.796.796 0 1 0 1.593 0v-.797H9.657v.797ZM9.406 19.974c-.05.223-.104.418.024.659l.342.645 1.444.577.328-1.36a.692.692 0 0 0 .004-.31l-.408-1.878a.485.485 0 0 0-.474-.382h-.425a.485.485 0 0 0-.474.382l-.361 1.667ZM7.593 17.279a.796.796 0 0 1-1.593 0v-.797h1.593v.797ZM7.845 13.974c.05.223.103.418-.025.659l-.342.645-1.444.577-.328-1.36a.691.691 0 0 1-.004-.31l.408-1.878a.485.485 0 0 1 .474-.382h.425c.228 0 .425.159.474.382l.362 1.667ZM9.657 11.279a.796.796 0 1 0 1.593 0v-.797H9.657v.797ZM9.406 7.974c-.05.223-.104.418.024.659l.342.645 1.444.577.328-1.36a.692.692 0 0 0 .004-.31l-.408-1.878a.485.485 0 0 0-.473-.382h-.426a.485.485 0 0 0-.474.382l-.361 1.667ZM15 24.112a.187.187 0 0 1-.187-.187V6.075a.187.187 0 1 1 .373 0v17.85a.187.187 0 0 1-.186.187Z" fill="#fff"/></svg>