<svg class="color-immutable" width="24" height="24" viewBox="0 0 24 24" fill="none" xmlns="http://www.w3.org/2000/svg"><path fill-rule="evenodd" clip-rule="evenodd" d="M22.5 0h-21C.675 0 0 .675 0 1.5v21c0 .825.675 1.5 1.5 1.5h21c.825 0 1.5-.675 1.5-1.5v-21c0-.825-.675-1.5-1.5-1.5Z" fill="#2D327D"/><path fill-rule="evenodd" clip-rule="evenodd" d="M7.125 16.5h-3.75a.371.371 0 0 0-.375.375V21h.75v-3.75h3V21h.75v-4.125a.371.371 0 0 0-.375-.375Z" fill="#fff"/><path fill-rule="evenodd" clip-rule="evenodd" d="M9.848 14.902a.751.751 0 0 0-.743-.652h-2.73v-2.648l1.335 1.98a.637.637 0 0 0 1.163-.36.673.673 0 0 0-.105-.36L6.014 8.79a1.64 1.64 0 0 0-1.365-.727c-.908 0-1.65.742-1.65 1.65V15c0 .412.337.75.75.75h4.665l.615 4.59a.77.77 0 0 0 .765.668c.42 0 .773-.345.773-.765 0-.03 0-.068-.008-.105l-.713-5.236ZM17.948 15.338h2.302c.413 0 .75.337.75.75v4.162c0 .413-.337.75-.75.75H12.9a.752.752 0 0 1-.75-.75v-4.163c0-.412.338-.75.75-.75h2.31v-.45c0-.352.285-.637.637-.637h1.463c.353 0 .638.285.638.637v.45Zm-2.213 0h1.688v-.563h-1.688v.563ZM21.15 5.962a3.114 3.114 0 0 1-3.112 3.113 3.114 3.114 0 0 1-3.113-3.113 3.114 3.114 0 0 1 3.113-3.112 3.114 3.114 0 0 1 3.112 3.112Zm-.712 0c0-1.327-1.073-2.4-2.4-2.4a2.397 2.397 0 0 0-2.4 2.4c0 1.328 1.072 2.4 2.4 2.4 1.327 0 2.4-1.072 2.4-2.4Z" fill="#fff"/><path fill-rule="evenodd" clip-rule="evenodd" d="M19.395 4.815a.18.18 0 0 0 .053-.135.186.186 0 0 0-.188-.188.216.216 0 0 0-.135.053l-.915.915.262.262.923-.907ZM17.948 6.255l.262-.263-1.448-1.447a.18.18 0 0 0-.134-.053.186.186 0 0 0-.188.188c0 .052.022.097.052.135l1.456 1.44ZM4.5 7.575c.825 0 1.5-.675 1.5-1.5s-.675-1.5-1.5-1.5S3 5.25 3 6.075s.675 1.5 1.5 1.5Z" fill="#fff"/></svg>