<svg class="color-immutable" width="24" height="24" viewBox="0 0 24 24" fill="none" xmlns="http://www.w3.org/2000/svg"><path fill-rule="evenodd" clip-rule="evenodd" d="M22.5 0h-21C.675 0 0 .675 0 1.5v21c0 .825.675 1.5 1.5 1.5h21c.825 0 1.5-.675 1.5-1.5v-21c0-.825-.675-1.5-1.5-1.5Z" fill="#2D327D"/><path fill-rule="evenodd" clip-rule="evenodd" d="M10.215 12.705a.535.535 0 0 0 1.035-.18.545.545 0 0 0-.03-.188l-1.838-4.98a1.499 1.499 0 0 0-1.41-.982H6.277c-.63 0-1.192.39-1.41.982l-1.837 4.98a.518.518 0 0 0-.03.188.535.535 0 0 0 1.035.18l1.5-4.08h.502L3.413 15.75H5.34v4.485c0 .428.345.765.772.765a.763.763 0 0 0 .766-.765V15.75h.487v4.485a.77.77 0 0 0 1.537 0V15.75h1.928L8.205 8.625h.502l1.508 4.08ZM8.595 4.485c0-.825-.675-1.5-1.5-1.5s-1.5.675-1.5 1.5.675 1.5 1.5 1.5a1.5 1.5 0 0 0 1.5-1.5Z" fill="#fff"/></svg>