<svg class="color-immutable" width="24" height="24" viewBox="0 0 24 24" fill="none" xmlns="http://www.w3.org/2000/svg"><path fill-rule="evenodd" clip-rule="evenodd" d="M22.5 0h-21C.675 0 0 .675 0 1.5v21c0 .825.675 1.5 1.5 1.5h21c.825 0 1.5-.675 1.5-1.5v-21c0-.825-.675-1.5-1.5-1.5Z" fill="#2D327D"/><path fill-rule="evenodd" clip-rule="evenodd" d="M7.785 4.485c0-.825-.675-1.5-1.5-1.5s-1.5.675-1.5 1.5.675 1.5 1.5 1.5c.832 0 1.5-.668 1.5-1.5ZM3 7.875v5.092c0 .293.24.533.533.533.292 0 .532-.24.532-.533V8.625h.465v11.61c0 .428.345.765.772.765a.763.763 0 0 0 .766-.765v-6.75h.487v6.75c0 .428.345.765.772.765a.763.763 0 0 0 .765-.765V8.625h.465v4.342c0 .293.24.533.533.533.293 0 .533-.24.533-.533V7.875c0-.825-.675-1.5-1.5-1.5H4.5c-.825 0-1.5.675-1.5 1.5Z" fill="#fff"/></svg>