<svg class="color-immutable" width="24" height="24" viewBox="0 0 24 24" fill="none" xmlns="http://www.w3.org/2000/svg"><path fill-rule="evenodd" clip-rule="evenodd" d="M22.5 0h-21C.675 0 0 .675 0 1.5v21c0 .825.675 1.5 1.5 1.5h21c.825 0 1.5-.675 1.5-1.5v-21c0-.825-.675-1.5-1.5-1.5Z" fill="#2D327D"/><path fill-rule="evenodd" clip-rule="evenodd" d="M12 20.992a.186.186 0 0 1-.188-.187V3.18c0-.105.083-.188.188-.188s.188.083.188.188v17.625a.186.186 0 0 1-.188.187ZM16.215 4.485c0-.825.675-1.5 1.5-1.5s1.5.675 1.5 1.5-.675 1.5-1.5 1.5c-.832 0-1.5-.668-1.5-1.5ZM21 7.875v5.092c0 .293-.24.533-.532.533a.535.535 0 0 1-.533-.533V8.625h-.465v11.602a.765.765 0 0 1-.772.765.763.763 0 0 1-.765-.765v-6.75h-.488v6.75a.765.765 0 0 1-.773.765.763.763 0 0 1-.764-.765V8.625h-.465v4.342c0 .293-.24.533-.533.533a.535.535 0 0 1-.533-.533V7.875c0-.825.675-1.5 1.5-1.5H19.5c.825 0 1.5.675 1.5 1.5ZM9.757 12.705a.535.535 0 0 0 1.035-.18.545.545 0 0 0-.03-.188l-1.837-4.98a1.499 1.499 0 0 0-1.41-.982H5.82c-.63 0-1.193.39-1.41.982l-1.838 4.98a.518.518 0 0 0-.03.188.535.535 0 0 0 1.035.18l1.5-4.08h.503L2.955 15.75h1.927v4.485c0 .428.345.765.773.765a.763.763 0 0 0 .765-.765V15.75h.487v4.485a.77.77 0 0 0 1.537 0V15.75h1.928L7.748 8.625h.503l1.507 4.08ZM8.145 4.485c0-.825-.675-1.5-1.5-1.5s-1.5.675-1.5 1.5.675 1.5 1.5 1.5a1.5 1.5 0 0 0 1.5-1.5Z" fill="#fff"/></svg>