<svg class="color-immutable" width="24" height="24" viewBox="0 0 24 24" fill="none" xmlns="http://www.w3.org/2000/svg"><g clip-path="url(#a)"><path d="M0 22.5v-21C0 .675.675 0 1.5 0h21c.825 0 1.5.675 1.5 1.5v21c0 .825-.675 1.5-1.5 1.5h-21C.675 24 0 23.325 0 22.5Z" fill="#2D327D"/><path d="M13.5 19.5a1.5 1.5 0 1 1-2.999.001A1.5 1.5 0 0 1 13.5 19.5ZM15.819 15.776a5.565 5.565 0 0 0-3.82-1.508c-1.43 0-2.778.535-3.818 1.507l1.425 1.432a3.56 3.56 0 0 1 4.787.001l1.426-1.432ZM19.541 12.079l.161-.144 1.27-1.276a12.203 12.203 0 0 0-9.009-3.984 12.208 12.208 0 0 0-8.935 3.905l1.422 1.429a10.19 10.19 0 0 1 7.513-3.318c2.888 0 5.65 1.235 7.578 3.388Z" fill="#fff"/><path d="M18.334 13.115a8.72 8.72 0 0 0-6.3-2.658 8.826 8.826 0 0 0-6.369 2.731l1.422 1.429a6.801 6.801 0 0 1 4.947-2.144c1.857 0 3.588.735 4.878 2.07l1.422-1.428Z" fill="#fff"/></g><defs><clipPath id="a"><path fill="#fff" d="M0 0h24v24H0z"/></clipPath></defs></svg>