<svg class="color-immutable" width="30" height="30" viewBox="0 0 30 30" fill="none" xmlns="http://www.w3.org/2000/svg"><g clip-path="url(#a)"><path d="M30 0H0v30h30V0Z" fill="#2D327D" stroke="#2D327D" stroke-miterlimit="10"/><path d="M25.5 3c.825 0 1.5.675 1.5 1.5v21c0 .825-.675 1.5-1.5 1.5h-21c-.825 0-1.5-.675-1.5-1.5v-21C3 3.675 3.675 3 4.5 3h21Zm0-.375h-21A1.877 1.877 0 0 0 2.625 4.5v21c0 1.034.841 1.875 1.875 1.875h21a1.877 1.877 0 0 0 1.875-1.875v-21A1.877 1.877 0 0 0 25.5 2.625Z" fill="#fff"/><path d="M16.5 22.5a1.5 1.5 0 1 1-3 0 1.5 1.5 0 0 1 3 0ZM18.819 18.776a5.568 5.568 0 0 0-3.82-1.508c-1.43 0-2.778.535-3.818 1.508l1.426 1.431a3.559 3.559 0 0 1 4.787 0l1.425-1.43ZM22.541 15.079l.16-.144 1.27-1.276a12.201 12.201 0 0 0-9.008-3.984 12.208 12.208 0 0 0-8.935 3.904l1.422 1.43a10.19 10.19 0 0 1 7.513-3.318c2.888 0 5.65 1.235 7.578 3.388Z" fill="#fff"/><path d="M21.334 16.115a8.722 8.722 0 0 0-6.3-2.658 8.824 8.824 0 0 0-6.368 2.731l1.422 1.429a6.803 6.803 0 0 1 4.947-2.144c1.857 0 3.587.735 4.877 2.07l1.422-1.428Z" fill="#fff"/></g><defs><clipPath id="a"><path fill="#fff" d="M0 0h30v30H0z"/></clipPath></defs></svg>