<svg class="color-immutable" width="24" height="24" viewBox="0 0 24 24" fill="none" xmlns="http://www.w3.org/2000/svg"><path fill-rule="evenodd" clip-rule="evenodd" d="M22.5 0h-21C.675 0 0 .675 0 1.5v21c0 .825.675 1.5 1.5 1.5h21c.825 0 1.5-.675 1.5-1.5v-21c0-.825-.675-1.5-1.5-1.5Z" fill="#2D327D"/><path fill-rule="evenodd" clip-rule="evenodd" d="M10.402 16.365c.33-.33.758-.51 1.223-.517v-.788l-3.773 1.59c.18.278.278.608.278.945h1.762c0-.457.18-.892.51-1.23ZM7.612 16.365l.016.015 1.89-.795-3.143-.9v1.17c.465 0 .907.18 1.237.51ZM11.625 14.693v-.578h-5.25v.21l3.645 1.043 1.605-.675Z" fill="#fff"/><path fill-rule="evenodd" clip-rule="evenodd" d="m12.585 17.415-1.095-1.26c-.33.037-.638.18-.877.42a1.41 1.41 0 0 0-.42.945l.517.593-1.252 1.5c-.285.345-.225.87.142 1.177.368.308.893.277 1.178-.067l1.86-2.22c.262-.308.232-.773-.053-1.088ZM6.502 16.163l-1.095 1.26c-.285.315-.315.772-.052 1.087l1.86 2.22c.285.345.817.375 1.177.068.368-.308.428-.833.143-1.178l-1.253-1.5.518-.592a1.445 1.445 0 0 0-.42-.945c-.24-.24-.548-.39-.878-.42ZM14.25 10.178H3.75a.752.752 0 0 0-.75.75c0 .412.337.75.75.75h3v2.107h4.5v-2.107h3c.412 0 .75-.338.75-.75 0-.42-.338-.75-.75-.75Z" fill="#fff"/><circle cx="9" cy="7.552" r="2.25" fill="#fff"/></svg>