<svg class="color-immutable" width="24" height="24" viewBox="0 0 24 24" fill="none" xmlns="http://www.w3.org/2000/svg"><path fill-rule="evenodd" clip-rule="evenodd" d="M22.5 0h-21C.675 0 0 .675 0 1.5v21c0 .825.675 1.5 1.5 1.5h21c.825 0 1.5-.675 1.5-1.5v-21c0-.825-.675-1.5-1.5-1.5Z" fill="#2D327D"/><path fill-rule="evenodd" clip-rule="evenodd" d="M13.5 19.5c0 .825-.675 1.5-1.5 1.5s-1.5-.675-1.5-1.5.675-1.5 1.5-1.5 1.5.675 1.5 1.5ZM15.818 15.78A5.558 5.558 0 0 0 12 14.273a5.544 5.544 0 0 0-3.818 1.507l1.425 1.432a3.563 3.563 0 0 1 4.786 0l1.425-1.432ZM19.538 12.082l.157-.142 1.267-1.275a12.19 12.19 0 0 0-9.007-3.982 12.2 12.2 0 0 0-8.933 3.907l1.425 1.433a10.194 10.194 0 0 1 7.516-3.316 10.088 10.088 0 0 1 7.575 3.375Z" fill="#fff"/><path fill-rule="evenodd" clip-rule="evenodd" d="M18.337 13.117a8.702 8.702 0 0 0-6.3-2.655c-2.4 0-4.71.998-6.367 2.73l1.425 1.425a6.798 6.798 0 0 1 4.95-2.145c1.86 0 3.585.736 4.875 2.07l1.417-1.425Z" fill="#fff"/></svg>