<svg class="color-immutable" width="24" height="24" viewBox="0 0 24 24" fill="none" xmlns="http://www.w3.org/2000/svg"><path fill-rule="evenodd" clip-rule="evenodd" d="M22.5 0h-21C.675 0 0 .675 0 1.5v21c0 .825.675 1.5 1.5 1.5h21c.825 0 1.5-.675 1.5-1.5v-21c0-.825-.675-1.5-1.5-1.5Z" fill="#2D327D"/><path fill-rule="evenodd" clip-rule="evenodd" d="M3 3v.375L21 4.95v-.375L3 3ZM11.31 17.82l-3.773-.33a2.016 2.016 0 0 0 1.95 1.478c.773 0 1.486-.443 1.823-1.148ZM11.633 4.448 15.57 7.2l-2.348 1.298 7.77.682v.675l-3.787-.33h-.03c-.195 0-.36.15-.375.345l-.262 2.993v.03c0 .194.15.36.345.374l4.117.36v4.29l-17.715-1.56a.376.376 0 0 1-.345-.374v-.03l.638-7.32a.984.984 0 0 1 .975-.893.28.28 0 0 1 .04.004c.014.002.027.004.042.004l4.71.412-2.07-1.687 4.357-2.025Zm-5.325 7.514L6.57 8.97v-.03c0-.195-.15-.36-.345-.375L4.62 8.423h-.03c-.195 0-.36.15-.375.345l-.262 2.992v.03c0 .195.15.36.345.375l1.604.143h.03c.196 0 .36-.15.375-.345ZM8.384 9.24 8.01 13.5a.557.557 0 0 1-.563.51.567.567 0 0 1-.562-.563v-.052l.375-4.26a.557.557 0 0 1 .563-.51c.307 0 .562.255.562.563.008.022.008.037 0 .052Zm1.425 4.418.375-4.26v-.053a.567.567 0 0 0-.563-.562.557.557 0 0 0-.562.51l-.375 4.26v.052c0 .307.255.563.563.563.292 0 .54-.218.562-.51ZM8.535 6.63l3.03-1.41 2.738 1.913-2.266 1.26-1.485-.128L8.536 6.63Zm7.598 3.15c0-.195-.15-.36-.345-.375L11.264 9h-.03c-.195 0-.36.15-.375.345l-.262 2.992v.03c0 .195.15.36.345.375l4.522.398h.03c.195 0 .36-.15.375-.345l.263-2.985v-.03ZM15.787 18.21l-3.772-.33a2.016 2.016 0 0 0 1.95 1.478c.78 0 1.492-.443 1.822-1.148ZM3 19.425 21 21v-.637L3 18.788v.637Z" fill="#fff"/></svg>