<svg class="color-immutable" width="24" height="24" viewBox="0 0 24 24" fill="none" xmlns="http://www.w3.org/2000/svg"><path fill-rule="evenodd" clip-rule="evenodd" d="M22.5 0h-21C.675 0 0 .675 0 1.5v21c0 .825.675 1.5 1.5 1.5h21c.825 0 1.5-.675 1.5-1.5v-21c0-.825-.675-1.5-1.5-1.5Z" fill="#2D327D"/><path fill-rule="evenodd" clip-rule="evenodd" d="M21 3v.375L3 4.95v-.375L21 3ZM12.69 17.82l3.772-.33a2.016 2.016 0 0 1-1.95 1.478 2.022 2.022 0 0 1-1.822-1.148ZM12.367 4.448 8.43 7.2l2.34 1.298L3 9.18v.675l3.795-.33h.03c.195 0 .36.15.375.345l.263 2.993v.03c0 .194-.15.36-.346.374L3 13.627v4.29l17.715-1.56a.376.376 0 0 0 .345-.374v-.03l-.637-7.32a.984.984 0 0 0-.975-.893c-.015 0-.029.002-.042.004-.013.002-.026.004-.041.004l-4.71.412 2.07-1.687-4.358-2.025Zm5.325 7.514L17.43 8.97v-.03c0-.195.15-.36.345-.375l1.605-.142h.03c.195 0 .36.15.375.345l.262 2.992v.03c0 .195-.15.36-.345.375l-1.605.143h-.03a.376.376 0 0 1-.375-.345ZM15.615 9.24l.375 4.26c.022.293.27.51.562.51a.567.567 0 0 0 .563-.563v-.052l-.375-4.26a.557.557 0 0 0-.563-.51.567.567 0 0 0-.562.563c-.008.022-.008.037 0 .052Zm-1.425 4.418-.375-4.26v-.053c0-.307.255-.562.563-.562.292 0 .54.217.562.51l.375 4.26v.052a.567.567 0 0 1-.563.563.557.557 0 0 1-.562-.51Zm1.275-7.028-3.03-1.41-2.738 1.913 2.266 1.26 1.485-.128 2.017-1.635ZM7.867 9.78c0-.195.15-.36.346-.375L12.735 9h.03c.195 0 .36.15.375.345l.262 2.992v.03c0 .195-.15.36-.345.375l-4.522.398h-.03a.376.376 0 0 1-.375-.345L7.867 9.81v-.03ZM8.213 18.21l3.772-.33a2.016 2.016 0 0 1-1.95 1.478c-.78 0-1.492-.443-1.822-1.148ZM21 19.425 3 21v-.637l18-1.575v.637Z" fill="#fff"/></svg>