<svg class="color-immutable" width="24" height="24" viewBox="0 0 24 24" fill="none" xmlns="http://www.w3.org/2000/svg"><path fill-rule="evenodd" clip-rule="evenodd" d="M22.5 0h-21C.675 0 0 .675 0 1.5v21c0 .825.675 1.5 1.5 1.5h21c.825 0 1.5-.675 1.5-1.5v-21c0-.825-.675-1.5-1.5-1.5Z" fill="#2D327D"/><path fill-rule="evenodd" clip-rule="evenodd" d="M14.738 7.5h4.012A2.247 2.247 0 0 1 21 9.75v9A2.247 2.247 0 0 1 18.75 21H5.25A2.252 2.252 0 0 1 3 18.75v-9A2.247 2.247 0 0 1 5.25 7.5h4.012v-.9c0-.742.608-1.35 1.35-1.35h2.775c.743 0 1.35.607 1.35 1.35v.9Zm-4.425 0h3.374V6.3h-3.374v1.2Z" fill="#fff"/><path fill-rule="evenodd" clip-rule="evenodd" d="M4.485 14.137c0-2.917 2.37-5.212 5.287-5.212 2.918 0 5.288 2.295 5.288 5.212 0 2.918-2.37 5.363-5.288 5.363-2.917 0-5.287-2.445-5.287-5.363Zm1.5.173a3.787 3.787 0 1 0 7.575 0 3.787 3.787 0 0 0-3.788-3.787 3.787 3.787 0 0 0-3.787 3.787Z" fill="#EB0000"/><path fill-rule="evenodd" clip-rule="evenodd" d="M7.725 14.85h4.125a.567.567 0 0 0 .563-.562.567.567 0 0 0-.563-.563H7.725a.567.567 0 0 0-.563.563c0 .307.255.562.563.562ZM7.583 12.308h-.428v1.042h.428c.09 0 .157-.015.21-.03a.311.311 0 0 0 .15-.09.556.556 0 0 0 .15-.412c0-.173-.053-.3-.158-.398a.483.483 0 0 0-.15-.082.575.575 0 0 0-.202-.03Zm-.188.855v-.653h.165c.098 0 .173.03.225.083.053.052.075.135.075.24 0 .112-.03.202-.082.262a.194.194 0 0 1-.083.053.539.539 0 0 1-.127.015h-.173ZM8.88 12.66a.362.362 0 0 0-.277-.112.413.413 0 0 0-.308.127c-.067.068-.097.165-.097.285 0 .12.037.218.105.293.075.082.172.12.292.12.113 0 .21-.038.278-.105a.42.42 0 0 0 .112-.308.43.43 0 0 0-.105-.3Zm-.412.12a.147.147 0 0 1 .127-.067c.06 0 .105.022.135.082.03.038.045.105.045.18 0 .083-.015.143-.052.188a.16.16 0 0 1-.128.06.16.16 0 0 1-.135-.068.33.33 0 0 1-.045-.187c0-.083.023-.143.053-.188ZM9.832 12.57v.78h-.195v-.112a.282.282 0 0 1-.247.135c-.09 0-.165-.03-.21-.09a.277.277 0 0 1-.038-.083.539.539 0 0 1-.015-.127v-.495h.21v.427c0 .045 0 .075.008.098a.08.08 0 0 0 .015.045c.022.037.06.052.112.052.068 0 .113-.03.143-.09a.369.369 0 0 0 .022-.15v-.382l.195-.008ZM10.492 13.35h.21c-.014-.03-.022-.06 0-.075-.007-.03-.007-.067-.007-.127v-.323a.49.49 0 0 0-.015-.127.127.127 0 0 0-.053-.075c-.06-.053-.15-.075-.27-.075a.413.413 0 0 0-.255.067c-.06.045-.09.105-.097.195h.195c.008-.045.023-.075.045-.09a.199.199 0 0 1 .105-.022c.09 0 .135.037.135.105 0 .03-.008.052-.03.06a.708.708 0 0 1-.158.03c-.09.015-.157.03-.195.045a.203.203 0 0 0-.134.202c0 .075.022.135.075.18.045.038.105.053.187.053.098 0 .18-.03.247-.098 0 .015.008.045.015.075Zm-.165-.337a.421.421 0 0 0 .143-.038l.007.083c0 .022 0 .045-.007.06-.008.015-.015.03-.03.045a.189.189 0 0 1-.15.067.157.157 0 0 1-.082-.03c-.023-.015-.03-.045-.03-.075 0-.037.014-.067.044-.082a.252.252 0 0 1 .106-.03ZM11.033 12.578v.112a.338.338 0 0 1 .067-.075.311.311 0 0 1 .188-.06c.067 0 .12.015.165.045.037.023.06.06.075.098a.485.485 0 0 1 .022.165v.487h-.21v-.45a.365.365 0 0 0-.015-.112.068.068 0 0 0-.045-.045.151.151 0 0 0-.157 0 .228.228 0 0 0-.06.06.313.313 0 0 0-.023.135v.405h-.21v-.78h.203v.015ZM12.345 13.23a.26.26 0 0 0 .06-.12l-.195.008c-.015.037-.03.067-.06.082a.208.208 0 0 1-.098.023.162.162 0 0 1-.157-.105.38.38 0 0 1-.015-.098h.547a.673.673 0 0 0-.03-.232.418.418 0 0 0-.104-.15.354.354 0 0 0-.24-.09c-.12 0-.21.045-.286.127a.412.412 0 0 0-.097.285c0 .06.008.12.03.173a.35.35 0 0 0 .353.24.33.33 0 0 0 .292-.143Zm-.158-.442a.778.778 0 0 1 .023.09h-.33a.22.22 0 0 1 .052-.128.153.153 0 0 1 .113-.045c.03 0 .06.008.082.023.03.015.045.037.06.06Z" fill="#000"/></svg>