<svg class="color-immutable" width="24" height="24" viewBox="0 0 24 24" fill="none" xmlns="http://www.w3.org/2000/svg"><path fill-rule="evenodd" clip-rule="evenodd" d="M22.5 0h-21C.675 0 0 .675 0 1.5v21c0 .825.675 1.5 1.5 1.5h21c.825 0 1.5-.675 1.5-1.5v-21c0-.825-.675-1.5-1.5-1.5Z" fill="#2D327D"/><path fill-rule="evenodd" clip-rule="evenodd" d="M14.738 7.5h4.012A2.247 2.247 0 0 1 21 9.75v9A2.247 2.247 0 0 1 18.75 21H5.25A2.252 2.252 0 0 1 3 18.75v-9A2.247 2.247 0 0 1 5.25 7.5h4.012v-.9c0-.742.608-1.35 1.35-1.35h2.775c.743 0 1.35.607 1.35 1.35v.9Zm-4.425 0h3.374V6.3h-3.374v1.2Z" fill="#fff"/><path fill-rule="evenodd" clip-rule="evenodd" d="M4.485 14.137c0-2.917 2.37-5.212 5.287-5.212 2.918 0 5.288 2.295 5.288 5.212 0 2.918-2.37 5.363-5.288 5.363-2.917 0-5.287-2.445-5.287-5.363Zm1.5.173a3.787 3.787 0 1 0 7.575 0 3.787 3.787 0 0 0-3.788-3.787 3.787 3.787 0 0 0-3.787 3.787Z" fill="#EB0000"/><path fill-rule="evenodd" clip-rule="evenodd" d="M7.725 14.85h4.125a.567.567 0 0 0 .563-.562.567.567 0 0 0-.563-.563H7.725a.567.567 0 0 0-.563.563c0 .307.255.562.563.562ZM7.583 12.308h-.428v1.042h.428c.09 0 .157-.015.21-.03a.311.311 0 0 0 .15-.09.556.556 0 0 0 .15-.412c0-.173-.053-.3-.158-.398a.423.423 0 0 0-.15-.082.575.575 0 0 0-.202-.03Zm-.188.855v-.653h.165c.098 0 .173.03.225.083.053.052.075.135.075.24 0 .112-.03.202-.082.262a.194.194 0 0 1-.083.053.539.539 0 0 1-.127.015h-.173ZM8.88 12.66a.362.362 0 0 0-.277-.112.413.413 0 0 0-.308.127c-.067.068-.097.165-.097.285 0 .12.037.218.105.293.075.082.172.12.292.12.113 0 .21-.038.278-.105a.42.42 0 0 0 .112-.308.43.43 0 0 0-.105-.3Zm-.412.12a.147.147 0 0 1 .127-.067c.06 0 .105.022.135.082.03.038.045.105.045.18 0 .083-.015.143-.052.188a.16.16 0 0 1-.128.06.16.16 0 0 1-.135-.068.33.33 0 0 1-.045-.187c0-.083.023-.143.053-.188ZM9.855 13.26v-.69l-.202-.015v.105a.398.398 0 0 0-.098-.097c-.03-.023-.075-.03-.127-.03a.295.295 0 0 0-.24.112.432.432 0 0 0-.09.285c0 .12.03.218.09.285.06.068.135.105.232.105.105 0 .18-.037.233-.12v.098c0 .067-.008.112-.03.142-.023.038-.068.053-.135.053-.083 0-.135-.03-.15-.098h-.21c.015.165.135.248.352.248.158 0 .263-.045.323-.143.015-.03.03-.06.037-.097a.634.634 0 0 0 .015-.143Zm-.51-.465c.03-.052.075-.075.135-.075.053 0 .09.015.128.053.037.045.052.097.052.172 0 .06-.015.113-.037.15a.162.162 0 0 1-.143.075c-.052 0-.09-.015-.12-.052-.037-.038-.052-.098-.052-.173 0-.06.015-.112.037-.15ZM10.515 13.35h.21c-.007-.03-.015-.06 0-.075-.007-.03-.007-.067-.007-.127v-.323a.49.49 0 0 0-.015-.127.127.127 0 0 0-.053-.075c-.06-.053-.15-.075-.27-.075a.413.413 0 0 0-.255.067c-.06.045-.09.105-.097.195h.195c.007-.045.022-.075.045-.09a.199.199 0 0 1 .105-.022c.09 0 .135.037.135.105 0 .03-.008.052-.03.06a.708.708 0 0 1-.158.03c-.09.015-.157.03-.195.045a.203.203 0 0 0-.135.202c0 .075.023.135.075.18.045.038.105.053.188.053.097 0 .18-.03.247-.098 0 .015.008.045.015.075Zm-.157-.337a.421.421 0 0 0 .142-.038l.008.083c0 .022 0 .045-.008.06-.007.015-.015.03-.03.045a.189.189 0 0 1-.15.067.157.157 0 0 1-.082-.03c-.023-.015-.03-.045-.03-.075 0-.037.015-.067.045-.082a.252.252 0 0 1 .105-.03ZM11.055 12.578v.112c.023-.03.045-.06.068-.075a.311.311 0 0 1 .187-.06c.067 0 .12.015.165.045.037.023.06.06.075.098a.485.485 0 0 1 .022.165v.487h-.21v-.45a.365.365 0 0 0-.014-.112.068.068 0 0 0-.046-.045.151.151 0 0 0-.158 0 .228.228 0 0 0-.059.06.313.313 0 0 0-.023.135v.405h-.21v-.78l.203.015ZM12.225 13.35h.21c-.015-.03-.015-.06 0-.075-.008-.03-.008-.067-.008-.127v-.323a.49.49 0 0 0-.014-.127.127.127 0 0 0-.053-.075c-.06-.053-.15-.075-.27-.075a.413.413 0 0 0-.255.067c-.06.045-.09.105-.098.195h.195c.008-.045.023-.075.045-.09a.199.199 0 0 1 .105-.022c.09 0 .135.037.135.105 0 .03-.007.052-.03.06a.708.708 0 0 1-.157.03c-.09.015-.157.03-.195.045a.203.203 0 0 0-.135.202c0 .075.023.135.075.18.045.038.105.053.188.053.097 0 .18-.03.247-.098 0 .015.007.045.015.075Zm-.157-.337a.252.252 0 0 0-.105.03l.105-.03Zm-.105.03c-.03.015-.045.045-.045.082l.045-.082Zm-.045.082c0 .03.007.06.03.075l-.03-.075Zm.03.075c.022.015.052.03.082.03l-.082-.03Zm.082.03c.06 0 .113-.022.15-.067l-.15.067Zm.15-.067c.015-.015.023-.03.03-.045l-.03.045Zm.03-.045c.007-.015.007-.038.007-.06l-.007.06Zm.007-.06v-.083.083Zm0-.083h-.007.007Z" fill="#000"/></svg>