<svg class="color-immutable" width="24" height="24" viewBox="0 0 24 24" fill="none" xmlns="http://www.w3.org/2000/svg"><path fill-rule="evenodd" clip-rule="evenodd" d="M22.5 0h-21C.675 0 0 .675 0 1.5v21c0 .825.675 1.5 1.5 1.5h21c.825 0 1.5-.675 1.5-1.5v-21c0-.825-.675-1.5-1.5-1.5Z" fill="#2D327D"/><path fill-rule="evenodd" clip-rule="evenodd" d="M14.738 7.5h4.012A2.247 2.247 0 0 1 21 9.75v9A2.247 2.247 0 0 1 18.75 21H5.25A2.252 2.252 0 0 1 3 18.75v-9A2.247 2.247 0 0 1 5.25 7.5h4.012v-.9c0-.742.608-1.35 1.35-1.35h2.775c.743 0 1.35.607 1.35 1.35v.9Zm-4.425 0h3.374V6.3h-3.374v1.2Z" fill="#fff"/><path fill-rule="evenodd" clip-rule="evenodd" d="M4.485 14.137c0-2.917 2.37-5.212 5.287-5.212 2.918 0 5.288 2.295 5.288 5.212 0 2.918-2.37 5.363-5.288 5.363-2.917 0-5.287-2.445-5.287-5.363Zm1.5.173a3.787 3.787 0 1 0 7.575 0 3.787 3.787 0 0 0-3.788-3.787 3.787 3.787 0 0 0-3.787 3.787Z" fill="#EB0000"/><path fill-rule="evenodd" clip-rule="evenodd" d="M7.725 14.85h4.125a.567.567 0 0 0 .563-.562.567.567 0 0 0-.563-.563H7.725a.567.567 0 0 0-.563.563c0 .307.255.562.563.562ZM9.412 12.308v.172l-.57.683h.585v.195h-.885v-.18l.563-.668H8.58v-.195l.832-.007ZM10.2 12.66a.362.362 0 0 0-.278-.112.401.401 0 0 0-.307.127c-.068.068-.098.165-.098.285 0 .12.038.218.105.293.075.082.173.12.293.12.113 0 .21-.038.278-.105a.42.42 0 0 0 .112-.308.43.43 0 0 0-.105-.3Zm-.42.12a.147.147 0 0 1 .127-.067c.06 0 .105.022.136.082.03.038.045.105.045.18 0 .083-.015.143-.053.188a.16.16 0 0 1-.128.06.16.16 0 0 1-.135-.068.33.33 0 0 1-.045-.187c0-.083.023-.143.053-.188ZM10.65 12.308v1.05h-.21v-1.05h.21ZM11.033 12.308v1.05h-.21v-1.05h.21Z" fill="#000"/></svg>