<svg class="color-immutable" width="24" height="24" viewBox="0 0 24 24" fill="none" xmlns="http://www.w3.org/2000/svg"><path fill-rule="evenodd" clip-rule="evenodd" d="M22.5 0h-21C.675 0 0 .675 0 1.5v21c0 .825.675 1.5 1.5 1.5h21c.825 0 1.5-.675 1.5-1.5v-21c0-.825-.675-1.5-1.5-1.5Z" fill="#2D327D"/><path fill-rule="evenodd" clip-rule="evenodd" d="M20.715 18.863c.21 0 .375-.165.375-.375v-.053l-.323-2.235h-3.892v2.663h3.84ZM11.633 8.19H3V7.5h7.05L7.837 6 12 3.638 16.14 6h.023L13.95 7.5h4.598a1.13 1.13 0 0 1 1.117.968l1.005 7.02H3v-3.713h8.633a.368.368 0 0 0 0-.735H3v-.69h8.633a.368.368 0 0 0 0-.735H3v-.69h8.633a.368.368 0 0 0 0-.735Zm5.017 3.21c0 .21.165.375.375.375h1.958c.21 0 .375-.165.375-.375v-.053l-.405-2.834a.379.379 0 0 0-.375-.323h-1.553a.371.371 0 0 0-.375.375V11.4Zm-1.845-5.34L12.682 7.5h-1.364l-2.13-1.447L12 4.455l2.805 1.605ZM7.793 18.023a1.91 1.91 0 0 1 1.912-1.913 1.91 1.91 0 0 1 1.912 1.913 1.91 1.91 0 0 1-1.912 1.912 1.91 1.91 0 0 1-1.912-1.912ZM12.3 18.023a1.91 1.91 0 0 1 1.912-1.913 1.91 1.91 0 0 1 1.913 1.913 1.91 1.91 0 0 1-1.912 1.912 1.91 1.91 0 0 1-1.913-1.912ZM21 3v.375H3V3h18ZM3 21v-.712h18V21H3ZM2.85 16.313V16.2h4.125v2.663H2.85v-2.55Z" fill="#fff"/></svg>