<svg class="color-immutable" width="24" height="24" viewBox="0 0 24 24" fill="none" xmlns="http://www.w3.org/2000/svg"><path fill-rule="evenodd" clip-rule="evenodd" d="M22.5 0h-21C.675 0 0 .675 0 1.5v21c0 .825.675 1.5 1.5 1.5h21c.825 0 1.5-.675 1.5-1.5v-21c0-.825-.675-1.5-1.5-1.5Z" fill="#2D327D"/><path fill-rule="evenodd" clip-rule="evenodd" d="M3.285 18.863a.371.371 0 0 1-.375-.375c0-.015 0-.038.007-.053L3.24 16.2h3.893v2.663H3.285ZM12.367 8.19H21V7.5h-7.05L16.163 6 12 3.638 7.86 6h-.022l2.212 1.5H5.452c-.562 0-1.034.413-1.11.968l-1.004 7.02H21v-3.713h-8.633a.368.368 0 0 1 0-.735H21v-.69h-8.633a.368.368 0 0 1 0-.735H21v-.69h-8.633a.368.368 0 0 1 0-.735ZM7.35 11.4c0 .21-.165.375-.375.375H5.018a.371.371 0 0 1-.375-.375c0-.015 0-.037.007-.053l.405-2.834a.377.377 0 0 1 .368-.323h1.552c.21 0 .375.165.375.375V11.4Zm1.845-5.34 2.123 1.44h1.364l2.13-1.447L12 4.455 9.195 6.06ZM16.207 18.023a1.91 1.91 0 0 0-1.912-1.913 1.91 1.91 0 0 0-1.912 1.913 1.91 1.91 0 0 0 1.912 1.912 1.91 1.91 0 0 0 1.912-1.912ZM11.7 18.023a1.91 1.91 0 0 0-1.912-1.913 1.91 1.91 0 0 0-1.913 1.913 1.91 1.91 0 0 0 1.912 1.912 1.91 1.91 0 0 0 1.913-1.912ZM3 3v.375h18V3H3ZM21 21v-.712H3V21h18ZM21 16.313V16.2h-4.125v2.663H21v-2.55Z" fill="#fff"/></svg>